solid OpenSCAD_Model
  facet normal 0 0 -1
    outer loop
      vertex -94.3 -43.3 54.4
      vertex -93.7 -42.699999999999996 54.4
      vertex -93.7 -43.3 54.4
    endloop
  endfacet
  facet normal 0 0 -1
    outer loop
      vertex -94.3 -43.3 54.4
      vertex -94.3 -42.699999999999996 54.4
      vertex -93.7 -42.699999999999996 54.4
    endloop
  endfacet
  facet normal 0 -1 0
    outer loop
      vertex -94.3 -43.3 54.4
      vertex -93.7 -43.3 54.4
      vertex -93.7 -43.3 54.699999999999996
    endloop
  endfacet
  facet normal -1 0 0
    outer loop
      vertex -94.3 -43.3 54.4
      vertex -94.3 -42.699999999999996 54.699999999999996
      vertex -94.3 -42.699999999999996 54.4
    endloop
  endfacet
  facet normal 0 1 0
    outer loop
      vertex -94.3 -42.699999999999996 54.4
      vertex -94.3 -42.699999999999996 54.699999999999996
      vertex -93.7 -42.699999999999996 54.4
    endloop
  endfacet
  facet normal 1 0 0
    outer loop
      vertex -93.7 -43.3 54.4
      vertex -93.7 -42.699999999999996 54.4
      vertex -93.7 -43.3 54.699999999999996
    endloop
  endfacet
  facet normal 0 -1 0
    outer loop
      vertex -94.3 -43.3 54.4
      vertex -93.7 -43.3 54.699999999999996
      vertex -94.3 -43.3 54.699999999999996
    endloop
  endfacet
  facet normal -1 0 0
    outer loop
      vertex -94.3 -43.3 54.4
      vertex -94.3 -43.3 54.699999999999996
      vertex -94.3 -42.699999999999996 54.699999999999996
    endloop
  endfacet
  facet normal 0 1 0
    outer loop
      vertex -93.7 -42.699999999999996 54.4
      vertex -94.3 -42.699999999999996 54.699999999999996
      vertex -93.7 -42.699999999999996 54.699999999999996
    endloop
  endfacet
  facet normal 1 0 0
    outer loop
      vertex -93.7 -42.699999999999996 54.4
      vertex -93.7 -42.699999999999996 54.699999999999996
      vertex -93.7 -43.3 54.699999999999996
    endloop
  endfacet
  facet normal 0 0 1
    outer loop
      vertex -94.3 -43.3 54.699999999999996
      vertex -93.7 -43.3 54.699999999999996
      vertex -94.3 -42.699999999999996 54.699999999999996
    endloop
  endfacet
  facet normal 0 0 1
    outer loop
      vertex -94.3 -42.699999999999996 54.699999999999996
      vertex -93.7 -43.3 54.699999999999996
      vertex -93.7 -42.699999999999996 54.699999999999996
    endloop
  endfacet
  facet normal 0 0 -1
    outer loop
      vertex 38.7 -43.3 54.4
      vertex 39.300000000000004 -42.699999999999996 54.4
      vertex 39.300000000000004 -43.3 54.4
    endloop
  endfacet
  facet normal 0 0 -1
    outer loop
      vertex 38.7 -43.3 54.4
      vertex 38.7 -42.699999999999996 54.4
      vertex 39.300000000000004 -42.699999999999996 54.4
    endloop
  endfacet
  facet normal -1 0 0
    outer loop
      vertex 38.7 -43.3 54.4
      vertex 38.7 -42.699999999999996 54.699999999999996
      vertex 38.7 -42.699999999999996 54.4
    endloop
  endfacet
  facet normal 0 -1 0
    outer loop
      vertex 38.7 -43.3 54.4
      vertex 39.300000000000004 -43.3 54.4
      vertex 39.300000000000004 -43.3 54.699999999999996
    endloop
  endfacet
  facet normal 1 0 0
    outer loop
      vertex 39.300000000000004 -43.3 54.4
      vertex 39.300000000000004 -42.699999999999996 54.4
      vertex 39.300000000000004 -43.3 54.699999999999996
    endloop
  endfacet
  facet normal 0 1 0
    outer loop
      vertex 38.7 -42.699999999999996 54.4
      vertex 38.7 -42.699999999999996 54.699999999999996
      vertex 39.300000000000004 -42.699999999999996 54.4
    endloop
  endfacet
  facet normal -1 0 0
    outer loop
      vertex 38.7 -43.3 54.4
      vertex 38.7 -43.3 54.699999999999996
      vertex 38.7 -42.699999999999996 54.699999999999996
    endloop
  endfacet
  facet normal 0 -1 0
    outer loop
      vertex 38.7 -43.3 54.4
      vertex 39.300000000000004 -43.3 54.699999999999996
      vertex 38.7 -43.3 54.699999999999996
    endloop
  endfacet
  facet normal 1 0 0
    outer loop
      vertex 39.300000000000004 -42.699999999999996 54.4
      vertex 39.300000000000004 -42.699999999999996 54.699999999999996
      vertex 39.300000000000004 -43.3 54.699999999999996
    endloop
  endfacet
  facet normal 0 1 0
    outer loop
      vertex 39.300000000000004 -42.699999999999996 54.4
      vertex 38.7 -42.699999999999996 54.699999999999996
      vertex 39.300000000000004 -42.699999999999996 54.699999999999996
    endloop
  endfacet
  facet normal 0 0 1
    outer loop
      vertex 38.7 -43.3 54.699999999999996
      vertex 39.300000000000004 -43.3 54.699999999999996
      vertex 38.7 -42.699999999999996 54.699999999999996
    endloop
  endfacet
  facet normal 0 0 1
    outer loop
      vertex 38.7 -42.699999999999996 54.699999999999996
      vertex 39.300000000000004 -43.3 54.699999999999996
      vertex 39.300000000000004 -42.699999999999996 54.699999999999996
    endloop
  endfacet
  facet normal 0 0 -1
    outer loop
      vertex -94.3 44.7 54.4
      vertex -93.7 45.300000000000004 54.4
      vertex -93.7 44.7 54.4
    endloop
  endfacet
  facet normal 0 0 -1
    outer loop
      vertex -94.3 44.7 54.4
      vertex -94.3 45.300000000000004 54.4
      vertex -93.7 45.300000000000004 54.4
    endloop
  endfacet
  facet normal 0 -1 0
    outer loop
      vertex -94.3 44.7 54.4
      vertex -93.7 44.7 54.4
      vertex -93.7 44.7 54.699999999999996
    endloop
  endfacet
  facet normal -1 0 0
    outer loop
      vertex -94.3 44.7 54.4
      vertex -94.3 45.300000000000004 54.699999999999996
      vertex -94.3 45.300000000000004 54.4
    endloop
  endfacet
  facet normal 0 1 0
    outer loop
      vertex -94.3 45.300000000000004 54.4
      vertex -94.3 45.300000000000004 54.699999999999996
      vertex -93.7 45.300000000000004 54.4
    endloop
  endfacet
  facet normal 1 0 0
    outer loop
      vertex -93.7 44.7 54.4
      vertex -93.7 45.300000000000004 54.4
      vertex -93.7 44.7 54.699999999999996
    endloop
  endfacet
  facet normal 0 -1 0
    outer loop
      vertex -94.3 44.7 54.4
      vertex -93.7 44.7 54.699999999999996
      vertex -94.3 44.7 54.699999999999996
    endloop
  endfacet
  facet normal -1 0 0
    outer loop
      vertex -94.3 44.7 54.4
      vertex -94.3 44.7 54.699999999999996
      vertex -94.3 45.300000000000004 54.699999999999996
    endloop
  endfacet
  facet normal 0 1 0
    outer loop
      vertex -93.7 45.300000000000004 54.4
      vertex -94.3 45.300000000000004 54.699999999999996
      vertex -93.7 45.300000000000004 54.699999999999996
    endloop
  endfacet
  facet normal 1 0 0
    outer loop
      vertex -93.7 45.300000000000004 54.4
      vertex -93.7 45.300000000000004 54.699999999999996
      vertex -93.7 44.7 54.699999999999996
    endloop
  endfacet
  facet normal 0 0 1
    outer loop
      vertex -94.3 44.7 54.699999999999996
      vertex -93.7 44.7 54.699999999999996
      vertex -94.3 45.300000000000004 54.699999999999996
    endloop
  endfacet
  facet normal 0 0 1
    outer loop
      vertex -94.3 45.300000000000004 54.699999999999996
      vertex -93.7 44.7 54.699999999999996
      vertex -93.7 45.300000000000004 54.699999999999996
    endloop
  endfacet
  facet normal 0 0 -1
    outer loop
      vertex 38.7 44.7 54.4
      vertex 39.300000000000004 45.300000000000004 54.4
      vertex 39.300000000000004 44.7 54.4
    endloop
  endfacet
  facet normal 0 0 -1
    outer loop
      vertex 38.7 44.7 54.4
      vertex 38.7 45.300000000000004 54.4
      vertex 39.300000000000004 45.300000000000004 54.4
    endloop
  endfacet
  facet normal -1 0 0
    outer loop
      vertex 38.7 44.7 54.4
      vertex 38.7 45.300000000000004 54.699999999999996
      vertex 38.7 45.300000000000004 54.4
    endloop
  endfacet
  facet normal 0 -1 0
    outer loop
      vertex 38.7 44.7 54.4
      vertex 39.300000000000004 44.7 54.4
      vertex 39.300000000000004 44.7 54.699999999999996
    endloop
  endfacet
  facet normal 1 0 0
    outer loop
      vertex 39.300000000000004 44.7 54.4
      vertex 39.300000000000004 45.300000000000004 54.4
      vertex 39.300000000000004 44.7 54.699999999999996
    endloop
  endfacet
  facet normal 0 1 0
    outer loop
      vertex 38.7 45.300000000000004 54.4
      vertex 38.7 45.300000000000004 54.699999999999996
      vertex 39.300000000000004 45.300000000000004 54.4
    endloop
  endfacet
  facet normal -1 0 0
    outer loop
      vertex 38.7 44.7 54.4
      vertex 38.7 44.7 54.699999999999996
      vertex 38.7 45.300000000000004 54.699999999999996
    endloop
  endfacet
  facet normal 0 -1 0
    outer loop
      vertex 38.7 44.7 54.4
      vertex 39.300000000000004 44.7 54.699999999999996
      vertex 38.7 44.7 54.699999999999996
    endloop
  endfacet
  facet normal 1 0 0
    outer loop
      vertex 39.300000000000004 45.300000000000004 54.4
      vertex 39.300000000000004 45.300000000000004 54.699999999999996
      vertex 39.300000000000004 44.7 54.699999999999996
    endloop
  endfacet
  facet normal 0 1 0
    outer loop
      vertex 39.300000000000004 45.300000000000004 54.4
      vertex 38.7 45.300000000000004 54.699999999999996
      vertex 39.300000000000004 45.300000000000004 54.699999999999996
    endloop
  endfacet
  facet normal 0 0 1
    outer loop
      vertex 38.7 44.7 54.699999999999996
      vertex 39.300000000000004 44.7 54.699999999999996
      vertex 38.7 45.300000000000004 54.699999999999996
    endloop
  endfacet
  facet normal 0 0 1
    outer loop
      vertex 38.7 45.300000000000004 54.699999999999996
      vertex 39.300000000000004 44.7 54.699999999999996
      vertex 39.300000000000004 45.300000000000004 54.699999999999996
    endloop
  endfacet
endsolid OpenSCAD_Model
