solid OpenSCAD_Model
  facet normal 0.19509032329762704 -0.9807852801483246 0
    outer loop
      vertex 33.44304455816746 -26.881644129753113 18.18
      vertex 33.03507328778505 -26.96279466152191 18.94
      vertex 33.03507328778505 -26.96279466152191 18.18
    endloop
  endfacet
  facet normal 0.19509032329762704 -0.9807852801483246 0
    outer loop
      vertex 33.44304455816746 -26.881644129753113 18.18
      vertex 33.44304455816746 -26.881644129753113 18.94
      vertex 33.03507328778505 -26.96279466152191 18.94
    endloop
  endfacet
  facet normal 0.3214394533697669 -0.9469301335459472 0
    outer loop
      vertex 33.83693331480026 -26.74793691933155 18.18
      vertex 33.44304455816746 -26.881644129753113 18.94
      vertex 33.44304455816746 -26.881644129753113 18.18
    endloop
  endfacet
  facet normal 0.3214394533697669 -0.9469301335459472 0
    outer loop
      vertex 33.83693331480026 -26.74793691933155 18.18
      vertex 33.83693331480026 -26.74793691933155 18.94
      vertex 33.44304455816746 -26.881644129753113 18.94
    endloop
  endfacet
  facet normal 0.4422887023943569 -0.8968727355284672 0
    outer loop
      vertex 34.21000000089407 -26.563960783183575 18.18
      vertex 33.83693331480026 -26.74793691933155 18.94
      vertex 33.83693331480026 -26.74793691933155 18.18
    endloop
  endfacet
  facet normal 0.4422887023943569 -0.8968727355284672 0
    outer loop
      vertex 34.21000000089407 -26.563960783183575 18.18
      vertex 34.21000000089407 -26.563960783183575 18.94
      vertex 33.83693331480026 -26.74793691933155 18.94
    endloop
  endfacet
  facet normal 0.555570239639958 -0.8314696078789651 0
    outer loop
      vertex 34.555861338973045 -26.332863621413708 18.18
      vertex 34.21000000089407 -26.563960783183575 18.94
      vertex 34.21000000089407 -26.563960783183575 18.18
    endloop
  endfacet
  facet normal 0.555570239639958 -0.8314696078789651 0
    outer loop
      vertex 34.555861338973045 -26.332863621413708 18.18
      vertex 34.555861338973045 -26.332863621413708 18.94
      vertex 34.21000000089407 -26.563960783183575 18.94
    endloop
  endfacet
  facet normal 0.6593458018184839 -0.7518398191266147 0
    outer loop
      vertex 34.86859956383705 -26.058599568903446 18.18
      vertex 34.555861338973045 -26.332863621413708 18.94
      vertex 34.555861338973045 -26.332863621413708 18.18
    endloop
  endfacet
  facet normal 0.6593458018184839 -0.7518398191266147 0
    outer loop
      vertex 34.86859956383705 -26.058599568903446 18.18
      vertex 34.86859956383705 -26.058599568903446 18.94
      vertex 34.555861338973045 -26.332863621413708 18.94
    endloop
  endfacet
  facet normal 0.7518398191266147 -0.6593458018184839 0
    outer loop
      vertex 35.14286361634731 -25.74586134403944 18.18
      vertex 34.86859956383705 -26.058599568903446 18.94
      vertex 34.86859956383705 -26.058599568903446 18.18
    endloop
  endfacet
  facet normal 0.7518398191266147 -0.6593458018184839 0
    outer loop
      vertex 35.14286361634731 -25.74586134403944 18.18
      vertex 35.14286361634731 -25.74586134403944 18.94
      vertex 34.86859956383705 -26.058599568903446 18.94
    endloop
  endfacet
  facet normal 0.8314696078789651 -0.555570239639958 0
    outer loop
      vertex 35.37396077811718 -25.400000005960464 18.18
      vertex 35.14286361634731 -25.74586134403944 18.94
      vertex 35.14286361634731 -25.74586134403944 18.18
    endloop
  endfacet
  facet normal 0.8314696078789651 -0.555570239639958 0
    outer loop
      vertex 35.37396077811718 -25.400000005960464 18.18
      vertex 35.37396077811718 -25.400000005960464 18.94
      vertex 35.14286361634731 -25.74586134403944 18.94
    endloop
  endfacet
  facet normal 0.8968727355284672 -0.4422887023943569 0
    outer loop
      vertex 35.557936914265156 -25.026933319866657 18.18
      vertex 35.37396077811718 -25.400000005960464 18.94
      vertex 35.37396077811718 -25.400000005960464 18.18
    endloop
  endfacet
  facet normal 0.8968727355284672 -0.4422887023943569 0
    outer loop
      vertex 35.557936914265156 -25.026933319866657 18.18
      vertex 35.557936914265156 -25.026933319866657 18.94
      vertex 35.37396077811718 -25.400000005960464 18.94
    endloop
  endfacet
  facet normal 0.9469301335459472 -0.3214394533697669 0
    outer loop
      vertex 35.69164412468672 -24.633044563233852 18.18
      vertex 35.557936914265156 -25.026933319866657 18.94
      vertex 35.557936914265156 -25.026933319866657 18.18
    endloop
  endfacet
  facet normal 0.9469301335459472 -0.3214394533697669 0
    outer loop
      vertex 35.69164412468672 -24.633044563233852 18.18
      vertex 35.69164412468672 -24.633044563233852 18.94
      vertex 35.557936914265156 -25.026933319866657 18.94
    endloop
  endfacet
  facet normal 0.9807852801483246 -0.19509032329762704 0
    outer loop
      vertex 35.77279465645552 -24.225073292851448 18.18
      vertex 35.69164412468672 -24.633044563233852 18.94
      vertex 35.69164412468672 -24.633044563233852 18.18
    endloop
  endfacet
  facet normal 0.9807852801483246 -0.19509032329762704 0
    outer loop
      vertex 35.77279465645552 -24.225073292851448 18.18
      vertex 35.77279465645552 -24.225073292851448 18.94
      vertex 35.69164412468672 -24.633044563233852 18.94
    endloop
  endfacet
  facet normal 0.99785892327235 -0.06540312871527007 0
    outer loop
      vertex 35.79999999701977 -23.810000002384186 18.18
      vertex 35.77279465645552 -24.225073292851448 18.94
      vertex 35.77279465645552 -24.225073292851448 18.18
    endloop
  endfacet
  facet normal 0.99785892327235 -0.06540312871527007 0
    outer loop
      vertex 35.79999999701977 -23.810000002384186 18.18
      vertex 35.79999999701977 -23.810000002384186 18.94
      vertex 35.77279465645552 -24.225073292851448 18.94
    endloop
  endfacet
  facet normal 1 0 0
    outer loop
      vertex 35.79999999701977 23.810000002384186 18.18
      vertex 35.79999999701977 -23.810000002384186 18.94
      vertex 35.79999999701977 -23.810000002384186 18.18
    endloop
  endfacet
  facet normal 1 0 0
    outer loop
      vertex 35.79999999701977 23.810000002384186 18.18
      vertex 35.79999999701977 23.810000002384186 18.94
      vertex 35.79999999701977 -23.810000002384186 18.94
    endloop
  endfacet
  facet normal 0.99785892327235 0.06540312871527007 0
    outer loop
      vertex 35.77279465645552 24.225073292851448 18.18
      vertex 35.79999999701977 23.810000002384186 18.94
      vertex 35.79999999701977 23.810000002384186 18.18
    endloop
  endfacet
  facet normal 0.99785892327235 0.06540312871527007 0
    outer loop
      vertex 35.77279465645552 24.225073292851448 18.18
      vertex 35.77279465645552 24.225073292851448 18.94
      vertex 35.79999999701977 23.810000002384186 18.94
    endloop
  endfacet
  facet normal 0.9807852801483246 0.19509032329762704 0
    outer loop
      vertex 35.69164412468672 24.633044563233852 18.18
      vertex 35.77279465645552 24.225073292851448 18.94
      vertex 35.77279465645552 24.225073292851448 18.18
    endloop
  endfacet
  facet normal 0.9807852801483246 0.19509032329762704 0
    outer loop
      vertex 35.69164412468672 24.633044563233852 18.18
      vertex 35.69164412468672 24.633044563233852 18.94
      vertex 35.77279465645552 24.225073292851448 18.94
    endloop
  endfacet
  facet normal 0.9469301335459472 0.3214394533697669 0
    outer loop
      vertex 35.557936914265156 25.026933319866657 18.18
      vertex 35.69164412468672 24.633044563233852 18.94
      vertex 35.69164412468672 24.633044563233852 18.18
    endloop
  endfacet
  facet normal 0.9469301335459472 0.3214394533697669 0
    outer loop
      vertex 35.557936914265156 25.026933319866657 18.18
      vertex 35.557936914265156 25.026933319866657 18.94
      vertex 35.69164412468672 24.633044563233852 18.94
    endloop
  endfacet
  facet normal 0.8968727355284672 0.4422887023943569 0
    outer loop
      vertex 35.37396077811718 25.400000005960464 18.18
      vertex 35.557936914265156 25.026933319866657 18.94
      vertex 35.557936914265156 25.026933319866657 18.18
    endloop
  endfacet
  facet normal 0.8968727355284672 0.4422887023943569 0
    outer loop
      vertex 35.37396077811718 25.400000005960464 18.18
      vertex 35.37396077811718 25.400000005960464 18.94
      vertex 35.557936914265156 25.026933319866657 18.94
    endloop
  endfacet
  facet normal 0.8314696078789651 0.555570239639958 0
    outer loop
      vertex 35.14286361634731 25.74586134403944 18.18
      vertex 35.37396077811718 25.400000005960464 18.94
      vertex 35.37396077811718 25.400000005960464 18.18
    endloop
  endfacet
  facet normal 0.8314696078789651 0.555570239639958 0
    outer loop
      vertex 35.14286361634731 25.74586134403944 18.18
      vertex 35.14286361634731 25.74586134403944 18.94
      vertex 35.37396077811718 25.400000005960464 18.94
    endloop
  endfacet
  facet normal 0.7518398191266147 0.6593458018184839 0
    outer loop
      vertex 34.86859956383705 26.058599568903446 18.18
      vertex 35.14286361634731 25.74586134403944 18.94
      vertex 35.14286361634731 25.74586134403944 18.18
    endloop
  endfacet
  facet normal 0.7518398191266147 0.6593458018184839 0
    outer loop
      vertex 34.86859956383705 26.058599568903446 18.18
      vertex 34.86859956383705 26.058599568903446 18.94
      vertex 35.14286361634731 25.74586134403944 18.94
    endloop
  endfacet
  facet normal 0.6593458018184839 0.7518398191266147 0
    outer loop
      vertex 34.555861338973045 26.332863621413708 18.18
      vertex 34.86859956383705 26.058599568903446 18.94
      vertex 34.86859956383705 26.058599568903446 18.18
    endloop
  endfacet
  facet normal 0.6593458018184839 0.7518398191266147 0
    outer loop
      vertex 34.555861338973045 26.332863621413708 18.18
      vertex 34.555861338973045 26.332863621413708 18.94
      vertex 34.86859956383705 26.058599568903446 18.94
    endloop
  endfacet
  facet normal 0.555570239639958 0.8314696078789651 0
    outer loop
      vertex 34.21000000089407 26.563960783183575 18.18
      vertex 34.555861338973045 26.332863621413708 18.94
      vertex 34.555861338973045 26.332863621413708 18.18
    endloop
  endfacet
  facet normal 0.555570239639958 0.8314696078789651 0
    outer loop
      vertex 34.21000000089407 26.563960783183575 18.18
      vertex 34.21000000089407 26.563960783183575 18.94
      vertex 34.555861338973045 26.332863621413708 18.94
    endloop
  endfacet
  facet normal 0.4422887023943569 0.8968727355284672 0
    outer loop
      vertex 33.83693331480026 26.74793691933155 18.18
      vertex 34.21000000089407 26.563960783183575 18.94
      vertex 34.21000000089407 26.563960783183575 18.18
    endloop
  endfacet
  facet normal 0.4422887023943569 0.8968727355284672 0
    outer loop
      vertex 33.83693331480026 26.74793691933155 18.18
      vertex 33.83693331480026 26.74793691933155 18.94
      vertex 34.21000000089407 26.563960783183575 18.94
    endloop
  endfacet
  facet normal 0.3214394533697669 0.9469301335459472 0
    outer loop
      vertex 33.44304455816746 26.881644129753113 18.18
      vertex 33.83693331480026 26.74793691933155 18.94
      vertex 33.83693331480026 26.74793691933155 18.18
    endloop
  endfacet
  facet normal 0.3214394533697669 0.9469301335459472 0
    outer loop
      vertex 33.44304455816746 26.881644129753113 18.18
      vertex 33.44304455816746 26.881644129753113 18.94
      vertex 33.83693331480026 26.74793691933155 18.94
    endloop
  endfacet
  facet normal 0.19509032329762704 0.9807852801483246 0
    outer loop
      vertex 33.03507328778505 26.96279466152191 18.18
      vertex 33.44304455816746 26.881644129753113 18.94
      vertex 33.44304455816746 26.881644129753113 18.18
    endloop
  endfacet
  facet normal 0.19509032329762704 0.9807852801483246 0
    outer loop
      vertex 33.03507328778505 26.96279466152191 18.18
      vertex 33.03507328778505 26.96279466152191 18.94
      vertex 33.44304455816746 26.881644129753113 18.94
    endloop
  endfacet
  facet normal 0.06540312871527007 0.99785892327235 0
    outer loop
      vertex 32.61999999731779 26.990000002086163 18.18
      vertex 33.03507328778505 26.96279466152191 18.94
      vertex 33.03507328778505 26.96279466152191 18.18
    endloop
  endfacet
  facet normal 0.06540312871527007 0.99785892327235 0
    outer loop
      vertex 32.61999999731779 26.990000002086163 18.18
      vertex 32.61999999731779 26.990000002086163 18.94
      vertex 33.03507328778505 26.96279466152191 18.94
    endloop
  endfacet
  facet normal 0 1 0
    outer loop
      vertex -46.61999999731779 26.990000002086163 18.18
      vertex 32.61999999731779 26.990000002086163 18.94
      vertex 32.61999999731779 26.990000002086163 18.18
    endloop
  endfacet
  facet normal 0 1 0
    outer loop
      vertex -46.61999999731779 26.990000002086163 18.18
      vertex -46.61999999731779 26.990000002086163 18.94
      vertex 32.61999999731779 26.990000002086163 18.94
    endloop
  endfacet
  facet normal -0.06540312871527007 0.99785892327235 0
    outer loop
      vertex -47.03507328778505 26.96279466152191 18.18
      vertex -46.61999999731779 26.990000002086163 18.94
      vertex -46.61999999731779 26.990000002086163 18.18
    endloop
  endfacet
  facet normal -0.06540312871527007 0.99785892327235 0
    outer loop
      vertex -47.03507328778505 26.96279466152191 18.18
      vertex -47.03507328778505 26.96279466152191 18.94
      vertex -46.61999999731779 26.990000002086163 18.94
    endloop
  endfacet
  facet normal -0.19509032329762704 0.9807852801483246 0
    outer loop
      vertex -47.44304455816746 26.881644129753113 18.18
      vertex -47.03507328778505 26.96279466152191 18.94
      vertex -47.03507328778505 26.96279466152191 18.18
    endloop
  endfacet
  facet normal -0.19509032329762704 0.9807852801483246 0
    outer loop
      vertex -47.44304455816746 26.881644129753113 18.18
      vertex -47.44304455816746 26.881644129753113 18.94
      vertex -47.03507328778505 26.96279466152191 18.94
    endloop
  endfacet
  facet normal -0.3214394533697669 0.9469301335459472 0
    outer loop
      vertex -47.83693331480026 26.74793691933155 18.18
      vertex -47.44304455816746 26.881644129753113 18.94
      vertex -47.44304455816746 26.881644129753113 18.18
    endloop
  endfacet
  facet normal -0.3214394533697669 0.9469301335459472 0
    outer loop
      vertex -47.83693331480026 26.74793691933155 18.18
      vertex -47.83693331480026 26.74793691933155 18.94
      vertex -47.44304455816746 26.881644129753113 18.94
    endloop
  endfacet
  facet normal -0.4422887023943569 0.8968727355284672 0
    outer loop
      vertex -48.21000000089407 26.563960783183575 18.18
      vertex -47.83693331480026 26.74793691933155 18.94
      vertex -47.83693331480026 26.74793691933155 18.18
    endloop
  endfacet
  facet normal -0.4422887023943569 0.8968727355284672 0
    outer loop
      vertex -48.21000000089407 26.563960783183575 18.18
      vertex -48.21000000089407 26.563960783183575 18.94
      vertex -47.83693331480026 26.74793691933155 18.94
    endloop
  endfacet
  facet normal -0.555570239639958 0.8314696078789651 0
    outer loop
      vertex -48.555861338973045 26.332863621413708 18.18
      vertex -48.21000000089407 26.563960783183575 18.94
      vertex -48.21000000089407 26.563960783183575 18.18
    endloop
  endfacet
  facet normal -0.555570239639958 0.8314696078789651 0
    outer loop
      vertex -48.555861338973045 26.332863621413708 18.18
      vertex -48.555861338973045 26.332863621413708 18.94
      vertex -48.21000000089407 26.563960783183575 18.94
    endloop
  endfacet
  facet normal -0.6593458018184839 0.7518398191266147 0
    outer loop
      vertex -48.86859956383705 26.058599568903446 18.18
      vertex -48.555861338973045 26.332863621413708 18.94
      vertex -48.555861338973045 26.332863621413708 18.18
    endloop
  endfacet
  facet normal -0.6593458018184839 0.7518398191266147 0
    outer loop
      vertex -48.86859956383705 26.058599568903446 18.18
      vertex -48.86859956383705 26.058599568903446 18.94
      vertex -48.555861338973045 26.332863621413708 18.94
    endloop
  endfacet
  facet normal -0.7518398191266147 0.6593458018184839 0
    outer loop
      vertex -49.14286361634731 25.74586134403944 18.18
      vertex -48.86859956383705 26.058599568903446 18.94
      vertex -48.86859956383705 26.058599568903446 18.18
    endloop
  endfacet
  facet normal -0.7518398191266147 0.6593458018184839 0
    outer loop
      vertex -49.14286361634731 25.74586134403944 18.18
      vertex -49.14286361634731 25.74586134403944 18.94
      vertex -48.86859956383705 26.058599568903446 18.94
    endloop
  endfacet
  facet normal -0.8314696078789651 0.555570239639958 0
    outer loop
      vertex -49.37396077811718 25.400000005960464 18.18
      vertex -49.14286361634731 25.74586134403944 18.94
      vertex -49.14286361634731 25.74586134403944 18.18
    endloop
  endfacet
  facet normal -0.8314696078789651 0.555570239639958 0
    outer loop
      vertex -49.37396077811718 25.400000005960464 18.18
      vertex -49.37396077811718 25.400000005960464 18.94
      vertex -49.14286361634731 25.74586134403944 18.94
    endloop
  endfacet
  facet normal -0.8968727355284672 0.4422887023943569 0
    outer loop
      vertex -49.557936914265156 25.026933319866657 18.18
      vertex -49.37396077811718 25.400000005960464 18.94
      vertex -49.37396077811718 25.400000005960464 18.18
    endloop
  endfacet
  facet normal -0.8968727355284672 0.4422887023943569 0
    outer loop
      vertex -49.557936914265156 25.026933319866657 18.18
      vertex -49.557936914265156 25.026933319866657 18.94
      vertex -49.37396077811718 25.400000005960464 18.94
    endloop
  endfacet
  facet normal -0.9469301335459472 0.3214394533697669 0
    outer loop
      vertex -49.69164412468672 24.633044563233852 18.18
      vertex -49.557936914265156 25.026933319866657 18.94
      vertex -49.557936914265156 25.026933319866657 18.18
    endloop
  endfacet
  facet normal -0.9469301335459472 0.3214394533697669 0
    outer loop
      vertex -49.69164412468672 24.633044563233852 18.18
      vertex -49.69164412468672 24.633044563233852 18.94
      vertex -49.557936914265156 25.026933319866657 18.94
    endloop
  endfacet
  facet normal -0.9807852801483246 0.19509032329762704 0
    outer loop
      vertex -49.77279465645552 24.225073292851448 18.18
      vertex -49.69164412468672 24.633044563233852 18.94
      vertex -49.69164412468672 24.633044563233852 18.18
    endloop
  endfacet
  facet normal -0.9807852801483246 0.19509032329762704 0
    outer loop
      vertex -49.77279465645552 24.225073292851448 18.18
      vertex -49.77279465645552 24.225073292851448 18.94
      vertex -49.69164412468672 24.633044563233852 18.94
    endloop
  endfacet
  facet normal -0.99785892327235 0.06540312871527007 0
    outer loop
      vertex -49.79999999701977 23.810000002384186 18.18
      vertex -49.77279465645552 24.225073292851448 18.94
      vertex -49.77279465645552 24.225073292851448 18.18
    endloop
  endfacet
  facet normal -0.99785892327235 0.06540312871527007 0
    outer loop
      vertex -49.79999999701977 23.810000002384186 18.18
      vertex -49.79999999701977 23.810000002384186 18.94
      vertex -49.77279465645552 24.225073292851448 18.94
    endloop
  endfacet
  facet normal -1 0 0
    outer loop
      vertex -49.79999999701977 -23.810000002384186 18.18
      vertex -49.79999999701977 23.810000002384186 18.94
      vertex -49.79999999701977 23.810000002384186 18.18
    endloop
  endfacet
  facet normal -1 0 0
    outer loop
      vertex -49.79999999701977 -23.810000002384186 18.18
      vertex -49.79999999701977 -23.810000002384186 18.94
      vertex -49.79999999701977 23.810000002384186 18.94
    endloop
  endfacet
  facet normal -0.99785892327235 -0.06540312871527007 0
    outer loop
      vertex -49.77279465645552 -24.225073292851448 18.18
      vertex -49.79999999701977 -23.810000002384186 18.94
      vertex -49.79999999701977 -23.810000002384186 18.18
    endloop
  endfacet
  facet normal -0.99785892327235 -0.06540312871527007 0
    outer loop
      vertex -49.77279465645552 -24.225073292851448 18.18
      vertex -49.77279465645552 -24.225073292851448 18.94
      vertex -49.79999999701977 -23.810000002384186 18.94
    endloop
  endfacet
  facet normal -0.9807852801483246 -0.19509032329762704 0
    outer loop
      vertex -49.69164412468672 -24.633044563233852 18.18
      vertex -49.77279465645552 -24.225073292851448 18.94
      vertex -49.77279465645552 -24.225073292851448 18.18
    endloop
  endfacet
  facet normal -0.9807852801483246 -0.19509032329762704 0
    outer loop
      vertex -49.69164412468672 -24.633044563233852 18.18
      vertex -49.69164412468672 -24.633044563233852 18.94
      vertex -49.77279465645552 -24.225073292851448 18.94
    endloop
  endfacet
  facet normal -0.9469301335459472 -0.3214394533697669 0
    outer loop
      vertex -49.557936914265156 -25.026933319866657 18.18
      vertex -49.69164412468672 -24.633044563233852 18.94
      vertex -49.69164412468672 -24.633044563233852 18.18
    endloop
  endfacet
  facet normal -0.9469301335459472 -0.3214394533697669 0
    outer loop
      vertex -49.557936914265156 -25.026933319866657 18.18
      vertex -49.557936914265156 -25.026933319866657 18.94
      vertex -49.69164412468672 -24.633044563233852 18.94
    endloop
  endfacet
  facet normal -0.8968727355284672 -0.4422887023943569 0
    outer loop
      vertex -49.37396077811718 -25.400000005960464 18.18
      vertex -49.557936914265156 -25.026933319866657 18.94
      vertex -49.557936914265156 -25.026933319866657 18.18
    endloop
  endfacet
  facet normal -0.8968727355284672 -0.4422887023943569 0
    outer loop
      vertex -49.37396077811718 -25.400000005960464 18.18
      vertex -49.37396077811718 -25.400000005960464 18.94
      vertex -49.557936914265156 -25.026933319866657 18.94
    endloop
  endfacet
  facet normal -0.8314696078789651 -0.555570239639958 0
    outer loop
      vertex -49.14286361634731 -25.74586134403944 18.18
      vertex -49.37396077811718 -25.400000005960464 18.94
      vertex -49.37396077811718 -25.400000005960464 18.18
    endloop
  endfacet
  facet normal -0.8314696078789651 -0.555570239639958 0
    outer loop
      vertex -49.14286361634731 -25.74586134403944 18.18
      vertex -49.14286361634731 -25.74586134403944 18.94
      vertex -49.37396077811718 -25.400000005960464 18.94
    endloop
  endfacet
  facet normal -0.7518398191266147 -0.6593458018184839 0
    outer loop
      vertex -48.86859956383705 -26.058599568903446 18.18
      vertex -49.14286361634731 -25.74586134403944 18.94
      vertex -49.14286361634731 -25.74586134403944 18.18
    endloop
  endfacet
  facet normal -0.7518398191266147 -0.6593458018184839 0
    outer loop
      vertex -48.86859956383705 -26.058599568903446 18.18
      vertex -48.86859956383705 -26.058599568903446 18.94
      vertex -49.14286361634731 -25.74586134403944 18.94
    endloop
  endfacet
  facet normal -0.6593458018184839 -0.7518398191266147 0
    outer loop
      vertex -48.555861338973045 -26.332863621413708 18.18
      vertex -48.86859956383705 -26.058599568903446 18.94
      vertex -48.86859956383705 -26.058599568903446 18.18
    endloop
  endfacet
  facet normal -0.6593458018184839 -0.7518398191266147 0
    outer loop
      vertex -48.555861338973045 -26.332863621413708 18.18
      vertex -48.555861338973045 -26.332863621413708 18.94
      vertex -48.86859956383705 -26.058599568903446 18.94
    endloop
  endfacet
  facet normal -0.555570239639958 -0.8314696078789651 0
    outer loop
      vertex -48.21000000089407 -26.563960783183575 18.18
      vertex -48.555861338973045 -26.332863621413708 18.94
      vertex -48.555861338973045 -26.332863621413708 18.18
    endloop
  endfacet
  facet normal -0.555570239639958 -0.8314696078789651 0
    outer loop
      vertex -48.21000000089407 -26.563960783183575 18.18
      vertex -48.21000000089407 -26.563960783183575 18.94
      vertex -48.555861338973045 -26.332863621413708 18.94
    endloop
  endfacet
  facet normal -0.4422887023943569 -0.8968727355284672 0
    outer loop
      vertex -47.83693331480026 -26.74793691933155 18.18
      vertex -48.21000000089407 -26.563960783183575 18.94
      vertex -48.21000000089407 -26.563960783183575 18.18
    endloop
  endfacet
  facet normal -0.4422887023943569 -0.8968727355284672 0
    outer loop
      vertex -47.83693331480026 -26.74793691933155 18.18
      vertex -47.83693331480026 -26.74793691933155 18.94
      vertex -48.21000000089407 -26.563960783183575 18.94
    endloop
  endfacet
  facet normal -0.3214394533697669 -0.9469301335459472 0
    outer loop
      vertex -47.44304455816746 -26.881644129753113 18.18
      vertex -47.83693331480026 -26.74793691933155 18.94
      vertex -47.83693331480026 -26.74793691933155 18.18
    endloop
  endfacet
  facet normal -0.3214394533697669 -0.9469301335459472 0
    outer loop
      vertex -47.44304455816746 -26.881644129753113 18.18
      vertex -47.44304455816746 -26.881644129753113 18.94
      vertex -47.83693331480026 -26.74793691933155 18.94
    endloop
  endfacet
  facet normal -0.19509032329762704 -0.9807852801483246 0
    outer loop
      vertex -47.03507328778505 -26.96279466152191 18.18
      vertex -47.44304455816746 -26.881644129753113 18.94
      vertex -47.44304455816746 -26.881644129753113 18.18
    endloop
  endfacet
  facet normal -0.19509032329762704 -0.9807852801483246 0
    outer loop
      vertex -47.03507328778505 -26.96279466152191 18.18
      vertex -47.03507328778505 -26.96279466152191 18.94
      vertex -47.44304455816746 -26.881644129753113 18.94
    endloop
  endfacet
  facet normal -0.06540312871527007 -0.99785892327235 0
    outer loop
      vertex -46.61999999731779 -26.990000002086163 18.18
      vertex -47.03507328778505 -26.96279466152191 18.94
      vertex -47.03507328778505 -26.96279466152191 18.18
    endloop
  endfacet
  facet normal -0.06540312871527007 -0.99785892327235 0
    outer loop
      vertex -46.61999999731779 -26.990000002086163 18.18
      vertex -46.61999999731779 -26.990000002086163 18.94
      vertex -47.03507328778505 -26.96279466152191 18.94
    endloop
  endfacet
  facet normal 0 -1 0
    outer loop
      vertex 32.61999999731779 -26.990000002086163 18.18
      vertex -46.61999999731779 -26.990000002086163 18.94
      vertex -46.61999999731779 -26.990000002086163 18.18
    endloop
  endfacet
  facet normal 0 -1 0
    outer loop
      vertex 32.61999999731779 -26.990000002086163 18.18
      vertex 32.61999999731779 -26.990000002086163 18.94
      vertex -46.61999999731779 -26.990000002086163 18.94
    endloop
  endfacet
  facet normal 0.06540312871527007 -0.99785892327235 0
    outer loop
      vertex 33.03507328778505 -26.96279466152191 18.18
      vertex 32.61999999731779 -26.990000002086163 18.94
      vertex 32.61999999731779 -26.990000002086163 18.18
    endloop
  endfacet
  facet normal 0.06540312871527007 -0.99785892327235 0
    outer loop
      vertex 33.03507328778505 -26.96279466152191 18.18
      vertex 33.03507328778505 -26.96279466152191 18.94
      vertex 32.61999999731779 -26.990000002086163 18.94
    endloop
  endfacet
  facet normal 0 0 1
    outer loop
      vertex 33.03507328778505 -26.96279466152191 18.94
      vertex 33.44304455816746 -26.881644129753113 18.94
      vertex 32.61999999731779 -26.990000002086163 18.94
    endloop
  endfacet
  facet normal 0 0 1
    outer loop
      vertex 33.44304455816746 -26.881644129753113 18.94
      vertex -46.61999999731779 -26.990000002086163 18.94
      vertex 32.61999999731779 -26.990000002086163 18.94
    endloop
  endfacet
  facet normal 0 0 1
    outer loop
      vertex 33.44304455816746 -26.881644129753113 18.94
      vertex 33.83693331480026 -26.74793691933155 18.94
      vertex -46.61999999731779 -26.990000002086163 18.94
    endloop
  endfacet
  facet normal 0 0 1
    outer loop
      vertex 33.83693331480026 -26.74793691933155 18.94
      vertex -47.03507328778505 -26.96279466152191 18.94
      vertex -46.61999999731779 -26.990000002086163 18.94
    endloop
  endfacet
  facet normal 0 0 1
    outer loop
      vertex 33.83693331480026 -26.74793691933155 18.94
      vertex 34.21000000089407 -26.563960783183575 18.94
      vertex -47.03507328778505 -26.96279466152191 18.94
    endloop
  endfacet
  facet normal 0 0 1
    outer loop
      vertex 34.21000000089407 -26.563960783183575 18.94
      vertex -47.44304455816746 -26.881644129753113 18.94
      vertex -47.03507328778505 -26.96279466152191 18.94
    endloop
  endfacet
  facet normal 0 0 1
    outer loop
      vertex 34.21000000089407 -26.563960783183575 18.94
      vertex 34.555861338973045 -26.332863621413708 18.94
      vertex -47.44304455816746 -26.881644129753113 18.94
    endloop
  endfacet
  facet normal 0 0 1
    outer loop
      vertex 34.555861338973045 -26.332863621413708 18.94
      vertex -47.83693331480026 -26.74793691933155 18.94
      vertex -47.44304455816746 -26.881644129753113 18.94
    endloop
  endfacet
  facet normal 0 0 1
    outer loop
      vertex 34.555861338973045 -26.332863621413708 18.94
      vertex 34.86859956383705 -26.058599568903446 18.94
      vertex -47.83693331480026 -26.74793691933155 18.94
    endloop
  endfacet
  facet normal 0 0 1
    outer loop
      vertex 34.86859956383705 -26.058599568903446 18.94
      vertex -48.21000000089407 -26.563960783183575 18.94
      vertex -47.83693331480026 -26.74793691933155 18.94
    endloop
  endfacet
  facet normal 0 0 1
    outer loop
      vertex 34.86859956383705 -26.058599568903446 18.94
      vertex 35.14286361634731 -25.74586134403944 18.94
      vertex -48.21000000089407 -26.563960783183575 18.94
    endloop
  endfacet
  facet normal 0 0 1
    outer loop
      vertex 35.14286361634731 -25.74586134403944 18.94
      vertex -48.555861338973045 -26.332863621413708 18.94
      vertex -48.21000000089407 -26.563960783183575 18.94
    endloop
  endfacet
  facet normal 0 0 1
    outer loop
      vertex 35.14286361634731 -25.74586134403944 18.94
      vertex 35.37396077811718 -25.400000005960464 18.94
      vertex -48.555861338973045 -26.332863621413708 18.94
    endloop
  endfacet
  facet normal 0 0 1
    outer loop
      vertex 35.37396077811718 -25.400000005960464 18.94
      vertex -48.86859956383705 -26.058599568903446 18.94
      vertex -48.555861338973045 -26.332863621413708 18.94
    endloop
  endfacet
  facet normal 0 0 1
    outer loop
      vertex 35.37396077811718 -25.400000005960464 18.94
      vertex 35.557936914265156 -25.026933319866657 18.94
      vertex -48.86859956383705 -26.058599568903446 18.94
    endloop
  endfacet
  facet normal 0 0 1
    outer loop
      vertex 35.557936914265156 -25.026933319866657 18.94
      vertex -49.14286361634731 -25.74586134403944 18.94
      vertex -48.86859956383705 -26.058599568903446 18.94
    endloop
  endfacet
  facet normal 0 0 1
    outer loop
      vertex 35.557936914265156 -25.026933319866657 18.94
      vertex 35.69164412468672 -24.633044563233852 18.94
      vertex -49.14286361634731 -25.74586134403944 18.94
    endloop
  endfacet
  facet normal 0 0 1
    outer loop
      vertex 35.69164412468672 -24.633044563233852 18.94
      vertex -49.37396077811718 -25.400000005960464 18.94
      vertex -49.14286361634731 -25.74586134403944 18.94
    endloop
  endfacet
  facet normal 0 0 1
    outer loop
      vertex 35.69164412468672 -24.633044563233852 18.94
      vertex 35.77279465645552 -24.225073292851448 18.94
      vertex -49.37396077811718 -25.400000005960464 18.94
    endloop
  endfacet
  facet normal 0 0 1
    outer loop
      vertex 35.77279465645552 -24.225073292851448 18.94
      vertex -49.557936914265156 -25.026933319866657 18.94
      vertex -49.37396077811718 -25.400000005960464 18.94
    endloop
  endfacet
  facet normal 0 0 1
    outer loop
      vertex 35.77279465645552 -24.225073292851448 18.94
      vertex 35.79999999701977 -23.810000002384186 18.94
      vertex -49.557936914265156 -25.026933319866657 18.94
    endloop
  endfacet
  facet normal 0 0 1
    outer loop
      vertex 35.79999999701977 -23.810000002384186 18.94
      vertex -49.69164412468672 -24.633044563233852 18.94
      vertex -49.557936914265156 -25.026933319866657 18.94
    endloop
  endfacet
  facet normal 0 0 1
    outer loop
      vertex 35.79999999701977 -23.810000002384186 18.94
      vertex 35.79999999701977 23.810000002384186 18.94
      vertex -49.69164412468672 -24.633044563233852 18.94
    endloop
  endfacet
  facet normal 0 0 1
    outer loop
      vertex 35.79999999701977 23.810000002384186 18.94
      vertex -49.77279465645552 -24.225073292851448 18.94
      vertex -49.69164412468672 -24.633044563233852 18.94
    endloop
  endfacet
  facet normal 0 0 1
    outer loop
      vertex 35.79999999701977 23.810000002384186 18.94
      vertex 35.77279465645552 24.225073292851448 18.94
      vertex -49.77279465645552 -24.225073292851448 18.94
    endloop
  endfacet
  facet normal 0 0 1
    outer loop
      vertex 35.77279465645552 24.225073292851448 18.94
      vertex -49.79999999701977 -23.810000002384186 18.94
      vertex -49.77279465645552 -24.225073292851448 18.94
    endloop
  endfacet
  facet normal 0 0 1
    outer loop
      vertex 35.77279465645552 24.225073292851448 18.94
      vertex 35.69164412468672 24.633044563233852 18.94
      vertex -49.79999999701977 -23.810000002384186 18.94
    endloop
  endfacet
  facet normal 0 0 1
    outer loop
      vertex 35.69164412468672 24.633044563233852 18.94
      vertex -49.79999999701977 23.810000002384186 18.94
      vertex -49.79999999701977 -23.810000002384186 18.94
    endloop
  endfacet
  facet normal 0 0 1
    outer loop
      vertex 35.69164412468672 24.633044563233852 18.94
      vertex 35.557936914265156 25.026933319866657 18.94
      vertex -49.79999999701977 23.810000002384186 18.94
    endloop
  endfacet
  facet normal 0 0 1
    outer loop
      vertex 35.557936914265156 25.026933319866657 18.94
      vertex -49.77279465645552 24.225073292851448 18.94
      vertex -49.79999999701977 23.810000002384186 18.94
    endloop
  endfacet
  facet normal 0 0 1
    outer loop
      vertex 35.557936914265156 25.026933319866657 18.94
      vertex 35.37396077811718 25.400000005960464 18.94
      vertex -49.77279465645552 24.225073292851448 18.94
    endloop
  endfacet
  facet normal 0 0 1
    outer loop
      vertex 35.37396077811718 25.400000005960464 18.94
      vertex -49.69164412468672 24.633044563233852 18.94
      vertex -49.77279465645552 24.225073292851448 18.94
    endloop
  endfacet
  facet normal 0 0 1
    outer loop
      vertex 35.37396077811718 25.400000005960464 18.94
      vertex 35.14286361634731 25.74586134403944 18.94
      vertex -49.69164412468672 24.633044563233852 18.94
    endloop
  endfacet
  facet normal 0 0 1
    outer loop
      vertex 35.14286361634731 25.74586134403944 18.94
      vertex -49.557936914265156 25.026933319866657 18.94
      vertex -49.69164412468672 24.633044563233852 18.94
    endloop
  endfacet
  facet normal 0 0 1
    outer loop
      vertex 35.14286361634731 25.74586134403944 18.94
      vertex 34.86859956383705 26.058599568903446 18.94
      vertex -49.557936914265156 25.026933319866657 18.94
    endloop
  endfacet
  facet normal 0 0 1
    outer loop
      vertex 34.86859956383705 26.058599568903446 18.94
      vertex -49.37396077811718 25.400000005960464 18.94
      vertex -49.557936914265156 25.026933319866657 18.94
    endloop
  endfacet
  facet normal 0 0 1
    outer loop
      vertex 34.86859956383705 26.058599568903446 18.94
      vertex 34.555861338973045 26.332863621413708 18.94
      vertex -49.37396077811718 25.400000005960464 18.94
    endloop
  endfacet
  facet normal 0 0 1
    outer loop
      vertex 34.555861338973045 26.332863621413708 18.94
      vertex -49.14286361634731 25.74586134403944 18.94
      vertex -49.37396077811718 25.400000005960464 18.94
    endloop
  endfacet
  facet normal 0 0 1
    outer loop
      vertex 34.555861338973045 26.332863621413708 18.94
      vertex 34.21000000089407 26.563960783183575 18.94
      vertex -49.14286361634731 25.74586134403944 18.94
    endloop
  endfacet
  facet normal 0 0 1
    outer loop
      vertex 34.21000000089407 26.563960783183575 18.94
      vertex -48.86859956383705 26.058599568903446 18.94
      vertex -49.14286361634731 25.74586134403944 18.94
    endloop
  endfacet
  facet normal 0 0 1
    outer loop
      vertex 34.21000000089407 26.563960783183575 18.94
      vertex 33.83693331480026 26.74793691933155 18.94
      vertex -48.86859956383705 26.058599568903446 18.94
    endloop
  endfacet
  facet normal 0 0 1
    outer loop
      vertex 33.83693331480026 26.74793691933155 18.94
      vertex -48.555861338973045 26.332863621413708 18.94
      vertex -48.86859956383705 26.058599568903446 18.94
    endloop
  endfacet
  facet normal 0 0 1
    outer loop
      vertex 33.83693331480026 26.74793691933155 18.94
      vertex 33.44304455816746 26.881644129753113 18.94
      vertex -48.555861338973045 26.332863621413708 18.94
    endloop
  endfacet
  facet normal 0 0 1
    outer loop
      vertex 33.44304455816746 26.881644129753113 18.94
      vertex -48.21000000089407 26.563960783183575 18.94
      vertex -48.555861338973045 26.332863621413708 18.94
    endloop
  endfacet
  facet normal 0 0 1
    outer loop
      vertex 33.44304455816746 26.881644129753113 18.94
      vertex 33.03507328778505 26.96279466152191 18.94
      vertex -48.21000000089407 26.563960783183575 18.94
    endloop
  endfacet
  facet normal 0 0 1
    outer loop
      vertex 33.03507328778505 26.96279466152191 18.94
      vertex -47.83693331480026 26.74793691933155 18.94
      vertex -48.21000000089407 26.563960783183575 18.94
    endloop
  endfacet
  facet normal 0 0 1
    outer loop
      vertex 33.03507328778505 26.96279466152191 18.94
      vertex 32.61999999731779 26.990000002086163 18.94
      vertex -47.83693331480026 26.74793691933155 18.94
    endloop
  endfacet
  facet normal 0 0 1
    outer loop
      vertex 32.61999999731779 26.990000002086163 18.94
      vertex -47.44304455816746 26.881644129753113 18.94
      vertex -47.83693331480026 26.74793691933155 18.94
    endloop
  endfacet
  facet normal 0 0 1
    outer loop
      vertex 32.61999999731779 26.990000002086163 18.94
      vertex -46.61999999731779 26.990000002086163 18.94
      vertex -47.44304455816746 26.881644129753113 18.94
    endloop
  endfacet
  facet normal 0 0 1
    outer loop
      vertex -46.61999999731779 26.990000002086163 18.94
      vertex -47.03507328778505 26.96279466152191 18.94
      vertex -47.44304455816746 26.881644129753113 18.94
    endloop
  endfacet
  facet normal 0 0 -1
    outer loop
      vertex 32.61999999731779 -26.990000002086163 18.18
      vertex 33.44304455816746 -26.881644129753113 18.18
      vertex 33.03507328778505 -26.96279466152191 18.18
    endloop
  endfacet
  facet normal 0 0 -1
    outer loop
      vertex 32.61999999731779 -26.990000002086163 18.18
      vertex -46.61999999731779 -26.990000002086163 18.18
      vertex 33.44304455816746 -26.881644129753113 18.18
    endloop
  endfacet
  facet normal 0 0 -1
    outer loop
      vertex -46.61999999731779 -26.990000002086163 18.18
      vertex 33.83693331480026 -26.74793691933155 18.18
      vertex 33.44304455816746 -26.881644129753113 18.18
    endloop
  endfacet
  facet normal 0 0 -1
    outer loop
      vertex -46.61999999731779 -26.990000002086163 18.18
      vertex -47.03507328778505 -26.96279466152191 18.18
      vertex 33.83693331480026 -26.74793691933155 18.18
    endloop
  endfacet
  facet normal 0 0 -1
    outer loop
      vertex -47.03507328778505 -26.96279466152191 18.18
      vertex 34.21000000089407 -26.563960783183575 18.18
      vertex 33.83693331480026 -26.74793691933155 18.18
    endloop
  endfacet
  facet normal 0 0 -1
    outer loop
      vertex -47.03507328778505 -26.96279466152191 18.18
      vertex -47.44304455816746 -26.881644129753113 18.18
      vertex 34.21000000089407 -26.563960783183575 18.18
    endloop
  endfacet
  facet normal 0 0 -1
    outer loop
      vertex -47.44304455816746 -26.881644129753113 18.18
      vertex 34.555861338973045 -26.332863621413708 18.18
      vertex 34.21000000089407 -26.563960783183575 18.18
    endloop
  endfacet
  facet normal 0 0 -1
    outer loop
      vertex -47.44304455816746 -26.881644129753113 18.18
      vertex -47.83693331480026 -26.74793691933155 18.18
      vertex 34.555861338973045 -26.332863621413708 18.18
    endloop
  endfacet
  facet normal 0 0 -1
    outer loop
      vertex -47.83693331480026 -26.74793691933155 18.18
      vertex 34.86859956383705 -26.058599568903446 18.18
      vertex 34.555861338973045 -26.332863621413708 18.18
    endloop
  endfacet
  facet normal 0 0 -1
    outer loop
      vertex -47.83693331480026 -26.74793691933155 18.18
      vertex -48.21000000089407 -26.563960783183575 18.18
      vertex 34.86859956383705 -26.058599568903446 18.18
    endloop
  endfacet
  facet normal 0 0 -1
    outer loop
      vertex -48.21000000089407 -26.563960783183575 18.18
      vertex 35.14286361634731 -25.74586134403944 18.18
      vertex 34.86859956383705 -26.058599568903446 18.18
    endloop
  endfacet
  facet normal 0 0 -1
    outer loop
      vertex -48.21000000089407 -26.563960783183575 18.18
      vertex -48.555861338973045 -26.332863621413708 18.18
      vertex 35.14286361634731 -25.74586134403944 18.18
    endloop
  endfacet
  facet normal 0 0 -1
    outer loop
      vertex -48.555861338973045 -26.332863621413708 18.18
      vertex 35.37396077811718 -25.400000005960464 18.18
      vertex 35.14286361634731 -25.74586134403944 18.18
    endloop
  endfacet
  facet normal 0 0 -1
    outer loop
      vertex -48.555861338973045 -26.332863621413708 18.18
      vertex -48.86859956383705 -26.058599568903446 18.18
      vertex 35.37396077811718 -25.400000005960464 18.18
    endloop
  endfacet
  facet normal 0 0 -1
    outer loop
      vertex -48.86859956383705 -26.058599568903446 18.18
      vertex 35.557936914265156 -25.026933319866657 18.18
      vertex 35.37396077811718 -25.400000005960464 18.18
    endloop
  endfacet
  facet normal 0 0 -1
    outer loop
      vertex -48.86859956383705 -26.058599568903446 18.18
      vertex -49.14286361634731 -25.74586134403944 18.18
      vertex 35.557936914265156 -25.026933319866657 18.18
    endloop
  endfacet
  facet normal 0 0 -1
    outer loop
      vertex -49.14286361634731 -25.74586134403944 18.18
      vertex 35.69164412468672 -24.633044563233852 18.18
      vertex 35.557936914265156 -25.026933319866657 18.18
    endloop
  endfacet
  facet normal 0 0 -1
    outer loop
      vertex -49.14286361634731 -25.74586134403944 18.18
      vertex -49.37396077811718 -25.400000005960464 18.18
      vertex 35.69164412468672 -24.633044563233852 18.18
    endloop
  endfacet
  facet normal 0 0 -1
    outer loop
      vertex -49.37396077811718 -25.400000005960464 18.18
      vertex 35.77279465645552 -24.225073292851448 18.18
      vertex 35.69164412468672 -24.633044563233852 18.18
    endloop
  endfacet
  facet normal 0 0 -1
    outer loop
      vertex -49.37396077811718 -25.400000005960464 18.18
      vertex -49.557936914265156 -25.026933319866657 18.18
      vertex 35.77279465645552 -24.225073292851448 18.18
    endloop
  endfacet
  facet normal 0 0 -1
    outer loop
      vertex -49.557936914265156 -25.026933319866657 18.18
      vertex 35.79999999701977 -23.810000002384186 18.18
      vertex 35.77279465645552 -24.225073292851448 18.18
    endloop
  endfacet
  facet normal 0 0 -1
    outer loop
      vertex -49.557936914265156 -25.026933319866657 18.18
      vertex -49.69164412468672 -24.633044563233852 18.18
      vertex 35.79999999701977 -23.810000002384186 18.18
    endloop
  endfacet
  facet normal 0 0 -1
    outer loop
      vertex -49.69164412468672 -24.633044563233852 18.18
      vertex 35.79999999701977 23.810000002384186 18.18
      vertex 35.79999999701977 -23.810000002384186 18.18
    endloop
  endfacet
  facet normal 0 0 -1
    outer loop
      vertex -49.69164412468672 -24.633044563233852 18.18
      vertex -49.77279465645552 -24.225073292851448 18.18
      vertex 35.79999999701977 23.810000002384186 18.18
    endloop
  endfacet
  facet normal 0 0 -1
    outer loop
      vertex -49.77279465645552 -24.225073292851448 18.18
      vertex 35.77279465645552 24.225073292851448 18.18
      vertex 35.79999999701977 23.810000002384186 18.18
    endloop
  endfacet
  facet normal 0 0 -1
    outer loop
      vertex -49.77279465645552 -24.225073292851448 18.18
      vertex -49.79999999701977 -23.810000002384186 18.18
      vertex 35.77279465645552 24.225073292851448 18.18
    endloop
  endfacet
  facet normal 0 0 -1
    outer loop
      vertex -49.79999999701977 -23.810000002384186 18.18
      vertex 35.69164412468672 24.633044563233852 18.18
      vertex 35.77279465645552 24.225073292851448 18.18
    endloop
  endfacet
  facet normal 0 0 -1
    outer loop
      vertex -49.79999999701977 -23.810000002384186 18.18
      vertex -49.79999999701977 23.810000002384186 18.18
      vertex 35.69164412468672 24.633044563233852 18.18
    endloop
  endfacet
  facet normal 0 0 -1
    outer loop
      vertex -49.79999999701977 23.810000002384186 18.18
      vertex 35.557936914265156 25.026933319866657 18.18
      vertex 35.69164412468672 24.633044563233852 18.18
    endloop
  endfacet
  facet normal 0 0 -1
    outer loop
      vertex -49.79999999701977 23.810000002384186 18.18
      vertex -49.77279465645552 24.225073292851448 18.18
      vertex 35.557936914265156 25.026933319866657 18.18
    endloop
  endfacet
  facet normal 0 0 -1
    outer loop
      vertex -49.77279465645552 24.225073292851448 18.18
      vertex 35.37396077811718 25.400000005960464 18.18
      vertex 35.557936914265156 25.026933319866657 18.18
    endloop
  endfacet
  facet normal 0 0 -1
    outer loop
      vertex -49.77279465645552 24.225073292851448 18.18
      vertex -49.69164412468672 24.633044563233852 18.18
      vertex 35.37396077811718 25.400000005960464 18.18
    endloop
  endfacet
  facet normal 0 0 -1
    outer loop
      vertex -49.69164412468672 24.633044563233852 18.18
      vertex 35.14286361634731 25.74586134403944 18.18
      vertex 35.37396077811718 25.400000005960464 18.18
    endloop
  endfacet
  facet normal 0 0 -1
    outer loop
      vertex -49.69164412468672 24.633044563233852 18.18
      vertex -49.557936914265156 25.026933319866657 18.18
      vertex 35.14286361634731 25.74586134403944 18.18
    endloop
  endfacet
  facet normal 0 0 -1
    outer loop
      vertex -49.557936914265156 25.026933319866657 18.18
      vertex 34.86859956383705 26.058599568903446 18.18
      vertex 35.14286361634731 25.74586134403944 18.18
    endloop
  endfacet
  facet normal 0 0 -1
    outer loop
      vertex -49.557936914265156 25.026933319866657 18.18
      vertex -49.37396077811718 25.400000005960464 18.18
      vertex 34.86859956383705 26.058599568903446 18.18
    endloop
  endfacet
  facet normal 0 0 -1
    outer loop
      vertex -49.37396077811718 25.400000005960464 18.18
      vertex 34.555861338973045 26.332863621413708 18.18
      vertex 34.86859956383705 26.058599568903446 18.18
    endloop
  endfacet
  facet normal 0 0 -1
    outer loop
      vertex -49.37396077811718 25.400000005960464 18.18
      vertex -49.14286361634731 25.74586134403944 18.18
      vertex 34.555861338973045 26.332863621413708 18.18
    endloop
  endfacet
  facet normal 0 0 -1
    outer loop
      vertex -49.14286361634731 25.74586134403944 18.18
      vertex 34.21000000089407 26.563960783183575 18.18
      vertex 34.555861338973045 26.332863621413708 18.18
    endloop
  endfacet
  facet normal 0 0 -1
    outer loop
      vertex -49.14286361634731 25.74586134403944 18.18
      vertex -48.86859956383705 26.058599568903446 18.18
      vertex 34.21000000089407 26.563960783183575 18.18
    endloop
  endfacet
  facet normal 0 0 -1
    outer loop
      vertex -48.86859956383705 26.058599568903446 18.18
      vertex 33.83693331480026 26.74793691933155 18.18
      vertex 34.21000000089407 26.563960783183575 18.18
    endloop
  endfacet
  facet normal 0 0 -1
    outer loop
      vertex -48.86859956383705 26.058599568903446 18.18
      vertex -48.555861338973045 26.332863621413708 18.18
      vertex 33.83693331480026 26.74793691933155 18.18
    endloop
  endfacet
  facet normal 0 0 -1
    outer loop
      vertex -48.555861338973045 26.332863621413708 18.18
      vertex 33.44304455816746 26.881644129753113 18.18
      vertex 33.83693331480026 26.74793691933155 18.18
    endloop
  endfacet
  facet normal 0 0 -1
    outer loop
      vertex -48.555861338973045 26.332863621413708 18.18
      vertex -48.21000000089407 26.563960783183575 18.18
      vertex 33.44304455816746 26.881644129753113 18.18
    endloop
  endfacet
  facet normal 0 0 -1
    outer loop
      vertex -48.21000000089407 26.563960783183575 18.18
      vertex 33.03507328778505 26.96279466152191 18.18
      vertex 33.44304455816746 26.881644129753113 18.18
    endloop
  endfacet
  facet normal 0 0 -1
    outer loop
      vertex -48.21000000089407 26.563960783183575 18.18
      vertex -47.83693331480026 26.74793691933155 18.18
      vertex 33.03507328778505 26.96279466152191 18.18
    endloop
  endfacet
  facet normal 0 0 -1
    outer loop
      vertex -47.83693331480026 26.74793691933155 18.18
      vertex 32.61999999731779 26.990000002086163 18.18
      vertex 33.03507328778505 26.96279466152191 18.18
    endloop
  endfacet
  facet normal 0 0 -1
    outer loop
      vertex -47.83693331480026 26.74793691933155 18.18
      vertex -47.44304455816746 26.881644129753113 18.18
      vertex 32.61999999731779 26.990000002086163 18.18
    endloop
  endfacet
  facet normal 0 0 -1
    outer loop
      vertex -47.44304455816746 26.881644129753113 18.18
      vertex -46.61999999731779 26.990000002086163 18.18
      vertex 32.61999999731779 26.990000002086163 18.18
    endloop
  endfacet
  facet normal 0 0 -1
    outer loop
      vertex -47.44304455816746 26.881644129753113 18.18
      vertex -47.03507328778505 26.96279466152191 18.18
      vertex -46.61999999731779 26.990000002086163 18.18
    endloop
  endfacet
endsolid OpenSCAD_Model
