solid OpenSCAD_Model
  facet normal 0 0 1
    outer loop
      vertex 24.38587485578582 18.226735617270997 18.18
      vertex 9.36321087334894 9.71428287090114 18.18
      vertex 35.79999999701977 22.225806938047484 18.18
    endloop
  endfacet
  facet normal 0 0 1
    outer loop
      vertex 35.79999999701977 18.97671900943277 18.18
      vertex 35.79999999701977 22.225806938047484 18.18
      vertex 9.36321087334894 9.71428287090114 18.18
    endloop
  endfacet
  facet normal 0 0 -1
    outer loop
      vertex 35.79999999701977 18.97671900943277 18.18
      vertex 9.36321087334894 9.71428287090114 18.18
      vertex 24.38587485578582 18.226735617270997 18.18
    endloop
  endfacet
  facet normal 0 0 -1
    outer loop
      vertex 35.79999999701977 22.225806938047484 18.18
      vertex 35.79999999701977 18.97671900943277 18.18
      vertex 24.38587485578582 18.226735617270997 18.18
    endloop
  endfacet
endsolid OpenSCAD_Model
