solid OpenSCAD_Model
  facet normal 0 0 1
    outer loop
      vertex -103 -41 49.9
      vertex -103 -46.5 49.9
      vertex -95.61341808204098 -43.17670592094995 49.9
    endloop
  endfacet
  facet normal 0 0 1
    outer loop
      vertex -103 -41 49.9
      vertex -95.67354423265594 -43.02303794092146 49.9
      vertex -95.75170861718027 -42.85853625200506 49.9
    endloop
  endfacet
  facet normal 0 0 1
    outer loop
      vertex -103 -41 49.9
      vertex -95.61341808204098 -43.17670592094995 49.9
      vertex -95.67354423265594 -43.02303794092146 49.9
    endloop
  endfacet
  facet normal 0 0 1
    outer loop
      vertex -103 -41 49.9
      vertex -95.75170861718027 -42.85853625200506 49.9
      vertex -95.60274274888539 -42.74589075782638 49.9
    endloop
  endfacet
  facet normal 0 0 1
    outer loop
      vertex -92.81347568588923 -41.89368443437856 49.9
      vertex -92.73731034152195 -41.980534364315524 49.9
      vertex -92.46302723635127 -41.94577499726161 49.9
    endloop
  endfacet
  facet normal 0 0 1
    outer loop
      vertex -85 -41 49.9
      vertex -92.14972778414337 -43.10690884820315 49.9
      vertex -92.26924199840687 -43.26535111133843 49.9
    endloop
  endfacet
  facet normal 0 0 1
    outer loop
      vertex -85 -41 49.9
      vertex -92.32645576734406 -43.02303794092146 49.9
      vertex -92.14972778414337 -43.10690884820315 49.9
    endloop
  endfacet
  facet normal 0 0 1
    outer loop
      vertex -85 -41 49.9
      vertex -92.24829138281973 -42.85853625200506 49.9
      vertex -92.32645576734406 -43.02303794092146 49.9
    endloop
  endfacet
  facet normal 0 0 1
    outer loop
      vertex -85 -41 49.9
      vertex -92.20214495790071 -42.699840615470016 49.9
      vertex -92.24829138281973 -42.85853625200506 49.9
    endloop
  endfacet
  facet normal 0 0 1
    outer loop
      vertex -85 -41 49.9
      vertex -92.4013749353731 -42.594718367445715 49.9
      vertex -92.20214495790071 -42.699840615470016 49.9
    endloop
  endfacet
  facet normal 0 0 1
    outer loop
      vertex -85 -41 49.9
      vertex -92.81347568588923 -41.89368443437856 49.9
      vertex -92.46302723635127 -41.94577499726161 49.9
    endloop
  endfacet
  facet normal 0 0 1
    outer loop
      vertex -85 -41 49.9
      vertex -92.56025703409225 -41.78901389343393 49.9
      vertex -92.81347568588923 -41.89368443437856 49.9
    endloop
  endfacet
  facet normal 0 0 1
    outer loop
      vertex -85 -41 49.9
      vertex -91.90904910776013 -42.34898733427825 49.9
      vertex -92.4013749353731 -42.594718367445715 49.9
    endloop
  endfacet
  facet normal 0 0 1
    outer loop
      vertex -85 -41 49.9
      vertex -92.46302723635127 -41.94577499726161 49.9
      vertex -91.94186740856642 -41.98060388718221 49.9
    endloop
  endfacet
  facet normal 0 0 1
    outer loop
      vertex -85 -41 49.9
      vertex -91.76719913184871 -41.620038897452794 49.9
      vertex -92.56025703409225 -41.78901389343393 49.9
    endloop
  endfacet
  facet normal 0 0 1
    outer loop
      vertex -85 -41 49.9
      vertex -91.94186740856642 -41.98060388718221 49.9
      vertex -91.61383387104725 -42.04326496507038 49.9
    endloop
  endfacet
  facet normal 0 0 1
    outer loop
      vertex -85 -46.5 49.9
      vertex -85 -41 49.9
      vertex -92.26924199840687 -43.26535111133843 49.9
    endloop
  endfacet
  facet normal 0 0 1
    outer loop
      vertex 48 -41 49.9
      vertex 40.850272215856634 -43.10690884820315 49.9
      vertex 40.73075800159313 -43.26535111133843 49.9
    endloop
  endfacet
  facet normal 0 0 1
    outer loop
      vertex 48 -41 49.9
      vertex 40.67354423265594 -43.02303794092146 49.9
      vertex 40.850272215856634 -43.10690884820315 49.9
    endloop
  endfacet
  facet normal 0 0 1
    outer loop
      vertex 48 -41 49.9
      vertex 40.75170861718027 -42.85853625200506 49.9
      vertex 40.67354423265594 -43.02303794092146 49.9
    endloop
  endfacet
  facet normal 0 0 1
    outer loop
      vertex 48 -41 49.9
      vertex 40.5986250646269 -42.594718367445715 49.9
      vertex 40.797855042099286 -42.699840615470016 49.9
    endloop
  endfacet
  facet normal 0 0 1
    outer loop
      vertex 48 -41 49.9
      vertex 40.797855042099286 -42.699840615470016 49.9
      vertex 40.75170861718027 -42.85853625200506 49.9
    endloop
  endfacet
  facet normal 0 0 1
    outer loop
      vertex 48 -41 49.9
      vertex 41.090950892239874 -42.34898733427825 49.9
      vertex 40.5986250646269 -42.594718367445715 49.9
    endloop
  endfacet
  facet normal 0 0 1
    outer loop
      vertex 48 -46.5 49.9
      vertex 48 -41 49.9
      vertex 40.73075800159313 -43.26535111133843 49.9
    endloop
  endfacet
  facet normal 0 0 1
    outer loop
      vertex -103 43 49.9
      vertex -95.73075800159313 45.26535111133843 49.9
      vertex -103 48.5 49.9
    endloop
  endfacet
  facet normal 0 0 1
    outer loop
      vertex -103 43 49.9
      vertex -95.43974296590781 43.789013893433925 49.9
      vertex -95.18652431411077 43.893684434378564 49.9
    endloop
  endfacet
  facet normal 0 0 1
    outer loop
      vertex -103 43 49.9
      vertex -94.99054906974294 43.71195119380063 49.9
      vertex -95.11684791534313 43.822712308695166 49.9
    endloop
  endfacet
  facet normal 0 0 1
    outer loop
      vertex -103 43 49.9
      vertex -95.18652431411077 43.893684434378564 49.9
      vertex -95.26268965847805 43.980534364315524 49.9
    endloop
  endfacet
  facet normal 0 0 1
    outer loop
      vertex -103 43 49.9
      vertex -96.05813259143358 43.98060388718221 49.9
      vertex -95.41194574233359 44.196938313605244 49.9
    endloop
  endfacet
  facet normal 0 0 1
    outer loop
      vertex -103 43 49.9
      vertex -96.09095089223992 44.348987334278235 49.9
      vertex -95.59862506462689 44.594718367445715 49.9
    endloop
  endfacet
  facet normal 0 0 1
    outer loop
      vertex -103 43 49.9
      vertex -95.41194574233359 44.196938313605244 49.9
      vertex -95.47434873371519 44.323479062211206 49.9
    endloop
  endfacet
  facet normal 0 0 1
    outer loop
      vertex -103 43 49.9
      vertex -95.01261701261073 43.70679990140251 49.9
      vertex -94.99054906974294 43.71195119380063 49.9
    endloop
  endfacet
  facet normal 0 0 1
    outer loop
      vertex -103 43 49.9
      vertex -95.59862506462689 44.594718367445715 49.9
      vertex -95.60274274888539 44.74589075782638 49.9
    endloop
  endfacet
  facet normal 0 0 1
    outer loop
      vertex -103 43 49.9
      vertex -95.60274274888539 44.74589075782638 49.9
      vertex -95.75170861718026 44.85853625200506 49.9
    endloop
  endfacet
  facet normal 0 0 1
    outer loop
      vertex -103 43 49.9
      vertex -95.75170861718026 44.85853625200506 49.9
      vertex -95.67354423265594 45.02303794092146 49.9
    endloop
  endfacet
  facet normal 0 0 1
    outer loop
      vertex -103 43 49.9
      vertex -95.67354423265594 45.02303794092146 49.9
      vertex -95.61341808204098 45.17670592094995 49.9
    endloop
  endfacet
  facet normal 0 0 1
    outer loop
      vertex -103 43 49.9
      vertex -95.61341808204098 45.17670592094995 49.9
      vertex -95.73075800159313 45.26535111133843 49.9
    endloop
  endfacet
  facet normal 0 0 1
    outer loop
      vertex 30 43 49.9
      vertex 37.26924199840686 45.26535111133843 49.9
      vertex 30 48.5 49.9
    endloop
  endfacet
  facet normal 0 0 1
    outer loop
      vertex 30 43 49.9
      vertex 36.94186740856641 43.98060388718221 49.9
      vertex 37.588054257666414 44.196938313605244 49.9
    endloop
  endfacet
  facet normal 0 0 1
    outer loop
      vertex 30 43 49.9
      vertex 36.909049107760076 44.348987334278235 49.9
      vertex 37.40137493537311 44.594718367445715 49.9
    endloop
  endfacet
  facet normal 0 0 1
    outer loop
      vertex 30 43 49.9
      vertex 37.56025703409218 43.789013893433925 49.9
      vertex 37.81347568588922 43.893684434378564 49.9
    endloop
  endfacet
  facet normal 0 0 1
    outer loop
      vertex 30 43 49.9
      vertex 38.00945093025707 43.71195119380063 49.9
      vertex 37.883152084656864 43.822712308695166 49.9
    endloop
  endfacet
  facet normal 0 0 1
    outer loop
      vertex 30 43 49.9
      vertex 37.81347568588922 43.893684434378564 49.9
      vertex 37.73731034152195 43.980534364315524 49.9
    endloop
  endfacet
  facet normal 0 0 1
    outer loop
      vertex 30 43 49.9
      vertex 37.98738298738927 43.70679990140251 49.9
      vertex 38.00945093025707 43.71195119380063 49.9
    endloop
  endfacet
  facet normal 0 0 1
    outer loop
      vertex 30 43 49.9
      vertex 37.588054257666414 44.196938313605244 49.9
      vertex 37.52565126628481 44.323479062211206 49.9
    endloop
  endfacet
  facet normal 0 0 1
    outer loop
      vertex 30 43 49.9
      vertex 37.40137493537311 44.594718367445715 49.9
      vertex 37.39725725111461 44.74589075782638 49.9
    endloop
  endfacet
  facet normal 0 0 1
    outer loop
      vertex 30 43 49.9
      vertex 37.39725725111461 44.74589075782638 49.9
      vertex 37.24829138281974 44.85853625200506 49.9
    endloop
  endfacet
  facet normal 0 0 1
    outer loop
      vertex 30 43 49.9
      vertex 37.24829138281974 44.85853625200506 49.9
      vertex 37.32645576734406 45.02303794092146 49.9
    endloop
  endfacet
  facet normal 0 0 1
    outer loop
      vertex 30 43 49.9
      vertex 37.32645576734406 45.02303794092146 49.9
      vertex 37.38658191795901 45.17670592094995 49.9
    endloop
  endfacet
  facet normal 0 0 1
    outer loop
      vertex 30 43 49.9
      vertex 37.38658191795901 45.17670592094995 49.9
      vertex 37.26924199840686 45.26535111133843 49.9
    endloop
  endfacet
  facet normal 0 0 1
    outer loop
      vertex 48 43 49.9
      vertex 40.75170861718026 44.85853625200506 49.9
      vertex 40.79785504209928 44.699840615470016 49.9
    endloop
  endfacet
  facet normal 0 0 1
    outer loop
      vertex 48 43 49.9
      vertex 40.67354423265594 45.02303794092146 49.9
      vertex 40.75170861718026 44.85853625200506 49.9
    endloop
  endfacet
  facet normal 0 0 1
    outer loop
      vertex 48 43 49.9
      vertex 48 48.5 49.9
      vertex 40.67354423265594 45.02303794092146 49.9
    endloop
  endfacet
  facet normal 0 1 0
    outer loop
      vertex -103 43 49.9
      vertex -103 43 50.5
      vertex -99.14285714285714 43 49.9
    endloop
  endfacet
  facet normal 0 1 0
    outer loop
      vertex -103 43 50.5
      vertex -93.48571428571427 43 50.5
      vertex -99.14285714285714 43 49.9
    endloop
  endfacet
  facet normal 0 0 -1
    outer loop
      vertex -95.60274274888539 -42.74589075782638 49.9
      vertex -103 -46.5 49.9
      vertex -103 -41 49.9
    endloop
  endfacet
  facet normal 0 0 -1
    outer loop
      vertex -95.67354423265594 -43.02303794092146 49.9
      vertex -103 -46.5 49.9
      vertex -95.75170861718027 -42.85853625200506 49.9
    endloop
  endfacet
  facet normal 0 0 -1
    outer loop
      vertex -95.61341808204098 -43.17670592094995 49.9
      vertex -103 -46.5 49.9
      vertex -95.67354423265594 -43.02303794092146 49.9
    endloop
  endfacet
  facet normal 0 0 -1
    outer loop
      vertex -95.60274274888539 -42.74589075782638 49.9
      vertex -95.75170861718027 -42.85853625200506 49.9
      vertex -103 -46.5 49.9
    endloop
  endfacet
  facet normal 0 0 -1
    outer loop
      vertex -92.14972778414337 -43.10690884820315 49.9
      vertex -85 -46.5 49.9
      vertex -92.26924199840687 -43.26535111133843 49.9
    endloop
  endfacet
  facet normal 0 0 -1
    outer loop
      vertex -92.14972778414337 -43.10690884820315 49.9
      vertex -92.24829138281973 -42.85853625200506 49.9
      vertex -85 -46.5 49.9
    endloop
  endfacet
  facet normal 0 0 -1
    outer loop
      vertex -92.20214495790071 -42.699840615470016 49.9
      vertex -85 -46.5 49.9
      vertex -92.24829138281973 -42.85853625200506 49.9
    endloop
  endfacet
  facet normal 0 0 -1
    outer loop
      vertex -92.20214495790071 -42.699840615470016 49.9
      vertex -91.90904910776013 -42.34898733427825 49.9
      vertex -85 -46.5 49.9
    endloop
  endfacet
  facet normal 0 0 -1
    outer loop
      vertex -92.14972778414337 -43.10690884820315 49.9
      vertex -92.32645576734406 -43.02303794092146 49.9
      vertex -92.24829138281973 -42.85853625200506 49.9
    endloop
  endfacet
  facet normal 0 0 -1
    outer loop
      vertex -92.20214495790071 -42.699840615470016 49.9
      vertex -92.4013749353731 -42.594718367445715 49.9
      vertex -91.90904910776013 -42.34898733427825 49.9
    endloop
  endfacet
  facet normal 0 0 -1
    outer loop
      vertex -92.81347568588923 -41.89368443437856 49.9
      vertex -92.56025703409225 -41.78901389343393 49.9
      vertex -92.73731034152195 -41.980534364315524 49.9
    endloop
  endfacet
  facet normal 0 0 -1
    outer loop
      vertex -92.73731034152195 -41.980534364315524 49.9
      vertex -92.56025703409225 -41.78901389343393 49.9
      vertex -92.46302723635127 -41.94577499726161 49.9
    endloop
  endfacet
  facet normal 0 0 -1
    outer loop
      vertex -91.76719913184871 -41.620038897452794 49.9
      vertex -92.46302723635127 -41.94577499726161 49.9
      vertex -92.56025703409225 -41.78901389343393 49.9
    endloop
  endfacet
  facet normal 0 0 -1
    outer loop
      vertex -91.94186740856642 -41.98060388718221 49.9
      vertex -92.46302723635127 -41.94577499726161 49.9
      vertex -91.76719913184871 -41.620038897452794 49.9
    endloop
  endfacet
  facet normal 0 0 -1
    outer loop
      vertex -91.61383387104725 -42.04326496507038 49.9
      vertex -91.94186740856642 -41.98060388718221 49.9
      vertex -91.76719913184871 -41.620038897452794 49.9
    endloop
  endfacet
  facet normal 0 0 -1
    outer loop
      vertex -91.61383387104725 -42.04326496507038 49.9
      vertex -91.76719913184871 -41.620038897452794 49.9
      vertex -85 -41 49.9
    endloop
  endfacet
  facet normal 0 0 -1
    outer loop
      vertex -85 -46.5 49.9
      vertex -91.90904910776013 -42.34898733427825 49.9
      vertex -85 -41 49.9
    endloop
  endfacet
  facet normal 0 0 -1
    outer loop
      vertex 40.850272215856634 -43.10690884820315 49.9
      vertex 48 -46.5 49.9
      vertex 40.73075800159313 -43.26535111133843 49.9
    endloop
  endfacet
  facet normal 0 0 -1
    outer loop
      vertex 40.850272215856634 -43.10690884820315 49.9
      vertex 40.75170861718027 -42.85853625200506 49.9
      vertex 48 -46.5 49.9
    endloop
  endfacet
  facet normal 0 0 -1
    outer loop
      vertex 40.797855042099286 -42.699840615470016 49.9
      vertex 48 -46.5 49.9
      vertex 40.75170861718027 -42.85853625200506 49.9
    endloop
  endfacet
  facet normal 0 0 -1
    outer loop
      vertex 40.850272215856634 -43.10690884820315 49.9
      vertex 40.67354423265594 -43.02303794092146 49.9
      vertex 40.75170861718027 -42.85853625200506 49.9
    endloop
  endfacet
  facet normal 0 0 -1
    outer loop
      vertex 40.797855042099286 -42.699840615470016 49.9
      vertex 40.5986250646269 -42.594718367445715 49.9
      vertex 41.090950892239874 -42.34898733427825 49.9
    endloop
  endfacet
  facet normal 0 0 -1
    outer loop
      vertex 40.797855042099286 -42.699840615470016 49.9
      vertex 41.090950892239874 -42.34898733427825 49.9
      vertex 48 -46.5 49.9
    endloop
  endfacet
  facet normal 0 0 -1
    outer loop
      vertex 48 -46.5 49.9
      vertex 41.090950892239874 -42.34898733427825 49.9
      vertex 48 -41 49.9
    endloop
  endfacet
  facet normal 0 0 -1
    outer loop
      vertex -96.09095089223992 44.348987334278235 49.9
      vertex -103 43 49.9
      vertex -103 48.5 49.9
    endloop
  endfacet
  facet normal 0 0 -1
    outer loop
      vertex -95.43974296590781 43.789013893433925 49.9
      vertex -103 43 49.9
      vertex -95.26268965847805 43.980534364315524 49.9
    endloop
  endfacet
  facet normal 0 0 -1
    outer loop
      vertex -95.01261701261073 43.70679990140251 49.9
      vertex -103 43 49.9
      vertex -95.11684791534313 43.822712308695166 49.9
    endloop
  endfacet
  facet normal 0 0 -1
    outer loop
      vertex -96.05813259143358 43.98060388718221 49.9
      vertex -103 43 49.9
      vertex -95.47434873371519 44.323479062211206 49.9
    endloop
  endfacet
  facet normal 0 0 -1
    outer loop
      vertex -95.11684791534313 43.822712308695166 49.9
      vertex -94.99054906974294 43.71195119380063 49.9
      vertex -95.01261701261073 43.70679990140251 49.9
    endloop
  endfacet
  facet normal 0 0 -1
    outer loop
      vertex -95.18652431411077 43.893684434378564 49.9
      vertex -95.43974296590781 43.789013893433925 49.9
      vertex -95.26268965847805 43.980534364315524 49.9
    endloop
  endfacet
  facet normal 0 0 -1
    outer loop
      vertex -95.41194574233359 44.196938313605244 49.9
      vertex -96.05813259143358 43.98060388718221 49.9
      vertex -95.47434873371519 44.323479062211206 49.9
    endloop
  endfacet
  facet normal 0 0 -1
    outer loop
      vertex -96.09095089223992 44.348987334278235 49.9
      vertex -103 48.5 49.9
      vertex -95.59862506462689 44.594718367445715 49.9
    endloop
  endfacet
  facet normal 0 0 -1
    outer loop
      vertex -95.60274274888539 44.74589075782638 49.9
      vertex -95.59862506462689 44.594718367445715 49.9
      vertex -103 48.5 49.9
    endloop
  endfacet
  facet normal 0 0 -1
    outer loop
      vertex -95.60274274888539 44.74589075782638 49.9
      vertex -103 48.5 49.9
      vertex -95.75170861718026 44.85853625200506 49.9
    endloop
  endfacet
  facet normal 0 0 -1
    outer loop
      vertex -95.75170861718026 44.85853625200506 49.9
      vertex -103 48.5 49.9
      vertex -95.67354423265594 45.02303794092146 49.9
    endloop
  endfacet
  facet normal 0 0 -1
    outer loop
      vertex -95.61341808204098 45.17670592094995 49.9
      vertex -95.67354423265594 45.02303794092146 49.9
      vertex -103 48.5 49.9
    endloop
  endfacet
  facet normal 0 0 -1
    outer loop
      vertex -95.61341808204098 45.17670592094995 49.9
      vertex -103 48.5 49.9
      vertex -95.73075800159313 45.26535111133843 49.9
    endloop
  endfacet
  facet normal 0 0 -1
    outer loop
      vertex 36.909049107760076 44.348987334278235 49.9
      vertex 30 43 49.9
      vertex 30 48.5 49.9
    endloop
  endfacet
  facet normal 0 0 -1
    outer loop
      vertex 37.52565126628481 44.323479062211206 49.9
      vertex 36.94186740856641 43.98060388718221 49.9
      vertex 30 43 49.9
    endloop
  endfacet
  facet normal 0 0 -1
    outer loop
      vertex 37.73731034152195 43.980534364315524 49.9
      vertex 37.56025703409218 43.789013893433925 49.9
      vertex 30 43 49.9
    endloop
  endfacet
  facet normal 0 0 -1
    outer loop
      vertex 37.98738298738927 43.70679990140251 49.9
      vertex 30 43 49.9
      vertex 37.883152084656864 43.822712308695166 49.9
    endloop
  endfacet
  facet normal 0 0 -1
    outer loop
      vertex 37.883152084656864 43.822712308695166 49.9
      vertex 38.00945093025707 43.71195119380063 49.9
      vertex 37.98738298738927 43.70679990140251 49.9
    endloop
  endfacet
  facet normal 0 0 -1
    outer loop
      vertex 37.81347568588922 43.893684434378564 49.9
      vertex 37.56025703409218 43.789013893433925 49.9
      vertex 37.73731034152195 43.980534364315524 49.9
    endloop
  endfacet
  facet normal 0 0 -1
    outer loop
      vertex 37.588054257666414 44.196938313605244 49.9
      vertex 36.94186740856641 43.98060388718221 49.9
      vertex 37.52565126628481 44.323479062211206 49.9
    endloop
  endfacet
  facet normal 0 0 -1
    outer loop
      vertex 36.909049107760076 44.348987334278235 49.9
      vertex 30 48.5 49.9
      vertex 37.40137493537311 44.594718367445715 49.9
    endloop
  endfacet
  facet normal 0 0 -1
    outer loop
      vertex 37.39725725111461 44.74589075782638 49.9
      vertex 37.40137493537311 44.594718367445715 49.9
      vertex 30 48.5 49.9
    endloop
  endfacet
  facet normal 0 0 -1
    outer loop
      vertex 37.39725725111461 44.74589075782638 49.9
      vertex 30 48.5 49.9
      vertex 37.24829138281974 44.85853625200506 49.9
    endloop
  endfacet
  facet normal 0 0 -1
    outer loop
      vertex 37.24829138281974 44.85853625200506 49.9
      vertex 30 48.5 49.9
      vertex 37.32645576734406 45.02303794092146 49.9
    endloop
  endfacet
  facet normal 0 0 -1
    outer loop
      vertex 37.38658191795901 45.17670592094995 49.9
      vertex 37.32645576734406 45.02303794092146 49.9
      vertex 30 48.5 49.9
    endloop
  endfacet
  facet normal 0 0 -1
    outer loop
      vertex 37.38658191795901 45.17670592094995 49.9
      vertex 30 48.5 49.9
      vertex 37.26924199840686 45.26535111133843 49.9
    endloop
  endfacet
  facet normal 0 0 -1
    outer loop
      vertex 40.79785504209928 44.699840615470016 49.9
      vertex 40.75170861718026 44.85853625200506 49.9
      vertex 48 48.5 49.9
    endloop
  endfacet
  facet normal 0 0 -1
    outer loop
      vertex 40.75170861718026 44.85853625200506 49.9
      vertex 40.67354423265594 45.02303794092146 49.9
      vertex 48 48.5 49.9
    endloop
  endfacet
  facet normal 0 0 -1
    outer loop
      vertex 48 43 49.9
      vertex 40.79785504209928 44.699840615470016 49.9
      vertex 48 48.5 49.9
    endloop
  endfacet
  facet normal 0 -1 0
    outer loop
      vertex -103 43 49.9
      vertex -99.14285714285714 43 49.9
      vertex -93.48571428571427 43 50.5
    endloop
  endfacet
  facet normal 0 -1 0
    outer loop
      vertex -103 43 50.5
      vertex -103 43 49.9
      vertex -93.48571428571427 43 50.5
    endloop
  endfacet
endsolid OpenSCAD_Model
