solid OpenSCAD_Model
  facet normal 0 -1 0
    outer loop
      vertex -78 -2 48
      vertex -74 -2 48
      vertex -74 -2 49
    endloop
  endfacet
  facet normal 0 0 -1
    outer loop
      vertex -78 -2 48
      vertex -74 2 48
      vertex -74 -2 48
    endloop
  endfacet
  facet normal 1 0 0
    outer loop
      vertex -74 -2 48
      vertex -74 2 48
      vertex -74 -2 49
    endloop
  endfacet
  facet normal 0 -1 0
    outer loop
      vertex -78 -2 48
      vertex -74 -2 49
      vertex -78 -2 49
    endloop
  endfacet
  facet normal -1 0 0
    outer loop
      vertex -78 -2 48
      vertex -78 -2 49
      vertex -78 2 49
    endloop
  endfacet
  facet normal 0 0 1
    outer loop
      vertex -78 -2 49
      vertex -74 -2 49
      vertex -78 2 49
    endloop
  endfacet
  facet normal 0 0 -1
    outer loop
      vertex -78 -2 48
      vertex -78 2 48
      vertex -74 2 48
    endloop
  endfacet
  facet normal -1 0 0
    outer loop
      vertex -78 -2 48
      vertex -78 2 49
      vertex -78 2 48
    endloop
  endfacet
  facet normal 0 1 0
    outer loop
      vertex -78 2 48
      vertex -78 2 49
      vertex -74 2 48
    endloop
  endfacet
  facet normal 1 0 0
    outer loop
      vertex -74 -2 49
      vertex -74 2 48
      vertex -74 2 49
    endloop
  endfacet
  facet normal 0 0 1
    outer loop
      vertex -74 -2 49
      vertex -74 2 49
      vertex -78 2 49
    endloop
  endfacet
  facet normal 0 1 0
    outer loop
      vertex -74 2 48
      vertex -78 2 49
      vertex -74 2 49
    endloop
  endfacet
  facet normal 0 -1 0
    outer loop
      vertex -54 -2 48
      vertex -50 -2 48
      vertex -50 -2 49
    endloop
  endfacet
  facet normal 0 0 -1
    outer loop
      vertex -54 -2 48
      vertex -50 2 48
      vertex -50 -2 48
    endloop
  endfacet
  facet normal 1 0 0
    outer loop
      vertex -50 -2 48
      vertex -50 2 48
      vertex -50 -2 49
    endloop
  endfacet
  facet normal -1 0 0
    outer loop
      vertex -54 -2 48
      vertex -54 -2 49
      vertex -54 2 49
    endloop
  endfacet
  facet normal 0 -1 0
    outer loop
      vertex -54 -2 48
      vertex -50 -2 49
      vertex -54 -2 49
    endloop
  endfacet
  facet normal 0 0 1
    outer loop
      vertex -54 -2 49
      vertex -50 -2 49
      vertex -54 2 49
    endloop
  endfacet
  facet normal -1 0 0
    outer loop
      vertex -54 -2 48
      vertex -54 2 49
      vertex -54 2 48
    endloop
  endfacet
  facet normal 0 0 -1
    outer loop
      vertex -54 -2 48
      vertex -54 2 48
      vertex -50 2 48
    endloop
  endfacet
  facet normal 0 1 0
    outer loop
      vertex -54 2 48
      vertex -54 2 49
      vertex -50 2 48
    endloop
  endfacet
  facet normal 1 0 0
    outer loop
      vertex -50 -2 49
      vertex -50 2 48
      vertex -50 2 49
    endloop
  endfacet
  facet normal 0 0 1
    outer loop
      vertex -50 -2 49
      vertex -50 2 49
      vertex -54 2 49
    endloop
  endfacet
  facet normal 0 1 0
    outer loop
      vertex -50 2 48
      vertex -54 2 49
      vertex -50 2 49
    endloop
  endfacet
  facet normal 0 -1 0
    outer loop
      vertex -30 -2 48
      vertex -26 -2 49
      vertex -30 -2 49
    endloop
  endfacet
  facet normal -1 0 0
    outer loop
      vertex -30 -2 48
      vertex -30 -2 49
      vertex -30 2 49
    endloop
  endfacet
  facet normal 0 0 1
    outer loop
      vertex -30 -2 49
      vertex -26 -2 49
      vertex -30 2 49
    endloop
  endfacet
  facet normal 0 0 -1
    outer loop
      vertex -30 -2 48
      vertex -30 2 48
      vertex -26 2 48
    endloop
  endfacet
  facet normal -1 0 0
    outer loop
      vertex -30 -2 48
      vertex -30 2 49
      vertex -30 2 48
    endloop
  endfacet
  facet normal 0 1 0
    outer loop
      vertex -30 2 48
      vertex -30 2 49
      vertex -26 2 48
    endloop
  endfacet
  facet normal 0 -1 0
    outer loop
      vertex -30 -2 48
      vertex -26 -2 48
      vertex -26 -2 49
    endloop
  endfacet
  facet normal 0 0 -1
    outer loop
      vertex -30 -2 48
      vertex -26 2 48
      vertex -26 -2 48
    endloop
  endfacet
  facet normal 1 0 0
    outer loop
      vertex -26 -2 48
      vertex -26 2 48
      vertex -26 -2 49
    endloop
  endfacet
  facet normal 1 0 0
    outer loop
      vertex -26 -2 49
      vertex -26 2 48
      vertex -26 2 49
    endloop
  endfacet
  facet normal 0 0 1
    outer loop
      vertex -30 2 49
      vertex -26 -2 49
      vertex -26 2 49
    endloop
  endfacet
  facet normal 0 1 0
    outer loop
      vertex -30 2 49
      vertex -26 2 49
      vertex -26 2 48
    endloop
  endfacet
  facet normal 0 -1 0
    outer loop
      vertex -6 -2 48
      vertex -2 -2 48
      vertex -2 -2 49
    endloop
  endfacet
  facet normal 0 0 -1
    outer loop
      vertex -6 -2 48
      vertex -2 2 48
      vertex -2 -2 48
    endloop
  endfacet
  facet normal 1 0 0
    outer loop
      vertex -2 -2 48
      vertex -2 2 48
      vertex -2 -2 49
    endloop
  endfacet
  facet normal 0 -1 0
    outer loop
      vertex -6 -2 48
      vertex -2 -2 49
      vertex -6 -2 49
    endloop
  endfacet
  facet normal -1 0 0
    outer loop
      vertex -6 -2 48
      vertex -6 -2 49
      vertex -6 2 49
    endloop
  endfacet
  facet normal 0 0 1
    outer loop
      vertex -6 -2 49
      vertex -2 -2 49
      vertex -6 2 49
    endloop
  endfacet
  facet normal 0 0 -1
    outer loop
      vertex -6 -2 48
      vertex -6 2 48
      vertex -2 2 48
    endloop
  endfacet
  facet normal -1 0 0
    outer loop
      vertex -6 -2 48
      vertex -6 2 49
      vertex -6 2 48
    endloop
  endfacet
  facet normal 0 1 0
    outer loop
      vertex -6 2 48
      vertex -6 2 49
      vertex -2 2 48
    endloop
  endfacet
  facet normal 0 0 1
    outer loop
      vertex -2 -2 49
      vertex -2 2 49
      vertex -6 2 49
    endloop
  endfacet
  facet normal 0 1 0
    outer loop
      vertex -2 2 48
      vertex -6 2 49
      vertex -2 2 49
    endloop
  endfacet
  facet normal 1 0 0
    outer loop
      vertex -2 -2 49
      vertex -2 2 48
      vertex -2 2 49
    endloop
  endfacet
  facet normal 0 -1 0
    outer loop
      vertex 18 -2 48
      vertex 22 -2 48
      vertex 22 -2 49
    endloop
  endfacet
  facet normal 0 0 -1
    outer loop
      vertex 18 -2 48
      vertex 22 2 48
      vertex 22 -2 48
    endloop
  endfacet
  facet normal 1 0 0
    outer loop
      vertex 22 -2 48
      vertex 22 2 48
      vertex 22 -2 49
    endloop
  endfacet
  facet normal 0 -1 0
    outer loop
      vertex 18 -2 48
      vertex 22 -2 49
      vertex 18 -2 49
    endloop
  endfacet
  facet normal -1 0 0
    outer loop
      vertex 18 -2 48
      vertex 18 -2 49
      vertex 18 2 49
    endloop
  endfacet
  facet normal 0 0 1
    outer loop
      vertex 18 -2 49
      vertex 22 -2 49
      vertex 18 2 49
    endloop
  endfacet
  facet normal 0 0 -1
    outer loop
      vertex 18 -2 48
      vertex 18 2 48
      vertex 22 2 48
    endloop
  endfacet
  facet normal -1 0 0
    outer loop
      vertex 18 -2 48
      vertex 18 2 49
      vertex 18 2 48
    endloop
  endfacet
  facet normal 0 1 0
    outer loop
      vertex 18 2 48
      vertex 18 2 49
      vertex 22 2 48
    endloop
  endfacet
  facet normal 1 0 0
    outer loop
      vertex 22 -2 49
      vertex 22 2 48
      vertex 22 2 49
    endloop
  endfacet
  facet normal 0 0 1
    outer loop
      vertex 22 -2 49
      vertex 22 2 49
      vertex 18 2 49
    endloop
  endfacet
  facet normal 0 1 0
    outer loop
      vertex 22 2 48
      vertex 18 2 49
      vertex 22 2 49
    endloop
  endfacet
endsolid OpenSCAD_Model
