solid OpenSCAD_Model
  facet normal 0 0 1
    outer loop
      vertex -75 -2 50.5
      vertex -77 2 50.5
      vertex -77 -2 50.5
    endloop
  endfacet
  facet normal 0 0 1
    outer loop
      vertex -51 -2 50.5
      vertex -53 2 50.5
      vertex -53 -2 50.5
    endloop
  endfacet
  facet normal 0 0 1
    outer loop
      vertex -27 -2 50.5
      vertex -29 2 50.5
      vertex -29 -2 50.5
    endloop
  endfacet
  facet normal 0 0 1
    outer loop
      vertex -75 -2 50.5
      vertex -75 2 50.5
      vertex -77 2 50.5
    endloop
  endfacet
  facet normal 0 0 1
    outer loop
      vertex -51 -2 50.5
      vertex -51 2 50.5
      vertex -53 2 50.5
    endloop
  endfacet
  facet normal 0 0 1
    outer loop
      vertex -3 -2 50.5
      vertex -5 2 50.5
      vertex -5 -2 50.5
    endloop
  endfacet
  facet normal 0 0 1
    outer loop
      vertex 21 -2 50.5
      vertex 19 2 50.5
      vertex 19 -2 50.5
    endloop
  endfacet
  facet normal 0 0 1
    outer loop
      vertex -27 -2 50.5
      vertex -27 2 50.5
      vertex -29 2 50.5
    endloop
  endfacet
  facet normal 0 0 1
    outer loop
      vertex -3 -2 50.5
      vertex -3 2 50.5
      vertex -5 2 50.5
    endloop
  endfacet
  facet normal 0 0 1
    outer loop
      vertex 21 -2 50.5
      vertex 21 2 50.5
      vertex 19 2 50.5
    endloop
  endfacet
  facet normal 0 -1 0
    outer loop
      vertex -77 -2 50.45
      vertex -75 -2 50.45
      vertex -75 -2 50.5
    endloop
  endfacet
  facet normal 0 0 -1
    outer loop
      vertex -77 -2 50.45
      vertex -75 2 50.45
      vertex -75 -2 50.45
    endloop
  endfacet
  facet normal 1 0 0
    outer loop
      vertex -75 -2 50.45
      vertex -75 2 50.45
      vertex -75 -2 50.5
    endloop
  endfacet
  facet normal 0 -1 0
    outer loop
      vertex -77 -2 50.45
      vertex -75 -2 50.5
      vertex -77 -2 50.5
    endloop
  endfacet
  facet normal -1 0 0
    outer loop
      vertex -77 -2 50.45
      vertex -77 -2 50.5
      vertex -77 2 50.5
    endloop
  endfacet
  facet normal 0 0 -1
    outer loop
      vertex -77 -2 50.45
      vertex -77 2 50.45
      vertex -75 2 50.45
    endloop
  endfacet
  facet normal -1 0 0
    outer loop
      vertex -77 -2 50.45
      vertex -77 2 50.5
      vertex -77 2 50.45
    endloop
  endfacet
  facet normal 0 1 0
    outer loop
      vertex -77 2 50.45
      vertex -77 2 50.5
      vertex -75 2 50.45
    endloop
  endfacet
  facet normal 1 0 0
    outer loop
      vertex -75 2 50.45
      vertex -75 2 50.5
      vertex -75 -2 50.5
    endloop
  endfacet
  facet normal 0 1 0
    outer loop
      vertex -75 2 50.45
      vertex -77 2 50.5
      vertex -75 2 50.5
    endloop
  endfacet
  facet normal 0 -1 0
    outer loop
      vertex -53 -2 50.45
      vertex -51 -2 50.45
      vertex -51 -2 50.5
    endloop
  endfacet
  facet normal 0 0 -1
    outer loop
      vertex -53 -2 50.45
      vertex -51 2 50.45
      vertex -51 -2 50.45
    endloop
  endfacet
  facet normal 1 0 0
    outer loop
      vertex -51 -2 50.45
      vertex -51 2 50.45
      vertex -51 -2 50.5
    endloop
  endfacet
  facet normal -1 0 0
    outer loop
      vertex -53 -2 50.45
      vertex -53 -2 50.5
      vertex -53 2 50.5
    endloop
  endfacet
  facet normal 0 -1 0
    outer loop
      vertex -53 -2 50.45
      vertex -51 -2 50.5
      vertex -53 -2 50.5
    endloop
  endfacet
  facet normal -1 0 0
    outer loop
      vertex -53 -2 50.45
      vertex -53 2 50.5
      vertex -53 2 50.45
    endloop
  endfacet
  facet normal 0 0 -1
    outer loop
      vertex -53 -2 50.45
      vertex -53 2 50.45
      vertex -51 2 50.45
    endloop
  endfacet
  facet normal 0 1 0
    outer loop
      vertex -53 2 50.45
      vertex -53 2 50.5
      vertex -51 2 50.45
    endloop
  endfacet
  facet normal 1 0 0
    outer loop
      vertex -51 2 50.45
      vertex -51 2 50.5
      vertex -51 -2 50.5
    endloop
  endfacet
  facet normal 0 1 0
    outer loop
      vertex -51 2 50.45
      vertex -53 2 50.5
      vertex -51 2 50.5
    endloop
  endfacet
  facet normal 0 -1 0
    outer loop
      vertex -29 -2 50.45
      vertex -27 -2 50.5
      vertex -29 -2 50.5
    endloop
  endfacet
  facet normal -1 0 0
    outer loop
      vertex -29 -2 50.45
      vertex -29 -2 50.5
      vertex -29 2 50.5
    endloop
  endfacet
  facet normal 0 0 -1
    outer loop
      vertex -29 -2 50.45
      vertex -29 2 50.45
      vertex -27 2 50.45
    endloop
  endfacet
  facet normal -1 0 0
    outer loop
      vertex -29 -2 50.45
      vertex -29 2 50.5
      vertex -29 2 50.45
    endloop
  endfacet
  facet normal 0 1 0
    outer loop
      vertex -29 2 50.45
      vertex -29 2 50.5
      vertex -27 2 50.45
    endloop
  endfacet
  facet normal 0 -1 0
    outer loop
      vertex -29 -2 50.45
      vertex -27 -2 50.45
      vertex -27 -2 50.5
    endloop
  endfacet
  facet normal 0 0 -1
    outer loop
      vertex -29 -2 50.45
      vertex -27 2 50.45
      vertex -27 -2 50.45
    endloop
  endfacet
  facet normal 1 0 0
    outer loop
      vertex -27 -2 50.45
      vertex -27 2 50.45
      vertex -27 -2 50.5
    endloop
  endfacet
  facet normal 1 0 0
    outer loop
      vertex -27 2 50.45
      vertex -27 2 50.5
      vertex -27 -2 50.5
    endloop
  endfacet
  facet normal 0 1 0
    outer loop
      vertex -27 2 50.45
      vertex -29 2 50.5
      vertex -27 2 50.5
    endloop
  endfacet
  facet normal 0 -1 0
    outer loop
      vertex -5 -2 50.45
      vertex -3 -2 50.45
      vertex -3 -2 50.5
    endloop
  endfacet
  facet normal 0 0 -1
    outer loop
      vertex -5 -2 50.45
      vertex -3 2 50.45
      vertex -3 -2 50.45
    endloop
  endfacet
  facet normal 1 0 0
    outer loop
      vertex -3 -2 50.45
      vertex -3 2 50.45
      vertex -3 -2 50.5
    endloop
  endfacet
  facet normal 0 -1 0
    outer loop
      vertex -5 -2 50.45
      vertex -3 -2 50.5
      vertex -5 -2 50.5
    endloop
  endfacet
  facet normal -1 0 0
    outer loop
      vertex -5 -2 50.45
      vertex -5 -2 50.5
      vertex -5 2 50.5
    endloop
  endfacet
  facet normal 0 0 -1
    outer loop
      vertex -5 -2 50.45
      vertex -5 2 50.45
      vertex -3 2 50.45
    endloop
  endfacet
  facet normal -1 0 0
    outer loop
      vertex -5 -2 50.45
      vertex -5 2 50.5
      vertex -5 2 50.45
    endloop
  endfacet
  facet normal 0 1 0
    outer loop
      vertex -5 2 50.45
      vertex -5 2 50.5
      vertex -3 2 50.45
    endloop
  endfacet
  facet normal 0 1 0
    outer loop
      vertex -3 2 50.45
      vertex -5 2 50.5
      vertex -3 2 50.5
    endloop
  endfacet
  facet normal 1 0 0
    outer loop
      vertex -3 2 50.45
      vertex -3 2 50.5
      vertex -3 -2 50.5
    endloop
  endfacet
  facet normal 0 -1 0
    outer loop
      vertex 19 -2 50.45
      vertex 21 -2 50.45
      vertex 21 -2 50.5
    endloop
  endfacet
  facet normal 0 0 -1
    outer loop
      vertex 19 -2 50.45
      vertex 21 2 50.45
      vertex 21 -2 50.45
    endloop
  endfacet
  facet normal 1 0 0
    outer loop
      vertex 21 -2 50.45
      vertex 21 2 50.45
      vertex 21 -2 50.5
    endloop
  endfacet
  facet normal 0 -1 0
    outer loop
      vertex 19 -2 50.45
      vertex 21 -2 50.5
      vertex 19 -2 50.5
    endloop
  endfacet
  facet normal -1 0 0
    outer loop
      vertex 19 -2 50.45
      vertex 19 -2 50.5
      vertex 19 2 50.5
    endloop
  endfacet
  facet normal 0 0 -1
    outer loop
      vertex 19 -2 50.45
      vertex 19 2 50.45
      vertex 21 2 50.45
    endloop
  endfacet
  facet normal -1 0 0
    outer loop
      vertex 19 -2 50.45
      vertex 19 2 50.5
      vertex 19 2 50.45
    endloop
  endfacet
  facet normal 0 1 0
    outer loop
      vertex 19 2 50.45
      vertex 19 2 50.5
      vertex 21 2 50.45
    endloop
  endfacet
  facet normal 1 0 0
    outer loop
      vertex 21 2 50.45
      vertex 21 2 50.5
      vertex 21 -2 50.5
    endloop
  endfacet
  facet normal 0 1 0
    outer loop
      vertex 21 2 50.45
      vertex 19 2 50.5
      vertex 21 2 50.5
    endloop
  endfacet
endsolid OpenSCAD_Model
