solid OpenSCAD_Model
  facet normal 5.670414160580853e-16 0.2588190451024763 -0.9659258262890803
    outer loop
      vertex -101.86162624821682 -57.65258027308539 64.78310978370921
      vertex -85 -57.57910472301147 64.80279749801495
      vertex -88.74564525191984 -57.60283094002732 64.79644007732611
    endloop
  endfacet
  facet normal 4.778404103602347e-16 0.25881904510249537 -0.9659258262890752
    outer loop
      vertex -101.86162624821682 -57.65258027308539 64.78310978370921
      vertex -88.85714285714286 -57.56094822251731 64.80766251765974
      vertex -85 -57.57910472301147 64.80279749801495
    endloop
  endfacet
  facet normal 0 -0.258819045102413 0.9659258262890972
    outer loop
      vertex 30 -79.39834059375796 145.91955002143123
      vertex 33.857142857142854 -79.30174801112905 145.94543192594148
      vertex 30 -79.30174801112905 145.94543192594148
    endloop
  endfacet
  facet normal 0 -0.258819045102413 0.9659258262890972
    outer loop
      vertex 48 -79.39834059375796 145.91955002143123
      vertex 33.857142857142854 -79.30174801112905 145.94543192594148
      vertex 30 -79.39834059375796 145.91955002143123
    endloop
  endfacet
  facet normal -5.027931023481714e-16 -0.2588190451024921 0.9659258262890761
    outer loop
      vertex -101.86162624821682 -57.65258027308539 64.78310978370921
      vertex -88.74564525191984 -57.60283094002732 64.79644007732611
      vertex -88.85714285714286 -57.56094822251731 64.80766251765974
    endloop
  endfacet
  facet normal -4.605298911410203e-16 -0.2588190451024918 0.965925826289076
    outer loop
      vertex -85 -57.57910472301147 64.80279749801495
      vertex -88.85714285714286 -57.56094822251731 64.80766251765974
      vertex -88.74564525191984 -57.60283094002732 64.79644007732611
    endloop
  endfacet
  facet normal 0 0.258819045102413 -0.9659258262890972
    outer loop
      vertex 30 -79.30174801112905 145.94543192594148
      vertex 48 -79.39834059375796 145.91955002143123
      vertex 30 -79.39834059375796 145.91955002143123
    endloop
  endfacet
  facet normal 0 0.258819045102413 -0.9659258262890972
    outer loop
      vertex 30 -79.30174801112905 145.94543192594148
      vertex 33.857142857142854 -79.30174801112905 145.94543192594148
      vertex 48 -79.39834059375796 145.91955002143123
    endloop
  endfacet
endsolid OpenSCAD_Model
