solid OpenSCAD_Model
  facet normal 0 0 -1
    outer loop
      vertex -77 -2 52
      vertex -75 2 52
      vertex -75 -2 52
    endloop
  endfacet
  facet normal 0 0 -1
    outer loop
      vertex -53 -2 52
      vertex -51 2 52
      vertex -51 -2 52
    endloop
  endfacet
  facet normal 0 0 -1
    outer loop
      vertex -75 2 52
      vertex -77 -2 52
      vertex -77 2 52
    endloop
  endfacet
  facet normal 0 0 -1
    outer loop
      vertex -51 2 52
      vertex -53 -2 52
      vertex -53 2 52
    endloop
  endfacet
  facet normal 0 0 -1
    outer loop
      vertex -27 2 52
      vertex -29 -2 52
      vertex -29 2 52
    endloop
  endfacet
  facet normal 0 0 -1
    outer loop
      vertex -29 -2 52
      vertex -27 2 52
      vertex -27 -2 52
    endloop
  endfacet
  facet normal 0 0 -1
    outer loop
      vertex -5 -2 52
      vertex -3 2 52
      vertex -3 -2 52
    endloop
  endfacet
  facet normal 0 0 -1
    outer loop
      vertex 19 -2 52
      vertex 21 2 52
      vertex 21 -2 52
    endloop
  endfacet
  facet normal 0 0 -1
    outer loop
      vertex -3 2 52
      vertex -5 -2 52
      vertex -5 2 52
    endloop
  endfacet
  facet normal 0 0 -1
    outer loop
      vertex 21 2 52
      vertex 19 -2 52
      vertex 19 2 52
    endloop
  endfacet
  facet normal 0 -1 0
    outer loop
      vertex -75 -2 52.05
      vertex -77 -2 52
      vertex -75 -2 52
    endloop
  endfacet
  facet normal 1 0 0
    outer loop
      vertex -75 -2 52.05
      vertex -75 -2 52
      vertex -75 2 52
    endloop
  endfacet
  facet normal 0 -1 0
    outer loop
      vertex -77 -2 52.05
      vertex -77 -2 52
      vertex -75 -2 52.05
    endloop
  endfacet
  facet normal -1 0 0
    outer loop
      vertex -77 -2 52.05
      vertex -77 2 52.05
      vertex -77 -2 52
    endloop
  endfacet
  facet normal 0 0 1
    outer loop
      vertex -77 -2 52.05
      vertex -75 -2 52.05
      vertex -77 2 52.05
    endloop
  endfacet
  facet normal -1 0 0
    outer loop
      vertex -77 2 52.05
      vertex -77 2 52
      vertex -77 -2 52
    endloop
  endfacet
  facet normal 0 1 0
    outer loop
      vertex -77 2 52.05
      vertex -75 2 52
      vertex -77 2 52
    endloop
  endfacet
  facet normal 1 0 0
    outer loop
      vertex -75 -2 52.05
      vertex -75 2 52
      vertex -75 2 52.05
    endloop
  endfacet
  facet normal 0 0 1
    outer loop
      vertex -75 -2 52.05
      vertex -75 2 52.05
      vertex -77 2 52.05
    endloop
  endfacet
  facet normal 0 1 0
    outer loop
      vertex -77 2 52.05
      vertex -75 2 52.05
      vertex -75 2 52
    endloop
  endfacet
  facet normal 0 -1 0
    outer loop
      vertex -51 -2 52.05
      vertex -53 -2 52
      vertex -51 -2 52
    endloop
  endfacet
  facet normal 1 0 0
    outer loop
      vertex -51 -2 52.05
      vertex -51 -2 52
      vertex -51 2 52
    endloop
  endfacet
  facet normal -1 0 0
    outer loop
      vertex -53 -2 52.05
      vertex -53 2 52.05
      vertex -53 -2 52
    endloop
  endfacet
  facet normal 0 -1 0
    outer loop
      vertex -53 -2 52.05
      vertex -53 -2 52
      vertex -51 -2 52.05
    endloop
  endfacet
  facet normal 0 0 1
    outer loop
      vertex -53 -2 52.05
      vertex -51 -2 52.05
      vertex -53 2 52.05
    endloop
  endfacet
  facet normal -1 0 0
    outer loop
      vertex -53 2 52.05
      vertex -53 2 52
      vertex -53 -2 52
    endloop
  endfacet
  facet normal 0 1 0
    outer loop
      vertex -53 2 52.05
      vertex -51 2 52
      vertex -53 2 52
    endloop
  endfacet
  facet normal 1 0 0
    outer loop
      vertex -51 -2 52.05
      vertex -51 2 52
      vertex -51 2 52.05
    endloop
  endfacet
  facet normal 0 0 1
    outer loop
      vertex -51 -2 52.05
      vertex -51 2 52.05
      vertex -53 2 52.05
    endloop
  endfacet
  facet normal 0 1 0
    outer loop
      vertex -53 2 52.05
      vertex -51 2 52.05
      vertex -51 2 52
    endloop
  endfacet
  facet normal 0 -1 0
    outer loop
      vertex -29 -2 52.05
      vertex -29 -2 52
      vertex -27 -2 52.05
    endloop
  endfacet
  facet normal -1 0 0
    outer loop
      vertex -29 -2 52.05
      vertex -29 2 52.05
      vertex -29 -2 52
    endloop
  endfacet
  facet normal 0 0 1
    outer loop
      vertex -29 -2 52.05
      vertex -27 -2 52.05
      vertex -29 2 52.05
    endloop
  endfacet
  facet normal -1 0 0
    outer loop
      vertex -29 2 52.05
      vertex -29 2 52
      vertex -29 -2 52
    endloop
  endfacet
  facet normal 0 1 0
    outer loop
      vertex -29 2 52.05
      vertex -27 2 52
      vertex -29 2 52
    endloop
  endfacet
  facet normal 0 -1 0
    outer loop
      vertex -27 -2 52.05
      vertex -29 -2 52
      vertex -27 -2 52
    endloop
  endfacet
  facet normal 1 0 0
    outer loop
      vertex -27 -2 52.05
      vertex -27 -2 52
      vertex -27 2 52
    endloop
  endfacet
  facet normal 1 0 0
    outer loop
      vertex -27 -2 52.05
      vertex -27 2 52
      vertex -27 2 52.05
    endloop
  endfacet
  facet normal 0 0 1
    outer loop
      vertex -29 2 52.05
      vertex -27 -2 52.05
      vertex -27 2 52.05
    endloop
  endfacet
  facet normal 0 1 0
    outer loop
      vertex -29 2 52.05
      vertex -27 2 52.05
      vertex -27 2 52
    endloop
  endfacet
  facet normal 0 -1 0
    outer loop
      vertex -3 -2 52.05
      vertex -5 -2 52
      vertex -3 -2 52
    endloop
  endfacet
  facet normal 1 0 0
    outer loop
      vertex -3 -2 52.05
      vertex -3 -2 52
      vertex -3 2 52
    endloop
  endfacet
  facet normal 0 -1 0
    outer loop
      vertex -5 -2 52.05
      vertex -5 -2 52
      vertex -3 -2 52.05
    endloop
  endfacet
  facet normal -1 0 0
    outer loop
      vertex -5 -2 52.05
      vertex -5 2 52.05
      vertex -5 -2 52
    endloop
  endfacet
  facet normal 0 0 1
    outer loop
      vertex -5 -2 52.05
      vertex -3 -2 52.05
      vertex -5 2 52.05
    endloop
  endfacet
  facet normal -1 0 0
    outer loop
      vertex -5 2 52.05
      vertex -5 2 52
      vertex -5 -2 52
    endloop
  endfacet
  facet normal 0 1 0
    outer loop
      vertex -5 2 52.05
      vertex -3 2 52
      vertex -5 2 52
    endloop
  endfacet
  facet normal 0 0 1
    outer loop
      vertex -3 -2 52.05
      vertex -3 2 52.05
      vertex -5 2 52.05
    endloop
  endfacet
  facet normal 0 1 0
    outer loop
      vertex -5 2 52.05
      vertex -3 2 52.05
      vertex -3 2 52
    endloop
  endfacet
  facet normal 1 0 0
    outer loop
      vertex -3 -2 52.05
      vertex -3 2 52
      vertex -3 2 52.05
    endloop
  endfacet
  facet normal 0 -1 0
    outer loop
      vertex 21 -2 52.05
      vertex 19 -2 52
      vertex 21 -2 52
    endloop
  endfacet
  facet normal 1 0 0
    outer loop
      vertex 21 -2 52.05
      vertex 21 -2 52
      vertex 21 2 52
    endloop
  endfacet
  facet normal 0 -1 0
    outer loop
      vertex 19 -2 52.05
      vertex 19 -2 52
      vertex 21 -2 52.05
    endloop
  endfacet
  facet normal -1 0 0
    outer loop
      vertex 19 -2 52.05
      vertex 19 2 52.05
      vertex 19 -2 52
    endloop
  endfacet
  facet normal 0 0 1
    outer loop
      vertex 19 -2 52.05
      vertex 21 -2 52.05
      vertex 19 2 52.05
    endloop
  endfacet
  facet normal -1 0 0
    outer loop
      vertex 19 2 52.05
      vertex 19 2 52
      vertex 19 -2 52
    endloop
  endfacet
  facet normal 0 1 0
    outer loop
      vertex 19 2 52.05
      vertex 21 2 52
      vertex 19 2 52
    endloop
  endfacet
  facet normal 1 0 0
    outer loop
      vertex 21 -2 52.05
      vertex 21 2 52
      vertex 21 2 52.05
    endloop
  endfacet
  facet normal 0 0 1
    outer loop
      vertex 21 -2 52.05
      vertex 21 2 52.05
      vertex 19 2 52.05
    endloop
  endfacet
  facet normal 0 1 0
    outer loop
      vertex 19 2 52.05
      vertex 21 2 52.05
      vertex 21 2 52
    endloop
  endfacet
endsolid OpenSCAD_Model
