solid OpenSCAD_Model
  facet normal 0.9978589232386044 0.06540312923013057 0
    outer loop
      vertex 79 27 50.6
      vertex 78.98716729206072 27.195789288330076 48.6
      vertex 78.98716729206072 27.195789288330076 50.6
    endloop
  endfacet
  facet normal 0.9978589232386044 0.06540312923013057 0
    outer loop
      vertex 78.98716729206072 27.195789288330076 48.6
      vertex 79 27 50.6
      vertex 79 27 48.6
    endloop
  endfacet
  facet normal 0.9807852804032254 0.19509032201615414 0
    outer loop
      vertex 78.98716729206072 27.195789288330076 50.6
      vertex 78.9488887394336 27.388228567653783 48.6
      vertex 78.9488887394336 27.388228567653783 50.6
    endloop
  endfacet
  facet normal 0.9807852804032254 0.19509032201615414 0
    outer loop
      vertex 78.9488887394336 27.388228567653783 48.6
      vertex 78.98716729206072 27.195789288330076 50.6
      vertex 78.98716729206072 27.195789288330076 48.6
    endloop
  endfacet
  facet normal 0.9469301294951132 0.3214394653031393 0
    outer loop
      vertex 78.9488887394336 27.388228567653783 50.6
      vertex 78.88581929876693 27.574025148547634 48.6
      vertex 78.88581929876693 27.574025148547634 50.6
    endloop
  endfacet
  facet normal 0.9469301294951132 0.3214394653031393 0
    outer loop
      vertex 78.88581929876693 27.574025148547634 48.6
      vertex 78.9488887394336 27.388228567653783 50.6
      vertex 78.9488887394336 27.388228567653783 48.6
    endloop
  endfacet
  facet normal 0.8968727415326844 0.44228869021900924 0
    outer loop
      vertex 78.88581929876693 27.574025148547634 50.6
      vertex 78.79903810567666 27.75 48.6
      vertex 78.79903810567666 27.75 50.6
    endloop
  endfacet
  facet normal 0.8968727415326844 0.44228869021900924 0
    outer loop
      vertex 78.79903810567666 27.75 48.6
      vertex 78.88581929876693 27.574025148547634 50.6
      vertex 78.88581929876693 27.574025148547634 48.6
    endloop
  endfacet
  facet normal 0.8314696123025607 0.5555702330195792 0
    outer loop
      vertex 78.79903810567666 27.75 50.6
      vertex 78.69003001043686 27.913142143513085 48.6
      vertex 78.69003001043686 27.913142143513085 50.6
    endloop
  endfacet
  facet normal 0.8314696123025607 0.5555702330195792 0
    outer loop
      vertex 78.69003001043686 27.913142143513085 48.6
      vertex 78.79903810567666 27.75 50.6
      vertex 78.79903810567666 27.75 48.6
    endloop
  endfacet
  facet normal 0.7518398074789635 0.6593458151000846 0
    outer loop
      vertex 78.69003001043686 27.913142143513085 50.6
      vertex 78.56066017177982 28.06066017177983 48.6
      vertex 78.56066017177982 28.06066017177983 50.6
    endloop
  endfacet
  facet normal 0.7518398074789635 0.6593458151000846 0
    outer loop
      vertex 78.56066017177982 28.06066017177983 48.6
      vertex 78.69003001043686 27.913142143513085 50.6
      vertex 78.69003001043686 27.913142143513085 48.6
    endloop
  endfacet
  facet normal 0.6593458151000796 0.7518398074789681 0
    outer loop
      vertex 78.56066017177982 28.06066017177983 48.6
      vertex 78.41314214351308 28.190030010436857 50.6
      vertex 78.56066017177982 28.06066017177983 50.6
    endloop
  endfacet
  facet normal 0.6593458151000796 0.7518398074789681 0
    outer loop
      vertex 78.41314214351308 28.190030010436857 50.6
      vertex 78.56066017177982 28.06066017177983 48.6
      vertex 78.41314214351308 28.190030010436857 48.6
    endloop
  endfacet
  facet normal 0.5555702330195792 0.8314696123025607 0
    outer loop
      vertex 78.41314214351308 28.190030010436857 48.6
      vertex 78.25 28.299038105676658 50.6
      vertex 78.41314214351308 28.190030010436857 50.6
    endloop
  endfacet
  facet normal 0.5555702330195792 0.8314696123025607 0
    outer loop
      vertex 78.25 28.299038105676658 50.6
      vertex 78.41314214351308 28.190030010436857 48.6
      vertex 78.25 28.299038105676658 48.6
    endloop
  endfacet
  facet normal 0.44228869021900924 0.8968727415326844 0
    outer loop
      vertex 78.25 28.299038105676658 48.6
      vertex 78.07402514854763 28.385819298766933 50.6
      vertex 78.25 28.299038105676658 50.6
    endloop
  endfacet
  facet normal 0.44228869021900924 0.8968727415326844 0
    outer loop
      vertex 78.07402514854763 28.385819298766933 50.6
      vertex 78.25 28.299038105676658 48.6
      vertex 78.07402514854763 28.385819298766933 48.6
    endloop
  endfacet
  facet normal 0.3214394653031393 0.9469301294951132 0
    outer loop
      vertex 78.07402514854763 28.385819298766933 48.6
      vertex 77.88822856765378 28.4488887394336 50.6
      vertex 78.07402514854763 28.385819298766933 50.6
    endloop
  endfacet
  facet normal 0.3214394653031393 0.9469301294951132 0
    outer loop
      vertex 77.88822856765378 28.4488887394336 50.6
      vertex 78.07402514854763 28.385819298766933 48.6
      vertex 77.88822856765378 28.4488887394336 48.6
    endloop
  endfacet
  facet normal 0.19509032201615414 0.9807852804032254 0
    outer loop
      vertex 77.88822856765378 28.4488887394336 48.6
      vertex 77.69578928833008 28.487167292060718 50.6
      vertex 77.88822856765378 28.4488887394336 50.6
    endloop
  endfacet
  facet normal 0.19509032201615414 0.9807852804032254 0
    outer loop
      vertex 77.69578928833008 28.487167292060718 50.6
      vertex 77.88822856765378 28.4488887394336 48.6
      vertex 77.69578928833008 28.487167292060718 48.6
    endloop
  endfacet
  facet normal 0.06540312923013057 0.9978589232386044 0
    outer loop
      vertex 77.69578928833008 28.487167292060718 48.6
      vertex 77.5 28.5 50.6
      vertex 77.69578928833008 28.487167292060718 50.6
    endloop
  endfacet
  facet normal 0.06540312923013057 0.9978589232386044 0
    outer loop
      vertex 77.5 28.5 50.6
      vertex 77.69578928833008 28.487167292060718 48.6
      vertex 77.5 28.5 48.6
    endloop
  endfacet
  facet normal -0.06540312923013057 0.9978589232386044 0
    outer loop
      vertex 77.5 28.5 48.6
      vertex 77.30421071166992 28.487167292060718 50.6
      vertex 77.5 28.5 50.6
    endloop
  endfacet
  facet normal -0.06540312923013057 0.9978589232386044 0
    outer loop
      vertex 77.30421071166992 28.487167292060718 50.6
      vertex 77.5 28.5 48.6
      vertex 77.30421071166992 28.487167292060718 48.6
    endloop
  endfacet
  facet normal -0.19509032201615414 0.9807852804032254 0
    outer loop
      vertex 77.30421071166992 28.487167292060718 48.6
      vertex 77.11177143234622 28.4488887394336 50.6
      vertex 77.30421071166992 28.487167292060718 50.6
    endloop
  endfacet
  facet normal -0.19509032201615414 0.9807852804032254 0
    outer loop
      vertex 77.11177143234622 28.4488887394336 50.6
      vertex 77.30421071166992 28.487167292060718 48.6
      vertex 77.11177143234622 28.4488887394336 48.6
    endloop
  endfacet
  facet normal -0.3214394653031393 0.9469301294951132 0
    outer loop
      vertex 77.11177143234622 28.4488887394336 48.6
      vertex 76.92597485145237 28.385819298766933 50.6
      vertex 77.11177143234622 28.4488887394336 50.6
    endloop
  endfacet
  facet normal -0.3214394653031393 0.9469301294951132 0
    outer loop
      vertex 76.92597485145237 28.385819298766933 50.6
      vertex 77.11177143234622 28.4488887394336 48.6
      vertex 76.92597485145237 28.385819298766933 48.6
    endloop
  endfacet
  facet normal -0.44228869021900924 0.8968727415326844 0
    outer loop
      vertex 76.92597485145237 28.385819298766933 48.6
      vertex 76.75 28.299038105676658 50.6
      vertex 76.92597485145237 28.385819298766933 50.6
    endloop
  endfacet
  facet normal -0.44228869021900924 0.8968727415326844 0
    outer loop
      vertex 76.75 28.299038105676658 50.6
      vertex 76.92597485145237 28.385819298766933 48.6
      vertex 76.75 28.299038105676658 48.6
    endloop
  endfacet
  facet normal -0.5555702330195792 0.8314696123025607 0
    outer loop
      vertex 76.75 28.299038105676658 48.6
      vertex 76.58685785648692 28.190030010436857 50.6
      vertex 76.75 28.299038105676658 50.6
    endloop
  endfacet
  facet normal -0.5555702330195792 0.8314696123025607 0
    outer loop
      vertex 76.58685785648692 28.190030010436857 50.6
      vertex 76.75 28.299038105676658 48.6
      vertex 76.58685785648692 28.190030010436857 48.6
    endloop
  endfacet
  facet normal -0.6593458151000796 0.7518398074789681 0
    outer loop
      vertex 76.58685785648692 28.190030010436857 48.6
      vertex 76.43933982822018 28.06066017177983 50.6
      vertex 76.58685785648692 28.190030010436857 50.6
    endloop
  endfacet
  facet normal -0.6593458151000796 0.7518398074789681 0
    outer loop
      vertex 76.43933982822018 28.06066017177983 50.6
      vertex 76.58685785648692 28.190030010436857 48.6
      vertex 76.43933982822018 28.06066017177983 48.6
    endloop
  endfacet
  facet normal -0.7518398074789635 0.6593458151000846 0
    outer loop
      vertex 76.30996998956314 27.913142143513085 48.6
      vertex 76.43933982822018 28.06066017177983 50.6
      vertex 76.43933982822018 28.06066017177983 48.6
    endloop
  endfacet
  facet normal -0.7518398074789635 0.6593458151000846 0
    outer loop
      vertex 76.43933982822018 28.06066017177983 50.6
      vertex 76.30996998956314 27.913142143513085 48.6
      vertex 76.30996998956314 27.913142143513085 50.6
    endloop
  endfacet
  facet normal -0.8314696123025607 0.5555702330195792 0
    outer loop
      vertex 76.20096189432334 27.75 48.6
      vertex 76.30996998956314 27.913142143513085 50.6
      vertex 76.30996998956314 27.913142143513085 48.6
    endloop
  endfacet
  facet normal -0.8314696123025607 0.5555702330195792 0
    outer loop
      vertex 76.30996998956314 27.913142143513085 50.6
      vertex 76.20096189432334 27.75 48.6
      vertex 76.20096189432334 27.75 50.6
    endloop
  endfacet
  facet normal -0.8968727415326844 0.44228869021900924 0
    outer loop
      vertex 76.11418070123307 27.574025148547634 48.6
      vertex 76.20096189432334 27.75 50.6
      vertex 76.20096189432334 27.75 48.6
    endloop
  endfacet
  facet normal -0.8968727415326844 0.44228869021900924 0
    outer loop
      vertex 76.20096189432334 27.75 50.6
      vertex 76.11418070123307 27.574025148547634 48.6
      vertex 76.11418070123307 27.574025148547634 50.6
    endloop
  endfacet
  facet normal -0.9469301294951132 0.3214394653031393 0
    outer loop
      vertex 76.0511112605664 27.388228567653783 48.6
      vertex 76.11418070123307 27.574025148547634 50.6
      vertex 76.11418070123307 27.574025148547634 48.6
    endloop
  endfacet
  facet normal -0.9469301294951132 0.3214394653031393 0
    outer loop
      vertex 76.11418070123307 27.574025148547634 50.6
      vertex 76.0511112605664 27.388228567653783 48.6
      vertex 76.0511112605664 27.388228567653783 50.6
    endloop
  endfacet
  facet normal -0.9807852804032254 0.19509032201615414 0
    outer loop
      vertex 76.01283270793928 27.195789288330076 48.6
      vertex 76.0511112605664 27.388228567653783 50.6
      vertex 76.0511112605664 27.388228567653783 48.6
    endloop
  endfacet
  facet normal -0.9807852804032254 0.19509032201615414 0
    outer loop
      vertex 76.0511112605664 27.388228567653783 50.6
      vertex 76.01283270793928 27.195789288330076 48.6
      vertex 76.01283270793928 27.195789288330076 50.6
    endloop
  endfacet
  facet normal -0.9978589232386044 0.06540312923013057 0
    outer loop
      vertex 76 27 48.6
      vertex 76.01283270793928 27.195789288330076 50.6
      vertex 76.01283270793928 27.195789288330076 48.6
    endloop
  endfacet
  facet normal -0.9978589232386044 0.06540312923013057 0
    outer loop
      vertex 76.01283270793928 27.195789288330076 50.6
      vertex 76 27 48.6
      vertex 76 27 50.6
    endloop
  endfacet
  facet normal -0.9978589232386044 -0.06540312923013057 0
    outer loop
      vertex 76.01283270793928 26.804210711669924 48.6
      vertex 76 27 50.6
      vertex 76 27 48.6
    endloop
  endfacet
  facet normal -0.9978589232386044 -0.06540312923013057 0
    outer loop
      vertex 76 27 50.6
      vertex 76.01283270793928 26.804210711669924 48.6
      vertex 76.01283270793928 26.804210711669924 50.6
    endloop
  endfacet
  facet normal -0.9807852804032254 -0.19509032201615414 0
    outer loop
      vertex 76.0511112605664 26.611771432346217 48.6
      vertex 76.01283270793928 26.804210711669924 50.6
      vertex 76.01283270793928 26.804210711669924 48.6
    endloop
  endfacet
  facet normal -0.9807852804032254 -0.19509032201615414 0
    outer loop
      vertex 76.01283270793928 26.804210711669924 50.6
      vertex 76.0511112605664 26.611771432346217 48.6
      vertex 76.0511112605664 26.611771432346217 50.6
    endloop
  endfacet
  facet normal -0.9469301294951132 -0.3214394653031393 0
    outer loop
      vertex 76.11418070123307 26.425974851452366 48.6
      vertex 76.0511112605664 26.611771432346217 50.6
      vertex 76.0511112605664 26.611771432346217 48.6
    endloop
  endfacet
  facet normal -0.9469301294951132 -0.3214394653031393 0
    outer loop
      vertex 76.0511112605664 26.611771432346217 50.6
      vertex 76.11418070123307 26.425974851452366 48.6
      vertex 76.11418070123307 26.425974851452366 50.6
    endloop
  endfacet
  facet normal -0.8968727415326844 -0.44228869021900924 0
    outer loop
      vertex 76.20096189432334 26.25 48.6
      vertex 76.11418070123307 26.425974851452366 50.6
      vertex 76.11418070123307 26.425974851452366 48.6
    endloop
  endfacet
  facet normal -0.8968727415326844 -0.44228869021900924 0
    outer loop
      vertex 76.11418070123307 26.425974851452366 50.6
      vertex 76.20096189432334 26.25 48.6
      vertex 76.20096189432334 26.25 50.6
    endloop
  endfacet
  facet normal -0.8314696123025607 -0.5555702330195792 0
    outer loop
      vertex 76.30996998956314 26.086857856486915 48.6
      vertex 76.20096189432334 26.25 50.6
      vertex 76.20096189432334 26.25 48.6
    endloop
  endfacet
  facet normal -0.8314696123025607 -0.5555702330195792 0
    outer loop
      vertex 76.20096189432334 26.25 50.6
      vertex 76.30996998956314 26.086857856486915 48.6
      vertex 76.30996998956314 26.086857856486915 50.6
    endloop
  endfacet
  facet normal -0.7518398074789635 -0.6593458151000846 0
    outer loop
      vertex 76.43933982822018 25.93933982822017 48.6
      vertex 76.30996998956314 26.086857856486915 50.6
      vertex 76.30996998956314 26.086857856486915 48.6
    endloop
  endfacet
  facet normal -0.7518398074789635 -0.6593458151000846 0
    outer loop
      vertex 76.30996998956314 26.086857856486915 50.6
      vertex 76.43933982822018 25.93933982822017 48.6
      vertex 76.43933982822018 25.93933982822017 50.6
    endloop
  endfacet
  facet normal -0.6593458151000796 -0.7518398074789681 0
    outer loop
      vertex 76.43933982822018 25.93933982822017 48.6
      vertex 76.58685785648692 25.809969989563143 50.6
      vertex 76.43933982822018 25.93933982822017 50.6
    endloop
  endfacet
  facet normal -0.6593458151000796 -0.7518398074789681 0
    outer loop
      vertex 76.58685785648692 25.809969989563143 50.6
      vertex 76.43933982822018 25.93933982822017 48.6
      vertex 76.58685785648692 25.809969989563143 48.6
    endloop
  endfacet
  facet normal -0.5555702330195792 -0.8314696123025607 0
    outer loop
      vertex 76.58685785648692 25.809969989563143 48.6
      vertex 76.75 25.700961894323342 50.6
      vertex 76.58685785648692 25.809969989563143 50.6
    endloop
  endfacet
  facet normal -0.5555702330195792 -0.8314696123025607 0
    outer loop
      vertex 76.75 25.700961894323342 50.6
      vertex 76.58685785648692 25.809969989563143 48.6
      vertex 76.75 25.700961894323342 48.6
    endloop
  endfacet
  facet normal -0.44228869021900924 -0.8968727415326844 0
    outer loop
      vertex 76.75 25.700961894323342 48.6
      vertex 76.92597485145237 25.614180701233067 50.6
      vertex 76.75 25.700961894323342 50.6
    endloop
  endfacet
  facet normal -0.44228869021900924 -0.8968727415326844 0
    outer loop
      vertex 76.92597485145237 25.614180701233067 50.6
      vertex 76.75 25.700961894323342 48.6
      vertex 76.92597485145237 25.614180701233067 48.6
    endloop
  endfacet
  facet normal -0.3214394653031393 -0.9469301294951132 0
    outer loop
      vertex 76.92597485145237 25.614180701233067 48.6
      vertex 77.11177143234622 25.5511112605664 50.6
      vertex 76.92597485145237 25.614180701233067 50.6
    endloop
  endfacet
  facet normal -0.3214394653031393 -0.9469301294951132 0
    outer loop
      vertex 77.11177143234622 25.5511112605664 50.6
      vertex 76.92597485145237 25.614180701233067 48.6
      vertex 77.11177143234622 25.5511112605664 48.6
    endloop
  endfacet
  facet normal -0.19509032201615414 -0.9807852804032254 0
    outer loop
      vertex 77.11177143234622 25.5511112605664 48.6
      vertex 77.30421071166992 25.512832707939282 50.6
      vertex 77.11177143234622 25.5511112605664 50.6
    endloop
  endfacet
  facet normal -0.19509032201615414 -0.9807852804032254 0
    outer loop
      vertex 77.30421071166992 25.512832707939282 50.6
      vertex 77.11177143234622 25.5511112605664 48.6
      vertex 77.30421071166992 25.512832707939282 48.6
    endloop
  endfacet
  facet normal -0.06540312923013057 -0.9978589232386044 0
    outer loop
      vertex 77.30421071166992 25.512832707939282 48.6
      vertex 77.5 25.5 50.6
      vertex 77.30421071166992 25.512832707939282 50.6
    endloop
  endfacet
  facet normal -0.06540312923013057 -0.9978589232386044 0
    outer loop
      vertex 77.5 25.5 50.6
      vertex 77.30421071166992 25.512832707939282 48.6
      vertex 77.5 25.5 48.6
    endloop
  endfacet
  facet normal 0.06540312923013057 -0.9978589232386044 0
    outer loop
      vertex 77.5 25.5 48.6
      vertex 77.69578928833008 25.512832707939282 50.6
      vertex 77.5 25.5 50.6
    endloop
  endfacet
  facet normal 0.06540312923013057 -0.9978589232386044 0
    outer loop
      vertex 77.69578928833008 25.512832707939282 50.6
      vertex 77.5 25.5 48.6
      vertex 77.69578928833008 25.512832707939282 48.6
    endloop
  endfacet
  facet normal 0.19509032201615414 -0.9807852804032254 0
    outer loop
      vertex 77.69578928833008 25.512832707939282 48.6
      vertex 77.88822856765378 25.5511112605664 50.6
      vertex 77.69578928833008 25.512832707939282 50.6
    endloop
  endfacet
  facet normal 0.19509032201615414 -0.9807852804032254 0
    outer loop
      vertex 77.88822856765378 25.5511112605664 50.6
      vertex 77.69578928833008 25.512832707939282 48.6
      vertex 77.88822856765378 25.5511112605664 48.6
    endloop
  endfacet
  facet normal 0.3214394653031393 -0.9469301294951132 0
    outer loop
      vertex 77.88822856765378 25.5511112605664 48.6
      vertex 78.07402514854763 25.614180701233067 50.6
      vertex 77.88822856765378 25.5511112605664 50.6
    endloop
  endfacet
  facet normal 0.3214394653031393 -0.9469301294951132 0
    outer loop
      vertex 78.07402514854763 25.614180701233067 50.6
      vertex 77.88822856765378 25.5511112605664 48.6
      vertex 78.07402514854763 25.614180701233067 48.6
    endloop
  endfacet
  facet normal 0.44228869021900924 -0.8968727415326844 0
    outer loop
      vertex 78.07402514854763 25.614180701233067 48.6
      vertex 78.25 25.700961894323342 50.6
      vertex 78.07402514854763 25.614180701233067 50.6
    endloop
  endfacet
  facet normal 0.44228869021900924 -0.8968727415326844 0
    outer loop
      vertex 78.25 25.700961894323342 50.6
      vertex 78.07402514854763 25.614180701233067 48.6
      vertex 78.25 25.700961894323342 48.6
    endloop
  endfacet
  facet normal 0.5555702330195792 -0.8314696123025607 0
    outer loop
      vertex 78.25 25.700961894323342 48.6
      vertex 78.41314214351308 25.809969989563143 50.6
      vertex 78.25 25.700961894323342 50.6
    endloop
  endfacet
  facet normal 0.5555702330195792 -0.8314696123025607 0
    outer loop
      vertex 78.41314214351308 25.809969989563143 50.6
      vertex 78.25 25.700961894323342 48.6
      vertex 78.41314214351308 25.809969989563143 48.6
    endloop
  endfacet
  facet normal 0.6593458151000796 -0.7518398074789681 0
    outer loop
      vertex 78.41314214351308 25.809969989563143 48.6
      vertex 78.56066017177982 25.93933982822017 50.6
      vertex 78.41314214351308 25.809969989563143 50.6
    endloop
  endfacet
  facet normal 0.6593458151000796 -0.7518398074789681 0
    outer loop
      vertex 78.56066017177982 25.93933982822017 50.6
      vertex 78.41314214351308 25.809969989563143 48.6
      vertex 78.56066017177982 25.93933982822017 48.6
    endloop
  endfacet
  facet normal 0.7518398074789635 -0.6593458151000846 0
    outer loop
      vertex 78.56066017177982 25.93933982822017 50.6
      vertex 78.69003001043686 26.086857856486915 48.6
      vertex 78.69003001043686 26.086857856486915 50.6
    endloop
  endfacet
  facet normal 0.7518398074789635 -0.6593458151000846 0
    outer loop
      vertex 78.69003001043686 26.086857856486915 48.6
      vertex 78.56066017177982 25.93933982822017 50.6
      vertex 78.56066017177982 25.93933982822017 48.6
    endloop
  endfacet
  facet normal 0.8314696123025607 -0.5555702330195792 0
    outer loop
      vertex 78.69003001043686 26.086857856486915 50.6
      vertex 78.79903810567666 26.25 48.6
      vertex 78.79903810567666 26.25 50.6
    endloop
  endfacet
  facet normal 0.8314696123025607 -0.5555702330195792 0
    outer loop
      vertex 78.79903810567666 26.25 48.6
      vertex 78.69003001043686 26.086857856486915 50.6
      vertex 78.69003001043686 26.086857856486915 48.6
    endloop
  endfacet
  facet normal 0.8968727415326844 -0.44228869021900924 0
    outer loop
      vertex 78.79903810567666 26.25 50.6
      vertex 78.88581929876693 26.425974851452366 48.6
      vertex 78.88581929876693 26.425974851452366 50.6
    endloop
  endfacet
  facet normal 0.8968727415326844 -0.44228869021900924 0
    outer loop
      vertex 78.88581929876693 26.425974851452366 48.6
      vertex 78.79903810567666 26.25 50.6
      vertex 78.79903810567666 26.25 48.6
    endloop
  endfacet
  facet normal 0.9469301294951132 -0.3214394653031393 0
    outer loop
      vertex 78.88581929876693 26.425974851452366 50.6
      vertex 78.9488887394336 26.611771432346217 48.6
      vertex 78.9488887394336 26.611771432346217 50.6
    endloop
  endfacet
  facet normal 0.9469301294951132 -0.3214394653031393 0
    outer loop
      vertex 78.9488887394336 26.611771432346217 48.6
      vertex 78.88581929876693 26.425974851452366 50.6
      vertex 78.88581929876693 26.425974851452366 48.6
    endloop
  endfacet
  facet normal 0.9807852804032254 -0.19509032201615414 0
    outer loop
      vertex 78.9488887394336 26.611771432346217 50.6
      vertex 78.98716729206072 26.804210711669924 48.6
      vertex 78.98716729206072 26.804210711669924 50.6
    endloop
  endfacet
  facet normal 0.9807852804032254 -0.19509032201615414 0
    outer loop
      vertex 78.98716729206072 26.804210711669924 48.6
      vertex 78.9488887394336 26.611771432346217 50.6
      vertex 78.9488887394336 26.611771432346217 48.6
    endloop
  endfacet
  facet normal 0.9978589232386044 -0.06540312923013057 0
    outer loop
      vertex 78.98716729206072 26.804210711669924 50.6
      vertex 79 27 48.6
      vertex 79 27 50.6
    endloop
  endfacet
  facet normal 0.9978589232386044 -0.06540312923013057 0
    outer loop
      vertex 79 27 48.6
      vertex 78.98716729206072 26.804210711669924 50.6
      vertex 78.98716729206072 26.804210711669924 48.6
    endloop
  endfacet
  facet normal 0 0 -1
    outer loop
      vertex 78.98716729206072 26.804210711669924 48.6
      vertex 78.98716729206072 27.195789288330076 48.6
      vertex 79 27 48.6
    endloop
  endfacet
  facet normal 0 0 -1
    outer loop
      vertex 78.9488887394336 26.611771432346217 48.6
      vertex 78.98716729206072 27.195789288330076 48.6
      vertex 78.98716729206072 26.804210711669924 48.6
    endloop
  endfacet
  facet normal 0 0 -1
    outer loop
      vertex 78.9488887394336 26.611771432346217 48.6
      vertex 78.9488887394336 27.388228567653783 48.6
      vertex 78.98716729206072 27.195789288330076 48.6
    endloop
  endfacet
  facet normal 0 0 -1
    outer loop
      vertex 78.88581929876693 26.425974851452366 48.6
      vertex 78.9488887394336 27.388228567653783 48.6
      vertex 78.9488887394336 26.611771432346217 48.6
    endloop
  endfacet
  facet normal 0 0 -1
    outer loop
      vertex 78.88581929876693 26.425974851452366 48.6
      vertex 78.88581929876693 27.574025148547634 48.6
      vertex 78.9488887394336 27.388228567653783 48.6
    endloop
  endfacet
  facet normal 0 0 -1
    outer loop
      vertex 78.79903810567666 26.25 48.6
      vertex 78.88581929876693 27.574025148547634 48.6
      vertex 78.88581929876693 26.425974851452366 48.6
    endloop
  endfacet
  facet normal 0 0 -1
    outer loop
      vertex 78.79903810567666 26.25 48.6
      vertex 78.79903810567666 27.75 48.6
      vertex 78.88581929876693 27.574025148547634 48.6
    endloop
  endfacet
  facet normal 0 0 -1
    outer loop
      vertex 78.69003001043686 26.086857856486915 48.6
      vertex 78.79903810567666 27.75 48.6
      vertex 78.79903810567666 26.25 48.6
    endloop
  endfacet
  facet normal 0 0 -1
    outer loop
      vertex 78.69003001043686 26.086857856486915 48.6
      vertex 78.69003001043686 27.913142143513085 48.6
      vertex 78.79903810567666 27.75 48.6
    endloop
  endfacet
  facet normal 0 0 -1
    outer loop
      vertex 78.56066017177982 25.93933982822017 48.6
      vertex 78.69003001043686 27.913142143513085 48.6
      vertex 78.69003001043686 26.086857856486915 48.6
    endloop
  endfacet
  facet normal 0 0 -1
    outer loop
      vertex 78.56066017177982 25.93933982822017 48.6
      vertex 78.56066017177982 28.06066017177983 48.6
      vertex 78.69003001043686 27.913142143513085 48.6
    endloop
  endfacet
  facet normal 0 0 -1
    outer loop
      vertex 78.41314214351308 25.809969989563143 48.6
      vertex 78.56066017177982 28.06066017177983 48.6
      vertex 78.56066017177982 25.93933982822017 48.6
    endloop
  endfacet
  facet normal 0 0 -1
    outer loop
      vertex 78.41314214351308 25.809969989563143 48.6
      vertex 78.41314214351308 28.190030010436857 48.6
      vertex 78.56066017177982 28.06066017177983 48.6
    endloop
  endfacet
  facet normal 0 0 -1
    outer loop
      vertex 78.25 25.700961894323342 48.6
      vertex 78.41314214351308 28.190030010436857 48.6
      vertex 78.41314214351308 25.809969989563143 48.6
    endloop
  endfacet
  facet normal 0 0 -1
    outer loop
      vertex 78.25 25.700961894323342 48.6
      vertex 78.25 28.299038105676658 48.6
      vertex 78.41314214351308 28.190030010436857 48.6
    endloop
  endfacet
  facet normal 0 0 -1
    outer loop
      vertex 78.07402514854763 25.614180701233067 48.6
      vertex 78.25 28.299038105676658 48.6
      vertex 78.25 25.700961894323342 48.6
    endloop
  endfacet
  facet normal 0 0 -1
    outer loop
      vertex 78.07402514854763 25.614180701233067 48.6
      vertex 78.07402514854763 28.385819298766933 48.6
      vertex 78.25 28.299038105676658 48.6
    endloop
  endfacet
  facet normal 0 0 -1
    outer loop
      vertex 77.88822856765378 25.5511112605664 48.6
      vertex 78.07402514854763 28.385819298766933 48.6
      vertex 78.07402514854763 25.614180701233067 48.6
    endloop
  endfacet
  facet normal 0 0 -1
    outer loop
      vertex 77.88822856765378 25.5511112605664 48.6
      vertex 77.88822856765378 28.4488887394336 48.6
      vertex 78.07402514854763 28.385819298766933 48.6
    endloop
  endfacet
  facet normal 0 0 -1
    outer loop
      vertex 77.69578928833008 25.512832707939282 48.6
      vertex 77.88822856765378 28.4488887394336 48.6
      vertex 77.88822856765378 25.5511112605664 48.6
    endloop
  endfacet
  facet normal 0 0 -1
    outer loop
      vertex 77.69578928833008 25.512832707939282 48.6
      vertex 77.69578928833008 28.487167292060718 48.6
      vertex 77.88822856765378 28.4488887394336 48.6
    endloop
  endfacet
  facet normal 0 0 -1
    outer loop
      vertex 77.5 25.5 48.6
      vertex 77.69578928833008 28.487167292060718 48.6
      vertex 77.69578928833008 25.512832707939282 48.6
    endloop
  endfacet
  facet normal 0 0 -1
    outer loop
      vertex 77.5 25.5 48.6
      vertex 77.5 28.5 48.6
      vertex 77.69578928833008 28.487167292060718 48.6
    endloop
  endfacet
  facet normal 0 0 -1
    outer loop
      vertex 77.30421071166992 25.512832707939282 48.6
      vertex 77.5 28.5 48.6
      vertex 77.5 25.5 48.6
    endloop
  endfacet
  facet normal 0 0 -1
    outer loop
      vertex 77.30421071166992 25.512832707939282 48.6
      vertex 77.30421071166992 28.487167292060718 48.6
      vertex 77.5 28.5 48.6
    endloop
  endfacet
  facet normal 0 0 -1
    outer loop
      vertex 77.11177143234622 25.5511112605664 48.6
      vertex 77.30421071166992 28.487167292060718 48.6
      vertex 77.30421071166992 25.512832707939282 48.6
    endloop
  endfacet
  facet normal 0 0 -1
    outer loop
      vertex 77.11177143234622 25.5511112605664 48.6
      vertex 77.11177143234622 28.4488887394336 48.6
      vertex 77.30421071166992 28.487167292060718 48.6
    endloop
  endfacet
  facet normal 0 0 -1
    outer loop
      vertex 76.92597485145237 25.614180701233067 48.6
      vertex 77.11177143234622 28.4488887394336 48.6
      vertex 77.11177143234622 25.5511112605664 48.6
    endloop
  endfacet
  facet normal 0 0 -1
    outer loop
      vertex 76.92597485145237 25.614180701233067 48.6
      vertex 76.92597485145237 28.385819298766933 48.6
      vertex 77.11177143234622 28.4488887394336 48.6
    endloop
  endfacet
  facet normal 0 0 -1
    outer loop
      vertex 76.75 25.700961894323342 48.6
      vertex 76.92597485145237 28.385819298766933 48.6
      vertex 76.92597485145237 25.614180701233067 48.6
    endloop
  endfacet
  facet normal 0 0 -1
    outer loop
      vertex 76.75 25.700961894323342 48.6
      vertex 76.75 28.299038105676658 48.6
      vertex 76.92597485145237 28.385819298766933 48.6
    endloop
  endfacet
  facet normal 0 0 -1
    outer loop
      vertex 76.58685785648692 25.809969989563143 48.6
      vertex 76.75 28.299038105676658 48.6
      vertex 76.75 25.700961894323342 48.6
    endloop
  endfacet
  facet normal 0 0 -1
    outer loop
      vertex 76.58685785648692 25.809969989563143 48.6
      vertex 76.58685785648692 28.190030010436857 48.6
      vertex 76.75 28.299038105676658 48.6
    endloop
  endfacet
  facet normal 0 0 -1
    outer loop
      vertex 76.43933982822018 25.93933982822017 48.6
      vertex 76.58685785648692 28.190030010436857 48.6
      vertex 76.58685785648692 25.809969989563143 48.6
    endloop
  endfacet
  facet normal 0 0 -1
    outer loop
      vertex 76.43933982822018 25.93933982822017 48.6
      vertex 76.43933982822018 28.06066017177983 48.6
      vertex 76.58685785648692 28.190030010436857 48.6
    endloop
  endfacet
  facet normal 0 0 -1
    outer loop
      vertex 76.30996998956314 26.086857856486915 48.6
      vertex 76.43933982822018 28.06066017177983 48.6
      vertex 76.43933982822018 25.93933982822017 48.6
    endloop
  endfacet
  facet normal 0 0 -1
    outer loop
      vertex 76.30996998956314 26.086857856486915 48.6
      vertex 76.30996998956314 27.913142143513085 48.6
      vertex 76.43933982822018 28.06066017177983 48.6
    endloop
  endfacet
  facet normal 0 0 -1
    outer loop
      vertex 76.20096189432334 26.25 48.6
      vertex 76.30996998956314 27.913142143513085 48.6
      vertex 76.30996998956314 26.086857856486915 48.6
    endloop
  endfacet
  facet normal 0 0 -1
    outer loop
      vertex 76.20096189432334 26.25 48.6
      vertex 76.20096189432334 27.75 48.6
      vertex 76.30996998956314 27.913142143513085 48.6
    endloop
  endfacet
  facet normal 0 0 -1
    outer loop
      vertex 76.11418070123307 26.425974851452366 48.6
      vertex 76.20096189432334 27.75 48.6
      vertex 76.20096189432334 26.25 48.6
    endloop
  endfacet
  facet normal 0 0 -1
    outer loop
      vertex 76.11418070123307 26.425974851452366 48.6
      vertex 76.11418070123307 27.574025148547634 48.6
      vertex 76.20096189432334 27.75 48.6
    endloop
  endfacet
  facet normal 0 0 -1
    outer loop
      vertex 76.0511112605664 26.611771432346217 48.6
      vertex 76.11418070123307 27.574025148547634 48.6
      vertex 76.11418070123307 26.425974851452366 48.6
    endloop
  endfacet
  facet normal 0 0 -1
    outer loop
      vertex 76.0511112605664 26.611771432346217 48.6
      vertex 76.0511112605664 27.388228567653783 48.6
      vertex 76.11418070123307 27.574025148547634 48.6
    endloop
  endfacet
  facet normal 0 0 -1
    outer loop
      vertex 76.01283270793928 26.804210711669924 48.6
      vertex 76.0511112605664 27.388228567653783 48.6
      vertex 76.0511112605664 26.611771432346217 48.6
    endloop
  endfacet
  facet normal 0 0 -1
    outer loop
      vertex 76.01283270793928 26.804210711669924 48.6
      vertex 76.01283270793928 27.195789288330076 48.6
      vertex 76.0511112605664 27.388228567653783 48.6
    endloop
  endfacet
  facet normal 0 0 -1
    outer loop
      vertex 76.01283270793928 27.195789288330076 48.6
      vertex 76.01283270793928 26.804210711669924 48.6
      vertex 76 27 48.6
    endloop
  endfacet
  facet normal 0 0 1
    outer loop
      vertex 78.98716729206072 27.195789288330076 50.6
      vertex 78.98716729206072 26.804210711669924 50.6
      vertex 79 27 50.6
    endloop
  endfacet
  facet normal 0 0 1
    outer loop
      vertex 78.9488887394336 27.388228567653783 50.6
      vertex 78.98716729206072 26.804210711669924 50.6
      vertex 78.98716729206072 27.195789288330076 50.6
    endloop
  endfacet
  facet normal 0 0 1
    outer loop
      vertex 78.9488887394336 27.388228567653783 50.6
      vertex 78.9488887394336 26.611771432346217 50.6
      vertex 78.98716729206072 26.804210711669924 50.6
    endloop
  endfacet
  facet normal 0 0 1
    outer loop
      vertex 78.88581929876693 27.574025148547634 50.6
      vertex 78.9488887394336 26.611771432346217 50.6
      vertex 78.9488887394336 27.388228567653783 50.6
    endloop
  endfacet
  facet normal 0 0 1
    outer loop
      vertex 78.88581929876693 27.574025148547634 50.6
      vertex 78.88581929876693 26.425974851452366 50.6
      vertex 78.9488887394336 26.611771432346217 50.6
    endloop
  endfacet
  facet normal 0 0 1
    outer loop
      vertex 78.79903810567666 27.75 50.6
      vertex 78.88581929876693 26.425974851452366 50.6
      vertex 78.88581929876693 27.574025148547634 50.6
    endloop
  endfacet
  facet normal 0 0 1
    outer loop
      vertex 78.79903810567666 27.75 50.6
      vertex 78.79903810567666 26.25 50.6
      vertex 78.88581929876693 26.425974851452366 50.6
    endloop
  endfacet
  facet normal 0 0 1
    outer loop
      vertex 78.69003001043686 27.913142143513085 50.6
      vertex 78.79903810567666 26.25 50.6
      vertex 78.79903810567666 27.75 50.6
    endloop
  endfacet
  facet normal 0 0 1
    outer loop
      vertex 78.69003001043686 27.913142143513085 50.6
      vertex 78.69003001043686 26.086857856486915 50.6
      vertex 78.79903810567666 26.25 50.6
    endloop
  endfacet
  facet normal 0 0 1
    outer loop
      vertex 78.56066017177982 28.06066017177983 50.6
      vertex 78.69003001043686 26.086857856486915 50.6
      vertex 78.69003001043686 27.913142143513085 50.6
    endloop
  endfacet
  facet normal 0 0 1
    outer loop
      vertex 78.56066017177982 28.06066017177983 50.6
      vertex 78.56066017177982 25.93933982822017 50.6
      vertex 78.69003001043686 26.086857856486915 50.6
    endloop
  endfacet
  facet normal 0 0 1
    outer loop
      vertex 78.41314214351308 28.190030010436857 50.6
      vertex 78.56066017177982 25.93933982822017 50.6
      vertex 78.56066017177982 28.06066017177983 50.6
    endloop
  endfacet
  facet normal 0 0 1
    outer loop
      vertex 78.41314214351308 28.190030010436857 50.6
      vertex 78.41314214351308 25.809969989563143 50.6
      vertex 78.56066017177982 25.93933982822017 50.6
    endloop
  endfacet
  facet normal 0 0 1
    outer loop
      vertex 78.25 28.299038105676658 50.6
      vertex 78.41314214351308 25.809969989563143 50.6
      vertex 78.41314214351308 28.190030010436857 50.6
    endloop
  endfacet
  facet normal 0 0 1
    outer loop
      vertex 78.25 28.299038105676658 50.6
      vertex 78.25 25.700961894323342 50.6
      vertex 78.41314214351308 25.809969989563143 50.6
    endloop
  endfacet
  facet normal 0 0 1
    outer loop
      vertex 78.07402514854763 28.385819298766933 50.6
      vertex 78.25 25.700961894323342 50.6
      vertex 78.25 28.299038105676658 50.6
    endloop
  endfacet
  facet normal 0 0 1
    outer loop
      vertex 78.07402514854763 28.385819298766933 50.6
      vertex 78.07402514854763 25.614180701233067 50.6
      vertex 78.25 25.700961894323342 50.6
    endloop
  endfacet
  facet normal 0 0 1
    outer loop
      vertex 77.88822856765378 28.4488887394336 50.6
      vertex 78.07402514854763 25.614180701233067 50.6
      vertex 78.07402514854763 28.385819298766933 50.6
    endloop
  endfacet
  facet normal 0 0 1
    outer loop
      vertex 77.88822856765378 28.4488887394336 50.6
      vertex 77.88822856765378 25.5511112605664 50.6
      vertex 78.07402514854763 25.614180701233067 50.6
    endloop
  endfacet
  facet normal 0 0 1
    outer loop
      vertex 77.69578928833008 28.487167292060718 50.6
      vertex 77.88822856765378 25.5511112605664 50.6
      vertex 77.88822856765378 28.4488887394336 50.6
    endloop
  endfacet
  facet normal 0 0 1
    outer loop
      vertex 77.69578928833008 28.487167292060718 50.6
      vertex 77.69578928833008 25.512832707939282 50.6
      vertex 77.88822856765378 25.5511112605664 50.6
    endloop
  endfacet
  facet normal 0 0 1
    outer loop
      vertex 77.5 28.5 50.6
      vertex 77.69578928833008 25.512832707939282 50.6
      vertex 77.69578928833008 28.487167292060718 50.6
    endloop
  endfacet
  facet normal 0 0 1
    outer loop
      vertex 77.5 28.5 50.6
      vertex 77.5 25.5 50.6
      vertex 77.69578928833008 25.512832707939282 50.6
    endloop
  endfacet
  facet normal 0 0 1
    outer loop
      vertex 77.30421071166992 28.487167292060718 50.6
      vertex 77.5 25.5 50.6
      vertex 77.5 28.5 50.6
    endloop
  endfacet
  facet normal 0 0 1
    outer loop
      vertex 77.30421071166992 28.487167292060718 50.6
      vertex 77.30421071166992 25.512832707939282 50.6
      vertex 77.5 25.5 50.6
    endloop
  endfacet
  facet normal 0 0 1
    outer loop
      vertex 77.11177143234622 28.4488887394336 50.6
      vertex 77.30421071166992 25.512832707939282 50.6
      vertex 77.30421071166992 28.487167292060718 50.6
    endloop
  endfacet
  facet normal 0 0 1
    outer loop
      vertex 77.11177143234622 28.4488887394336 50.6
      vertex 77.11177143234622 25.5511112605664 50.6
      vertex 77.30421071166992 25.512832707939282 50.6
    endloop
  endfacet
  facet normal 0 0 1
    outer loop
      vertex 76.92597485145237 28.385819298766933 50.6
      vertex 77.11177143234622 25.5511112605664 50.6
      vertex 77.11177143234622 28.4488887394336 50.6
    endloop
  endfacet
  facet normal 0 0 1
    outer loop
      vertex 76.92597485145237 28.385819298766933 50.6
      vertex 76.92597485145237 25.614180701233067 50.6
      vertex 77.11177143234622 25.5511112605664 50.6
    endloop
  endfacet
  facet normal 0 0 1
    outer loop
      vertex 76.75 28.299038105676658 50.6
      vertex 76.92597485145237 25.614180701233067 50.6
      vertex 76.92597485145237 28.385819298766933 50.6
    endloop
  endfacet
  facet normal 0 0 1
    outer loop
      vertex 76.75 28.299038105676658 50.6
      vertex 76.75 25.700961894323342 50.6
      vertex 76.92597485145237 25.614180701233067 50.6
    endloop
  endfacet
  facet normal 0 0 1
    outer loop
      vertex 76.58685785648692 28.190030010436857 50.6
      vertex 76.75 25.700961894323342 50.6
      vertex 76.75 28.299038105676658 50.6
    endloop
  endfacet
  facet normal 0 0 1
    outer loop
      vertex 76.58685785648692 28.190030010436857 50.6
      vertex 76.58685785648692 25.809969989563143 50.6
      vertex 76.75 25.700961894323342 50.6
    endloop
  endfacet
  facet normal 0 0 1
    outer loop
      vertex 76.43933982822018 28.06066017177983 50.6
      vertex 76.58685785648692 25.809969989563143 50.6
      vertex 76.58685785648692 28.190030010436857 50.6
    endloop
  endfacet
  facet normal 0 0 1
    outer loop
      vertex 76.43933982822018 28.06066017177983 50.6
      vertex 76.43933982822018 25.93933982822017 50.6
      vertex 76.58685785648692 25.809969989563143 50.6
    endloop
  endfacet
  facet normal 0 0 1
    outer loop
      vertex 76.30996998956314 27.913142143513085 50.6
      vertex 76.43933982822018 25.93933982822017 50.6
      vertex 76.43933982822018 28.06066017177983 50.6
    endloop
  endfacet
  facet normal 0 0 1
    outer loop
      vertex 76.30996998956314 27.913142143513085 50.6
      vertex 76.30996998956314 26.086857856486915 50.6
      vertex 76.43933982822018 25.93933982822017 50.6
    endloop
  endfacet
  facet normal 0 0 1
    outer loop
      vertex 76.20096189432334 27.75 50.6
      vertex 76.30996998956314 26.086857856486915 50.6
      vertex 76.30996998956314 27.913142143513085 50.6
    endloop
  endfacet
  facet normal 0 0 1
    outer loop
      vertex 76.20096189432334 27.75 50.6
      vertex 76.20096189432334 26.25 50.6
      vertex 76.30996998956314 26.086857856486915 50.6
    endloop
  endfacet
  facet normal 0 0 1
    outer loop
      vertex 76.11418070123307 27.574025148547634 50.6
      vertex 76.20096189432334 26.25 50.6
      vertex 76.20096189432334 27.75 50.6
    endloop
  endfacet
  facet normal 0 0 1
    outer loop
      vertex 76.11418070123307 27.574025148547634 50.6
      vertex 76.11418070123307 26.425974851452366 50.6
      vertex 76.20096189432334 26.25 50.6
    endloop
  endfacet
  facet normal 0 0 1
    outer loop
      vertex 76.0511112605664 27.388228567653783 50.6
      vertex 76.11418070123307 26.425974851452366 50.6
      vertex 76.11418070123307 27.574025148547634 50.6
    endloop
  endfacet
  facet normal 0 0 1
    outer loop
      vertex 76.0511112605664 27.388228567653783 50.6
      vertex 76.0511112605664 26.611771432346217 50.6
      vertex 76.11418070123307 26.425974851452366 50.6
    endloop
  endfacet
  facet normal 0 0 1
    outer loop
      vertex 76.01283270793928 27.195789288330076 50.6
      vertex 76.0511112605664 26.611771432346217 50.6
      vertex 76.0511112605664 27.388228567653783 50.6
    endloop
  endfacet
  facet normal 0 0 1
    outer loop
      vertex 76.01283270793928 27.195789288330076 50.6
      vertex 76.01283270793928 26.804210711669924 50.6
      vertex 76.0511112605664 26.611771432346217 50.6
    endloop
  endfacet
  facet normal 0 0 1
    outer loop
      vertex 76.01283270793928 26.804210711669924 50.6
      vertex 76.01283270793928 27.195789288330076 50.6
      vertex 76 27 50.6
    endloop
  endfacet
endsolid OpenSCAD_Model
