solid OpenSCAD_Model
  facet normal 0 0 1
    outer loop
      vertex 3.8 6 2.5
      vertex 3.8 6.6 2.5
      vertex 3.7399999999999998 6.6 2.5
    endloop
  endfacet
  facet normal 0 -1 0
    outer loop
      vertex 3.8 6 2.5
      vertex 3.8 6 2
      vertex 10.8 6 2
    endloop
  endfacet
  facet normal 0 0 1
    outer loop
      vertex 3.8 6 2.5
      vertex 10.8 6 2.5
      vertex 3.8 6.6 2.5
    endloop
  endfacet
  facet normal 0 1 0
    outer loop
      vertex 3.8 6.6 2.5
      vertex 10.8 6.6 2.5
      vertex 3.8 6.6 2
    endloop
  endfacet
  facet normal 0 1 0
    outer loop
      vertex 10.8 6.6 2.5
      vertex 10.8 6.6 2
      vertex 3.8 6.6 2
    endloop
  endfacet
  facet normal 0 -1 0
    outer loop
      vertex 3.8 6 2.5
      vertex 10.8 6 2
      vertex 10.8 6 2.5
    endloop
  endfacet
  facet normal 0 0 1
    outer loop
      vertex 3.8 6.6 2.5
      vertex 10.8 6 2.5
      vertex 10.8 6.6 2.5
    endloop
  endfacet
  facet normal 1 0 0
    outer loop
      vertex 10.8 6 2.5
      vertex 10.8 6 2
      vertex 10.8 6.6 2
    endloop
  endfacet
  facet normal 1 0 0
    outer loop
      vertex 10.8 6 2.5
      vertex 10.8 6.6 2
      vertex 10.8 6.6 2.5
    endloop
  endfacet
  facet normal 0 -1 0
    outer loop
      vertex 3.8 13.4 2.5
      vertex 3.8 13.4 2
      vertex 10.8 13.4 2
    endloop
  endfacet
  facet normal 0 1 0
    outer loop
      vertex 3.8 14 2.5
      vertex 10.8 14 2.5
      vertex 3.8 14 2
    endloop
  endfacet
  facet normal 0 0 1
    outer loop
      vertex 3.8 13.4 2.5
      vertex 10.8 14 2.5
      vertex 3.8 14 2.5
    endloop
  endfacet
  facet normal 0 1 0
    outer loop
      vertex 10.8 14 2.5
      vertex 10.8 14 2
      vertex 3.8 14 2
    endloop
  endfacet
  facet normal 0 -1 0
    outer loop
      vertex 3.8 13.4 2.5
      vertex 10.8 13.4 2
      vertex 10.8 13.4 2.5
    endloop
  endfacet
  facet normal 0 0 1
    outer loop
      vertex 3.8 13.4 2.5
      vertex 10.8 13.4 2.5
      vertex 10.8 14 2.5
    endloop
  endfacet
  facet normal 1 0 0
    outer loop
      vertex 10.8 13.4 2.5
      vertex 10.8 13.4 2
      vertex 10.8 14 2
    endloop
  endfacet
  facet normal 1 0 0
    outer loop
      vertex 10.8 13.4 2.5
      vertex 10.8 14 2
      vertex 10.8 14 2.5
    endloop
  endfacet
  facet normal 0 0 1
    outer loop
      vertex 0 0 2
      vertex 3.8 6 2
      vertex 3 6 2
    endloop
  endfacet
  facet normal -1 0 0
    outer loop
      vertex 0 0 0
      vertex 0 0 2
      vertex 0 20 2
    endloop
  endfacet
  facet normal 0 0 1
    outer loop
      vertex 0 0 2
      vertex 3 6 2
      vertex 0 20 2
    endloop
  endfacet
  facet normal 0 -1 0
    outer loop
      vertex 0 0 0
      vertex 16 0 2
      vertex 0 0 2
    endloop
  endfacet
  facet normal 0 0 1
    outer loop
      vertex 0 0 2
      vertex 10.8 6 2
      vertex 3.8 6 2
    endloop
  endfacet
  facet normal -1 0 0
    outer loop
      vertex 0 0 0
      vertex 0 20 2
      vertex 0 20 0
    endloop
  endfacet
  facet normal 0 0 -1
    outer loop
      vertex 0 0 0
      vertex 0 20 0
      vertex 16 20 0
    endloop
  endfacet
  facet normal 0 1 0
    outer loop
      vertex 0 20 0
      vertex 0 20 2
      vertex 16 20 0
    endloop
  endfacet
  facet normal 0 0 1
    outer loop
      vertex 0 20 2
      vertex 3 6 2
      vertex 3 14 2
    endloop
  endfacet
  facet normal 0 0 1
    outer loop
      vertex 0 20 2
      vertex 3 14 2
      vertex 3.8 14 2
    endloop
  endfacet
  facet normal 0 0 1
    outer loop
      vertex 3.8 6.6 2
      vertex 10.8 13.4 2
      vertex 3.8 13.4 2
    endloop
  endfacet
  facet normal 0 0 1
    outer loop
      vertex 0 20 2
      vertex 3.8 14 2
      vertex 16 20 2
    endloop
  endfacet
  facet normal 0 -1 0
    outer loop
      vertex 0 0 0
      vertex 16 0 0
      vertex 16 0 2
    endloop
  endfacet
  facet normal 0 0 -1
    outer loop
      vertex 0 0 0
      vertex 16 20 0
      vertex 16 0 0
    endloop
  endfacet
  facet normal 1 0 0
    outer loop
      vertex 16 0 0
      vertex 16 20 0
      vertex 16 0 2
    endloop
  endfacet
  facet normal 0 0 1
    outer loop
      vertex 0 0 2
      vertex 16 0 2
      vertex 10.8 6 2
    endloop
  endfacet
  facet normal 0 0 1
    outer loop
      vertex 10.8 6.6 2
      vertex 10.8 13.4 2
      vertex 3.8 6.6 2
    endloop
  endfacet
  facet normal 0 0 1
    outer loop
      vertex 16 0 2
      vertex 10.8 6.6 2
      vertex 10.8 6 2
    endloop
  endfacet
  facet normal 0 0 1
    outer loop
      vertex 16 0 2
      vertex 16 20 2
      vertex 10.8 6.6 2
    endloop
  endfacet
  facet normal 0 1 0
    outer loop
      vertex 0 20 2
      vertex 16 20 2
      vertex 16 20 0
    endloop
  endfacet
  facet normal 0 0 1
    outer loop
      vertex 16 20 2
      vertex 3.8 14 2
      vertex 10.8 14 2
    endloop
  endfacet
  facet normal 1 0 0
    outer loop
      vertex 16 0 2
      vertex 16 20 0
      vertex 16 20 2
    endloop
  endfacet
  facet normal 0 0 1
    outer loop
      vertex 16 20 2
      vertex 10.8 13.4 2
      vertex 10.8 6.6 2
    endloop
  endfacet
  facet normal 0 0 1
    outer loop
      vertex 16 20 2
      vertex 10.8 14 2
      vertex 10.8 13.4 2
    endloop
  endfacet
  facet normal 0 -1 0
    outer loop
      vertex 3 6 2.5
      vertex 3 6 2
      vertex 3.8 6 2
    endloop
  endfacet
  facet normal 0 -1 0
    outer loop
      vertex 3 6 2.5
      vertex 3.8 6 2
      vertex 3.8 6 2.5
    endloop
  endfacet
  facet normal 0 0 1
    outer loop
      vertex 3 6 2.5
      vertex 3.8 6 2.5
      vertex 3.7399999999999998 6.6 2.5
    endloop
  endfacet
  facet normal 1 0 0
    outer loop
      vertex 3.8 6.6 2.5
      vertex 3.8 6.6 2
      vertex 3.8 13.4 2
    endloop
  endfacet
  facet normal -1 0 0
    outer loop
      vertex 3 6 2.5
      vertex 3 14 2.5
      vertex 3 6 2
    endloop
  endfacet
  facet normal 0 0 1
    outer loop
      vertex 3 6 2.5
      vertex 3.7399999999999998 6.6 2.5
      vertex 3 14 2.5
    endloop
  endfacet
  facet normal 0 0 1
    outer loop
      vertex 3.7399999999999998 6.6 2.5
      vertex 3.8 6.6 2.5
      vertex 3.8 13.4 2.5
    endloop
  endfacet
  facet normal -1 0 0
    outer loop
      vertex 3 14 2.5
      vertex 3 14 2
      vertex 3 6 2
    endloop
  endfacet
  facet normal 1 0 0
    outer loop
      vertex 3.8 6.6 2.5
      vertex 3.8 13.4 2
      vertex 3.8 13.4 2.5
    endloop
  endfacet
  facet normal 0 0 1
    outer loop
      vertex 3.7399999999999998 6.6 2.5
      vertex 3.8 13.4 2.5
      vertex 3 14 2.5
    endloop
  endfacet
  facet normal 0 1 0
    outer loop
      vertex 3.8 14 2.5
      vertex 3.8 14 2
      vertex 3 14 2
    endloop
  endfacet
  facet normal 0 1 0
    outer loop
      vertex 3 14 2.5
      vertex 3.8 14 2.5
      vertex 3 14 2
    endloop
  endfacet
  facet normal 0 0 1
    outer loop
      vertex 3 14 2.5
      vertex 3.8 13.4 2.5
      vertex 3.8 14 2.5
    endloop
  endfacet
endsolid OpenSCAD_Model
