solid OpenSCAD_Model
  facet normal 0 0 -1
    outer loop
      vertex 0.42857142857142855 3 0
      vertex 0 2.823529411764706 0
      vertex 0 3 0
    endloop
  endfacet
  facet normal 0 0 -1
    outer loop
      vertex 0 16 0
      vertex 0.42857142857142855 3 0
      vertex 0 3 0
    endloop
  endfacet
  facet normal -1 0 0
    outer loop
      vertex 0 16 0.5
      vertex 0 3 0
      vertex 0 3 0.5
    endloop
  endfacet
  facet normal 0 0 -1
    outer loop
      vertex 6 16 0
      vertex 6 3 0
      vertex 0.42857142857142855 3 0
    endloop
  endfacet
  facet normal 1 0 0
    outer loop
      vertex 6 16 0
      vertex 6 3 0.5
      vertex 6 3 0
    endloop
  endfacet
  facet normal 0 0 1
    outer loop
      vertex 6 16 0.5
      vertex 0 3 0.5
      vertex 6 3 0.5
    endloop
  endfacet
  facet normal -1 0 0
    outer loop
      vertex 0 16 0
      vertex 0 3 0
      vertex 0 16 0.5
    endloop
  endfacet
  facet normal 0 0 -1
    outer loop
      vertex 0 16 0
      vertex 6 16 0
      vertex 0.42857142857142855 3 0
    endloop
  endfacet
  facet normal 0 0 1
    outer loop
      vertex 0 16 0.5
      vertex 0 3 0.5
      vertex 6 16 0.5
    endloop
  endfacet
  facet normal 1 0 0
    outer loop
      vertex 6 16 0
      vertex 6 16 0.5
      vertex 6 3 0.5
    endloop
  endfacet
  facet normal 0 1 0
    outer loop
      vertex 0 16 0
      vertex 0 16 0.5
      vertex 6 16 0
    endloop
  endfacet
  facet normal 0 1 0
    outer loop
      vertex 0 16 0.5
      vertex 6 16 0.5
      vertex 6 16 0
    endloop
  endfacet
  facet normal -1 0 0
    outer loop
      vertex 8 2 1
      vertex 8 3 0.5
      vertex 8 2 0.5
    endloop
  endfacet
  facet normal 0 -1 0
    outer loop
      vertex 8 2 1
      vertex 8 2 0.5
      vertex 14 2 1
    endloop
  endfacet
  facet normal 0 -1 0
    outer loop
      vertex 14 2 1
      vertex 8 2 0.5
      vertex 14 2 0.5
    endloop
  endfacet
  facet normal 1 0 0
    outer loop
      vertex 14 2 1
      vertex 14 2 0.5
      vertex 14 3 0.5
    endloop
  endfacet
  facet normal 0 0 -1
    outer loop
      vertex 8 16 0
      vertex 14 3 0
      vertex 8 3 0
    endloop
  endfacet
  facet normal -1 0 0
    outer loop
      vertex 8 16 1
      vertex 8 3 0
      vertex 8 3 0.5
    endloop
  endfacet
  facet normal -1 0 0
    outer loop
      vertex 8 2 1
      vertex 8 16 1
      vertex 8 3 0.5
    endloop
  endfacet
  facet normal 1 0 0
    outer loop
      vertex 14 16 0
      vertex 14 3 0.5
      vertex 14 3 0
    endloop
  endfacet
  facet normal 1 0 0
    outer loop
      vertex 14 2 1
      vertex 14 3 0.5
      vertex 14 16 0
    endloop
  endfacet
  facet normal 0 0 1
    outer loop
      vertex 8 2 1
      vertex 14 2 1
      vertex 8 16 1
    endloop
  endfacet
  facet normal -1 0 0
    outer loop
      vertex 8 16 0
      vertex 8 3 0
      vertex 8 16 1
    endloop
  endfacet
  facet normal 0 0 -1
    outer loop
      vertex 8 16 0
      vertex 14 16 0
      vertex 14 3 0
    endloop
  endfacet
  facet normal 1 0 0
    outer loop
      vertex 14 2 1
      vertex 14 16 0
      vertex 14 16 1
    endloop
  endfacet
  facet normal 0 0 1
    outer loop
      vertex 14 2 1
      vertex 14 16 1
      vertex 8 16 1
    endloop
  endfacet
  facet normal 0 1 0
    outer loop
      vertex 8 16 0
      vertex 8 16 1
      vertex 14 16 0
    endloop
  endfacet
  facet normal 0 1 0
    outer loop
      vertex 14 16 0
      vertex 8 16 1
      vertex 14 16 1
    endloop
  endfacet
  facet normal -1 0 0
    outer loop
      vertex 16 2 2
      vertex 16 3 0.5
      vertex 16 2 0.5
    endloop
  endfacet
  facet normal 0 -1 0
    outer loop
      vertex 16 2 2
      vertex 16 2 0.5
      vertex 22 2 2
    endloop
  endfacet
  facet normal 0 -1 0
    outer loop
      vertex 22 2 2
      vertex 16 2 0.5
      vertex 22 2 0.5
    endloop
  endfacet
  facet normal 1 0 0
    outer loop
      vertex 22 2 2
      vertex 22 2 0.5
      vertex 22 3 0.5
    endloop
  endfacet
  facet normal 0 0 -1
    outer loop
      vertex 16 16 0
      vertex 22 3 0
      vertex 16 3 0
    endloop
  endfacet
  facet normal -1 0 0
    outer loop
      vertex 16 16 2
      vertex 16 3 0
      vertex 16 3 0.5
    endloop
  endfacet
  facet normal 1 0 0
    outer loop
      vertex 22 16 0
      vertex 22 3 0.5
      vertex 22 3 0
    endloop
  endfacet
  facet normal 1 0 0
    outer loop
      vertex 22 2 2
      vertex 22 3 0.5
      vertex 22 16 0
    endloop
  endfacet
  facet normal -1 0 0
    outer loop
      vertex 16 2 2
      vertex 16 16 2
      vertex 16 3 0.5
    endloop
  endfacet
  facet normal 0 0 1
    outer loop
      vertex 16 2 2
      vertex 22 2 2
      vertex 16 16 2
    endloop
  endfacet
  facet normal -1 0 0
    outer loop
      vertex 16 16 0
      vertex 16 3 0
      vertex 16 16 2
    endloop
  endfacet
  facet normal 0 0 -1
    outer loop
      vertex 16 16 0
      vertex 22 16 0
      vertex 22 3 0
    endloop
  endfacet
  facet normal 1 0 0
    outer loop
      vertex 22 2 2
      vertex 22 16 0
      vertex 22 16 2
    endloop
  endfacet
  facet normal 0 1 0
    outer loop
      vertex 16 16 0
      vertex 16 16 2
      vertex 22 16 0
    endloop
  endfacet
  facet normal 0 1 0
    outer loop
      vertex 22 16 0
      vertex 16 16 2
      vertex 22 16 2
    endloop
  endfacet
  facet normal 0 0 1
    outer loop
      vertex 22 2 2
      vertex 22 16 2
      vertex 16 16 2
    endloop
  endfacet
  facet normal 0 0 -1
    outer loop
      vertex 24 2.25 0
      vertex 24 3 0
      vertex 30 2.8125 0
    endloop
  endfacet
  facet normal 0 0 -1
    outer loop
      vertex 30 3 0
      vertex 30 2.8125 0
      vertex 24 3 0
    endloop
  endfacet
  facet normal -1 0 0
    outer loop
      vertex 24 2 4
      vertex 24 3 0.5
      vertex 24 2 0.5
    endloop
  endfacet
  facet normal 0 -1 0
    outer loop
      vertex 30 2 4
      vertex 24 2 0.5
      vertex 30 2 0.5
    endloop
  endfacet
  facet normal 1 0 0
    outer loop
      vertex 30 2 4
      vertex 30 2 0.5
      vertex 30 3 0.5
    endloop
  endfacet
  facet normal 0 0 -1
    outer loop
      vertex 30 16 0
      vertex 30 3 0
      vertex 24 3 0
    endloop
  endfacet
  facet normal 1 0 0
    outer loop
      vertex 30 16 0
      vertex 30 3 0.5
      vertex 30 3 0
    endloop
  endfacet
  facet normal -1 0 0
    outer loop
      vertex 24 16 4
      vertex 24 3 0
      vertex 24 3 0.5
    endloop
  endfacet
  facet normal 1 0 0
    outer loop
      vertex 30 2 4
      vertex 30 3 0.5
      vertex 30 16 0
    endloop
  endfacet
  facet normal 0 -1 0
    outer loop
      vertex 24 2 4
      vertex 24 2 0.5
      vertex 30 2 4
    endloop
  endfacet
  facet normal -1 0 0
    outer loop
      vertex 24 2 4
      vertex 24 16 4
      vertex 24 3 0.5
    endloop
  endfacet
  facet normal 0 0 1
    outer loop
      vertex 24 2 4
      vertex 30 2 4
      vertex 24 16 4
    endloop
  endfacet
  facet normal 0 0 -1
    outer loop
      vertex 24 16 0
      vertex 30 16 0
      vertex 24 3 0
    endloop
  endfacet
  facet normal -1 0 0
    outer loop
      vertex 24 16 0
      vertex 24 3 0
      vertex 24 16 4
    endloop
  endfacet
  facet normal 0 1 0
    outer loop
      vertex 24 16 0
      vertex 24 16 4
      vertex 30 16 0
    endloop
  endfacet
  facet normal 1 0 0
    outer loop
      vertex 30 2 4
      vertex 30 16 0
      vertex 30 16 4
    endloop
  endfacet
  facet normal 0 0 1
    outer loop
      vertex 30 2 4
      vertex 30 16 4
      vertex 24 16 4
    endloop
  endfacet
  facet normal 0 1 0
    outer loop
      vertex 30 16 0
      vertex 24 16 4
      vertex 30 16 4
    endloop
  endfacet
  facet normal 0 0 -1
    outer loop
      vertex 0 0 0
      vertex 0 2.823529411764706 0
      vertex 0.42857142857142855 3 0
    endloop
  endfacet
  facet normal -1 0 0
    outer loop
      vertex 0 0 0
      vertex 0 3 0.5
      vertex 0 2.823529411764706 0
    endloop
  endfacet
  facet normal -1 0 0
    outer loop
      vertex 0 0 0
      vertex 0 0 0.5
      vertex 0 3 0.5
    endloop
  endfacet
  facet normal -1 0 0
    outer loop
      vertex 0 3 0.5
      vertex 0 3 0
      vertex 0 2.823529411764706 0
    endloop
  endfacet
  facet normal 0 0 -1
    outer loop
      vertex 0 0 0
      vertex 0.42857142857142855 3 0
      vertex 6 3 0
    endloop
  endfacet
  facet normal 0 0 1
    outer loop
      vertex 0 0 0.5
      vertex 6 3 0.5
      vertex 0 3 0.5
    endloop
  endfacet
  facet normal 0 0 1
    outer loop
      vertex 0 0 0.5
      vertex 8 2 0.5
      vertex 8 3 0.5
    endloop
  endfacet
  facet normal 0 0 -1
    outer loop
      vertex 0 0 0
      vertex 6 3 0
      vertex 8 3 0
    endloop
  endfacet
  facet normal 0 0 -1
    outer loop
      vertex 0 0 0
      vertex 8 3 0
      vertex 14 3 0
    endloop
  endfacet
  facet normal 0 1 0
    outer loop
      vertex 6 3 0
      vertex 6 3 0.5
      vertex 8 3 0
    endloop
  endfacet
  facet normal 0 1 0
    outer loop
      vertex 8 3 0
      vertex 6 3 0.5
      vertex 8 3 0.5
    endloop
  endfacet
  facet normal 0 0 1
    outer loop
      vertex 8 3 0.5
      vertex 6 3 0.5
      vertex 0 0 0.5
    endloop
  endfacet
  facet normal 0 -1 0
    outer loop
      vertex 0 0 0
      vertex 32 0 0.5
      vertex 0 0 0.5
    endloop
  endfacet
  facet normal 0 0 -1
    outer loop
      vertex 0 0 0
      vertex 14 3 0
      vertex 16 3 0
    endloop
  endfacet
  facet normal 0 0 -1
    outer loop
      vertex 0 0 0
      vertex 22 3 0
      vertex 24 2.25 0
    endloop
  endfacet
  facet normal 0 0 1
    outer loop
      vertex 0 0 0.5
      vertex 32 0 0.5
      vertex 8 2 0.5
    endloop
  endfacet
  facet normal 0 0 -1
    outer loop
      vertex 0 0 0
      vertex 16 3 0
      vertex 22 3 0
    endloop
  endfacet
  facet normal 0 1 0
    outer loop
      vertex 14 3 0
      vertex 14 3 0.5
      vertex 16 3 0
    endloop
  endfacet
  facet normal 0 1 0
    outer loop
      vertex 14 3 0.5
      vertex 16 3 0.5
      vertex 16 3 0
    endloop
  endfacet
  facet normal 0 0 1
    outer loop
      vertex 14 3 0.5
      vertex 14 2 0.5
      vertex 16 2 0.5
    endloop
  endfacet
  facet normal 0 0 1
    outer loop
      vertex 14 3 0.5
      vertex 16 2 0.5
      vertex 16 3 0.5
    endloop
  endfacet
  facet normal 0 0 -1
    outer loop
      vertex 0 0 0
      vertex 24 2.25 0
      vertex 32 0 0
    endloop
  endfacet
  facet normal 0 0 1
    outer loop
      vertex 32 0 0.5
      vertex 14 2 0.5
      vertex 8 2 0.5
    endloop
  endfacet
  facet normal 0 -1 0
    outer loop
      vertex 0 0 0
      vertex 32 0 0
      vertex 32 0 0.5
    endloop
  endfacet
  facet normal 0 0 1
    outer loop
      vertex 32 0 0.5
      vertex 16 2 0.5
      vertex 14 2 0.5
    endloop
  endfacet
  facet normal 0 0 1
    outer loop
      vertex 32 0 0.5
      vertex 22 2 0.5
      vertex 16 2 0.5
    endloop
  endfacet
  facet normal 0 0 -1
    outer loop
      vertex 22 3 0
      vertex 24 3 0
      vertex 24 2.25 0
    endloop
  endfacet
  facet normal 0 1 0
    outer loop
      vertex 22 3 0
      vertex 22 3 0.5
      vertex 24 3 0
    endloop
  endfacet
  facet normal 0 1 0
    outer loop
      vertex 22 3 0.5
      vertex 24 3 0.5
      vertex 24 3 0
    endloop
  endfacet
  facet normal 0 0 1
    outer loop
      vertex 22 3 0.5
      vertex 22 2 0.5
      vertex 24 2 0.5
    endloop
  endfacet
  facet normal 0 0 1
    outer loop
      vertex 22 3 0.5
      vertex 24 2 0.5
      vertex 24 3 0.5
    endloop
  endfacet
  facet normal 0 0 1
    outer loop
      vertex 32 0 0.5
      vertex 24 2 0.5
      vertex 22 2 0.5
    endloop
  endfacet
  facet normal 0 0 -1
    outer loop
      vertex 32 0 0
      vertex 24 2.25 0
      vertex 30 2.8125 0
    endloop
  endfacet
  facet normal 1 0 0
    outer loop
      vertex 32 0 0
      vertex 32 3 0
      vertex 32 0 0.5
    endloop
  endfacet
  facet normal 0 0 -1
    outer loop
      vertex 32 0 0
      vertex 30 2.8125 0
      vertex 32 3 0
    endloop
  endfacet
  facet normal 0 0 1
    outer loop
      vertex 32 0 0.5
      vertex 30 2 0.5
      vertex 24 2 0.5
    endloop
  endfacet
  facet normal 0 0 1
    outer loop
      vertex 32 0 0.5
      vertex 32 3 0.5
      vertex 30 2 0.5
    endloop
  endfacet
  facet normal 0 0 -1
    outer loop
      vertex 32 3 0
      vertex 30 2.8125 0
      vertex 30 3 0
    endloop
  endfacet
  facet normal 1 0 0
    outer loop
      vertex 32 0 0.5
      vertex 32 3 0
      vertex 32 3 0.5
    endloop
  endfacet
  facet normal 0 1 0
    outer loop
      vertex 32 3 0
      vertex 30 3 0
      vertex 30 3 0.5
    endloop
  endfacet
  facet normal 0 1 0
    outer loop
      vertex 32 3 0
      vertex 30 3 0.5
      vertex 32 3 0.5
    endloop
  endfacet
  facet normal 0 0 1
    outer loop
      vertex 32 3 0.5
      vertex 30 3 0.5
      vertex 30 2 0.5
    endloop
  endfacet
endsolid OpenSCAD_Model
