solid OpenSCAD_Model
  facet normal 0 0 -1
    outer loop
      vertex -94.97401828641395 -44.269365344465974 49.9
      vertex -94.96531979884334 -44.25035897591969 49.9
      vertex -94.90098714645752 -44.31816319208776 49.9
    endloop
  endfacet
  facet normal 0 0 -1
    outer loop
      vertex -94.97401828641395 -44.269365344465974 49.9
      vertex -94.96957905061309 -44.251551529608605 49.9
      vertex -94.96531979884334 -44.25035897591969 49.9
    endloop
  endfacet
  facet normal 0 0 -1
    outer loop
      vertex -95.13137084989847 -44.131370849898474 49.9
      vertex -94.97026729472866 -44.14769982637938 49.9
      vertex -94.97401828641395 -44.269365344465974 49.9
    endloop
  endfacet
  facet normal 0 0 -1
    outer loop
      vertex -95.13137084989847 -44.131370849898474 49.9
      vertex -95.11628116234454 -44.07088582887605 49.9
      vertex -94.97026729472866 -44.14769982637938 49.9
    endloop
  endfacet
  facet normal 0 0 -1
    outer loop
      vertex -94.8 -44.3856406460551 49.9
      vertex -94.76825724600572 -44.28240636745331 49.9
      vertex -94.73526641599587 -44.273518789603926 49.9
    endloop
  endfacet
  facet normal 0 0 -1
    outer loop
      vertex -94.61229349178414 -44.47820725201806 49.9
      vertex -94.8 -44.3856406460551 49.9
      vertex -94.73526641599587 -44.273518789603926 49.9
    endloop
  endfacet
  facet normal 0 0 -1
    outer loop
      vertex -94.61229349178414 -44.47820725201806 49.9
      vertex -94.50141378798851 -44.210519967322725 49.9
      vertex -94.41411047216403 -44.54548132206251 49.9
    endloop
  endfacet
  facet normal 0 0 -1
    outer loop
      vertex -94.61229349178414 -44.47820725201806 49.9
      vertex -94.5701881381381 -44.22904746089634 49.9
      vertex -94.50141378798851 -44.210519967322725 49.9
    endloop
  endfacet
  facet normal 0 0 -1
    outer loop
      vertex -94.20884190755208 -44.586311778198095 49.9
      vertex -94.08823161315495 -44.21501507232821 49.9
      vertex -94 -44.6 49.9
    endloop
  endfacet
  facet normal 0 0 -1
    outer loop
      vertex -94 -44.6 49.9
      vertex -93.92138248156105 -44.25696468003135 49.9
      vertex -93.79115809244792 -44.586311778198095 49.9
    endloop
  endfacet
  facet normal 0 0 -1
    outer loop
      vertex -94 -44.6 49.9
      vertex -94.08823161315495 -44.21501507232821 49.9
      vertex -94 -44.2371984755231 49.9
    endloop
  endfacet
  facet normal 0 0 -1
    outer loop
      vertex -93.79115809244792 -44.586311778198095 49.9
      vertex -93.92138248156105 -44.25696468003135 49.9
      vertex -93.83154376429296 -44.27955214518594 49.9
    endloop
  endfacet
  facet normal 0 0 -1
    outer loop
      vertex -93.79115809244792 -44.586311778198095 49.9
      vertex -93.64454738407296 -44.32656722232299 49.9
      vertex -93.58588952783597 -44.54548132206251 49.9
    endloop
  endfacet
  facet normal 0 0 -1
    outer loop
      vertex -93.58588952783597 -44.54548132206251 49.9
      vertex -93.64454738407296 -44.32656722232299 49.9
      vertex -93.59341566298355 -44.33942288192635 49.9
    endloop
  endfacet
  facet normal 0 0 -1
    outer loop
      vertex -93.58588952783597 -44.54548132206251 49.9
      vertex -93.55645866778396 -44.3487146980461 49.9
      vertex -93.38770650821586 -44.47820725201806 49.9
    endloop
  endfacet
  facet normal 0 0 -1
    outer loop
      vertex -93.38770650821586 -44.47820725201806 49.9
      vertex -93.55645866778396 -44.3487146980461 49.9
      vertex -93.40307233829976 -44.387279455845075 49.9
    endloop
  endfacet
  facet normal 0 0 -1
    outer loop
      vertex -95.38564064605511 -42.2 49.9
      vertex -95.27365431782728 -42.09141880184899 49.9
      vertex -95.38564064605511 -42.20108767476023 49.9
    endloop
  endfacet
  facet normal 0 0 -1
    outer loop
      vertex -95.38564064605511 -42.2 49.9
      vertex -95.26936534446598 -42.02598171358605 49.9
      vertex -95.27365431782728 -42.09141880184899 49.9
    endloop
  endfacet
  facet normal 0 0 -1
    outer loop
      vertex -94.61229349178414 -41.52179274798194 49.9
      vertex -94.45916998622761 -41.75577417799557 49.9
      vertex -94.57447740277945 -41.74557067695167 49.9
    endloop
  endfacet
  facet normal 0 0 -1
    outer loop
      vertex -94.61229349178414 -41.52179274798194 49.9
      vertex -94.41411047216403 -41.45451867793749 49.9
      vertex -94.45916998622761 -41.75577417799557 49.9
    endloop
  endfacet
  facet normal 0 0 -1
    outer loop
      vertex -94.41411047216403 -41.45451867793749 49.9
      vertex -94.24303886016979 -41.774899523409566 49.9
      vertex -94.33033452489646 -41.767174769592316 49.9
    endloop
  endfacet
  facet normal 0 0 -1
    outer loop
      vertex -94.20884190755208 -41.413688221801905 49.9
      vertex -94.08904328286448 -41.7885265222686 49.9
      vertex -94.16032391924146 -41.782218931053464 49.9
    endloop
  endfacet
  facet normal 0 0 -1
    outer loop
      vertex -94.41411047216403 -41.45451867793749 49.9
      vertex -94.20884190755208 -41.413688221801905 49.9
      vertex -94.24303886016979 -41.774899523409566 49.9
    endloop
  endfacet
  facet normal 0 0 -1
    outer loop
      vertex -94.20884190755208 -41.413688221801905 49.9
      vertex -94 -41.4 49.9
      vertex -94.08904328286448 -41.7885265222686 49.9
    endloop
  endfacet
  facet normal 0 0 -1
    outer loop
      vertex -93.58588952783597 -41.45451867793749 49.9
      vertex -93.67713053352628 -41.79503474690745 49.9
      vertex -93.77079154327011 -41.80361635771635 49.9
    endloop
  endfacet
  facet normal 0 0 -1
    outer loop
      vertex -93.79115809244792 -41.413688221801905 49.9
      vertex -93.58588952783597 -41.45451867793749 49.9
      vertex -93.77079154327011 -41.80361635771635 49.9
    endloop
  endfacet
  facet normal 0 0 -1
    outer loop
      vertex -93.38770650821586 -41.52179274798194 49.9
      vertex -93.2 -41.6143593539449 49.9
      vertex -93.28348968913883 -41.758967737441495 49.9
    endloop
  endfacet
  facet normal 0 0 -1
    outer loop
      vertex -93.2 -41.6143593539449 49.9
      vertex -93.24333325430563 -41.75528843806009 49.9
      vertex -93.28348968913883 -41.758967737441495 49.9
    endloop
  endfacet
  facet normal 0 0 -1
    outer loop
      vertex -93.2 -41.6143593539449 49.9
      vertex -93.02598171358605 -41.730634655534026 49.9
      vertex -93.21575226573871 -41.75276135330782 49.9
    endloop
  endfacet
  facet normal 0 0 -1
    outer loop
      vertex -93.02598171358605 -41.730634655534026 49.9
      vertex -93.02824556236084 -41.73558121018476 49.9
      vertex -93.21575226573871 -41.75276135330782 49.9
    endloop
  endfacet
  facet normal 0 0 -1
    outer loop
      vertex 37.6143593539449 -42.2 49.9
      vertex 37.72634568217273 -42.09141880184899 49.9
      vertex 37.6143593539449 -42.20108767476023 49.9
    endloop
  endfacet
  facet normal 0 0 -1
    outer loop
      vertex 37.6143593539449 -42.2 49.9
      vertex 37.730634655534026 -42.02598171358605 49.9
      vertex 37.72634568217273 -42.09141880184899 49.9
    endloop
  endfacet
  facet normal 0 0 -1
    outer loop
      vertex 38.02598171358605 -44.269365344465974 49.9
      vertex 38.03468020115666 -44.25035897591969 49.9
      vertex 38.09901285354248 -44.31816319208776 49.9
    endloop
  endfacet
  facet normal 0 0 -1
    outer loop
      vertex 38.02598171358605 -44.269365344465974 49.9
      vertex 38.0304209493869 -44.251551529608605 49.9
      vertex 38.03468020115666 -44.25035897591969 49.9
    endloop
  endfacet
  facet normal 0 0 -1
    outer loop
      vertex 38.2 -44.3856406460551 49.9
      vertex 38.20930513998675 -44.3553783249599 49.9
      vertex 38.21892253775462 -44.352865849255956 49.9
    endloop
  endfacet
  facet normal 0 0 -1
    outer loop
      vertex 38.2 -44.3856406460551 49.9
      vertex 38.21892253775462 -44.352865849255956 49.9
      vertex 38.38770650821586 -44.47820725201806 49.9
    endloop
  endfacet
  facet normal 0 0 -1
    outer loop
      vertex 37.868629150101526 -44.131370849898474 49.9
      vertex 38.02973270527134 -44.14769982637938 49.9
      vertex 38.02598171358605 -44.269365344465974 49.9
    endloop
  endfacet
  facet normal 0 0 -1
    outer loop
      vertex 37.868629150101526 -44.131370849898474 49.9
      vertex 37.883718837655465 -44.07088582887605 49.9
      vertex 38.02973270527134 -44.14769982637938 49.9
    endloop
  endfacet
  facet normal 0 0 -1
    outer loop
      vertex 38.38770650821586 -44.47820725201806 49.9
      vertex 38.42796212031615 -44.381021607323895 49.9
      vertex 38.58588952783597 -44.54548132206251 49.9
    endloop
  endfacet
  facet normal 0 0 -1
    outer loop
      vertex 38.38770650821586 -44.47820725201806 49.9
      vertex 38.403072338299765 -44.387279455845075 49.9
      vertex 38.42796212031615 -44.381021607323895 49.9
    endloop
  endfacet
  facet normal 0 0 -1
    outer loop
      vertex 38.58588952783597 -44.54548132206251 49.9
      vertex 38.59341566298354 -44.33942288192635 49.9
      vertex 38.71064034664777 -44.309949971603935 49.9
    endloop
  endfacet
  facet normal 0 0 -1
    outer loop
      vertex 38.58588952783597 -44.54548132206251 49.9
      vertex 38.71064034664777 -44.309949971603935 49.9
      vertex 38.791158092447915 -44.586311778198095 49.9
    endloop
  endfacet
  facet normal 0 0 -1
    outer loop
      vertex 38.791158092447915 -44.586311778198095 49.9
      vertex 38.92138248156105 -44.25696468003135 49.9
      vertex 39 -44.6 49.9
    endloop
  endfacet
  facet normal 0 0 -1
    outer loop
      vertex 38.791158092447915 -44.586311778198095 49.9
      vertex 38.83154376429296 -44.27955214518594 49.9
      vertex 38.92138248156105 -44.25696468003135 49.9
    endloop
  endfacet
  facet normal 0 0 -1
    outer loop
      vertex 39 -44.6 49.9
      vertex 39.088231613154946 -44.21501507232821 49.9
      vertex 39.208841907552085 -44.586311778198095 49.9
    endloop
  endfacet
  facet normal 0 0 -1
    outer loop
      vertex 39 -44.6 49.9
      vertex 39 -44.2371984755231 49.9
      vertex 39.088231613154946 -44.21501507232821 49.9
    endloop
  endfacet
  facet normal 0 0 -1
    outer loop
      vertex 39.41411047216403 -44.54548132206251 49.9
      vertex 39.46565242517688 -44.20088602068077 49.9
      vertex 39.61229349178414 -44.47820725201806 49.9
    endloop
  endfacet
  facet normal 0 0 -1
    outer loop
      vertex 39.61229349178414 -44.47820725201806 49.9
      vertex 39.46565242517688 -44.20088602068077 49.9
      vertex 39.5701881381381 -44.22904746089634 49.9
    endloop
  endfacet
  facet normal 0 0 -1
    outer loop
      vertex 39.61229349178414 -44.47820725201806 49.9
      vertex 39.64642811810373 -44.24958616080107 49.9
      vertex 39.8 -44.3856406460551 49.9
    endloop
  endfacet
  facet normal 0 0 -1
    outer loop
      vertex 39.8 -44.3856406460551 49.9
      vertex 39.64642811810373 -44.24958616080107 49.9
      vertex 39.78888276473895 -44.287962787324254 49.9
    endloop
  endfacet
  facet normal 0 0 -1
    outer loop
      vertex 38.38770650821586 -41.52179274798194 49.9
      vertex 38.5368797745022 -41.782184389721564 49.9
      vertex 38.43005591714537 -41.7723967441319 49.9
    endloop
  endfacet
  facet normal 0 0 -1
    outer loop
      vertex 38.38770650821586 -41.52179274798194 49.9
      vertex 38.58588952783597 -41.45451867793749 49.9
      vertex 38.5368797745022 -41.782184389721564 49.9
    endloop
  endfacet
  facet normal 0 0 -1
    outer loop
      vertex 38.58588952783597 -41.45451867793749 49.9
      vertex 38.75438474935113 -41.802113099098705 49.9
      vertex 38.67713053352629 -41.79503474690744 49.9
    endloop
  endfacet
  facet normal 0 0 -1
    outer loop
      vertex 38.58588952783597 -41.45451867793749 49.9
      vertex 38.791158092447915 -41.413688221801905 49.9
      vertex 38.75438474935113 -41.802113099098705 49.9
    endloop
  endfacet
  facet normal 0 0 -1
    outer loop
      vertex 39.208841907552085 -41.413688221801905 49.9
      vertex 39.16032391924146 -41.782218931053464 49.9
      vertex 39.08904328286447 -41.7885265222686 49.9
    endloop
  endfacet
  facet normal 0 0 -1
    outer loop
      vertex 39 -41.4 49.9
      vertex 39.208841907552085 -41.413688221801905 49.9
      vertex 39.08904328286447 -41.7885265222686 49.9
    endloop
  endfacet
  facet normal 0 0 -1
    outer loop
      vertex 39.41411047216403 -41.45451867793749 49.9
      vertex 39.33033452489645 -41.767174769592316 49.9
      vertex 39.244486371413814 -41.774771433795465 49.9
    endloop
  endfacet
  facet normal 0 0 -1
    outer loop
      vertex 39.208841907552085 -41.413688221801905 49.9
      vertex 39.41411047216403 -41.45451867793749 49.9
      vertex 39.244486371413814 -41.774771433795465 49.9
    endloop
  endfacet
  facet normal 0 0 -1
    outer loop
      vertex 39.61229349178414 -41.52179274798194 49.9
      vertex 39.57447740277945 -41.74557067695167 49.9
      vertex 39.51751371614389 -41.75061136777132 49.9
    endloop
  endfacet
  facet normal 0 0 -1
    outer loop
      vertex 39.41411047216403 -41.45451867793749 49.9
      vertex 39.61229349178414 -41.52179274798194 49.9
      vertex 39.51751371614389 -41.75061136777132 49.9
    endloop
  endfacet
  facet normal 0 0 -1
    outer loop
      vertex 39.8 -41.6143593539449 49.9
      vertex 39.764834208163386 -41.728726089495545 49.9
      vertex 39.732308619564876 -41.73160426409301 49.9
    endloop
  endfacet
  facet normal 0 0 -1
    outer loop
      vertex 39.8 -41.6143593539449 49.9
      vertex 39.732308619564876 -41.73160426409301 49.9
      vertex 39.61229349178414 -41.52179274798194 49.9
    endloop
  endfacet
  facet normal 0 0 -1
    outer loop
      vertex -94.8 43.614359353944906 49.9
      vertex -94.76483420816338 43.728726089495545 49.9
      vertex -94.73230861956488 43.73160426409301 49.9
    endloop
  endfacet
  facet normal 0 0 -1
    outer loop
      vertex -94.61229349178414 43.52179274798195 49.9
      vertex -94.8 43.614359353944906 49.9
      vertex -94.73230861956488 43.73160426409301 49.9
    endloop
  endfacet
  facet normal 0 0 -1
    outer loop
      vertex -94.61229349178414 43.52179274798195 49.9
      vertex -94.5175137161439 43.75061136777132 49.9
      vertex -94.41411047216403 43.4545186779375 49.9
    endloop
  endfacet
  facet normal 0 0 -1
    outer loop
      vertex -94.61229349178414 43.52179274798195 49.9
      vertex -94.57447740277945 43.74557067695167 49.9
      vertex -94.5175137161439 43.75061136777132 49.9
    endloop
  endfacet
  facet normal 0 0 -1
    outer loop
      vertex -94.41411047216403 43.4545186779375 49.9
      vertex -94.33033452489646 43.767174769592316 49.9
      vertex -94.24448637141381 43.774771433795465 49.9
    endloop
  endfacet
  facet normal 0 0 -1
    outer loop
      vertex -94.41411047216403 43.4545186779375 49.9
      vertex -94.24448637141381 43.774771433795465 49.9
      vertex -94.20884190755208 43.413688221801905 49.9
    endloop
  endfacet
  facet normal 0 0 -1
    outer loop
      vertex -94.20884190755208 43.413688221801905 49.9
      vertex -94.08904328286448 43.7885265222686 49.9
      vertex -94 43.400000000000006 49.9
    endloop
  endfacet
  facet normal 0 0 -1
    outer loop
      vertex -94.20884190755208 43.413688221801905 49.9
      vertex -94.16032391924146 43.782218931053464 49.9
      vertex -94.08904328286448 43.7885265222686 49.9
    endloop
  endfacet
  facet normal 0 0 -1
    outer loop
      vertex -93.79115809244792 43.413688221801905 49.9
      vertex -93.75438474935112 43.802113099098705 49.9
      vertex -93.58588952783597 43.4545186779375 49.9
    endloop
  endfacet
  facet normal 0 0 -1
    outer loop
      vertex -93.58588952783597 43.4545186779375 49.9
      vertex -93.75438474935112 43.802113099098705 49.9
      vertex -93.67713053352628 43.79503474690745 49.9
    endloop
  endfacet
  facet normal 0 0 -1
    outer loop
      vertex -93.58588952783597 43.4545186779375 49.9
      vertex -93.5368797745022 43.78218438972157 49.9
      vertex -93.38770650821586 43.52179274798195 49.9
    endloop
  endfacet
  facet normal 0 0 -1
    outer loop
      vertex -93.38770650821586 43.52179274798195 49.9
      vertex -93.5368797745022 43.78218438972157 49.9
      vertex -93.43005591714537 43.7723967441319 49.9
    endloop
  endfacet
  facet normal 0 0 -1
    outer loop
      vertex -95.13137084989847 43.868629150101526 49.9
      vertex -94.97070928942041 43.83796382801527 49.9
      vertex -94.97401828641395 43.73063465553403 49.9
    endloop
  endfacet
  facet normal 0 0 -1
    outer loop
      vertex -95.13137084989847 43.868629150101526 49.9
      vertex -95.12331649324341 43.90091397573904 49.9
      vertex -94.97070928942041 43.83796382801527 49.9
    endloop
  endfacet
  facet normal 0 0 -1
    outer loop
      vertex -94.97401828641395 46.26936534446597 49.9
      vertex -94.8092571283397 46.2934515471578 49.9
      vertex -94.97206552957682 46.25224772223137 49.9
    endloop
  endfacet
  facet normal 0 0 -1
    outer loop
      vertex -94.97401828641395 46.26936534446597 49.9
      vertex -94.8 46.385640646055094 49.9
      vertex -94.8092571283397 46.2934515471578 49.9
    endloop
  endfacet
  facet normal 0 0 -1
    outer loop
      vertex -94.8 46.385640646055094 49.9
      vertex -94.64642811810373 46.24958616080107 49.9
      vertex -94.78888276473894 46.287962787324254 49.9
    endloop
  endfacet
  facet normal 0 0 -1
    outer loop
      vertex -94.8 46.385640646055094 49.9
      vertex -94.61229349178414 46.47820725201805 49.9
      vertex -94.64642811810373 46.24958616080107 49.9
    endloop
  endfacet
  facet normal 0 0 -1
    outer loop
      vertex -94.61229349178414 46.47820725201805 49.9
      vertex -94.46565242517687 46.20088602068077 49.9
      vertex -94.5701881381381 46.22904746089634 49.9
    endloop
  endfacet
  facet normal 0 0 -1
    outer loop
      vertex -94.61229349178414 46.47820725201805 49.9
      vertex -94.41411047216403 46.5454813220625 49.9
      vertex -94.46565242517687 46.20088602068077 49.9
    endloop
  endfacet
  facet normal 0 0 -1
    outer loop
      vertex -94.20884190755208 46.586311778198095 49.9
      vertex -94 46.599999999999994 49.9
      vertex -94.08823161315495 46.21501507232821 49.9
    endloop
  endfacet
  facet normal 0 0 -1
    outer loop
      vertex -94 46.599999999999994 49.9
      vertex -94 46.2371984755231 49.9
      vertex -94.08823161315495 46.21501507232821 49.9
    endloop
  endfacet
  facet normal 0 0 -1
    outer loop
      vertex -93.79115809244792 46.586311778198095 49.9
      vertex -93.83154376429296 46.27955214518594 49.9
      vertex -93.92138248156105 46.25696468003135 49.9
    endloop
  endfacet
  facet normal 0 0 -1
    outer loop
      vertex -94 46.599999999999994 49.9
      vertex -93.79115809244792 46.586311778198095 49.9
      vertex -93.92138248156105 46.25696468003135 49.9
    endloop
  endfacet
  facet normal 0 0 -1
    outer loop
      vertex -93.58588952783597 46.5454813220625 49.9
      vertex -93.59341566298355 46.33942288192635 49.9
      vertex -93.71064034664778 46.309949971603935 49.9
    endloop
  endfacet
  facet normal 0 0 -1
    outer loop
      vertex -93.79115809244792 46.586311778198095 49.9
      vertex -93.58588952783597 46.5454813220625 49.9
      vertex -93.71064034664778 46.309949971603935 49.9
    endloop
  endfacet
  facet normal 0 0 -1
    outer loop
      vertex -93.38770650821586 46.47820725201805 49.9
      vertex -93.40307233829976 46.387279455845075 49.9
      vertex -93.42796212031615 46.3810216073239 49.9
    endloop
  endfacet
  facet normal 0 0 -1
    outer loop
      vertex -93.58588952783597 46.5454813220625 49.9
      vertex -93.38770650821586 46.47820725201805 49.9
      vertex -93.42796212031615 46.3810216073239 49.9
    endloop
  endfacet
  facet normal 0 0 -1
    outer loop
      vertex -93.02598171358605 46.26936534446597 49.9
      vertex -93.21111723526106 46.287962787324254 49.9
      vertex -93.2 46.385640646055094 49.9
    endloop
  endfacet
  facet normal 0 0 -1
    outer loop
      vertex -93.2 46.385640646055094 49.9
      vertex -93.20930513998675 46.3553783249599 49.9
      vertex -93.21892253775462 46.352865849255956 49.9
    endloop
  endfacet
  facet normal 0 0 -1
    outer loop
      vertex -93.38770650821586 46.47820725201805 49.9
      vertex -93.2 46.385640646055094 49.9
      vertex -93.21892253775462 46.352865849255956 49.9
    endloop
  endfacet
  facet normal 0 0 -1
    outer loop
      vertex -93.02598171358605 46.26936534446597 49.9
      vertex -93.0304209493869 46.251551529608605 49.9
      vertex -93.03468020115666 46.250358975919696 49.9
    endloop
  endfacet
  facet normal 0 0 -1
    outer loop
      vertex -93.02598171358605 46.26936534446597 49.9
      vertex -93.03468020115666 46.250358975919696 49.9
      vertex -93.21111723526106 46.287962787324254 49.9
    endloop
  endfacet
  facet normal 0 0 -1
    outer loop
      vertex 38.2 43.614359353944906 49.9
      vertex 38.235165791836614 43.728726089495545 49.9
      vertex 38.267691380435124 43.73160426409301 49.9
    endloop
  endfacet
  facet normal 0 0 -1
    outer loop
      vertex 38.2 43.614359353944906 49.9
      vertex 38.267691380435124 43.73160426409301 49.9
      vertex 38.38770650821586 43.52179274798195 49.9
    endloop
  endfacet
  facet normal 0 0 -1
    outer loop
      vertex 38.38770650821586 43.52179274798195 49.9
      vertex 38.48248628385611 43.75061136777132 49.9
      vertex 38.58588952783597 43.4545186779375 49.9
    endloop
  endfacet
  facet normal 0 0 -1
    outer loop
      vertex 38.38770650821586 43.52179274798195 49.9
      vertex 38.42552259722055 43.74557067695167 49.9
      vertex 38.48248628385611 43.75061136777132 49.9
    endloop
  endfacet
  facet normal 0 0 -1
    outer loop
      vertex 38.58588952783597 43.4545186779375 49.9
      vertex 38.75551362858618 43.774771433795465 49.9
      vertex 38.791158092447915 43.413688221801905 49.9
    endloop
  endfacet
  facet normal 0 0 -1
    outer loop
      vertex 38.791158092447915 43.413688221801905 49.9
      vertex 38.91095671713553 43.7885265222686 49.9
      vertex 39 43.400000000000006 49.9
    endloop
  endfacet
  facet normal 0 0 -1
    outer loop
      vertex 38.58588952783597 43.4545186779375 49.9
      vertex 38.66966547510355 43.767174769592316 49.9
      vertex 38.75551362858618 43.774771433795465 49.9
    endloop
  endfacet
  facet normal 0 0 -1
    outer loop
      vertex 38.791158092447915 43.413688221801905 49.9
      vertex 38.83967608075854 43.782218931053464 49.9
      vertex 38.91095671713553 43.7885265222686 49.9
    endloop
  endfacet
  facet normal 0 0 -1
    outer loop
      vertex 39.208841907552085 43.413688221801905 49.9
      vertex 39.24561525064887 43.802113099098705 49.9
      vertex 39.41411047216403 43.4545186779375 49.9
    endloop
  endfacet
  facet normal 0 0 -1
    outer loop
      vertex 39.41411047216403 43.4545186779375 49.9
      vertex 39.24561525064887 43.802113099098705 49.9
      vertex 39.32286946647371 43.79503474690744 49.9
    endloop
  endfacet
  facet normal 0 0 -1
    outer loop
      vertex 39.41411047216403 43.4545186779375 49.9
      vertex 39.4631202254978 43.782184389721564 49.9
      vertex 39.61229349178414 43.52179274798195 49.9
    endloop
  endfacet
  facet normal 0 0 -1
    outer loop
      vertex 39.61229349178414 43.52179274798195 49.9
      vertex 39.4631202254978 43.782184389721564 49.9
      vertex 39.56994408285463 43.7723967441319 49.9
    endloop
  endfacet
  facet normal 0 0 -1
    outer loop
      vertex 37.868629150101526 43.868629150101526 49.9
      vertex 38.029290710579595 43.83796382801527 49.9
      vertex 38.02598171358605 43.73063465553403 49.9
    endloop
  endfacet
  facet normal 0 0 -1
    outer loop
      vertex 37.868629150101526 43.868629150101526 49.9
      vertex 37.876683506756585 43.90091397573904 49.9
      vertex 38.029290710579595 43.83796382801527 49.9
    endloop
  endfacet
  facet normal 0 0 -1
    outer loop
      vertex 38.02598171358605 46.26936534446597 49.9
      vertex 38.1907428716603 46.2934515471578 49.9
      vertex 38.027934470423176 46.25224772223137 49.9
    endloop
  endfacet
  facet normal 0 0 -1
    outer loop
      vertex 38.02598171358605 46.26936534446597 49.9
      vertex 38.2 46.385640646055094 49.9
      vertex 38.1907428716603 46.2934515471578 49.9
    endloop
  endfacet
  facet normal 0 0 -1
    outer loop
      vertex 38.2 46.385640646055094 49.9
      vertex 38.35357188189627 46.24958616080107 49.9
      vertex 38.21111723526105 46.287962787324254 49.9
    endloop
  endfacet
  facet normal 0 0 -1
    outer loop
      vertex 38.2 46.385640646055094 49.9
      vertex 38.38770650821586 46.47820725201805 49.9
      vertex 38.35357188189627 46.24958616080107 49.9
    endloop
  endfacet
  facet normal 0 0 -1
    outer loop
      vertex 38.38770650821586 46.47820725201805 49.9
      vertex 38.53434757482312 46.20088602068077 49.9
      vertex 38.4298118618619 46.22904746089634 49.9
    endloop
  endfacet
  facet normal 0 0 -1
    outer loop
      vertex 38.38770650821586 46.47820725201805 49.9
      vertex 38.58588952783597 46.5454813220625 49.9
      vertex 38.53434757482312 46.20088602068077 49.9
    endloop
  endfacet
  facet normal 0 0 -1
    outer loop
      vertex 38.791158092447915 46.586311778198095 49.9
      vertex 39 46.599999999999994 49.9
      vertex 38.911768386845054 46.21501507232821 49.9
    endloop
  endfacet
  facet normal 0 0 -1
    outer loop
      vertex 39 46.599999999999994 49.9
      vertex 39 46.2371984755231 49.9
      vertex 38.911768386845054 46.21501507232821 49.9
    endloop
  endfacet
  facet normal 0 0 -1
    outer loop
      vertex 39.208841907552085 46.586311778198095 49.9
      vertex 39.16845623570704 46.27955214518594 49.9
      vertex 39.07861751843895 46.25696468003135 49.9
    endloop
  endfacet
  facet normal 0 0 -1
    outer loop
      vertex 39 46.599999999999994 49.9
      vertex 39.208841907552085 46.586311778198095 49.9
      vertex 39.07861751843895 46.25696468003135 49.9
    endloop
  endfacet
  facet normal 0 0 -1
    outer loop
      vertex 39.41411047216403 46.5454813220625 49.9
      vertex 39.40658433701646 46.33942288192635 49.9
      vertex 39.28935965335223 46.309949971603935 49.9
    endloop
  endfacet
  facet normal 0 0 -1
    outer loop
      vertex 39.208841907552085 46.586311778198095 49.9
      vertex 39.41411047216403 46.5454813220625 49.9
      vertex 39.28935965335223 46.309949971603935 49.9
    endloop
  endfacet
  facet normal 0 0 -1
    outer loop
      vertex 39.61229349178414 46.47820725201805 49.9
      vertex 39.596927661700235 46.387279455845075 49.9
      vertex 39.572037879683855 46.3810216073239 49.9
    endloop
  endfacet
  facet normal 0 0 -1
    outer loop
      vertex 39.41411047216403 46.5454813220625 49.9
      vertex 39.61229349178414 46.47820725201805 49.9
      vertex 39.572037879683855 46.3810216073239 49.9
    endloop
  endfacet
  facet normal 0 0 -1
    outer loop
      vertex 39.8 46.385640646055094 49.9
      vertex 39.79069486001325 46.3553783249599 49.9
      vertex 39.78107746224538 46.352865849255956 49.9
    endloop
  endfacet
  facet normal 0 0 -1
    outer loop
      vertex 39.8 46.385640646055094 49.9
      vertex 39.78107746224538 46.352865849255956 49.9
      vertex 39.77488476861684 46.398026107535415 49.9
    endloop
  endfacet
  facet normal 0 0 -1
    outer loop
      vertex 39.97401828641395 46.26936534446597 49.9
      vertex 39.9695790506131 46.251551529608605 49.9
      vertex 39.965319798843346 46.250358975919696 49.9
    endloop
  endfacet
  facet normal 0 0 -1
    outer loop
      vertex 39.97401828641395 46.26936534446597 49.9
      vertex 39.78888276473895 46.287962787324254 49.9
      vertex 39.8 46.385640646055094 49.9
    endloop
  endfacet
  facet normal 0 0 -1
    outer loop
      vertex 39.97401828641395 46.26936534446597 49.9
      vertex 39.965319798843346 46.250358975919696 49.9
      vertex 39.78888276473895 46.287962787324254 49.9
    endloop
  endfacet
  facet normal 0 0 1
    outer loop
      vertex -94.96957905061309 -44.251551529608605 49.9
      vertex -94.97401828641395 -44.269365344465974 49.9
      vertex -94.90098714645752 -44.31816319208776 49.9
    endloop
  endfacet
  facet normal 0 0 1
    outer loop
      vertex -94.96531979884334 -44.25035897591969 49.9
      vertex -94.96957905061309 -44.251551529608605 49.9
      vertex -94.90098714645752 -44.31816319208776 49.9
    endloop
  endfacet
  facet normal 0 0 1
    outer loop
      vertex -95.11628116234454 -44.07088582887605 49.9
      vertex -95.13137084989847 -44.131370849898474 49.9
      vertex -94.97401828641395 -44.269365344465974 49.9
    endloop
  endfacet
  facet normal 0 0 1
    outer loop
      vertex -95.11628116234454 -44.07088582887605 49.9
      vertex -94.97401828641395 -44.269365344465974 49.9
      vertex -94.97026729472866 -44.14769982637938 49.9
    endloop
  endfacet
  facet normal 0 0 1
    outer loop
      vertex -94.76825724600572 -44.28240636745331 49.9
      vertex -94.8 -44.3856406460551 49.9
      vertex -94.61229349178414 -44.47820725201806 49.9
    endloop
  endfacet
  facet normal 0 0 1
    outer loop
      vertex -94.73526641599587 -44.273518789603926 49.9
      vertex -94.76825724600572 -44.28240636745331 49.9
      vertex -94.61229349178414 -44.47820725201806 49.9
    endloop
  endfacet
  facet normal 0 0 1
    outer loop
      vertex -94.5701881381381 -44.22904746089634 49.9
      vertex -94.61229349178414 -44.47820725201806 49.9
      vertex -94.41411047216403 -44.54548132206251 49.9
    endloop
  endfacet
  facet normal 0 0 1
    outer loop
      vertex -94.50141378798851 -44.210519967322725 49.9
      vertex -94.5701881381381 -44.22904746089634 49.9
      vertex -94.41411047216403 -44.54548132206251 49.9
    endloop
  endfacet
  facet normal 0 0 1
    outer loop
      vertex -94 -44.2371984755231 49.9
      vertex -94.20884190755208 -44.586311778198095 49.9
      vertex -94 -44.6 49.9
    endloop
  endfacet
  facet normal 0 0 1
    outer loop
      vertex -94.08823161315495 -44.21501507232821 49.9
      vertex -94.20884190755208 -44.586311778198095 49.9
      vertex -94 -44.2371984755231 49.9
    endloop
  endfacet
  facet normal 0 0 1
    outer loop
      vertex -93.83154376429296 -44.27955214518594 49.9
      vertex -94 -44.6 49.9
      vertex -93.79115809244792 -44.586311778198095 49.9
    endloop
  endfacet
  facet normal 0 0 1
    outer loop
      vertex -93.92138248156105 -44.25696468003135 49.9
      vertex -94 -44.6 49.9
      vertex -93.83154376429296 -44.27955214518594 49.9
    endloop
  endfacet
  facet normal 0 0 1
    outer loop
      vertex -93.59341566298355 -44.33942288192635 49.9
      vertex -93.79115809244792 -44.586311778198095 49.9
      vertex -93.58588952783597 -44.54548132206251 49.9
    endloop
  endfacet
  facet normal 0 0 1
    outer loop
      vertex -93.64454738407296 -44.32656722232299 49.9
      vertex -93.79115809244792 -44.586311778198095 49.9
      vertex -93.59341566298355 -44.33942288192635 49.9
    endloop
  endfacet
  facet normal 0 0 1
    outer loop
      vertex -93.40307233829976 -44.387279455845075 49.9
      vertex -93.58588952783597 -44.54548132206251 49.9
      vertex -93.38770650821586 -44.47820725201806 49.9
    endloop
  endfacet
  facet normal 0 0 1
    outer loop
      vertex -93.55645866778396 -44.3487146980461 49.9
      vertex -93.58588952783597 -44.54548132206251 49.9
      vertex -93.40307233829976 -44.387279455845075 49.9
    endloop
  endfacet
  facet normal 0 0 1
    outer loop
      vertex -95.38564064605511 -42.20108767476023 49.9
      vertex -95.26936534446598 -42.02598171358605 49.9
      vertex -95.38564064605511 -42.2 49.9
    endloop
  endfacet
  facet normal 0 0 1
    outer loop
      vertex -95.38564064605511 -42.20108767476023 49.9
      vertex -95.27365431782728 -42.09141880184899 49.9
      vertex -95.26936534446598 -42.02598171358605 49.9
    endloop
  endfacet
  facet normal 0 0 1
    outer loop
      vertex -94.57447740277945 -41.74557067695167 49.9
      vertex -94.41411047216403 -41.45451867793749 49.9
      vertex -94.61229349178414 -41.52179274798194 49.9
    endloop
  endfacet
  facet normal 0 0 1
    outer loop
      vertex -94.45916998622761 -41.75577417799557 49.9
      vertex -94.41411047216403 -41.45451867793749 49.9
      vertex -94.57447740277945 -41.74557067695167 49.9
    endloop
  endfacet
  facet normal 0 0 1
    outer loop
      vertex -94.24303886016979 -41.774899523409566 49.9
      vertex -94.20884190755208 -41.413688221801905 49.9
      vertex -94.33033452489646 -41.767174769592316 49.9
    endloop
  endfacet
  facet normal 0 0 1
    outer loop
      vertex -94.08904328286448 -41.7885265222686 49.9
      vertex -94 -41.4 49.9
      vertex -94.16032391924146 -41.782218931053464 49.9
    endloop
  endfacet
  facet normal 0 0 1
    outer loop
      vertex -94.33033452489646 -41.767174769592316 49.9
      vertex -94.20884190755208 -41.413688221801905 49.9
      vertex -94.41411047216403 -41.45451867793749 49.9
    endloop
  endfacet
  facet normal 0 0 1
    outer loop
      vertex -94.16032391924146 -41.782218931053464 49.9
      vertex -94 -41.4 49.9
      vertex -94.20884190755208 -41.413688221801905 49.9
    endloop
  endfacet
  facet normal 0 0 1
    outer loop
      vertex -93.67713053352628 -41.79503474690745 49.9
      vertex -93.79115809244792 -41.413688221801905 49.9
      vertex -93.77079154327011 -41.80361635771635 49.9
    endloop
  endfacet
  facet normal 0 0 1
    outer loop
      vertex -93.67713053352628 -41.79503474690745 49.9
      vertex -93.58588952783597 -41.45451867793749 49.9
      vertex -93.79115809244792 -41.413688221801905 49.9
    endloop
  endfacet
  facet normal 0 0 1
    outer loop
      vertex -93.28348968913883 -41.758967737441495 49.9
      vertex -93.24333325430563 -41.75528843806009 49.9
      vertex -93.38770650821586 -41.52179274798194 49.9
    endloop
  endfacet
  facet normal 0 0 1
    outer loop
      vertex -93.24333325430563 -41.75528843806009 49.9
      vertex -93.2 -41.6143593539449 49.9
      vertex -93.38770650821586 -41.52179274798194 49.9
    endloop
  endfacet
  facet normal 0 0 1
    outer loop
      vertex -93.02824556236084 -41.73558121018476 49.9
      vertex -93.2 -41.6143593539449 49.9
      vertex -93.21575226573871 -41.75276135330782 49.9
    endloop
  endfacet
  facet normal 0 0 1
    outer loop
      vertex -93.02824556236084 -41.73558121018476 49.9
      vertex -93.02598171358605 -41.730634655534026 49.9
      vertex -93.2 -41.6143593539449 49.9
    endloop
  endfacet
  facet normal 0 0 1
    outer loop
      vertex 37.6143593539449 -42.20108767476023 49.9
      vertex 37.730634655534026 -42.02598171358605 49.9
      vertex 37.6143593539449 -42.2 49.9
    endloop
  endfacet
  facet normal 0 0 1
    outer loop
      vertex 37.6143593539449 -42.20108767476023 49.9
      vertex 37.72634568217273 -42.09141880184899 49.9
      vertex 37.730634655534026 -42.02598171358605 49.9
    endloop
  endfacet
  facet normal 0 0 1
    outer loop
      vertex 38.0304209493869 -44.251551529608605 49.9
      vertex 38.02598171358605 -44.269365344465974 49.9
      vertex 38.09901285354248 -44.31816319208776 49.9
    endloop
  endfacet
  facet normal 0 0 1
    outer loop
      vertex 38.03468020115666 -44.25035897591969 49.9
      vertex 38.0304209493869 -44.251551529608605 49.9
      vertex 38.09901285354248 -44.31816319208776 49.9
    endloop
  endfacet
  facet normal 0 0 1
    outer loop
      vertex 38.21892253775462 -44.352865849255956 49.9
      vertex 38.20930513998675 -44.3553783249599 49.9
      vertex 38.38770650821586 -44.47820725201806 49.9
    endloop
  endfacet
  facet normal 0 0 1
    outer loop
      vertex 38.20930513998675 -44.3553783249599 49.9
      vertex 38.2 -44.3856406460551 49.9
      vertex 38.38770650821586 -44.47820725201806 49.9
    endloop
  endfacet
  facet normal 0 0 1
    outer loop
      vertex 37.883718837655465 -44.07088582887605 49.9
      vertex 37.868629150101526 -44.131370849898474 49.9
      vertex 38.02598171358605 -44.269365344465974 49.9
    endloop
  endfacet
  facet normal 0 0 1
    outer loop
      vertex 37.883718837655465 -44.07088582887605 49.9
      vertex 38.02598171358605 -44.269365344465974 49.9
      vertex 38.02973270527134 -44.14769982637938 49.9
    endloop
  endfacet
  facet normal 0 0 1
    outer loop
      vertex 38.38770650821586 -44.47820725201806 49.9
      vertex 38.58588952783597 -44.54548132206251 49.9
      vertex 38.403072338299765 -44.387279455845075 49.9
    endloop
  endfacet
  facet normal 0 0 1
    outer loop
      vertex 38.42796212031615 -44.381021607323895 49.9
      vertex 38.403072338299765 -44.387279455845075 49.9
      vertex 38.58588952783597 -44.54548132206251 49.9
    endloop
  endfacet
  facet normal 0 0 1
    outer loop
      vertex 38.59341566298354 -44.33942288192635 49.9
      vertex 38.58588952783597 -44.54548132206251 49.9
      vertex 38.791158092447915 -44.586311778198095 49.9
    endloop
  endfacet
  facet normal 0 0 1
    outer loop
      vertex 38.83154376429296 -44.27955214518594 49.9
      vertex 38.791158092447915 -44.586311778198095 49.9
      vertex 39 -44.6 49.9
    endloop
  endfacet
  facet normal 0 0 1
    outer loop
      vertex 38.59341566298354 -44.33942288192635 49.9
      vertex 38.791158092447915 -44.586311778198095 49.9
      vertex 38.71064034664777 -44.309949971603935 49.9
    endloop
  endfacet
  facet normal 0 0 1
    outer loop
      vertex 39 -44.2371984755231 49.9
      vertex 39 -44.6 49.9
      vertex 39.208841907552085 -44.586311778198095 49.9
    endloop
  endfacet
  facet normal 0 0 1
    outer loop
      vertex 38.83154376429296 -44.27955214518594 49.9
      vertex 39 -44.6 49.9
      vertex 38.92138248156105 -44.25696468003135 49.9
    endloop
  endfacet
  facet normal 0 0 1
    outer loop
      vertex 39.088231613154946 -44.21501507232821 49.9
      vertex 39 -44.2371984755231 49.9
      vertex 39.208841907552085 -44.586311778198095 49.9
    endloop
  endfacet
  facet normal 0 0 1
    outer loop
      vertex 39.5701881381381 -44.22904746089634 49.9
      vertex 39.41411047216403 -44.54548132206251 49.9
      vertex 39.61229349178414 -44.47820725201806 49.9
    endloop
  endfacet
  facet normal 0 0 1
    outer loop
      vertex 39.46565242517688 -44.20088602068077 49.9
      vertex 39.41411047216403 -44.54548132206251 49.9
      vertex 39.5701881381381 -44.22904746089634 49.9
    endloop
  endfacet
  facet normal 0 0 1
    outer loop
      vertex 39.64642811810373 -44.24958616080107 49.9
      vertex 39.61229349178414 -44.47820725201806 49.9
      vertex 39.78888276473895 -44.287962787324254 49.9
    endloop
  endfacet
  facet normal 0 0 1
    outer loop
      vertex 39.78888276473895 -44.287962787324254 49.9
      vertex 39.61229349178414 -44.47820725201806 49.9
      vertex 39.8 -44.3856406460551 49.9
    endloop
  endfacet
  facet normal 0 0 1
    outer loop
      vertex 38.5368797745022 -41.782184389721564 49.9
      vertex 38.58588952783597 -41.45451867793749 49.9
      vertex 38.43005591714537 -41.7723967441319 49.9
    endloop
  endfacet
  facet normal 0 0 1
    outer loop
      vertex 38.43005591714537 -41.7723967441319 49.9
      vertex 38.58588952783597 -41.45451867793749 49.9
      vertex 38.38770650821586 -41.52179274798194 49.9
    endloop
  endfacet
  facet normal 0 0 1
    outer loop
      vertex 38.75438474935113 -41.802113099098705 49.9
      vertex 38.791158092447915 -41.413688221801905 49.9
      vertex 38.67713053352629 -41.79503474690744 49.9
    endloop
  endfacet
  facet normal 0 0 1
    outer loop
      vertex 38.67713053352629 -41.79503474690744 49.9
      vertex 38.791158092447915 -41.413688221801905 49.9
      vertex 38.58588952783597 -41.45451867793749 49.9
    endloop
  endfacet
  facet normal 0 0 1
    outer loop
      vertex 39.08904328286447 -41.7885265222686 49.9
      vertex 39.16032391924146 -41.782218931053464 49.9
      vertex 39 -41.4 49.9
    endloop
  endfacet
  facet normal 0 0 1
    outer loop
      vertex 39.16032391924146 -41.782218931053464 49.9
      vertex 39.208841907552085 -41.413688221801905 49.9
      vertex 39 -41.4 49.9
    endloop
  endfacet
  facet normal 0 0 1
    outer loop
      vertex 39.33033452489645 -41.767174769592316 49.9
      vertex 39.208841907552085 -41.413688221801905 49.9
      vertex 39.244486371413814 -41.774771433795465 49.9
    endloop
  endfacet
  facet normal 0 0 1
    outer loop
      vertex 39.33033452489645 -41.767174769592316 49.9
      vertex 39.41411047216403 -41.45451867793749 49.9
      vertex 39.208841907552085 -41.413688221801905 49.9
    endloop
  endfacet
  facet normal 0 0 1
    outer loop
      vertex 39.57447740277945 -41.74557067695167 49.9
      vertex 39.61229349178414 -41.52179274798194 49.9
      vertex 39.41411047216403 -41.45451867793749 49.9
    endloop
  endfacet
  facet normal 0 0 1
    outer loop
      vertex 39.51751371614389 -41.75061136777132 49.9
      vertex 39.57447740277945 -41.74557067695167 49.9
      vertex 39.41411047216403 -41.45451867793749 49.9
    endloop
  endfacet
  facet normal 0 0 1
    outer loop
      vertex 39.732308619564876 -41.73160426409301 49.9
      vertex 39.764834208163386 -41.728726089495545 49.9
      vertex 39.61229349178414 -41.52179274798194 49.9
    endloop
  endfacet
  facet normal 0 0 1
    outer loop
      vertex 39.764834208163386 -41.728726089495545 49.9
      vertex 39.8 -41.6143593539449 49.9
      vertex 39.61229349178414 -41.52179274798194 49.9
    endloop
  endfacet
  facet normal 0 0 1
    outer loop
      vertex -94.76483420816338 43.728726089495545 49.9
      vertex -94.8 43.614359353944906 49.9
      vertex -94.61229349178414 43.52179274798195 49.9
    endloop
  endfacet
  facet normal 0 0 1
    outer loop
      vertex -94.73230861956488 43.73160426409301 49.9
      vertex -94.76483420816338 43.728726089495545 49.9
      vertex -94.61229349178414 43.52179274798195 49.9
    endloop
  endfacet
  facet normal 0 0 1
    outer loop
      vertex -94.57447740277945 43.74557067695167 49.9
      vertex -94.61229349178414 43.52179274798195 49.9
      vertex -94.41411047216403 43.4545186779375 49.9
    endloop
  endfacet
  facet normal 0 0 1
    outer loop
      vertex -94.5175137161439 43.75061136777132 49.9
      vertex -94.57447740277945 43.74557067695167 49.9
      vertex -94.41411047216403 43.4545186779375 49.9
    endloop
  endfacet
  facet normal 0 0 1
    outer loop
      vertex -94.33033452489646 43.767174769592316 49.9
      vertex -94.41411047216403 43.4545186779375 49.9
      vertex -94.20884190755208 43.413688221801905 49.9
    endloop
  endfacet
  facet normal 0 0 1
    outer loop
      vertex -94.16032391924146 43.782218931053464 49.9
      vertex -94.20884190755208 43.413688221801905 49.9
      vertex -94 43.400000000000006 49.9
    endloop
  endfacet
  facet normal 0 0 1
    outer loop
      vertex -94.24448637141381 43.774771433795465 49.9
      vertex -94.33033452489646 43.767174769592316 49.9
      vertex -94.20884190755208 43.413688221801905 49.9
    endloop
  endfacet
  facet normal 0 0 1
    outer loop
      vertex -94.16032391924146 43.782218931053464 49.9
      vertex -94 43.400000000000006 49.9
      vertex -94.08904328286448 43.7885265222686 49.9
    endloop
  endfacet
  facet normal 0 0 1
    outer loop
      vertex -93.67713053352628 43.79503474690745 49.9
      vertex -93.79115809244792 43.413688221801905 49.9
      vertex -93.58588952783597 43.4545186779375 49.9
    endloop
  endfacet
  facet normal 0 0 1
    outer loop
      vertex -93.75438474935112 43.802113099098705 49.9
      vertex -93.79115809244792 43.413688221801905 49.9
      vertex -93.67713053352628 43.79503474690745 49.9
    endloop
  endfacet
  facet normal 0 0 1
    outer loop
      vertex -93.43005591714537 43.7723967441319 49.9
      vertex -93.58588952783597 43.4545186779375 49.9
      vertex -93.38770650821586 43.52179274798195 49.9
    endloop
  endfacet
  facet normal 0 0 1
    outer loop
      vertex -93.5368797745022 43.78218438972157 49.9
      vertex -93.58588952783597 43.4545186779375 49.9
      vertex -93.43005591714537 43.7723967441319 49.9
    endloop
  endfacet
  facet normal 0 0 1
    outer loop
      vertex -95.12331649324341 43.90091397573904 49.9
      vertex -95.13137084989847 43.868629150101526 49.9
      vertex -94.97401828641395 43.73063465553403 49.9
    endloop
  endfacet
  facet normal 0 0 1
    outer loop
      vertex -95.12331649324341 43.90091397573904 49.9
      vertex -94.97401828641395 43.73063465553403 49.9
      vertex -94.97070928942041 43.83796382801527 49.9
    endloop
  endfacet
  facet normal 0 0 1
    outer loop
      vertex -94.97206552957682 46.25224772223137 49.9
      vertex -94.8092571283397 46.2934515471578 49.9
      vertex -94.8 46.385640646055094 49.9
    endloop
  endfacet
  facet normal 0 0 1
    outer loop
      vertex -94.97206552957682 46.25224772223137 49.9
      vertex -94.8 46.385640646055094 49.9
      vertex -94.97401828641395 46.26936534446597 49.9
    endloop
  endfacet
  facet normal 0 0 1
    outer loop
      vertex -94.78888276473894 46.287962787324254 49.9
      vertex -94.61229349178414 46.47820725201805 49.9
      vertex -94.8 46.385640646055094 49.9
    endloop
  endfacet
  facet normal 0 0 1
    outer loop
      vertex -94.64642811810373 46.24958616080107 49.9
      vertex -94.61229349178414 46.47820725201805 49.9
      vertex -94.78888276473894 46.287962787324254 49.9
    endloop
  endfacet
  facet normal 0 0 1
    outer loop
      vertex -94.5701881381381 46.22904746089634 49.9
      vertex -94.46565242517687 46.20088602068077 49.9
      vertex -94.41411047216403 46.5454813220625 49.9
    endloop
  endfacet
  facet normal 0 0 1
    outer loop
      vertex -94.5701881381381 46.22904746089634 49.9
      vertex -94.41411047216403 46.5454813220625 49.9
      vertex -94.61229349178414 46.47820725201805 49.9
    endloop
  endfacet
  facet normal 0 0 1
    outer loop
      vertex -94.08823161315495 46.21501507232821 49.9
      vertex -94 46.2371984755231 49.9
      vertex -94.20884190755208 46.586311778198095 49.9
    endloop
  endfacet
  facet normal 0 0 1
    outer loop
      vertex -94 46.2371984755231 49.9
      vertex -94 46.599999999999994 49.9
      vertex -94.20884190755208 46.586311778198095 49.9
    endloop
  endfacet
  facet normal 0 0 1
    outer loop
      vertex -93.92138248156105 46.25696468003135 49.9
      vertex -93.83154376429296 46.27955214518594 49.9
      vertex -94 46.599999999999994 49.9
    endloop
  endfacet
  facet normal 0 0 1
    outer loop
      vertex -93.83154376429296 46.27955214518594 49.9
      vertex -93.79115809244792 46.586311778198095 49.9
      vertex -94 46.599999999999994 49.9
    endloop
  endfacet
  facet normal 0 0 1
    outer loop
      vertex -93.71064034664778 46.309949971603935 49.9
      vertex -93.59341566298355 46.33942288192635 49.9
      vertex -93.79115809244792 46.586311778198095 49.9
    endloop
  endfacet
  facet normal 0 0 1
    outer loop
      vertex -93.59341566298355 46.33942288192635 49.9
      vertex -93.58588952783597 46.5454813220625 49.9
      vertex -93.79115809244792 46.586311778198095 49.9
    endloop
  endfacet
  facet normal 0 0 1
    outer loop
      vertex -93.21892253775462 46.352865849255956 49.9
      vertex -93.20930513998675 46.3553783249599 49.9
      vertex -93.38770650821586 46.47820725201805 49.9
    endloop
  endfacet
  facet normal 0 0 1
    outer loop
      vertex -93.58588952783597 46.5454813220625 49.9
      vertex -93.40307233829976 46.387279455845075 49.9
      vertex -93.38770650821586 46.47820725201805 49.9
    endloop
  endfacet
  facet normal 0 0 1
    outer loop
      vertex -93.42796212031615 46.3810216073239 49.9
      vertex -93.40307233829976 46.387279455845075 49.9
      vertex -93.58588952783597 46.5454813220625 49.9
    endloop
  endfacet
  facet normal 0 0 1
    outer loop
      vertex -93.03468020115666 46.250358975919696 49.9
      vertex -93.2 46.385640646055094 49.9
      vertex -93.21111723526106 46.287962787324254 49.9
    endloop
  endfacet
  facet normal 0 0 1
    outer loop
      vertex -93.20930513998675 46.3553783249599 49.9
      vertex -93.2 46.385640646055094 49.9
      vertex -93.38770650821586 46.47820725201805 49.9
    endloop
  endfacet
  facet normal 0 0 1
    outer loop
      vertex -93.0304209493869 46.251551529608605 49.9
      vertex -93.02598171358605 46.26936534446597 49.9
      vertex -93.2 46.385640646055094 49.9
    endloop
  endfacet
  facet normal 0 0 1
    outer loop
      vertex -93.03468020115666 46.250358975919696 49.9
      vertex -93.0304209493869 46.251551529608605 49.9
      vertex -93.2 46.385640646055094 49.9
    endloop
  endfacet
  facet normal 0 0 1
    outer loop
      vertex 38.235165791836614 43.728726089495545 49.9
      vertex 38.2 43.614359353944906 49.9
      vertex 38.38770650821586 43.52179274798195 49.9
    endloop
  endfacet
  facet normal 0 0 1
    outer loop
      vertex 38.267691380435124 43.73160426409301 49.9
      vertex 38.235165791836614 43.728726089495545 49.9
      vertex 38.38770650821586 43.52179274798195 49.9
    endloop
  endfacet
  facet normal 0 0 1
    outer loop
      vertex 38.42552259722055 43.74557067695167 49.9
      vertex 38.38770650821586 43.52179274798195 49.9
      vertex 38.58588952783597 43.4545186779375 49.9
    endloop
  endfacet
  facet normal 0 0 1
    outer loop
      vertex 38.48248628385611 43.75061136777132 49.9
      vertex 38.42552259722055 43.74557067695167 49.9
      vertex 38.58588952783597 43.4545186779375 49.9
    endloop
  endfacet
  facet normal 0 0 1
    outer loop
      vertex 38.66966547510355 43.767174769592316 49.9
      vertex 38.58588952783597 43.4545186779375 49.9
      vertex 38.791158092447915 43.413688221801905 49.9
    endloop
  endfacet
  facet normal 0 0 1
    outer loop
      vertex 38.83967608075854 43.782218931053464 49.9
      vertex 38.791158092447915 43.413688221801905 49.9
      vertex 39 43.400000000000006 49.9
    endloop
  endfacet
  facet normal 0 0 1
    outer loop
      vertex 38.75551362858618 43.774771433795465 49.9
      vertex 38.66966547510355 43.767174769592316 49.9
      vertex 38.791158092447915 43.413688221801905 49.9
    endloop
  endfacet
  facet normal 0 0 1
    outer loop
      vertex 38.83967608075854 43.782218931053464 49.9
      vertex 39 43.400000000000006 49.9
      vertex 38.91095671713553 43.7885265222686 49.9
    endloop
  endfacet
  facet normal 0 0 1
    outer loop
      vertex 39.32286946647371 43.79503474690744 49.9
      vertex 39.208841907552085 43.413688221801905 49.9
      vertex 39.41411047216403 43.4545186779375 49.9
    endloop
  endfacet
  facet normal 0 0 1
    outer loop
      vertex 39.24561525064887 43.802113099098705 49.9
      vertex 39.208841907552085 43.413688221801905 49.9
      vertex 39.32286946647371 43.79503474690744 49.9
    endloop
  endfacet
  facet normal 0 0 1
    outer loop
      vertex 39.56994408285463 43.7723967441319 49.9
      vertex 39.41411047216403 43.4545186779375 49.9
      vertex 39.61229349178414 43.52179274798195 49.9
    endloop
  endfacet
  facet normal 0 0 1
    outer loop
      vertex 39.4631202254978 43.782184389721564 49.9
      vertex 39.41411047216403 43.4545186779375 49.9
      vertex 39.56994408285463 43.7723967441319 49.9
    endloop
  endfacet
  facet normal 0 0 1
    outer loop
      vertex 37.876683506756585 43.90091397573904 49.9
      vertex 37.868629150101526 43.868629150101526 49.9
      vertex 38.02598171358605 43.73063465553403 49.9
    endloop
  endfacet
  facet normal 0 0 1
    outer loop
      vertex 37.876683506756585 43.90091397573904 49.9
      vertex 38.02598171358605 43.73063465553403 49.9
      vertex 38.029290710579595 43.83796382801527 49.9
    endloop
  endfacet
  facet normal 0 0 1
    outer loop
      vertex 38.027934470423176 46.25224772223137 49.9
      vertex 38.2 46.385640646055094 49.9
      vertex 38.02598171358605 46.26936534446597 49.9
    endloop
  endfacet
  facet normal 0 0 1
    outer loop
      vertex 38.027934470423176 46.25224772223137 49.9
      vertex 38.1907428716603 46.2934515471578 49.9
      vertex 38.2 46.385640646055094 49.9
    endloop
  endfacet
  facet normal 0 0 1
    outer loop
      vertex 38.21111723526105 46.287962787324254 49.9
      vertex 38.38770650821586 46.47820725201805 49.9
      vertex 38.2 46.385640646055094 49.9
    endloop
  endfacet
  facet normal 0 0 1
    outer loop
      vertex 38.35357188189627 46.24958616080107 49.9
      vertex 38.38770650821586 46.47820725201805 49.9
      vertex 38.21111723526105 46.287962787324254 49.9
    endloop
  endfacet
  facet normal 0 0 1
    outer loop
      vertex 38.4298118618619 46.22904746089634 49.9
      vertex 38.53434757482312 46.20088602068077 49.9
      vertex 38.58588952783597 46.5454813220625 49.9
    endloop
  endfacet
  facet normal 0 0 1
    outer loop
      vertex 38.4298118618619 46.22904746089634 49.9
      vertex 38.58588952783597 46.5454813220625 49.9
      vertex 38.38770650821586 46.47820725201805 49.9
    endloop
  endfacet
  facet normal 0 0 1
    outer loop
      vertex 38.911768386845054 46.21501507232821 49.9
      vertex 39 46.2371984755231 49.9
      vertex 38.791158092447915 46.586311778198095 49.9
    endloop
  endfacet
  facet normal 0 0 1
    outer loop
      vertex 39.07861751843895 46.25696468003135 49.9
      vertex 39.16845623570704 46.27955214518594 49.9
      vertex 39 46.599999999999994 49.9
    endloop
  endfacet
  facet normal 0 0 1
    outer loop
      vertex 39 46.2371984755231 49.9
      vertex 39 46.599999999999994 49.9
      vertex 38.791158092447915 46.586311778198095 49.9
    endloop
  endfacet
  facet normal 0 0 1
    outer loop
      vertex 39.16845623570704 46.27955214518594 49.9
      vertex 39.208841907552085 46.586311778198095 49.9
      vertex 39 46.599999999999994 49.9
    endloop
  endfacet
  facet normal 0 0 1
    outer loop
      vertex 39.28935965335223 46.309949971603935 49.9
      vertex 39.40658433701646 46.33942288192635 49.9
      vertex 39.208841907552085 46.586311778198095 49.9
    endloop
  endfacet
  facet normal 0 0 1
    outer loop
      vertex 39.40658433701646 46.33942288192635 49.9
      vertex 39.41411047216403 46.5454813220625 49.9
      vertex 39.208841907552085 46.586311778198095 49.9
    endloop
  endfacet
  facet normal 0 0 1
    outer loop
      vertex 39.596927661700235 46.387279455845075 49.9
      vertex 39.61229349178414 46.47820725201805 49.9
      vertex 39.41411047216403 46.5454813220625 49.9
    endloop
  endfacet
  facet normal 0 0 1
    outer loop
      vertex 39.572037879683855 46.3810216073239 49.9
      vertex 39.596927661700235 46.387279455845075 49.9
      vertex 39.41411047216403 46.5454813220625 49.9
    endloop
  endfacet
  facet normal 0 0 1
    outer loop
      vertex 39.78107746224538 46.352865849255956 49.9
      vertex 39.79069486001325 46.3553783249599 49.9
      vertex 39.77488476861684 46.398026107535415 49.9
    endloop
  endfacet
  facet normal 0 0 1
    outer loop
      vertex 39.79069486001325 46.3553783249599 49.9
      vertex 39.8 46.385640646055094 49.9
      vertex 39.77488476861684 46.398026107535415 49.9
    endloop
  endfacet
  facet normal 0 0 1
    outer loop
      vertex 39.965319798843346 46.250358975919696 49.9
      vertex 39.8 46.385640646055094 49.9
      vertex 39.78888276473895 46.287962787324254 49.9
    endloop
  endfacet
  facet normal 0 0 1
    outer loop
      vertex 39.9695790506131 46.251551529608605 49.9
      vertex 39.97401828641395 46.26936534446597 49.9
      vertex 39.8 46.385640646055094 49.9
    endloop
  endfacet
  facet normal 0 0 1
    outer loop
      vertex 39.965319798843346 46.250358975919696 49.9
      vertex 39.9695790506131 46.251551529608605 49.9
      vertex 39.8 46.385640646055094 49.9
    endloop
  endfacet
endsolid OpenSCAD_Model
