solid OpenSCAD_Model
  facet normal 0 0 -1
    outer loop
      vertex -109 -58 48.3
      vertex -107.9 -53.6 48.3
      vertex -107.5 -58 48.3
    endloop
  endfacet
  facet normal 0 0 -1
    outer loop
      vertex -109 -58 48.3
      vertex -108.73893884929981 -53.6 48.3
      vertex -107.9 -53.6 48.3
    endloop
  endfacet
  facet normal 0 0 -1
    outer loop
      vertex -107.5 -58 48.3
      vertex -107.9 -53.6 48.3
      vertex -107.5 -53.6 48.3
    endloop
  endfacet
  facet normal 0 0 -1
    outer loop
      vertex -107.9 -53.6 48.3
      vertex -107.25484056911004 -52.59090447989006 48.3
      vertex -107.5 -53.6 48.3
    endloop
  endfacet
  facet normal 0 0 -1
    outer loop
      vertex -109 -53.6 48.3
      vertex -108.99403887380316 -53.55248605714756 48.3
      vertex -108.13223112003784 -52.31489003865901 48.3
    endloop
  endfacet
  facet normal 0 0 -1
    outer loop
      vertex -109 -53.6 48.3
      vertex -107.86978289834659 -52.22341721964736 48.3
      vertex -108.87339970005927 -53.6 48.3
    endloop
  endfacet
  facet normal 0 0 -1
    outer loop
      vertex -107.9 -53.6 48.3
      vertex -108.73893884929981 -53.6 48.3
      vertex -107.45672248166576 -52.26668090357038 48.3
    endloop
  endfacet
  facet normal 0 0 -1
    outer loop
      vertex -112 -53.6 48.3
      vertex -109.66313149905082 -51.93049638205347 48.3
      vertex -110.35427821415436 -53.6 48.3
    endloop
  endfacet
  facet normal 0 0 -1
    outer loop
      vertex -107.9 -53.6 48.3
      vertex -107.45672248166576 -52.26668090357038 48.3
      vertex -107.25484056911004 -52.59090447989006 48.3
    endloop
  endfacet
  facet normal 0 0 -1
    outer loop
      vertex -112 -53.6 48.3
      vertex -112 -52 48.3
      vertex -109.66313149905082 -51.93049638205347 48.3
    endloop
  endfacet
  facet normal 0 0 -1
    outer loop
      vertex -109 -53.6 48.3
      vertex -108.13223112003784 -52.31489003865901 48.3
      vertex -107.9150683517257 -52.119433285669494 48.3
    endloop
  endfacet
  facet normal 0 0 -1
    outer loop
      vertex -109 -53.6 48.3
      vertex -107.80116914594427 -52.11196793731067 48.3
      vertex -107.86978289834659 -52.22341721964736 48.3
    endloop
  endfacet
  facet normal 0 0 -1
    outer loop
      vertex -109 -53.6 48.3
      vertex -107.9150683517257 -52.119433285669494 48.3
      vertex -107.80116914594427 -52.11196793731067 48.3
    endloop
  endfacet
  facet normal 0 0 -1
    outer loop
      vertex -112 -52 48.3
      vertex -112 -51.79350075261962 48.3
      vertex -110.63775495130386 -51.164191825569326 48.3
    endloop
  endfacet
  facet normal 0 0 -1
    outer loop
      vertex -112 -52 48.3
      vertex -109.4225238944553 -51.34929523098166 48.3
      vertex -109.66313149905082 -51.93049638205347 48.3
    endloop
  endfacet
  facet normal 0 0 -1
    outer loop
      vertex -112 -52 48.3
      vertex -110.32930178066829 -51.20136978355698 48.3
      vertex -109.64431705675402 -51.28393120847405 48.3
    endloop
  endfacet
  facet normal 0 0 -1
    outer loop
      vertex -112 -52 48.3
      vertex -109.64431705675402 -51.28393120847405 48.3
      vertex -109.4225238944553 -51.34929523098166 48.3
    endloop
  endfacet
  facet normal 0 0 -1
    outer loop
      vertex -108.73051371481047 -51.45202400834948 48.3
      vertex -108.64399440196493 -51.76588629059175 48.3
      vertex -108.78579440820319 -51.89264606867376 48.3
    endloop
  endfacet
  facet normal 0 0 -1
    outer loop
      vertex -108.73051371481047 -51.45202400834948 48.3
      vertex -108.78579440820319 -51.89264606867376 48.3
      vertex -108.75227496584056 -51.46632064111795 48.3
    endloop
  endfacet
  facet normal 0 0 -1
    outer loop
      vertex -112 -51.79350075261962 48.3
      vertex -110.75342104176518 -51.15025055518814 48.3
      vertex -110.63775495130386 -51.164191825569326 48.3
    endloop
  endfacet
  facet normal 0 0 -1
    outer loop
      vertex -107.15147186257614 -51.348528137423855 48.3
      vertex -107.11429990785352 -51.414961110990646 48.3
      vertex -107.17971025506682 -51.43346542028401 48.3
    endloop
  endfacet
  facet normal 0 0 -1
    outer loop
      vertex -107.15147186257614 -51.348528137423855 48.3
      vertex -107.17971025506682 -51.43346542028401 48.3
      vertex -107.1945628705458 -51.40101215971682 48.3
    endloop
  endfacet
  facet normal 0 0 -1
    outer loop
      vertex -107.04797599165052 -51.23051371481046 48.3
      vertex -106.96076951545868 -51.1 48.3
      vertex -106.98506267958352 -51.16466241387148 48.3
    endloop
  endfacet
  facet normal 0 0 -1
    outer loop
      vertex -106.96076951545868 -51.1 48.3
      vertex -106.95622179439283 -51.09447042542435 48.3
      vertex -106.98506267958352 -51.16466241387148 48.3
    endloop
  endfacet
  facet normal 0 0 -1
    outer loop
      vertex -109.18973383364857 -50.65663143066406 48.3
      vertex -109.20533740318933 -50.50285932313714 48.3
      vertex -109.2 -50.5 48.3
    endloop
  endfacet
  facet normal 0 0 -1
    outer loop
      vertex -109.2 -50.5 48.3
      vertex -109.20533740318933 -50.50285932313714 48.3
      vertex -109.20536244496321 -50.5024772594985 48.3
    endloop
  endfacet
  facet normal 0 0 -1
    outer loop
      vertex -112 -51.79350075261962 48.3
      vertex -111.97800883568927 -47.522250200409104 48.3
      vertex -109.79293405170709 -50.654627360280294 48.3
    endloop
  endfacet
  facet normal 0 0 -1
    outer loop
      vertex -111.98671294982196 -47.51344355965559 48.3
      vertex -112 -51.79350075261962 48.3
      vertex -112 -47.60879956448815 48.3
    endloop
  endfacet
  facet normal 0 0 -1
    outer loop
      vertex -112 -51.79350075261962 48.3
      vertex -111.98671294982196 -47.51344355965559 48.3
      vertex -111.97800883568927 -47.522250200409104 48.3
    endloop
  endfacet
  facet normal 0 0 -1
    outer loop
      vertex -111.98671294982196 -47.51344355965559 48.3
      vertex -112 -47.60879956448815 48.3
      vertex -112 -47.51637673542832 48.3
    endloop
  endfacet
  facet normal 0 0 -1
    outer loop
      vertex 74.6 -53.6 48.3
      vertex 75 -53.95199913906335 48.3
      vertex 73.76802261186236 -56.92790955255053 48.3
    endloop
  endfacet
  facet normal 0 0 -1
    outer loop
      vertex 74.6 -53.6 48.3
      vertex 73.76802261186236 -56.92790955255053 48.3
      vertex 73.5 -52 48.3
    endloop
  endfacet
  facet normal 0 0 -1
    outer loop
      vertex 74.6 -53.6 48.3
      vertex 75 -53.6 48.3
      vertex 75 -53.95199913906335 48.3
    endloop
  endfacet
  facet normal 0 0 -1
    outer loop
      vertex 74.6 -53.6 48.3
      vertex 73.5 -52 48.3
      vertex 74.85907335907336 -52.56370656370657 48.3
    endloop
  endfacet
  facet normal 0 0 -1
    outer loop
      vertex 74.6 -53.6 48.3
      vertex 74.85907335907336 -52.56370656370657 48.3
      vertex 75 -53.6 48.3
    endloop
  endfacet
  facet normal 0 0 -1
    outer loop
      vertex 75 -53.6 48.3
      vertex 74.85907335907336 -52.56370656370657 48.3
      vertex 75.14572178584564 -53.6 48.3
    endloop
  endfacet
  facet normal 0 0 -1
    outer loop
      vertex 74.85907335907336 -52.56370656370657 48.3
      vertex 76.01023493206233 -51.511720053310405 48.3
      vertex 75.14572178584564 -53.6 48.3
    endloop
  endfacet
  facet normal 0 0 -1
    outer loop
      vertex 74.85907335907336 -52.56370656370657 48.3
      vertex 73.5 -52 48.3
      vertex 73.5 -51.79350075261962 48.3
    endloop
  endfacet
  facet normal 0 0 -1
    outer loop
      vertex 74.85907335907336 -52.56370656370657 48.3
      vertex 73.5 -51.79350075261962 48.3
      vertex 75.85734240847906 -50.97788492275628 48.3
    endloop
  endfacet
  facet normal 0 0 -1
    outer loop
      vertex 74.85907335907336 -52.56370656370657 48.3
      vertex 76.07627589886665 -51.28913782331685 48.3
      vertex 76.01023493206233 -51.511720053310405 48.3
    endloop
  endfacet
  facet normal 0 0 -1
    outer loop
      vertex 74.85907335907336 -52.56370656370657 48.3
      vertex 75.85734240847906 -50.97788492275628 48.3
      vertex 76.07627589886665 -51.28913782331685 48.3
    endloop
  endfacet
  facet normal 0 0 -1
    outer loop
      vertex 81.5 -51.79350075261962 48.3
      vertex 79.41722274442466 -51.575968108578415 48.3
      vertex 79.21403271856853 -51.00257997056483 48.3
    endloop
  endfacet
  facet normal 0 0 -1
    outer loop
      vertex 81.5 -51.79350075261962 48.3
      vertex 79.21403271856853 -51.00257997056483 48.3
      vertex 79.53851834595596 -51 48.3
    endloop
  endfacet
  facet normal 0 0 -1
    outer loop
      vertex 81.5 -51.79350075261962 48.3
      vertex 79.53851834595596 -51 48.3
      vertex 79.96224479135977 -51 48.3
    endloop
  endfacet
  facet normal 0 0 -1
    outer loop
      vertex 78.65911099154688 -50.18941714587697 48.3
      vertex 78.63137084989847 -50.05454986738178 48.3
      vertex 78.68616953494276 -50.20469552027123 48.3
    endloop
  endfacet
  facet normal 0 0 -1
    outer loop
      vertex 75.70706594829291 -50.654627360280294 48.3
      vertex 73.5 -51.79350075261962 48.3
      vertex 73.52199116431073 -47.522250200409104 48.3
    endloop
  endfacet
  facet normal 0 0 -1
    outer loop
      vertex 78.65911099154688 -50.18941714587697 48.3
      vertex 78.60865543901355 -50.04077988116189 48.3
      vertex 78.63137084989847 -50.05454986738178 48.3
    endloop
  endfacet
  facet normal 0 0 -1
    outer loop
      vertex 73.51328705017804 -47.51344355965559 48.3
      vertex 73.5 -51.79350075261962 48.3
      vertex 73.5 -47.60879956448815 48.3
    endloop
  endfacet
  facet normal 0 0 -1
    outer loop
      vertex 73.5 -51.79350075261962 48.3
      vertex 73.51328705017804 -47.51344355965559 48.3
      vertex 73.52199116431073 -47.522250200409104 48.3
    endloop
  endfacet
  facet normal 0 0 -1
    outer loop
      vertex 73.51328705017804 -47.51344355965559 48.3
      vertex 73.5 -47.60879956448815 48.3
      vertex 73.5 -47.51637673542832 48.3
    endloop
  endfacet
  facet normal 0 0 1
    outer loop
      vertex -112 -47.60879956448815 48.3
      vertex -109.79293405170709 -50.654627360280294 48.3
      vertex -111.97800883568927 -47.522250200409104 48.3
    endloop
  endfacet
  facet normal 0 0 1
    outer loop
      vertex -112 -47.60879956448815 48.3
      vertex -111.97800883568927 -47.522250200409104 48.3
      vertex -112 -47.51637673542832 48.3
    endloop
  endfacet
  facet normal 0 0 1
    outer loop
      vertex -111.97800883568927 -47.522250200409104 48.3
      vertex -111.98671294982196 -47.51344355965559 48.3
      vertex -112 -47.51637673542832 48.3
    endloop
  endfacet
  facet normal 0 0 1
    outer loop
      vertex 73.5 -47.60879956448815 48.3
      vertex 75.70706594829291 -50.654627360280294 48.3
      vertex 73.52199116431073 -47.522250200409104 48.3
    endloop
  endfacet
  facet normal 0 0 1
    outer loop
      vertex 73.5 -47.60879956448815 48.3
      vertex 73.52199116431073 -47.522250200409104 48.3
      vertex 73.5 -47.51637673542832 48.3
    endloop
  endfacet
  facet normal 0 0 1
    outer loop
      vertex 73.52199116431073 -47.522250200409104 48.3
      vertex 73.51328705017804 -47.51344355965559 48.3
      vertex 73.5 -47.51637673542832 48.3
    endloop
  endfacet
  facet normal 0 0 1
    outer loop
      vertex -107.5 -58 48.3
      vertex -108.73893884929981 -53.6 48.3
      vertex -109 -58 48.3
    endloop
  endfacet
  facet normal 0 0 1
    outer loop
      vertex -107.5 -53.6 48.3
      vertex -108.73893884929981 -53.6 48.3
      vertex -107.5 -58 48.3
    endloop
  endfacet
  facet normal 0 0 1
    outer loop
      vertex -108.87339970005927 -53.6 48.3
      vertex -108.99403887380316 -53.55248605714756 48.3
      vertex -109 -53.6 48.3
    endloop
  endfacet
  facet normal 0 0 1
    outer loop
      vertex -107.5 -53.6 48.3
      vertex -107.25484056911004 -52.59090447989006 48.3
      vertex -108.73893884929981 -53.6 48.3
    endloop
  endfacet
  facet normal 0 0 1
    outer loop
      vertex -108.87339970005927 -53.6 48.3
      vertex -108.13223112003784 -52.31489003865901 48.3
      vertex -108.99403887380316 -53.55248605714756 48.3
    endloop
  endfacet
  facet normal 0 0 1
    outer loop
      vertex -112 -53.6 48.3
      vertex -110.35427821415436 -53.6 48.3
      vertex -112 -52 48.3
    endloop
  endfacet
  facet normal 0 0 1
    outer loop
      vertex -107.45672248166576 -52.26668090357038 48.3
      vertex -108.73893884929981 -53.6 48.3
      vertex -107.25484056911004 -52.59090447989006 48.3
    endloop
  endfacet
  facet normal 0 0 1
    outer loop
      vertex -110.35427821415436 -53.6 48.3
      vertex -109.66313149905082 -51.93049638205347 48.3
      vertex -112 -52 48.3
    endloop
  endfacet
  facet normal 0 0 1
    outer loop
      vertex -108.87339970005927 -53.6 48.3
      vertex -107.86978289834659 -52.22341721964736 48.3
      vertex -108.13223112003784 -52.31489003865901 48.3
    endloop
  endfacet
  facet normal 0 0 1
    outer loop
      vertex -107.86978289834659 -52.22341721964736 48.3
      vertex -107.9150683517257 -52.119433285669494 48.3
      vertex -108.13223112003784 -52.31489003865901 48.3
    endloop
  endfacet
  facet normal 0 0 1
    outer loop
      vertex -107.86978289834659 -52.22341721964736 48.3
      vertex -107.80116914594427 -52.11196793731067 48.3
      vertex -107.9150683517257 -52.119433285669494 48.3
    endloop
  endfacet
  facet normal 0 0 1
    outer loop
      vertex -109.66313149905082 -51.93049638205347 48.3
      vertex -110.32930178066829 -51.20136978355698 48.3
      vertex -112 -52 48.3
    endloop
  endfacet
  facet normal 0 0 1
    outer loop
      vertex -112 -51.79350075261962 48.3
      vertex -112 -52 48.3
      vertex -110.75342104176518 -51.15025055518814 48.3
    endloop
  endfacet
  facet normal 0 0 1
    outer loop
      vertex -109.66313149905082 -51.93049638205347 48.3
      vertex -109.64431705675402 -51.28393120847405 48.3
      vertex -110.32930178066829 -51.20136978355698 48.3
    endloop
  endfacet
  facet normal 0 0 1
    outer loop
      vertex -109.66313149905082 -51.93049638205347 48.3
      vertex -109.4225238944553 -51.34929523098166 48.3
      vertex -109.64431705675402 -51.28393120847405 48.3
    endloop
  endfacet
  facet normal 0 0 1
    outer loop
      vertex -110.63775495130386 -51.164191825569326 48.3
      vertex -110.75342104176518 -51.15025055518814 48.3
      vertex -112 -52 48.3
    endloop
  endfacet
  facet normal 0 0 1
    outer loop
      vertex -112 -51.79350075261962 48.3
      vertex -109.79293405170709 -50.654627360280294 48.3
      vertex -112 -47.60879956448815 48.3
    endloop
  endfacet
  facet normal 0 0 1
    outer loop
      vertex 73.76802261186236 -56.92790955255053 48.3
      vertex 75 -53.95199913906335 48.3
      vertex 73.5 -52 48.3
    endloop
  endfacet
  facet normal 0 0 1
    outer loop
      vertex 75 -53.6 48.3
      vertex 73.5 -52 48.3
      vertex 75 -53.95199913906335 48.3
    endloop
  endfacet
  facet normal 0 0 1
    outer loop
      vertex 75 -53.6 48.3
      vertex 75.14572178584564 -53.6 48.3
      vertex 73.5 -52 48.3
    endloop
  endfacet
  facet normal 0 0 1
    outer loop
      vertex 75.14572178584564 -53.6 48.3
      vertex 76.01023493206233 -51.511720053310405 48.3
      vertex 73.5 -52 48.3
    endloop
  endfacet
  facet normal 0 0 1
    outer loop
      vertex 76.07627589886665 -51.28913782331685 48.3
      vertex 73.5 -51.79350075261962 48.3
      vertex 73.5 -52 48.3
    endloop
  endfacet
  facet normal 0 0 1
    outer loop
      vertex 76.01023493206233 -51.511720053310405 48.3
      vertex 76.07627589886665 -51.28913782331685 48.3
      vertex 73.5 -52 48.3
    endloop
  endfacet
  facet normal 0 0 1
    outer loop
      vertex 81.5 -51.79350075261962 48.3
      vertex 79.96224479135977 -51 48.3
      vertex 79.41722274442466 -51.575968108578415 48.3
    endloop
  endfacet
  facet normal 0 0 1
    outer loop
      vertex 75.85734240847906 -50.97788492275628 48.3
      vertex 73.5 -51.79350075261962 48.3
      vertex 76.07627589886665 -51.28913782331685 48.3
    endloop
  endfacet
  facet normal 0 0 1
    outer loop
      vertex 79.41722274442466 -51.575968108578415 48.3
      vertex 79.96224479135977 -51 48.3
      vertex 79.21403271856853 -51.00257997056483 48.3
    endloop
  endfacet
  facet normal 0 0 1
    outer loop
      vertex 79.21403271856853 -51.00257997056483 48.3
      vertex 79.96224479135977 -51 48.3
      vertex 79.53851834595596 -51 48.3
    endloop
  endfacet
  facet normal 0 0 1
    outer loop
      vertex 73.5 -47.60879956448815 48.3
      vertex 73.5 -51.79350075261962 48.3
      vertex 75.70706594829291 -50.654627360280294 48.3
    endloop
  endfacet
  facet normal 0 0 1
    outer loop
      vertex -108.75227496584056 -51.46632064111795 48.3
      vertex -108.78579440820319 -51.89264606867376 48.3
      vertex -108.64399440196493 -51.76588629059175 48.3
    endloop
  endfacet
  facet normal 0 0 1
    outer loop
      vertex -108.75227496584056 -51.46632064111795 48.3
      vertex -108.64399440196493 -51.76588629059175 48.3
      vertex -108.73051371481047 -51.45202400834948 48.3
    endloop
  endfacet
  facet normal 0 0 1
    outer loop
      vertex -107.1945628705458 -51.40101215971682 48.3
      vertex -107.17971025506682 -51.43346542028401 48.3
      vertex -107.11429990785352 -51.414961110990646 48.3
    endloop
  endfacet
  facet normal 0 0 1
    outer loop
      vertex -107.1945628705458 -51.40101215971682 48.3
      vertex -107.11429990785352 -51.414961110990646 48.3
      vertex -107.15147186257614 -51.348528137423855 48.3
    endloop
  endfacet
  facet normal 0 0 1
    outer loop
      vertex -106.98506267958352 -51.16466241387148 48.3
      vertex -106.95622179439283 -51.09447042542435 48.3
      vertex -107.04797599165052 -51.23051371481046 48.3
    endloop
  endfacet
  facet normal 0 0 1
    outer loop
      vertex -106.95622179439283 -51.09447042542435 48.3
      vertex -106.96076951545868 -51.1 48.3
      vertex -107.04797599165052 -51.23051371481046 48.3
    endloop
  endfacet
  facet normal 0 0 1
    outer loop
      vertex -109.20536244496321 -50.5024772594985 48.3
      vertex -109.18973383364857 -50.65663143066406 48.3
      vertex -109.2 -50.5 48.3
    endloop
  endfacet
  facet normal 0 0 1
    outer loop
      vertex -109.20536244496321 -50.5024772594985 48.3
      vertex -109.20533740318933 -50.50285932313714 48.3
      vertex -109.18973383364857 -50.65663143066406 48.3
    endloop
  endfacet
  facet normal 0 0 1
    outer loop
      vertex 78.68616953494276 -50.20469552027123 48.3
      vertex 78.60865543901355 -50.04077988116189 48.3
      vertex 78.65911099154688 -50.18941714587697 48.3
    endloop
  endfacet
  facet normal 0 0 1
    outer loop
      vertex 78.68616953494276 -50.20469552027123 48.3
      vertex 78.63137084989847 -50.05454986738178 48.3
      vertex 78.60865543901355 -50.04077988116189 48.3
    endloop
  endfacet
endsolid OpenSCAD_Model
