solid OpenSCAD_Model
  facet normal 0 -1 0
    outer loop
      vertex -112 -58 55
      vertex -112 -58 54.854895234552004
      vertex -104 -58 54.854895234552004
    endloop
  endfacet
  facet normal -1 0 0
    outer loop
      vertex -112 -58 55
      vertex -112 -57.45846164292771 55
      vertex -112 -58 54.854895234552004
    endloop
  endfacet
  facet normal 0 0 1
    outer loop
      vertex -112 -58 55
      vertex -104 -58 55
      vertex -112 -57.45846164292771 55
    endloop
  endfacet
  facet normal 0 -1 0
    outer loop
      vertex -112 -58 55
      vertex -104 -58 54.854895234552004
      vertex -104 -58 55
    endloop
  endfacet
  facet normal 0 0 1
    outer loop
      vertex -104 -58 55
      vertex -104 -57.45846164292771 55
      vertex -112 -57.45846164292771 55
    endloop
  endfacet
  facet normal 1 0 0
    outer loop
      vertex -104 -58 55
      vertex -104 -58 54.854895234552004
      vertex -104 -57.45846164292771 55
    endloop
  endfacet
  facet normal 0 0 -1
    outer loop
      vertex -107.5 -52.5 48.3
      vertex -107.36836265902556 -51.87624730591195 48.3
      vertex -105.70547945205479 -52.5 48.3
    endloop
  endfacet
  facet normal 0 0 -1
    outer loop
      vertex -107.5 -52.5 48.3
      vertex -107.58836361751516 -52.16281171689523 48.3
      vertex -107.36836265902556 -51.87624730591195 48.3
    endloop
  endfacet
  facet normal 0 0 -1
    outer loop
      vertex -107.5407798811619 -51.108655439013546 48.3
      vertex -107.42404534413198 -51.39047754150848 48.3
      vertex -107.52854716524334 -51.52601621286715 48.3
    endloop
  endfacet
  facet normal 0 0 -1
    outer loop
      vertex -107.5407798811619 -51.108655439013546 48.3
      vertex -107.52854716524334 -51.52601621286715 48.3
      vertex -107.60109645235062 -51.129130155983596 48.3
    endloop
  endfacet
  facet normal 0 0 -1
    outer loop
      vertex -109.10865543901355 -50.45922011883811 48.3
      vertex -109.13137084989847 -50.43597145390714 48.3
      vertex -109.15911099154688 -50.31058285412303 48.3
    endloop
  endfacet
  facet normal 0 0 -1
    outer loop
      vertex -109.15911099154688 -50.31058285412303 48.3
      vertex -109.13137084989847 -50.43597145390714 48.3
      vertex -109.18697495536885 -50.28301613865723 48.3
    endloop
  endfacet
  facet normal 0 0 -1
    outer loop
      vertex -104.01170918816943 -47.5 48.3
      vertex -109.85680588538368 -48.16668140446986 48.3
      vertex -111.19286528140456 -47.75107464793777 48.3
    endloop
  endfacet
  facet normal 0 0 -1
    outer loop
      vertex -111.64258123977862 -47.5 48.3
      vertex -104.01170918816943 -47.5 48.3
      vertex -111.19286528140456 -47.75107464793777 48.3
    endloop
  endfacet
  facet normal 0 0 -1
    outer loop
      vertex -107.5 -58 48.3
      vertex -108.36263250883393 -54.83701413427562 48.3
      vertex -107.5 -52.5 48.3
    endloop
  endfacet
  facet normal 0 0 -1
    outer loop
      vertex -107.5 -52.5 48.3
      vertex -108.36263250883393 -54.83701413427562 48.3
      vertex -107.84722948721605 -52.5 48.3
    endloop
  endfacet
  facet normal -1 0 0
    outer loop
      vertex 68 -58 55
      vertex 68 -57.45846164292771 55
      vertex 68 -58 54.854895234552004
    endloop
  endfacet
  facet normal 0 -1 0
    outer loop
      vertex 68 -58 55
      vertex 68 -58 54.854895234552004
      vertex 76 -58 54.854895234552004
    endloop
  endfacet
  facet normal 0 0 1
    outer loop
      vertex 68 -58 55
      vertex 76 -58 55
      vertex 68 -57.45846164292771 55
    endloop
  endfacet
  facet normal 0 -1 0
    outer loop
      vertex 68 -58 55
      vertex 76 -58 54.854895234552004
      vertex 76 -58 55
    endloop
  endfacet
  facet normal 1 0 0
    outer loop
      vertex 76 -58 55
      vertex 76 -58 54.854895234552004
      vertex 76 -57.45846164292771 55
    endloop
  endfacet
  facet normal 0 0 1
    outer loop
      vertex 76 -58 55
      vertex 76 -57.45846164292771 55
      vertex 68 -57.45846164292771 55
    endloop
  endfacet
  facet normal 0 0 -1
    outer loop
      vertex 75 -52.5 48.3
      vertex 75.01396432530657 -51.8672361958147 48.3
      vertex 76 -52.5 48.3
    endloop
  endfacet
  facet normal 0 0 -1
    outer loop
      vertex 68 -52.5 48.3
      vertex 70.03137241746349 -51.06620894768339 48.3
      vertex 69.56927710843374 -52.5 48.3
    endloop
  endfacet
  facet normal 0 0 -1
    outer loop
      vertex 68 -52.5 48.3
      vertex 68 -51 48.3
      vertex 69.94633239294049 -51 48.3
    endloop
  endfacet
  facet normal 0 0 -1
    outer loop
      vertex 68 -52.5 48.3
      vertex 69.94633239294049 -51 48.3
      vertex 70.03137241746349 -51.06620894768339 48.3
    endloop
  endfacet
  facet normal 0 0 -1
    outer loop
      vertex 76 -52.5 48.3
      vertex 75.01396432530657 -51.8672361958147 48.3
      vertex 75.05383185712611 -51.832171981081856 48.3
    endloop
  endfacet
  facet normal 0 0 -1
    outer loop
      vertex 72.84852813742386 -50.848528137423855 48.3
      vertex 72.90450975668354 -50.99044074231092 48.3
      vertex 72.80063822679813 -50.89052646185744 48.3
    endloop
  endfacet
  facet normal 0 0 -1
    outer loop
      vertex 72.84852813742386 -50.848528137423855 48.3
      vertex 72.87402142006236 -50.86809680559681 48.3
      vertex 72.90450975668354 -50.99044074231092 48.3
    endloop
  endfacet
  facet normal 0 0 -1
    outer loop
      vertex 73.03923048454132 -50.6 48.3
      vertex 73.04570366531135 -50.606272559505896 48.3
      vertex 73.00979558394933 -50.644052441849475 48.3
    endloop
  endfacet
  facet normal 0 0 -1
    outer loop
      vertex 73.03923048454132 -50.6 48.3
      vertex 73.04531761606164 -50.60390626485048 48.3
      vertex 73.04570366531135 -50.606272559505896 48.3
    endloop
  endfacet
  facet normal 0 0 -1
    outer loop
      vertex 75.91452939179943 -47.5 48.3
      vertex 75.98566806103933 -47.50520882802414 48.3
      vertex 75.93423028295588 -47.523903475044044 48.3
    endloop
  endfacet
  facet normal 0 0 -1
    outer loop
      vertex 75.98566806103933 -47.50520882802414 48.3
      vertex 75.91452939179943 -47.5 48.3
      vertex 75.98829081183057 -47.5 48.3
    endloop
  endfacet
  facet normal 0 0 1
    outer loop
      vertex -111.19286528140456 -47.75107464793777 48.3
      vertex -109.85680588538368 -48.16668140446986 48.3
      vertex -111.64258123977862 -47.5 48.3
    endloop
  endfacet
  facet normal 0 0 1
    outer loop
      vertex -111.64258123977862 -47.5 48.3
      vertex -109.85680588538368 -48.16668140446986 48.3
      vertex -104.01170918816943 -47.5 48.3
    endloop
  endfacet
  facet normal 0 0 1
    outer loop
      vertex 75.93423028295588 -47.523903475044044 48.3
      vertex 75.98566806103933 -47.50520882802414 48.3
      vertex 75.98829081183057 -47.5 48.3
    endloop
  endfacet
  facet normal 0 0 1
    outer loop
      vertex 75.93423028295588 -47.523903475044044 48.3
      vertex 75.98829081183057 -47.5 48.3
      vertex 75.91452939179943 -47.5 48.3
    endloop
  endfacet
  facet normal 0 0 1
    outer loop
      vertex -107.84722948721605 -52.5 48.3
      vertex -108.36263250883393 -54.83701413427562 48.3
      vertex -107.5 -58 48.3
    endloop
  endfacet
  facet normal 0 0 1
    outer loop
      vertex -107.84722948721605 -52.5 48.3
      vertex -107.5 -58 48.3
      vertex -107.5 -52.5 48.3
    endloop
  endfacet
  facet normal 0 0 1
    outer loop
      vertex -107.58836361751516 -52.16281171689523 48.3
      vertex -107.5 -52.5 48.3
      vertex -105.70547945205479 -52.5 48.3
    endloop
  endfacet
  facet normal 0 0 1
    outer loop
      vertex -107.58836361751516 -52.16281171689523 48.3
      vertex -105.70547945205479 -52.5 48.3
      vertex -107.36836265902556 -51.87624730591195 48.3
    endloop
  endfacet
  facet normal 0 0 1
    outer loop
      vertex 76 -52.5 48.3
      vertex 75.05383185712611 -51.832171981081856 48.3
      vertex 75 -52.5 48.3
    endloop
  endfacet
  facet normal 0 0 1
    outer loop
      vertex 68 -52.5 48.3
      vertex 69.56927710843374 -52.5 48.3
      vertex 68 -51 48.3
    endloop
  endfacet
  facet normal 0 0 1
    outer loop
      vertex 69.56927710843374 -52.5 48.3
      vertex 70.03137241746349 -51.06620894768339 48.3
      vertex 69.94633239294049 -51 48.3
    endloop
  endfacet
  facet normal 0 0 1
    outer loop
      vertex 69.56927710843374 -52.5 48.3
      vertex 69.94633239294049 -51 48.3
      vertex 68 -51 48.3
    endloop
  endfacet
  facet normal 0 0 1
    outer loop
      vertex 75.01396432530657 -51.8672361958147 48.3
      vertex 75 -52.5 48.3
      vertex 75.05383185712611 -51.832171981081856 48.3
    endloop
  endfacet
  facet normal 0 0.25881904510251935 -0.9659258262890688
    outer loop
      vertex -104 -58 54.854895234552004
      vertex -112 -58 54.854895234552004
      vertex -112 -57.45846164292771 55
    endloop
  endfacet
  facet normal 0 0.25881904510251935 -0.9659258262890688
    outer loop
      vertex -104 -58 54.854895234552004
      vertex -112 -57.45846164292771 55
      vertex -104 -57.45846164292771 55
    endloop
  endfacet
  facet normal 0 0.25881904510251935 -0.9659258262890688
    outer loop
      vertex 76 -58 54.854895234552004
      vertex 68 -58 54.854895234552004
      vertex 68 -57.45846164292771 55
    endloop
  endfacet
  facet normal 0 0.25881904510251935 -0.9659258262890688
    outer loop
      vertex 76 -58 54.854895234552004
      vertex 68 -57.45846164292771 55
      vertex 76 -57.45846164292771 55
    endloop
  endfacet
  facet normal 0 0 1
    outer loop
      vertex -107.52854716524334 -51.52601621286715 48.3
      vertex -107.42404534413198 -51.39047754150848 48.3
      vertex -107.60109645235062 -51.129130155983596 48.3
    endloop
  endfacet
  facet normal 0 0 1
    outer loop
      vertex -107.5407798811619 -51.108655439013546 48.3
      vertex -107.60109645235062 -51.129130155983596 48.3
      vertex -107.42404534413198 -51.39047754150848 48.3
    endloop
  endfacet
  facet normal 0 0 1
    outer loop
      vertex -109.18697495536885 -50.28301613865723 48.3
      vertex -109.13137084989847 -50.43597145390714 48.3
      vertex -109.10865543901355 -50.45922011883811 48.3
    endloop
  endfacet
  facet normal 0 0 1
    outer loop
      vertex -109.15911099154688 -50.31058285412303 48.3
      vertex -109.18697495536885 -50.28301613865723 48.3
      vertex -109.10865543901355 -50.45922011883811 48.3
    endloop
  endfacet
  facet normal 0 0 1
    outer loop
      vertex 72.90450975668354 -50.99044074231092 48.3
      vertex 72.87402142006236 -50.86809680559681 48.3
      vertex 72.80063822679813 -50.89052646185744 48.3
    endloop
  endfacet
  facet normal 0 0 1
    outer loop
      vertex 72.87402142006236 -50.86809680559681 48.3
      vertex 72.84852813742386 -50.848528137423855 48.3
      vertex 72.80063822679813 -50.89052646185744 48.3
    endloop
  endfacet
  facet normal 0 0 1
    outer loop
      vertex 73.04570366531135 -50.606272559505896 48.3
      vertex 73.04531761606164 -50.60390626485048 48.3
      vertex 73.00979558394933 -50.644052441849475 48.3
    endloop
  endfacet
  facet normal 0 0 1
    outer loop
      vertex 73.04531761606164 -50.60390626485048 48.3
      vertex 73.03923048454132 -50.6 48.3
      vertex 73.00979558394933 -50.644052441849475 48.3
    endloop
  endfacet
endsolid OpenSCAD_Model
