solid OpenSCAD_Model
  facet normal 0 -1 0
    outer loop
      vertex -112 -58 58
      vertex -109 -58 58
      vertex -104 -58 60
    endloop
  endfacet
  facet normal 0 -1 0
    outer loop
      vertex -109 -58 58
      vertex -107.5 -58 58
      vertex -104 -58 60
    endloop
  endfacet
  facet normal 0 -1 0
    outer loop
      vertex -107.5 -58 58
      vertex -104 -58 58
      vertex -104 -58 60
    endloop
  endfacet
  facet normal 0 0 -1
    outer loop
      vertex -112 -58 58
      vertex -109 -57.289754819181894 58
      vertex -109 -58 58
    endloop
  endfacet
  facet normal 0 0 -1
    outer loop
      vertex -107.5 -58 58
      vertex -104 -57.289754819181894 58
      vertex -104 -58 58
    endloop
  endfacet
  facet normal -1 0 0
    outer loop
      vertex -112 -58 58
      vertex -112 -58 60
      vertex -112 -57.289754819181894 58
    endloop
  endfacet
  facet normal 1 0 0
    outer loop
      vertex -104 -58 58
      vertex -104 -57.289754819181894 58
      vertex -104 -57.82565320404414 60
    endloop
  endfacet
  facet normal 0 -1 0
    outer loop
      vertex -112 -58 58
      vertex -104 -58 60
      vertex -112 -58 60
    endloop
  endfacet
  facet normal 1 0 0
    outer loop
      vertex -104 -58 58
      vertex -104 -57.82565320404414 60
      vertex -104 -58 60
    endloop
  endfacet
  facet normal 0 0 1
    outer loop
      vertex -112 -58 60
      vertex -104 -58 60
      vertex -112 -57.82565320404414 60
    endloop
  endfacet
  facet normal 0 0 1
    outer loop
      vertex -104 -58 60
      vertex -104 -57.82565320404414 60
      vertex -112 -57.82565320404414 60
    endloop
  endfacet
  facet normal -1 0 0
    outer loop
      vertex -112 -58 60
      vertex -112 -57.82565320404414 60
      vertex -112 -57.289754819181894 58
    endloop
  endfacet
  facet normal 0 0 -1
    outer loop
      vertex -112 -58 58
      vertex -112 -57.289754819181894 58
      vertex -109 -57.289754819181894 58
    endloop
  endfacet
  facet normal 0 0 -1
    outer loop
      vertex -107.5 -58 58
      vertex -107.5 -57.28975481918189 58
      vertex -104 -57.289754819181894 58
    endloop
  endfacet
  facet normal 0 -1 0
    outer loop
      vertex -109 -58 58
      vertex -109 -58 54.854895234552004
      vertex -107.5 -58 54.854895234552004
    endloop
  endfacet
  facet normal 0 -1 0
    outer loop
      vertex -109 -58 58
      vertex -107.5 -58 54.854895234552004
      vertex -107.5 -58 58
    endloop
  endfacet
  facet normal 1 0 0
    outer loop
      vertex -107.5 -58 58
      vertex -107.5 -58 54.854895234552004
      vertex -107.5 -57.28975481918189 58
    endloop
  endfacet
  facet normal -1 0 0
    outer loop
      vertex -109 -58 58
      vertex -109 -56.55105603347697 55.2431386002598
      vertex -109 -58 54.854895234552004
    endloop
  endfacet
  facet normal 1 0 0
    outer loop
      vertex -107.5 -58 54.854895234552004
      vertex -107.5 -56.55105603347697 55.2431386002598
      vertex -107.5 -57.28975481918189 58
    endloop
  endfacet
  facet normal -1 0 0
    outer loop
      vertex -109 -58 58
      vertex -109 -57.289754819181894 58
      vertex -109 -56.55105603347697 55.2431386002598
    endloop
  endfacet
  facet normal 0 -1 0
    outer loop
      vertex 68 -58 58
      vertex 73.5 -58 58
      vertex 76 -58 60
    endloop
  endfacet
  facet normal 0 -1 0
    outer loop
      vertex 73.5 -58 58
      vertex 75 -58 58
      vertex 76 -58 60
    endloop
  endfacet
  facet normal 0 -1 0
    outer loop
      vertex 75 -58 58
      vertex 76 -58 58
      vertex 76 -58 60
    endloop
  endfacet
  facet normal 0 0 -1
    outer loop
      vertex 68 -58 58
      vertex 73.5 -57.28975481918189 58
      vertex 73.5 -58 58
    endloop
  endfacet
  facet normal 0 0 -1
    outer loop
      vertex 75 -58 58
      vertex 76 -57.28975481918189 58
      vertex 76 -58 58
    endloop
  endfacet
  facet normal -1 0 0
    outer loop
      vertex 68 -58 58
      vertex 68 -58 60
      vertex 68 -57.28975481918189 58
    endloop
  endfacet
  facet normal 1 0 0
    outer loop
      vertex 76 -58 58
      vertex 76 -57.28975481918189 58
      vertex 76 -57.82565320404414 60
    endloop
  endfacet
  facet normal 0 -1 0
    outer loop
      vertex 68 -58 58
      vertex 76 -58 60
      vertex 68 -58 60
    endloop
  endfacet
  facet normal 1 0 0
    outer loop
      vertex 76 -58 58
      vertex 76 -57.82565320404414 60
      vertex 76 -58 60
    endloop
  endfacet
  facet normal 0 0 1
    outer loop
      vertex 68 -58 60
      vertex 76 -58 60
      vertex 68 -57.82565320404414 60
    endloop
  endfacet
  facet normal 0 0 1
    outer loop
      vertex 76 -58 60
      vertex 76 -57.82565320404414 60
      vertex 68 -57.82565320404414 60
    endloop
  endfacet
  facet normal -1 0 0
    outer loop
      vertex 68 -58 60
      vertex 68 -57.82565320404414 60
      vertex 68 -57.28975481918189 58
    endloop
  endfacet
  facet normal 0 0 -1
    outer loop
      vertex 68 -58 58
      vertex 68 -57.28975481918189 58
      vertex 73.5 -57.28975481918189 58
    endloop
  endfacet
  facet normal 0 0 -1
    outer loop
      vertex 75 -58 58
      vertex 75 -57.28975481918189 58
      vertex 76 -57.28975481918189 58
    endloop
  endfacet
  facet normal 0 -1 0
    outer loop
      vertex 73.5 -58 58
      vertex 73.5 -58 54.854895234552004
      vertex 75 -58 54.854895234552004
    endloop
  endfacet
  facet normal 0 -1 0
    outer loop
      vertex 73.5 -58 58
      vertex 75 -58 54.854895234552004
      vertex 75 -58 58
    endloop
  endfacet
  facet normal 1 0 0
    outer loop
      vertex 75 -58 58
      vertex 75 -58 54.854895234552004
      vertex 75 -57.28975481918189 58
    endloop
  endfacet
  facet normal -1 0 0
    outer loop
      vertex 73.5 -58 58
      vertex 73.5 -56.55105603347697 55.2431386002598
      vertex 73.5 -58 54.854895234552004
    endloop
  endfacet
  facet normal 1 0 0
    outer loop
      vertex 75 -58 54.854895234552004
      vertex 75 -56.55105603347697 55.2431386002598
      vertex 75 -57.28975481918189 58
    endloop
  endfacet
  facet normal -1 0 0
    outer loop
      vertex 73.5 -58 58
      vertex 73.5 -57.28975481918189 58
      vertex 73.5 -56.55105603347697 55.2431386002598
    endloop
  endfacet
  facet normal 0 0.25881904510252063 -0.9659258262890684
    outer loop
      vertex -107.5 -58 54.854895234552004
      vertex -109 -58 54.854895234552004
      vertex -109 -56.55105603347697 55.2431386002598
    endloop
  endfacet
  facet normal 0 0.9659258262890685 0.25881904510251963
    outer loop
      vertex -112 -57.82565320404414 60
      vertex -104 -57.82565320404414 60
      vertex -109 -57.289754819181894 58
    endloop
  endfacet
  facet normal 0 0.9659258262890685 0.25881904510251963
    outer loop
      vertex -109 -57.289754819181894 58
      vertex -112 -57.289754819181894 58
      vertex -112 -57.82565320404414 60
    endloop
  endfacet
  facet normal -4.575543861018454e-15 0.9659258262890658 0.25881904510253034
    outer loop
      vertex -107.5 -57.28975481918189 58
      vertex -109 -57.289754819181894 58
      vertex -104 -57.82565320404414 60
    endloop
  endfacet
  facet normal 1.9609473690079144e-15 0.9659258262890686 0.2588190451025197
    outer loop
      vertex -104 -57.289754819181894 58
      vertex -107.5 -57.28975481918189 58
      vertex -104 -57.82565320404414 60
    endloop
  endfacet
  facet normal 0 0.25881904510252063 -0.9659258262890684
    outer loop
      vertex -107.5 -58 54.854895234552004
      vertex -109 -56.55105603347697 55.2431386002598
      vertex -107.5 -56.55105603347697 55.2431386002598
    endloop
  endfacet
  facet normal -4.564156043167978e-15 0.9659258262890679 0.25881904510252224
    outer loop
      vertex -109 -56.55105603347697 55.2431386002598
      vertex -109 -57.289754819181894 58
      vertex -107.5 -57.28975481918189 58
    endloop
  endfacet
  facet normal 0 0.9659258262890685 0.2588190451025199
    outer loop
      vertex -107.5 -57.28975481918189 58
      vertex -107.5 -56.55105603347697 55.2431386002598
      vertex -109 -56.55105603347697 55.2431386002598
    endloop
  endfacet
  facet normal 0 0.25881904510252063 -0.9659258262890684
    outer loop
      vertex 75 -58 54.854895234552004
      vertex 73.5 -58 54.854895234552004
      vertex 73.5 -56.55105603347697 55.2431386002598
    endloop
  endfacet
  facet normal 0 0.9659258262890678 0.25881904510252285
    outer loop
      vertex 76 -57.28975481918189 58
      vertex 68 -57.82565320404414 60
      vertex 76 -57.82565320404414 60
    endloop
  endfacet
  facet normal 0 0.9659258262890678 0.25881904510252285
    outer loop
      vertex 73.5 -57.28975481918189 58
      vertex 68 -57.28975481918189 58
      vertex 68 -57.82565320404414 60
    endloop
  endfacet
  facet normal 0 0.9659258262890676 0.25881904510252285
    outer loop
      vertex 68 -57.82565320404414 60
      vertex 75 -57.28975481918189 58
      vertex 73.5 -57.28975481918189 58
    endloop
  endfacet
  facet normal 0 0.9659258262890678 0.25881904510252285
    outer loop
      vertex 76 -57.28975481918189 58
      vertex 75 -57.28975481918189 58
      vertex 68 -57.82565320404414 60
    endloop
  endfacet
  facet normal 0 0.25881904510252063 -0.9659258262890684
    outer loop
      vertex 75 -58 54.854895234552004
      vertex 73.5 -56.55105603347697 55.2431386002598
      vertex 75 -56.55105603347697 55.2431386002598
    endloop
  endfacet
  facet normal 0 0.9659258262890685 0.2588190451025199
    outer loop
      vertex 73.5 -56.55105603347697 55.2431386002598
      vertex 73.5 -57.28975481918189 58
      vertex 75 -57.28975481918189 58
    endloop
  endfacet
  facet normal 0 0.9659258262890685 0.2588190451025199
    outer loop
      vertex 75 -57.28975481918189 58
      vertex 75 -56.55105603347697 55.2431386002598
      vertex 73.5 -56.55105603347697 55.2431386002598
    endloop
  endfacet
endsolid OpenSCAD_Model
