solid OpenSCAD_Model
  facet normal 0 -0.9999619230641713 -0.008726535498379092
    outer loop
      vertex 100 6.140792489087779 35.1329431271484
      vertex 100 6.141952666182094 35
      vertex 106 6.140792489087779 35.1329431271484
    endloop
  endfacet
  facet normal 0 0.9999619230641713 0.008726535498378726
    outer loop
      vertex 100 11.140602104408643 35.17657580464027
      vertex 106 11.140602104408643 35.17657580464027
      vertex 100 11.142143058110786 35
    endloop
  endfacet
  facet normal -1.4802410009790564e-16 -0.9999619230641713 -0.008726535498372412
    outer loop
      vertex 106 6.141952666182093 35
      vertex 106 6.140792489087779 35.1329431271484
      vertex 100 6.141952666182094 35
    endloop
  endfacet
  facet normal 2.96046359937027e-16 0.9999619230641713 0.008726535498368666
    outer loop
      vertex 106 11.140602104408643 35.17657580464027
      vertex 106 11.142143058110785 35
      vertex 100 11.142143058110786 35
    endloop
  endfacet
  facet normal 0 -0.008726535498374221 0.9999619230641713
    outer loop
      vertex 100 6.140792489087779 35.1329431271484
      vertex 106 11.140602104408643 35.17657580464027
      vertex 100 11.140602104408643 35.17657580464027
    endloop
  endfacet
  facet normal 0 -0.008726535498374221 0.9999619230641713
    outer loop
      vertex 100 6.140792489087779 35.1329431271484
      vertex 106 6.140792489087779 35.1329431271484
      vertex 106 11.140602104408643 35.17657580464027
    endloop
  endfacet
  facet normal -1 0 0
    outer loop
      vertex 100 6.141952666182094 35
      vertex 100 6.140792489087779 35.1329431271484
      vertex 100 11.142143058110786 35
    endloop
  endfacet
  facet normal 0 0 -1
    outer loop
      vertex 100 6.141952666182094 35
      vertex 100 11.142143058110786 35
      vertex 106 6.141952666182093 35
    endloop
  endfacet
  facet normal -1 0 0
    outer loop
      vertex 100 6.140792489087779 35.1329431271484
      vertex 100 11.140602104408643 35.17657580464027
      vertex 100 11.142143058110786 35
    endloop
  endfacet
  facet normal 1 0 0
    outer loop
      vertex 106 11.140602104408643 35.17657580464027
      vertex 106 6.140792489087779 35.1329431271484
      vertex 106 6.141952666182093 35
    endloop
  endfacet
  facet normal 0 0 -1
    outer loop
      vertex 100 11.142143058110786 35
      vertex 106 11.142143058110785 35
      vertex 106 6.141952666182093 35
    endloop
  endfacet
  facet normal 1 0 0
    outer loop
      vertex 106 11.140602104408643 35.17657580464027
      vertex 106 6.141952666182093 35
      vertex 106 11.142143058110785 35
    endloop
  endfacet
endsolid OpenSCAD_Model
