solid OpenSCAD_Model
  facet normal -1.4802627960544808e-16 -0.9999756307053947 -0.006981260297979728
    outer loop
      vertex 100 6.113006141915648 35.026256534607185
      vertex 100 6.113189450085354 35
      vertex 106 6.113189450085353 35
    endloop
  endfacet
  facet normal 0 0.9999756307053949 0.006981260297962724
    outer loop
      vertex 100 11.112884295442626 35.06116283609699
      vertex 106 11.112884295442626 35.06116283609699
      vertex 100 11.11331129952777 35
    endloop
  endfacet
  facet normal 0 -0.9999756307053949 -0.006981260297945904
    outer loop
      vertex 100 6.113006141915648 35.026256534607185
      vertex 106 6.113189450085353 35
      vertex 106 6.113006141915648 35.026256534607185
    endloop
  endfacet
  facet normal 0 0.9999756307053949 0.006981260297962724
    outer loop
      vertex 106 11.112884295442626 35.06116283609699
      vertex 106 11.11331129952777 35
      vertex 100 11.11331129952777 35
    endloop
  endfacet
  facet normal 0 -0.006981260297960995 0.9999756307053949
    outer loop
      vertex 100 6.113006141915648 35.026256534607185
      vertex 106 11.112884295442626 35.06116283609699
      vertex 100 11.112884295442626 35.06116283609699
    endloop
  endfacet
  facet normal 0 -0.006981260297960995 0.9999756307053949
    outer loop
      vertex 100 6.113006141915648 35.026256534607185
      vertex 106 6.113006141915648 35.026256534607185
      vertex 106 11.112884295442626 35.06116283609699
    endloop
  endfacet
  facet normal -1 0 0
    outer loop
      vertex 100 6.113006141915648 35.026256534607185
      vertex 100 11.11331129952777 35
      vertex 100 6.113189450085354 35
    endloop
  endfacet
  facet normal 0 0 -1
    outer loop
      vertex 100 11.11331129952777 35
      vertex 106 6.113189450085353 35
      vertex 100 6.113189450085354 35
    endloop
  endfacet
  facet normal -1 0 0
    outer loop
      vertex 100 6.113006141915648 35.026256534607185
      vertex 100 11.112884295442626 35.06116283609699
      vertex 100 11.11331129952777 35
    endloop
  endfacet
  facet normal 1 0 0
    outer loop
      vertex 106 11.112884295442626 35.06116283609699
      vertex 106 6.113006141915648 35.026256534607185
      vertex 106 6.113189450085353 35
    endloop
  endfacet
  facet normal 0 0 -1
    outer loop
      vertex 100 11.11331129952777 35
      vertex 106 11.11331129952777 35
      vertex 106 6.113189450085353 35
    endloop
  endfacet
  facet normal 1 0 0
    outer loop
      vertex 106 11.112884295442626 35.06116283609699
      vertex 106 6.113189450085353 35
      vertex 106 11.11331129952777 35
    endloop
  endfacet
endsolid OpenSCAD_Model
