solid OpenSCAD_Model
  facet normal 0 -0.9993908270190957 -0.03489949670250078
    outer loop
      vertex 100 6.595914514096095 35
      vertex 106 6.535192194085859 36.73885973573939
      vertex 100 6.535192194085859 36.73885973573939
    endloop
  endfacet
  facet normal 0 0.9993908270190958 0.034899496702500706
    outer loop
      vertex 100 11.53214632918133 36.91335721925189
      vertex 106 11.598962235590196 35
      vertex 100 11.598962235590196 35
    endloop
  endfacet
  facet normal 0 -0.9993908270190957 -0.03489949670250078
    outer loop
      vertex 106 6.535192194085859 36.73885973573939
      vertex 100 6.595914514096095 35
      vertex 106 6.595914514096095 35
    endloop
  endfacet
  facet normal 0 0.9993908270190958 0.034899496702500706
    outer loop
      vertex 100 11.53214632918133 36.91335721925189
      vertex 106 11.53214632918133 36.91335721925189
      vertex 106 11.598962235590196 35
    endloop
  endfacet
  facet normal 0 -0.03489949670250075 0.9993908270190957
    outer loop
      vertex 106 11.53214632918133 36.91335721925189
      vertex 100 11.53214632918133 36.91335721925189
      vertex 100 6.535192194085859 36.73885973573939
    endloop
  endfacet
  facet normal 0 -0.03489949670250075 0.9993908270190957
    outer loop
      vertex 100 6.535192194085859 36.73885973573939
      vertex 106 6.535192194085859 36.73885973573939
      vertex 106 11.53214632918133 36.91335721925189
    endloop
  endfacet
  facet normal 0 0 -1
    outer loop
      vertex 100 6.595914514096095 35
      vertex 100 11.598962235590196 35
      vertex 106 6.595914514096095 35
    endloop
  endfacet
  facet normal -1 0 0
    outer loop
      vertex 100 11.53214632918133 36.91335721925189
      vertex 100 6.595914514096095 35
      vertex 100 6.535192194085859 36.73885973573939
    endloop
  endfacet
  facet normal -1 0 0
    outer loop
      vertex 100 11.53214632918133 36.91335721925189
      vertex 100 11.598962235590196 35
      vertex 100 6.595914514096095 35
    endloop
  endfacet
  facet normal 1 0 0
    outer loop
      vertex 106 6.535192194085859 36.73885973573939
      vertex 106 6.595914514096095 35
      vertex 106 11.598962235590196 35
    endloop
  endfacet
  facet normal 0 0 -1
    outer loop
      vertex 100 11.598962235590196 35
      vertex 106 11.598962235590196 35
      vertex 106 6.595914514096095 35
    endloop
  endfacet
  facet normal 1 0 0
    outer loop
      vertex 106 11.53214632918133 36.91335721925189
      vertex 106 6.535192194085859 36.73885973573939
      vertex 106 11.598962235590196 35
    endloop
  endfacet
endsolid OpenSCAD_Model
