solid OpenSCAD_Model
  facet normal -1.480071909708027e-16 -0.9998476951563914 -0.01745240643728355
    outer loop
      vertex 100 6.2885730495298535 35
      vertex 106 6.288573049529853 35
      vertex 100 6.27692887011132 35.66709459210948
    endloop
  endfacet
  facet normal 0 0.9998476951563913 0.01745240643728626
    outer loop
      vertex 100 11.27616734589327 35.754356624295895
      vertex 106 11.27616734589327 35.754356624295895
      vertex 100 11.289334689749388 35
    endloop
  endfacet
  facet normal 0 -0.9998476951563914 -0.017452406437282218
    outer loop
      vertex 106 6.288573049529853 35
      vertex 106 6.27692887011132 35.66709459210948
      vertex 100 6.27692887011132 35.66709459210948
    endloop
  endfacet
  facet normal 0 0.9998476951563913 0.01745240643728626
    outer loop
      vertex 106 11.27616734589327 35.754356624295895
      vertex 106 11.289334689749388 35
      vertex 100 11.289334689749388 35
    endloop
  endfacet
  facet normal 0 -0.017452406437283248 0.9998476951563913
    outer loop
      vertex 106 11.27616734589327 35.754356624295895
      vertex 100 11.27616734589327 35.754356624295895
      vertex 100 6.27692887011132 35.66709459210948
    endloop
  endfacet
  facet normal 0 -0.017452406437283248 0.9998476951563913
    outer loop
      vertex 100 6.27692887011132 35.66709459210948
      vertex 106 6.27692887011132 35.66709459210948
      vertex 106 11.27616734589327 35.754356624295895
    endloop
  endfacet
  facet normal -1 0 0
    outer loop
      vertex 100 6.27692887011132 35.66709459210948
      vertex 100 11.289334689749388 35
      vertex 100 6.2885730495298535 35
    endloop
  endfacet
  facet normal 0 0 -1
    outer loop
      vertex 100 6.2885730495298535 35
      vertex 100 11.289334689749388 35
      vertex 106 6.288573049529853 35
    endloop
  endfacet
  facet normal -1 0 0
    outer loop
      vertex 100 11.27616734589327 35.754356624295895
      vertex 100 11.289334689749388 35
      vertex 100 6.27692887011132 35.66709459210948
    endloop
  endfacet
  facet normal 1 0 0
    outer loop
      vertex 106 11.27616734589327 35.754356624295895
      vertex 106 6.27692887011132 35.66709459210948
      vertex 106 6.288573049529853 35
    endloop
  endfacet
  facet normal 0 0 -1
    outer loop
      vertex 100 11.289334689749388 35
      vertex 106 11.289334689749388 35
      vertex 106 6.288573049529853 35
    endloop
  endfacet
  facet normal 1 0 0
    outer loop
      vertex 106 11.27616734589327 35.754356624295895
      vertex 106 6.288573049529853 35
      vertex 106 11.289334689749388 35
    endloop
  endfacet
endsolid OpenSCAD_Model
