solid OpenSCAD_Model
  facet normal -1 0 0
    outer loop
      vertex 77.5 28 8.3
      vertex 77.5 28 9.5
      vertex 77.5 50.5 9.5
    endloop
  endfacet
  facet normal 0 0 1
    outer loop
      vertex 77.5 28 9.5
      vertex 78.5 29 9.5
      vertex 77.5 50.5 9.5
    endloop
  endfacet
  facet normal 0 -1 0
    outer loop
      vertex 77.5 28 8.3
      vertex 95.3 28 9.5
      vertex 77.5 28 9.5
    endloop
  endfacet
  facet normal 0 0 1
    outer loop
      vertex 77.5 28 9.5
      vertex 94.3 29 9.5
      vertex 78.5 29 9.5
    endloop
  endfacet
  facet normal -1 0 0
    outer loop
      vertex 77.5 28 8.3
      vertex 77.5 50.5 9.5
      vertex 77.5 50.5 8.3
    endloop
  endfacet
  facet normal 0 0 1
    outer loop
      vertex 78.5 29 9.5
      vertex 78.5 49.5 9.5
      vertex 77.5 50.5 9.5
    endloop
  endfacet
  facet normal 0 0 1
    outer loop
      vertex 77.5 50.5 9.5
      vertex 78.5 49.5 9.5
      vertex 81.5 50.5 9.5
    endloop
  endfacet
  facet normal 0 0 1
    outer loop
      vertex 78.5 49.5 9.5
      vertex 81.5 49.5 9.5
      vertex 81.5 50.5 9.5
    endloop
  endfacet
  facet normal 0 0 -1
    outer loop
      vertex 77.5 28 8.3
      vertex 77.5 50.5 8.3
      vertex 95.3 50.5 8.3
    endloop
  endfacet
  facet normal 0 1 0
    outer loop
      vertex 77.5 50.5 8.3
      vertex 77.5 50.5 9.5
      vertex 95.3 50.5 8.3
    endloop
  endfacet
  facet normal 0 1 0
    outer loop
      vertex 77.5 50.5 9.5
      vertex 81.5 50.5 9.5
      vertex 95.3 50.5 8.3
    endloop
  endfacet
  facet normal 0 -1 0
    outer loop
      vertex 77.5 28 8.3
      vertex 95.3 28 8.3
      vertex 95.3 28 9.5
    endloop
  endfacet
  facet normal 0 0 1
    outer loop
      vertex 77.5 28 9.5
      vertex 95.3 28 9.5
      vertex 94.3 29 9.5
    endloop
  endfacet
  facet normal 0 0 -1
    outer loop
      vertex 77.5 28 8.3
      vertex 95.3 50.5 8.3
      vertex 95.3 28 8.3
    endloop
  endfacet
  facet normal 1 0 0
    outer loop
      vertex 95.3 28 8.3
      vertex 95.3 50.5 8.3
      vertex 95.3 28 9.5
    endloop
  endfacet
  facet normal 0 0 1
    outer loop
      vertex 94.3 29 9.5
      vertex 95.3 28 9.5
      vertex 94.3 49.5 9.5
    endloop
  endfacet
  facet normal 0 1 0
    outer loop
      vertex 95.3 50.5 8.3
      vertex 81.5 50.5 9.5
      vertex 90.5 50.5 9.5
    endloop
  endfacet
  facet normal 0 0 1
    outer loop
      vertex 95.3 28 9.5
      vertex 95.3 50.5 9.5
      vertex 94.3 49.5 9.5
    endloop
  endfacet
  facet normal 1 0 0
    outer loop
      vertex 95.3 28 9.5
      vertex 95.3 50.5 8.3
      vertex 95.3 50.5 9.5
    endloop
  endfacet
  facet normal 0 0 1
    outer loop
      vertex 94.3 49.5 9.5
      vertex 90.5 50.5 9.5
      vertex 90.5 49.5 9.5
    endloop
  endfacet
  facet normal 0 0 1
    outer loop
      vertex 94.3 49.5 9.5
      vertex 95.3 50.5 9.5
      vertex 90.5 50.5 9.5
    endloop
  endfacet
  facet normal 0 1 0
    outer loop
      vertex 95.3 50.5 8.3
      vertex 90.5 50.5 9.5
      vertex 95.3 50.5 9.5
    endloop
  endfacet
  facet normal -1 0 0
    outer loop
      vertex 78.5 29 9.5
      vertex 78.5 29 14.5
      vertex 78.5 49.5 14.5
    endloop
  endfacet
  facet normal 0 -1 0
    outer loop
      vertex 78.5 29 9.5
      vertex 94.3 29 14.5
      vertex 78.5 29 14.5
    endloop
  endfacet
  facet normal 0 0 1
    outer loop
      vertex 78.5 29 14.5
      vertex 94.3 29 14.5
      vertex 78.5 49.5 14.5
    endloop
  endfacet
  facet normal -1 0 0
    outer loop
      vertex 78.5 29 9.5
      vertex 78.5 49.5 14.5
      vertex 78.5 49.5 9.5
    endloop
  endfacet
  facet normal 0 1 0
    outer loop
      vertex 78.5 49.5 9.5
      vertex 81.5 49.5 12.8
      vertex 81.5 49.5 9.5
    endloop
  endfacet
  facet normal 0 1 0
    outer loop
      vertex 78.5 49.5 9.5
      vertex 78.5 49.5 14.5
      vertex 81.5 49.5 12.8
    endloop
  endfacet
  facet normal 0 1 0
    outer loop
      vertex 78.5 49.5 14.5
      vertex 94.3 49.5 14.5
      vertex 81.5 49.5 12.8
    endloop
  endfacet
  facet normal 0 -1 0
    outer loop
      vertex 78.5 29 9.5
      vertex 94.3 29 9.5
      vertex 94.3 29 14.5
    endloop
  endfacet
  facet normal 1 0 0
    outer loop
      vertex 94.3 29 9.5
      vertex 94.3 49.5 9.5
      vertex 94.3 29 14.5
    endloop
  endfacet
  facet normal 0 1 0
    outer loop
      vertex 94.3 49.5 9.5
      vertex 90.5 49.5 9.5
      vertex 90.5 49.5 12.8
    endloop
  endfacet
  facet normal 0 0 1
    outer loop
      vertex 78.5 49.5 14.5
      vertex 94.3 29 14.5
      vertex 94.3 49.5 14.5
    endloop
  endfacet
  facet normal 0 1 0
    outer loop
      vertex 94.3 49.5 14.5
      vertex 90.5 49.5 12.8
      vertex 81.5 49.5 12.8
    endloop
  endfacet
  facet normal 1 0 0
    outer loop
      vertex 94.3 29 14.5
      vertex 94.3 49.5 9.5
      vertex 94.3 49.5 14.5
    endloop
  endfacet
  facet normal 0 1 0
    outer loop
      vertex 94.3 49.5 9.5
      vertex 90.5 49.5 12.8
      vertex 94.3 49.5 14.5
    endloop
  endfacet
  facet normal -1 0 0
    outer loop
      vertex 81.5 52 12.8
      vertex 81.5 50.5 9.5
      vertex 81.5 49.5 9.5
    endloop
  endfacet
  facet normal -1 0 0
    outer loop
      vertex 81.5 52 9.5
      vertex 81.5 50.5 9.5
      vertex 81.5 52 12.8
    endloop
  endfacet
  facet normal 0 0 -1
    outer loop
      vertex 81.5 52 9.5
      vertex 90.5 50.5 9.5
      vertex 81.5 50.5 9.5
    endloop
  endfacet
  facet normal 0 1 0
    outer loop
      vertex 81.5 52 9.5
      vertex 81.5 52 12.8
      vertex 90.5 52 9.5
    endloop
  endfacet
  facet normal -1 0 0
    outer loop
      vertex 81.5 52 12.8
      vertex 81.5 49.5 9.5
      vertex 81.5 49.5 12.8
    endloop
  endfacet
  facet normal 0 0 1
    outer loop
      vertex 81.5 52 12.8
      vertex 81.5 49.5 12.8
      vertex 90.5 52 12.8
    endloop
  endfacet
  facet normal 0 0 -1
    outer loop
      vertex 81.5 52 9.5
      vertex 90.5 52 9.5
      vertex 90.5 50.5 9.5
    endloop
  endfacet
  facet normal 1 0 0
    outer loop
      vertex 90.5 49.5 12.8
      vertex 90.5 49.5 9.5
      vertex 90.5 50.5 9.5
    endloop
  endfacet
  facet normal 1 0 0
    outer loop
      vertex 90.5 52 9.5
      vertex 90.5 49.5 12.8
      vertex 90.5 50.5 9.5
    endloop
  endfacet
  facet normal 0 1 0
    outer loop
      vertex 81.5 52 12.8
      vertex 90.5 52 12.8
      vertex 90.5 52 9.5
    endloop
  endfacet
  facet normal 0 0 1
    outer loop
      vertex 90.5 52 12.8
      vertex 81.5 49.5 12.8
      vertex 90.5 49.5 12.8
    endloop
  endfacet
  facet normal 1 0 0
    outer loop
      vertex 90.5 52 9.5
      vertex 90.5 52 12.8
      vertex 90.5 49.5 12.8
    endloop
  endfacet
endsolid OpenSCAD_Model
