solid OpenSCAD_Model
  facet normal 0.9978589232386044 0.06540312923012999 0
    outer loop
      vertex 110.5 -11.5 35.6
      vertex 110.48716729206072 -11.304210711669922 33.6
      vertex 110.48716729206072 -11.304210711669922 35.6
    endloop
  endfacet
  facet normal 0.9978589232386044 0.06540312923012999 0
    outer loop
      vertex 110.48716729206072 -11.304210711669922 33.6
      vertex 110.5 -11.5 35.6
      vertex 110.5 -11.5 33.6
    endloop
  endfacet
  facet normal 0.9807852804032247 0.19509032201615759 0
    outer loop
      vertex 110.48716729206072 -11.304210711669922 35.6
      vertex 110.4488887394336 -11.111771432346218 33.6
      vertex 110.4488887394336 -11.111771432346218 35.6
    endloop
  endfacet
  facet normal 0.9807852804032247 0.19509032201615759 0
    outer loop
      vertex 110.4488887394336 -11.111771432346218 33.6
      vertex 110.48716729206072 -11.304210711669922 35.6
      vertex 110.48716729206072 -11.304210711669922 33.6
    endloop
  endfacet
  facet normal 0.9469301294951151 0.32143946530313383 0
    outer loop
      vertex 110.4488887394336 -11.111771432346218 35.6
      vertex 110.38581929876693 -10.925974851452365 33.6
      vertex 110.38581929876693 -10.925974851452365 35.6
    endloop
  endfacet
  facet normal 0.9469301294951151 0.32143946530313383 0
    outer loop
      vertex 110.38581929876693 -10.925974851452365 33.6
      vertex 110.4488887394336 -11.111771432346218 35.6
      vertex 110.4488887394336 -11.111771432346218 33.6
    endloop
  endfacet
  facet normal 0.8968727415326827 0.44228869021901285 0
    outer loop
      vertex 110.38581929876693 -10.925974851452365 35.6
      vertex 110.29903810567666 -10.75 33.6
      vertex 110.29903810567666 -10.75 35.6
    endloop
  endfacet
  facet normal 0.8968727415326827 0.44228869021901285 0
    outer loop
      vertex 110.29903810567666 -10.75 33.6
      vertex 110.38581929876693 -10.925974851452365 35.6
      vertex 110.38581929876693 -10.925974851452365 33.6
    endloop
  endfacet
  facet normal 0.831469612302555 0.5555702330195875 0
    outer loop
      vertex 110.29903810567666 -10.75 35.6
      vertex 110.19003001043686 -10.586857856486919 33.6
      vertex 110.19003001043686 -10.586857856486919 35.6
    endloop
  endfacet
  facet normal 0.831469612302555 0.5555702330195875 0
    outer loop
      vertex 110.19003001043686 -10.586857856486919 33.6
      vertex 110.29903810567666 -10.75 35.6
      vertex 110.29903810567666 -10.75 33.6
    endloop
  endfacet
  facet normal 0.7518398074789517 0.659345815100098 0
    outer loop
      vertex 110.19003001043686 -10.586857856486919 35.6
      vertex 110.06066017177982 -10.439339828220179 33.6
      vertex 110.06066017177982 -10.439339828220179 35.6
    endloop
  endfacet
  facet normal 0.7518398074789517 0.659345815100098 0
    outer loop
      vertex 110.06066017177982 -10.439339828220179 33.6
      vertex 110.19003001043686 -10.586857856486919 35.6
      vertex 110.19003001043686 -10.586857856486919 33.6
    endloop
  endfacet
  facet normal 0.6593458151000949 0.7518398074789545 0
    outer loop
      vertex 110.06066017177982 -10.439339828220179 33.6
      vertex 109.91314214351308 -10.309969989563147 35.6
      vertex 110.06066017177982 -10.439339828220179 35.6
    endloop
  endfacet
  facet normal 0.6593458151000949 0.7518398074789545 0
    outer loop
      vertex 109.91314214351308 -10.309969989563147 35.6
      vertex 110.06066017177982 -10.439339828220179 33.6
      vertex 109.91314214351308 -10.309969989563147 33.6
    endloop
  endfacet
  facet normal 0.5555702330195917 0.8314696123025522 0
    outer loop
      vertex 109.91314214351308 -10.309969989563147 33.6
      vertex 109.75 -10.200961894323342 35.6
      vertex 109.91314214351308 -10.309969989563147 35.6
    endloop
  endfacet
  facet normal 0.5555702330195917 0.8314696123025522 0
    outer loop
      vertex 109.75 -10.200961894323342 35.6
      vertex 109.91314214351308 -10.309969989563147 33.6
      vertex 109.75 -10.200961894323342 33.6
    endloop
  endfacet
  facet normal 0.44228869021899464 0.8968727415326915 0
    outer loop
      vertex 109.75 -10.200961894323342 33.6
      vertex 109.57402514854763 -10.114180701233071 35.6
      vertex 109.75 -10.200961894323342 35.6
    endloop
  endfacet
  facet normal 0.44228869021899464 0.8968727415326915 0
    outer loop
      vertex 109.57402514854763 -10.114180701233071 35.6
      vertex 109.75 -10.200961894323342 33.6
      vertex 109.57402514854763 -10.114180701233071 33.6
    endloop
  endfacet
  facet normal 0.32143946530317186 0.9469301294951022 0
    outer loop
      vertex 109.57402514854763 -10.114180701233071 33.6
      vertex 109.38822856765378 -10.051111260566397 35.6
      vertex 109.57402514854763 -10.114180701233071 35.6
    endloop
  endfacet
  facet normal 0.32143946530317186 0.9469301294951022 0
    outer loop
      vertex 109.38822856765378 -10.051111260566397 35.6
      vertex 109.57402514854763 -10.114180701233071 33.6
      vertex 109.38822856765378 -10.051111260566397 33.6
    endloop
  endfacet
  facet normal 0.1950903220161193 0.9807852804032323 0
    outer loop
      vertex 109.38822856765378 -10.051111260566397 33.6
      vertex 109.19578928833008 -10.012832707939285 35.6
      vertex 109.38822856765378 -10.051111260566397 35.6
    endloop
  endfacet
  facet normal 0.1950903220161193 0.9807852804032323 0
    outer loop
      vertex 109.19578928833008 -10.012832707939285 35.6
      vertex 109.38822856765378 -10.051111260566397 33.6
      vertex 109.19578928833008 -10.012832707939285 33.6
    endloop
  endfacet
  facet normal 0.0654031292301486 0.997858923238603 0
    outer loop
      vertex 109.19578928833008 -10.012832707939285 33.6
      vertex 109 -10 35.6
      vertex 109.19578928833008 -10.012832707939285 35.6
    endloop
  endfacet
  facet normal 0.0654031292301486 0.997858923238603 0
    outer loop
      vertex 109 -10 35.6
      vertex 109.19578928833008 -10.012832707939285 33.6
      vertex 109 -10 33.6
    endloop
  endfacet
  facet normal -0.0654031292301486 0.997858923238603 0
    outer loop
      vertex 109 -10 33.6
      vertex 108.80421071166992 -10.012832707939285 35.6
      vertex 109 -10 35.6
    endloop
  endfacet
  facet normal -0.0654031292301486 0.997858923238603 0
    outer loop
      vertex 108.80421071166992 -10.012832707939285 35.6
      vertex 109 -10 33.6
      vertex 108.80421071166992 -10.012832707939285 33.6
    endloop
  endfacet
  facet normal -0.1950903220161193 0.9807852804032323 0
    outer loop
      vertex 108.80421071166992 -10.012832707939285 33.6
      vertex 108.61177143234622 -10.051111260566397 35.6
      vertex 108.80421071166992 -10.012832707939285 35.6
    endloop
  endfacet
  facet normal -0.1950903220161193 0.9807852804032323 0
    outer loop
      vertex 108.61177143234622 -10.051111260566397 35.6
      vertex 108.80421071166992 -10.012832707939285 33.6
      vertex 108.61177143234622 -10.051111260566397 33.6
    endloop
  endfacet
  facet normal -0.32143946530317186 0.9469301294951022 0
    outer loop
      vertex 108.61177143234622 -10.051111260566397 33.6
      vertex 108.42597485145237 -10.114180701233071 35.6
      vertex 108.61177143234622 -10.051111260566397 35.6
    endloop
  endfacet
  facet normal -0.32143946530317186 0.9469301294951022 0
    outer loop
      vertex 108.42597485145237 -10.114180701233071 35.6
      vertex 108.61177143234622 -10.051111260566397 33.6
      vertex 108.42597485145237 -10.114180701233071 33.6
    endloop
  endfacet
  facet normal -0.44228869021899464 0.8968727415326915 0
    outer loop
      vertex 108.42597485145237 -10.114180701233071 33.6
      vertex 108.25 -10.200961894323342 35.6
      vertex 108.42597485145237 -10.114180701233071 35.6
    endloop
  endfacet
  facet normal -0.44228869021899464 0.8968727415326915 0
    outer loop
      vertex 108.25 -10.200961894323342 35.6
      vertex 108.42597485145237 -10.114180701233071 33.6
      vertex 108.25 -10.200961894323342 33.6
    endloop
  endfacet
  facet normal -0.5555702330195917 0.8314696123025522 0
    outer loop
      vertex 108.25 -10.200961894323342 33.6
      vertex 108.08685785648692 -10.309969989563147 35.6
      vertex 108.25 -10.200961894323342 35.6
    endloop
  endfacet
  facet normal -0.5555702330195917 0.8314696123025522 0
    outer loop
      vertex 108.08685785648692 -10.309969989563147 35.6
      vertex 108.25 -10.200961894323342 33.6
      vertex 108.08685785648692 -10.309969989563147 33.6
    endloop
  endfacet
  facet normal -0.6593458151000949 0.7518398074789545 0
    outer loop
      vertex 108.08685785648692 -10.309969989563147 33.6
      vertex 107.93933982822018 -10.439339828220179 35.6
      vertex 108.08685785648692 -10.309969989563147 35.6
    endloop
  endfacet
  facet normal -0.6593458151000949 0.7518398074789545 0
    outer loop
      vertex 107.93933982822018 -10.439339828220179 35.6
      vertex 108.08685785648692 -10.309969989563147 33.6
      vertex 107.93933982822018 -10.439339828220179 33.6
    endloop
  endfacet
  facet normal -0.7518398074789517 0.659345815100098 0
    outer loop
      vertex 107.80996998956314 -10.586857856486919 33.6
      vertex 107.93933982822018 -10.439339828220179 35.6
      vertex 107.93933982822018 -10.439339828220179 33.6
    endloop
  endfacet
  facet normal -0.7518398074789517 0.659345815100098 0
    outer loop
      vertex 107.93933982822018 -10.439339828220179 35.6
      vertex 107.80996998956314 -10.586857856486919 33.6
      vertex 107.80996998956314 -10.586857856486919 35.6
    endloop
  endfacet
  facet normal -0.831469612302555 0.5555702330195875 0
    outer loop
      vertex 107.70096189432334 -10.75 33.6
      vertex 107.80996998956314 -10.586857856486919 35.6
      vertex 107.80996998956314 -10.586857856486919 33.6
    endloop
  endfacet
  facet normal -0.831469612302555 0.5555702330195875 0
    outer loop
      vertex 107.80996998956314 -10.586857856486919 35.6
      vertex 107.70096189432334 -10.75 33.6
      vertex 107.70096189432334 -10.75 35.6
    endloop
  endfacet
  facet normal -0.8968727415326827 0.44228869021901285 0
    outer loop
      vertex 107.61418070123307 -10.925974851452365 33.6
      vertex 107.70096189432334 -10.75 35.6
      vertex 107.70096189432334 -10.75 33.6
    endloop
  endfacet
  facet normal -0.8968727415326827 0.44228869021901285 0
    outer loop
      vertex 107.70096189432334 -10.75 35.6
      vertex 107.61418070123307 -10.925974851452365 33.6
      vertex 107.61418070123307 -10.925974851452365 35.6
    endloop
  endfacet
  facet normal -0.9469301294951151 0.32143946530313383 0
    outer loop
      vertex 107.5511112605664 -11.111771432346218 33.6
      vertex 107.61418070123307 -10.925974851452365 35.6
      vertex 107.61418070123307 -10.925974851452365 33.6
    endloop
  endfacet
  facet normal -0.9469301294951151 0.32143946530313383 0
    outer loop
      vertex 107.61418070123307 -10.925974851452365 35.6
      vertex 107.5511112605664 -11.111771432346218 33.6
      vertex 107.5511112605664 -11.111771432346218 35.6
    endloop
  endfacet
  facet normal -0.9807852804032247 0.19509032201615759 0
    outer loop
      vertex 107.51283270793928 -11.304210711669922 33.6
      vertex 107.5511112605664 -11.111771432346218 35.6
      vertex 107.5511112605664 -11.111771432346218 33.6
    endloop
  endfacet
  facet normal -0.9807852804032247 0.19509032201615759 0
    outer loop
      vertex 107.5511112605664 -11.111771432346218 35.6
      vertex 107.51283270793928 -11.304210711669922 33.6
      vertex 107.51283270793928 -11.304210711669922 35.6
    endloop
  endfacet
  facet normal -0.9978589232386044 0.06540312923012999 0
    outer loop
      vertex 107.5 -11.5 33.6
      vertex 107.51283270793928 -11.304210711669922 35.6
      vertex 107.51283270793928 -11.304210711669922 33.6
    endloop
  endfacet
  facet normal -0.9978589232386044 0.06540312923012999 0
    outer loop
      vertex 107.51283270793928 -11.304210711669922 35.6
      vertex 107.5 -11.5 33.6
      vertex 107.5 -11.5 35.6
    endloop
  endfacet
  facet normal -0.9978589232386044 -0.06540312923012999 0
    outer loop
      vertex 107.51283270793928 -11.695789288330078 33.6
      vertex 107.5 -11.5 35.6
      vertex 107.5 -11.5 33.6
    endloop
  endfacet
  facet normal -0.9978589232386044 -0.06540312923012999 0
    outer loop
      vertex 107.5 -11.5 35.6
      vertex 107.51283270793928 -11.695789288330078 33.6
      vertex 107.51283270793928 -11.695789288330078 35.6
    endloop
  endfacet
  facet normal -0.9807852804032247 -0.19509032201615759 0
    outer loop
      vertex 107.5511112605664 -11.888228567653782 33.6
      vertex 107.51283270793928 -11.695789288330078 35.6
      vertex 107.51283270793928 -11.695789288330078 33.6
    endloop
  endfacet
  facet normal -0.9807852804032247 -0.19509032201615759 0
    outer loop
      vertex 107.51283270793928 -11.695789288330078 35.6
      vertex 107.5511112605664 -11.888228567653782 33.6
      vertex 107.5511112605664 -11.888228567653782 35.6
    endloop
  endfacet
  facet normal -0.9469301294951151 -0.32143946530313383 0
    outer loop
      vertex 107.61418070123307 -12.074025148547635 33.6
      vertex 107.5511112605664 -11.888228567653782 35.6
      vertex 107.5511112605664 -11.888228567653782 33.6
    endloop
  endfacet
  facet normal -0.9469301294951151 -0.32143946530313383 0
    outer loop
      vertex 107.5511112605664 -11.888228567653782 35.6
      vertex 107.61418070123307 -12.074025148547635 33.6
      vertex 107.61418070123307 -12.074025148547635 35.6
    endloop
  endfacet
  facet normal -0.8968727415326827 -0.44228869021901285 0
    outer loop
      vertex 107.70096189432334 -12.25 33.6
      vertex 107.61418070123307 -12.074025148547635 35.6
      vertex 107.61418070123307 -12.074025148547635 33.6
    endloop
  endfacet
  facet normal -0.8968727415326827 -0.44228869021901285 0
    outer loop
      vertex 107.61418070123307 -12.074025148547635 35.6
      vertex 107.70096189432334 -12.25 33.6
      vertex 107.70096189432334 -12.25 35.6
    endloop
  endfacet
  facet normal -0.831469612302555 -0.5555702330195875 0
    outer loop
      vertex 107.80996998956314 -12.413142143513081 33.6
      vertex 107.70096189432334 -12.25 35.6
      vertex 107.70096189432334 -12.25 33.6
    endloop
  endfacet
  facet normal -0.831469612302555 -0.5555702330195875 0
    outer loop
      vertex 107.70096189432334 -12.25 35.6
      vertex 107.80996998956314 -12.413142143513081 33.6
      vertex 107.80996998956314 -12.413142143513081 35.6
    endloop
  endfacet
  facet normal -0.7518398074789517 -0.659345815100098 0
    outer loop
      vertex 107.93933982822018 -12.560660171779821 33.6
      vertex 107.80996998956314 -12.413142143513081 35.6
      vertex 107.80996998956314 -12.413142143513081 33.6
    endloop
  endfacet
  facet normal -0.7518398074789517 -0.659345815100098 0
    outer loop
      vertex 107.80996998956314 -12.413142143513081 35.6
      vertex 107.93933982822018 -12.560660171779821 33.6
      vertex 107.93933982822018 -12.560660171779821 35.6
    endloop
  endfacet
  facet normal -0.6593458151000949 -0.7518398074789545 0
    outer loop
      vertex 107.93933982822018 -12.560660171779821 33.6
      vertex 108.08685785648692 -12.690030010436853 35.6
      vertex 107.93933982822018 -12.560660171779821 35.6
    endloop
  endfacet
  facet normal -0.6593458151000949 -0.7518398074789545 0
    outer loop
      vertex 108.08685785648692 -12.690030010436853 35.6
      vertex 107.93933982822018 -12.560660171779821 33.6
      vertex 108.08685785648692 -12.690030010436853 33.6
    endloop
  endfacet
  facet normal -0.5555702330195917 -0.8314696123025522 0
    outer loop
      vertex 108.08685785648692 -12.690030010436853 33.6
      vertex 108.25 -12.799038105676658 35.6
      vertex 108.08685785648692 -12.690030010436853 35.6
    endloop
  endfacet
  facet normal -0.5555702330195917 -0.8314696123025522 0
    outer loop
      vertex 108.25 -12.799038105676658 35.6
      vertex 108.08685785648692 -12.690030010436853 33.6
      vertex 108.25 -12.799038105676658 33.6
    endloop
  endfacet
  facet normal -0.44228869021899464 -0.8968727415326915 0
    outer loop
      vertex 108.25 -12.799038105676658 33.6
      vertex 108.42597485145237 -12.885819298766929 35.6
      vertex 108.25 -12.799038105676658 35.6
    endloop
  endfacet
  facet normal -0.44228869021899464 -0.8968727415326915 0
    outer loop
      vertex 108.42597485145237 -12.885819298766929 35.6
      vertex 108.25 -12.799038105676658 33.6
      vertex 108.42597485145237 -12.885819298766929 33.6
    endloop
  endfacet
  facet normal -0.32143946530317186 -0.9469301294951022 0
    outer loop
      vertex 108.42597485145237 -12.885819298766929 33.6
      vertex 108.61177143234622 -12.948888739433603 35.6
      vertex 108.42597485145237 -12.885819298766929 35.6
    endloop
  endfacet
  facet normal -0.32143946530317186 -0.9469301294951022 0
    outer loop
      vertex 108.61177143234622 -12.948888739433603 35.6
      vertex 108.42597485145237 -12.885819298766929 33.6
      vertex 108.61177143234622 -12.948888739433603 33.6
    endloop
  endfacet
  facet normal -0.1950903220161193 -0.9807852804032323 0
    outer loop
      vertex 108.61177143234622 -12.948888739433603 33.6
      vertex 108.80421071166992 -12.987167292060715 35.6
      vertex 108.61177143234622 -12.948888739433603 35.6
    endloop
  endfacet
  facet normal -0.1950903220161193 -0.9807852804032323 0
    outer loop
      vertex 108.80421071166992 -12.987167292060715 35.6
      vertex 108.61177143234622 -12.948888739433603 33.6
      vertex 108.80421071166992 -12.987167292060715 33.6
    endloop
  endfacet
  facet normal -0.0654031292301486 -0.997858923238603 0
    outer loop
      vertex 108.80421071166992 -12.987167292060715 33.6
      vertex 109 -13 35.6
      vertex 108.80421071166992 -12.987167292060715 35.6
    endloop
  endfacet
  facet normal -0.0654031292301486 -0.997858923238603 0
    outer loop
      vertex 109 -13 35.6
      vertex 108.80421071166992 -12.987167292060715 33.6
      vertex 109 -13 33.6
    endloop
  endfacet
  facet normal 0.0654031292301486 -0.997858923238603 0
    outer loop
      vertex 109 -13 33.6
      vertex 109.19578928833008 -12.987167292060715 35.6
      vertex 109 -13 35.6
    endloop
  endfacet
  facet normal 0.0654031292301486 -0.997858923238603 0
    outer loop
      vertex 109.19578928833008 -12.987167292060715 35.6
      vertex 109 -13 33.6
      vertex 109.19578928833008 -12.987167292060715 33.6
    endloop
  endfacet
  facet normal 0.1950903220161193 -0.9807852804032323 0
    outer loop
      vertex 109.19578928833008 -12.987167292060715 33.6
      vertex 109.38822856765378 -12.948888739433603 35.6
      vertex 109.19578928833008 -12.987167292060715 35.6
    endloop
  endfacet
  facet normal 0.1950903220161193 -0.9807852804032323 0
    outer loop
      vertex 109.38822856765378 -12.948888739433603 35.6
      vertex 109.19578928833008 -12.987167292060715 33.6
      vertex 109.38822856765378 -12.948888739433603 33.6
    endloop
  endfacet
  facet normal 0.32143946530317186 -0.9469301294951022 0
    outer loop
      vertex 109.38822856765378 -12.948888739433603 33.6
      vertex 109.57402514854763 -12.885819298766929 35.6
      vertex 109.38822856765378 -12.948888739433603 35.6
    endloop
  endfacet
  facet normal 0.32143946530317186 -0.9469301294951022 0
    outer loop
      vertex 109.57402514854763 -12.885819298766929 35.6
      vertex 109.38822856765378 -12.948888739433603 33.6
      vertex 109.57402514854763 -12.885819298766929 33.6
    endloop
  endfacet
  facet normal 0.44228869021899464 -0.8968727415326915 0
    outer loop
      vertex 109.57402514854763 -12.885819298766929 33.6
      vertex 109.75 -12.799038105676658 35.6
      vertex 109.57402514854763 -12.885819298766929 35.6
    endloop
  endfacet
  facet normal 0.44228869021899464 -0.8968727415326915 0
    outer loop
      vertex 109.75 -12.799038105676658 35.6
      vertex 109.57402514854763 -12.885819298766929 33.6
      vertex 109.75 -12.799038105676658 33.6
    endloop
  endfacet
  facet normal 0.5555702330195917 -0.8314696123025522 0
    outer loop
      vertex 109.75 -12.799038105676658 33.6
      vertex 109.91314214351308 -12.690030010436853 35.6
      vertex 109.75 -12.799038105676658 35.6
    endloop
  endfacet
  facet normal 0.5555702330195917 -0.8314696123025522 0
    outer loop
      vertex 109.91314214351308 -12.690030010436853 35.6
      vertex 109.75 -12.799038105676658 33.6
      vertex 109.91314214351308 -12.690030010436853 33.6
    endloop
  endfacet
  facet normal 0.6593458151000949 -0.7518398074789545 0
    outer loop
      vertex 109.91314214351308 -12.690030010436853 33.6
      vertex 110.06066017177982 -12.560660171779821 35.6
      vertex 109.91314214351308 -12.690030010436853 35.6
    endloop
  endfacet
  facet normal 0.6593458151000949 -0.7518398074789545 0
    outer loop
      vertex 110.06066017177982 -12.560660171779821 35.6
      vertex 109.91314214351308 -12.690030010436853 33.6
      vertex 110.06066017177982 -12.560660171779821 33.6
    endloop
  endfacet
  facet normal 0.7518398074789517 -0.659345815100098 0
    outer loop
      vertex 110.06066017177982 -12.560660171779821 35.6
      vertex 110.19003001043686 -12.413142143513081 33.6
      vertex 110.19003001043686 -12.413142143513081 35.6
    endloop
  endfacet
  facet normal 0.7518398074789517 -0.659345815100098 0
    outer loop
      vertex 110.19003001043686 -12.413142143513081 33.6
      vertex 110.06066017177982 -12.560660171779821 35.6
      vertex 110.06066017177982 -12.560660171779821 33.6
    endloop
  endfacet
  facet normal 0.831469612302555 -0.5555702330195875 0
    outer loop
      vertex 110.19003001043686 -12.413142143513081 35.6
      vertex 110.29903810567666 -12.25 33.6
      vertex 110.29903810567666 -12.25 35.6
    endloop
  endfacet
  facet normal 0.831469612302555 -0.5555702330195875 0
    outer loop
      vertex 110.29903810567666 -12.25 33.6
      vertex 110.19003001043686 -12.413142143513081 35.6
      vertex 110.19003001043686 -12.413142143513081 33.6
    endloop
  endfacet
  facet normal 0.8968727415326827 -0.44228869021901285 0
    outer loop
      vertex 110.29903810567666 -12.25 35.6
      vertex 110.38581929876693 -12.074025148547635 33.6
      vertex 110.38581929876693 -12.074025148547635 35.6
    endloop
  endfacet
  facet normal 0.8968727415326827 -0.44228869021901285 0
    outer loop
      vertex 110.38581929876693 -12.074025148547635 33.6
      vertex 110.29903810567666 -12.25 35.6
      vertex 110.29903810567666 -12.25 33.6
    endloop
  endfacet
  facet normal 0.9469301294951151 -0.32143946530313383 0
    outer loop
      vertex 110.38581929876693 -12.074025148547635 35.6
      vertex 110.4488887394336 -11.888228567653782 33.6
      vertex 110.4488887394336 -11.888228567653782 35.6
    endloop
  endfacet
  facet normal 0.9469301294951151 -0.32143946530313383 0
    outer loop
      vertex 110.4488887394336 -11.888228567653782 33.6
      vertex 110.38581929876693 -12.074025148547635 35.6
      vertex 110.38581929876693 -12.074025148547635 33.6
    endloop
  endfacet
  facet normal 0.9807852804032247 -0.19509032201615759 0
    outer loop
      vertex 110.4488887394336 -11.888228567653782 35.6
      vertex 110.48716729206072 -11.695789288330078 33.6
      vertex 110.48716729206072 -11.695789288330078 35.6
    endloop
  endfacet
  facet normal 0.9807852804032247 -0.19509032201615759 0
    outer loop
      vertex 110.48716729206072 -11.695789288330078 33.6
      vertex 110.4488887394336 -11.888228567653782 35.6
      vertex 110.4488887394336 -11.888228567653782 33.6
    endloop
  endfacet
  facet normal 0.9978589232386044 -0.06540312923012999 0
    outer loop
      vertex 110.48716729206072 -11.695789288330078 35.6
      vertex 110.5 -11.5 33.6
      vertex 110.5 -11.5 35.6
    endloop
  endfacet
  facet normal 0.9978589232386044 -0.06540312923012999 0
    outer loop
      vertex 110.5 -11.5 33.6
      vertex 110.48716729206072 -11.695789288330078 35.6
      vertex 110.48716729206072 -11.695789288330078 33.6
    endloop
  endfacet
  facet normal 0 0 -1
    outer loop
      vertex 110.48716729206072 -11.695789288330078 33.6
      vertex 110.48716729206072 -11.304210711669922 33.6
      vertex 110.5 -11.5 33.6
    endloop
  endfacet
  facet normal 0 0 -1
    outer loop
      vertex 110.4488887394336 -11.888228567653782 33.6
      vertex 110.48716729206072 -11.304210711669922 33.6
      vertex 110.48716729206072 -11.695789288330078 33.6
    endloop
  endfacet
  facet normal 0 0 -1
    outer loop
      vertex 110.4488887394336 -11.888228567653782 33.6
      vertex 110.4488887394336 -11.111771432346218 33.6
      vertex 110.48716729206072 -11.304210711669922 33.6
    endloop
  endfacet
  facet normal 0 0 -1
    outer loop
      vertex 110.38581929876693 -12.074025148547635 33.6
      vertex 110.4488887394336 -11.111771432346218 33.6
      vertex 110.4488887394336 -11.888228567653782 33.6
    endloop
  endfacet
  facet normal 0 0 -1
    outer loop
      vertex 110.38581929876693 -12.074025148547635 33.6
      vertex 110.38581929876693 -10.925974851452365 33.6
      vertex 110.4488887394336 -11.111771432346218 33.6
    endloop
  endfacet
  facet normal 0 0 -1
    outer loop
      vertex 110.29903810567666 -12.25 33.6
      vertex 110.38581929876693 -10.925974851452365 33.6
      vertex 110.38581929876693 -12.074025148547635 33.6
    endloop
  endfacet
  facet normal 0 0 -1
    outer loop
      vertex 110.29903810567666 -12.25 33.6
      vertex 110.29903810567666 -10.75 33.6
      vertex 110.38581929876693 -10.925974851452365 33.6
    endloop
  endfacet
  facet normal 0 0 -1
    outer loop
      vertex 110.19003001043686 -12.413142143513081 33.6
      vertex 110.29903810567666 -10.75 33.6
      vertex 110.29903810567666 -12.25 33.6
    endloop
  endfacet
  facet normal 0 0 -1
    outer loop
      vertex 110.19003001043686 -12.413142143513081 33.6
      vertex 110.19003001043686 -10.586857856486919 33.6
      vertex 110.29903810567666 -10.75 33.6
    endloop
  endfacet
  facet normal 0 0 -1
    outer loop
      vertex 110.06066017177982 -12.560660171779821 33.6
      vertex 110.19003001043686 -10.586857856486919 33.6
      vertex 110.19003001043686 -12.413142143513081 33.6
    endloop
  endfacet
  facet normal 0 0 -1
    outer loop
      vertex 110.06066017177982 -12.560660171779821 33.6
      vertex 110.06066017177982 -10.439339828220179 33.6
      vertex 110.19003001043686 -10.586857856486919 33.6
    endloop
  endfacet
  facet normal 0 0 -1
    outer loop
      vertex 109.91314214351308 -12.690030010436853 33.6
      vertex 110.06066017177982 -10.439339828220179 33.6
      vertex 110.06066017177982 -12.560660171779821 33.6
    endloop
  endfacet
  facet normal 0 0 -1
    outer loop
      vertex 109.91314214351308 -12.690030010436853 33.6
      vertex 109.91314214351308 -10.309969989563147 33.6
      vertex 110.06066017177982 -10.439339828220179 33.6
    endloop
  endfacet
  facet normal 0 0 -1
    outer loop
      vertex 109.75 -12.799038105676658 33.6
      vertex 109.91314214351308 -10.309969989563147 33.6
      vertex 109.91314214351308 -12.690030010436853 33.6
    endloop
  endfacet
  facet normal 0 0 -1
    outer loop
      vertex 109.75 -12.799038105676658 33.6
      vertex 109.75 -10.200961894323342 33.6
      vertex 109.91314214351308 -10.309969989563147 33.6
    endloop
  endfacet
  facet normal 0 0 -1
    outer loop
      vertex 109.57402514854763 -12.885819298766929 33.6
      vertex 109.75 -10.200961894323342 33.6
      vertex 109.75 -12.799038105676658 33.6
    endloop
  endfacet
  facet normal 0 0 -1
    outer loop
      vertex 109.57402514854763 -12.885819298766929 33.6
      vertex 109.57402514854763 -10.114180701233071 33.6
      vertex 109.75 -10.200961894323342 33.6
    endloop
  endfacet
  facet normal 0 0 -1
    outer loop
      vertex 109.38822856765378 -12.948888739433603 33.6
      vertex 109.57402514854763 -10.114180701233071 33.6
      vertex 109.57402514854763 -12.885819298766929 33.6
    endloop
  endfacet
  facet normal 0 0 -1
    outer loop
      vertex 109.38822856765378 -12.948888739433603 33.6
      vertex 109.38822856765378 -10.051111260566397 33.6
      vertex 109.57402514854763 -10.114180701233071 33.6
    endloop
  endfacet
  facet normal 0 0 -1
    outer loop
      vertex 109.19578928833008 -12.987167292060715 33.6
      vertex 109.38822856765378 -10.051111260566397 33.6
      vertex 109.38822856765378 -12.948888739433603 33.6
    endloop
  endfacet
  facet normal 0 0 -1
    outer loop
      vertex 109.19578928833008 -12.987167292060715 33.6
      vertex 109.19578928833008 -10.012832707939285 33.6
      vertex 109.38822856765378 -10.051111260566397 33.6
    endloop
  endfacet
  facet normal 0 0 -1
    outer loop
      vertex 109 -13 33.6
      vertex 109.19578928833008 -10.012832707939285 33.6
      vertex 109.19578928833008 -12.987167292060715 33.6
    endloop
  endfacet
  facet normal 0 0 -1
    outer loop
      vertex 109 -13 33.6
      vertex 109 -10 33.6
      vertex 109.19578928833008 -10.012832707939285 33.6
    endloop
  endfacet
  facet normal 0 0 -1
    outer loop
      vertex 108.80421071166992 -12.987167292060715 33.6
      vertex 109 -10 33.6
      vertex 109 -13 33.6
    endloop
  endfacet
  facet normal 0 0 -1
    outer loop
      vertex 108.80421071166992 -12.987167292060715 33.6
      vertex 108.80421071166992 -10.012832707939285 33.6
      vertex 109 -10 33.6
    endloop
  endfacet
  facet normal 0 0 -1
    outer loop
      vertex 108.61177143234622 -12.948888739433603 33.6
      vertex 108.80421071166992 -10.012832707939285 33.6
      vertex 108.80421071166992 -12.987167292060715 33.6
    endloop
  endfacet
  facet normal 0 0 -1
    outer loop
      vertex 108.61177143234622 -12.948888739433603 33.6
      vertex 108.61177143234622 -10.051111260566397 33.6
      vertex 108.80421071166992 -10.012832707939285 33.6
    endloop
  endfacet
  facet normal 0 0 -1
    outer loop
      vertex 108.42597485145237 -12.885819298766929 33.6
      vertex 108.61177143234622 -10.051111260566397 33.6
      vertex 108.61177143234622 -12.948888739433603 33.6
    endloop
  endfacet
  facet normal 0 0 -1
    outer loop
      vertex 108.42597485145237 -12.885819298766929 33.6
      vertex 108.42597485145237 -10.114180701233071 33.6
      vertex 108.61177143234622 -10.051111260566397 33.6
    endloop
  endfacet
  facet normal 0 0 -1
    outer loop
      vertex 108.25 -12.799038105676658 33.6
      vertex 108.42597485145237 -10.114180701233071 33.6
      vertex 108.42597485145237 -12.885819298766929 33.6
    endloop
  endfacet
  facet normal 0 0 -1
    outer loop
      vertex 108.25 -12.799038105676658 33.6
      vertex 108.25 -10.200961894323342 33.6
      vertex 108.42597485145237 -10.114180701233071 33.6
    endloop
  endfacet
  facet normal 0 0 -1
    outer loop
      vertex 108.08685785648692 -12.690030010436853 33.6
      vertex 108.25 -10.200961894323342 33.6
      vertex 108.25 -12.799038105676658 33.6
    endloop
  endfacet
  facet normal 0 0 -1
    outer loop
      vertex 108.08685785648692 -12.690030010436853 33.6
      vertex 108.08685785648692 -10.309969989563147 33.6
      vertex 108.25 -10.200961894323342 33.6
    endloop
  endfacet
  facet normal 0 0 -1
    outer loop
      vertex 107.93933982822018 -12.560660171779821 33.6
      vertex 108.08685785648692 -10.309969989563147 33.6
      vertex 108.08685785648692 -12.690030010436853 33.6
    endloop
  endfacet
  facet normal 0 0 -1
    outer loop
      vertex 107.93933982822018 -12.560660171779821 33.6
      vertex 107.93933982822018 -10.439339828220179 33.6
      vertex 108.08685785648692 -10.309969989563147 33.6
    endloop
  endfacet
  facet normal 0 0 -1
    outer loop
      vertex 107.80996998956314 -12.413142143513081 33.6
      vertex 107.93933982822018 -10.439339828220179 33.6
      vertex 107.93933982822018 -12.560660171779821 33.6
    endloop
  endfacet
  facet normal 0 0 -1
    outer loop
      vertex 107.80996998956314 -12.413142143513081 33.6
      vertex 107.80996998956314 -10.586857856486919 33.6
      vertex 107.93933982822018 -10.439339828220179 33.6
    endloop
  endfacet
  facet normal 0 0 -1
    outer loop
      vertex 107.70096189432334 -12.25 33.6
      vertex 107.80996998956314 -10.586857856486919 33.6
      vertex 107.80996998956314 -12.413142143513081 33.6
    endloop
  endfacet
  facet normal 0 0 -1
    outer loop
      vertex 107.70096189432334 -12.25 33.6
      vertex 107.70096189432334 -10.75 33.6
      vertex 107.80996998956314 -10.586857856486919 33.6
    endloop
  endfacet
  facet normal 0 0 -1
    outer loop
      vertex 107.61418070123307 -12.074025148547635 33.6
      vertex 107.70096189432334 -10.75 33.6
      vertex 107.70096189432334 -12.25 33.6
    endloop
  endfacet
  facet normal 0 0 -1
    outer loop
      vertex 107.61418070123307 -12.074025148547635 33.6
      vertex 107.61418070123307 -10.925974851452365 33.6
      vertex 107.70096189432334 -10.75 33.6
    endloop
  endfacet
  facet normal 0 0 -1
    outer loop
      vertex 107.5511112605664 -11.888228567653782 33.6
      vertex 107.61418070123307 -10.925974851452365 33.6
      vertex 107.61418070123307 -12.074025148547635 33.6
    endloop
  endfacet
  facet normal 0 0 -1
    outer loop
      vertex 107.5511112605664 -11.888228567653782 33.6
      vertex 107.5511112605664 -11.111771432346218 33.6
      vertex 107.61418070123307 -10.925974851452365 33.6
    endloop
  endfacet
  facet normal 0 0 -1
    outer loop
      vertex 107.51283270793928 -11.695789288330078 33.6
      vertex 107.5511112605664 -11.111771432346218 33.6
      vertex 107.5511112605664 -11.888228567653782 33.6
    endloop
  endfacet
  facet normal 0 0 -1
    outer loop
      vertex 107.51283270793928 -11.695789288330078 33.6
      vertex 107.51283270793928 -11.304210711669922 33.6
      vertex 107.5511112605664 -11.111771432346218 33.6
    endloop
  endfacet
  facet normal 0 0 -1
    outer loop
      vertex 107.51283270793928 -11.304210711669922 33.6
      vertex 107.51283270793928 -11.695789288330078 33.6
      vertex 107.5 -11.5 33.6
    endloop
  endfacet
  facet normal 0 0 1
    outer loop
      vertex 110.48716729206072 -11.304210711669922 35.6
      vertex 110.48716729206072 -11.695789288330078 35.6
      vertex 110.5 -11.5 35.6
    endloop
  endfacet
  facet normal 0 0 1
    outer loop
      vertex 110.4488887394336 -11.111771432346218 35.6
      vertex 110.48716729206072 -11.695789288330078 35.6
      vertex 110.48716729206072 -11.304210711669922 35.6
    endloop
  endfacet
  facet normal 0 0 1
    outer loop
      vertex 110.4488887394336 -11.111771432346218 35.6
      vertex 110.4488887394336 -11.888228567653782 35.6
      vertex 110.48716729206072 -11.695789288330078 35.6
    endloop
  endfacet
  facet normal 0 0 1
    outer loop
      vertex 110.38581929876693 -10.925974851452365 35.6
      vertex 110.4488887394336 -11.888228567653782 35.6
      vertex 110.4488887394336 -11.111771432346218 35.6
    endloop
  endfacet
  facet normal 0 0 1
    outer loop
      vertex 110.38581929876693 -10.925974851452365 35.6
      vertex 110.38581929876693 -12.074025148547635 35.6
      vertex 110.4488887394336 -11.888228567653782 35.6
    endloop
  endfacet
  facet normal 0 0 1
    outer loop
      vertex 110.29903810567666 -10.75 35.6
      vertex 110.38581929876693 -12.074025148547635 35.6
      vertex 110.38581929876693 -10.925974851452365 35.6
    endloop
  endfacet
  facet normal 0 0 1
    outer loop
      vertex 110.29903810567666 -10.75 35.6
      vertex 110.29903810567666 -12.25 35.6
      vertex 110.38581929876693 -12.074025148547635 35.6
    endloop
  endfacet
  facet normal 0 0 1
    outer loop
      vertex 110.19003001043686 -10.586857856486919 35.6
      vertex 110.29903810567666 -12.25 35.6
      vertex 110.29903810567666 -10.75 35.6
    endloop
  endfacet
  facet normal 0 0 1
    outer loop
      vertex 110.19003001043686 -10.586857856486919 35.6
      vertex 110.19003001043686 -12.413142143513081 35.6
      vertex 110.29903810567666 -12.25 35.6
    endloop
  endfacet
  facet normal 0 0 1
    outer loop
      vertex 110.06066017177982 -10.439339828220179 35.6
      vertex 110.19003001043686 -12.413142143513081 35.6
      vertex 110.19003001043686 -10.586857856486919 35.6
    endloop
  endfacet
  facet normal 0 0 1
    outer loop
      vertex 110.06066017177982 -10.439339828220179 35.6
      vertex 110.06066017177982 -12.560660171779821 35.6
      vertex 110.19003001043686 -12.413142143513081 35.6
    endloop
  endfacet
  facet normal 0 0 1
    outer loop
      vertex 109.91314214351308 -10.309969989563147 35.6
      vertex 110.06066017177982 -12.560660171779821 35.6
      vertex 110.06066017177982 -10.439339828220179 35.6
    endloop
  endfacet
  facet normal 0 0 1
    outer loop
      vertex 109.91314214351308 -10.309969989563147 35.6
      vertex 109.91314214351308 -12.690030010436853 35.6
      vertex 110.06066017177982 -12.560660171779821 35.6
    endloop
  endfacet
  facet normal 0 0 1
    outer loop
      vertex 109.75 -10.200961894323342 35.6
      vertex 109.91314214351308 -12.690030010436853 35.6
      vertex 109.91314214351308 -10.309969989563147 35.6
    endloop
  endfacet
  facet normal 0 0 1
    outer loop
      vertex 109.75 -10.200961894323342 35.6
      vertex 109.75 -12.799038105676658 35.6
      vertex 109.91314214351308 -12.690030010436853 35.6
    endloop
  endfacet
  facet normal 0 0 1
    outer loop
      vertex 109.57402514854763 -10.114180701233071 35.6
      vertex 109.75 -12.799038105676658 35.6
      vertex 109.75 -10.200961894323342 35.6
    endloop
  endfacet
  facet normal 0 0 1
    outer loop
      vertex 109.57402514854763 -10.114180701233071 35.6
      vertex 109.57402514854763 -12.885819298766929 35.6
      vertex 109.75 -12.799038105676658 35.6
    endloop
  endfacet
  facet normal 0 0 1
    outer loop
      vertex 109.38822856765378 -10.051111260566397 35.6
      vertex 109.57402514854763 -12.885819298766929 35.6
      vertex 109.57402514854763 -10.114180701233071 35.6
    endloop
  endfacet
  facet normal 0 0 1
    outer loop
      vertex 109.38822856765378 -10.051111260566397 35.6
      vertex 109.38822856765378 -12.948888739433603 35.6
      vertex 109.57402514854763 -12.885819298766929 35.6
    endloop
  endfacet
  facet normal 0 0 1
    outer loop
      vertex 109.19578928833008 -10.012832707939285 35.6
      vertex 109.38822856765378 -12.948888739433603 35.6
      vertex 109.38822856765378 -10.051111260566397 35.6
    endloop
  endfacet
  facet normal 0 0 1
    outer loop
      vertex 109.19578928833008 -10.012832707939285 35.6
      vertex 109.19578928833008 -12.987167292060715 35.6
      vertex 109.38822856765378 -12.948888739433603 35.6
    endloop
  endfacet
  facet normal 0 0 1
    outer loop
      vertex 109 -10 35.6
      vertex 109.19578928833008 -12.987167292060715 35.6
      vertex 109.19578928833008 -10.012832707939285 35.6
    endloop
  endfacet
  facet normal 0 0 1
    outer loop
      vertex 109 -10 35.6
      vertex 109 -13 35.6
      vertex 109.19578928833008 -12.987167292060715 35.6
    endloop
  endfacet
  facet normal 0 0 1
    outer loop
      vertex 108.80421071166992 -10.012832707939285 35.6
      vertex 109 -13 35.6
      vertex 109 -10 35.6
    endloop
  endfacet
  facet normal 0 0 1
    outer loop
      vertex 108.80421071166992 -10.012832707939285 35.6
      vertex 108.80421071166992 -12.987167292060715 35.6
      vertex 109 -13 35.6
    endloop
  endfacet
  facet normal 0 0 1
    outer loop
      vertex 108.61177143234622 -10.051111260566397 35.6
      vertex 108.80421071166992 -12.987167292060715 35.6
      vertex 108.80421071166992 -10.012832707939285 35.6
    endloop
  endfacet
  facet normal 0 0 1
    outer loop
      vertex 108.61177143234622 -10.051111260566397 35.6
      vertex 108.61177143234622 -12.948888739433603 35.6
      vertex 108.80421071166992 -12.987167292060715 35.6
    endloop
  endfacet
  facet normal 0 0 1
    outer loop
      vertex 108.42597485145237 -10.114180701233071 35.6
      vertex 108.61177143234622 -12.948888739433603 35.6
      vertex 108.61177143234622 -10.051111260566397 35.6
    endloop
  endfacet
  facet normal 0 0 1
    outer loop
      vertex 108.42597485145237 -10.114180701233071 35.6
      vertex 108.42597485145237 -12.885819298766929 35.6
      vertex 108.61177143234622 -12.948888739433603 35.6
    endloop
  endfacet
  facet normal 0 0 1
    outer loop
      vertex 108.25 -10.200961894323342 35.6
      vertex 108.42597485145237 -12.885819298766929 35.6
      vertex 108.42597485145237 -10.114180701233071 35.6
    endloop
  endfacet
  facet normal 0 0 1
    outer loop
      vertex 108.25 -10.200961894323342 35.6
      vertex 108.25 -12.799038105676658 35.6
      vertex 108.42597485145237 -12.885819298766929 35.6
    endloop
  endfacet
  facet normal 0 0 1
    outer loop
      vertex 108.08685785648692 -10.309969989563147 35.6
      vertex 108.25 -12.799038105676658 35.6
      vertex 108.25 -10.200961894323342 35.6
    endloop
  endfacet
  facet normal 0 0 1
    outer loop
      vertex 108.08685785648692 -10.309969989563147 35.6
      vertex 108.08685785648692 -12.690030010436853 35.6
      vertex 108.25 -12.799038105676658 35.6
    endloop
  endfacet
  facet normal 0 0 1
    outer loop
      vertex 107.93933982822018 -10.439339828220179 35.6
      vertex 108.08685785648692 -12.690030010436853 35.6
      vertex 108.08685785648692 -10.309969989563147 35.6
    endloop
  endfacet
  facet normal 0 0 1
    outer loop
      vertex 107.93933982822018 -10.439339828220179 35.6
      vertex 107.93933982822018 -12.560660171779821 35.6
      vertex 108.08685785648692 -12.690030010436853 35.6
    endloop
  endfacet
  facet normal 0 0 1
    outer loop
      vertex 107.80996998956314 -10.586857856486919 35.6
      vertex 107.93933982822018 -12.560660171779821 35.6
      vertex 107.93933982822018 -10.439339828220179 35.6
    endloop
  endfacet
  facet normal 0 0 1
    outer loop
      vertex 107.80996998956314 -10.586857856486919 35.6
      vertex 107.80996998956314 -12.413142143513081 35.6
      vertex 107.93933982822018 -12.560660171779821 35.6
    endloop
  endfacet
  facet normal 0 0 1
    outer loop
      vertex 107.70096189432334 -10.75 35.6
      vertex 107.80996998956314 -12.413142143513081 35.6
      vertex 107.80996998956314 -10.586857856486919 35.6
    endloop
  endfacet
  facet normal 0 0 1
    outer loop
      vertex 107.70096189432334 -10.75 35.6
      vertex 107.70096189432334 -12.25 35.6
      vertex 107.80996998956314 -12.413142143513081 35.6
    endloop
  endfacet
  facet normal 0 0 1
    outer loop
      vertex 107.61418070123307 -10.925974851452365 35.6
      vertex 107.70096189432334 -12.25 35.6
      vertex 107.70096189432334 -10.75 35.6
    endloop
  endfacet
  facet normal 0 0 1
    outer loop
      vertex 107.61418070123307 -10.925974851452365 35.6
      vertex 107.61418070123307 -12.074025148547635 35.6
      vertex 107.70096189432334 -12.25 35.6
    endloop
  endfacet
  facet normal 0 0 1
    outer loop
      vertex 107.5511112605664 -11.111771432346218 35.6
      vertex 107.61418070123307 -12.074025148547635 35.6
      vertex 107.61418070123307 -10.925974851452365 35.6
    endloop
  endfacet
  facet normal 0 0 1
    outer loop
      vertex 107.5511112605664 -11.111771432346218 35.6
      vertex 107.5511112605664 -11.888228567653782 35.6
      vertex 107.61418070123307 -12.074025148547635 35.6
    endloop
  endfacet
  facet normal 0 0 1
    outer loop
      vertex 107.51283270793928 -11.304210711669922 35.6
      vertex 107.5511112605664 -11.888228567653782 35.6
      vertex 107.5511112605664 -11.111771432346218 35.6
    endloop
  endfacet
  facet normal 0 0 1
    outer loop
      vertex 107.51283270793928 -11.304210711669922 35.6
      vertex 107.51283270793928 -11.695789288330078 35.6
      vertex 107.5511112605664 -11.888228567653782 35.6
    endloop
  endfacet
  facet normal 0 0 1
    outer loop
      vertex 107.51283270793928 -11.695789288330078 35.6
      vertex 107.51283270793928 -11.304210711669922 35.6
      vertex 107.5 -11.5 35.6
    endloop
  endfacet
endsolid OpenSCAD_Model
