solid OpenSCAD_Model
  facet normal -1 0 0
    outer loop
      vertex 87.6 53.5 21.5
      vertex 87.6 55.1 48.8
      vertex 87.6 55.1 21.5
    endloop
  endfacet
  facet normal 0 1 0
    outer loop
      vertex 87.6 55.1 21.5
      vertex 88.15 55.1 44.3
      vertex 88.15 55.1 25
    endloop
  endfacet
  facet normal 0 0 -1
    outer loop
      vertex 87.6 53.5 21.5
      vertex 87.6 55.1 21.5
      vertex 115.39999999999999 55.1 21.5
    endloop
  endfacet
  facet normal 0 1 0
    outer loop
      vertex 87.6 55.1 21.5
      vertex 88.15 55.1 25
      vertex 115.39999999999999 55.1 21.5
    endloop
  endfacet
  facet normal -1 0 0
    outer loop
      vertex 87.6 53.5 21.5
      vertex 87.6 53.5 48.8
      vertex 87.6 55.1 48.8
    endloop
  endfacet
  facet normal 0 -1 0
    outer loop
      vertex 87.6 53.5 21.5
      vertex 96.5 53.5 46
      vertex 87.6 53.5 48.8
    endloop
  endfacet
  facet normal 0 0 1
    outer loop
      vertex 87.6 53.5 48.8
      vertex 96.5 53.5 48.8
      vertex 87.6 55.1 48.8
    endloop
  endfacet
  facet normal 0 -1 0
    outer loop
      vertex 87.6 53.5 48.8
      vertex 96.5 53.5 46
      vertex 96.5 53.5 48.8
    endloop
  endfacet
  facet normal 0 1 0
    outer loop
      vertex 87.6 55.1 21.5
      vertex 87.6 55.1 48.8
      vertex 88.15 55.1 44.3
    endloop
  endfacet
  facet normal 0 -1 0
    outer loop
      vertex 87.6 53.5 21.5
      vertex 106.5 53.5 46
      vertex 96.5 53.5 46
    endloop
  endfacet
  facet normal 0 0 1
    outer loop
      vertex 87.6 55.1 48.8
      vertex 96.5 53.5 48.8
      vertex 106.5 53.5 48.8
    endloop
  endfacet
  facet normal 0 1 0
    outer loop
      vertex 87.6 55.1 48.8
      vertex 114.85000000000001 55.1 44.3
      vertex 88.15 55.1 44.3
    endloop
  endfacet
  facet normal 0 0 -1
    outer loop
      vertex 87.6 53.5 21.5
      vertex 115.39999999999999 55.1 21.5
      vertex 115.39999999999999 53.5 21.5
    endloop
  endfacet
  facet normal 0 -1 0
    outer loop
      vertex 87.6 53.5 21.5
      vertex 115.39999999999999 53.5 21.5
      vertex 115.39999999999999 53.5 48.8
    endloop
  endfacet
  facet normal 0 1 0
    outer loop
      vertex 115.39999999999999 55.1 21.5
      vertex 88.15 55.1 25
      vertex 114.85000000000001 55.1 25
    endloop
  endfacet
  facet normal 1 0 0
    outer loop
      vertex 115.39999999999999 53.5 21.5
      vertex 115.39999999999999 55.1 21.5
      vertex 115.39999999999999 53.5 48.8
    endloop
  endfacet
  facet normal 0 1 0
    outer loop
      vertex 115.39999999999999 55.1 21.5
      vertex 114.85000000000001 55.1 25
      vertex 114.85000000000001 55.1 44.3
    endloop
  endfacet
  facet normal 0 -1 0
    outer loop
      vertex 87.6 53.5 21.5
      vertex 115.39999999999999 53.5 48.8
      vertex 106.5 53.5 46
    endloop
  endfacet
  facet normal 0 0 1
    outer loop
      vertex 87.6 55.1 48.8
      vertex 106.5 53.5 48.8
      vertex 115.39999999999999 53.5 48.8
    endloop
  endfacet
  facet normal 0 0 1
    outer loop
      vertex 87.6 55.1 48.8
      vertex 115.39999999999999 53.5 48.8
      vertex 115.39999999999999 55.1 48.8
    endloop
  endfacet
  facet normal 0 1 0
    outer loop
      vertex 87.6 55.1 48.8
      vertex 115.39999999999999 55.1 48.8
      vertex 114.85000000000001 55.1 44.3
    endloop
  endfacet
  facet normal 1 0 0
    outer loop
      vertex 115.39999999999999 53.5 48.8
      vertex 115.39999999999999 55.1 21.5
      vertex 115.39999999999999 55.1 48.8
    endloop
  endfacet
  facet normal 0 -1 0
    outer loop
      vertex 115.39999999999999 53.5 48.8
      vertex 106.5 53.5 48.8
      vertex 106.5 53.5 46
    endloop
  endfacet
  facet normal 0 1 0
    outer loop
      vertex 115.39999999999999 55.1 21.5
      vertex 114.85000000000001 55.1 44.3
      vertex 115.39999999999999 55.1 48.8
    endloop
  endfacet
  facet normal -1 0 0
    outer loop
      vertex 88.15 56.5 25
      vertex 88.15 55.1 25
      vertex 88.15 56.5 44.3
    endloop
  endfacet
  facet normal 0 0 -1
    outer loop
      vertex 88.15 56.5 25
      vertex 114.85000000000001 56.5 25
      vertex 88.15 55.1 25
    endloop
  endfacet
  facet normal 0 1 0
    outer loop
      vertex 88.15 56.5 25
      vertex 88.15 56.5 44.3
      vertex 114.85000000000001 56.5 25
    endloop
  endfacet
  facet normal -1 0 0
    outer loop
      vertex 88.15 56.5 44.3
      vertex 88.15 55.1 25
      vertex 88.15 55.1 44.3
    endloop
  endfacet
  facet normal 0 0 1
    outer loop
      vertex 88.15 56.5 44.3
      vertex 88.15 55.1 44.3
      vertex 114.85000000000001 55.1 44.3
    endloop
  endfacet
  facet normal 0 0 -1
    outer loop
      vertex 114.85000000000001 56.5 25
      vertex 114.85000000000001 55.1 25
      vertex 88.15 55.1 25
    endloop
  endfacet
  facet normal 1 0 0
    outer loop
      vertex 114.85000000000001 56.5 25
      vertex 114.85000000000001 55.1 44.3
      vertex 114.85000000000001 55.1 25
    endloop
  endfacet
  facet normal 0 1 0
    outer loop
      vertex 88.15 56.5 44.3
      vertex 114.85000000000001 56.5 44.3
      vertex 114.85000000000001 56.5 25
    endloop
  endfacet
  facet normal 0 0 1
    outer loop
      vertex 88.15 56.5 44.3
      vertex 114.85000000000001 55.1 44.3
      vertex 114.85000000000001 56.5 44.3
    endloop
  endfacet
  facet normal 1 0 0
    outer loop
      vertex 114.85000000000001 56.5 25
      vertex 114.85000000000001 56.5 44.3
      vertex 114.85000000000001 55.1 44.3
    endloop
  endfacet
  facet normal -1 0 0
    outer loop
      vertex 96.5 50.5 46
      vertex 96.5 50.5 48.8
      vertex 96.5 53.5 48.8
    endloop
  endfacet
  facet normal 0 -1 0
    outer loop
      vertex 96.5 50.5 46
      vertex 106.5 50.5 48.8
      vertex 96.5 50.5 48.8
    endloop
  endfacet
  facet normal 0 0 1
    outer loop
      vertex 96.5 50.5 48.8
      vertex 106.5 50.5 48.8
      vertex 96.5 53.5 48.8
    endloop
  endfacet
  facet normal -1 0 0
    outer loop
      vertex 96.5 50.5 46
      vertex 96.5 53.5 48.8
      vertex 96.5 53.5 46
    endloop
  endfacet
  facet normal 0 0 -1
    outer loop
      vertex 96.5 50.5 46
      vertex 96.5 53.5 46
      vertex 106.5 53.5 46
    endloop
  endfacet
  facet normal 0 -1 0
    outer loop
      vertex 96.5 50.5 46
      vertex 106.5 50.5 46
      vertex 106.5 50.5 48.8
    endloop
  endfacet
  facet normal 0 0 -1
    outer loop
      vertex 96.5 50.5 46
      vertex 106.5 53.5 46
      vertex 106.5 50.5 46
    endloop
  endfacet
  facet normal 1 0 0
    outer loop
      vertex 106.5 50.5 46
      vertex 106.5 53.5 46
      vertex 106.5 50.5 48.8
    endloop
  endfacet
  facet normal 0 0 1
    outer loop
      vertex 106.5 50.5 48.8
      vertex 106.5 53.5 48.8
      vertex 96.5 53.5 48.8
    endloop
  endfacet
  facet normal 1 0 0
    outer loop
      vertex 106.5 50.5 48.8
      vertex 106.5 53.5 46
      vertex 106.5 53.5 48.8
    endloop
  endfacet
endsolid OpenSCAD_Model
