solid OpenSCAD_Model
  facet normal 0 0 1
    outer loop
      vertex 98.5 49 27.3
      vertex 113.5 29 27.3
      vertex 113.5 49 27.3
    endloop
  endfacet
  facet normal 0 0 1
    outer loop
      vertex 113.5 29 27.3
      vertex 98.5 49 27.3
      vertex 98.5 29 27.3
    endloop
  endfacet
  facet normal 0 0 -1
    outer loop
      vertex 98.5 29 20.3
      vertex 113.5 49 20.3
      vertex 113.5 29 20.3
    endloop
  endfacet
  facet normal 0 0 -1
    outer loop
      vertex 113.5 49 20.3
      vertex 98.5 29 20.3
      vertex 98.5 49 20.3
    endloop
  endfacet
  facet normal 0 -1 0
    outer loop
      vertex 98.5 29 20.3
      vertex 113.5 29 27.3
      vertex 98.5 29 27.3
    endloop
  endfacet
  facet normal 0 -1 0
    outer loop
      vertex 113.5 29 27.3
      vertex 98.5 29 20.3
      vertex 113.5 29 20.3
    endloop
  endfacet
  facet normal 1 0 0
    outer loop
      vertex 113.5 29 27.3
      vertex 113.5 49 20.3
      vertex 113.5 49 27.3
    endloop
  endfacet
  facet normal 1 0 0
    outer loop
      vertex 113.5 49 20.3
      vertex 113.5 29 27.3
      vertex 113.5 29 20.3
    endloop
  endfacet
  facet normal 0 1 0
    outer loop
      vertex 113.5 49 20.3
      vertex 98.5 49 27.3
      vertex 113.5 49 27.3
    endloop
  endfacet
  facet normal 0 1 0
    outer loop
      vertex 98.5 49 27.3
      vertex 113.5 49 20.3
      vertex 98.5 49 20.3
    endloop
  endfacet
  facet normal -1 0 0
    outer loop
      vertex 98.5 29 20.3
      vertex 98.5 49 27.3
      vertex 98.5 49 20.3
    endloop
  endfacet
  facet normal -1 0 0
    outer loop
      vertex 98.5 49 27.3
      vertex 98.5 29 20.3
      vertex 98.5 29 27.3
    endloop
  endfacet
endsolid OpenSCAD_Model
