solid OpenSCAD_Model
  facet normal -1 0 0
    outer loop
      vertex 105 -8.5 30.7
      vertex 105 -14.5 30.3
      vertex 105 -14.5 30.7
    endloop
  endfacet
  facet normal -1 0 0
    outer loop
      vertex 105 -14.5 30.3
      vertex 105 -8.5 30.7
      vertex 105 -8.5 30.3
    endloop
  endfacet
  facet normal 0 -1 0
    outer loop
      vertex 105 -14.5 30.3
      vertex 113 -14.5 30.7
      vertex 105 -14.5 30.7
    endloop
  endfacet
  facet normal 0 0 1
    outer loop
      vertex 113 -14.5 30.7
      vertex 105 -8.5 30.7
      vertex 105 -14.5 30.7
    endloop
  endfacet
  facet normal 0 0 -1
    outer loop
      vertex 113 -8.5 30.3
      vertex 105 -14.5 30.3
      vertex 105 -8.5 30.3
    endloop
  endfacet
  facet normal 0 1 0
    outer loop
      vertex 105 -8.5 30.7
      vertex 113 -8.5 30.3
      vertex 105 -8.5 30.3
    endloop
  endfacet
  facet normal 0 -1 0
    outer loop
      vertex 113 -14.5 30.7
      vertex 105 -14.5 30.3
      vertex 113 -14.5 30.3
    endloop
  endfacet
  facet normal 0 0 -1
    outer loop
      vertex 105 -14.5 30.3
      vertex 113 -8.5 30.3
      vertex 113 -14.5 30.3
    endloop
  endfacet
  facet normal 0 0 1
    outer loop
      vertex 105 -8.5 30.7
      vertex 113 -14.5 30.7
      vertex 113 -8.5 30.7
    endloop
  endfacet
  facet normal 1 0 0
    outer loop
      vertex 113 -8.5 30.3
      vertex 113 -14.5 30.7
      vertex 113 -14.5 30.3
    endloop
  endfacet
  facet normal 1 0 0
    outer loop
      vertex 113 -14.5 30.7
      vertex 113 -8.5 30.3
      vertex 113 -8.5 30.7
    endloop
  endfacet
  facet normal 0 1 0
    outer loop
      vertex 113 -8.5 30.3
      vertex 105 -8.5 30.7
      vertex 113 -8.5 30.7
    endloop
  endfacet
  facet normal -1 0 0
    outer loop
      vertex 105 5.5 30.7
      vertex 105 -0.5 30.3
      vertex 105 -0.5 30.7
    endloop
  endfacet
  facet normal 0 -1 0
    outer loop
      vertex 105 -0.5 30.3
      vertex 113 -0.5 30.7
      vertex 105 -0.5 30.7
    endloop
  endfacet
  facet normal 0 0 1
    outer loop
      vertex 113 -0.5 30.7
      vertex 105 5.5 30.7
      vertex 105 -0.5 30.7
    endloop
  endfacet
  facet normal -1 0 0
    outer loop
      vertex 105 -0.5 30.3
      vertex 105 5.5 30.7
      vertex 105 5.5 30.3
    endloop
  endfacet
  facet normal 0 0 -1
    outer loop
      vertex 113 5.5 30.3
      vertex 105 -0.5 30.3
      vertex 105 5.5 30.3
    endloop
  endfacet
  facet normal 0 1 0
    outer loop
      vertex 105 5.5 30.7
      vertex 113 5.5 30.3
      vertex 105 5.5 30.3
    endloop
  endfacet
  facet normal 0 -1 0
    outer loop
      vertex 113 -0.5 30.7
      vertex 105 -0.5 30.3
      vertex 113 -0.5 30.3
    endloop
  endfacet
  facet normal 0 0 -1
    outer loop
      vertex 105 -0.5 30.3
      vertex 113 5.5 30.3
      vertex 113 -0.5 30.3
    endloop
  endfacet
  facet normal 1 0 0
    outer loop
      vertex 113 5.5 30.3
      vertex 113 -0.5 30.7
      vertex 113 -0.5 30.3
    endloop
  endfacet
  facet normal 0 0 1
    outer loop
      vertex 105 5.5 30.7
      vertex 113 -0.5 30.7
      vertex 113 5.5 30.7
    endloop
  endfacet
  facet normal 0 1 0
    outer loop
      vertex 113 5.5 30.3
      vertex 105 5.5 30.7
      vertex 113 5.5 30.7
    endloop
  endfacet
  facet normal 1 0 0
    outer loop
      vertex 113 -0.5 30.7
      vertex 113 5.5 30.3
      vertex 113 5.5 30.7
    endloop
  endfacet
  facet normal 0 -1 0
    outer loop
      vertex 74.5 24 45.5
      vertex 80.5 24 46
      vertex 74.5 24 46
    endloop
  endfacet
  facet normal 0 -1 0
    outer loop
      vertex 80.5 24 46
      vertex 74.5 24 45.5
      vertex 80.5 24 45.5
    endloop
  endfacet
  facet normal -1 0 0
    outer loop
      vertex 74.5 30 46
      vertex 74.5 24 45.5
      vertex 74.5 24 46
    endloop
  endfacet
  facet normal 0 0 1
    outer loop
      vertex 80.5 24 46
      vertex 74.5 30 46
      vertex 74.5 24 46
    endloop
  endfacet
  facet normal -1 0 0
    outer loop
      vertex 74.5 24 45.5
      vertex 74.5 30 46
      vertex 74.5 30 45.5
    endloop
  endfacet
  facet normal 0 0 -1
    outer loop
      vertex 80.5 30 45.5
      vertex 74.5 24 45.5
      vertex 74.5 30 45.5
    endloop
  endfacet
  facet normal 0 1 0
    outer loop
      vertex 74.5 30 46
      vertex 80.5 30 45.5
      vertex 74.5 30 45.5
    endloop
  endfacet
  facet normal 0 0 -1
    outer loop
      vertex 74.5 24 45.5
      vertex 80.5 30 45.5
      vertex 80.5 24 45.5
    endloop
  endfacet
  facet normal 0 0 1
    outer loop
      vertex 74.5 30 46
      vertex 80.5 24 46
      vertex 80.5 30 46
    endloop
  endfacet
  facet normal 0 1 0
    outer loop
      vertex 80.5 30 45.5
      vertex 74.5 30 46
      vertex 80.5 30 46
    endloop
  endfacet
  facet normal 1 0 0
    outer loop
      vertex 80.5 30 45.5
      vertex 80.5 24 46
      vertex 80.5 24 45.5
    endloop
  endfacet
  facet normal 1 0 0
    outer loop
      vertex 80.5 24 46
      vertex 80.5 30 45.5
      vertex 80.5 30 46
    endloop
  endfacet
endsolid OpenSCAD_Model
