solid OpenSCAD_Model
  facet normal 0 -1 0
    outer loop
      vertex 77.5 28 7.4
      vertex 95.3 28 8.3
      vertex 77.5 28 8.3
    endloop
  endfacet
  facet normal -1 0 0
    outer loop
      vertex 77.5 50.5 8.3
      vertex 77.5 28 7.4
      vertex 77.5 28 8.3
    endloop
  endfacet
  facet normal 0 0 1
    outer loop
      vertex 95.3 28 8.3
      vertex 77.5 50.5 8.3
      vertex 77.5 28 8.3
    endloop
  endfacet
  facet normal 0 -1 0
    outer loop
      vertex 95.3 28 8.3
      vertex 77.5 28 7.4
      vertex 95.3 28 7.4
    endloop
  endfacet
  facet normal 0 0 -1
    outer loop
      vertex 77.5 28 7.4
      vertex 95.3 50.5 7.4
      vertex 95.3 28 7.4
    endloop
  endfacet
  facet normal 1 0 0
    outer loop
      vertex 95.3 50.5 7.4
      vertex 95.3 28 8.3
      vertex 95.3 28 7.4
    endloop
  endfacet
  facet normal -1 0 0
    outer loop
      vertex 77.5 28 7.4
      vertex 77.5 50.5 8.3
      vertex 77.5 50.5 7.4
    endloop
  endfacet
  facet normal 0 0 -1
    outer loop
      vertex 95.3 50.5 7.4
      vertex 77.5 28 7.4
      vertex 77.5 50.5 7.4
    endloop
  endfacet
  facet normal 0 1 0
    outer loop
      vertex 77.5 50.5 8.3
      vertex 95.3 50.5 7.4
      vertex 77.5 50.5 7.4
    endloop
  endfacet
  facet normal 0 0 1
    outer loop
      vertex 77.5 50.5 8.3
      vertex 95.3 28 8.3
      vertex 95.3 50.5 8.3
    endloop
  endfacet
  facet normal 1 0 0
    outer loop
      vertex 95.3 28 8.3
      vertex 95.3 50.5 7.4
      vertex 95.3 50.5 8.3
    endloop
  endfacet
  facet normal 0 1 0
    outer loop
      vertex 95.3 50.5 7.4
      vertex 77.5 50.5 8.3
      vertex 95.3 50.5 8.3
    endloop
  endfacet
  facet normal 0 -1 0
    outer loop
      vertex 99 29 7.4
      vertex 114 29 8.3
      vertex 99 29 8.3
    endloop
  endfacet
  facet normal -1 0 0
    outer loop
      vertex 99 49 8.3
      vertex 99 29 7.4
      vertex 99 29 8.3
    endloop
  endfacet
  facet normal 0 0 1
    outer loop
      vertex 114 29 8.3
      vertex 99 49 8.3
      vertex 99 29 8.3
    endloop
  endfacet
  facet normal 0 -1 0
    outer loop
      vertex 114 29 8.3
      vertex 99 29 7.4
      vertex 114 29 7.4
    endloop
  endfacet
  facet normal 0 0 -1
    outer loop
      vertex 99 29 7.4
      vertex 114 49 7.4
      vertex 114 29 7.4
    endloop
  endfacet
  facet normal 1 0 0
    outer loop
      vertex 114 49 7.4
      vertex 114 29 8.3
      vertex 114 29 7.4
    endloop
  endfacet
  facet normal -1 0 0
    outer loop
      vertex 99 29 7.4
      vertex 99 49 8.3
      vertex 99 49 7.4
    endloop
  endfacet
  facet normal 0 0 -1
    outer loop
      vertex 114 49 7.4
      vertex 99 29 7.4
      vertex 99 49 7.4
    endloop
  endfacet
  facet normal 0 1 0
    outer loop
      vertex 99 49 8.3
      vertex 114 49 7.4
      vertex 99 49 7.4
    endloop
  endfacet
  facet normal 0 0 1
    outer loop
      vertex 99 49 8.3
      vertex 114 29 8.3
      vertex 114 49 8.3
    endloop
  endfacet
  facet normal 1 0 0
    outer loop
      vertex 114 29 8.3
      vertex 114 49 7.4
      vertex 114 49 8.3
    endloop
  endfacet
  facet normal 0 1 0
    outer loop
      vertex 114 49 7.4
      vertex 99 49 8.3
      vertex 114 49 8.3
    endloop
  endfacet
  facet normal 0 -1 0
    outer loop
      vertex 98.5 29 19.8
      vertex 113.5 29 20.3
      vertex 98.5 29 20.3
    endloop
  endfacet
  facet normal -1 0 0
    outer loop
      vertex 98.5 49 20.3
      vertex 98.5 29 19.8
      vertex 98.5 29 20.3
    endloop
  endfacet
  facet normal 0 0 1
    outer loop
      vertex 113.5 29 20.3
      vertex 98.5 49 20.3
      vertex 98.5 29 20.3
    endloop
  endfacet
  facet normal 0 -1 0
    outer loop
      vertex 113.5 29 20.3
      vertex 98.5 29 19.8
      vertex 113.5 29 19.8
    endloop
  endfacet
  facet normal 0 0 -1
    outer loop
      vertex 98.5 29 19.8
      vertex 113.5 49 19.8
      vertex 113.5 29 19.8
    endloop
  endfacet
  facet normal 1 0 0
    outer loop
      vertex 113.5 49 19.8
      vertex 113.5 29 20.3
      vertex 113.5 29 19.8
    endloop
  endfacet
  facet normal -1 0 0
    outer loop
      vertex 98.5 29 19.8
      vertex 98.5 49 20.3
      vertex 98.5 49 19.8
    endloop
  endfacet
  facet normal 0 0 -1
    outer loop
      vertex 113.5 49 19.8
      vertex 98.5 29 19.8
      vertex 98.5 49 19.8
    endloop
  endfacet
  facet normal 0 1 0
    outer loop
      vertex 98.5 49 20.3
      vertex 113.5 49 19.8
      vertex 98.5 49 19.8
    endloop
  endfacet
  facet normal 0 0 1
    outer loop
      vertex 98.5 49 20.3
      vertex 113.5 29 20.3
      vertex 113.5 49 20.3
    endloop
  endfacet
  facet normal 1 0 0
    outer loop
      vertex 113.5 29 20.3
      vertex 113.5 49 19.8
      vertex 113.5 49 20.3
    endloop
  endfacet
  facet normal 0 1 0
    outer loop
      vertex 113.5 49 19.8
      vertex 98.5 49 20.3
      vertex 113.5 49 20.3
    endloop
  endfacet
endsolid OpenSCAD_Model
