solid OpenSCAD_Model
  facet normal 0 0 1
    outer loop
      vertex 74.5 30 47.8
      vertex 80.5 24 47.8
      vertex 80.5 30 47.8
    endloop
  endfacet
  facet normal 0 0 1
    outer loop
      vertex 80.5 24 47.8
      vertex 74.5 30 47.8
      vertex 74.5 24 47.8
    endloop
  endfacet
  facet normal 0 0 -1
    outer loop
      vertex 74.5 24 46
      vertex 80.5 30 46
      vertex 80.5 24 46
    endloop
  endfacet
  facet normal 0 0 -1
    outer loop
      vertex 80.5 30 46
      vertex 74.5 24 46
      vertex 74.5 30 46
    endloop
  endfacet
  facet normal 0 -1 0
    outer loop
      vertex 74.5 24 46
      vertex 80.5 24 47.8
      vertex 74.5 24 47.8
    endloop
  endfacet
  facet normal 0 -1 0
    outer loop
      vertex 80.5 24 47.8
      vertex 74.5 24 46
      vertex 80.5 24 46
    endloop
  endfacet
  facet normal 1 0 0
    outer loop
      vertex 80.5 24 47.8
      vertex 80.5 30 46
      vertex 80.5 30 47.8
    endloop
  endfacet
  facet normal 1 0 0
    outer loop
      vertex 80.5 30 46
      vertex 80.5 24 47.8
      vertex 80.5 24 46
    endloop
  endfacet
  facet normal 0 1 0
    outer loop
      vertex 80.5 30 46
      vertex 74.5 30 47.8
      vertex 80.5 30 47.8
    endloop
  endfacet
  facet normal 0 1 0
    outer loop
      vertex 74.5 30 47.8
      vertex 80.5 30 46
      vertex 74.5 30 46
    endloop
  endfacet
  facet normal -1 0 0
    outer loop
      vertex 74.5 24 46
      vertex 74.5 30 47.8
      vertex 74.5 30 46
    endloop
  endfacet
  facet normal -1 0 0
    outer loop
      vertex 74.5 30 47.8
      vertex 74.5 24 46
      vertex 74.5 24 47.8
    endloop
  endfacet
endsolid OpenSCAD_Model
