solid OpenSCAD_Model
  facet normal 0 0 1
    outer loop
      vertex 93.2 22 25.5
      vertex 115.2 -52 25.5
      vertex 115.2 22 25.5
    endloop
  endfacet
  facet normal 0 0 1
    outer loop
      vertex 115.2 -52 25.5
      vertex 93.2 22 25.5
      vertex 93.2 -52 25.5
    endloop
  endfacet
  facet normal 0 0 -1
    outer loop
      vertex 93.2 -52 4.5
      vertex 115.2 22 4.5
      vertex 115.2 -52 4.5
    endloop
  endfacet
  facet normal 0 0 -1
    outer loop
      vertex 115.2 22 4.5
      vertex 93.2 -52 4.5
      vertex 93.2 22 4.5
    endloop
  endfacet
  facet normal 0 -1 0
    outer loop
      vertex 93.2 -52 4.5
      vertex 115.2 -52 25.5
      vertex 93.2 -52 25.5
    endloop
  endfacet
  facet normal 0 -1 0
    outer loop
      vertex 115.2 -52 25.5
      vertex 93.2 -52 4.5
      vertex 115.2 -52 4.5
    endloop
  endfacet
  facet normal 1 0 0
    outer loop
      vertex 115.2 -52 25.5
      vertex 115.2 22 4.5
      vertex 115.2 22 25.5
    endloop
  endfacet
  facet normal 1 0 0
    outer loop
      vertex 115.2 22 4.5
      vertex 115.2 -52 25.5
      vertex 115.2 -52 4.5
    endloop
  endfacet
  facet normal 0 1 0
    outer loop
      vertex 115.2 22 4.5
      vertex 93.2 22 25.5
      vertex 115.2 22 25.5
    endloop
  endfacet
  facet normal 0 1 0
    outer loop
      vertex 93.2 22 25.5
      vertex 115.2 22 4.5
      vertex 93.2 22 4.5
    endloop
  endfacet
  facet normal -1 0 0
    outer loop
      vertex 93.2 -52 4.5
      vertex 93.2 22 25.5
      vertex 93.2 22 4.5
    endloop
  endfacet
  facet normal -1 0 0
    outer loop
      vertex 93.2 22 25.5
      vertex 93.2 -52 4.5
      vertex 93.2 -52 25.5
    endloop
  endfacet
endsolid OpenSCAD_Model
