solid OpenSCAD_Model
  facet normal 0 0 1
    outer loop
      vertex 105 -8.5 32
      vertex 113 -14.5 32
      vertex 113 -8.5 32
    endloop
  endfacet
  facet normal 0 0 1
    outer loop
      vertex 113 -14.5 32
      vertex 105 -8.5 32
      vertex 105 -14.5 32
    endloop
  endfacet
  facet normal 0 0 -1
    outer loop
      vertex 105 -14.5 30.7
      vertex 113 -8.5 30.7
      vertex 113 -14.5 30.7
    endloop
  endfacet
  facet normal 0 0 -1
    outer loop
      vertex 113 -8.5 30.7
      vertex 105 -14.5 30.7
      vertex 105 -8.5 30.7
    endloop
  endfacet
  facet normal 0 -1 0
    outer loop
      vertex 105 -14.5 30.7
      vertex 113 -14.5 32
      vertex 105 -14.5 32
    endloop
  endfacet
  facet normal 0 -1 0
    outer loop
      vertex 113 -14.5 32
      vertex 105 -14.5 30.7
      vertex 113 -14.5 30.7
    endloop
  endfacet
  facet normal 1 0 0
    outer loop
      vertex 113 -14.5 32
      vertex 113 -8.5 30.7
      vertex 113 -8.5 32
    endloop
  endfacet
  facet normal 1 0 0
    outer loop
      vertex 113 -8.5 30.7
      vertex 113 -14.5 32
      vertex 113 -14.5 30.7
    endloop
  endfacet
  facet normal 0 1 0
    outer loop
      vertex 113 -8.5 30.7
      vertex 105 -8.5 32
      vertex 113 -8.5 32
    endloop
  endfacet
  facet normal 0 1 0
    outer loop
      vertex 105 -8.5 32
      vertex 113 -8.5 30.7
      vertex 105 -8.5 30.7
    endloop
  endfacet
  facet normal -1 0 0
    outer loop
      vertex 105 -14.5 30.7
      vertex 105 -8.5 32
      vertex 105 -8.5 30.7
    endloop
  endfacet
  facet normal -1 0 0
    outer loop
      vertex 105 -8.5 32
      vertex 105 -14.5 30.7
      vertex 105 -14.5 32
    endloop
  endfacet
endsolid OpenSCAD_Model
