solid OpenSCAD_Model
  facet normal 0 0.06540312923016546 -0.9978589232386021
    outer loop
      vertex -107 -55 50
      vertex 73 -54.86947380777995 50.00855513862619
      vertex 73 -55 50
    endloop
  endfacet
  facet normal 0 0.06540312923016546 -0.9978589232386021
    outer loop
      vertex 73 -54.86947380777995 50.00855513862619
      vertex -107 -55 50
      vertex -107 -54.86947380777995 50.00855513862619
    endloop
  endfacet
  facet normal 0 0.19509032201612622 -0.9807852804032309
    outer loop
      vertex -107 -54.86947380777995 50.00855513862619
      vertex 73 -54.74118095489748 50.034074173710934
      vertex 73 -54.86947380777995 50.00855513862619
    endloop
  endfacet
  facet normal 0 0.19509032201612622 -0.9807852804032309
    outer loop
      vertex 73 -54.74118095489748 50.034074173710934
      vertex -107 -54.86947380777995 50.00855513862619
      vertex -107 -54.74118095489748 50.034074173710934
    endloop
  endfacet
  facet normal 0 0.32143946530314454 -0.9469301294951115
    outer loop
      vertex -107 -54.74118095489748 50.034074173710934
      vertex 73 -54.61731656763491 50.076120467488714
      vertex 73 -54.74118095489748 50.034074173710934
    endloop
  endfacet
  facet normal 0 0.32143946530314454 -0.9469301294951115
    outer loop
      vertex 73 -54.61731656763491 50.076120467488714
      vertex -107 -54.74118095489748 50.034074173710934
      vertex -107 -54.61731656763491 50.076120467488714
    endloop
  endfacet
  facet normal 0 0.4422886902189873 -0.8968727415326953
    outer loop
      vertex -107 -54.61731656763491 50.076120467488714
      vertex 73 -54.5 50.13397459621556
      vertex 73 -54.61731656763491 50.076120467488714
    endloop
  endfacet
  facet normal 0 0.4422886902189873 -0.8968727415326953
    outer loop
      vertex 73 -54.5 50.13397459621556
      vertex -107 -54.61731656763491 50.076120467488714
      vertex -107 -54.5 50.13397459621556
    endloop
  endfacet
  facet normal 0 0.5555702330196167 -0.8314696123025356
    outer loop
      vertex -107 -54.5 50.13397459621556
      vertex 73 -54.39123857099128 50.20664665970877
      vertex 73 -54.5 50.13397459621556
    endloop
  endfacet
  facet normal 0 0.5555702330196167 -0.8314696123025356
    outer loop
      vertex 73 -54.39123857099128 50.20664665970877
      vertex -107 -54.5 50.13397459621556
      vertex -107 -54.39123857099128 50.20664665970877
    endloop
  endfacet
  facet normal 0 0.6593458151000808 -0.7518398074789668
    outer loop
      vertex -107 -54.39123857099128 50.20664665970877
      vertex 73 -54.292893218813454 50.292893218813454
      vertex 73 -54.39123857099128 50.20664665970877
    endloop
  endfacet
  facet normal 0 0.6593458151000808 -0.7518398074789668
    outer loop
      vertex 73 -54.292893218813454 50.292893218813454
      vertex -107 -54.39123857099128 50.20664665970877
      vertex -107 -54.292893218813454 50.292893218813454
    endloop
  endfacet
  facet normal 0 0.7518398074789668 -0.6593458151000808
    outer loop
      vertex 73 -54.292893218813454 50.292893218813454
      vertex -107 -54.20664665970877 50.39123857099128
      vertex 73 -54.20664665970877 50.39123857099128
    endloop
  endfacet
  facet normal 0 0.7518398074789668 -0.6593458151000808
    outer loop
      vertex -107 -54.20664665970877 50.39123857099128
      vertex 73 -54.292893218813454 50.292893218813454
      vertex -107 -54.292893218813454 50.292893218813454
    endloop
  endfacet
  facet normal 0 0.8314696123025356 -0.5555702330196167
    outer loop
      vertex 73 -54.20664665970877 50.39123857099128
      vertex -107 -54.13397459621556 50.5
      vertex 73 -54.13397459621556 50.5
    endloop
  endfacet
  facet normal 0 0.8314696123025356 -0.5555702330196167
    outer loop
      vertex -107 -54.13397459621556 50.5
      vertex 73 -54.20664665970877 50.39123857099128
      vertex -107 -54.20664665970877 50.39123857099128
    endloop
  endfacet
  facet normal 0 0.8968727415326953 -0.4422886902189873
    outer loop
      vertex 73 -54.13397459621556 50.5
      vertex -107 -54.076120467488714 50.61731656763491
      vertex 73 -54.076120467488714 50.61731656763491
    endloop
  endfacet
  facet normal 0 0.8968727415326953 -0.4422886902189873
    outer loop
      vertex -107 -54.076120467488714 50.61731656763491
      vertex 73 -54.13397459621556 50.5
      vertex -107 -54.13397459621556 50.5
    endloop
  endfacet
  facet normal 0 0.9469301294951115 -0.32143946530314454
    outer loop
      vertex 73 -54.076120467488714 50.61731656763491
      vertex -107 -54.034074173710934 50.74118095489748
      vertex 73 -54.034074173710934 50.74118095489748
    endloop
  endfacet
  facet normal 0 0.9469301294951115 -0.32143946530314454
    outer loop
      vertex -107 -54.034074173710934 50.74118095489748
      vertex 73 -54.076120467488714 50.61731656763491
      vertex -107 -54.076120467488714 50.61731656763491
    endloop
  endfacet
  facet normal 0 0.9807852804032309 -0.19509032201612622
    outer loop
      vertex 73 -54.034074173710934 50.74118095489748
      vertex -107 -54.00855513862619 50.86947380777995
      vertex 73 -54.00855513862619 50.86947380777995
    endloop
  endfacet
  facet normal 0 0.9807852804032309 -0.19509032201612622
    outer loop
      vertex -107 -54.00855513862619 50.86947380777995
      vertex 73 -54.034074173710934 50.74118095489748
      vertex -107 -54.034074173710934 50.74118095489748
    endloop
  endfacet
  facet normal 0 0.9978589232386021 -0.06540312923016546
    outer loop
      vertex 73 -54.00855513862619 50.86947380777995
      vertex -107 -54 51
      vertex 73 -54 51
    endloop
  endfacet
  facet normal 0 0.9978589232386021 -0.06540312923016546
    outer loop
      vertex -107 -54 51
      vertex 73 -54.00855513862619 50.86947380777995
      vertex -107 -54.00855513862619 50.86947380777995
    endloop
  endfacet
  facet normal 0 0.9978589232386021 0.06540312923016546
    outer loop
      vertex 73 -54 51
      vertex -107 -54.00855513862619 51.13052619222005
      vertex 73 -54.00855513862619 51.13052619222005
    endloop
  endfacet
  facet normal 0 0.9978589232386021 0.06540312923016546
    outer loop
      vertex -107 -54.00855513862619 51.13052619222005
      vertex 73 -54 51
      vertex -107 -54 51
    endloop
  endfacet
  facet normal 0 0.9807852804032309 0.19509032201612622
    outer loop
      vertex 73 -54.00855513862619 51.13052619222005
      vertex -107 -54.034074173710934 51.25881904510252
      vertex 73 -54.034074173710934 51.25881904510252
    endloop
  endfacet
  facet normal 0 0.9807852804032309 0.19509032201612622
    outer loop
      vertex -107 -54.034074173710934 51.25881904510252
      vertex 73 -54.00855513862619 51.13052619222005
      vertex -107 -54.00855513862619 51.13052619222005
    endloop
  endfacet
  facet normal 0 0.9469301294951115 0.32143946530314454
    outer loop
      vertex 73 -54.034074173710934 51.25881904510252
      vertex -107 -54.076120467488714 51.38268343236509
      vertex 73 -54.076120467488714 51.38268343236509
    endloop
  endfacet
  facet normal 0 0.9469301294951115 0.32143946530314454
    outer loop
      vertex -107 -54.076120467488714 51.38268343236509
      vertex 73 -54.034074173710934 51.25881904510252
      vertex -107 -54.034074173710934 51.25881904510252
    endloop
  endfacet
  facet normal 0 0.8968727415326953 0.4422886902189873
    outer loop
      vertex 73 -54.076120467488714 51.38268343236509
      vertex -107 -54.13397459621556 51.5
      vertex 73 -54.13397459621556 51.5
    endloop
  endfacet
  facet normal 0 0.8968727415326953 0.4422886902189873
    outer loop
      vertex -107 -54.13397459621556 51.5
      vertex 73 -54.076120467488714 51.38268343236509
      vertex -107 -54.076120467488714 51.38268343236509
    endloop
  endfacet
  facet normal 0 0.8314696123025356 0.5555702330196167
    outer loop
      vertex 73 -54.13397459621556 51.5
      vertex -107 -54.20664665970877 51.60876142900872
      vertex 73 -54.20664665970877 51.60876142900872
    endloop
  endfacet
  facet normal 0 0.8314696123025356 0.5555702330196167
    outer loop
      vertex -107 -54.20664665970877 51.60876142900872
      vertex 73 -54.13397459621556 51.5
      vertex -107 -54.13397459621556 51.5
    endloop
  endfacet
  facet normal 0 0.7518398074789668 0.6593458151000808
    outer loop
      vertex 73 -54.20664665970877 51.60876142900872
      vertex -107 -54.292893218813454 51.707106781186546
      vertex 73 -54.292893218813454 51.707106781186546
    endloop
  endfacet
  facet normal 0 0.7518398074789668 0.6593458151000808
    outer loop
      vertex -107 -54.292893218813454 51.707106781186546
      vertex 73 -54.20664665970877 51.60876142900872
      vertex -107 -54.20664665970877 51.60876142900872
    endloop
  endfacet
  facet normal 0 0.6593458151000808 0.7518398074789668
    outer loop
      vertex -107 -54.292893218813454 51.707106781186546
      vertex 73 -54.39123857099128 51.79335334029123
      vertex 73 -54.292893218813454 51.707106781186546
    endloop
  endfacet
  facet normal 0 0.6593458151000808 0.7518398074789668
    outer loop
      vertex 73 -54.39123857099128 51.79335334029123
      vertex -107 -54.292893218813454 51.707106781186546
      vertex -107 -54.39123857099128 51.79335334029123
    endloop
  endfacet
  facet normal 0 0.5555702330196167 0.8314696123025356
    outer loop
      vertex -107 -54.39123857099128 51.79335334029123
      vertex 73 -54.5 51.86602540378444
      vertex 73 -54.39123857099128 51.79335334029123
    endloop
  endfacet
  facet normal 0 0.5555702330196167 0.8314696123025356
    outer loop
      vertex 73 -54.5 51.86602540378444
      vertex -107 -54.39123857099128 51.79335334029123
      vertex -107 -54.5 51.86602540378444
    endloop
  endfacet
  facet normal 0 0.4422886902189873 0.8968727415326953
    outer loop
      vertex -107 -54.5 51.86602540378444
      vertex 73 -54.61731656763491 51.923879532511286
      vertex 73 -54.5 51.86602540378444
    endloop
  endfacet
  facet normal 0 0.4422886902189873 0.8968727415326953
    outer loop
      vertex 73 -54.61731656763491 51.923879532511286
      vertex -107 -54.5 51.86602540378444
      vertex -107 -54.61731656763491 51.923879532511286
    endloop
  endfacet
  facet normal 0 0.32143946530314454 0.9469301294951115
    outer loop
      vertex -107 -54.61731656763491 51.923879532511286
      vertex 73 -54.74118095489748 51.965925826289066
      vertex 73 -54.61731656763491 51.923879532511286
    endloop
  endfacet
  facet normal 0 0.32143946530314454 0.9469301294951115
    outer loop
      vertex 73 -54.74118095489748 51.965925826289066
      vertex -107 -54.61731656763491 51.923879532511286
      vertex -107 -54.74118095489748 51.965925826289066
    endloop
  endfacet
  facet normal 0 0.19509032201612622 0.9807852804032309
    outer loop
      vertex -107 -54.74118095489748 51.965925826289066
      vertex 73 -54.86947380777995 51.99144486137381
      vertex 73 -54.74118095489748 51.965925826289066
    endloop
  endfacet
  facet normal 0 0.19509032201612622 0.9807852804032309
    outer loop
      vertex 73 -54.86947380777995 51.99144486137381
      vertex -107 -54.74118095489748 51.965925826289066
      vertex -107 -54.86947380777995 51.99144486137381
    endloop
  endfacet
  facet normal 0 0.06540312923016546 0.9978589232386021
    outer loop
      vertex -107 -54.86947380777995 51.99144486137381
      vertex 73 -55 52
      vertex 73 -54.86947380777995 51.99144486137381
    endloop
  endfacet
  facet normal 0 0.06540312923016546 0.9978589232386021
    outer loop
      vertex 73 -55 52
      vertex -107 -54.86947380777995 51.99144486137381
      vertex -107 -55 52
    endloop
  endfacet
  facet normal 0 -0.06540312923016546 0.9978589232386021
    outer loop
      vertex -107 -55 52
      vertex 73 -55.13052619222005 51.99144486137381
      vertex 73 -55 52
    endloop
  endfacet
  facet normal 0 -0.06540312923016546 0.9978589232386021
    outer loop
      vertex 73 -55.13052619222005 51.99144486137381
      vertex -107 -55 52
      vertex -107 -55.13052619222005 51.99144486137381
    endloop
  endfacet
  facet normal 0 -0.19509032201612622 0.9807852804032309
    outer loop
      vertex -107 -55.13052619222005 51.99144486137381
      vertex 73 -55.25881904510252 51.965925826289066
      vertex 73 -55.13052619222005 51.99144486137381
    endloop
  endfacet
  facet normal 0 -0.19509032201612622 0.9807852804032309
    outer loop
      vertex 73 -55.25881904510252 51.965925826289066
      vertex -107 -55.13052619222005 51.99144486137381
      vertex -107 -55.25881904510252 51.965925826289066
    endloop
  endfacet
  facet normal 0 -0.32143946530314454 0.9469301294951115
    outer loop
      vertex -107 -55.25881904510252 51.965925826289066
      vertex 73 -55.38268343236509 51.923879532511286
      vertex 73 -55.25881904510252 51.965925826289066
    endloop
  endfacet
  facet normal 0 -0.32143946530314454 0.9469301294951115
    outer loop
      vertex 73 -55.38268343236509 51.923879532511286
      vertex -107 -55.25881904510252 51.965925826289066
      vertex -107 -55.38268343236509 51.923879532511286
    endloop
  endfacet
  facet normal 0 -0.4422886902189873 0.8968727415326953
    outer loop
      vertex -107 -55.38268343236509 51.923879532511286
      vertex 73 -55.5 51.86602540378444
      vertex 73 -55.38268343236509 51.923879532511286
    endloop
  endfacet
  facet normal 0 -0.4422886902189873 0.8968727415326953
    outer loop
      vertex 73 -55.5 51.86602540378444
      vertex -107 -55.38268343236509 51.923879532511286
      vertex -107 -55.5 51.86602540378444
    endloop
  endfacet
  facet normal 0 -0.5555702330196167 0.8314696123025356
    outer loop
      vertex -107 -55.5 51.86602540378444
      vertex 73 -55.60876142900872 51.79335334029123
      vertex 73 -55.5 51.86602540378444
    endloop
  endfacet
  facet normal 0 -0.5555702330196167 0.8314696123025356
    outer loop
      vertex 73 -55.60876142900872 51.79335334029123
      vertex -107 -55.5 51.86602540378444
      vertex -107 -55.60876142900872 51.79335334029123
    endloop
  endfacet
  facet normal 0 -0.6593458151000808 0.7518398074789668
    outer loop
      vertex -107 -55.60876142900872 51.79335334029123
      vertex 73 -55.707106781186546 51.707106781186546
      vertex 73 -55.60876142900872 51.79335334029123
    endloop
  endfacet
  facet normal 0 -0.6593458151000808 0.7518398074789668
    outer loop
      vertex 73 -55.707106781186546 51.707106781186546
      vertex -107 -55.60876142900872 51.79335334029123
      vertex -107 -55.707106781186546 51.707106781186546
    endloop
  endfacet
  facet normal 0 -0.7518398074789668 0.6593458151000808
    outer loop
      vertex -107 -55.79335334029123 51.60876142900872
      vertex 73 -55.707106781186546 51.707106781186546
      vertex -107 -55.707106781186546 51.707106781186546
    endloop
  endfacet
  facet normal 0 -0.7518398074789668 0.6593458151000808
    outer loop
      vertex 73 -55.707106781186546 51.707106781186546
      vertex -107 -55.79335334029123 51.60876142900872
      vertex 73 -55.79335334029123 51.60876142900872
    endloop
  endfacet
  facet normal 0 -0.8314696123025356 0.5555702330196167
    outer loop
      vertex -107 -55.86602540378444 51.5
      vertex 73 -55.79335334029123 51.60876142900872
      vertex -107 -55.79335334029123 51.60876142900872
    endloop
  endfacet
  facet normal 0 -0.8314696123025356 0.5555702330196167
    outer loop
      vertex 73 -55.79335334029123 51.60876142900872
      vertex -107 -55.86602540378444 51.5
      vertex 73 -55.86602540378444 51.5
    endloop
  endfacet
  facet normal 0 -0.8968727415326953 0.4422886902189873
    outer loop
      vertex -107 -55.923879532511286 51.38268343236509
      vertex 73 -55.86602540378444 51.5
      vertex -107 -55.86602540378444 51.5
    endloop
  endfacet
  facet normal 0 -0.8968727415326953 0.4422886902189873
    outer loop
      vertex 73 -55.86602540378444 51.5
      vertex -107 -55.923879532511286 51.38268343236509
      vertex 73 -55.923879532511286 51.38268343236509
    endloop
  endfacet
  facet normal 0 -0.9469301294951115 0.32143946530314454
    outer loop
      vertex -107 -55.965925826289066 51.25881904510252
      vertex 73 -55.923879532511286 51.38268343236509
      vertex -107 -55.923879532511286 51.38268343236509
    endloop
  endfacet
  facet normal 0 -0.9469301294951115 0.32143946530314454
    outer loop
      vertex 73 -55.923879532511286 51.38268343236509
      vertex -107 -55.965925826289066 51.25881904510252
      vertex 73 -55.965925826289066 51.25881904510252
    endloop
  endfacet
  facet normal 0 -0.9807852804032309 0.19509032201612622
    outer loop
      vertex -107 -55.99144486137381 51.13052619222005
      vertex 73 -55.965925826289066 51.25881904510252
      vertex -107 -55.965925826289066 51.25881904510252
    endloop
  endfacet
  facet normal 0 -0.9807852804032309 0.19509032201612622
    outer loop
      vertex 73 -55.965925826289066 51.25881904510252
      vertex -107 -55.99144486137381 51.13052619222005
      vertex 73 -55.99144486137381 51.13052619222005
    endloop
  endfacet
  facet normal 0 -0.9978589232386021 0.06540312923016546
    outer loop
      vertex -107 -56 51
      vertex 73 -55.99144486137381 51.13052619222005
      vertex -107 -55.99144486137381 51.13052619222005
    endloop
  endfacet
  facet normal 0 -0.9978589232386021 0.06540312923016546
    outer loop
      vertex 73 -55.99144486137381 51.13052619222005
      vertex -107 -56 51
      vertex 73 -56 51
    endloop
  endfacet
  facet normal 0 -0.9978589232386021 -0.06540312923016546
    outer loop
      vertex -107 -55.99144486137381 50.86947380777995
      vertex 73 -56 51
      vertex -107 -56 51
    endloop
  endfacet
  facet normal 0 -0.9978589232386021 -0.06540312923016546
    outer loop
      vertex 73 -56 51
      vertex -107 -55.99144486137381 50.86947380777995
      vertex 73 -55.99144486137381 50.86947380777995
    endloop
  endfacet
  facet normal 0 -0.9807852804032309 -0.19509032201612622
    outer loop
      vertex -107 -55.965925826289066 50.74118095489748
      vertex 73 -55.99144486137381 50.86947380777995
      vertex -107 -55.99144486137381 50.86947380777995
    endloop
  endfacet
  facet normal 0 -0.9807852804032309 -0.19509032201612622
    outer loop
      vertex 73 -55.99144486137381 50.86947380777995
      vertex -107 -55.965925826289066 50.74118095489748
      vertex 73 -55.965925826289066 50.74118095489748
    endloop
  endfacet
  facet normal 0 -0.9469301294951115 -0.32143946530314454
    outer loop
      vertex -107 -55.923879532511286 50.61731656763491
      vertex 73 -55.965925826289066 50.74118095489748
      vertex -107 -55.965925826289066 50.74118095489748
    endloop
  endfacet
  facet normal 0 -0.9469301294951115 -0.32143946530314454
    outer loop
      vertex 73 -55.965925826289066 50.74118095489748
      vertex -107 -55.923879532511286 50.61731656763491
      vertex 73 -55.923879532511286 50.61731656763491
    endloop
  endfacet
  facet normal 0 -0.8968727415326953 -0.4422886902189873
    outer loop
      vertex -107 -55.86602540378444 50.5
      vertex 73 -55.923879532511286 50.61731656763491
      vertex -107 -55.923879532511286 50.61731656763491
    endloop
  endfacet
  facet normal 0 -0.8968727415326953 -0.4422886902189873
    outer loop
      vertex 73 -55.923879532511286 50.61731656763491
      vertex -107 -55.86602540378444 50.5
      vertex 73 -55.86602540378444 50.5
    endloop
  endfacet
  facet normal 0 -0.8314696123025356 -0.5555702330196167
    outer loop
      vertex -107 -55.79335334029123 50.39123857099128
      vertex 73 -55.86602540378444 50.5
      vertex -107 -55.86602540378444 50.5
    endloop
  endfacet
  facet normal 0 -0.8314696123025356 -0.5555702330196167
    outer loop
      vertex 73 -55.86602540378444 50.5
      vertex -107 -55.79335334029123 50.39123857099128
      vertex 73 -55.79335334029123 50.39123857099128
    endloop
  endfacet
  facet normal 0 -0.7518398074789668 -0.6593458151000808
    outer loop
      vertex -107 -55.707106781186546 50.292893218813454
      vertex 73 -55.79335334029123 50.39123857099128
      vertex -107 -55.79335334029123 50.39123857099128
    endloop
  endfacet
  facet normal 0 -0.7518398074789668 -0.6593458151000808
    outer loop
      vertex 73 -55.79335334029123 50.39123857099128
      vertex -107 -55.707106781186546 50.292893218813454
      vertex 73 -55.707106781186546 50.292893218813454
    endloop
  endfacet
  facet normal 0 -0.6593458151000808 -0.7518398074789668
    outer loop
      vertex -107 -55.707106781186546 50.292893218813454
      vertex 73 -55.60876142900872 50.20664665970877
      vertex 73 -55.707106781186546 50.292893218813454
    endloop
  endfacet
  facet normal 0 -0.6593458151000808 -0.7518398074789668
    outer loop
      vertex 73 -55.60876142900872 50.20664665970877
      vertex -107 -55.707106781186546 50.292893218813454
      vertex -107 -55.60876142900872 50.20664665970877
    endloop
  endfacet
  facet normal 0 -0.5555702330196167 -0.8314696123025356
    outer loop
      vertex -107 -55.60876142900872 50.20664665970877
      vertex 73 -55.5 50.13397459621556
      vertex 73 -55.60876142900872 50.20664665970877
    endloop
  endfacet
  facet normal 0 -0.5555702330196167 -0.8314696123025356
    outer loop
      vertex 73 -55.5 50.13397459621556
      vertex -107 -55.60876142900872 50.20664665970877
      vertex -107 -55.5 50.13397459621556
    endloop
  endfacet
  facet normal 0 -0.4422886902189873 -0.8968727415326953
    outer loop
      vertex -107 -55.5 50.13397459621556
      vertex 73 -55.38268343236509 50.076120467488714
      vertex 73 -55.5 50.13397459621556
    endloop
  endfacet
  facet normal 0 -0.4422886902189873 -0.8968727415326953
    outer loop
      vertex 73 -55.38268343236509 50.076120467488714
      vertex -107 -55.5 50.13397459621556
      vertex -107 -55.38268343236509 50.076120467488714
    endloop
  endfacet
  facet normal 0 -0.32143946530314454 -0.9469301294951115
    outer loop
      vertex -107 -55.38268343236509 50.076120467488714
      vertex 73 -55.25881904510252 50.034074173710934
      vertex 73 -55.38268343236509 50.076120467488714
    endloop
  endfacet
  facet normal 0 -0.32143946530314454 -0.9469301294951115
    outer loop
      vertex 73 -55.25881904510252 50.034074173710934
      vertex -107 -55.38268343236509 50.076120467488714
      vertex -107 -55.25881904510252 50.034074173710934
    endloop
  endfacet
  facet normal 0 -0.19509032201612622 -0.9807852804032309
    outer loop
      vertex -107 -55.25881904510252 50.034074173710934
      vertex 73 -55.13052619222005 50.00855513862619
      vertex 73 -55.25881904510252 50.034074173710934
    endloop
  endfacet
  facet normal 0 -0.19509032201612622 -0.9807852804032309
    outer loop
      vertex 73 -55.13052619222005 50.00855513862619
      vertex -107 -55.25881904510252 50.034074173710934
      vertex -107 -55.13052619222005 50.00855513862619
    endloop
  endfacet
  facet normal 0 -0.06540312923016546 -0.9978589232386021
    outer loop
      vertex -107 -55.13052619222005 50.00855513862619
      vertex 73 -55 50
      vertex 73 -55.13052619222005 50.00855513862619
    endloop
  endfacet
  facet normal 0 -0.06540312923016546 -0.9978589232386021
    outer loop
      vertex 73 -55 50
      vertex -107 -55.13052619222005 50.00855513862619
      vertex -107 -55 50
    endloop
  endfacet
  facet normal -1 0 0
    outer loop
      vertex -107 -54.00855513862619 50.86947380777995
      vertex -107 -54.00855513862619 51.13052619222005
      vertex -107 -54 51
    endloop
  endfacet
  facet normal -1 0 0
    outer loop
      vertex -107 -54.034074173710934 50.74118095489748
      vertex -107 -54.00855513862619 51.13052619222005
      vertex -107 -54.00855513862619 50.86947380777995
    endloop
  endfacet
  facet normal -1 0 0
    outer loop
      vertex -107 -54.034074173710934 50.74118095489748
      vertex -107 -54.034074173710934 51.25881904510252
      vertex -107 -54.00855513862619 51.13052619222005
    endloop
  endfacet
  facet normal -1 0 0
    outer loop
      vertex -107 -54.076120467488714 50.61731656763491
      vertex -107 -54.034074173710934 51.25881904510252
      vertex -107 -54.034074173710934 50.74118095489748
    endloop
  endfacet
  facet normal -1 0 0
    outer loop
      vertex -107 -54.076120467488714 50.61731656763491
      vertex -107 -54.076120467488714 51.38268343236509
      vertex -107 -54.034074173710934 51.25881904510252
    endloop
  endfacet
  facet normal -1 0 0
    outer loop
      vertex -107 -54.13397459621556 50.5
      vertex -107 -54.076120467488714 51.38268343236509
      vertex -107 -54.076120467488714 50.61731656763491
    endloop
  endfacet
  facet normal -1 0 0
    outer loop
      vertex -107 -54.13397459621556 50.5
      vertex -107 -54.13397459621556 51.5
      vertex -107 -54.076120467488714 51.38268343236509
    endloop
  endfacet
  facet normal -1 0 0
    outer loop
      vertex -107 -54.20664665970877 50.39123857099128
      vertex -107 -54.13397459621556 51.5
      vertex -107 -54.13397459621556 50.5
    endloop
  endfacet
  facet normal -1 0 0
    outer loop
      vertex -107 -54.20664665970877 50.39123857099128
      vertex -107 -54.20664665970877 51.60876142900872
      vertex -107 -54.13397459621556 51.5
    endloop
  endfacet
  facet normal -1 0 0
    outer loop
      vertex -107 -54.292893218813454 50.292893218813454
      vertex -107 -54.20664665970877 51.60876142900872
      vertex -107 -54.20664665970877 50.39123857099128
    endloop
  endfacet
  facet normal -1 0 0
    outer loop
      vertex -107 -54.292893218813454 50.292893218813454
      vertex -107 -54.292893218813454 51.707106781186546
      vertex -107 -54.20664665970877 51.60876142900872
    endloop
  endfacet
  facet normal -1 0 0
    outer loop
      vertex -107 -54.39123857099128 50.20664665970877
      vertex -107 -54.292893218813454 51.707106781186546
      vertex -107 -54.292893218813454 50.292893218813454
    endloop
  endfacet
  facet normal -1 0 0
    outer loop
      vertex -107 -54.39123857099128 50.20664665970877
      vertex -107 -54.39123857099128 51.79335334029123
      vertex -107 -54.292893218813454 51.707106781186546
    endloop
  endfacet
  facet normal -1 0 0
    outer loop
      vertex -107 -54.5 50.13397459621556
      vertex -107 -54.39123857099128 51.79335334029123
      vertex -107 -54.39123857099128 50.20664665970877
    endloop
  endfacet
  facet normal -1 0 0
    outer loop
      vertex -107 -54.5 50.13397459621556
      vertex -107 -54.5 51.86602540378444
      vertex -107 -54.39123857099128 51.79335334029123
    endloop
  endfacet
  facet normal -1 0 0
    outer loop
      vertex -107 -54.61731656763491 50.076120467488714
      vertex -107 -54.5 51.86602540378444
      vertex -107 -54.5 50.13397459621556
    endloop
  endfacet
  facet normal -1 0 0
    outer loop
      vertex -107 -54.61731656763491 50.076120467488714
      vertex -107 -54.61731656763491 51.923879532511286
      vertex -107 -54.5 51.86602540378444
    endloop
  endfacet
  facet normal -1 0 0
    outer loop
      vertex -107 -54.74118095489748 50.034074173710934
      vertex -107 -54.61731656763491 51.923879532511286
      vertex -107 -54.61731656763491 50.076120467488714
    endloop
  endfacet
  facet normal -1 0 0
    outer loop
      vertex -107 -54.74118095489748 50.034074173710934
      vertex -107 -54.74118095489748 51.965925826289066
      vertex -107 -54.61731656763491 51.923879532511286
    endloop
  endfacet
  facet normal -1 0 0
    outer loop
      vertex -107 -54.86947380777995 50.00855513862619
      vertex -107 -54.74118095489748 51.965925826289066
      vertex -107 -54.74118095489748 50.034074173710934
    endloop
  endfacet
  facet normal -1 0 0
    outer loop
      vertex -107 -54.86947380777995 50.00855513862619
      vertex -107 -54.86947380777995 51.99144486137381
      vertex -107 -54.74118095489748 51.965925826289066
    endloop
  endfacet
  facet normal -1 0 0
    outer loop
      vertex -107 -55 50
      vertex -107 -54.86947380777995 51.99144486137381
      vertex -107 -54.86947380777995 50.00855513862619
    endloop
  endfacet
  facet normal -1 0 0
    outer loop
      vertex -107 -55 50
      vertex -107 -55 52
      vertex -107 -54.86947380777995 51.99144486137381
    endloop
  endfacet
  facet normal -1 0 0
    outer loop
      vertex -107 -55.13052619222005 50.00855513862619
      vertex -107 -55 52
      vertex -107 -55 50
    endloop
  endfacet
  facet normal -1 0 0
    outer loop
      vertex -107 -55.13052619222005 50.00855513862619
      vertex -107 -55.13052619222005 51.99144486137381
      vertex -107 -55 52
    endloop
  endfacet
  facet normal -1 0 0
    outer loop
      vertex -107 -55.25881904510252 50.034074173710934
      vertex -107 -55.13052619222005 51.99144486137381
      vertex -107 -55.13052619222005 50.00855513862619
    endloop
  endfacet
  facet normal -1 0 0
    outer loop
      vertex -107 -55.25881904510252 50.034074173710934
      vertex -107 -55.25881904510252 51.965925826289066
      vertex -107 -55.13052619222005 51.99144486137381
    endloop
  endfacet
  facet normal -1 0 0
    outer loop
      vertex -107 -55.38268343236509 50.076120467488714
      vertex -107 -55.25881904510252 51.965925826289066
      vertex -107 -55.25881904510252 50.034074173710934
    endloop
  endfacet
  facet normal -1 0 0
    outer loop
      vertex -107 -55.38268343236509 50.076120467488714
      vertex -107 -55.38268343236509 51.923879532511286
      vertex -107 -55.25881904510252 51.965925826289066
    endloop
  endfacet
  facet normal -1 0 0
    outer loop
      vertex -107 -55.5 50.13397459621556
      vertex -107 -55.38268343236509 51.923879532511286
      vertex -107 -55.38268343236509 50.076120467488714
    endloop
  endfacet
  facet normal -1 0 0
    outer loop
      vertex -107 -55.5 50.13397459621556
      vertex -107 -55.5 51.86602540378444
      vertex -107 -55.38268343236509 51.923879532511286
    endloop
  endfacet
  facet normal -1 0 0
    outer loop
      vertex -107 -55.60876142900872 50.20664665970877
      vertex -107 -55.5 51.86602540378444
      vertex -107 -55.5 50.13397459621556
    endloop
  endfacet
  facet normal -1 0 0
    outer loop
      vertex -107 -55.60876142900872 50.20664665970877
      vertex -107 -55.60876142900872 51.79335334029123
      vertex -107 -55.5 51.86602540378444
    endloop
  endfacet
  facet normal -1 0 0
    outer loop
      vertex -107 -55.707106781186546 50.292893218813454
      vertex -107 -55.60876142900872 51.79335334029123
      vertex -107 -55.60876142900872 50.20664665970877
    endloop
  endfacet
  facet normal -1 0 0
    outer loop
      vertex -107 -55.707106781186546 50.292893218813454
      vertex -107 -55.707106781186546 51.707106781186546
      vertex -107 -55.60876142900872 51.79335334029123
    endloop
  endfacet
  facet normal -1 0 0
    outer loop
      vertex -107 -55.79335334029123 50.39123857099128
      vertex -107 -55.707106781186546 51.707106781186546
      vertex -107 -55.707106781186546 50.292893218813454
    endloop
  endfacet
  facet normal -1 0 0
    outer loop
      vertex -107 -55.79335334029123 50.39123857099128
      vertex -107 -55.79335334029123 51.60876142900872
      vertex -107 -55.707106781186546 51.707106781186546
    endloop
  endfacet
  facet normal -1 0 0
    outer loop
      vertex -107 -55.86602540378444 50.5
      vertex -107 -55.79335334029123 51.60876142900872
      vertex -107 -55.79335334029123 50.39123857099128
    endloop
  endfacet
  facet normal -1 0 0
    outer loop
      vertex -107 -55.86602540378444 50.5
      vertex -107 -55.86602540378444 51.5
      vertex -107 -55.79335334029123 51.60876142900872
    endloop
  endfacet
  facet normal -1 0 0
    outer loop
      vertex -107 -55.923879532511286 50.61731656763491
      vertex -107 -55.86602540378444 51.5
      vertex -107 -55.86602540378444 50.5
    endloop
  endfacet
  facet normal -1 0 0
    outer loop
      vertex -107 -55.923879532511286 50.61731656763491
      vertex -107 -55.923879532511286 51.38268343236509
      vertex -107 -55.86602540378444 51.5
    endloop
  endfacet
  facet normal -1 0 0
    outer loop
      vertex -107 -55.965925826289066 50.74118095489748
      vertex -107 -55.923879532511286 51.38268343236509
      vertex -107 -55.923879532511286 50.61731656763491
    endloop
  endfacet
  facet normal -1 0 0
    outer loop
      vertex -107 -55.965925826289066 50.74118095489748
      vertex -107 -55.965925826289066 51.25881904510252
      vertex -107 -55.923879532511286 51.38268343236509
    endloop
  endfacet
  facet normal -1 0 0
    outer loop
      vertex -107 -55.99144486137381 50.86947380777995
      vertex -107 -55.965925826289066 51.25881904510252
      vertex -107 -55.965925826289066 50.74118095489748
    endloop
  endfacet
  facet normal -1 0 0
    outer loop
      vertex -107 -55.99144486137381 50.86947380777995
      vertex -107 -55.99144486137381 51.13052619222005
      vertex -107 -55.965925826289066 51.25881904510252
    endloop
  endfacet
  facet normal -1 0 0
    outer loop
      vertex -107 -55.99144486137381 51.13052619222005
      vertex -107 -55.99144486137381 50.86947380777995
      vertex -107 -56 51
    endloop
  endfacet
  facet normal 1 0 0
    outer loop
      vertex 73 -54.00855513862619 51.13052619222005
      vertex 73 -54.00855513862619 50.86947380777995
      vertex 73 -54 51
    endloop
  endfacet
  facet normal 1 0 0
    outer loop
      vertex 73 -54.034074173710934 51.25881904510252
      vertex 73 -54.00855513862619 50.86947380777995
      vertex 73 -54.00855513862619 51.13052619222005
    endloop
  endfacet
  facet normal 1 0 0
    outer loop
      vertex 73 -54.034074173710934 51.25881904510252
      vertex 73 -54.034074173710934 50.74118095489748
      vertex 73 -54.00855513862619 50.86947380777995
    endloop
  endfacet
  facet normal 1 0 0
    outer loop
      vertex 73 -54.076120467488714 51.38268343236509
      vertex 73 -54.034074173710934 50.74118095489748
      vertex 73 -54.034074173710934 51.25881904510252
    endloop
  endfacet
  facet normal 1 0 0
    outer loop
      vertex 73 -54.076120467488714 51.38268343236509
      vertex 73 -54.076120467488714 50.61731656763491
      vertex 73 -54.034074173710934 50.74118095489748
    endloop
  endfacet
  facet normal 1 0 0
    outer loop
      vertex 73 -54.13397459621556 51.5
      vertex 73 -54.076120467488714 50.61731656763491
      vertex 73 -54.076120467488714 51.38268343236509
    endloop
  endfacet
  facet normal 1 0 0
    outer loop
      vertex 73 -54.13397459621556 51.5
      vertex 73 -54.13397459621556 50.5
      vertex 73 -54.076120467488714 50.61731656763491
    endloop
  endfacet
  facet normal 1 0 0
    outer loop
      vertex 73 -54.20664665970877 51.60876142900872
      vertex 73 -54.13397459621556 50.5
      vertex 73 -54.13397459621556 51.5
    endloop
  endfacet
  facet normal 1 0 0
    outer loop
      vertex 73 -54.20664665970877 51.60876142900872
      vertex 73 -54.20664665970877 50.39123857099128
      vertex 73 -54.13397459621556 50.5
    endloop
  endfacet
  facet normal 1 0 0
    outer loop
      vertex 73 -54.292893218813454 51.707106781186546
      vertex 73 -54.20664665970877 50.39123857099128
      vertex 73 -54.20664665970877 51.60876142900872
    endloop
  endfacet
  facet normal 1 0 0
    outer loop
      vertex 73 -54.292893218813454 51.707106781186546
      vertex 73 -54.292893218813454 50.292893218813454
      vertex 73 -54.20664665970877 50.39123857099128
    endloop
  endfacet
  facet normal 1 0 0
    outer loop
      vertex 73 -54.39123857099128 51.79335334029123
      vertex 73 -54.292893218813454 50.292893218813454
      vertex 73 -54.292893218813454 51.707106781186546
    endloop
  endfacet
  facet normal 1 0 0
    outer loop
      vertex 73 -54.39123857099128 51.79335334029123
      vertex 73 -54.39123857099128 50.20664665970877
      vertex 73 -54.292893218813454 50.292893218813454
    endloop
  endfacet
  facet normal 1 0 0
    outer loop
      vertex 73 -54.5 51.86602540378444
      vertex 73 -54.39123857099128 50.20664665970877
      vertex 73 -54.39123857099128 51.79335334029123
    endloop
  endfacet
  facet normal 1 0 0
    outer loop
      vertex 73 -54.5 51.86602540378444
      vertex 73 -54.5 50.13397459621556
      vertex 73 -54.39123857099128 50.20664665970877
    endloop
  endfacet
  facet normal 1 0 0
    outer loop
      vertex 73 -54.61731656763491 51.923879532511286
      vertex 73 -54.5 50.13397459621556
      vertex 73 -54.5 51.86602540378444
    endloop
  endfacet
  facet normal 1 0 0
    outer loop
      vertex 73 -54.61731656763491 51.923879532511286
      vertex 73 -54.61731656763491 50.076120467488714
      vertex 73 -54.5 50.13397459621556
    endloop
  endfacet
  facet normal 1 0 0
    outer loop
      vertex 73 -54.74118095489748 51.965925826289066
      vertex 73 -54.61731656763491 50.076120467488714
      vertex 73 -54.61731656763491 51.923879532511286
    endloop
  endfacet
  facet normal 1 0 0
    outer loop
      vertex 73 -54.74118095489748 51.965925826289066
      vertex 73 -54.74118095489748 50.034074173710934
      vertex 73 -54.61731656763491 50.076120467488714
    endloop
  endfacet
  facet normal 1 0 0
    outer loop
      vertex 73 -54.86947380777995 51.99144486137381
      vertex 73 -54.74118095489748 50.034074173710934
      vertex 73 -54.74118095489748 51.965925826289066
    endloop
  endfacet
  facet normal 1 0 0
    outer loop
      vertex 73 -54.86947380777995 51.99144486137381
      vertex 73 -54.86947380777995 50.00855513862619
      vertex 73 -54.74118095489748 50.034074173710934
    endloop
  endfacet
  facet normal 1 0 0
    outer loop
      vertex 73 -55 52
      vertex 73 -54.86947380777995 50.00855513862619
      vertex 73 -54.86947380777995 51.99144486137381
    endloop
  endfacet
  facet normal 1 0 0
    outer loop
      vertex 73 -55 52
      vertex 73 -55 50
      vertex 73 -54.86947380777995 50.00855513862619
    endloop
  endfacet
  facet normal 1 0 0
    outer loop
      vertex 73 -55.13052619222005 51.99144486137381
      vertex 73 -55 50
      vertex 73 -55 52
    endloop
  endfacet
  facet normal 1 0 0
    outer loop
      vertex 73 -55.13052619222005 51.99144486137381
      vertex 73 -55.13052619222005 50.00855513862619
      vertex 73 -55 50
    endloop
  endfacet
  facet normal 1 0 0
    outer loop
      vertex 73 -55.25881904510252 51.965925826289066
      vertex 73 -55.13052619222005 50.00855513862619
      vertex 73 -55.13052619222005 51.99144486137381
    endloop
  endfacet
  facet normal 1 0 0
    outer loop
      vertex 73 -55.25881904510252 51.965925826289066
      vertex 73 -55.25881904510252 50.034074173710934
      vertex 73 -55.13052619222005 50.00855513862619
    endloop
  endfacet
  facet normal 1 0 0
    outer loop
      vertex 73 -55.38268343236509 51.923879532511286
      vertex 73 -55.25881904510252 50.034074173710934
      vertex 73 -55.25881904510252 51.965925826289066
    endloop
  endfacet
  facet normal 1 0 0
    outer loop
      vertex 73 -55.38268343236509 51.923879532511286
      vertex 73 -55.38268343236509 50.076120467488714
      vertex 73 -55.25881904510252 50.034074173710934
    endloop
  endfacet
  facet normal 1 0 0
    outer loop
      vertex 73 -55.5 51.86602540378444
      vertex 73 -55.38268343236509 50.076120467488714
      vertex 73 -55.38268343236509 51.923879532511286
    endloop
  endfacet
  facet normal 1 0 0
    outer loop
      vertex 73 -55.5 51.86602540378444
      vertex 73 -55.5 50.13397459621556
      vertex 73 -55.38268343236509 50.076120467488714
    endloop
  endfacet
  facet normal 1 0 0
    outer loop
      vertex 73 -55.60876142900872 51.79335334029123
      vertex 73 -55.5 50.13397459621556
      vertex 73 -55.5 51.86602540378444
    endloop
  endfacet
  facet normal 1 0 0
    outer loop
      vertex 73 -55.60876142900872 51.79335334029123
      vertex 73 -55.60876142900872 50.20664665970877
      vertex 73 -55.5 50.13397459621556
    endloop
  endfacet
  facet normal 1 0 0
    outer loop
      vertex 73 -55.707106781186546 51.707106781186546
      vertex 73 -55.60876142900872 50.20664665970877
      vertex 73 -55.60876142900872 51.79335334029123
    endloop
  endfacet
  facet normal 1 0 0
    outer loop
      vertex 73 -55.707106781186546 51.707106781186546
      vertex 73 -55.707106781186546 50.292893218813454
      vertex 73 -55.60876142900872 50.20664665970877
    endloop
  endfacet
  facet normal 1 0 0
    outer loop
      vertex 73 -55.79335334029123 51.60876142900872
      vertex 73 -55.707106781186546 50.292893218813454
      vertex 73 -55.707106781186546 51.707106781186546
    endloop
  endfacet
  facet normal 1 0 0
    outer loop
      vertex 73 -55.79335334029123 51.60876142900872
      vertex 73 -55.79335334029123 50.39123857099128
      vertex 73 -55.707106781186546 50.292893218813454
    endloop
  endfacet
  facet normal 1 0 0
    outer loop
      vertex 73 -55.86602540378444 51.5
      vertex 73 -55.79335334029123 50.39123857099128
      vertex 73 -55.79335334029123 51.60876142900872
    endloop
  endfacet
  facet normal 1 0 0
    outer loop
      vertex 73 -55.86602540378444 51.5
      vertex 73 -55.86602540378444 50.5
      vertex 73 -55.79335334029123 50.39123857099128
    endloop
  endfacet
  facet normal 1 0 0
    outer loop
      vertex 73 -55.923879532511286 51.38268343236509
      vertex 73 -55.86602540378444 50.5
      vertex 73 -55.86602540378444 51.5
    endloop
  endfacet
  facet normal 1 0 0
    outer loop
      vertex 73 -55.923879532511286 51.38268343236509
      vertex 73 -55.923879532511286 50.61731656763491
      vertex 73 -55.86602540378444 50.5
    endloop
  endfacet
  facet normal 1 0 0
    outer loop
      vertex 73 -55.965925826289066 51.25881904510252
      vertex 73 -55.923879532511286 50.61731656763491
      vertex 73 -55.923879532511286 51.38268343236509
    endloop
  endfacet
  facet normal 1 0 0
    outer loop
      vertex 73 -55.965925826289066 51.25881904510252
      vertex 73 -55.965925826289066 50.74118095489748
      vertex 73 -55.923879532511286 50.61731656763491
    endloop
  endfacet
  facet normal 1 0 0
    outer loop
      vertex 73 -55.99144486137381 51.13052619222005
      vertex 73 -55.965925826289066 50.74118095489748
      vertex 73 -55.965925826289066 51.25881904510252
    endloop
  endfacet
  facet normal 1 0 0
    outer loop
      vertex 73 -55.99144486137381 51.13052619222005
      vertex 73 -55.99144486137381 50.86947380777995
      vertex 73 -55.965925826289066 50.74118095489748
    endloop
  endfacet
  facet normal 1 0 0
    outer loop
      vertex 73 -55.99144486137381 50.86947380777995
      vertex 73 -55.99144486137381 51.13052619222005
      vertex 73 -56 51
    endloop
  endfacet
endsolid OpenSCAD_Model
