solid OpenSCAD_Model
  facet normal 0 1 0
    outer loop
      vertex -112 -47.5 48.3
      vertex -104 -47.5 48.3
      vertex -112 -47.5 45
    endloop
  endfacet
  facet normal 0 1 0
    outer loop
      vertex -104 -47.5 48.3
      vertex -104 -47.5 45
      vertex -112 -47.5 45
    endloop
  endfacet
  facet normal 0 -1 0
    outer loop
      vertex -112 -47.5 48.3
      vertex -112 -47.5 45
      vertex -104 -47.5 45
    endloop
  endfacet
  facet normal 0 -1 0
    outer loop
      vertex -112 -47.5 48.3
      vertex -104 -47.5 45
      vertex -104 -47.5 48.3
    endloop
  endfacet
endsolid OpenSCAD_Model
