solid OpenSCAD_Model
  facet normal -1 0 0
    outer loop
      vertex 98.4 -0.5 42.949999999999996
      vertex 98.4 -0.5 42.9
      vertex 98.4 -4.5 42.9
    endloop
  endfacet
  facet normal -1 0 0
    outer loop
      vertex 98.4 -4.5 42.949999999999996
      vertex 98.4 -0.5 42.949999999999996
      vertex 98.4 -4.5 42.9
    endloop
  endfacet
  facet normal 0 -1 0
    outer loop
      vertex 98.4 -4.5 42.949999999999996
      vertex 98.4 -4.5 42.9
      vertex 107.60000000000001 -4.5 42.9
    endloop
  endfacet
  facet normal 1 0 0
    outer loop
      vertex 107.60000000000001 -4.5 42.949999999999996
      vertex 107.60000000000001 -4.5 42.9
      vertex 107.60000000000001 5.5 42.9
    endloop
  endfacet
  facet normal 0 0 1
    outer loop
      vertex 98.4 -4.5 42.949999999999996
      vertex 107.60000000000001 -4.5 42.949999999999996
      vertex 98.4 -0.5 42.949999999999996
    endloop
  endfacet
  facet normal 0 0 1
    outer loop
      vertex 98.4 -0.5 42.949999999999996
      vertex 107.60000000000001 -4.5 42.949999999999996
      vertex 98.4 0.4473684210526234 42.949999999999996
    endloop
  endfacet
  facet normal 0 0 1
    outer loop
      vertex 98.4 0.4473684210526234 42.949999999999996
      vertex 107.60000000000001 -4.5 42.949999999999996
      vertex 99.6 4.195652173913056 42.949999999999996
    endloop
  endfacet
  facet normal 0 -1 0
    outer loop
      vertex 98.4 -4.5 42.949999999999996
      vertex 107.60000000000001 -4.5 42.9
      vertex 107.60000000000001 -4.5 42.949999999999996
    endloop
  endfacet
  facet normal 0 1 0
    outer loop
      vertex 107.60000000000001 5.5 42.949999999999996
      vertex 107.60000000000001 5.5 42.9
      vertex 98.4 5.5 42.9
    endloop
  endfacet
  facet normal 0 1 0
    outer loop
      vertex 98.4 5.5 42.949999999999996
      vertex 107.60000000000001 5.5 42.949999999999996
      vertex 98.4 5.5 42.9
    endloop
  endfacet
  facet normal 0 0 1
    outer loop
      vertex 99.6 4.195652173913056 42.949999999999996
      vertex 107.60000000000001 5.5 42.949999999999996
      vertex 98.4 5.5 42.949999999999996
    endloop
  endfacet
  facet normal 1 0 0
    outer loop
      vertex 107.60000000000001 -4.5 42.949999999999996
      vertex 107.60000000000001 5.5 42.9
      vertex 107.60000000000001 5.5 42.949999999999996
    endloop
  endfacet
  facet normal 0 0 1
    outer loop
      vertex 99.6 4.195652173913056 42.949999999999996
      vertex 107.60000000000001 -4.5 42.949999999999996
      vertex 107.60000000000001 5.5 42.949999999999996
    endloop
  endfacet
  facet normal 0 -1 0
    outer loop
      vertex 92 -0.5 42.949999999999996
      vertex 92 -0.5 42.9
      vertex 98.4 -0.5 42.9
    endloop
  endfacet
  facet normal 0 -1 0
    outer loop
      vertex 92 -0.5 42.949999999999996
      vertex 98.4 -0.5 42.9
      vertex 98.4 -0.5 42.949999999999996
    endloop
  endfacet
  facet normal 0 0 1
    outer loop
      vertex 92 -0.5 42.949999999999996
      vertex 98.4 -0.5 42.949999999999996
      vertex 98.4 0.4473684210526234 42.949999999999996
    endloop
  endfacet
  facet normal -1 0 0
    outer loop
      vertex 92 5.5 42.949999999999996
      vertex 92 5.5 42.9
      vertex 92 -0.5 42.9
    endloop
  endfacet
  facet normal 0 1 0
    outer loop
      vertex 98.4 5.5 42.949999999999996
      vertex 98.4 5.5 42.9
      vertex 92 5.5 42.9
    endloop
  endfacet
  facet normal -1 0 0
    outer loop
      vertex 92 -0.5 42.949999999999996
      vertex 92 5.5 42.949999999999996
      vertex 92 -0.5 42.9
    endloop
  endfacet
  facet normal 0 0 1
    outer loop
      vertex 92 -0.5 42.949999999999996
      vertex 98.4 0.4473684210526234 42.949999999999996
      vertex 92 5.5 42.949999999999996
    endloop
  endfacet
  facet normal 0 1 0
    outer loop
      vertex 92 5.5 42.949999999999996
      vertex 98.4 5.5 42.949999999999996
      vertex 92 5.5 42.9
    endloop
  endfacet
  facet normal 0 0 1
    outer loop
      vertex 92 5.5 42.949999999999996
      vertex 98.4 0.4473684210526234 42.949999999999996
      vertex 98.4 5.5 42.949999999999996
    endloop
  endfacet
  facet normal 0 0 1
    outer loop
      vertex 98.4 0.4473684210526234 42.949999999999996
      vertex 99.6 4.195652173913056 42.949999999999996
      vertex 98.4 5.5 42.949999999999996
    endloop
  endfacet
  facet normal 0 0 -1
    outer loop
      vertex 92 -0.5 42.9
      vertex 92 5.5 42.9
      vertex 98.4 -0.5 42.9
    endloop
  endfacet
  facet normal 0 0 -1
    outer loop
      vertex 92 5.5 42.9
      vertex 98.4 5.5 42.9
      vertex 98.4 -0.5 42.9
    endloop
  endfacet
  facet normal 0 0 -1
    outer loop
      vertex 98.4 -0.5 42.9
      vertex 107.60000000000001 5.5 42.9
      vertex 98.4 -4.5 42.9
    endloop
  endfacet
  facet normal 0 0 -1
    outer loop
      vertex 98.4 -4.5 42.9
      vertex 107.60000000000001 5.5 42.9
      vertex 107.60000000000001 -4.5 42.9
    endloop
  endfacet
  facet normal 0 0 -1
    outer loop
      vertex 98.4 -0.5 42.9
      vertex 98.4 5.5 42.9
      vertex 107.60000000000001 5.5 42.9
    endloop
  endfacet
endsolid OpenSCAD_Model
