solid OpenSCAD_Model
  facet normal 0 0 1
    outer loop
      vertex 75.71284237711589 -29.181178695022382 43.3
      vertex 76 -29.2 43.3
      vertex 75.73362013694397 -29.023355940354985 43.3
    endloop
  endfacet
  facet normal 0 0 1
    outer loop
      vertex 76 -29.2 43.3
      vertex 76.28715762288411 -29.181178695022382 43.3
      vertex 76 -28.642372171132727 43.3
    endloop
  endfacet
  facet normal 0 0 1
    outer loop
      vertex 75.43059810077446 -29.12503681783595 43.3
      vertex 75.71284237711589 -29.181178695022382 43.3
      vertex 75.6343625835891 -28.35844344221411 43.3
    endloop
  endfacet
  facet normal 0 0 1
    outer loop
      vertex 76 -29.2 43.3
      vertex 75.93474457227971 -28.401698594771787 43.3
      vertex 75.73362013694397 -29.023355940354985 43.3
    endloop
  endfacet
  facet normal 0 0 1
    outer loop
      vertex 76.28715762288411 -29.181178695022382 43.3
      vertex 76.56940189922554 -29.12503681783595 43.3
      vertex 76.36351783509534 -28.356667030033254 43.3
    endloop
  endfacet
  facet normal 0 0 1
    outer loop
      vertex 76 -29.2 43.3
      vertex 76 -28.642372171132727 43.3
      vertex 75.93474457227971 -28.401698594771787 43.3
    endloop
  endfacet
  facet normal 0 0 1
    outer loop
      vertex 76.28715762288411 -29.181178695022382 43.3
      vertex 76.15663143066406 -28.189733833648575 43.3
      vertex 76 -28.642372171132727 43.3
    endloop
  endfacet
  facet normal 0 0 1
    outer loop
      vertex 74.9 -28.905255888325765 43.3
      vertex 74.83206732226047 -27.86880351273134 43.3
      vertex 74.66072485618082 -28.745377348640716 43.3
    endloop
  endfacet
  facet normal 0 0 1
    outer loop
      vertex 74.9 -28.905255888325765 43.3
      vertex 74.9 -27.987410599955744 43.3
      vertex 74.83206732226047 -27.86880351273134 43.3
    endloop
  endfacet
  facet normal 0 0 1
    outer loop
      vertex 75.71284237711589 -29.181178695022382 43.3
      vertex 75.74572967528805 -28.51515082725067 43.3
      vertex 75.68533232718579 -28.173900627253847 43.3
    endloop
  endfacet
  facet normal 0 0 1
    outer loop
      vertex 75.71284237711589 -29.181178695022382 43.3
      vertex 75.68533232718579 -28.173900627253847 43.3
      vertex 75.6343625835891 -28.35844344221411 43.3
    endloop
  endfacet
  facet normal 0 0 1
    outer loop
      vertex 76.28715762288411 -29.181178695022382 43.3
      vertex 76.24545275170591 -28.336578865595705 43.3
      vertex 76.15663143066406 -28.189733833648575 43.3
    endloop
  endfacet
  facet normal 0 0 1
    outer loop
      vertex 76.56940189922554 -29.12503681783595 43.3
      vertex 76.40826373807882 -28.240708432635778 43.3
      vertex 76.36351783509534 -28.356667030033254 43.3
    endloop
  endfacet
  facet normal 0 0 1
    outer loop
      vertex 76.56940189922554 -29.12503681783595 43.3
      vertex 76.8419035512032 -29.032534971524832 43.3
      vertex 76.5317208891843 -28.072902015733572 43.3
    endloop
  endfacet
  facet normal 0 0 1
    outer loop
      vertex 76.8419035512032 -29.032534971524832 43.3
      vertex 77.1 -28.905255888325765 43.3
      vertex 76.82895685245988 -27.907943764937297 43.3
    endloop
  endfacet
  facet normal 0 0 1
    outer loop
      vertex 76.56940189922554 -29.12503681783595 43.3
      vertex 76.46352978573691 -28.1067164835771 43.3
      vertex 76.40826373807882 -28.240708432635778 43.3
    endloop
  endfacet
  facet normal 0 0 1
    outer loop
      vertex 76.56940189922554 -29.12503681783595 43.3
      vertex 76.5317208891843 -28.072902015733572 43.3
      vertex 76.46352978573691 -28.1067164835771 43.3
    endloop
  endfacet
  facet normal 0 0 1
    outer loop
      vertex 76.8419035512032 -29.032534971524832 43.3
      vertex 76.60416594885464 -28.037357742250162 43.3
      vertex 76.5317208891843 -28.072902015733572 43.3
    endloop
  endfacet
  facet normal 0 0 1
    outer loop
      vertex 77.1 -28.905255888325765 43.3
      vertex 77.33927514381918 -28.745377348640716 43.3
      vertex 77.1 -27.57360677650979 43.3
    endloop
  endfacet
  facet normal 0 0 1
    outer loop
      vertex 76.8419035512032 -29.032534971524832 43.3
      vertex 76.7258001969511 -27.982678818333543 43.3
      vertex 76.60416594885464 -28.037357742250162 43.3
    endloop
  endfacet
  facet normal 0 0 1
    outer loop
      vertex 76.8419035512032 -29.032534971524832 43.3
      vertex 76.76964867131161 -27.93450040589545 43.3
      vertex 76.7258001969511 -27.982678818333543 43.3
    endloop
  endfacet
  facet normal 0 0 1
    outer loop
      vertex 76.8419035512032 -29.032534971524832 43.3
      vertex 76.82895685245988 -27.907943764937297 43.3
      vertex 76.76964867131161 -27.93450040589545 43.3
    endloop
  endfacet
  facet normal 0 0 1
    outer loop
      vertex 77.1 -28.905255888325765 43.3
      vertex 76.91983079076134 -27.816825323554287 43.3
      vertex 76.82895685245988 -27.907943764937297 43.3
    endloop
  endfacet
  facet normal 0 0 1
    outer loop
      vertex 77.1 -28.905255888325765 43.3
      vertex 76.95512160266213 -27.80113420984914 43.3
      vertex 76.91983079076134 -27.816825323554287 43.3
    endloop
  endfacet
  facet normal 0 0 1
    outer loop
      vertex 77.1 -28.905255888325765 43.3
      vertex 77.02101321683269 -27.700150454852288 43.3
      vertex 76.95512160266213 -27.80113420984914 43.3
    endloop
  endfacet
  facet normal 0 0 1
    outer loop
      vertex 74.44436508138959 -28.555634918610405 43.3
      vertex 74.66072485618082 -28.745377348640716 43.3
      vertex 74.44436508138959 -25.444365081389595 43.3
    endloop
  endfacet
  facet normal 0 0 1
    outer loop
      vertex 74.44436508138959 -28.555634918610405 43.3
      vertex 74.25462265135928 -25.660724856180813 43.3
      vertex 74.25462265135928 -28.339275143819187 43.3
    endloop
  endfacet
  facet normal 0 0 1
    outer loop
      vertex 74.09474411167423 -28.1 43.3
      vertex 74.25462265135928 -28.339275143819187 43.3
      vertex 74.09474411167423 -25.9 43.3
    endloop
  endfacet
  facet normal 0 0 1
    outer loop
      vertex 74.09474411167423 -28.1 43.3
      vertex 73.96746502847517 -26.1580964487968 43.3
      vertex 73.96746502847517 -27.8419035512032 43.3
    endloop
  endfacet
  facet normal 0 0 1
    outer loop
      vertex 73.87496318216405 -27.569401899225547 43.3
      vertex 73.96746502847517 -27.8419035512032 43.3
      vertex 73.87496318216405 -26.430598100774453 43.3
    endloop
  endfacet
  facet normal 0 0 1
    outer loop
      vertex 74.66072485618082 -28.745377348640716 43.3
      vertex 74.83206732226047 -27.86880351273134 43.3
      vertex 74.66072485618082 -25.254622651359284 43.3
    endloop
  endfacet
  facet normal 0 0 1
    outer loop
      vertex 73.87496318216405 -27.569401899225547 43.3
      vertex 73.81882130497762 -26.712842377115887 43.3
      vertex 73.81882130497762 -27.287157622884113 43.3
    endloop
  endfacet
  facet normal 0 0 1
    outer loop
      vertex 76.5317208891843 -28.072902015733572 43.3
      vertex 76.46351135758623 -28.1065392342529 43.3
      vertex 76.46352978573691 -28.1067164835771 43.3
    endloop
  endfacet
  facet normal 0 0 1
    outer loop
      vertex 77.1 -28.905255888325765 43.3
      vertex 77.1 -27.57360677650979 43.3
      vertex 77.02101321683269 -27.700150454852288 43.3
    endloop
  endfacet
  facet normal 0 0 1
    outer loop
      vertex 77.33927514381918 -28.745377348640716 43.3
      vertex 77.1 -27.47677161289374 43.3
      vertex 77.1 -27.57360677650979 43.3
    endloop
  endfacet
  facet normal 0 0 1
    outer loop
      vertex 77.33927514381918 -28.745377348640716 43.3
      vertex 77.25038972618273 -27.389247937428472 43.3
      vertex 77.1 -27.47677161289374 43.3
    endloop
  endfacet
  facet normal 0 0 1
    outer loop
      vertex 77.1 -27.57360677650979 43.3
      vertex 77.0166627406914 -27.63377501549615 43.3
      vertex 77.02101321683269 -27.700150454852288 43.3
    endloop
  endfacet
  facet normal 0 0 1
    outer loop
      vertex 77.33927514381918 -28.745377348640716 43.3
      vertex 77.55563491861041 -28.555634918610405 43.3
      vertex 77.33927514381918 -25.254622651359284 43.3
    endloop
  endfacet
  facet normal 0 0 1
    outer loop
      vertex 77.55563491861041 -28.555634918610405 43.3
      vertex 77.74537734864072 -28.339275143819187 43.3
      vertex 77.55563491861041 -25.444365081389595 43.3
    endloop
  endfacet
  facet normal 0 0 1
    outer loop
      vertex 77.74537734864072 -28.339275143819187 43.3
      vertex 77.90525588832577 -28.1 43.3
      vertex 77.74537734864072 -25.660724856180813 43.3
    endloop
  endfacet
  facet normal 0 0 1
    outer loop
      vertex 77.33927514381918 -28.745377348640716 43.3
      vertex 77.33927514381918 -25.254622651359284 43.3
      vertex 77.25038972618273 -27.389247937428472 43.3
    endloop
  endfacet
  facet normal 0 0 1
    outer loop
      vertex 77.90525588832577 -28.1 43.3
      vertex 78.03253497152483 -27.8419035512032 43.3
      vertex 77.90525588832577 -25.9 43.3
    endloop
  endfacet
  facet normal 0 0 1
    outer loop
      vertex 78.03253497152483 -27.8419035512032 43.3
      vertex 78.12503681783595 -27.569401899225547 43.3
      vertex 78.03253497152483 -26.1580964487968 43.3
    endloop
  endfacet
  facet normal 0 0 1
    outer loop
      vertex 78.12503681783595 -27.569401899225547 43.3
      vertex 78.18117869502238 -27.287157622884113 43.3
      vertex 78.12503681783595 -26.430598100774453 43.3
    endloop
  endfacet
  facet normal 0 0 1
    outer loop
      vertex 73.81882130497762 -27.287157622884113 43.3
      vertex 73.81882130497762 -26.712842377115887 43.3
      vertex 73.8 -27 43.3
    endloop
  endfacet
  facet normal 0 0 1
    outer loop
      vertex 73.87496318216405 -27.569401899225547 43.3
      vertex 73.87496318216405 -26.430598100774453 43.3
      vertex 73.81882130497762 -26.712842377115887 43.3
    endloop
  endfacet
  facet normal 0 0 1
    outer loop
      vertex 73.96746502847517 -27.8419035512032 43.3
      vertex 73.96746502847517 -26.1580964487968 43.3
      vertex 73.87496318216405 -26.430598100774453 43.3
    endloop
  endfacet
  facet normal 0 0 1
    outer loop
      vertex 74.09474411167423 -28.1 43.3
      vertex 74.09474411167423 -25.9 43.3
      vertex 73.96746502847517 -26.1580964487968 43.3
    endloop
  endfacet
  facet normal 0 0 1
    outer loop
      vertex 74.25462265135928 -28.339275143819187 43.3
      vertex 74.25462265135928 -25.660724856180813 43.3
      vertex 74.09474411167423 -25.9 43.3
    endloop
  endfacet
  facet normal 0 0 1
    outer loop
      vertex 74.44436508138959 -28.555634918610405 43.3
      vertex 74.44436508138959 -25.444365081389595 43.3
      vertex 74.25462265135928 -25.660724856180813 43.3
    endloop
  endfacet
  facet normal 0 0 1
    outer loop
      vertex 74.66072485618082 -28.745377348640716 43.3
      vertex 74.66072485618082 -25.254622651359284 43.3
      vertex 74.44436508138959 -25.444365081389595 43.3
    endloop
  endfacet
  facet normal 0 0 1
    outer loop
      vertex 77.74537734864072 -28.339275143819187 43.3
      vertex 77.74537734864072 -25.660724856180813 43.3
      vertex 77.55563491861041 -25.444365081389595 43.3
    endloop
  endfacet
  facet normal 0 0 1
    outer loop
      vertex 78.18117869502238 -27.287157622884113 43.3
      vertex 78.2 -27 43.3
      vertex 78.18117869502238 -26.712842377115887 43.3
    endloop
  endfacet
  facet normal 0 0 1
    outer loop
      vertex 78.18117869502238 -27.287157622884113 43.3
      vertex 78.18117869502238 -26.712842377115887 43.3
      vertex 78.12503681783595 -26.430598100774453 43.3
    endloop
  endfacet
  facet normal 0 0 1
    outer loop
      vertex 78.12503681783595 -27.569401899225547 43.3
      vertex 78.12503681783595 -26.430598100774453 43.3
      vertex 78.03253497152483 -26.1580964487968 43.3
    endloop
  endfacet
  facet normal 0 0 1
    outer loop
      vertex 78.03253497152483 -27.8419035512032 43.3
      vertex 78.03253497152483 -26.1580964487968 43.3
      vertex 77.90525588832577 -25.9 43.3
    endloop
  endfacet
  facet normal 0 0 1
    outer loop
      vertex 77.74537734864072 -25.660724856180813 43.3
      vertex 77.90525588832577 -28.1 43.3
      vertex 77.90525588832577 -25.9 43.3
    endloop
  endfacet
  facet normal 0 0 1
    outer loop
      vertex 77.1 -26.209972154277427 43.3
      vertex 77.1 -26.52322838710626 43.3
      vertex 77.19243560674542 -26.505038941625315 43.3
    endloop
  endfacet
  facet normal 0 0 1
    outer loop
      vertex 77.33927514381918 -25.254622651359284 43.3
      vertex 77.19243560674542 -26.505038941625315 43.3
      vertex 77.25038972618273 -27.389247937428472 43.3
    endloop
  endfacet
  facet normal 0 0 1
    outer loop
      vertex 77.55563491861041 -28.555634918610405 43.3
      vertex 77.55563491861041 -25.444365081389595 43.3
      vertex 77.33927514381918 -25.254622651359284 43.3
    endloop
  endfacet
  facet normal 0 0 1
    outer loop
      vertex 77.1 -25.094744111674235 43.3
      vertex 77.1 -26.209972154277427 43.3
      vertex 77.19243560674542 -26.505038941625315 43.3
    endloop
  endfacet
  facet normal 0 0 1
    outer loop
      vertex 74.9 -25.094744111674235 43.3
      vertex 75.05334204793571 -26.263367470704036 43.3
      vertex 75.08707622051115 -26.224901019209646 43.3
    endloop
  endfacet
  facet normal 0 0 1
    outer loop
      vertex 74.9 -25.094744111674235 43.3
      vertex 74.93316135536138 -25.600688624475694 43.3
      vertex 75.05334204793571 -26.263367470704036 43.3
    endloop
  endfacet
  facet normal 0 0 1
    outer loop
      vertex 74.9 -25.094744111674235 43.3
      vertex 75.08707622051115 -26.224901019209646 43.3
      vertex 74.94735978235123 -25.07138885162989 43.3
    endloop
  endfacet
  facet normal 0 0 1
    outer loop
      vertex 75.4682791108157 -25.927097984266428 43.3
      vertex 75.53648864241377 -25.8934607657471 43.3
      vertex 75.53311311776714 -25.860993619553508 43.3
    endloop
  endfacet
  facet normal 0 0 1
    outer loop
      vertex 75.1580964487968 -24.967465028475168 43.3
      vertex 75.27703230782745 -26.0429339005226 43.3
      vertex 75.39602169354362 -25.96342773484793 43.3
    endloop
  endfacet
  facet normal 0 0 1
    outer loop
      vertex 75.1580964487968 -24.967465028475168 43.3
      vertex 75.21061919695832 -25.765636626708137 43.3
      vertex 75.27703230782745 -26.0429339005226 43.3
    endloop
  endfacet
  facet normal 0 0 1
    outer loop
      vertex 75.43059810077446 -24.87496318216405 43.3
      vertex 75.4682791108157 -25.927097984266428 43.3
      vertex 75.53311311776714 -25.860993619553508 43.3
    endloop
  endfacet
  facet normal 0 0 1
    outer loop
      vertex 75.43059810077446 -24.87496318216405 43.3
      vertex 75.53311311776714 -25.860993619553508 43.3
      vertex 75.61142845760054 -25.867362600831722 43.3
    endloop
  endfacet
  facet normal 0 0 1
    outer loop
      vertex 75.43059810077446 -24.87496318216405 43.3
      vertex 75.61142845760054 -25.867362600831722 43.3
      vertex 75.68941714587694 -25.840889008453004 43.3
    endloop
  endfacet
  facet normal 0 0 1
    outer loop
      vertex 75.43059810077446 -24.87496318216405 43.3
      vertex 75.68941714587694 -25.840889008453004 43.3
      vertex 75.76259158789142 -25.82633370696034 43.3
    endloop
  endfacet
  facet normal 0 0 1
    outer loop
      vertex 75.71284237711589 -24.818821304977618 43.3
      vertex 75.74572967528805 -25.48484917274933 43.3
      vertex 75.84336856933594 -25.81026616635143 43.3
    endloop
  endfacet
  facet normal 0 0 1
    outer loop
      vertex 76.56940189922554 -24.87496318216405 43.3
      vertex 76.38222677960685 -25.81546952709413 43.3
      vertex 76.46390779976583 -25.889647626294657 43.3
    endloop
  endfacet
  facet normal 0 0 1
    outer loop
      vertex 76.28715762288411 -24.818821304977618 43.3
      vertex 76.31502851761759 -25.839311673604907 43.3
      vertex 76.38222677960685 -25.81546952709413 43.3
    endloop
  endfacet
  facet normal 0 0 1
    outer loop
      vertex 75.71284237711589 -24.818821304977618 43.3
      vertex 75.84336856933594 -25.81026616635143 43.3
      vertex 76 -25.756749550366045 43.3
    endloop
  endfacet
  facet normal 0 0 1
    outer loop
      vertex 76 -24.8 43.3
      vertex 76 -25.756749550366045 43.3
      vertex 76.07950338202482 -25.772603564302255 43.3
    endloop
  endfacet
  facet normal 0 0 1
    outer loop
      vertex 76 -24.8 43.3
      vertex 76.07950338202482 -25.772603564302255 43.3
      vertex 76.1654907738548 -25.74297277387436 43.3
    endloop
  endfacet
  facet normal 0 0 1
    outer loop
      vertex 76.28715762288411 -24.818821304977618 43.3
      vertex 76.23963207511538 -25.781300468799216 43.3
      vertex 76.31502851761759 -25.839311673604907 43.3
    endloop
  endfacet
  facet normal 0 0 1
    outer loop
      vertex 76.28715762288411 -24.818821304977618 43.3
      vertex 76.1654907738548 -25.74297277387436 43.3
      vertex 76.23963207511538 -25.781300468799216 43.3
    endloop
  endfacet
  facet normal 0 0 1
    outer loop
      vertex 75.1580964487968 -24.967465028475168 43.3
      vertex 75.39602169354362 -25.96342773484793 43.3
      vertex 75.17069626115686 -24.963187968508663 43.3
    endloop
  endfacet
  facet normal 0 0 1
    outer loop
      vertex 75.43059810077446 -24.87496318216405 43.3
      vertex 75.17069626115686 -24.963187968508663 43.3
      vertex 75.4682791108157 -25.927097984266428 43.3
    endloop
  endfacet
  facet normal 0 0 1
    outer loop
      vertex 75.43059810077446 -24.87496318216405 43.3
      vertex 75.76259158789142 -25.82633370696034 43.3
      vertex 75.71284237711589 -24.818821304977618 43.3
    endloop
  endfacet
  facet normal 0 0 1
    outer loop
      vertex 75.71284237711589 -24.818821304977618 43.3
      vertex 76 -25.756749550366045 43.3
      vertex 76 -24.8 43.3
    endloop
  endfacet
  facet normal 0 0 1
    outer loop
      vertex 76.28715762288411 -24.818821304977618 43.3
      vertex 76.38222677960685 -25.81546952709413 43.3
      vertex 76.56940189922554 -24.87496318216405 43.3
    endloop
  endfacet
  facet normal 0 0 1
    outer loop
      vertex 76 -24.8 43.3
      vertex 76.1654907738548 -25.74297277387436 43.3
      vertex 76.28715762288411 -24.818821304977618 43.3
    endloop
  endfacet
  facet normal 0 0 1
    outer loop
      vertex 77.1 -25.094744111674235 43.3
      vertex 76.9252408105118 -26.23894590130479 43.3
      vertex 77.1 -26.209972154277427 43.3
    endloop
  endfacet
  facet normal 0 0 1
    outer loop
      vertex 76.91773501565102 -26.124429601152517 43.3
      vertex 76.9252408105118 -26.23894590130479 43.3
      vertex 77.1 -25.094744111674235 43.3
    endloop
  endfacet
  facet normal 0 0 1
    outer loop
      vertex 76.8419035512032 -24.967465028475168 43.3
      vertex 76.67322466370403 -25.933641481754876 43.3
      vertex 76.77183536172421 -26.032269151247768 43.3
    endloop
  endfacet
  facet normal 0 0 1
    outer loop
      vertex 76.8419035512032 -24.967465028475168 43.3
      vertex 76.84603277189908 -26.00406584942036 43.3
      vertex 76.91773501565102 -26.124429601152517 43.3
    endloop
  endfacet
  facet normal 0 0 1
    outer loop
      vertex 76.8419035512032 -24.967465028475168 43.3
      vertex 76.77183536172421 -26.032269151247768 43.3
      vertex 76.84603277189908 -26.00406584942036 43.3
    endloop
  endfacet
  facet normal 0 0 1
    outer loop
      vertex 76.56940189922554 -24.87496318216405 43.3
      vertex 76.6393353478816 -25.946196684542087 43.3
      vertex 76.67322466370403 -25.933641481754876 43.3
    endloop
  endfacet
  facet normal 0 0 1
    outer loop
      vertex 76.56940189922554 -24.87496318216405 43.3
      vertex 76.46390779976583 -25.889647626294657 43.3
      vertex 76.58952318625292 -25.844175011916654 43.3
    endloop
  endfacet
  facet normal 0 0 1
    outer loop
      vertex 76.56940189922554 -24.87496318216405 43.3
      vertex 76.58952318625292 -25.844175011916654 43.3
      vertex 76.6393353478816 -25.946196684542087 43.3
    endloop
  endfacet
  facet normal 0 0 1
    outer loop
      vertex 76.8419035512032 -24.967465028475168 43.3
      vertex 76.91773501565102 -26.124429601152517 43.3
      vertex 77.1 -25.094744111674235 43.3
    endloop
  endfacet
  facet normal 0 0 1
    outer loop
      vertex 77.33927514381918 -25.254622651359284 43.3
      vertex 77.1 -25.094744111674235 43.3
      vertex 77.19243560674542 -26.505038941625315 43.3
    endloop
  endfacet
  facet normal 0 0 1
    outer loop
      vertex 76.56940189922554 -24.87496318216405 43.3
      vertex 76.67322466370403 -25.933641481754876 43.3
      vertex 76.8419035512032 -24.967465028475168 43.3
    endloop
  endfacet
  facet normal 0 0 1
    outer loop
      vertex 92.1580964487968 -29.032534971524832 43.3
      vertex 92.43059810077446 -29.12503681783595 43.3
      vertex 92.32978452401709 -28.097043135012356 43.3
    endloop
  endfacet
  facet normal 0 0 1
    outer loop
      vertex 91.9 -28.905255888325765 43.3
      vertex 91.80751208059509 -27.494162921424838 43.3
      vertex 91.66072485618082 -28.745377348640716 43.3
    endloop
  endfacet
  facet normal 0 0 1
    outer loop
      vertex 92.43059810077446 -29.12503681783595 43.3
      vertex 92.35787580228984 -28.011083995491905 43.3
      vertex 92.32978452401709 -28.097043135012356 43.3
    endloop
  endfacet
  facet normal 0 0 1
    outer loop
      vertex 92.43059810077446 -29.12503681783595 43.3
      vertex 92.53648864241377 -28.1065392342529 43.3
      vertex 92.40849467014897 -28.060348142047335 43.3
    endloop
  endfacet
  facet normal 0 0 1
    outer loop
      vertex 92.43059810077446 -29.12503681783595 43.3
      vertex 92.40849467014897 -28.060348142047335 43.3
      vertex 92.35787580228984 -28.011083995491905 43.3
    endloop
  endfacet
  facet normal 0 0 1
    outer loop
      vertex 92.1580964487968 -29.032534971524832 43.3
      vertex 92.23139631987029 -27.918620005288286 43.3
      vertex 92.15338673679771 -27.850207437045764 43.3
    endloop
  endfacet
  facet normal 0 0 1
    outer loop
      vertex 92.1580964487968 -29.032534971524832 43.3
      vertex 92.32978452401709 -28.097043135012356 43.3
      vertex 92.23139631987029 -27.918620005288286 43.3
    endloop
  endfacet
  facet normal 0 0 1
    outer loop
      vertex 91.9 -28.905255888325765 43.3
      vertex 92.08226033764898 -27.875499503905473 43.3
      vertex 91.9 -27.789463235696118 43.3
    endloop
  endfacet
  facet normal 0 0 1
    outer loop
      vertex 92.43059810077446 -29.12503681783595 43.3
      vertex 92.71284237711589 -29.181178695022382 43.3
      vertex 92.63344147750428 -28.348787116509033 43.3
    endloop
  endfacet
  facet normal 0 0 1
    outer loop
      vertex 92.71284237711589 -29.181178695022382 43.3
      vertex 93 -29.2 43.3
      vertex 92.84336856933594 -28.189733833648575 43.3
    endloop
  endfacet
  facet normal 0 0 1
    outer loop
      vertex 93.56940189922554 -29.12503681783595 43.3
      vertex 93.82930373884314 -29.036812031491337 43.3
      vertex 93.5317208891843 -28.072902015733572 43.3
    endloop
  endfacet
  facet normal 0 0 1
    outer loop
      vertex 93.8419035512032 -29.032534971524832 43.3
      vertex 93.60397830645638 -28.03657226515207 43.3
      vertex 93.82930373884314 -29.036812031491337 43.3
    endloop
  endfacet
  facet normal 0 0 1
    outer loop
      vertex 92.43059810077446 -29.12503681783595 43.3
      vertex 92.63344147750428 -28.348787116509033 43.3
      vertex 92.53648864241377 -28.1065392342529 43.3
    endloop
  endfacet
  facet normal 0 0 1
    outer loop
      vertex 92.71284237711589 -29.181178695022382 43.3
      vertex 92.84336856933594 -28.189733833648575 43.3
      vertex 92.75454724829409 -28.336578865595705 43.3
    endloop
  endfacet
  facet normal 0 0 1
    outer loop
      vertex 92.71284237711589 -29.181178695022382 43.3
      vertex 92.75454724829409 -28.336578865595705 43.3
      vertex 92.68488639912186 -28.15757301026503 43.3
    endloop
  endfacet
  facet normal 0 0 1
    outer loop
      vertex 93.28715762288411 -29.181178695022382 43.3
      vertex 93.15663143066406 -28.18973383364857 43.3
      vertex 93 -28.2 43.3
    endloop
  endfacet
  facet normal 0 0 1
    outer loop
      vertex 92.71284237711589 -29.181178695022382 43.3
      vertex 92.68488639912186 -28.15757301026503 43.3
      vertex 92.61286987147203 -28.13312669324574 43.3
    endloop
  endfacet
  facet normal 0 0 1
    outer loop
      vertex 93.28715762288411 -29.181178695022382 43.3
      vertex 93.25427032471195 -28.51515082725067 43.3
      vertex 93.15663143066406 -28.18973383364857 43.3
    endloop
  endfacet
  facet normal 0 0 1
    outer loop
      vertex 93.56940189922554 -29.12503681783595 43.3
      vertex 93.31058285412306 -28.159110991546996 43.3
      vertex 93.23740841210858 -28.17366629303966 43.3
    endloop
  endfacet
  facet normal 0 0 1
    outer loop
      vertex 93.56940189922554 -29.12503681783595 43.3
      vertex 93.38857154239946 -28.132637399168278 43.3
      vertex 93.31058285412306 -28.159110991546996 43.3
    endloop
  endfacet
  facet normal 0 0 1
    outer loop
      vertex 93.56940189922554 -29.12503681783595 43.3
      vertex 93.46688688223286 -28.139006380446492 43.3
      vertex 93.38857154239946 -28.132637399168278 43.3
    endloop
  endfacet
  facet normal 0 0 1
    outer loop
      vertex 93.56940189922554 -29.12503681783595 43.3
      vertex 93.5317208891843 -28.072902015733572 43.3
      vertex 93.46688688223286 -28.139006380446492 43.3
    endloop
  endfacet
  facet normal 0 0 1
    outer loop
      vertex 93.8419035512032 -29.032534971524832 43.3
      vertex 93.78938080304168 -28.234363373291867 43.3
      vertex 93.72296769217255 -27.9570660994774 43.3
    endloop
  endfacet
  facet normal 0 0 1
    outer loop
      vertex 93.8419035512032 -29.032534971524832 43.3
      vertex 93.72296769217255 -27.9570660994774 43.3
      vertex 93.60397830645638 -28.03657226515207 43.3
    endloop
  endfacet
  facet normal 0 0 1
    outer loop
      vertex 93.5317208891843 -28.072902015733572 43.3
      vertex 93.46351135758623 -28.1065392342529 43.3
      vertex 93.46688688223286 -28.139006380446492 43.3
    endloop
  endfacet
  facet normal 0 0 1
    outer loop
      vertex 94.1 -28.905255888325765 43.3
      vertex 93.91292377948885 -27.775098980790354 43.3
      vertex 94.05264021764877 -28.92861114837011 43.3
    endloop
  endfacet
  facet normal 0 0 1
    outer loop
      vertex 94.1 -28.905255888325765 43.3
      vertex 94.06683864463862 -28.39931137552432 43.3
      vertex 93.94665795206429 -27.736632529295964 43.3
    endloop
  endfacet
  facet normal 0 0 1
    outer loop
      vertex 94.1 -28.905255888325765 43.3
      vertex 93.94665795206429 -27.736632529295964 43.3
      vertex 93.91292377948885 -27.775098980790354 43.3
    endloop
  endfacet
  facet normal 0 0 1
    outer loop
      vertex 91.9 -28.905255888325765 43.3
      vertex 91.9 -27.789463235696118 43.3
      vertex 91.80751208059509 -27.494162921424838 43.3
    endloop
  endfacet
  facet normal 0 0 1
    outer loop
      vertex 92.53648864241377 -28.1065392342529 43.3
      vertex 92.40813959032394 -28.04324448627935 43.3
      vertex 92.40849467014897 -28.060348142047335 43.3
    endloop
  endfacet
  facet normal 0 0 1
    outer loop
      vertex 91.66072485618082 -28.745377348640716 43.3
      vertex 91.80751208059509 -27.494162921424838 43.3
      vertex 91.76616583245743 -26.863341076472704 43.3
    endloop
  endfacet
  facet normal 0 0 1
    outer loop
      vertex 91.44436508138959 -28.555634918610405 43.3
      vertex 91.66072485618082 -28.745377348640716 43.3
      vertex 91.44436508138959 -25.444365081389595 43.3
    endloop
  endfacet
  facet normal 0 0 1
    outer loop
      vertex 91.9 -27.789463235696118 43.3
      vertex 91.9 -27.62476185901767 43.3
      vertex 91.80751208059509 -27.494162921424838 43.3
    endloop
  endfacet
  facet normal 0 0 1
    outer loop
      vertex 91.09474411167423 -28.1 43.3
      vertex 91.25462265135928 -28.339275143819187 43.3
      vertex 91.09474411167423 -25.9 43.3
    endloop
  endfacet
  facet normal 0 0 1
    outer loop
      vertex 90.96746502847517 -27.8419035512032 43.3
      vertex 91.09474411167423 -28.1 43.3
      vertex 90.96746502847517 -26.1580964487968 43.3
    endloop
  endfacet
  facet normal 0 0 1
    outer loop
      vertex 90.87496318216405 -27.569401899225547 43.3
      vertex 90.96746502847517 -27.8419035512032 43.3
      vertex 90.87496318216405 -26.430598100774453 43.3
    endloop
  endfacet
  facet normal 0 0 1
    outer loop
      vertex 90.87496318216405 -27.569401899225547 43.3
      vertex 90.81882130497762 -26.712842377115887 43.3
      vertex 90.81882130497762 -27.287157622884113 43.3
    endloop
  endfacet
  facet normal 0 0 1
    outer loop
      vertex 91.25462265135928 -28.339275143819187 43.3
      vertex 91.44436508138959 -28.555634918610405 43.3
      vertex 91.25462265135928 -25.660724856180813 43.3
    endloop
  endfacet
  facet normal 0 0 1
    outer loop
      vertex 94.33927514381918 -28.745377348640716 43.3
      vertex 94.55563491861041 -28.555634918610405 43.3
      vertex 94.33927514381918 -25.254622651359284 43.3
    endloop
  endfacet
  facet normal 0 0 1
    outer loop
      vertex 94.55563491861041 -28.555634918610405 43.3
      vertex 94.74537734864072 -28.339275143819187 43.3
      vertex 94.55563491861041 -25.444365081389595 43.3
    endloop
  endfacet
  facet normal 0 0 1
    outer loop
      vertex 94.74537734864072 -28.339275143819187 43.3
      vertex 94.90525588832577 -28.1 43.3
      vertex 94.74537734864072 -25.660724856180813 43.3
    endloop
  endfacet
  facet normal 0 0 1
    outer loop
      vertex 94.90525588832577 -28.1 43.3
      vertex 95.03253497152483 -27.8419035512032 43.3
      vertex 94.90525588832577 -25.9 43.3
    endloop
  endfacet
  facet normal 0 0 1
    outer loop
      vertex 95.03253497152483 -27.8419035512032 43.3
      vertex 95.12503681783595 -27.569401899225547 43.3
      vertex 95.03253497152483 -26.1580964487968 43.3
    endloop
  endfacet
  facet normal 0 0 1
    outer loop
      vertex 95.12503681783595 -27.569401899225547 43.3
      vertex 95.18117869502238 -27.287157622884113 43.3
      vertex 95.12503681783595 -26.430598100774453 43.3
    endloop
  endfacet
  facet normal 0 0 1
    outer loop
      vertex 90.81882130497762 -27.287157622884113 43.3
      vertex 90.81882130497762 -26.712842377115887 43.3
      vertex 90.8 -27 43.3
    endloop
  endfacet
  facet normal 0 0 1
    outer loop
      vertex 90.87496318216405 -27.569401899225547 43.3
      vertex 90.87496318216405 -26.430598100774453 43.3
      vertex 90.81882130497762 -26.712842377115887 43.3
    endloop
  endfacet
  facet normal 0 0 1
    outer loop
      vertex 90.96746502847517 -27.8419035512032 43.3
      vertex 90.96746502847517 -26.1580964487968 43.3
      vertex 90.87496318216405 -26.430598100774453 43.3
    endloop
  endfacet
  facet normal 0 0 1
    outer loop
      vertex 90.96746502847517 -26.1580964487968 43.3
      vertex 91.09474411167423 -28.1 43.3
      vertex 91.09474411167423 -25.9 43.3
    endloop
  endfacet
  facet normal 0 0 1
    outer loop
      vertex 91.66072485618082 -28.745377348640716 43.3
      vertex 91.76616583245743 -26.863341076472704 43.3
      vertex 91.66072485618082 -25.254622651359284 43.3
    endloop
  endfacet
  facet normal 0 0 1
    outer loop
      vertex 91.25462265135928 -28.339275143819187 43.3
      vertex 91.25462265135928 -25.660724856180813 43.3
      vertex 91.09474411167423 -25.9 43.3
    endloop
  endfacet
  facet normal 0 0 1
    outer loop
      vertex 91.44436508138959 -28.555634918610405 43.3
      vertex 91.44436508138959 -25.444365081389595 43.3
      vertex 91.25462265135928 -25.660724856180813 43.3
    endloop
  endfacet
  facet normal 0 0 1
    outer loop
      vertex 91.66072485618082 -28.745377348640716 43.3
      vertex 91.66072485618082 -25.254622651359284 43.3
      vertex 91.44436508138959 -25.444365081389595 43.3
    endloop
  endfacet
  facet normal 0 0 1
    outer loop
      vertex 91.66072485618082 -25.254622651359284 43.3
      vertex 91.76616583245743 -26.863341076472704 43.3
      vertex 91.9 -26.349393659824564 43.3
    endloop
  endfacet
  facet normal 0 0 1
    outer loop
      vertex 91.9 -25.094744111674235 43.3
      vertex 91.9 -26.49193047700651 43.3
      vertex 91.97863705329038 -26.294513698338417 43.3
    endloop
  endfacet
  facet normal 0 0 1
    outer loop
      vertex 94.33927514381918 -28.745377348640716 43.3
      vertex 94.33927514381918 -25.254622651359284 43.3
      vertex 94.17241309897811 -26.199554505690774 43.3
    endloop
  endfacet
  facet normal 0 0 1
    outer loop
      vertex 95.18117869502238 -27.287157622884113 43.3
      vertex 95.19999999999999 -26.999999999999783 43.3
      vertex 95.18117869502238 -26.712842377115887 43.3
    endloop
  endfacet
  facet normal 0 0 1
    outer loop
      vertex 95.18117869502238 -27.287157622884113 43.3
      vertex 95.18117869502238 -26.712842377115887 43.3
      vertex 95.12503681783595 -26.430598100774453 43.3
    endloop
  endfacet
  facet normal 0 0 1
    outer loop
      vertex 95.03253497152483 -26.1580964487968 43.3
      vertex 95.12503681783595 -27.569401899225547 43.3
      vertex 95.12503681783595 -26.430598100774453 43.3
    endloop
  endfacet
  facet normal 0 0 1
    outer loop
      vertex 95.03253497152483 -27.8419035512032 43.3
      vertex 95.03253497152483 -26.1580964487968 43.3
      vertex 94.90525588832577 -25.9 43.3
    endloop
  endfacet
  facet normal 0 0 1
    outer loop
      vertex 94.90525588832577 -28.1 43.3
      vertex 94.90525588832577 -25.9 43.3
      vertex 94.74537734864072 -25.660724856180813 43.3
    endloop
  endfacet
  facet normal 0 0 1
    outer loop
      vertex 94.74537734864072 -28.339275143819187 43.3
      vertex 94.74537734864072 -25.660724856180813 43.3
      vertex 94.55563491861041 -25.444365081389595 43.3
    endloop
  endfacet
  facet normal 0 0 1
    outer loop
      vertex 94.55563491861041 -28.555634918610405 43.3
      vertex 94.55563491861041 -25.444365081389595 43.3
      vertex 94.33927514381918 -25.254622651359284 43.3
    endloop
  endfacet
  facet normal 0 0 1
    outer loop
      vertex 91.9 -25.094744111674235 43.3
      vertex 91.97863705329038 -26.294513698338417 43.3
      vertex 92.0513431476177 -26.248133804299705 43.3
    endloop
  endfacet
  facet normal 0 0 1
    outer loop
      vertex 91.9 -25.094744111674235 43.3
      vertex 92.0513431476177 -26.248133804299705 43.3
      vertex 92.07065272217007 -26.125684079475914 43.3
    endloop
  endfacet
  facet normal 0 0 1
    outer loop
      vertex 91.9 -25.094744111674235 43.3
      vertex 92.07065272217007 -26.125684079475914 43.3
      vertex 92.17020936857364 -26.019631556575998 43.3
    endloop
  endfacet
  facet normal 0 0 1
    outer loop
      vertex 91.9 -25.094744111674235 43.3
      vertex 92.17020936857364 -26.019631556575998 43.3
      vertex 92.1580964487968 -24.967465028475168 43.3
    endloop
  endfacet
  facet normal 0 0 1
    outer loop
      vertex 92.71284237711589 -24.818821304977618 43.3
      vertex 92.84336856933594 -25.810266166351422 43.3
      vertex 93 -25.8 43.3
    endloop
  endfacet
  facet normal 0 0 1
    outer loop
      vertex 93.56940189922554 -24.87496318216405 43.3
      vertex 93.63316734916992 -25.851715903320105 43.3
      vertex 93.65738232495563 -25.772097524300673 43.3
    endloop
  endfacet
  facet normal 0 0 1
    outer loop
      vertex 93.28715762288411 -24.818821304977618 43.3
      vertex 93.31476110701662 -25.82952045788075 43.3
      vertex 93.3693888682659 -25.680884537022486 43.3
    endloop
  endfacet
  facet normal 0 0 1
    outer loop
      vertex 93.28715762288411 -24.818821304977618 43.3
      vertex 93.24969413417823 -25.57752539101877 43.3
      vertex 93.31476110701662 -25.82952045788075 43.3
    endloop
  endfacet
  facet normal 0 0 1
    outer loop
      vertex 93.56940189922554 -24.87496318216405 43.3
      vertex 93.5828484050147 -25.52266093936821 43.3
      vertex 93.63316734916992 -25.851715903320105 43.3
    endloop
  endfacet
  facet normal 0 0 1
    outer loop
      vertex 94.1 -25.094744111674235 43.3
      vertex 94.1 -26.10158913246652 43.3
      vertex 94.17241309897811 -26.199554505690774 43.3
    endloop
  endfacet
  facet normal 0 0 1
    outer loop
      vertex 93.8419035512032 -24.967465028475168 43.3
      vertex 93.84455442757402 -25.63294183986763 43.3
      vertex 93.90466558315796 -25.925028594069584 43.3
    endloop
  endfacet
  facet normal 0 0 1
    outer loop
      vertex 93.8419035512032 -24.967465028475168 43.3
      vertex 93.90466558315796 -25.925028594069584 43.3
      vertex 94.1 -25.609096773252798 43.3
    endloop
  endfacet
  facet normal 0 0 1
    outer loop
      vertex 94.1 -25.094744111674235 43.3
      vertex 94.17241309897811 -26.199554505690774 43.3
      vertex 94.33927514381918 -25.254622651359284 43.3
    endloop
  endfacet
  facet normal 0 0 1
    outer loop
      vertex 92.71284237711589 -24.818821304977618 43.3
      vertex 92.72508253099606 -25.066706781836473 43.3
      vertex 92.84336856933594 -25.810266166351422 43.3
    endloop
  endfacet
  facet normal 0 0 1
    outer loop
      vertex 93 -24.8 43.3
      vertex 93.06872064194849 -25.640693057301224 43.3
      vertex 93.22737727368335 -25.27289813827953 43.3
    endloop
  endfacet
  facet normal 0 0 1
    outer loop
      vertex 92.71284237711589 -24.818821304977618 43.3
      vertex 93 -25.8 43.3
      vertex 93 -24.8 43.3
    endloop
  endfacet
  facet normal 0 0 1
    outer loop
      vertex 93.28715762288411 -24.818821304977618 43.3
      vertex 93.3693888682659 -25.680884537022486 43.3
      vertex 93.56940189922554 -24.87496318216405 43.3
    endloop
  endfacet
  facet normal 0 0 1
    outer loop
      vertex 93.56940189922554 -24.87496318216405 43.3
      vertex 93.65738232495563 -25.772097524300673 43.3
      vertex 93.8419035512032 -24.967465028475168 43.3
    endloop
  endfacet
  facet normal 0 0 1
    outer loop
      vertex 93 -24.8 43.3
      vertex 93.22737727368335 -25.27289813827953 43.3
      vertex 93.28715762288411 -24.818821304977618 43.3
    endloop
  endfacet
  facet normal 0 0 1
    outer loop
      vertex 93.8419035512032 -24.967465028475168 43.3
      vertex 94.1 -25.609096773252798 43.3
      vertex 94.1 -25.094744111674235 43.3
    endloop
  endfacet
  facet normal 0 0 -1
    outer loop
      vertex 75.43059810077446 -29.12503681783595 43.3
      vertex 75.74572967528805 -28.51515082725067 43.3
      vertex 75.71284237711589 -29.181178695022382 43.3
    endloop
  endfacet
  facet normal 0 0 -1
    outer loop
      vertex 75.71284237711589 -29.181178695022382 43.3
      vertex 76 -28.642372171132727 43.3
      vertex 76 -29.2 43.3
    endloop
  endfacet
  facet normal 0 0 -1
    outer loop
      vertex 75.73362013694397 -29.023355940354985 43.3
      vertex 75.93474457227971 -28.401698594771787 43.3
      vertex 75.71284237711589 -29.181178695022382 43.3
    endloop
  endfacet
  facet normal 0 0 -1
    outer loop
      vertex 76 -29.2 43.3
      vertex 76.24545275170591 -28.336578865595705 43.3
      vertex 76.28715762288411 -29.181178695022382 43.3
    endloop
  endfacet
  facet normal 0 0 -1
    outer loop
      vertex 76.28715762288411 -29.181178695022382 43.3
      vertex 76.40826373807882 -28.240708432635778 43.3
      vertex 76.56940189922554 -29.12503681783595 43.3
    endloop
  endfacet
  facet normal 0 0 -1
    outer loop
      vertex 76 -28.642372171132727 43.3
      vertex 75.71284237711589 -29.181178695022382 43.3
      vertex 75.93474457227971 -28.401698594771787 43.3
    endloop
  endfacet
  facet normal 0 0 -1
    outer loop
      vertex 76 -28.642372171132727 43.3
      vertex 76.15663143066406 -28.189733833648575 43.3
      vertex 76 -29.2 43.3
    endloop
  endfacet
  facet normal 0 0 -1
    outer loop
      vertex 74.9 -28.905255888325765 43.3
      vertex 74.66072485618082 -28.745377348640716 43.3
      vertex 74.9 -27.987410599955744 43.3
    endloop
  endfacet
  facet normal 0 0 -1
    outer loop
      vertex 74.66072485618082 -28.745377348640716 43.3
      vertex 74.44436508138959 -28.555634918610405 43.3
      vertex 74.83206732226047 -27.86880351273134 43.3
    endloop
  endfacet
  facet normal 0 0 -1
    outer loop
      vertex 74.66072485618082 -28.745377348640716 43.3
      vertex 74.83206732226047 -27.86880351273134 43.3
      vertex 74.9 -27.987410599955744 43.3
    endloop
  endfacet
  facet normal 0 0 -1
    outer loop
      vertex 75.43059810077446 -29.12503681783595 43.3
      vertex 75.68533232718579 -28.173900627253847 43.3
      vertex 75.74572967528805 -28.51515082725067 43.3
    endloop
  endfacet
  facet normal 0 0 -1
    outer loop
      vertex 75.6343625835891 -28.35844344221411 43.3
      vertex 75.68533232718579 -28.173900627253847 43.3
      vertex 75.43059810077446 -29.12503681783595 43.3
    endloop
  endfacet
  facet normal 0 0 -1
    outer loop
      vertex 76 -29.2 43.3
      vertex 76.15663143066406 -28.189733833648575 43.3
      vertex 76.24545275170591 -28.336578865595705 43.3
    endloop
  endfacet
  facet normal 0 0 -1
    outer loop
      vertex 76.36351783509534 -28.356667030033254 43.3
      vertex 76.40826373807882 -28.240708432635778 43.3
      vertex 76.28715762288411 -29.181178695022382 43.3
    endloop
  endfacet
  facet normal 0 0 -1
    outer loop
      vertex 76.56940189922554 -29.12503681783595 43.3
      vertex 76.40826373807882 -28.240708432635778 43.3
      vertex 76.8419035512032 -29.032534971524832 43.3
    endloop
  endfacet
  facet normal 0 0 -1
    outer loop
      vertex 76.8419035512032 -29.032534971524832 43.3
      vertex 76.40826373807882 -28.240708432635778 43.3
      vertex 77.1 -28.905255888325765 43.3
    endloop
  endfacet
  facet normal 0 0 -1
    outer loop
      vertex 77.1 -28.905255888325765 43.3
      vertex 76.40826373807882 -28.240708432635778 43.3
      vertex 77.33927514381918 -28.745377348640716 43.3
    endloop
  endfacet
  facet normal 0 0 -1
    outer loop
      vertex 77.33927514381918 -28.745377348640716 43.3
      vertex 76.46352978573691 -28.1067164835771 43.3
      vertex 77.55563491861041 -28.555634918610405 43.3
    endloop
  endfacet
  facet normal 0 0 -1
    outer loop
      vertex 77.33927514381918 -28.745377348640716 43.3
      vertex 76.40826373807882 -28.240708432635778 43.3
      vertex 76.46352978573691 -28.1067164835771 43.3
    endloop
  endfacet
  facet normal 0 0 -1
    outer loop
      vertex 77.55563491861041 -28.555634918610405 43.3
      vertex 76.46352978573691 -28.1067164835771 43.3
      vertex 77.74537734864072 -28.339275143819187 43.3
    endloop
  endfacet
  facet normal 0 0 -1
    outer loop
      vertex 77.74537734864072 -28.339275143819187 43.3
      vertex 76.46352978573691 -28.1067164835771 43.3
      vertex 77.90525588832577 -28.1 43.3
    endloop
  endfacet
  facet normal 0 0 -1
    outer loop
      vertex 74.44436508138959 -28.555634918610405 43.3
      vertex 74.25462265135928 -28.339275143819187 43.3
      vertex 74.66072485618082 -25.254622651359284 43.3
    endloop
  endfacet
  facet normal 0 0 -1
    outer loop
      vertex 74.09474411167423 -28.1 43.3
      vertex 74.66072485618082 -25.254622651359284 43.3
      vertex 74.25462265135928 -28.339275143819187 43.3
    endloop
  endfacet
  facet normal 0 0 -1
    outer loop
      vertex 74.09474411167423 -28.1 43.3
      vertex 73.96746502847517 -27.8419035512032 43.3
      vertex 74.66072485618082 -25.254622651359284 43.3
    endloop
  endfacet
  facet normal 0 0 -1
    outer loop
      vertex 74.83206732226047 -27.86880351273134 43.3
      vertex 74.44436508138959 -28.555634918610405 43.3
      vertex 74.66072485618082 -25.254622651359284 43.3
    endloop
  endfacet
  facet normal 0 0 -1
    outer loop
      vertex 76.46351135758623 -28.1065392342529 43.3
      vertex 78.12503681783595 -27.569401899225547 43.3
      vertex 76.46352978573691 -28.1067164835771 43.3
    endloop
  endfacet
  facet normal 0 0 -1
    outer loop
      vertex 76.46351135758623 -28.1065392342529 43.3
      vertex 76.5317208891843 -28.072902015733572 43.3
      vertex 78.12503681783595 -27.569401899225547 43.3
    endloop
  endfacet
  facet normal 0 0 -1
    outer loop
      vertex 76.5317208891843 -28.072902015733572 43.3
      vertex 76.60416594885464 -28.037357742250162 43.3
      vertex 78.12503681783595 -27.569401899225547 43.3
    endloop
  endfacet
  facet normal 0 0 -1
    outer loop
      vertex 77.90525588832577 -28.1 43.3
      vertex 76.46352978573691 -28.1067164835771 43.3
      vertex 78.03253497152483 -27.8419035512032 43.3
    endloop
  endfacet
  facet normal 0 0 -1
    outer loop
      vertex 76.60416594885464 -28.037357742250162 43.3
      vertex 76.7258001969511 -27.982678818333543 43.3
      vertex 78.12503681783595 -27.569401899225547 43.3
    endloop
  endfacet
  facet normal 0 0 -1
    outer loop
      vertex 76.7258001969511 -27.982678818333543 43.3
      vertex 76.76964867131161 -27.93450040589545 43.3
      vertex 78.12503681783595 -27.569401899225547 43.3
    endloop
  endfacet
  facet normal 0 0 -1
    outer loop
      vertex 78.03253497152483 -27.8419035512032 43.3
      vertex 76.46352978573691 -28.1067164835771 43.3
      vertex 78.12503681783595 -27.569401899225547 43.3
    endloop
  endfacet
  facet normal 0 0 -1
    outer loop
      vertex 76.76964867131161 -27.93450040589545 43.3
      vertex 76.82895685245988 -27.907943764937297 43.3
      vertex 78.12503681783595 -27.569401899225547 43.3
    endloop
  endfacet
  facet normal 0 0 -1
    outer loop
      vertex 76.82895685245988 -27.907943764937297 43.3
      vertex 76.91983079076134 -27.816825323554287 43.3
      vertex 78.12503681783595 -27.569401899225547 43.3
    endloop
  endfacet
  facet normal 0 0 -1
    outer loop
      vertex 76.91983079076134 -27.816825323554287 43.3
      vertex 76.95512160266213 -27.80113420984914 43.3
      vertex 78.18117869502238 -27.287157622884113 43.3
    endloop
  endfacet
  facet normal 0 0 -1
    outer loop
      vertex 76.95512160266213 -27.80113420984914 43.3
      vertex 77.02101321683269 -27.700150454852288 43.3
      vertex 78.18117869502238 -27.287157622884113 43.3
    endloop
  endfacet
  facet normal 0 0 -1
    outer loop
      vertex 78.18117869502238 -27.287157622884113 43.3
      vertex 78.12503681783595 -27.569401899225547 43.3
      vertex 76.91983079076134 -27.816825323554287 43.3
    endloop
  endfacet
  facet normal 0 0 -1
    outer loop
      vertex 77.0166627406914 -27.63377501549615 43.3
      vertex 78.18117869502238 -27.287157622884113 43.3
      vertex 77.02101321683269 -27.700150454852288 43.3
    endloop
  endfacet
  facet normal 0 0 -1
    outer loop
      vertex 77.0166627406914 -27.63377501549615 43.3
      vertex 77.1 -27.57360677650979 43.3
      vertex 78.18117869502238 -27.287157622884113 43.3
    endloop
  endfacet
  facet normal 0 0 -1
    outer loop
      vertex 77.1 -27.47677161289374 43.3
      vertex 78.18117869502238 -27.287157622884113 43.3
      vertex 77.1 -27.57360677650979 43.3
    endloop
  endfacet
  facet normal 0 0 -1
    outer loop
      vertex 77.1 -27.47677161289374 43.3
      vertex 77.25038972618273 -27.389247937428472 43.3
      vertex 78.18117869502238 -27.287157622884113 43.3
    endloop
  endfacet
  facet normal 0 0 -1
    outer loop
      vertex 78.2 -27 43.3
      vertex 78.18117869502238 -27.287157622884113 43.3
      vertex 77.25038972618273 -27.389247937428472 43.3
    endloop
  endfacet
  facet normal 0 0 -1
    outer loop
      vertex 78.18117869502238 -26.712842377115887 43.3
      vertex 78.2 -27 43.3
      vertex 77.25038972618273 -27.389247937428472 43.3
    endloop
  endfacet
  facet normal 0 0 -1
    outer loop
      vertex 73.96746502847517 -27.8419035512032 43.3
      vertex 73.87496318216405 -27.569401899225547 43.3
      vertex 74.66072485618082 -25.254622651359284 43.3
    endloop
  endfacet
  facet normal 0 0 -1
    outer loop
      vertex 73.87496318216405 -27.569401899225547 43.3
      vertex 73.81882130497762 -27.287157622884113 43.3
      vertex 74.66072485618082 -25.254622651359284 43.3
    endloop
  endfacet
  facet normal 0 0 -1
    outer loop
      vertex 73.81882130497762 -27.287157622884113 43.3
      vertex 73.8 -27 43.3
      vertex 74.66072485618082 -25.254622651359284 43.3
    endloop
  endfacet
  facet normal 0 0 -1
    outer loop
      vertex 73.8 -27 43.3
      vertex 73.81882130497762 -26.712842377115887 43.3
      vertex 74.66072485618082 -25.254622651359284 43.3
    endloop
  endfacet
  facet normal 0 0 -1
    outer loop
      vertex 73.81882130497762 -26.712842377115887 43.3
      vertex 73.87496318216405 -26.430598100774453 43.3
      vertex 74.66072485618082 -25.254622651359284 43.3
    endloop
  endfacet
  facet normal 0 0 -1
    outer loop
      vertex 73.87496318216405 -26.430598100774453 43.3
      vertex 73.96746502847517 -26.1580964487968 43.3
      vertex 74.66072485618082 -25.254622651359284 43.3
    endloop
  endfacet
  facet normal 0 0 -1
    outer loop
      vertex 75.05334204793571 -26.263367470704036 43.3
      vertex 74.93316135536138 -25.600688624475694 43.3
      vertex 75.08707622051115 -26.224901019209646 43.3
    endloop
  endfacet
  facet normal 0 0 -1
    outer loop
      vertex 75.27703230782745 -26.0429339005226 43.3
      vertex 75.21061919695832 -25.765636626708137 43.3
      vertex 75.39602169354362 -25.96342773484793 43.3
    endloop
  endfacet
  facet normal 0 0 -1
    outer loop
      vertex 78.12503681783595 -26.430598100774453 43.3
      vertex 77.25038972618273 -27.389247937428472 43.3
      vertex 77.19243560674542 -26.505038941625315 43.3
    endloop
  endfacet
  facet normal 0 0 -1
    outer loop
      vertex 78.12503681783595 -26.430598100774453 43.3
      vertex 78.18117869502238 -26.712842377115887 43.3
      vertex 77.25038972618273 -27.389247937428472 43.3
    endloop
  endfacet
  facet normal 0 0 -1
    outer loop
      vertex 76.9252408105118 -26.23894590130479 43.3
      vertex 76.91773501565102 -26.124429601152517 43.3
      vertex 77.1 -26.209972154277427 43.3
    endloop
  endfacet
  facet normal 0 0 -1
    outer loop
      vertex 78.03253497152483 -26.1580964487968 43.3
      vertex 77.19243560674542 -26.505038941625315 43.3
      vertex 77.1 -26.52322838710626 43.3
    endloop
  endfacet
  facet normal 0 0 -1
    outer loop
      vertex 78.03253497152483 -26.1580964487968 43.3
      vertex 78.12503681783595 -26.430598100774453 43.3
      vertex 77.19243560674542 -26.505038941625315 43.3
    endloop
  endfacet
  facet normal 0 0 -1
    outer loop
      vertex 78.03253497152483 -26.1580964487968 43.3
      vertex 77.1 -26.52322838710626 43.3
      vertex 77.1 -26.209972154277427 43.3
    endloop
  endfacet
  facet normal 0 0 -1
    outer loop
      vertex 77.90525588832577 -25.9 43.3
      vertex 78.03253497152483 -26.1580964487968 43.3
      vertex 77.1 -26.209972154277427 43.3
    endloop
  endfacet
  facet normal 0 0 -1
    outer loop
      vertex 77.1 -26.209972154277427 43.3
      vertex 76.91773501565102 -26.124429601152517 43.3
      vertex 77.74537734864072 -25.660724856180813 43.3
    endloop
  endfacet
  facet normal 0 0 -1
    outer loop
      vertex 76.84603277189908 -26.00406584942036 43.3
      vertex 77.74537734864072 -25.660724856180813 43.3
      vertex 76.91773501565102 -26.124429601152517 43.3
    endloop
  endfacet
  facet normal 0 0 -1
    outer loop
      vertex 77.90525588832577 -25.9 43.3
      vertex 77.1 -26.209972154277427 43.3
      vertex 77.74537734864072 -25.660724856180813 43.3
    endloop
  endfacet
  facet normal 0 0 -1
    outer loop
      vertex 73.96746502847517 -26.1580964487968 43.3
      vertex 74.09474411167423 -25.9 43.3
      vertex 74.66072485618082 -25.254622651359284 43.3
    endloop
  endfacet
  facet normal 0 0 -1
    outer loop
      vertex 75.08707622051115 -26.224901019209646 43.3
      vertex 74.93316135536138 -25.600688624475694 43.3
      vertex 74.94735978235123 -25.07138885162989 43.3
    endloop
  endfacet
  facet normal 0 0 -1
    outer loop
      vertex 74.09474411167423 -25.9 43.3
      vertex 74.25462265135928 -25.660724856180813 43.3
      vertex 74.66072485618082 -25.254622651359284 43.3
    endloop
  endfacet
  facet normal 0 0 -1
    outer loop
      vertex 74.25462265135928 -25.660724856180813 43.3
      vertex 74.44436508138959 -25.444365081389595 43.3
      vertex 74.66072485618082 -25.254622651359284 43.3
    endloop
  endfacet
  facet normal 0 0 -1
    outer loop
      vertex 75.39602169354362 -25.96342773484793 43.3
      vertex 75.21061919695832 -25.765636626708137 43.3
      vertex 75.17069626115686 -24.963187968508663 43.3
    endloop
  endfacet
  facet normal 0 0 -1
    outer loop
      vertex 75.53648864241377 -25.8934607657471 43.3
      vertex 75.4682791108157 -25.927097984266428 43.3
      vertex 75.17069626115686 -24.963187968508663 43.3
    endloop
  endfacet
  facet normal 0 0 -1
    outer loop
      vertex 75.53648864241377 -25.8934607657471 43.3
      vertex 75.17069626115686 -24.963187968508663 43.3
      vertex 75.53311311776714 -25.860993619553508 43.3
    endloop
  endfacet
  facet normal 0 0 -1
    outer loop
      vertex 75.61142845760054 -25.867362600831722 43.3
      vertex 75.53311311776714 -25.860993619553508 43.3
      vertex 75.17069626115686 -24.963187968508663 43.3
    endloop
  endfacet
  facet normal 0 0 -1
    outer loop
      vertex 75.61142845760054 -25.867362600831722 43.3
      vertex 75.17069626115686 -24.963187968508663 43.3
      vertex 75.68941714587694 -25.840889008453004 43.3
    endloop
  endfacet
  facet normal 0 0 -1
    outer loop
      vertex 75.76259158789142 -25.82633370696034 43.3
      vertex 75.68941714587694 -25.840889008453004 43.3
      vertex 75.71284237711589 -24.818821304977618 43.3
    endloop
  endfacet
  facet normal 0 0 -1
    outer loop
      vertex 76 -25.756749550366045 43.3
      vertex 75.84336856933594 -25.81026616635143 43.3
      vertex 77.33927514381918 -25.254622651359284 43.3
    endloop
  endfacet
  facet normal 0 0 -1
    outer loop
      vertex 76 -25.756749550366045 43.3
      vertex 77.33927514381918 -25.254622651359284 43.3
      vertex 76.07950338202482 -25.772603564302255 43.3
    endloop
  endfacet
  facet normal 0 0 -1
    outer loop
      vertex 76.56940189922554 -24.87496318216405 43.3
      vertex 75.84336856933594 -25.81026616635143 43.3
      vertex 75.74572967528805 -25.48484917274933 43.3
    endloop
  endfacet
  facet normal 0 0 -1
    outer loop
      vertex 74.9 -25.094744111674235 43.3
      vertex 74.94735978235123 -25.07138885162989 43.3
      vertex 74.93316135536138 -25.600688624475694 43.3
    endloop
  endfacet
  facet normal 0 0 -1
    outer loop
      vertex 75.1580964487968 -24.967465028475168 43.3
      vertex 75.17069626115686 -24.963187968508663 43.3
      vertex 75.21061919695832 -25.765636626708137 43.3
    endloop
  endfacet
  facet normal 0 0 -1
    outer loop
      vertex 75.17069626115686 -24.963187968508663 43.3
      vertex 75.71284237711589 -24.818821304977618 43.3
      vertex 75.68941714587694 -25.840889008453004 43.3
    endloop
  endfacet
  facet normal 0 0 -1
    outer loop
      vertex 76.56940189922554 -24.87496318216405 43.3
      vertex 76.8419035512032 -24.967465028475168 43.3
      vertex 75.84336856933594 -25.81026616635143 43.3
    endloop
  endfacet
  facet normal 0 0 -1
    outer loop
      vertex 75.43059810077446 -24.87496318216405 43.3
      vertex 75.71284237711589 -24.818821304977618 43.3
      vertex 75.17069626115686 -24.963187968508663 43.3
    endloop
  endfacet
  facet normal 0 0 -1
    outer loop
      vertex 75.71284237711589 -24.818821304977618 43.3
      vertex 76 -24.8 43.3
      vertex 75.74572967528805 -25.48484917274933 43.3
    endloop
  endfacet
  facet normal 0 0 -1
    outer loop
      vertex 76 -24.8 43.3
      vertex 76.28715762288411 -24.818821304977618 43.3
      vertex 75.74572967528805 -25.48484917274933 43.3
    endloop
  endfacet
  facet normal 0 0 -1
    outer loop
      vertex 76.28715762288411 -24.818821304977618 43.3
      vertex 76.56940189922554 -24.87496318216405 43.3
      vertex 75.74572967528805 -25.48484917274933 43.3
    endloop
  endfacet
  facet normal 0 0 -1
    outer loop
      vertex 76.84603277189908 -26.00406584942036 43.3
      vertex 76.77183536172421 -26.032269151247768 43.3
      vertex 77.74537734864072 -25.660724856180813 43.3
    endloop
  endfacet
  facet normal 0 0 -1
    outer loop
      vertex 76.67322466370403 -25.933641481754876 43.3
      vertex 76.6393353478816 -25.946196684542087 43.3
      vertex 77.55563491861041 -25.444365081389595 43.3
    endloop
  endfacet
  facet normal 0 0 -1
    outer loop
      vertex 76.67322466370403 -25.933641481754876 43.3
      vertex 77.55563491861041 -25.444365081389595 43.3
      vertex 76.77183536172421 -26.032269151247768 43.3
    endloop
  endfacet
  facet normal 0 0 -1
    outer loop
      vertex 77.33927514381918 -25.254622651359284 43.3
      vertex 76.31502851761759 -25.839311673604907 43.3
      vertex 76.23963207511538 -25.781300468799216 43.3
    endloop
  endfacet
  facet normal 0 0 -1
    outer loop
      vertex 76.38222677960685 -25.81546952709413 43.3
      vertex 76.31502851761759 -25.839311673604907 43.3
      vertex 77.33927514381918 -25.254622651359284 43.3
    endloop
  endfacet
  facet normal 0 0 -1
    outer loop
      vertex 76.38222677960685 -25.81546952709413 43.3
      vertex 77.33927514381918 -25.254622651359284 43.3
      vertex 76.46390779976583 -25.889647626294657 43.3
    endloop
  endfacet
  facet normal 0 0 -1
    outer loop
      vertex 76.58952318625292 -25.844175011916654 43.3
      vertex 77.55563491861041 -25.444365081389595 43.3
      vertex 76.6393353478816 -25.946196684542087 43.3
    endloop
  endfacet
  facet normal 0 0 -1
    outer loop
      vertex 76.58952318625292 -25.844175011916654 43.3
      vertex 76.46390779976583 -25.889647626294657 43.3
      vertex 77.55563491861041 -25.444365081389595 43.3
    endloop
  endfacet
  facet normal 0 0 -1
    outer loop
      vertex 77.74537734864072 -25.660724856180813 43.3
      vertex 76.77183536172421 -26.032269151247768 43.3
      vertex 77.55563491861041 -25.444365081389595 43.3
    endloop
  endfacet
  facet normal 0 0 -1
    outer loop
      vertex 76.1654907738548 -25.74297277387436 43.3
      vertex 77.33927514381918 -25.254622651359284 43.3
      vertex 76.23963207511538 -25.781300468799216 43.3
    endloop
  endfacet
  facet normal 0 0 -1
    outer loop
      vertex 76.1654907738548 -25.74297277387436 43.3
      vertex 76.07950338202482 -25.772603564302255 43.3
      vertex 77.33927514381918 -25.254622651359284 43.3
    endloop
  endfacet
  facet normal 0 0 -1
    outer loop
      vertex 77.55563491861041 -25.444365081389595 43.3
      vertex 76.46390779976583 -25.889647626294657 43.3
      vertex 77.33927514381918 -25.254622651359284 43.3
    endloop
  endfacet
  facet normal 0 0 -1
    outer loop
      vertex 77.1 -25.094744111674235 43.3
      vertex 77.33927514381918 -25.254622651359284 43.3
      vertex 75.84336856933594 -25.81026616635143 43.3
    endloop
  endfacet
  facet normal 0 0 -1
    outer loop
      vertex 76.8419035512032 -24.967465028475168 43.3
      vertex 77.1 -25.094744111674235 43.3
      vertex 75.84336856933594 -25.81026616635143 43.3
    endloop
  endfacet
  facet normal 0 0 -1
    outer loop
      vertex 92.43059810077446 -29.12503681783595 43.3
      vertex 92.1580964487968 -29.032534971524832 43.3
      vertex 92.71284237711589 -29.181178695022382 43.3
    endloop
  endfacet
  facet normal 0 0 -1
    outer loop
      vertex 92.15338673679771 -27.850207437045764 43.3
      vertex 92.71284237711589 -29.181178695022382 43.3
      vertex 92.1580964487968 -29.032534971524832 43.3
    endloop
  endfacet
  facet normal 0 0 -1
    outer loop
      vertex 91.44436508138959 -28.555634918610405 43.3
      vertex 92.08226033764898 -27.875499503905473 43.3
      vertex 91.66072485618082 -28.745377348640716 43.3
    endloop
  endfacet
  facet normal 0 0 -1
    outer loop
      vertex 91.9 -28.905255888325765 43.3
      vertex 91.66072485618082 -28.745377348640716 43.3
      vertex 92.08226033764898 -27.875499503905473 43.3
    endloop
  endfacet
  facet normal 0 0 -1
    outer loop
      vertex 92.71284237711589 -29.181178695022382 43.3
      vertex 92.32978452401709 -28.097043135012356 43.3
      vertex 92.40849467014897 -28.060348142047335 43.3
    endloop
  endfacet
  facet normal 0 0 -1
    outer loop
      vertex 92.23139631987029 -27.918620005288286 43.3
      vertex 92.32978452401709 -28.097043135012356 43.3
      vertex 92.71284237711589 -29.181178695022382 43.3
    endloop
  endfacet
  facet normal 0 0 -1
    outer loop
      vertex 91.44436508138959 -28.555634918610405 43.3
      vertex 91.25462265135928 -28.339275143819187 43.3
      vertex 92.08226033764898 -27.875499503905473 43.3
    endloop
  endfacet
  facet normal 0 0 -1
    outer loop
      vertex 91.25462265135928 -28.339275143819187 43.3
      vertex 91.09474411167423 -28.1 43.3
      vertex 92.08226033764898 -27.875499503905473 43.3
    endloop
  endfacet
  facet normal 0 0 -1
    outer loop
      vertex 92.15338673679771 -27.850207437045764 43.3
      vertex 92.23139631987029 -27.918620005288286 43.3
      vertex 92.71284237711589 -29.181178695022382 43.3
    endloop
  endfacet
  facet normal 0 0 -1
    outer loop
      vertex 92.40813959032394 -28.04324448627935 43.3
      vertex 92.63344147750428 -28.348787116509033 43.3
      vertex 92.40849467014897 -28.060348142047335 43.3
    endloop
  endfacet
  facet normal 0 0 -1
    outer loop
      vertex 92.71284237711589 -29.181178695022382 43.3
      vertex 92.61286987147203 -28.13312669324574 43.3
      vertex 93 -29.2 43.3
    endloop
  endfacet
  facet normal 0 0 -1
    outer loop
      vertex 93.56940189922554 -29.12503681783595 43.3
      vertex 93.23740841210858 -28.17366629303966 43.3
      vertex 93.82930373884314 -29.036812031491337 43.3
    endloop
  endfacet
  facet normal 0 0 -1
    outer loop
      vertex 93.8419035512032 -29.032534971524832 43.3
      vertex 93.82930373884314 -29.036812031491337 43.3
      vertex 93.78938080304168 -28.234363373291867 43.3
    endloop
  endfacet
  facet normal 0 0 -1
    outer loop
      vertex 94.1 -28.905255888325765 43.3
      vertex 94.05264021764877 -28.92861114837011 43.3
      vertex 94.06683864463862 -28.39931137552432 43.3
    endloop
  endfacet
  facet normal 0 0 -1
    outer loop
      vertex 92.71284237711589 -29.181178695022382 43.3
      vertex 92.40849467014897 -28.060348142047335 43.3
      vertex 92.63344147750428 -28.348787116509033 43.3
    endloop
  endfacet
  facet normal 0 0 -1
    outer loop
      vertex 93 -29.2 43.3
      vertex 92.61286987147203 -28.13312669324574 43.3
      vertex 92.75454724829409 -28.336578865595705 43.3
    endloop
  endfacet
  facet normal 0 0 -1
    outer loop
      vertex 93 -28.2 43.3
      vertex 93.25427032471195 -28.51515082725067 43.3
      vertex 93.28715762288411 -29.181178695022382 43.3
    endloop
  endfacet
  facet normal 0 0 -1
    outer loop
      vertex 92.75454724829409 -28.336578865595705 43.3
      vertex 92.84336856933594 -28.189733833648575 43.3
      vertex 93 -29.2 43.3
    endloop
  endfacet
  facet normal 0 0 -1
    outer loop
      vertex 93.23740841210858 -28.17366629303966 43.3
      vertex 93.31058285412306 -28.159110991546996 43.3
      vertex 93.82930373884314 -29.036812031491337 43.3
    endloop
  endfacet
  facet normal 0 0 -1
    outer loop
      vertex 93.31058285412306 -28.159110991546996 43.3
      vertex 93.38857154239946 -28.132637399168278 43.3
      vertex 93.82930373884314 -29.036812031491337 43.3
    endloop
  endfacet
  facet normal 0 0 -1
    outer loop
      vertex 93.38857154239946 -28.132637399168278 43.3
      vertex 93.46688688223286 -28.139006380446492 43.3
      vertex 93.82930373884314 -29.036812031491337 43.3
    endloop
  endfacet
  facet normal 0 0 -1
    outer loop
      vertex 93.46351135758623 -28.1065392342529 43.3
      vertex 93.82930373884314 -29.036812031491337 43.3
      vertex 93.46688688223286 -28.139006380446492 43.3
    endloop
  endfacet
  facet normal 0 0 -1
    outer loop
      vertex 93.46351135758623 -28.1065392342529 43.3
      vertex 93.5317208891843 -28.072902015733572 43.3
      vertex 93.82930373884314 -29.036812031491337 43.3
    endloop
  endfacet
  facet normal 0 0 -1
    outer loop
      vertex 93.60397830645638 -28.03657226515207 43.3
      vertex 93.78938080304168 -28.234363373291867 43.3
      vertex 93.82930373884314 -29.036812031491337 43.3
    endloop
  endfacet
  facet normal 0 0 -1
    outer loop
      vertex 93 -28.2 43.3
      vertex 93.15663143066406 -28.18973383364857 43.3
      vertex 93.25427032471195 -28.51515082725067 43.3
    endloop
  endfacet
  facet normal 0 0 -1
    outer loop
      vertex 92.68488639912186 -28.15757301026503 43.3
      vertex 92.75454724829409 -28.336578865595705 43.3
      vertex 92.61286987147203 -28.13312669324574 43.3
    endloop
  endfacet
  facet normal 0 0 -1
    outer loop
      vertex 92.40813959032394 -28.04324448627935 43.3
      vertex 92.53648864241377 -28.1065392342529 43.3
      vertex 92.63344147750428 -28.348787116509033 43.3
    endloop
  endfacet
  facet normal 0 0 -1
    outer loop
      vertex 94.55563491861041 -28.555634918610405 43.3
      vertex 94.33927514381918 -28.745377348640716 43.3
      vertex 94.74537734864072 -28.339275143819187 43.3
    endloop
  endfacet
  facet normal 0 0 -1
    outer loop
      vertex 94.74537734864072 -28.339275143819187 43.3
      vertex 94.33927514381918 -28.745377348640716 43.3
      vertex 94.90525588832577 -28.1 43.3
    endloop
  endfacet
  facet normal 0 0 -1
    outer loop
      vertex 93.91292377948885 -27.775098980790354 43.3
      vertex 94.06683864463862 -28.39931137552432 43.3
      vertex 94.05264021764877 -28.92861114837011 43.3
    endloop
  endfacet
  facet normal 0 0 -1
    outer loop
      vertex 94.90525588832577 -28.1 43.3
      vertex 94.33927514381918 -28.745377348640716 43.3
      vertex 95.03253497152483 -27.8419035512032 43.3
    endloop
  endfacet
  facet normal 0 0 -1
    outer loop
      vertex 91.09474411167423 -28.1 43.3
      vertex 90.96746502847517 -27.8419035512032 43.3
      vertex 91.9 -27.789463235696118 43.3
    endloop
  endfacet
  facet normal 0 0 -1
    outer loop
      vertex 91.09474411167423 -28.1 43.3
      vertex 91.9 -27.789463235696118 43.3
      vertex 92.08226033764898 -27.875499503905473 43.3
    endloop
  endfacet
  facet normal 0 0 -1
    outer loop
      vertex 92.35787580228984 -28.011083995491905 43.3
      vertex 92.40849467014897 -28.060348142047335 43.3
      vertex 92.32978452401709 -28.097043135012356 43.3
    endloop
  endfacet
  facet normal 0 0 -1
    outer loop
      vertex 91.9 -27.789463235696118 43.3
      vertex 90.96746502847517 -27.8419035512032 43.3
      vertex 91.9 -27.62476185901767 43.3
    endloop
  endfacet
  facet normal 0 0 -1
    outer loop
      vertex 91.80751208059509 -27.494162921424838 43.3
      vertex 91.9 -27.62476185901767 43.3
      vertex 90.96746502847517 -27.8419035512032 43.3
    endloop
  endfacet
  facet normal 0 0 -1
    outer loop
      vertex 90.87496318216405 -27.569401899225547 43.3
      vertex 90.81882130497762 -27.287157622884113 43.3
      vertex 91.76616583245743 -26.863341076472704 43.3
    endloop
  endfacet
  facet normal 0 0 -1
    outer loop
      vertex 90.81882130497762 -27.287157622884113 43.3
      vertex 90.8 -27 43.3
      vertex 91.76616583245743 -26.863341076472704 43.3
    endloop
  endfacet
  facet normal 0 0 -1
    outer loop
      vertex 90.87496318216405 -27.569401899225547 43.3
      vertex 91.76616583245743 -26.863341076472704 43.3
      vertex 90.96746502847517 -27.8419035512032 43.3
    endloop
  endfacet
  facet normal 0 0 -1
    outer loop
      vertex 91.80751208059509 -27.494162921424838 43.3
      vertex 90.96746502847517 -27.8419035512032 43.3
      vertex 91.76616583245743 -26.863341076472704 43.3
    endloop
  endfacet
  facet normal 0 0 -1
    outer loop
      vertex 93.60397830645638 -28.03657226515207 43.3
      vertex 93.72296769217255 -27.9570660994774 43.3
      vertex 93.78938080304168 -28.234363373291867 43.3
    endloop
  endfacet
  facet normal 0 0 -1
    outer loop
      vertex 93.91292377948885 -27.775098980790354 43.3
      vertex 93.94665795206429 -27.736632529295964 43.3
      vertex 94.06683864463862 -28.39931137552432 43.3
    endloop
  endfacet
  facet normal 0 0 -1
    outer loop
      vertex 95.03253497152483 -27.8419035512032 43.3
      vertex 94.33927514381918 -28.745377348640716 43.3
      vertex 95.12503681783595 -27.569401899225547 43.3
    endloop
  endfacet
  facet normal 0 0 -1
    outer loop
      vertex 95.12503681783595 -27.569401899225547 43.3
      vertex 94.33927514381918 -28.745377348640716 43.3
      vertex 95.18117869502238 -27.287157622884113 43.3
    endloop
  endfacet
  facet normal 0 0 -1
    outer loop
      vertex 95.18117869502238 -27.287157622884113 43.3
      vertex 94.33927514381918 -28.745377348640716 43.3
      vertex 95.19999999999999 -26.999999999999783 43.3
    endloop
  endfacet
  facet normal 0 0 -1
    outer loop
      vertex 95.18117869502238 -26.712842377115887 43.3
      vertex 95.19999999999999 -26.999999999999783 43.3
      vertex 94.33927514381918 -28.745377348640716 43.3
    endloop
  endfacet
  facet normal 0 0 -1
    outer loop
      vertex 95.18117869502238 -26.712842377115887 43.3
      vertex 94.33927514381918 -28.745377348640716 43.3
      vertex 95.12503681783595 -26.430598100774453 43.3
    endloop
  endfacet
  facet normal 0 0 -1
    outer loop
      vertex 95.12503681783595 -26.430598100774453 43.3
      vertex 94.33927514381918 -28.745377348640716 43.3
      vertex 95.03253497152483 -26.1580964487968 43.3
    endloop
  endfacet
  facet normal 0 0 -1
    outer loop
      vertex 90.8 -27 43.3
      vertex 90.81882130497762 -26.712842377115887 43.3
      vertex 91.76616583245743 -26.863341076472704 43.3
    endloop
  endfacet
  facet normal 0 0 -1
    outer loop
      vertex 90.81882130497762 -26.712842377115887 43.3
      vertex 90.87496318216405 -26.430598100774453 43.3
      vertex 91.76616583245743 -26.863341076472704 43.3
    endloop
  endfacet
  facet normal 0 0 -1
    outer loop
      vertex 90.87496318216405 -26.430598100774453 43.3
      vertex 90.96746502847517 -26.1580964487968 43.3
      vertex 91.76616583245743 -26.863341076472704 43.3
    endloop
  endfacet
  facet normal 0 0 -1
    outer loop
      vertex 90.96746502847517 -26.1580964487968 43.3
      vertex 91.9 -26.349393659824564 43.3
      vertex 91.76616583245743 -26.863341076472704 43.3
    endloop
  endfacet
  facet normal 0 0 -1
    outer loop
      vertex 90.96746502847517 -26.1580964487968 43.3
      vertex 91.09474411167423 -25.9 43.3
      vertex 91.9 -26.349393659824564 43.3
    endloop
  endfacet
  facet normal 0 0 -1
    outer loop
      vertex 91.09474411167423 -25.9 43.3
      vertex 91.25462265135928 -25.660724856180813 43.3
      vertex 91.9 -26.349393659824564 43.3
    endloop
  endfacet
  facet normal 0 0 -1
    outer loop
      vertex 92.1580964487968 -24.967465028475168 43.3
      vertex 91.97863705329038 -26.294513698338417 43.3
      vertex 91.9 -26.49193047700651 43.3
    endloop
  endfacet
  facet normal 0 0 -1
    outer loop
      vertex 94.55563491861041 -25.444365081389595 43.3
      vertex 94.33927514381918 -28.745377348640716 43.3
      vertex 94.17241309897811 -26.199554505690774 43.3
    endloop
  endfacet
  facet normal 0 0 -1
    outer loop
      vertex 94.90525588832577 -25.9 43.3
      vertex 95.03253497152483 -26.1580964487968 43.3
      vertex 94.33927514381918 -28.745377348640716 43.3
    endloop
  endfacet
  facet normal 0 0 -1
    outer loop
      vertex 94.90525588832577 -25.9 43.3
      vertex 94.33927514381918 -28.745377348640716 43.3
      vertex 94.74537734864072 -25.660724856180813 43.3
    endloop
  endfacet
  facet normal 0 0 -1
    outer loop
      vertex 94.55563491861041 -25.444365081389595 43.3
      vertex 94.74537734864072 -25.660724856180813 43.3
      vertex 94.33927514381918 -28.745377348640716 43.3
    endloop
  endfacet
  facet normal 0 0 -1
    outer loop
      vertex 94.55563491861041 -25.444365081389595 43.3
      vertex 94.17241309897811 -26.199554505690774 43.3
      vertex 94.1 -26.10158913246652 43.3
    endloop
  endfacet
  facet normal 0 0 -1
    outer loop
      vertex 91.25462265135928 -25.660724856180813 43.3
      vertex 91.44436508138959 -25.444365081389595 43.3
      vertex 91.9 -26.349393659824564 43.3
    endloop
  endfacet
  facet normal 0 0 -1
    outer loop
      vertex 91.44436508138959 -25.444365081389595 43.3
      vertex 91.66072485618082 -25.254622651359284 43.3
      vertex 91.9 -26.349393659824564 43.3
    endloop
  endfacet
  facet normal 0 0 -1
    outer loop
      vertex 92.1580964487968 -24.967465028475168 43.3
      vertex 92.0513431476177 -26.248133804299705 43.3
      vertex 91.97863705329038 -26.294513698338417 43.3
    endloop
  endfacet
  facet normal 0 0 -1
    outer loop
      vertex 92.07065272217007 -26.125684079475914 43.3
      vertex 92.0513431476177 -26.248133804299705 43.3
      vertex 92.1580964487968 -24.967465028475168 43.3
    endloop
  endfacet
  facet normal 0 0 -1
    outer loop
      vertex 92.07065272217007 -26.125684079475914 43.3
      vertex 92.1580964487968 -24.967465028475168 43.3
      vertex 92.17020936857364 -26.019631556575998 43.3
    endloop
  endfacet
  facet normal 0 0 -1
    outer loop
      vertex 91.9 -25.094744111674235 43.3
      vertex 92.1580964487968 -24.967465028475168 43.3
      vertex 91.9 -26.49193047700651 43.3
    endloop
  endfacet
  facet normal 0 0 -1
    outer loop
      vertex 93 -25.8 43.3
      vertex 92.84336856933594 -25.810266166351422 43.3
      vertex 93 -24.8 43.3
    endloop
  endfacet
  facet normal 0 0 -1
    outer loop
      vertex 93.65738232495563 -25.772097524300673 43.3
      vertex 93.63316734916992 -25.851715903320105 43.3
      vertex 93.8419035512032 -24.967465028475168 43.3
    endloop
  endfacet
  facet normal 0 0 -1
    outer loop
      vertex 93.3693888682659 -25.680884537022486 43.3
      vertex 93.31476110701662 -25.82952045788075 43.3
      vertex 93.56940189922554 -24.87496318216405 43.3
    endloop
  endfacet
  facet normal 0 0 -1
    outer loop
      vertex 93.56940189922554 -24.87496318216405 43.3
      vertex 93.31476110701662 -25.82952045788075 43.3
      vertex 93.24969413417823 -25.57752539101877 43.3
    endloop
  endfacet
  facet normal 0 0 -1
    outer loop
      vertex 93.5828484050147 -25.52266093936821 43.3
      vertex 93.8419035512032 -24.967465028475168 43.3
      vertex 93.63316734916992 -25.851715903320105 43.3
    endloop
  endfacet
  facet normal 0 0 -1
    outer loop
      vertex 93.84455442757402 -25.63294183986763 43.3
      vertex 94.1 -25.094744111674235 43.3
      vertex 93.90466558315796 -25.925028594069584 43.3
    endloop
  endfacet
  facet normal 0 0 -1
    outer loop
      vertex 94.1 -25.094744111674235 43.3
      vertex 94.1 -25.609096773252798 43.3
      vertex 93.90466558315796 -25.925028594069584 43.3
    endloop
  endfacet
  facet normal 0 0 -1
    outer loop
      vertex 94.33927514381918 -25.254622651359284 43.3
      vertex 94.55563491861041 -25.444365081389595 43.3
      vertex 94.1 -26.10158913246652 43.3
    endloop
  endfacet
  facet normal 0 0 -1
    outer loop
      vertex 94.33927514381918 -25.254622651359284 43.3
      vertex 94.1 -26.10158913246652 43.3
      vertex 94.1 -25.094744111674235 43.3
    endloop
  endfacet
  facet normal 0 0 -1
    outer loop
      vertex 92.72508253099606 -25.066706781836473 43.3
      vertex 93 -24.8 43.3
      vertex 92.84336856933594 -25.810266166351422 43.3
    endloop
  endfacet
  facet normal 0 0 -1
    outer loop
      vertex 93 -24.8 43.3
      vertex 93.28715762288411 -24.818821304977618 43.3
      vertex 93.06872064194849 -25.640693057301224 43.3
    endloop
  endfacet
  facet normal 0 0 -1
    outer loop
      vertex 93.22737727368335 -25.27289813827953 43.3
      vertex 93.06872064194849 -25.640693057301224 43.3
      vertex 93.28715762288411 -24.818821304977618 43.3
    endloop
  endfacet
  facet normal 0 0 -1
    outer loop
      vertex 93.56940189922554 -24.87496318216405 43.3
      vertex 93.24969413417823 -25.57752539101877 43.3
      vertex 93.28715762288411 -24.818821304977618 43.3
    endloop
  endfacet
  facet normal 0 0 -1
    outer loop
      vertex 93.8419035512032 -24.967465028475168 43.3
      vertex 93.5828484050147 -25.52266093936821 43.3
      vertex 93.56940189922554 -24.87496318216405 43.3
    endloop
  endfacet
  facet normal 0 0 -1
    outer loop
      vertex 92.71284237711589 -24.818821304977618 43.3
      vertex 93 -24.8 43.3
      vertex 92.72508253099606 -25.066706781836473 43.3
    endloop
  endfacet
  facet normal 0 0 -1
    outer loop
      vertex 94.1 -25.094744111674235 43.3
      vertex 93.84455442757402 -25.63294183986763 43.3
      vertex 93.8419035512032 -24.967465028475168 43.3
    endloop
  endfacet
endsolid OpenSCAD_Model
