solid OpenSCAD_Model
  facet normal 0 0 1
    outer loop
      vertex 86.52499999999999 53 49.2
      vertex 87.4877774151436 53.195169712793735 49.2
      vertex 87.3 53.2 49.2
    endloop
  endfacet
  facet normal 0 0 1
    outer loop
      vertex 87.3 53.2 49.2
      vertex 87.4877774151436 53.195169712793735 49.2
      vertex 87.485 53.2 49.2
    endloop
  endfacet
  facet normal 0 0 1
    outer loop
      vertex 87.3 53.52173913043478 49.2
      vertex 86.48430125892554 55.134718192789244 49.2
      vertex 86.46497739452596 55.11140962357036 49.2
    endloop
  endfacet
  facet normal 0 0 1
    outer loop
      vertex 87.3 53.52173913043478 49.2
      vertex 86.64256550058921 55.10937163221528 49.2
      vertex 86.57085351154049 55.029492017380015 49.2
    endloop
  endfacet
  facet normal 0 0 1
    outer loop
      vertex 87.3 53.52173913043478 49.2
      vertex 86.83599768770853 54.99173780215208 49.2
      vertex 86.74171149717549 55.0393799570625 49.2
    endloop
  endfacet
  facet normal 0 0 1
    outer loop
      vertex 87.3 53.52173913043478 49.2
      vertex 86.9020096265549 55.056597657590466 49.2
      vertex 86.83599768770853 54.99173780215208 49.2
    endloop
  endfacet
  facet normal 0 0 1
    outer loop
      vertex 87.3 53.52173913043478 49.2
      vertex 86.57085351154049 55.029492017380015 49.2
      vertex 86.48430125892554 55.134718192789244 49.2
    endloop
  endfacet
  facet normal 0 0 1
    outer loop
      vertex 87.3 53.52173913043478 49.2
      vertex 86.74171149717549 55.0393799570625 49.2
      vertex 86.64256550058921 55.10937163221528 49.2
    endloop
  endfacet
  facet normal 0 0 1
    outer loop
      vertex 87.3 53.52173913043478 49.2
      vertex 86.46497739452596 55.11140962357036 49.2
      vertex 86.34032318788567 55.19074228193796 49.2
    endloop
  endfacet
  facet normal 0 0 1
    outer loop
      vertex 85.43958333333333 57 49.2
      vertex 85.54517382980454 56.752591190624955 49.2
      vertex 85.65730526082737 56.65894357414823 49.2
    endloop
  endfacet
  facet normal 0 0 1
    outer loop
      vertex 85.43958333333333 57 49.2
      vertex 85.65730526082737 56.65894357414823 49.2
      vertex 85.6801570580812 56.72626279804116 49.2
    endloop
  endfacet
  facet normal 0 0 1
    outer loop
      vertex 85.43958333333333 57 49.2
      vertex 85.6801570580812 56.72626279804116 49.2
      vertex 85.65270953609134 56.81033511833521 49.2
    endloop
  endfacet
  facet normal 0 0 1
    outer loop
      vertex 85.43958333333333 57 49.2
      vertex 85.65270953609134 56.81033511833521 49.2
      vertex 85.54417616412972 56.953927189734074 49.2
    endloop
  endfacet
  facet normal 0 0 1
    outer loop
      vertex 85.43958333333333 57 49.2
      vertex 85.54417616412972 56.953927189734074 49.2
      vertex 85.74457585692174 56.91884569688884 49.2
    endloop
  endfacet
  facet normal 0 0 1
    outer loop
      vertex 85.43958333333333 57 49.2
      vertex 85.74457585692174 56.91884569688884 49.2
      vertex 85.67484189690228 57 49.2
    endloop
  endfacet
  facet normal 0 0 1
    outer loop
      vertex 115.50666666666667 53.2 49.2
      vertex 116.375 53 49.2
      vertex 115.69999999999999 53.2 49.2
    endloop
  endfacet
  facet normal 0 0 1
    outer loop
      vertex 115.69999999999999 53.2 49.2
      vertex 116.375 53 49.2
      vertex 116.27190201729107 54.60922190201729 49.2
    endloop
  endfacet
  facet normal 0 0 1
    outer loop
      vertex 115.69999999999999 53.2 49.2
      vertex 116.27190201729107 54.60922190201729 49.2
      vertex 115.69999999999999 55.10655434628152 49.2
    endloop
  endfacet
  facet normal 0 0 1
    outer loop
      vertex 116.375 53 49.2
      vertex 116.31378752193555 54.712431837875954 49.2
      vertex 116.27190201729107 54.60922190201729 49.2
    endloop
  endfacet
  facet normal 0 0 1
    outer loop
      vertex 116.375 53 49.2
      vertex 116.3153488372093 54.71627906976744 49.2
      vertex 116.31378752193555 54.712431837875954 49.2
    endloop
  endfacet
  facet normal 0 0 1
    outer loop
      vertex 116.3153488372093 54.71627906976744 49.2
      vertex 116.08625609578635 55.1360501153617 49.2
      vertex 115.96013350498008 55.11096277224436 49.2
    endloop
  endfacet
  facet normal 0 0 1
    outer loop
      vertex 116.3153488372093 54.71627906976744 49.2
      vertex 115.96013350498008 55.11096277224436 49.2
      vertex 116.31378752193555 54.712431837875954 49.2
    endloop
  endfacet
  facet normal 0 0 1
    outer loop
      vertex 116.3153488372093 54.71627906976744 49.2
      vertex 116.44091904757795 54.951723214208656 49.2
      vertex 116.18627174795562 55.049592579099354 49.2
    endloop
  endfacet
  facet normal 0 0 1
    outer loop
      vertex 116.3153488372093 54.71627906976744 49.2
      vertex 116.18627174795562 55.049592579099354 49.2
      vertex 116.08625609578635 55.1360501153617 49.2
    endloop
  endfacet
  facet normal 0 0 1
    outer loop
      vertex 116.85579984372345 55.729624706981475 49.2
      vertex 116.85349957030634 55.728934843581236 49.2
      vertex 116.8395853724251 55.699222573297085 49.2
    endloop
  endfacet
  facet normal 0 0 1
    outer loop
      vertex 116.85579984372345 55.729624706981475 49.2
      vertex 116.85500118549879 55.73197981797052 49.2
      vertex 116.85349957030634 55.728934843581236 49.2
    endloop
  endfacet
  facet normal 0 0 1
    outer loop
      vertex 86.52499999999999 53 49.2
      vertex 87.6 53 49.2
      vertex 87.4877774151436 53.195169712793735 49.2
    endloop
  endfacet
  facet normal 0 0 1
    outer loop
      vertex 87.485 53.2 49.2
      vertex 87.4877774151436 53.195169712793735 49.2
      vertex 87.6 53.2 49.2
    endloop
  endfacet
  facet normal 0 0 1
    outer loop
      vertex 87.6 53 49.2
      vertex 87.6 53.2 49.2
      vertex 87.4877774151436 53.195169712793735 49.2
    endloop
  endfacet
  facet normal 0 0 1
    outer loop
      vertex 86.52499999999999 53 49.2
      vertex 85.83692878420426 55.24676315361872 49.2
      vertex 85.3 53 49.2
    endloop
  endfacet
  facet normal 0 0 1
    outer loop
      vertex 86.52499999999999 53 49.2
      vertex 87.3 53.52173913043478 49.2
      vertex 86.06392844821323 55.06305257225126 49.2
    endloop
  endfacet
  facet normal 0 0 1
    outer loop
      vertex 86.52499999999999 53 49.2
      vertex 86.06392844821323 55.06305257225126 49.2
      vertex 85.83692878420426 55.24676315361872 49.2
    endloop
  endfacet
  facet normal 0 0 1
    outer loop
      vertex 87.3 53.52173913043478 49.2
      vertex 86.34032318788567 55.19074228193796 49.2
      vertex 86.06392844821323 55.06305257225126 49.2
    endloop
  endfacet
  facet normal 0 0 1
    outer loop
      vertex 86.06392844821323 55.06305257225126 49.2
      vertex 86.01856690638476 55.26602160208587 49.2
      vertex 85.83692878420426 55.24676315361872 49.2
    endloop
  endfacet
  facet normal 0 0 1
    outer loop
      vertex 85.3 57 49.2
      vertex 85.61082409930489 56.459436349034966 49.2
      vertex 85.62972798174188 56.55447258376495 49.2
    endloop
  endfacet
  facet normal 0 0 1
    outer loop
      vertex 85.3 57 49.2
      vertex 85.32198668356682 56.928206747536905 49.2
      vertex 85.61082409930489 56.459436349034966 49.2
    endloop
  endfacet
  facet normal 0 0 1
    outer loop
      vertex 85.3 57 49.2
      vertex 85.54517382980454 56.752591190624955 49.2
      vertex 85.43958333333333 57 49.2
    endloop
  endfacet
  facet normal 0 0 1
    outer loop
      vertex 85.3 57 49.2
      vertex 85.62972798174188 56.55447258376495 49.2
      vertex 85.54517382980454 56.752591190624955 49.2
    endloop
  endfacet
  facet normal 0 0 1
    outer loop
      vertex 85.43958333333333 57 49.2
      vertex 85.67484189690228 57 49.2
      vertex 85.50737363447355 57.00261775716543 49.2
    endloop
  endfacet
  facet normal 0 0 1
    outer loop
      vertex 85.67484189690228 57 49.2
      vertex 85.66728639297197 57.00879287015891 49.2
      vertex 85.50737363447355 57.00261775716543 49.2
    endloop
  endfacet
  facet normal 0 0 1
    outer loop
      vertex 87.747836828807 57.03528827800477 49.2
      vertex 87.74990481706705 57.03293018933612 49.2
      vertex 87.76457967919633 57.03115879693311 49.2
    endloop
  endfacet
  facet normal 0 0 1
    outer loop
      vertex 88.02271054186176 57 49.2
      vertex 87.76457967919633 57.03115879693311 49.2
      vertex 87.77241262074939 57 49.2
    endloop
  endfacet
  facet normal 0 0 1
    outer loop
      vertex 88.02271054186176 57 49.2
      vertex 87.747836828807 57.03528827800477 49.2
      vertex 87.76457967919633 57.03115879693311 49.2
    endloop
  endfacet
  facet normal 0 0 1
    outer loop
      vertex 88.02271054186176 57 49.2
      vertex 87.68485416183265 57.15024832242981 49.2
      vertex 87.747836828807 57.03528827800477 49.2
    endloop
  endfacet
  facet normal 0 0 1
    outer loop
      vertex 85.3 57 49.2
      vertex 85.43958333333333 57 49.2
      vertex 84.54374999999999 58.16875 49.2
    endloop
  endfacet
  facet normal 0 0 1
    outer loop
      vertex 85.43958333333333 57 49.2
      vertex 85.50737363447355 57.00261775716543 49.2
      vertex 84.63096252887756 58.108965674682196 49.2
    endloop
  endfacet
  facet normal 0 0 1
    outer loop
      vertex 85.43958333333333 57 49.2
      vertex 84.63096252887756 58.108965674682196 49.2
      vertex 84.54374999999999 58.16875 49.2
    endloop
  endfacet
  facet normal 0 0 1
    outer loop
      vertex 86.08191741923804 57.2603302265658 49.2
      vertex 86.15723999585246 57.310659163212605 49.2
      vertex 84.37230686187497 58.568184980775015 49.2
    endloop
  endfacet
  facet normal 0 0 1
    outer loop
      vertex 86.22932102074195 57.35369001180678 49.2
      vertex 86.29784886915314 57.38748420680653 49.2
      vertex 84.37230686187497 58.568184980775015 49.2
    endloop
  endfacet
  facet normal 0 0 1
    outer loop
      vertex 86.35693023405216 57.41413774508429 49.2
      vertex 86.40818240175517 57.43153551168706 49.2
      vertex 84.61654804237115 58.46071886135669 49.2
    endloop
  endfacet
  facet normal 0 0 1
    outer loop
      vertex 86.15723999585246 57.310659163212605 49.2
      vertex 84.92689649115779 58.18401474452644 49.2
      vertex 84.37230686187497 58.568184980775015 49.2
    endloop
  endfacet
  facet normal 0 0 1
    outer loop
      vertex 86.29784886915314 57.38748420680653 49.2
      vertex 85.1938855409817 58.0781770992437 49.2
      vertex 84.37230686187497 58.568184980775015 49.2
    endloop
  endfacet
  facet normal 0 0 1
    outer loop
      vertex 86.35693023405216 57.41413774508429 49.2
      vertex 84.37230686187497 58.568184980775015 49.2
      vertex 85.1938855409817 58.0781770992437 49.2
    endloop
  endfacet
  facet normal 0 0 1
    outer loop
      vertex 86.22932102074195 57.35369001180678 49.2
      vertex 84.37230686187497 58.568184980775015 49.2
      vertex 84.92689649115779 58.18401474452644 49.2
    endloop
  endfacet
  facet normal 0 0 1
    outer loop
      vertex 86.35693023405216 57.41413774508429 49.2
      vertex 84.61654804237115 58.46071886135669 49.2
      vertex 84.37230686187497 58.568184980775015 49.2
    endloop
  endfacet
  facet normal 0 0 1
    outer loop
      vertex 84.63096252887756 58.108965674682196 49.2
      vertex 84.39337016574585 58.43480662983427 49.2
      vertex 84.54374999999999 58.16875 49.2
    endloop
  endfacet
  facet normal 0 0 1
    outer loop
      vertex 88.02271054186176 57 49.2
      vertex 110.53270679380518 58.25972377097825 49.2
      vertex 87.68485416183265 57.15024832242981 49.2
    endloop
  endfacet
  facet normal 0 0 1
    outer loop
      vertex 115.4 53 49.2
      vertex 116.375 53 49.2
      vertex 115.50666666666667 53.2 49.2
    endloop
  endfacet
  facet normal 0 0 1
    outer loop
      vertex 118.18315815239255 52.6409353862305 49.2
      vertex 118.3 52.51111111111112 49.2
      vertex 118.3 52.6282485332412 49.2
    endloop
  endfacet
  facet normal 0 0 1
    outer loop
      vertex 117 53 49.2
      vertex 116.31935944701671 54.70622529925837 49.2
      vertex 116.375 53 49.2
    endloop
  endfacet
  facet normal 0 0 1
    outer loop
      vertex 116.3153488372093 54.71627906976744 49.2
      vertex 118.18315815239255 52.6409353862305 49.2
      vertex 118.3 52.6282485332412 49.2
    endloop
  endfacet
  facet normal 0 0 1
    outer loop
      vertex 116.3153488372093 54.71627906976744 49.2
      vertex 116.31935944701671 54.70622529925837 49.2
      vertex 118.18315815239255 52.6409353862305 49.2
    endloop
  endfacet
  facet normal 0 0 1
    outer loop
      vertex 117.58796923355075 54.20966856522976 49.2
      vertex 118.3 52.6282485332412 49.2
      vertex 117.2189272478575 55.095781233276504 49.2
    endloop
  endfacet
  facet normal 0 0 1
    outer loop
      vertex 116.375 53 49.2
      vertex 116.31935944701671 54.70622529925837 49.2
      vertex 116.3153488372093 54.71627906976744 49.2
    endloop
  endfacet
  facet normal 0 0 1
    outer loop
      vertex 116.3153488372093 54.71627906976744 49.2
      vertex 118.3 52.6282485332412 49.2
      vertex 116.44091904757795 54.951723214208656 49.2
    endloop
  endfacet
  facet normal 0 0 1
    outer loop
      vertex 116.85579984372345 55.729624706981475 49.2
      vertex 118.3 52.6282485332412 49.2
      vertex 117.58796923355075 54.20966856522976 49.2
    endloop
  endfacet
  facet normal 0 0 1
    outer loop
      vertex 118.3 52.6282485332412 49.2
      vertex 116.8395853724251 55.699222573297085 49.2
      vertex 116.44091904757795 54.951723214208656 49.2
    endloop
  endfacet
  facet normal 0 0 1
    outer loop
      vertex 117.2189272478575 55.095781233276504 49.2
      vertex 118.3 52.63159537764261 49.2
      vertex 116.91170380488877 55.8468251935082 49.2
    endloop
  endfacet
  facet normal 0 0 1
    outer loop
      vertex 116.85579984372345 55.729624706981475 49.2
      vertex 116.8395853724251 55.699222573297085 49.2
      vertex 118.3 52.6282485332412 49.2
    endloop
  endfacet
  facet normal 0 0 1
    outer loop
      vertex 116.85579984372345 55.729624706981475 49.2
      vertex 117.58796923355075 54.20966856522976 49.2
      vertex 116.85500118549879 55.73197981797052 49.2
    endloop
  endfacet
  facet normal 0 0 1
    outer loop
      vertex 88.02271054186176 57 49.2
      vertex 112.77238099039143 57.03268455935139 49.2
      vertex 118.2976259192192 58.599917095591785 49.2
    endloop
  endfacet
  facet normal 0 0 1
    outer loop
      vertex 88.02271054186176 57 49.2
      vertex 118.2976259192192 58.599917095591785 49.2
      vertex 110.53270679380518 58.25972377097825 49.2
    endloop
  endfacet
  facet normal 0 0 1
    outer loop
      vertex 118.3 52.63159537764261 49.2
      vertex 118.3 58.594038152230716 49.2
      vertex 116.91170380488877 55.8468251935082 49.2
    endloop
  endfacet
  facet normal 0 0 1
    outer loop
      vertex 118.3 58.594038152230716 49.2
      vertex 116.91114603926576 55.848116952909194 49.2
      vertex 116.91170380488877 55.8468251935082 49.2
    endloop
  endfacet
  facet normal 0 0 1
    outer loop
      vertex 118.3 58.594038152230716 49.2
      vertex 116.87384889011118 56.82980081788764 49.2
      vertex 116.88099742385755 56.81530502543162 49.2
    endloop
  endfacet
  facet normal 0 0 1
    outer loop
      vertex 116.7820446634805 56.98558462934237 49.2
      vertex 116.83332184251711 56.90884290770295 49.2
      vertex 118.3 58.594038152230716 49.2
    endloop
  endfacet
  facet normal 0 0 1
    outer loop
      vertex 116.91114603926576 55.848116952909194 49.2
      vertex 118.3 58.594038152230716 49.2
      vertex 118.24537966128145 58.493659416367706 49.2
    endloop
  endfacet
  facet normal 0 0 1
    outer loop
      vertex 118.3 58.594038152230716 49.2
      vertex 117.6006064696158 57.786066666184624 49.2
      vertex 116.87384889011118 56.82980081788764 49.2
    endloop
  endfacet
  facet normal 0 0 1
    outer loop
      vertex 118.3 58.594038152230716 49.2
      vertex 116.83332184251711 56.90884290770295 49.2
      vertex 117.6006064696158 57.786066666184624 49.2
    endloop
  endfacet
  facet normal 0 0 1
    outer loop
      vertex 118.2976259192192 58.599917095591785 49.2
      vertex 112.77238099039143 57.03268455935139 49.2
      vertex 117.95943242724535 58.45766913354202 49.2
    endloop
  endfacet
  facet normal 0 0 1
    outer loop
      vertex 118.3 58.594038152230716 49.2
      vertex 118.00739764367309 58.212880557548395 49.2
      vertex 116.92020036584029 56.725209861122096 49.2
    endloop
  endfacet
  facet normal 0 0 1
    outer loop
      vertex 118.3 58.594038152230716 49.2
      vertex 116.88099742385755 56.81530502543162 49.2
      vertex 118.00739764367309 58.212880557548395 49.2
    endloop
  endfacet
  facet normal 0 0 1
    outer loop
      vertex 118.3 58.594038152230716 49.2
      vertex 116.92020036584029 56.725209861122096 49.2
      vertex 118.24537966128145 58.493659416367706 49.2
    endloop
  endfacet
  facet normal 0 0 1
    outer loop
      vertex 118.2976259192192 58.599917095591785 49.2
      vertex 118.04357259623922 58.40465630801214 49.2
      vertex 117.82473902969667 58.182295077858704 49.2
    endloop
  endfacet
  facet normal 0 0 1
    outer loop
      vertex 118.27733022187616 58.58007562476646 49.2
      vertex 118.2976259192192 58.599917095591785 49.2
      vertex 117.82473902969667 58.182295077858704 49.2
    endloop
  endfacet
  facet normal 0 0 -1
    outer loop
      vertex 87.3 53.2 49.2
      vertex 87.6 53 49.2
      vertex 86.52499999999999 53 49.2
    endloop
  endfacet
  facet normal 0 0 -1
    outer loop
      vertex 87.3 53.2 49.2
      vertex 87.485 53.2 49.2
      vertex 87.6 53 49.2
    endloop
  endfacet
  facet normal 0 0 -1
    outer loop
      vertex 87.6 53.2 49.2
      vertex 87.6 53 49.2
      vertex 87.485 53.2 49.2
    endloop
  endfacet
  facet normal 0 0 -1
    outer loop
      vertex 86.52499999999999 53 49.2
      vertex 85.3 53 49.2
      vertex 86.9020096265549 55.056597657590466 49.2
    endloop
  endfacet
  facet normal 0 0 -1
    outer loop
      vertex 86.52499999999999 53 49.2
      vertex 86.9020096265549 55.056597657590466 49.2
      vertex 87.3 53.52173913043478 49.2
    endloop
  endfacet
  facet normal 0 0 -1
    outer loop
      vertex 86.57085351154049 55.029492017380015 49.2
      vertex 85.3 53 49.2
      vertex 86.48430125892554 55.134718192789244 49.2
    endloop
  endfacet
  facet normal 0 0 -1
    outer loop
      vertex 86.57085351154049 55.029492017380015 49.2
      vertex 86.64256550058921 55.10937163221528 49.2
      vertex 85.3 53 49.2
    endloop
  endfacet
  facet normal 0 0 -1
    outer loop
      vertex 86.83599768770853 54.99173780215208 49.2
      vertex 85.3 53 49.2
      vertex 86.74171149717549 55.0393799570625 49.2
    endloop
  endfacet
  facet normal 0 0 -1
    outer loop
      vertex 86.83599768770853 54.99173780215208 49.2
      vertex 86.9020096265549 55.056597657590466 49.2
      vertex 85.3 53 49.2
    endloop
  endfacet
  facet normal 0 0 -1
    outer loop
      vertex 85.3 53 49.2
      vertex 86.64256550058921 55.10937163221528 49.2
      vertex 86.74171149717549 55.0393799570625 49.2
    endloop
  endfacet
  facet normal 0 0 -1
    outer loop
      vertex 86.06392844821323 55.06305257225126 49.2
      vertex 85.3 53 49.2
      vertex 86.01856690638476 55.26602160208587 49.2
    endloop
  endfacet
  facet normal 0 0 -1
    outer loop
      vertex 85.3 53 49.2
      vertex 86.06392844821323 55.06305257225126 49.2
      vertex 86.34032318788567 55.19074228193796 49.2
    endloop
  endfacet
  facet normal 0 0 -1
    outer loop
      vertex 86.01856690638476 55.26602160208587 49.2
      vertex 85.3 53 49.2
      vertex 85.83692878420426 55.24676315361872 49.2
    endloop
  endfacet
  facet normal 0 0 -1
    outer loop
      vertex 86.46497739452596 55.11140962357036 49.2
      vertex 86.48430125892554 55.134718192789244 49.2
      vertex 85.3 53 49.2
    endloop
  endfacet
  facet normal 0 0 -1
    outer loop
      vertex 86.46497739452596 55.11140962357036 49.2
      vertex 85.3 53 49.2
      vertex 86.34032318788567 55.19074228193796 49.2
    endloop
  endfacet
  facet normal 0 0 -1
    outer loop
      vertex 85.61082409930489 56.459436349034966 49.2
      vertex 85.54517382980454 56.752591190624955 49.2
      vertex 85.62972798174188 56.55447258376495 49.2
    endloop
  endfacet
  facet normal 0 0 -1
    outer loop
      vertex 85.3 57 49.2
      vertex 85.54517382980454 56.752591190624955 49.2
      vertex 85.32198668356682 56.928206747536905 49.2
    endloop
  endfacet
  facet normal 0 0 -1
    outer loop
      vertex 85.61082409930489 56.459436349034966 49.2
      vertex 85.32198668356682 56.928206747536905 49.2
      vertex 85.54517382980454 56.752591190624955 49.2
    endloop
  endfacet
  facet normal 0 0 -1
    outer loop
      vertex 85.65730526082737 56.65894357414823 49.2
      vertex 85.54517382980454 56.752591190624955 49.2
      vertex 85.6801570580812 56.72626279804116 49.2
    endloop
  endfacet
  facet normal 0 0 -1
    outer loop
      vertex 85.6801570580812 56.72626279804116 49.2
      vertex 85.54517382980454 56.752591190624955 49.2
      vertex 85.65270953609134 56.81033511833521 49.2
    endloop
  endfacet
  facet normal 0 0 -1
    outer loop
      vertex 85.54517382980454 56.752591190624955 49.2
      vertex 85.54417616412972 56.953927189734074 49.2
      vertex 85.65270953609134 56.81033511833521 49.2
    endloop
  endfacet
  facet normal 0 0 -1
    outer loop
      vertex 85.54417616412972 56.953927189734074 49.2
      vertex 85.54517382980454 56.752591190624955 49.2
      vertex 85.50737363447355 57.00261775716543 49.2
    endloop
  endfacet
  facet normal 0 0 -1
    outer loop
      vertex 85.54417616412972 56.953927189734074 49.2
      vertex 85.67484189690228 57 49.2
      vertex 85.74457585692174 56.91884569688884 49.2
    endloop
  endfacet
  facet normal 0 0 -1
    outer loop
      vertex 85.54417616412972 56.953927189734074 49.2
      vertex 85.50737363447355 57.00261775716543 49.2
      vertex 85.66728639297197 57.00879287015891 49.2
    endloop
  endfacet
  facet normal 0 0 -1
    outer loop
      vertex 85.67484189690228 57 49.2
      vertex 85.54417616412972 56.953927189734074 49.2
      vertex 85.66728639297197 57.00879287015891 49.2
    endloop
  endfacet
  facet normal 0 0 -1
    outer loop
      vertex 85.3 57 49.2
      vertex 84.63096252887756 58.108965674682196 49.2
      vertex 85.54517382980454 56.752591190624955 49.2
    endloop
  endfacet
  facet normal 0 0 -1
    outer loop
      vertex 85.54517382980454 56.752591190624955 49.2
      vertex 84.63096252887756 58.108965674682196 49.2
      vertex 85.50737363447355 57.00261775716543 49.2
    endloop
  endfacet
  facet normal 0 0 -1
    outer loop
      vertex 86.08191741923804 57.2603302265658 49.2
      vertex 84.92689649115779 58.18401474452644 49.2
      vertex 86.15723999585246 57.310659163212605 49.2
    endloop
  endfacet
  facet normal 0 0 -1
    outer loop
      vertex 86.22932102074195 57.35369001180678 49.2
      vertex 85.1938855409817 58.0781770992437 49.2
      vertex 86.29784886915314 57.38748420680653 49.2
    endloop
  endfacet
  facet normal 0 0 -1
    outer loop
      vertex 86.35693023405216 57.41413774508429 49.2
      vertex 85.1938855409817 58.0781770992437 49.2
      vertex 86.40818240175517 57.43153551168706 49.2
    endloop
  endfacet
  facet normal 0 0 -1
    outer loop
      vertex 84.54374999999999 58.16875 49.2
      vertex 84.39337016574585 58.43480662983427 49.2
      vertex 85.3 57 49.2
    endloop
  endfacet
  facet normal 0 0 -1
    outer loop
      vertex 85.3 57 49.2
      vertex 84.39337016574585 58.43480662983427 49.2
      vertex 84.63096252887756 58.108965674682196 49.2
    endloop
  endfacet
  facet normal 0 0 -1
    outer loop
      vertex 86.08191741923804 57.2603302265658 49.2
      vertex 84.37230686187497 58.568184980775015 49.2
      vertex 84.92689649115779 58.18401474452644 49.2
    endloop
  endfacet
  facet normal 0 0 -1
    outer loop
      vertex 84.37230686187497 58.568184980775015 49.2
      vertex 86.40818240175517 57.43153551168706 49.2
      vertex 85.1938855409817 58.0781770992437 49.2
    endloop
  endfacet
  facet normal 0 0 -1
    outer loop
      vertex 84.37230686187497 58.568184980775015 49.2
      vertex 84.61654804237115 58.46071886135669 49.2
      vertex 86.40818240175517 57.43153551168706 49.2
    endloop
  endfacet
  facet normal 0 0 -1
    outer loop
      vertex 86.22932102074195 57.35369001180678 49.2
      vertex 84.92689649115779 58.18401474452644 49.2
      vertex 85.1938855409817 58.0781770992437 49.2
    endloop
  endfacet
  facet normal 0 0 -1
    outer loop
      vertex 84.92689649115779 58.18401474452644 49.2
      vertex 84.37230686187497 58.568184980775015 49.2
      vertex 85.1938855409817 58.0781770992437 49.2
    endloop
  endfacet
  facet normal 0 0 -1
    outer loop
      vertex 87.77241262074939 57 49.2
      vertex 87.76457967919633 57.03115879693311 49.2
      vertex 118.2976259192192 58.599917095591785 49.2
    endloop
  endfacet
  facet normal 0 0 -1
    outer loop
      vertex 88.02271054186176 57 49.2
      vertex 87.77241262074939 57 49.2
      vertex 118.2976259192192 58.599917095591785 49.2
    endloop
  endfacet
  facet normal 0 0 -1
    outer loop
      vertex 87.74990481706705 57.03293018933612 49.2
      vertex 87.747836828807 57.03528827800477 49.2
      vertex 118.2976259192192 58.599917095591785 49.2
    endloop
  endfacet
  facet normal 0 0 -1
    outer loop
      vertex 87.74990481706705 57.03293018933612 49.2
      vertex 118.2976259192192 58.599917095591785 49.2
      vertex 87.76457967919633 57.03115879693311 49.2
    endloop
  endfacet
  facet normal 0 0 -1
    outer loop
      vertex 87.747836828807 57.03528827800477 49.2
      vertex 87.68485416183265 57.15024832242981 49.2
      vertex 118.2976259192192 58.599917095591785 49.2
    endloop
  endfacet
  facet normal 0 0 -1
    outer loop
      vertex 115.4 53 49.2
      vertex 115.69999999999999 53.2 49.2
      vertex 116.375 53 49.2
    endloop
  endfacet
  facet normal 0 0 -1
    outer loop
      vertex 115.4 53 49.2
      vertex 115.50666666666667 53.2 49.2
      vertex 115.69999999999999 53.2 49.2
    endloop
  endfacet
  facet normal 0 0 -1
    outer loop
      vertex 116.375 53 49.2
      vertex 115.69999999999999 53.2 49.2
      vertex 117 53 49.2
    endloop
  endfacet
  facet normal 0 0 -1
    outer loop
      vertex 115.69999999999999 53.2 49.2
      vertex 115.69999999999999 55.10655434628152 49.2
      vertex 117 53 49.2
    endloop
  endfacet
  facet normal 0 0 -1
    outer loop
      vertex 118.18315815239255 52.6409353862305 49.2
      vertex 116.44091904757795 54.951723214208656 49.2
      vertex 118.3 52.51111111111112 49.2
    endloop
  endfacet
  facet normal 0 0 -1
    outer loop
      vertex 118.3 52.6282485332412 49.2
      vertex 118.3 52.51111111111112 49.2
      vertex 117.2189272478575 55.095781233276504 49.2
    endloop
  endfacet
  facet normal 0 0 -1
    outer loop
      vertex 117.58796923355075 54.20966856522976 49.2
      vertex 117.2189272478575 55.095781233276504 49.2
      vertex 118.3 52.51111111111112 49.2
    endloop
  endfacet
  facet normal 0 0 -1
    outer loop
      vertex 116.27190201729107 54.60922190201729 49.2
      vertex 116.31935944701671 54.70622529925837 49.2
      vertex 117 53 49.2
    endloop
  endfacet
  facet normal 0 0 -1
    outer loop
      vertex 116.31935944701671 54.70622529925837 49.2
      vertex 116.18627174795562 55.049592579099354 49.2
      vertex 118.18315815239255 52.6409353862305 49.2
    endloop
  endfacet
  facet normal 0 0 -1
    outer loop
      vertex 116.18627174795562 55.049592579099354 49.2
      vertex 116.44091904757795 54.951723214208656 49.2
      vertex 118.18315815239255 52.6409353862305 49.2
    endloop
  endfacet
  facet normal 0 0 -1
    outer loop
      vertex 115.69999999999999 55.10655434628152 49.2
      vertex 116.27190201729107 54.60922190201729 49.2
      vertex 117 53 49.2
    endloop
  endfacet
  facet normal 0 0 -1
    outer loop
      vertex 116.44091904757795 54.951723214208656 49.2
      vertex 116.8395853724251 55.699222573297085 49.2
      vertex 118.3 52.51111111111112 49.2
    endloop
  endfacet
  facet normal 0 0 -1
    outer loop
      vertex 117.58796923355075 54.20966856522976 49.2
      vertex 118.3 52.51111111111112 49.2
      vertex 116.8395853724251 55.699222573297085 49.2
    endloop
  endfacet
  facet normal 0 0 -1
    outer loop
      vertex 116.27190201729107 54.60922190201729 49.2
      vertex 116.31378752193555 54.712431837875954 49.2
      vertex 116.31935944701671 54.70622529925837 49.2
    endloop
  endfacet
  facet normal 0 0 -1
    outer loop
      vertex 115.96013350498008 55.11096277224436 49.2
      vertex 116.18627174795562 55.049592579099354 49.2
      vertex 116.31378752193555 54.712431837875954 49.2
    endloop
  endfacet
  facet normal 0 0 -1
    outer loop
      vertex 115.96013350498008 55.11096277224436 49.2
      vertex 116.08625609578635 55.1360501153617 49.2
      vertex 116.18627174795562 55.049592579099354 49.2
    endloop
  endfacet
  facet normal 0 0 -1
    outer loop
      vertex 116.31378752193555 54.712431837875954 49.2
      vertex 116.18627174795562 55.049592579099354 49.2
      vertex 116.31935944701671 54.70622529925837 49.2
    endloop
  endfacet
  facet normal 0 0 -1
    outer loop
      vertex 117.58796923355075 54.20966856522976 49.2
      vertex 116.8395853724251 55.699222573297085 49.2
      vertex 116.85349957030634 55.728934843581236 49.2
    endloop
  endfacet
  facet normal 0 0 -1
    outer loop
      vertex 117.58796923355075 54.20966856522976 49.2
      vertex 116.85349957030634 55.728934843581236 49.2
      vertex 116.85500118549879 55.73197981797052 49.2
    endloop
  endfacet
  facet normal 0 0 -1
    outer loop
      vertex 118.3 52.63159537764261 49.2
      vertex 117.2189272478575 55.095781233276504 49.2
      vertex 118.3 58.594038152230716 49.2
    endloop
  endfacet
  facet normal 0 0 -1
    outer loop
      vertex 87.68485416183265 57.15024832242981 49.2
      vertex 110.53270679380518 58.25972377097825 49.2
      vertex 118.2976259192192 58.599917095591785 49.2
    endloop
  endfacet
  facet normal 0 0 -1
    outer loop
      vertex 88.02271054186176 57 49.2
      vertex 117.95943242724535 58.45766913354202 49.2
      vertex 112.77238099039143 57.03268455935139 49.2
    endloop
  endfacet
  facet normal 0 0 -1
    outer loop
      vertex 88.02271054186176 57 49.2
      vertex 118.2976259192192 58.599917095591785 49.2
      vertex 117.95943242724535 58.45766913354202 49.2
    endloop
  endfacet
  facet normal 0 0 -1
    outer loop
      vertex 118.3 58.594038152230716 49.2
      vertex 117.2189272478575 55.095781233276504 49.2
      vertex 116.91170380488877 55.8468251935082 49.2
    endloop
  endfacet
  facet normal 0 0 -1
    outer loop
      vertex 116.91114603926576 55.848116952909194 49.2
      vertex 118.24537966128145 58.493659416367706 49.2
      vertex 116.91170380488877 55.8468251935082 49.2
    endloop
  endfacet
  facet normal 0 0 -1
    outer loop
      vertex 116.88099742385755 56.81530502543162 49.2
      vertex 116.87384889011118 56.82980081788764 49.2
      vertex 117.6006064696158 57.786066666184624 49.2
    endloop
  endfacet
  facet normal 0 0 -1
    outer loop
      vertex 116.7820446634805 56.98558462934237 49.2
      vertex 117.6006064696158 57.786066666184624 49.2
      vertex 116.83332184251711 56.90884290770295 49.2
    endloop
  endfacet
  facet normal 0 0 -1
    outer loop
      vertex 116.88099742385755 56.81530502543162 49.2
      vertex 117.6006064696158 57.786066666184624 49.2
      vertex 118.00739764367309 58.212880557548395 49.2
    endloop
  endfacet
  facet normal 0 0 -1
    outer loop
      vertex 116.91170380488877 55.8468251935082 49.2
      vertex 118.24537966128145 58.493659416367706 49.2
      vertex 118.3 58.594038152230716 49.2
    endloop
  endfacet
  facet normal 0 0 -1
    outer loop
      vertex 118.00739764367309 58.212880557548395 49.2
      vertex 117.6006064696158 57.786066666184624 49.2
      vertex 116.7820446634805 56.98558462934237 49.2
    endloop
  endfacet
  facet normal 0 0 -1
    outer loop
      vertex 116.92020036584029 56.725209861122096 49.2
      vertex 118.00739764367309 58.212880557548395 49.2
      vertex 118.24537966128145 58.493659416367706 49.2
    endloop
  endfacet
  facet normal 0 0 -1
    outer loop
      vertex 118.24537966128145 58.493659416367706 49.2
      vertex 118.00739764367309 58.212880557548395 49.2
      vertex 116.7820446634805 56.98558462934237 49.2
    endloop
  endfacet
  facet normal 0 0 -1
    outer loop
      vertex 118.24537966128145 58.493659416367706 49.2
      vertex 116.7820446634805 56.98558462934237 49.2
      vertex 118.3 58.594038152230716 49.2
    endloop
  endfacet
  facet normal 0 0 -1
    outer loop
      vertex 118.27733022187616 58.58007562476646 49.2
      vertex 117.82473902969667 58.182295077858704 49.2
      vertex 118.04357259623922 58.40465630801214 49.2
    endloop
  endfacet
  facet normal 0 0 -1
    outer loop
      vertex 118.27733022187616 58.58007562476646 49.2
      vertex 118.04357259623922 58.40465630801214 49.2
      vertex 118.2976259192192 58.599917095591785 49.2
    endloop
  endfacet
endsolid OpenSCAD_Model
