solid OpenSCAD_Model
  facet normal 0 0 -1
    outer loop
      vertex -99.14285714285714 43 51.3
      vertex -98.65140215072438 43.17564966263343 51.3
      vertex -99.10724310733181 43 51.3
    endloop
  endfacet
  facet normal 0 0 -1
    outer loop
      vertex -99.14285714285714 43 51.3
      vertex -95.11155755086027 44.54932922697488 51.3
      vertex -98.65140215072438 43.17564966263343 51.3
    endloop
  endfacet
  facet normal 0 0 -1
    outer loop
      vertex -99.14285714285714 43 51.3
      vertex -95.14462101782583 44.64673105977638 51.3
      vertex -95.11155755086027 44.54932922697488 51.3
    endloop
  endfacet
  facet normal 0 0 -1
    outer loop
      vertex -85 43 51.3
      vertex -88.6876121795118 43 51.3
      vertex -92.39284867019282 44.5071689932311 51.3
    endloop
  endfacet
  facet normal 0 0 -1
    outer loop
      vertex -85 43 51.3
      vertex -92.39284867019282 44.5071689932311 51.3
      vertex -92.81671270083112 44.701166556332986 51.3
    endloop
  endfacet
  facet normal 0 0 -1
    outer loop
      vertex -85 43 51.3
      vertex -92.81671270083112 44.701166556332986 51.3
      vertex -85 48.5 51.3
    endloop
  endfacet
  facet normal 0 0 1
    outer loop
      vertex -95.14462101782583 44.64673105977638 51.3
      vertex -99.14285714285714 43 51.3
      vertex -99.10724310733181 43 51.3
    endloop
  endfacet
  facet normal 0 0 1
    outer loop
      vertex -99.10724310733181 43 51.3
      vertex -98.65140215072438 43.17564966263343 51.3
      vertex -95.14462101782583 44.64673105977638 51.3
    endloop
  endfacet
  facet normal 0 0 1
    outer loop
      vertex -98.65140215072438 43.17564966263343 51.3
      vertex -95.11155755086027 44.54932922697488 51.3
      vertex -95.14462101782583 44.64673105977638 51.3
    endloop
  endfacet
  facet normal 0 0 1
    outer loop
      vertex -92.39284867019282 44.5071689932311 51.3
      vertex -88.6876121795118 43 51.3
      vertex -85 48.5 51.3
    endloop
  endfacet
  facet normal 0 0 1
    outer loop
      vertex -85 43 51.3
      vertex -85 48.5 51.3
      vertex -88.6876121795118 43 51.3
    endloop
  endfacet
  facet normal 0 0 1
    outer loop
      vertex -92.39284867019282 44.5071689932311 51.3
      vertex -85 48.5 51.3
      vertex -92.81671270083112 44.701166556332986 51.3
    endloop
  endfacet
endsolid OpenSCAD_Model
