solid OpenSCAD_Model
  facet normal 0 0 1
    outer loop
      vertex 95.5 37 14.8
      vertex 97.51687436110636 37.407124934202756 14.8
      vertex 96.43291848540548 37.82355739875533 14.8
    endloop
  endfacet
  facet normal 0 0 1
    outer loop
      vertex 95.5 37 14.8
      vertex 96.24088780134156 37.89130198254783 14.8
      vertex 96.13885680494445 37.887165843381936 14.8
    endloop
  endfacet
  facet normal 0 0 1
    outer loop
      vertex 95.5 37 14.8
      vertex 96.38057972922425 37.84388890717324 14.8
      vertex 96.24088780134156 37.89130198254783 14.8
    endloop
  endfacet
  facet normal 0 0 1
    outer loop
      vertex 95.5 37 14.8
      vertex 96.43291848540548 37.82355739875533 14.8
      vertex 96.38057972922425 37.84388890717324 14.8
    endloop
  endfacet
  facet normal 0 0 1
    outer loop
      vertex 96.38057972922425 37.84388890717324 14.8
      vertex 96.24089165520068 37.89130661881296 14.8
      vertex 96.24088780134156 37.89130198254783 14.8
    endloop
  endfacet
  facet normal 0 0 1
    outer loop
      vertex 95.5 37 14.8
      vertex 97.9 37 14.8
      vertex 97.51687436110636 37.407124934202756 14.8
    endloop
  endfacet
  facet normal 0 0 1
    outer loop
      vertex 97.9 37 14.8
      vertex 97.34897427028208 37.765196836672736 14.8
      vertex 97.15910834479932 37.89130661881296 14.8
    endloop
  endfacet
  facet normal 0 0 1
    outer loop
      vertex 97.9 37 14.8
      vertex 97.15910834479932 37.89130661881296 14.8
      vertex 97.08493012162 37.86612650503982 14.8
    endloop
  endfacet
  facet normal 0 0 -1
    outer loop
      vertex 97.9 37 14.8
      vertex 95.5 37 14.8
      vertex 96.13885680494445 37.887165843381936 14.8
    endloop
  endfacet
  facet normal 0 0 -1
    outer loop
      vertex 96.43291848540548 37.82355739875533 14.8
      vertex 97.51687436110636 37.407124934202756 14.8
      vertex 97.9 37 14.8
    endloop
  endfacet
  facet normal 0 0 -1
    outer loop
      vertex 96.38057972922425 37.84388890717324 14.8
      vertex 96.43291848540548 37.82355739875533 14.8
      vertex 97.9 37 14.8
    endloop
  endfacet
  facet normal 0 0 -1
    outer loop
      vertex 97.9 37 14.8
      vertex 96.13885680494445 37.887165843381936 14.8
      vertex 96.24088780134156 37.89130198254783 14.8
    endloop
  endfacet
  facet normal 0 0 -1
    outer loop
      vertex 96.24089165520068 37.89130661881296 14.8
      vertex 96.38057972922425 37.84388890717324 14.8
      vertex 97.9 37 14.8
    endloop
  endfacet
  facet normal 0 0 -1
    outer loop
      vertex 96.24089165520068 37.89130661881296 14.8
      vertex 97.9 37 14.8
      vertex 96.24088780134156 37.89130198254783 14.8
    endloop
  endfacet
  facet normal 0 0 -1
    outer loop
      vertex 97.15910834479932 37.89130661881296 14.8
      vertex 97.34897427028208 37.765196836672736 14.8
      vertex 97.08493012162 37.86612650503982 14.8
    endloop
  endfacet
  facet normal 0 0 -1
    outer loop
      vertex 97.08493012162 37.86612650503982 14.8
      vertex 97.34897427028208 37.765196836672736 14.8
      vertex 97.9 37 14.8
    endloop
  endfacet
endsolid OpenSCAD_Model
