solid OpenSCAD_Model
  facet normal 0 0 -1
    outer loop
      vertex 77.5 50.5 8.3
      vertex 95.3 50.5 8.3
      vertex 77.5 28 8.3
    endloop
  endfacet
  facet normal 0 0 -1
    outer loop
      vertex 95.3 28 8.3
      vertex 77.5 28 8.3
      vertex 95.3 50.5 8.3
    endloop
  endfacet
  facet normal 0 0 1
    outer loop
      vertex 77.5 28 8.3
      vertex 95.3 28 8.3
      vertex 77.5 50.5 8.3
    endloop
  endfacet
  facet normal 0 0 1
    outer loop
      vertex 95.3 50.5 8.3
      vertex 77.5 50.5 8.3
      vertex 95.3 28 8.3
    endloop
  endfacet
endsolid OpenSCAD_Model
