solid OpenSCAD_Model
  facet normal -1 0 0
    outer loop
      vertex 111 22.898591688967606 36.4
      vertex 111 22.791887669277482 35.30242482382485
      vertex 111 22.5246085440033 35.70243630295039
    endloop
  endfacet
  facet normal -1 0 0
    outer loop
      vertex 111 22.898591688967606 36.4
      vertex 111 22.834300685174135 35.54625764520667
      vertex 111 22.791887669277482 35.30242482382485
    endloop
  endfacet
  facet normal -1 0 0
    outer loop
      vertex 111 22.42418783340745 37.36199585460626
      vertex 111 22.898591688967606 36.4
      vertex 111 22.5246085440033 35.70243630295039
    endloop
  endfacet
  facet normal -1 0 0
    outer loop
      vertex 111 22.898591688967606 44.6
      vertex 111 22.292373906318495 44.95
      vertex 111 22.939155271408005 45.91797671817761
    endloop
  endfacet
  facet normal -1 0 0
    outer loop
      vertex 111 22.898591688967606 44.6
      vertex 111 22.939155271408005 45.91797671817761
      vertex 111 23.162287525253433 46.172410289956694
    endloop
  endfacet
  facet normal -1 0 0
    outer loop
      vertex 111 22.898591688967606 44.6
      vertex 111 23.162287525253433 46.172410289956694
      vertex 111 23.49450260961187 45.49184371787151
    endloop
  endfacet
  facet normal -1 0 0
    outer loop
      vertex 111 25.9 47.601408311032394
      vertex 111 25.77118982120175 48.18540353950014
      vertex 111 25.924902944398518 48.3925077659173
    endloop
  endfacet
  facet normal -1 0 0
    outer loop
      vertex 111 25.9 47.601408311032394
      vertex 111 25.924902944398518 48.3925077659173
      vertex 111 26.861995854606263 48.07581216659255
    endloop
  endfacet
  facet normal -1 0 0
    outer loop
      vertex 111 26.861995854606263 48.07581216659255
      vertex 111 26.5941174519507 48.72252783935045
      vertex 111 26.989944950376735 48.8568931694664
    endloop
  endfacet
  facet normal -1 0 0
    outer loop
      vertex 111 26.861995854606263 48.07581216659255
      vertex 111 26.989944950376735 48.8568931694664
      vertex 111 27.87768383015933 48.42059177557036
    endloop
  endfacet
  facet normal -1 0 0
    outer loop
      vertex 111 38.33021007305797 37.41133908313036
      vertex 111 38.59673985397271 42.803489501412436
      vertex 111 38.59673985397271 38.196510498587564
    endloop
  endfacet
  facet normal -1 0 0
    outer loop
      vertex 111 38.33021007305797 37.41133908313036
      vertex 111 38.22252783935045 39.39411139084314
      vertex 111 38.59673985397271 42.803489501412436
    endloop
  endfacet
  facet normal -1 0 0
    outer loop
      vertex 111 38.2 40.5
      vertex 111 38.59673985397271 42.803489501412436
      vertex 111 38.22252783935045 39.39411139084314
    endloop
  endfacet
  facet normal -1 0 0
    outer loop
      vertex 111 38.2 40.5
      vertex 111 38.12984786326524 41.57031477620442
      vertex 111 38.59673985397271 42.803489501412436
    endloop
  endfacet
  facet normal -1 0 0
    outer loop
      vertex 111 31.16168311075846 49.32385926622691
      vertex 111 30 48.7
      vertex 111 30 49.4
    endloop
  endfacet
  facet normal -1 0 0
    outer loop
      vertex 111 31.16168311075846 49.32385926622691
      vertex 111 31.070314776204423 48.62984786326524
      vertex 111 30 48.7
    endloop
  endfacet
  facet normal -1 0 0
    outer loop
      vertex 111 38.59673985397271 42.803489501412436
      vertex 111 38.12984786326524 41.57031477620442
      vertex 111 38.22252783935045 43.9058825480493
    endloop
  endfacet
  facet normal -1 0 0
    outer loop
      vertex 111 37.101408311032394 44.6
      vertex 111 37.20811233072252 45.69757517617514
      vertex 111 37.28231573344133 44.937433523672134
    endloop
  endfacet
  facet normal -1 0 0
    outer loop
      vertex 111 36.50549739038813 45.49184371787151
      vertex 111 37.20811233072252 45.69757517617514
      vertex 111 37.101408311032394 44.6
    endloop
  endfacet
  facet normal -1 0 0
    outer loop
      vertex 111 37.060844728591995 45.91797671817761
      vertex 111 36.50549739038813 45.49184371787151
      vertex 111 35.79827560572969 46.29827560572969
    endloop
  endfacet
  facet normal -1 0 0
    outer loop
      vertex 111 37.060844728591995 45.91797671817761
      vertex 111 35.79827560572969 46.29827560572969
      vertex 111 36.29325035256027 46.79325035256027
    endloop
  endfacet
  facet normal -1 0 0
    outer loop
      vertex 111 36.50549739038813 45.49184371787151
      vertex 111 37.060844728591995 45.91797671817761
      vertex 111 37.20811233072252 45.69757517617514
    endloop
  endfacet
  facet normal 1 0 0
    outer loop
      vertex 114 21.403260146027293 38.196510498587564
      vertex 114 21.77747216064955 40.33272836120636
      vertex 114 21.403260146027293 42.803489501412436
    endloop
  endfacet
  facet normal 1 0 0
    outer loop
      vertex 114 21.403260146027293 38.196510498587564
      vertex 114 21.315532394393905 42.3624523110705
      vertex 114 21.315532394393905 41.46502266024651
    endloop
  endfacet
  facet normal 1 0 0
    outer loop
      vertex 114 21.403260146027293 38.196510498587564
      vertex 114 21.403260146027293 42.803489501412436
      vertex 114 21.315532394393905 42.3624523110705
    endloop
  endfacet
  facet normal 1 0 0
    outer loop
      vertex 114 21.8 40.5
      vertex 114 21.403260146027293 42.803489501412436
      vertex 114 21.77747216064955 40.33272836120636
    endloop
  endfacet
  facet normal 1 0 0
    outer loop
      vertex 114 21.8 40.5
      vertex 114 21.870152136734756 41.57031477620442
      vertex 114 21.77747216064955 43.9058825480493
    endloop
  endfacet
  facet normal 1 0 0
    outer loop
      vertex 114 21.8 40.5
      vertex 114 21.77747216064955 43.9058825480493
      vertex 114 21.403260146027293 42.803489501412436
    endloop
  endfacet
  facet normal 1 0 0
    outer loop
      vertex 114 23.49450260961187 45.49184371787151
      vertex 114 24.16623764379022 46.25781072214663
      vertex 114 23.412073903832045 46.4572370659527
    endloop
  endfacet
  facet normal 1 0 0
    outer loop
      vertex 114 24.16623764379022 46.25781072214663
      vertex 114 23.691963501406356 46.776389984400666
      vertex 114 23.412073903832045 46.4572370659527
    endloop
  endfacet
  facet normal 1 0 0
    outer loop
      vertex 114 24.16623764379022 46.25781072214663
      vertex 114 24.173748969698973 46.32625103030102
      vertex 114 23.691963501406356 46.776389984400666
    endloop
  endfacet
  facet normal 1 0 0
    outer loop
      vertex 114 23.691963501406356 46.776389984400666
      vertex 114 24.173748969698973 46.32625103030102
      vertex 114 23.702948330562883 46.777006290132746
    endloop
  endfacet
  facet normal 1 0 0
    outer loop
      vertex 114 24.173748969698973 46.32625103030102
      vertex 114 23.7070092323368 46.77829505058039
      vertex 114 23.702948330562883 46.777006290132746
    endloop
  endfacet
  facet normal 1 0 0
    outer loop
      vertex 114 38.72021948216872 40.080445568422064
      vertex 114 38.82385926622691 39.33831688924154
      vertex 114 38.9 40.5
    endloop
  endfacet
  facet normal 1 0 0
    outer loop
      vertex 114 38.72021948216872 40.080445568422064
      vertex 114 38.9 40.5
      vertex 114 38.82385926622691 41.66168311075846
    endloop
  endfacet
  facet normal 1 0 0
    outer loop
      vertex 114 22.898591688967606 36.4
      vertex 114 22.292373906318495 36.05
      vertex 114 22.690859054472895 35.45362483093551
    endloop
  endfacet
  facet normal 1 0 0
    outer loop
      vertex 114 22.898591688967606 36.4
      vertex 114 22.690859054472895 35.45362483093551
      vertex 114 23.050819937078714 35.82968844263334
    endloop
  endfacet
  facet normal 1 0 0
    outer loop
      vertex 114 22.292373906318495 36.05
      vertex 114 21.865288580049544 37.79375800909675
      vertex 114 21.77747216064955 37.0941174519507
    endloop
  endfacet
  facet normal 1 0 0
    outer loop
      vertex 114 22.079408224429642 38.37768383015933
      vertex 114 21.865288580049544 37.79375800909675
      vertex 114 22.292373906318495 36.05
    endloop
  endfacet
  facet normal 1 0 0
    outer loop
      vertex 114 22.42418783340745 37.36199585460626
      vertex 114 22.079408224429642 38.37768383015933
      vertex 114 22.292373906318495 36.05
    endloop
  endfacet
  facet normal 1 0 0
    outer loop
      vertex 114 22.079408224429642 38.37768383015933
      vertex 114 22.029527942908913 38.628448939326844
      vertex 114 21.865288580049544 37.79375800909675
    endloop
  endfacet
  facet normal 1 0 0
    outer loop
      vertex 114 22.898591688967606 44.6
      vertex 114 22.5397175000345 45.32017584771376
      vertex 114 22.785508250724398 44.37068947155554
    endloop
  endfacet
  facet normal 1 0 0
    outer loop
      vertex 114 22.5397175000345 45.32017584771376
      vertex 114 22.898591688967606 44.6
      vertex 114 22.939155271408005 45.91797671817761
    endloop
  endfacet
  facet normal 1 0 0
    outer loop
      vertex 114 23.49450260961187 45.49184371787151
      vertex 114 23.412073903832045 46.4572370659527
      vertex 114 22.939155271408005 45.91797671817761
    endloop
  endfacet
  facet normal 1 0 0
    outer loop
      vertex 114 26.110701982827 48.26483279350026
      vertex 114 26.213235235585213 47.75587883473308
      vertex 114 26.861995854606263 48.07581216659255
    endloop
  endfacet
  facet normal 1 0 0
    outer loop
      vertex 114 26.110701982827 48.26483279350026
      vertex 114 26.861995854606263 48.07581216659255
      vertex 114 25.98504893831279 48.42216848771023
    endloop
  endfacet
  facet normal 1 0 0
    outer loop
      vertex 114 25.98504893831279 48.42216848771023
      vertex 114 26.861995854606263 48.07581216659255
      vertex 114 26.5941174519507 48.72252783935045
    endloop
  endfacet
  facet normal 1 0 0
    outer loop
      vertex 114 28.838316889241543 49.32385926622691
      vertex 114 28.929685223795577 48.62984786326524
      vertex 114 30 48.7
    endloop
  endfacet
  facet normal 1 0 0
    outer loop
      vertex 114 30 48.7
      vertex 114 30 49.4
      vertex 114 28.838316889241543 49.32385926622691
    endloop
  endfacet
  facet normal 1 0 0
    outer loop
      vertex 114 37.060844728591995 35.08202328182239
      vertex 114 36.282829867435744 34.8070985258552
      vertex 114 36.29325035256027 34.20674964743973
    endloop
  endfacet
  facet normal 1 0 0
    outer loop
      vertex 114 36.50549739038813 35.50815628212849
      vertex 114 36.282829867435744 34.8070985258552
      vertex 114 37.060844728591995 35.08202328182239
    endloop
  endfacet
  facet normal 1 0 0
    outer loop
      vertex 114 36.50549739038813 35.50815628212849
      vertex 114 37.060844728591995 35.08202328182239
      vertex 114 37.101408311032394 36.4
    endloop
  endfacet
  facet normal 1 0 0
    outer loop
      vertex 114 37.101408311032394 36.4
      vertex 114 37.060844728591995 35.08202328182239
      vertex 114 37.501649724744034 35.741734579275274
    endloop
  endfacet
  facet normal 1 0 0
    outer loop
      vertex 114 37.101408311032394 36.4
      vertex 114 37.501649724744034 35.741734579275274
      vertex 114 37.57581216659255 37.36199585460626
    endloop
  endfacet
  facet normal 1 0 0
    outer loop
      vertex 114 37.707626093681505 36.05
      vertex 114 37.74371684082792 37.00260761001685
      vertex 114 37.657997130231436 37.60410495028847
    endloop
  endfacet
  facet normal 1 0 0
    outer loop
      vertex 114 37.74371684082792 37.00260761001685
      vertex 114 37.777164790730076 37.95516155773143
      vertex 114 37.657997130231436 37.60410495028847
    endloop
  endfacet
  facet normal 1 0 0
    outer loop
      vertex 114 38.2109208956385 40.58108882889869
      vertex 114 38.22252783935045 40.44156014930378
      vertex 114 38.26791980449328 41.004311879510375
    endloop
  endfacet
  facet normal 1 0 0
    outer loop
      vertex 114 38.2109208956385 40.58108882889869
      vertex 114 38.26791980449328 41.004311879510375
      vertex 114 38.177908743792464 41.789285515497994
    endloop
  endfacet
  facet normal 1 0 0
    outer loop
      vertex 114 38.26791980449328 41.004311879510375
      vertex 114 38.39790338207909 42.79160565732231
      vertex 114 38.177908743792464 41.789285515497994
    endloop
  endfacet
  facet normal 1 0 0
    outer loop
      vertex 114 38.13175031195853 42.21023074580187
      vertex 114 38.177908743792464 41.789285515497994
      vertex 114 38.39790338207909 42.79160565732231
    endloop
  endfacet
  facet normal 1 0 0
    outer loop
      vertex 114 37.92059177557036 42.62231616984067
      vertex 114 38.04279813951118 42.00794329021186
      vertex 114 38.12042868728053 42.34815050759045
    endloop
  endfacet
  facet normal 1 0 0
    outer loop
      vertex 114 37.92059177557036 42.62231616984067
      vertex 114 38.12042868728053 42.34815050759045
      vertex 114 37.80832817118368 42.95303408383173
    endloop
  endfacet
  facet normal 1 0 0
    outer loop
      vertex 114 38.22252783935045 43.9058825480493
      vertex 114 37.80832817118368 42.95303408383173
      vertex 114 38.12042868728053 42.34815050759045
    endloop
  endfacet
  facet normal 1 0 0
    outer loop
      vertex 114 38.13175031195853 42.21023074580187
      vertex 114 38.39790338207909 42.79160565732231
      vertex 114 38.22252783935045 43.9058825480493
    endloop
  endfacet
  facet normal 1 0 0
    outer loop
      vertex 111 22.5246085440033 35.70243630295039
      vertex 111 22.791887669277482 35.30242482382485
      vertex 111 22.834300685174135 35.54625764520667
    endloop
  endfacet
  facet normal 1 0 0
    outer loop
      vertex 111 22.5246085440033 35.70243630295039
      vertex 111 22.834300685174135 35.54625764520667
      vertex 111 22.42418783340745 37.36199585460626
    endloop
  endfacet
  facet normal 1 0 0
    outer loop
      vertex 111 22.898591688967606 36.4
      vertex 111 22.42418783340745 37.36199585460626
      vertex 111 22.834300685174135 35.54625764520667
    endloop
  endfacet
  facet normal 1 0 0
    outer loop
      vertex 111 22.292373906318495 44.95
      vertex 111 22.898591688967606 44.6
      vertex 111 23.49450260961187 45.49184371787151
    endloop
  endfacet
  facet normal 1 0 0
    outer loop
      vertex 111 22.939155271408005 45.91797671817761
      vertex 111 22.292373906318495 44.95
      vertex 111 23.49450260961187 45.49184371787151
    endloop
  endfacet
  facet normal 1 0 0
    outer loop
      vertex 111 23.162287525253433 46.172410289956694
      vertex 111 22.939155271408005 45.91797671817761
      vertex 111 23.49450260961187 45.49184371787151
    endloop
  endfacet
  facet normal 1 0 0
    outer loop
      vertex 111 25.9 47.601408311032394
      vertex 111 26.861995854606263 48.07581216659255
      vertex 111 25.77118982120175 48.18540353950014
    endloop
  endfacet
  facet normal 1 0 0
    outer loop
      vertex 111 25.924902944398518 48.3925077659173
      vertex 111 25.77118982120175 48.18540353950014
      vertex 111 26.861995854606263 48.07581216659255
    endloop
  endfacet
  facet normal 1 0 0
    outer loop
      vertex 111 26.5941174519507 48.72252783935045
      vertex 111 26.861995854606263 48.07581216659255
      vertex 111 27.87768383015933 48.42059177557036
    endloop
  endfacet
  facet normal 1 0 0
    outer loop
      vertex 111 26.5941174519507 48.72252783935045
      vertex 111 27.87768383015933 48.42059177557036
      vertex 111 26.989944950376735 48.8568931694664
    endloop
  endfacet
  facet normal 1 0 0
    outer loop
      vertex 111 38.33021007305797 37.41133908313036
      vertex 111 38.59673985397271 38.196510498587564
      vertex 111 38.22252783935045 39.39411139084314
    endloop
  endfacet
  facet normal 1 0 0
    outer loop
      vertex 111 38.22252783935045 43.9058825480493
      vertex 111 38.22252783935045 39.39411139084314
      vertex 111 38.59673985397271 38.196510498587564
    endloop
  endfacet
  facet normal 1 0 0
    outer loop
      vertex 111 38.22252783935045 43.9058825480493
      vertex 111 38.2 40.5
      vertex 111 38.22252783935045 39.39411139084314
    endloop
  endfacet
  facet normal 1 0 0
    outer loop
      vertex 111 38.22252783935045 43.9058825480493
      vertex 111 38.59673985397271 38.196510498587564
      vertex 111 38.59673985397271 42.803489501412436
    endloop
  endfacet
  facet normal 1 0 0
    outer loop
      vertex 111 30 48.7
      vertex 111 31.070314776204423 48.62984786326524
      vertex 111 30 49.4
    endloop
  endfacet
  facet normal 1 0 0
    outer loop
      vertex 111 31.16168311075846 49.32385926622691
      vertex 111 30 49.4
      vertex 111 31.070314776204423 48.62984786326524
    endloop
  endfacet
  facet normal 1 0 0
    outer loop
      vertex 111 38.22252783935045 43.9058825480493
      vertex 111 38.12984786326524 41.57031477620442
      vertex 111 38.2 40.5
    endloop
  endfacet
  facet normal 1 0 0
    outer loop
      vertex 111 37.060844728591995 45.91797671817761
      vertex 111 36.50549739038813 45.49184371787151
      vertex 111 37.101408311032394 44.6
    endloop
  endfacet
  facet normal 1 0 0
    outer loop
      vertex 111 37.060844728591995 45.91797671817761
      vertex 111 37.101408311032394 44.6
      vertex 111 37.28231573344133 44.937433523672134
    endloop
  endfacet
  facet normal 1 0 0
    outer loop
      vertex 111 37.060844728591995 45.91797671817761
      vertex 111 37.28231573344133 44.937433523672134
      vertex 111 37.20811233072252 45.69757517617514
    endloop
  endfacet
  facet normal 1 0 0
    outer loop
      vertex 111 36.29325035256027 46.79325035256027
      vertex 111 36.50549739038813 45.49184371787151
      vertex 111 37.060844728591995 45.91797671817761
    endloop
  endfacet
  facet normal 1 0 0
    outer loop
      vertex 111 36.29325035256027 46.79325035256027
      vertex 111 35.79827560572969 46.29827560572969
      vertex 111 36.50549739038813 45.49184371787151
    endloop
  endfacet
  facet normal -1 0 0
    outer loop
      vertex 114 22.690859054472895 35.45362483093551
      vertex 114 22.292373906318495 36.05
      vertex 114 23.050819937078714 35.82968844263334
    endloop
  endfacet
  facet normal -1 0 0
    outer loop
      vertex 114 22.292373906318495 36.05
      vertex 114 22.898591688967606 36.4
      vertex 114 23.050819937078714 35.82968844263334
    endloop
  endfacet
  facet normal -1 0 0
    outer loop
      vertex 114 22.292373906318495 36.05
      vertex 114 21.77747216064955 37.0941174519507
      vertex 114 22.42418783340745 37.36199585460626
    endloop
  endfacet
  facet normal -1 0 0
    outer loop
      vertex 114 22.079408224429642 38.37768383015933
      vertex 114 22.42418783340745 37.36199585460626
      vertex 114 21.77747216064955 37.0941174519507
    endloop
  endfacet
  facet normal -1 0 0
    outer loop
      vertex 114 21.865288580049544 37.79375800909675
      vertex 114 22.029527942908913 38.628448939326844
      vertex 114 21.77747216064955 37.0941174519507
    endloop
  endfacet
  facet normal -1 0 0
    outer loop
      vertex 114 22.079408224429642 38.37768383015933
      vertex 114 21.77747216064955 37.0941174519507
      vertex 114 22.029527942908913 38.628448939326844
    endloop
  endfacet
  facet normal -1 0 0
    outer loop
      vertex 114 21.403260146027293 38.196510498587564
      vertex 114 21.315532394393905 41.46502266024651
      vertex 114 21.403260146027293 42.803489501412436
    endloop
  endfacet
  facet normal -1 0 0
    outer loop
      vertex 114 21.403260146027293 38.196510498587564
      vertex 114 21.77747216064955 43.9058825480493
      vertex 114 21.77747216064955 40.33272836120636
    endloop
  endfacet
  facet normal -1 0 0
    outer loop
      vertex 114 21.8 40.5
      vertex 114 21.77747216064955 40.33272836120636
      vertex 114 21.870152136734756 41.57031477620442
    endloop
  endfacet
  facet normal -1 0 0
    outer loop
      vertex 114 21.403260146027293 38.196510498587564
      vertex 114 21.403260146027293 42.803489501412436
      vertex 114 21.77747216064955 43.9058825480493
    endloop
  endfacet
  facet normal -1 0 0
    outer loop
      vertex 114 21.403260146027293 42.803489501412436
      vertex 114 21.315532394393905 41.46502266024651
      vertex 114 21.315532394393905 42.3624523110705
    endloop
  endfacet
  facet normal -1 0 0
    outer loop
      vertex 114 21.77747216064955 43.9058825480493
      vertex 114 21.870152136734756 41.57031477620442
      vertex 114 21.77747216064955 40.33272836120636
    endloop
  endfacet
  facet normal -1 0 0
    outer loop
      vertex 114 22.939155271408005 45.91797671817761
      vertex 114 22.898591688967606 44.6
      vertex 114 22.785508250724398 44.37068947155554
    endloop
  endfacet
  facet normal -1 0 0
    outer loop
      vertex 114 22.939155271408005 45.91797671817761
      vertex 114 22.785508250724398 44.37068947155554
      vertex 114 22.5397175000345 45.32017584771376
    endloop
  endfacet
  facet normal -1 0 0
    outer loop
      vertex 114 22.939155271408005 45.91797671817761
      vertex 114 23.702948330562883 46.777006290132746
      vertex 114 23.49450260961187 45.49184371787151
    endloop
  endfacet
  facet normal -1 0 0
    outer loop
      vertex 114 23.412073903832045 46.4572370659527
      vertex 114 23.702948330562883 46.777006290132746
      vertex 114 22.939155271408005 45.91797671817761
    endloop
  endfacet
  facet normal -1 0 0
    outer loop
      vertex 114 23.49450260961187 45.49184371787151
      vertex 114 23.702948330562883 46.777006290132746
      vertex 114 24.16623764379022 46.25781072214663
    endloop
  endfacet
  facet normal -1 0 0
    outer loop
      vertex 114 24.16623764379022 46.25781072214663
      vertex 114 23.7070092323368 46.77829505058039
      vertex 114 24.173748969698973 46.32625103030102
    endloop
  endfacet
  facet normal -1 0 0
    outer loop
      vertex 114 23.412073903832045 46.4572370659527
      vertex 114 23.691963501406356 46.776389984400666
      vertex 114 23.702948330562883 46.777006290132746
    endloop
  endfacet
  facet normal -1 0 0
    outer loop
      vertex 114 23.702948330562883 46.777006290132746
      vertex 114 23.7070092323368 46.77829505058039
      vertex 114 24.16623764379022 46.25781072214663
    endloop
  endfacet
  facet normal -1 0 0
    outer loop
      vertex 114 26.5941174519507 48.72252783935045
      vertex 114 26.213235235585213 47.75587883473308
      vertex 114 26.110701982827 48.26483279350026
    endloop
  endfacet
  facet normal -1 0 0
    outer loop
      vertex 114 26.5941174519507 48.72252783935045
      vertex 114 26.861995854606263 48.07581216659255
      vertex 114 26.213235235585213 47.75587883473308
    endloop
  endfacet
  facet normal -1 0 0
    outer loop
      vertex 114 26.5941174519507 48.72252783935045
      vertex 114 26.110701982827 48.26483279350026
      vertex 114 25.98504893831279 48.42216848771023
    endloop
  endfacet
  facet normal -1 0 0
    outer loop
      vertex 114 30 49.4
      vertex 114 28.929685223795577 48.62984786326524
      vertex 114 28.838316889241543 49.32385926622691
    endloop
  endfacet
  facet normal -1 0 0
    outer loop
      vertex 114 30 49.4
      vertex 114 30 48.7
      vertex 114 28.929685223795577 48.62984786326524
    endloop
  endfacet
  facet normal -1 0 0
    outer loop
      vertex 114 36.282829867435744 34.8070985258552
      vertex 114 37.101408311032394 36.4
      vertex 114 36.29325035256027 34.20674964743973
    endloop
  endfacet
  facet normal -1 0 0
    outer loop
      vertex 114 36.282829867435744 34.8070985258552
      vertex 114 36.50549739038813 35.50815628212849
      vertex 114 37.101408311032394 36.4
    endloop
  endfacet
  facet normal -1 0 0
    outer loop
      vertex 114 37.060844728591995 35.08202328182239
      vertex 114 36.29325035256027 34.20674964743973
      vertex 114 37.101408311032394 36.4
    endloop
  endfacet
  facet normal -1 0 0
    outer loop
      vertex 114 37.501649724744034 35.741734579275274
      vertex 114 37.060844728591995 35.08202328182239
      vertex 114 37.57581216659255 37.36199585460626
    endloop
  endfacet
  facet normal -1 0 0
    outer loop
      vertex 114 37.101408311032394 36.4
      vertex 114 37.57581216659255 37.36199585460626
      vertex 114 37.060844728591995 35.08202328182239
    endloop
  endfacet
  facet normal -1 0 0
    outer loop
      vertex 114 37.74371684082792 37.00260761001685
      vertex 114 37.707626093681505 36.05
      vertex 114 37.777164790730076 37.95516155773143
    endloop
  endfacet
  facet normal -1 0 0
    outer loop
      vertex 114 37.707626093681505 36.05
      vertex 114 37.657997130231436 37.60410495028847
      vertex 114 37.777164790730076 37.95516155773143
    endloop
  endfacet
  facet normal -1 0 0
    outer loop
      vertex 114 38.82385926622691 39.33831688924154
      vertex 114 38.72021948216872 40.080445568422064
      vertex 114 38.82385926622691 41.66168311075846
    endloop
  endfacet
  facet normal -1 0 0
    outer loop
      vertex 114 38.82385926622691 39.33831688924154
      vertex 114 38.82385926622691 41.66168311075846
      vertex 114 38.9 40.5
    endloop
  endfacet
  facet normal -1 0 0
    outer loop
      vertex 114 38.2109208956385 40.58108882889869
      vertex 114 38.177908743792464 41.789285515497994
      vertex 114 38.22252783935045 40.44156014930378
    endloop
  endfacet
  facet normal -1 0 0
    outer loop
      vertex 114 38.26791980449328 41.004311879510375
      vertex 114 38.22252783935045 40.44156014930378
      vertex 114 38.39790338207909 42.79160565732231
    endloop
  endfacet
  facet normal -1 0 0
    outer loop
      vertex 114 38.22252783935045 43.9058825480493
      vertex 114 38.22252783935045 40.44156014930378
      vertex 114 38.177908743792464 41.789285515497994
    endloop
  endfacet
  facet normal -1 0 0
    outer loop
      vertex 114 38.22252783935045 43.9058825480493
      vertex 114 38.39790338207909 42.79160565732231
      vertex 114 38.22252783935045 40.44156014930378
    endloop
  endfacet
  facet normal -1 0 0
    outer loop
      vertex 114 38.22252783935045 43.9058825480493
      vertex 114 38.177908743792464 41.789285515497994
      vertex 114 38.13175031195853 42.21023074580187
    endloop
  endfacet
  facet normal -1 0 0
    outer loop
      vertex 114 38.22252783935045 43.9058825480493
      vertex 114 38.04279813951118 42.00794329021186
      vertex 114 37.92059177557036 42.62231616984067
    endloop
  endfacet
  facet normal -1 0 0
    outer loop
      vertex 114 38.22252783935045 43.9058825480493
      vertex 114 37.92059177557036 42.62231616984067
      vertex 114 37.80832817118368 42.95303408383173
    endloop
  endfacet
  facet normal -1 0 0
    outer loop
      vertex 114 38.22252783935045 43.9058825480493
      vertex 114 38.12042868728053 42.34815050759045
      vertex 114 38.04279813951118 42.00794329021186
    endloop
  endfacet
endsolid OpenSCAD_Model
