solid OpenSCAD_Model
  facet normal 0 0 -1
    outer loop
      vertex 33.857142857142854 43 51.3
      vertex 34.3485978492758 43.175649662633504 51.3
      vertex 33.892756892668196 43 51.3
    endloop
  endfacet
  facet normal 0 0 -1
    outer loop
      vertex 33.857142857142854 43 51.3
      vertex 37.88844244913974 44.54932922697488 51.3
      vertex 34.3485978492758 43.175649662633504 51.3
    endloop
  endfacet
  facet normal 0 0 -1
    outer loop
      vertex 33.857142857142854 43 51.3
      vertex 37.85537898217417 44.64673105977638 51.3
      vertex 37.88844244913974 44.54932922697488 51.3
    endloop
  endfacet
  facet normal 0 0 -1
    outer loop
      vertex 48 43 51.3
      vertex 44.312387820488205 43 51.3
      vertex 40.60715132980718 44.5071689932311 51.3
    endloop
  endfacet
  facet normal 0 0 -1
    outer loop
      vertex 48 43 51.3
      vertex 40.60715132980718 44.5071689932311 51.3
      vertex 40.183287299168875 44.701166556332986 51.3
    endloop
  endfacet
  facet normal 0 0 -1
    outer loop
      vertex 48 43 51.3
      vertex 40.183287299168875 44.701166556332986 51.3
      vertex 48 48.5 51.3
    endloop
  endfacet
  facet normal 0 0 1
    outer loop
      vertex 33.857142857142854 43 51.3
      vertex 33.892756892668196 43 51.3
      vertex 37.85537898217417 44.64673105977638 51.3
    endloop
  endfacet
  facet normal 0 0 1
    outer loop
      vertex 33.892756892668196 43 51.3
      vertex 34.3485978492758 43.175649662633504 51.3
      vertex 37.85537898217417 44.64673105977638 51.3
    endloop
  endfacet
  facet normal 0 0 1
    outer loop
      vertex 37.88844244913974 44.54932922697488 51.3
      vertex 37.85537898217417 44.64673105977638 51.3
      vertex 34.3485978492758 43.175649662633504 51.3
    endloop
  endfacet
  facet normal 0 0 1
    outer loop
      vertex 40.60715132980718 44.5071689932311 51.3
      vertex 44.312387820488205 43 51.3
      vertex 48 48.5 51.3
    endloop
  endfacet
  facet normal 0 0 1
    outer loop
      vertex 48 43 51.3
      vertex 48 48.5 51.3
      vertex 44.312387820488205 43 51.3
    endloop
  endfacet
  facet normal 0 0 1
    outer loop
      vertex 40.183287299168875 44.701166556332986 51.3
      vertex 40.60715132980718 44.5071689932311 51.3
      vertex 48 48.5 51.3
    endloop
  endfacet
endsolid OpenSCAD_Model
