solid OpenSCAD_Model
  facet normal 0 -1 0
    outer loop
      vertex 107.5 6 33.6
      vertex 108.5 6 33.6
      vertex 107.5 6 35.6
    endloop
  endfacet
  facet normal 0 -1 0
    outer loop
      vertex 108.5 6 35.6
      vertex 107.5 6 35.6
      vertex 108.5 6 33.6
    endloop
  endfacet
  facet normal 1 0 0
    outer loop
      vertex 108.5 6 33.6
      vertex 108.5 7.410947450704419 35.6
      vertex 108.5 6 35.6
    endloop
  endfacet
  facet normal 1 0 0
    outer loop
      vertex 108.5 6 33.6
      vertex 108.5 7.410947450704419 33.6
      vertex 108.5 7.410947450704419 35.6
    endloop
  endfacet
  facet normal -0.9978589232386044 0.06540312923012999 0
    outer loop
      vertex 107.51283270793928 6.195789288330078 33.6
      vertex 107.5 6 33.6
      vertex 107.51283270793928 6.195789288330078 35.6
    endloop
  endfacet
  facet normal -0.9807852804032247 0.19509032201615759 0
    outer loop
      vertex 107.51283270793928 6.195789288330078 33.6
      vertex 107.5511112605664 6.3882285676537816 35.6
      vertex 107.5511112605664 6.3882285676537816 33.6
    endloop
  endfacet
  facet normal -0.9469301294951146 0.3214394653031352 0
    outer loop
      vertex 107.5511112605664 6.3882285676537816 33.6
      vertex 107.61418070123307 6.574025148547634 35.6
      vertex 107.61418070123307 6.574025148547634 33.6
    endloop
  endfacet
  facet normal -0.8968727415326836 0.442288690219011 0
    outer loop
      vertex 107.61418070123307 6.574025148547634 33.6
      vertex 107.70096189432334 6.75 35.6
      vertex 107.70096189432334 6.75 33.6
    endloop
  endfacet
  facet normal 0 0 -1
    outer loop
      vertex 107.51283270793928 6.195789288330078 33.6
      vertex 108.5 6 33.6
      vertex 107.5 6 33.6
    endloop
  endfacet
  facet normal 0 0 -1
    outer loop
      vertex 107.51283270793928 6.195789288330078 33.6
      vertex 107.5511112605664 6.3882285676537816 33.6
      vertex 108.5 6 33.6
    endloop
  endfacet
  facet normal 0 0 -1
    outer loop
      vertex 107.5511112605664 6.3882285676537816 33.6
      vertex 107.61418070123307 6.574025148547634 33.6
      vertex 108.5 6 33.6
    endloop
  endfacet
  facet normal 0 0 -1
    outer loop
      vertex 107.61418070123307 6.574025148547634 33.6
      vertex 107.70096189432334 6.75 33.6
      vertex 108.5 6 33.6
    endloop
  endfacet
  facet normal -0.9978589232386044 0.06540312923012999 0
    outer loop
      vertex 107.51283270793928 6.195789288330078 35.6
      vertex 107.5 6 33.6
      vertex 107.5 6 35.6
    endloop
  endfacet
  facet normal -0.9807852804032247 0.19509032201615759 0
    outer loop
      vertex 107.51283270793928 6.195789288330078 33.6
      vertex 107.51283270793928 6.195789288330078 35.6
      vertex 107.5511112605664 6.3882285676537816 35.6
    endloop
  endfacet
  facet normal 0 0 1
    outer loop
      vertex 107.51283270793928 6.195789288330078 35.6
      vertex 107.5 6 35.6
      vertex 107.5511112605664 6.3882285676537816 35.6
    endloop
  endfacet
  facet normal 0 0 1
    outer loop
      vertex 107.5511112605664 6.3882285676537816 35.6
      vertex 107.5 6 35.6
      vertex 107.61418070123307 6.574025148547634 35.6
    endloop
  endfacet
  facet normal -0.9469301294951146 0.3214394653031352 0
    outer loop
      vertex 107.5511112605664 6.3882285676537816 33.6
      vertex 107.5511112605664 6.3882285676537816 35.6
      vertex 107.61418070123307 6.574025148547634 35.6
    endloop
  endfacet
  facet normal -0.8968727415326836 0.442288690219011 0
    outer loop
      vertex 107.61418070123307 6.574025148547634 33.6
      vertex 107.61418070123307 6.574025148547634 35.6
      vertex 107.70096189432334 6.75 35.6
    endloop
  endfacet
  facet normal 0 0 1
    outer loop
      vertex 107.61418070123307 6.574025148547634 35.6
      vertex 107.5 6 35.6
      vertex 107.70096189432334 6.75 35.6
    endloop
  endfacet
  facet normal 0 0 1
    outer loop
      vertex 107.70096189432334 6.75 35.6
      vertex 107.5 6 35.6
      vertex 107.80996998956314 6.913142143513081 35.6
    endloop
  endfacet
  facet normal 0 0 1
    outer loop
      vertex 107.80996998956314 6.913142143513081 35.6
      vertex 107.5 6 35.6
      vertex 107.93933982822018 7.060660171779821 35.6
    endloop
  endfacet
  facet normal -0.831469612302555 0.5555702330195875 0
    outer loop
      vertex 107.70096189432334 6.75 33.6
      vertex 107.80996998956314 6.913142143513081 35.6
      vertex 107.80996998956314 6.913142143513081 33.6
    endloop
  endfacet
  facet normal -0.7518398074789517 0.659345815100098 0
    outer loop
      vertex 107.80996998956314 6.913142143513081 33.6
      vertex 107.93933982822018 7.060660171779821 35.6
      vertex 107.93933982822018 7.060660171779821 33.6
    endloop
  endfacet
  facet normal -0.6593458151000949 0.7518398074789545 0
    outer loop
      vertex 107.93933982822018 7.060660171779821 33.6
      vertex 107.93933982822018 7.060660171779821 35.6
      vertex 108.08685785648692 7.190030010436853 33.6
    endloop
  endfacet
  facet normal -0.831469612302555 0.5555702330195875 0
    outer loop
      vertex 107.70096189432334 6.75 33.6
      vertex 107.70096189432334 6.75 35.6
      vertex 107.80996998956314 6.913142143513081 35.6
    endloop
  endfacet
  facet normal -0.7518398074789517 0.659345815100098 0
    outer loop
      vertex 107.80996998956314 6.913142143513081 33.6
      vertex 107.80996998956314 6.913142143513081 35.6
      vertex 107.93933982822018 7.060660171779821 35.6
    endloop
  endfacet
  facet normal 0 0 1
    outer loop
      vertex 107.93933982822018 7.060660171779821 35.6
      vertex 107.5 6 35.6
      vertex 108.08685785648692 7.190030010436853 35.6
    endloop
  endfacet
  facet normal 0 0 1
    outer loop
      vertex 108.08685785648692 7.190030010436853 35.6
      vertex 107.5 6 35.6
      vertex 108.25 7.299038105676658 35.6
    endloop
  endfacet
  facet normal 0 0 -1
    outer loop
      vertex 107.70096189432334 6.75 33.6
      vertex 107.80996998956314 6.913142143513081 33.6
      vertex 108.5 6 33.6
    endloop
  endfacet
  facet normal 0 0 -1
    outer loop
      vertex 107.80996998956314 6.913142143513081 33.6
      vertex 107.93933982822018 7.060660171779821 33.6
      vertex 108.5 6 33.6
    endloop
  endfacet
  facet normal 0 0 1
    outer loop
      vertex 108.42597485145237 7.38581929876693 35.6
      vertex 107.5 6 35.6
      vertex 108.5 6 35.6
    endloop
  endfacet
  facet normal 0 0 -1
    outer loop
      vertex 107.93933982822018 7.060660171779821 33.6
      vertex 108.08685785648692 7.190030010436853 33.6
      vertex 108.5 6 33.6
    endloop
  endfacet
  facet normal -0.5555702330195917 0.8314696123025522 0
    outer loop
      vertex 108.08685785648692 7.190030010436853 33.6
      vertex 108.08685785648692 7.190030010436853 35.6
      vertex 108.25 7.299038105676658 33.6
    endloop
  endfacet
  facet normal 0 0 -1
    outer loop
      vertex 108.08685785648692 7.190030010436853 33.6
      vertex 108.25 7.299038105676658 33.6
      vertex 108.5 6 33.6
    endloop
  endfacet
  facet normal 0 0 -1
    outer loop
      vertex 108.25 7.299038105676658 33.6
      vertex 108.42597485145237 7.38581929876693 33.6
      vertex 108.5 6 33.6
    endloop
  endfacet
  facet normal 0 0 -1
    outer loop
      vertex 108.42597485145237 7.38581929876693 33.6
      vertex 108.5 7.410947450704419 33.6
      vertex 108.5 6 33.6
    endloop
  endfacet
  facet normal -0.44228869021899825 0.8968727415326897 0
    outer loop
      vertex 108.25 7.299038105676658 33.6
      vertex 108.25 7.299038105676658 35.6
      vertex 108.42597485145237 7.38581929876693 33.6
    endloop
  endfacet
  facet normal -0.3214394653031686 0.9469301294951032 0
    outer loop
      vertex 108.42597485145237 7.38581929876693 33.6
      vertex 108.5 7.410947450704419 35.6
      vertex 108.5 7.410947450704419 33.6
    endloop
  endfacet
  facet normal 0 0 1
    outer loop
      vertex 108.25 7.299038105676658 35.6
      vertex 107.5 6 35.6
      vertex 108.42597485145237 7.38581929876693 35.6
    endloop
  endfacet
  facet normal -0.6593458151000949 0.7518398074789545 0
    outer loop
      vertex 108.08685785648692 7.190030010436853 33.6
      vertex 107.93933982822018 7.060660171779821 35.6
      vertex 108.08685785648692 7.190030010436853 35.6
    endloop
  endfacet
  facet normal -0.5555702330195917 0.8314696123025522 0
    outer loop
      vertex 108.25 7.299038105676658 33.6
      vertex 108.08685785648692 7.190030010436853 35.6
      vertex 108.25 7.299038105676658 35.6
    endloop
  endfacet
  facet normal 0 0 1
    outer loop
      vertex 108.42597485145237 7.38581929876693 35.6
      vertex 108.5 6 35.6
      vertex 108.5 7.410947450704419 35.6
    endloop
  endfacet
  facet normal -0.44228869021899825 0.8968727415326897 0
    outer loop
      vertex 108.42597485145237 7.38581929876693 33.6
      vertex 108.25 7.299038105676658 35.6
      vertex 108.42597485145237 7.38581929876693 35.6
    endloop
  endfacet
  facet normal -0.3214394653031686 0.9469301294951032 0
    outer loop
      vertex 108.42597485145237 7.38581929876693 33.6
      vertex 108.42597485145237 7.38581929876693 35.6
      vertex 108.5 7.410947450704419 35.6
    endloop
  endfacet
endsolid OpenSCAD_Model
