solid OpenSCAD_Model
  facet normal 0 0 -1
    outer loop
      vertex -94.73051371481047 -43.95202400834948 53.9
      vertex -94.80075439908077 -44.34206832726746 53.9
      vertex -94.83882883513662 -43.9989553597418 53.9
    endloop
  endfacet
  facet normal 0 0 -1
    outer loop
      vertex -94.73051371481047 -43.95202400834948 53.9
      vertex -94.83882883513662 -43.9989553597418 53.9
      vertex -94.84852813742386 -43.848528137423855 53.9
    endloop
  endfacet
  facet normal 0 0 -1
    outer loop
      vertex -94.6 -44.03923048454133 53.9
      vertex -94.61458879518523 -44.3475983378117 53.9
      vertex -94.6194169800583 -44.072861680531865 53.9
    endloop
  endfacet
  facet normal 0 0 -1
    outer loop
      vertex -94.6 -44.03923048454133 53.9
      vertex -94.54287193228213 -44.067402929834394 53.9
      vertex -94.61458879518523 -44.3475983378117 53.9
    endloop
  endfacet
  facet normal 0 0 -1
    outer loop
      vertex -95.03923048454132 -43.6 53.9
      vertex -95.00233198191678 -43.83738182869349 53.9
      vertex -95.13137084989847 -44.060666877084934 53.9
    endloop
  endfacet
  facet normal 0 0 -1
    outer loop
      vertex -95.03923048454132 -43.6 53.9
      vertex -95.13137084989847 -44.060666877084934 53.9
      vertex -95.13137084989847 -43.847151304047635 53.9
    endloop
  endfacet
  facet normal 0 0 -1
    outer loop
      vertex -95.15911099154688 -43.31058285412303 53.9
      vertex -95.15327051413735 -43.797246540650406 53.9
      vertex -95.18050689379541 -43.38169968840616 53.9
    endloop
  endfacet
  facet normal 0 0 -1
    outer loop
      vertex -95.15911099154688 -43.31058285412303 53.9
      vertex -95.10865543901355 -43.45922011883811 53.9
      vertex -95.15327051413735 -43.797246540650406 53.9
    endloop
  endfacet
  facet normal 0 0 -1
    outer loop
      vertex -95.18973383364857 -43.15663143066406 53.9
      vertex -95.18050689379541 -43.38169968840616 53.9
      vertex -95.18844481711216 -43.260590382064954 53.9
    endloop
  endfacet
  facet normal 0 0 -1
    outer loop
      vertex -95.15911099154688 -43.31058285412303 53.9
      vertex -95.18050689379541 -43.38169968840616 53.9
      vertex -95.18973383364857 -43.15663143066406 53.9
    endloop
  endfacet
  facet normal 0 0 -1
    outer loop
      vertex -93.84336856933594 -44.189733833648575 53.9
      vertex -93.79115809244792 -44.586311778198095 53.9
      vertex -93.99078638643152 -44.59939610786168 53.9
    endloop
  endfacet
  facet normal 0 0 -1
    outer loop
      vertex -93.84336856933594 -44.189733833648575 53.9
      vertex -93.99078638643152 -44.59939610786168 53.9
      vertex -93.90692914989526 -44.19389981419698 53.9
    endloop
  endfacet
  facet normal 0 0 -1
    outer loop
      vertex -93.54077988116188 -44.10865543901354 53.9
      vertex -93.5771461593233 -44.54251334838407 53.9
      vertex -93.60109645235062 -44.129130155983596 53.9
    endloop
  endfacet
  facet normal 0 0 -1
    outer loop
      vertex -93.54077988116188 -44.10865543901354 53.9
      vertex -93.38770650821586 -44.47820725201806 53.9
      vertex -93.5771461593233 -44.54251334838407 53.9
    endloop
  endfacet
  facet normal 0 0 -1
    outer loop
      vertex -93.4 -44.03923048454133 53.9
      vertex -93.37942533873574 -44.47412343116675 53.9
      vertex -93.45712806771787 -44.067402929834394 53.9
    endloop
  endfacet
  facet normal 0 0 -1
    outer loop
      vertex -93.4 -44.03923048454133 53.9
      vertex -93.31563983020214 -44.18534658476634 53.9
      vertex -93.37942533873574 -44.47412343116675 53.9
    endloop
  endfacet
  facet normal 0 0 -1
    outer loop
      vertex -93.26948628518953 -43.95202400834948 53.9
      vertex -93.21477221747907 -44.25584951200254 53.9
      vertex -93.29447942199573 -44.07837319931123 53.9
    endloop
  endfacet
  facet normal 0 0 -1
    outer loop
      vertex -93.26948628518953 -43.95202400834948 53.9
      vertex -93.25117947382479 -43.93596936567016 53.9
      vertex -93.21477221747907 -44.25584951200254 53.9
    endloop
  endfacet
  facet normal 0 0 -1
    outer loop
      vertex -95.18973383364857 -42.84336856933594 53.9
      vertex -95.22022930056904 -42.77565287507836 53.9
      vertex -95.24746568022711 -42.36010602283412 53.9
    endloop
  endfacet
  facet normal 0 0 -1
    outer loop
      vertex -95.18973383364857 -42.84336856933594 53.9
      vertex -95.24746568022711 -42.36010602283412 53.9
      vertex -95.15911099154688 -42.68941714587697 53.9
    endloop
  endfacet
  facet normal 0 0 -1
    outer loop
      vertex -95.15911099154688 -42.68941714587697 53.9
      vertex -95.24746568022711 -42.36010602283412 53.9
      vertex -95.26057548523197 -42.16008905025204 53.9
    endloop
  endfacet
  facet normal 0 0 -1
    outer loop
      vertex -95.15911099154688 -42.68941714587697 53.9
      vertex -95.14950888144473 -41.88931161116139 53.9
      vertex -95.13137084989847 -42.607697323768114 53.9
    endloop
  endfacet
  facet normal 0 0 -1
    outer loop
      vertex -95.15911099154688 -42.68941714587697 53.9
      vertex -95.26057548523197 -42.16008905025204 53.9
      vertex -95.14950888144473 -41.88931161116139 53.9
    endloop
  endfacet
  facet normal 0 0 -1
    outer loop
      vertex -94.84852813742386 -42.151471862576145 53.9
      vertex -94.86458278010318 -42.16977867394088 53.9
      vertex -94.94243130479144 -41.857387247144125 53.9
    endloop
  endfacet
  facet normal 0 0 -1
    outer loop
      vertex -94.84852813742386 -42.151471862576145 53.9
      vertex -94.94243130479144 -41.857387247144125 53.9
      vertex -94.84024069915407 -42.02294134747945 53.9
    endloop
  endfacet
  facet normal 0 0 -1
    outer loop
      vertex -94.73051371481047 -42.04797599165052 53.9
      vertex -94.74882052617521 -42.06403063432984 53.9
      vertex -94.78522778252093 -41.74415048799746 53.9
    endloop
  endfacet
  facet normal 0 0 -1
    outer loop
      vertex -94.73051371481047 -42.04797599165052 53.9
      vertex -94.78522778252093 -41.74415048799746 53.9
      vertex -94.70552057800427 -41.92162680068877 53.9
    endloop
  endfacet
  facet normal 0 0 -1
    outer loop
      vertex -93.4 -41.96076951545867 53.9
      vertex -93.45712806771787 -41.932597070165606 53.9
      vertex -93.38541120481477 -41.6524016621883 53.9
    endloop
  endfacet
  facet normal 0 0 -1
    outer loop
      vertex -93.15147186257614 -42.151471862576145 53.9
      vertex -93.26948628518953 -42.04797599165052 53.9
      vertex -93.16117116486338 -42.0010446402582 53.9
    endloop
  endfacet
  facet normal 0 0 -1
    outer loop
      vertex -93.4 -41.96076951545867 53.9
      vertex -93.38541120481477 -41.6524016621883 53.9
      vertex -93.3805830199417 -41.927138319468135 53.9
    endloop
  endfacet
  facet normal 0 0 -1
    outer loop
      vertex -93.26948628518953 -42.04797599165052 53.9
      vertex -93.19924560091923 -41.65793167273254 53.9
      vertex -93.16117116486338 -42.0010446402582 53.9
    endloop
  endfacet
  facet normal 0 0 -1
    outer loop
      vertex -93.15147186257614 -43.848528137423855 53.9
      vertex -93.05756869520856 -44.142612752855875 53.9
      vertex -93.15975930084593 -43.97705865252055 53.9
    endloop
  endfacet
  facet normal 0 0 -1
    outer loop
      vertex -93.15147186257614 -43.848528137423855 53.9
      vertex -93.13541721989682 -43.83022132605912 53.9
      vertex -93.05756869520856 -44.142612752855875 53.9
    endloop
  endfacet
  facet normal 0 0 -1
    outer loop
      vertex -92.84088900845312 -43.31058285412303 53.9
      vertex -92.73942451476803 -43.83991094974796 53.9
      vertex -92.85049111855527 -44.11068838883861 53.9
    endloop
  endfacet
  facet normal 0 0 -1
    outer loop
      vertex -92.84088900845312 -43.31058285412303 53.9
      vertex -92.85049111855527 -44.11068838883861 53.9
      vertex -92.86862915010153 -43.392302676231886 53.9
    endloop
  endfacet
  facet normal 0 0 -1
    outer loop
      vertex -92.84088900845312 -43.31058285412303 53.9
      vertex -92.75253431977289 -43.63989397716588 53.9
      vertex -92.73942451476803 -43.83991094974796 53.9
    endloop
  endfacet
  facet normal 0 0 -1
    outer loop
      vertex -92.84088900845312 -43.31058285412303 53.9
      vertex -92.81026616635143 -43.15663143066406 53.9
      vertex -92.75253431977289 -43.63989397716588 53.9
    endloop
  endfacet
  facet normal 0 0 -1
    outer loop
      vertex -92.81026616635143 -43.15663143066406 53.9
      vertex -92.77977069943096 -43.22434712492164 53.9
      vertex -92.75253431977289 -43.63989397716588 53.9
    endloop
  endfacet
  facet normal 0 0 -1
    outer loop
      vertex -92.81026616635143 -42.84336856933594 53.9
      vertex -92.81949310620459 -42.61830031159384 53.9
      vertex -92.81155518288784 -42.739409617935046 53.9
    endloop
  endfacet
  facet normal 0 0 -1
    outer loop
      vertex -92.84088900845312 -42.68941714587697 53.9
      vertex -92.81949310620459 -42.61830031159384 53.9
      vertex -92.81026616635143 -42.84336856933594 53.9
    endloop
  endfacet
  facet normal 0 0 -1
    outer loop
      vertex -92.84088900845312 -42.68941714587697 53.9
      vertex -92.84672948586265 -42.202753459349594 53.9
      vertex -92.81949310620459 -42.61830031159384 53.9
    endloop
  endfacet
  facet normal 0 0 -1
    outer loop
      vertex -92.84088900845312 -42.68941714587697 53.9
      vertex -92.89134456098645 -42.54077988116189 53.9
      vertex -92.84672948586265 -42.202753459349594 53.9
    endloop
  endfacet
  facet normal 0 0 -1
    outer loop
      vertex -92.96076951545868 -42.4 53.9
      vertex -92.98443012463 -42.36458939596602 53.9
      vertex -92.86862915010153 -41.939333122915066 53.9
    endloop
  endfacet
  facet normal 0 0 -1
    outer loop
      vertex -92.96076951545868 -42.4 53.9
      vertex -92.86862915010153 -41.939333122915066 53.9
      vertex -92.86862915010153 -42.152848695952365 53.9
    endloop
  endfacet
  facet normal 0 0 -1
    outer loop
      vertex -94.4592201188381 -41.891344560986454 53.9
      vertex -94.61229349178414 -41.52179274798194 53.9
      vertex -94.4228538406767 -41.45748665161593 53.9
    endloop
  endfacet
  facet normal 0 0 -1
    outer loop
      vertex -94.4592201188381 -41.891344560986454 53.9
      vertex -94.4228538406767 -41.45748665161593 53.9
      vertex -94.39890354764938 -41.870869844016404 53.9
    endloop
  endfacet
  facet normal 0 0 -1
    outer loop
      vertex -94.15663143066406 -41.810266166351425 53.9
      vertex -94.00921361356848 -41.40060389213832 53.9
      vertex -94.09307085010474 -41.80610018580302 53.9
    endloop
  endfacet
  facet normal 0 0 -1
    outer loop
      vertex -94.15663143066406 -41.810266166351425 53.9
      vertex -94.20884190755208 -41.413688221801905 53.9
      vertex -94.00921361356848 -41.40060389213832 53.9
    endloop
  endfacet
  facet normal 0 0 -1
    outer loop
      vertex 37.96076951545867 -43.6 53.9
      vertex 38.019088762238866 -44.164199229477305 53.9
      vertex 38.00819231250715 -44.25376445842904 53.9
    endloop
  endfacet
  facet normal 0 0 -1
    outer loop
      vertex 37.96076951545867 -43.6 53.9
      vertex 38.00819231250715 -44.25376445842904 53.9
      vertex 37.868629150101526 -44.0606668770849 53.9
    endloop
  endfacet
  facet normal 0 0 -1
    outer loop
      vertex 37.96076951545867 -43.6 53.9
      vertex 37.868629150101526 -44.0606668770849 53.9
      vertex 37.868629150101526 -43.84715130404757 53.9
    endloop
  endfacet
  facet normal 0 0 -1
    outer loop
      vertex 37.891344560986454 -43.45922011883811 53.9
      vertex 37.84672948586265 -43.7972465406503 53.9
      vertex 37.84088900845312 -43.31058285412303 53.9
    endloop
  endfacet
  facet normal 0 0 -1
    outer loop
      vertex 37.84088900845312 -43.31058285412303 53.9
      vertex 37.84672948586265 -43.7972465406503 53.9
      vertex 37.81949310620459 -43.38169968840599 53.9
    endloop
  endfacet
  facet normal 0 0 -1
    outer loop
      vertex 37.84088900845312 -43.31058285412303 53.9
      vertex 37.81949310620459 -43.38169968840599 53.9
      vertex 37.810266166351425 -43.15663143066406 53.9
    endloop
  endfacet
  facet normal 0 0 -1
    outer loop
      vertex 37.810266166351425 -43.15663143066406 53.9
      vertex 37.81949310620459 -43.38169968840599 53.9
      vertex 37.81155518288783 -43.26059038206473 53.9
    endloop
  endfacet
  facet normal 0 0 -1
    outer loop
      vertex 37.810266166351425 -42.84336856933594 53.9
      vertex 37.77977069943097 -42.775652875078556 53.9
      vertex 37.7525343197729 -42.36010602283422 53.9
    endloop
  endfacet
  facet normal 0 0 -1
    outer loop
      vertex 37.810266166351425 -42.84336856933594 53.9
      vertex 37.7525343197729 -42.36010602283422 53.9
      vertex 37.84088900845312 -42.68941714587697 53.9
    endloop
  endfacet
  facet normal 0 0 -1
    outer loop
      vertex 37.84088900845312 -42.68941714587697 53.9
      vertex 37.73942451476805 -42.16008905025209 53.9
      vertex 37.868629150101526 -42.607697323768114 53.9
    endloop
  endfacet
  facet normal 0 0 -1
    outer loop
      vertex 37.84088900845312 -42.68941714587697 53.9
      vertex 37.7525343197729 -42.36010602283422 53.9
      vertex 37.73942451476805 -42.16008905025209 53.9
    endloop
  endfacet
  facet normal 0 0 -1
    outer loop
      vertex 37.891344560986454 -42.54077988116189 53.9
      vertex 37.868629150101526 -42.474094884947476 53.9
      vertex 37.868629150101526 -42.15284869595243 53.9
    endloop
  endfacet
  facet normal 0 0 -1
    outer loop
      vertex 37.891344560986454 -42.54077988116189 53.9
      vertex 37.868629150101526 -42.15284869595243 53.9
      vertex 37.91018073905757 -42.50258389053351 53.9
    endloop
  endfacet
  facet normal 0 0 -1
    outer loop
      vertex 38.04797599165052 -42.26948628518954 53.9
      vertex 38.037957622526704 -42.119079975616984 53.9
      vertex 38.08290907008012 -42.22965274357955 53.9
    endloop
  endfacet
  facet normal 0 0 -1
    outer loop
      vertex 38.04797599165052 -42.26948628518954 53.9
      vertex 38.04221757124138 -42.2572538002685 53.9
      vertex 38.037957622526704 -42.119079975616984 53.9
    endloop
  endfacet
  facet normal 0 0 -1
    outer loop
      vertex 38.26948628518954 -43.95202400834948 53.9
      vertex 38.381271234266244 -44.43510616929738 53.9
      vertex 38.37204260690975 -44.47048267073515 53.9
    endloop
  endfacet
  facet normal 0 0 -1
    outer loop
      vertex 38.26948628518954 -43.95202400834948 53.9
      vertex 38.19924560091922 -44.34206832726747 53.9
      vertex 38.161171164863376 -43.9989553597418 53.9
    endloop
  endfacet
  facet normal 0 0 -1
    outer loop
      vertex 38.26948628518954 -43.95202400834948 53.9
      vertex 38.37204260690975 -44.47048267073515 53.9
      vertex 38.21477221747906 -44.255849512002584 53.9
    endloop
  endfacet
  facet normal 0 0 -1
    outer loop
      vertex 38.26948628518954 -43.95202400834948 53.9
      vertex 38.161171164863376 -43.9989553597418 53.9
      vertex 38.151471862576145 -43.848528137423855 53.9
    endloop
  endfacet
  facet normal 0 0 -1
    outer loop
      vertex 38.54077988116189 -44.108655439013546 53.9
      vertex 38.5665659768323 -44.4162893824359 53.9
      vertex 38.52591876801214 -44.14453333993164 53.9
    endloop
  endfacet
  facet normal 0 0 -1
    outer loop
      vertex 38.54077988116189 -44.108655439013546 53.9
      vertex 38.601096452350625 -44.129130155983596 53.9
      vertex 38.5665659768323 -44.4162893824359 53.9
    endloop
  endfacet
  facet normal 0 0 -1
    outer loop
      vertex 38.84336856933594 -44.189733833648575 53.9
      vertex 38.99078638643152 -44.59939610786168 53.9
      vertex 38.817263330891926 -44.38802280592333 53.9
    endloop
  endfacet
  facet normal 0 0 -1
    outer loop
      vertex 38.84336856933594 -44.189733833648575 53.9
      vertex 38.90692914989527 -44.19389981419698 53.9
      vertex 38.99078638643152 -44.59939610786168 53.9
    endloop
  endfacet
  facet normal 0 0 -1
    outer loop
      vertex 39.73051371481046 -43.95202400834948 53.9
      vertex 39.78522778252094 -44.255849512002584 53.9
      vertex 39.677551627641 -43.987412143615735 53.9
    endloop
  endfacet
  facet normal 0 0 -1
    outer loop
      vertex 39.73051371481046 -43.95202400834948 53.9
      vertex 39.754154331865124 -43.98283306032474 53.9
      vertex 39.78522778252094 -44.255849512002584 53.9
    endloop
  endfacet
  facet normal 0 0 -1
    outer loop
      vertex 39.95202400834948 -43.73051371481046 53.9
      vertex 39.95778242875862 -43.7427461997315 53.9
      vertex 39.962042377473296 -43.880920024383016 53.9
    endloop
  endfacet
  facet normal 0 0 -1
    outer loop
      vertex 39.95202400834948 -43.73051371481046 53.9
      vertex 39.962042377473296 -43.880920024383016 53.9
      vertex 39.91709092991988 -43.77034725642045 53.9
    endloop
  endfacet
  facet normal 0 0 -1
    outer loop
      vertex 40.108655439013546 -43.45922011883811 53.9
      vertex 40.131370849898474 -43.525905115052524 53.9
      vertex 40.131370849898474 -43.84715130404757 53.9
    endloop
  endfacet
  facet normal 0 0 -1
    outer loop
      vertex 40.108655439013546 -43.45922011883811 53.9
      vertex 40.131370849898474 -43.84715130404757 53.9
      vertex 40.08981926094243 -43.49741610946649 53.9
    endloop
  endfacet
  facet normal 0 0 -1
    outer loop
      vertex 40.15911099154688 -43.31058285412303 53.9
      vertex 40.2474656802271 -43.63989397716578 53.9
      vertex 40.26057548523195 -43.83991094974791 53.9
    endloop
  endfacet
  facet normal 0 0 -1
    outer loop
      vertex 40.15911099154688 -43.31058285412303 53.9
      vertex 40.26057548523195 -43.83991094974791 53.9
      vertex 40.131370849898474 -43.392302676231886 53.9
    endloop
  endfacet
  facet normal 0 0 -1
    outer loop
      vertex 40.15911099154688 -43.31058285412303 53.9
      vertex 40.189733833648575 -43.15663143066406 53.9
      vertex 40.2474656802271 -43.63989397716578 53.9
    endloop
  endfacet
  facet normal 0 0 -1
    outer loop
      vertex 40.189733833648575 -43.15663143066406 53.9
      vertex 40.22022930056903 -43.224347124921444 53.9
      vertex 40.2474656802271 -43.63989397716578 53.9
    endloop
  endfacet
  facet normal 0 0 -1
    outer loop
      vertex 38.26948628518954 -42.04797599165052 53.9
      vertex 38.21477221747906 -41.744150487997416 53.9
      vertex 38.322448372359 -42.012587856384265 53.9
    endloop
  endfacet
  facet normal 0 0 -1
    outer loop
      vertex 38.26948628518954 -42.04797599165052 53.9
      vertex 38.245845668134876 -42.01716693967526 53.9
      vertex 38.21477221747906 -41.744150487997416 53.9
    endloop
  endfacet
  facet normal 0 0 -1
    outer loop
      vertex 40.189733833648575 -42.84336856933594 53.9
      vertex 40.18050689379541 -42.61830031159401 53.9
      vertex 40.18844481711217 -42.73940961793527 53.9
    endloop
  endfacet
  facet normal 0 0 -1
    outer loop
      vertex 40.189733833648575 -42.84336856933594 53.9
      vertex 40.15911099154688 -42.68941714587697 53.9
      vertex 40.18050689379541 -42.61830031159401 53.9
    endloop
  endfacet
  facet normal 0 0 -1
    outer loop
      vertex 40.15911099154688 -42.68941714587697 53.9
      vertex 40.15327051413735 -42.2027534593497 53.9
      vertex 40.18050689379541 -42.61830031159401 53.9
    endloop
  endfacet
  facet normal 0 0 -1
    outer loop
      vertex 40.15911099154688 -42.68941714587697 53.9
      vertex 40.108655439013546 -42.54077988116189 53.9
      vertex 40.15327051413735 -42.2027534593497 53.9
    endloop
  endfacet
  facet normal 0 0 -1
    outer loop
      vertex 39.45922011883811 -41.891344560986454 53.9
      vertex 39.398903547649375 -41.870869844016404 53.9
      vertex 39.4334340231677 -41.5837106175641 53.9
    endloop
  endfacet
  facet normal 0 0 -1
    outer loop
      vertex 39.45922011883811 -41.891344560986454 53.9
      vertex 39.4334340231677 -41.5837106175641 53.9
      vertex 39.47408123198786 -41.85546666006836 53.9
    endloop
  endfacet
  facet normal 0 0 -1
    outer loop
      vertex 39.73051371481046 -42.04797599165052 53.9
      vertex 39.62795739309025 -41.52951732926485 53.9
      vertex 39.78522778252094 -41.744150487997416 53.9
    endloop
  endfacet
  facet normal 0 0 -1
    outer loop
      vertex 39.95202400834948 -42.26948628518954 53.9
      vertex 39.848528137423855 -42.151471862576145 53.9
      vertex 39.92660978765472 -42.14621162704519 53.9
    endloop
  endfacet
  facet normal 0 0 -1
    outer loop
      vertex 40.03923048454133 -42.4 53.9
      vertex 40.131370849898474 -41.9393331229151 53.9
      vertex 40.131370849898474 -42.15284869595243 53.9
    endloop
  endfacet
  facet normal 0 0 -1
    outer loop
      vertex 39.848528137423855 -42.151471862576145 53.9
      vertex 39.838828835136624 -42.0010446402582 53.9
      vertex 39.92660978765472 -42.14621162704519 53.9
    endloop
  endfacet
  facet normal 0 0 -1
    outer loop
      vertex 40.03923048454133 -42.4 53.9
      vertex 39.99180768749285 -41.74623554157096 53.9
      vertex 40.131370849898474 -41.9393331229151 53.9
    endloop
  endfacet
  facet normal 0 0 -1
    outer loop
      vertex 40.03923048454133 -42.4 53.9
      vertex 39.980911237761134 -41.835800770522695 53.9
      vertex 39.99180768749285 -41.74623554157096 53.9
    endloop
  endfacet
  facet normal 0 0 -1
    outer loop
      vertex 39.15663143066406 -41.810266166351425 53.9
      vertex 39 -41.8 53.9
      vertex 39 -41.4 53.9
    endloop
  endfacet
  facet normal 0 0 -1
    outer loop
      vertex 39.15663143066406 -41.810266166351425 53.9
      vertex 39.00921361356848 -41.40060389213832 53.9
      vertex 39.182736669108074 -41.61197719407667 53.9
    endloop
  endfacet
  facet normal 0 0 -1
    outer loop
      vertex 39.15663143066406 -41.810266166351425 53.9
      vertex 39 -41.4 53.9
      vertex 39.00921361356848 -41.40060389213832 53.9
    endloop
  endfacet
  facet normal 0 0 -1
    outer loop
      vertex 39.73051371481046 -42.04797599165052 53.9
      vertex 39.618728765733756 -41.56489383070262 53.9
      vertex 39.62795739309025 -41.52951732926485 53.9
    endloop
  endfacet
  facet normal 0 0 -1
    outer loop
      vertex -94.73051371481047 44.04797599165052 53.9
      vertex -94.61872876573375 43.56489383070262 53.9
      vertex -94.62795739309026 43.52951732926486 53.9
    endloop
  endfacet
  facet normal 0 0 -1
    outer loop
      vertex -94.15663143066406 43.810266166351425 53.9
      vertex -94.00921361356848 43.40060389213833 53.9
      vertex -94.20884190755208 43.413688221801905 53.9
    endloop
  endfacet
  facet normal 0 0 -1
    outer loop
      vertex -94.15663143066406 43.810266166351425 53.9
      vertex -94.09307085010474 43.80610018580302 53.9
      vertex -94.00921361356848 43.40060389213833 53.9
    endloop
  endfacet
  facet normal 0 0 -1
    outer loop
      vertex -93.4 43.96076951545868 53.9
      vertex -93.2 43.614359353944906 53.9
      vertex -93.37942533873574 43.525876568833255 53.9
    endloop
  endfacet
  facet normal 0 0 -1
    outer loop
      vertex -95.03923048454132 44.400000000000006 53.9
      vertex -94.98091123776113 43.83580077052274 53.9
      vertex -94.99180768749285 43.746235541570975 53.9
    endloop
  endfacet
  facet normal 0 0 -1
    outer loop
      vertex -95.03923048454132 44.400000000000006 53.9
      vertex -94.99180768749285 43.746235541570975 53.9
      vertex -95.13137084989847 43.93933312291507 53.9
    endloop
  endfacet
  facet normal 0 0 -1
    outer loop
      vertex -94.73051371481047 44.04797599165052 53.9
      vertex -94.80075439908077 43.657931672732545 53.9
      vertex -94.83882883513662 44.00104464025821 53.9
    endloop
  endfacet
  facet normal 0 0 -1
    outer loop
      vertex -94.73051371481047 44.04797599165052 53.9
      vertex -94.83882883513662 44.00104464025821 53.9
      vertex -94.84852813742386 44.151471862576145 53.9
    endloop
  endfacet
  facet normal 0 0 -1
    outer loop
      vertex -95.03923048454132 44.400000000000006 53.9
      vertex -95.13137084989847 43.93933312291507 53.9
      vertex -95.13137084989847 44.152848695952365 53.9
    endloop
  endfacet
  facet normal 0 0 -1
    outer loop
      vertex -94.73051371481047 44.04797599165052 53.9
      vertex -94.62795739309026 43.52951732926486 53.9
      vertex -94.78522778252095 43.744150487997445 53.9
    endloop
  endfacet
  facet normal 0 0 -1
    outer loop
      vertex -95.15911099154688 44.68941714587697 53.9
      vertex -95.15327051413735 44.202753459349594 53.9
      vertex -95.18050689379541 44.61830031159384 53.9
    endloop
  endfacet
  facet normal 0 0 -1
    outer loop
      vertex -95.10865543901355 44.54077988116188 53.9
      vertex -95.15327051413735 44.202753459349594 53.9
      vertex -95.15911099154688 44.68941714587697 53.9
    endloop
  endfacet
  facet normal 0 0 -1
    outer loop
      vertex -95.15911099154688 44.68941714587697 53.9
      vertex -95.18050689379541 44.61830031159384 53.9
      vertex -95.18973383364857 44.84336856933594 53.9
    endloop
  endfacet
  facet normal 0 0 -1
    outer loop
      vertex -95.18973383364857 44.84336856933594 53.9
      vertex -95.18050689379541 44.61830031159384 53.9
      vertex -95.18844481711216 44.73940961793504 53.9
    endloop
  endfacet
  facet normal 0 0 -1
    outer loop
      vertex -93.4 43.96076951545868 53.9
      vertex -93.37942533873574 43.525876568833255 53.9
      vertex -93.45712806771787 43.932597070165606 53.9
    endloop
  endfacet
  facet normal 0 0 -1
    outer loop
      vertex -93.26948628518953 44.04797599165052 53.9
      vertex -93.21477221747905 43.744150487997445 53.9
      vertex -93.322448372359 44.01258785638426 53.9
    endloop
  endfacet
  facet normal 0 0 -1
    outer loop
      vertex -93.26948628518953 44.04797599165052 53.9
      vertex -93.24584566813488 44.01716693967528 53.9
      vertex -93.21477221747905 43.744150487997445 53.9
    endloop
  endfacet
  facet normal 0 0 -1
    outer loop
      vertex -95.18973383364857 45.15663143066406 53.9
      vertex -95.22022930056904 45.22434712492163 53.9
      vertex -95.24746568022711 45.63989397716587 53.9
    endloop
  endfacet
  facet normal 0 0 -1
    outer loop
      vertex -95.18973383364857 45.15663143066406 53.9
      vertex -95.24746568022711 45.63989397716587 53.9
      vertex -95.15911099154688 45.31058285412303 53.9
    endloop
  endfacet
  facet normal 0 0 -1
    outer loop
      vertex -95.15911099154688 45.31058285412303 53.9
      vertex -95.26057548523197 45.83991094974795 53.9
      vertex -95.13137084989847 45.39230267623189 53.9
    endloop
  endfacet
  facet normal 0 0 -1
    outer loop
      vertex -95.15911099154688 45.31058285412303 53.9
      vertex -95.24746568022711 45.63989397716587 53.9
      vertex -95.26057548523197 45.83991094974795 53.9
    endloop
  endfacet
  facet normal 0 0 -1
    outer loop
      vertex -95.10865543901355 45.45922011883812 53.9
      vertex -95.13137084989847 45.525905115052524 53.9
      vertex -95.13137084989847 45.847151304047635 53.9
    endloop
  endfacet
  facet normal 0 0 -1
    outer loop
      vertex -95.10865543901355 45.45922011883812 53.9
      vertex -95.13137084989847 45.847151304047635 53.9
      vertex -95.08981926094242 45.49741610946649 53.9
    endloop
  endfacet
  facet normal 0 0 -1
    outer loop
      vertex -94.95202400834948 45.730513714810456 53.9
      vertex -94.9620423774733 45.88092002438295 53.9
      vertex -94.91709092991988 45.77034725642044 53.9
    endloop
  endfacet
  facet normal 0 0 -1
    outer loop
      vertex -94.95202400834948 45.730513714810456 53.9
      vertex -94.95778242875862 45.74274619973149 53.9
      vertex -94.9620423774733 45.88092002438295 53.9
    endloop
  endfacet
  facet normal 0 0 -1
    outer loop
      vertex -94.73051371481047 45.95202400834948 53.9
      vertex -94.75415433186512 45.98283306032472 53.9
      vertex -94.78522778252095 46.255849512002555 53.9
    endloop
  endfacet
  facet normal 0 0 -1
    outer loop
      vertex -94.73051371481047 45.95202400834948 53.9
      vertex -94.78522778252095 46.255849512002555 53.9
      vertex -94.677551627641 45.98741214361574 53.9
    endloop
  endfacet
  facet normal 0 0 -1
    outer loop
      vertex -94.6 46.03923048454132 53.9
      vertex -94.62057466126426 46.474123431166745 53.9
      vertex -94.54287193228213 46.067402929834394 53.9
    endloop
  endfacet
  facet normal 0 0 -1
    outer loop
      vertex -94.6 46.03923048454132 53.9
      vertex -94.8 46.385640646055094 53.9
      vertex -94.62057466126426 46.474123431166745 53.9
    endloop
  endfacet
  facet normal 0 0 -1
    outer loop
      vertex -93.84336856933594 46.189733833648575 53.9
      vertex -93.90692914989526 46.19389981419698 53.9
      vertex -93.99078638643152 46.59939610786167 53.9
    endloop
  endfacet
  facet normal 0 0 -1
    outer loop
      vertex -93.84336856933594 46.189733833648575 53.9
      vertex -93.99078638643152 46.59939610786167 53.9
      vertex -93.79115809244792 46.586311778198095 53.9
    endloop
  endfacet
  facet normal 0 0 -1
    outer loop
      vertex -93.5407798811619 46.108655439013546 53.9
      vertex -93.60109645235062 46.129130155983596 53.9
      vertex -93.5665659768323 46.416289382435764 53.9
    endloop
  endfacet
  facet normal 0 0 -1
    outer loop
      vertex -93.5407798811619 46.108655439013546 53.9
      vertex -93.5665659768323 46.416289382435764 53.9
      vertex -93.52591876801215 46.14453333993164 53.9
    endloop
  endfacet
  facet normal 0 0 -1
    outer loop
      vertex -93.15147186257614 45.848528137423855 53.9
      vertex -93.26948628518953 45.95202400834948 53.9
      vertex -93.16117116486338 45.99895535974179 53.9
    endloop
  endfacet
  facet normal 0 0 -1
    outer loop
      vertex -93.26948628518953 45.95202400834948 53.9
      vertex -93.31353872703902 45.981458908941484 53.9
      vertex -93.37204260690974 46.47048267073514 53.9
    endloop
  endfacet
  facet normal 0 0 -1
    outer loop
      vertex -93.26948628518953 45.95202400834948 53.9
      vertex -93.37204260690974 46.47048267073514 53.9
      vertex -93.21477221747905 46.255849512002555 53.9
    endloop
  endfacet
  facet normal 0 0 -1
    outer loop
      vertex -93.26948628518953 45.95202400834948 53.9
      vertex -93.19924560091923 46.342068327267455 53.9
      vertex -93.16117116486338 45.99895535974179 53.9
    endloop
  endfacet
  facet normal 0 0 -1
    outer loop
      vertex -93.04797599165052 44.269486285189544 53.9
      vertex -93.04221757124138 44.25725380026851 53.9
      vertex -93.0379576225267 44.11907997561705 53.9
    endloop
  endfacet
  facet normal 0 0 -1
    outer loop
      vertex -93.04797599165052 44.269486285189544 53.9
      vertex -93.0379576225267 44.11907997561705 53.9
      vertex -93.08290907008012 44.22965274357956 53.9
    endloop
  endfacet
  facet normal 0 0 -1
    outer loop
      vertex -92.89134456098645 44.54077988116188 53.9
      vertex -92.86862915010153 44.152848695952365 53.9
      vertex -92.91018073905758 44.50258389053351 53.9
    endloop
  endfacet
  facet normal 0 0 -1
    outer loop
      vertex -92.89134456098645 44.54077988116188 53.9
      vertex -92.86862915010153 44.474094884947476 53.9
      vertex -92.86862915010153 44.152848695952365 53.9
    endloop
  endfacet
  facet normal 0 0 -1
    outer loop
      vertex -92.84088900845312 44.68941714587697 53.9
      vertex -92.75253431977289 44.36010602283413 53.9
      vertex -92.73942451476803 44.16008905025205 53.9
    endloop
  endfacet
  facet normal 0 0 -1
    outer loop
      vertex -92.84088900845312 44.68941714587697 53.9
      vertex -92.73942451476803 44.16008905025205 53.9
      vertex -92.86862915010153 44.60769732376811 53.9
    endloop
  endfacet
  facet normal 0 0 -1
    outer loop
      vertex -92.84088900845312 44.68941714587697 53.9
      vertex -92.81026616635143 44.84336856933594 53.9
      vertex -92.75253431977289 44.36010602283413 53.9
    endloop
  endfacet
  facet normal 0 0 -1
    outer loop
      vertex -92.81026616635143 44.84336856933594 53.9
      vertex -92.77977069943096 44.77565287507837 53.9
      vertex -92.75253431977289 44.36010602283413 53.9
    endloop
  endfacet
  facet normal 0 0 -1
    outer loop
      vertex -92.81026616635143 45.15663143066406 53.9
      vertex -92.81949310620459 45.38169968840616 53.9
      vertex -92.81155518288784 45.26059038206496 53.9
    endloop
  endfacet
  facet normal 0 0 -1
    outer loop
      vertex -92.84088900845312 45.31058285412303 53.9
      vertex -92.81949310620459 45.38169968840616 53.9
      vertex -92.81026616635143 45.15663143066406 53.9
    endloop
  endfacet
  facet normal 0 0 -1
    outer loop
      vertex -92.84088900845312 45.31058285412303 53.9
      vertex -92.84672948586265 45.797246540650406 53.9
      vertex -92.81949310620459 45.38169968840616 53.9
    endloop
  endfacet
  facet normal 0 0 -1
    outer loop
      vertex -92.84088900845312 45.31058285412303 53.9
      vertex -92.89134456098645 45.45922011883812 53.9
      vertex -92.84672948586265 45.797246540650406 53.9
    endloop
  endfacet
  facet normal 0 0 -1
    outer loop
      vertex -93.04797599165052 45.730513714810456 53.9
      vertex -93.15147186257614 45.848528137423855 53.9
      vertex -93.07339021234529 45.8537883729548 53.9
    endloop
  endfacet
  facet normal 0 0 -1
    outer loop
      vertex -92.96076951545868 45.599999999999994 53.9
      vertex -92.86862915010153 46.06066687708493 53.9
      vertex -92.86862915010153 45.847151304047635 53.9
    endloop
  endfacet
  facet normal 0 0 -1
    outer loop
      vertex -92.96076951545868 45.599999999999994 53.9
      vertex -92.98443012463 45.63541060403397 53.9
      vertex -93.00819231250715 46.253764458429025 53.9
    endloop
  endfacet
  facet normal 0 0 -1
    outer loop
      vertex -93.15147186257614 45.848528137423855 53.9
      vertex -93.16117116486338 45.99895535974179 53.9
      vertex -93.07339021234529 45.8537883729548 53.9
    endloop
  endfacet
  facet normal 0 0 -1
    outer loop
      vertex -92.96076951545868 45.599999999999994 53.9
      vertex -93.00819231250715 46.253764458429025 53.9
      vertex -92.86862915010153 46.06066687708493 53.9
    endloop
  endfacet
  facet normal 0 0 -1
    outer loop
      vertex 38.26948628518954 44.04797599165052 53.9
      vertex 38.381271234266244 43.56489383070263 53.9
      vertex 38.37204260690975 43.529517329264856 53.9
    endloop
  endfacet
  facet normal 0 0 -1
    outer loop
      vertex 38.84336856933594 43.810266166351425 53.9
      vertex 38.99078638643152 43.40060389213833 53.9
      vertex 38.817263330891926 43.61197719407667 53.9
    endloop
  endfacet
  facet normal 0 0 -1
    outer loop
      vertex 38.84336856933594 43.810266166351425 53.9
      vertex 38.90692914989527 43.80610018580302 53.9
      vertex 38.99078638643152 43.40060389213833 53.9
    endloop
  endfacet
  facet normal 0 0 -1
    outer loop
      vertex 37.96076951545867 44.400000000000006 53.9
      vertex 38.019088762238866 43.835800770522695 53.9
      vertex 38.00819231250715 43.74623554157097 53.9
    endloop
  endfacet
  facet normal 0 0 -1
    outer loop
      vertex 37.96076951545867 44.400000000000006 53.9
      vertex 38.00819231250715 43.74623554157097 53.9
      vertex 37.868629150101526 43.93933312291511 53.9
    endloop
  endfacet
  facet normal 0 0 -1
    outer loop
      vertex 37.96076951545867 44.400000000000006 53.9
      vertex 37.868629150101526 43.93933312291511 53.9
      vertex 37.868629150101526 44.152848695952436 53.9
    endloop
  endfacet
  facet normal 0 0 -1
    outer loop
      vertex 37.891344560986454 44.54077988116188 53.9
      vertex 37.84672948586265 44.202753459349694 53.9
      vertex 37.84088900845312 44.68941714587697 53.9
    endloop
  endfacet
  facet normal 0 0 -1
    outer loop
      vertex 37.84088900845312 44.68941714587697 53.9
      vertex 37.84672948586265 44.202753459349694 53.9
      vertex 37.81949310620459 44.618300311594005 53.9
    endloop
  endfacet
  facet normal 0 0 -1
    outer loop
      vertex 37.84088900845312 44.68941714587697 53.9
      vertex 37.81949310620459 44.618300311594005 53.9
      vertex 37.810266166351425 44.84336856933594 53.9
    endloop
  endfacet
  facet normal 0 0 -1
    outer loop
      vertex 37.810266166351425 44.84336856933594 53.9
      vertex 37.81949310620459 44.618300311594005 53.9
      vertex 37.81155518288783 44.739409617935266 53.9
    endloop
  endfacet
  facet normal 0 0 -1
    outer loop
      vertex 37.810266166351425 45.15663143066406 53.9
      vertex 37.77977069943097 45.224347124921444 53.9
      vertex 37.7525343197729 45.63989397716577 53.9
    endloop
  endfacet
  facet normal 0 0 -1
    outer loop
      vertex 37.810266166351425 45.15663143066406 53.9
      vertex 37.7525343197729 45.63989397716577 53.9
      vertex 37.84088900845312 45.31058285412303 53.9
    endloop
  endfacet
  facet normal 0 0 -1
    outer loop
      vertex 37.84088900845312 45.31058285412303 53.9
      vertex 37.73942451476805 45.8399109497479 53.9
      vertex 37.868629150101526 45.39230267623189 53.9
    endloop
  endfacet
  facet normal 0 0 -1
    outer loop
      vertex 37.84088900845312 45.31058285412303 53.9
      vertex 37.7525343197729 45.63989397716577 53.9
      vertex 37.73942451476805 45.8399109497479 53.9
    endloop
  endfacet
  facet normal 0 0 -1
    outer loop
      vertex 37.891344560986454 45.45922011883812 53.9
      vertex 37.868629150101526 45.525905115052524 53.9
      vertex 37.868629150101526 45.847151304047564 53.9
    endloop
  endfacet
  facet normal 0 0 -1
    outer loop
      vertex 37.891344560986454 45.45922011883812 53.9
      vertex 37.868629150101526 45.847151304047564 53.9
      vertex 37.91018073905757 45.49741610946649 53.9
    endloop
  endfacet
  facet normal 0 0 -1
    outer loop
      vertex 38.04797599165052 45.730513714810456 53.9
      vertex 38.037957622526704 45.880920024383 53.9
      vertex 38.08290907008012 45.77034725642044 53.9
    endloop
  endfacet
  facet normal 0 0 -1
    outer loop
      vertex 38.04797599165052 45.730513714810456 53.9
      vertex 38.04221757124138 45.74274619973149 53.9
      vertex 38.037957622526704 45.880920024383 53.9
    endloop
  endfacet
  facet normal 0 0 -1
    outer loop
      vertex 38.26948628518954 44.04797599165052 53.9
      vertex 38.19924560091922 43.65793167273253 53.9
      vertex 38.161171164863376 44.00104464025821 53.9
    endloop
  endfacet
  facet normal 0 0 -1
    outer loop
      vertex 38.26948628518954 44.04797599165052 53.9
      vertex 38.37204260690975 43.529517329264856 53.9
      vertex 38.21477221747905 43.74415048799741 53.9
    endloop
  endfacet
  facet normal 0 0 -1
    outer loop
      vertex 38.151471862576145 44.151471862576145 53.9
      vertex 38.26948628518954 44.04797599165052 53.9
      vertex 38.161171164863376 44.00104464025821 53.9
    endloop
  endfacet
  facet normal 0 0 -1
    outer loop
      vertex 38.54077988116189 43.891344560986454 53.9
      vertex 38.5665659768323 43.58371061756411 53.9
      vertex 38.52591876801214 43.85546666006836 53.9
    endloop
  endfacet
  facet normal 0 0 -1
    outer loop
      vertex 38.54077988116189 43.891344560986454 53.9
      vertex 38.601096452350625 43.870869844016404 53.9
      vertex 38.5665659768323 43.58371061756411 53.9
    endloop
  endfacet
  facet normal 0 0 -1
    outer loop
      vertex 39.73051371481046 44.04797599165052 53.9
      vertex 39.78522778252095 43.74415048799741 53.9
      vertex 39.677551627641 44.012587856384265 53.9
    endloop
  endfacet
  facet normal 0 0 -1
    outer loop
      vertex 39.73051371481046 44.04797599165052 53.9
      vertex 39.754154331865124 44.01716693967526 53.9
      vertex 39.78522778252095 43.74415048799741 53.9
    endloop
  endfacet
  facet normal 0 0 -1
    outer loop
      vertex 39.95202400834948 44.269486285189544 53.9
      vertex 39.95778242875862 44.25725380026851 53.9
      vertex 39.962042377473296 44.119079975617 53.9
    endloop
  endfacet
  facet normal 0 0 -1
    outer loop
      vertex 39.95202400834948 44.269486285189544 53.9
      vertex 39.962042377473296 44.119079975617 53.9
      vertex 39.91709092991988 44.22965274357956 53.9
    endloop
  endfacet
  facet normal 0 0 -1
    outer loop
      vertex 40.108655439013546 44.54077988116188 53.9
      vertex 40.131370849898474 44.474094884947476 53.9
      vertex 40.131370849898474 44.152848695952436 53.9
    endloop
  endfacet
  facet normal 0 0 -1
    outer loop
      vertex 40.108655439013546 44.54077988116188 53.9
      vertex 40.131370849898474 44.152848695952436 53.9
      vertex 40.08981926094243 44.50258389053351 53.9
    endloop
  endfacet
  facet normal 0 0 -1
    outer loop
      vertex 40.15911099154688 44.68941714587697 53.9
      vertex 40.2474656802271 44.36010602283423 53.9
      vertex 40.26057548523195 44.1600890502521 53.9
    endloop
  endfacet
  facet normal 0 0 -1
    outer loop
      vertex 40.15911099154688 44.68941714587697 53.9
      vertex 40.26057548523195 44.1600890502521 53.9
      vertex 40.131370849898474 44.60769732376811 53.9
    endloop
  endfacet
  facet normal 0 0 -1
    outer loop
      vertex 40.15911099154688 44.68941714587697 53.9
      vertex 40.189733833648575 44.84336856933594 53.9
      vertex 40.2474656802271 44.36010602283423 53.9
    endloop
  endfacet
  facet normal 0 0 -1
    outer loop
      vertex 40.189733833648575 44.84336856933594 53.9
      vertex 40.22022930056903 44.775652875078556 53.9
      vertex 40.2474656802271 44.36010602283423 53.9
    endloop
  endfacet
  facet normal 0 0 -1
    outer loop
      vertex 38.26948628518954 45.95202400834948 53.9
      vertex 38.245845668134876 45.98283306032474 53.9
      vertex 38.21477221747905 46.25584951200259 53.9
    endloop
  endfacet
  facet normal 0 0 -1
    outer loop
      vertex 38.26948628518954 45.95202400834948 53.9
      vertex 38.21477221747905 46.25584951200259 53.9
      vertex 38.322448372359 45.987412143615735 53.9
    endloop
  endfacet
  facet normal 0 0 -1
    outer loop
      vertex 39.15663143066406 46.189733833648575 53.9
      vertex 39.09307085010473 46.19389981419698 53.9
      vertex 39.00921361356848 46.59939610786167 53.9
    endloop
  endfacet
  facet normal 0 0 -1
    outer loop
      vertex 39.15663143066406 46.189733833648575 53.9
      vertex 39.00921361356848 46.59939610786167 53.9
      vertex 39.182736669108074 46.38802280592333 53.9
    endloop
  endfacet
  facet normal 0 0 -1
    outer loop
      vertex 40.189733833648575 45.15663143066406 53.9
      vertex 40.18050689379541 45.381699688405995 53.9
      vertex 40.18844481711217 45.260590382064734 53.9
    endloop
  endfacet
  facet normal 0 0 -1
    outer loop
      vertex 40.189733833648575 45.15663143066406 53.9
      vertex 40.15911099154688 45.31058285412303 53.9
      vertex 40.18050689379541 45.381699688405995 53.9
    endloop
  endfacet
  facet normal 0 0 -1
    outer loop
      vertex 40.15911099154688 45.31058285412303 53.9
      vertex 40.15327051413735 45.797246540650306 53.9
      vertex 40.18050689379541 45.381699688405995 53.9
    endloop
  endfacet
  facet normal 0 0 -1
    outer loop
      vertex 40.15911099154688 45.31058285412303 53.9
      vertex 40.108655439013546 45.45922011883812 53.9
      vertex 40.15327051413735 45.797246540650306 53.9
    endloop
  endfacet
  facet normal 0 0 -1
    outer loop
      vertex 39.95202400834948 45.730513714810456 53.9
      vertex 39.848528137423855 45.848528137423855 53.9
      vertex 39.92660978765472 45.8537883729548 53.9
    endloop
  endfacet
  facet normal 0 0 -1
    outer loop
      vertex 40.03923048454133 45.599999999999994 53.9
      vertex 40.131370849898474 46.06066687708489 53.9
      vertex 40.131370849898474 45.847151304047564 53.9
    endloop
  endfacet
  facet normal 0 0 -1
    outer loop
      vertex 39.45922011883811 46.108655439013546 53.9
      vertex 39.398903547649375 46.129130155983596 53.9
      vertex 39.4334340231677 46.41628938243589 53.9
    endloop
  endfacet
  facet normal 0 0 -1
    outer loop
      vertex 39.45922011883811 46.108655439013546 53.9
      vertex 39.4334340231677 46.41628938243589 53.9
      vertex 39.47408123198786 46.14453333993164 53.9
    endloop
  endfacet
  facet normal 0 0 -1
    outer loop
      vertex 39.73051371481046 45.95202400834948 53.9
      vertex 39.68646127296099 45.981458908941484 53.9
      vertex 39.62795739309025 46.470482670735144 53.9
    endloop
  endfacet
  facet normal 0 0 -1
    outer loop
      vertex 39.73051371481046 45.95202400834948 53.9
      vertex 39.62795739309025 46.470482670735144 53.9
      vertex 39.78522778252095 46.25584951200259 53.9
    endloop
  endfacet
  facet normal 0 0 -1
    outer loop
      vertex 39.848528137423855 45.848528137423855 53.9
      vertex 39.838828835136624 45.99895535974179 53.9
      vertex 39.92660978765472 45.8537883729548 53.9
    endloop
  endfacet
  facet normal 0 0 -1
    outer loop
      vertex 40.03923048454133 45.599999999999994 53.9
      vertex 39.99180768749285 46.25376445842903 53.9
      vertex 40.131370849898474 46.06066687708489 53.9
    endloop
  endfacet
  facet normal 0 0 -1
    outer loop
      vertex 40.03923048454133 45.599999999999994 53.9
      vertex 39.980911237761134 46.164199229477305 53.9
      vertex 39.99180768749285 46.25376445842903 53.9
    endloop
  endfacet
  facet normal 0 0 1
    outer loop
      vertex -95.13137084989847 -44.060666877084934 53.9
      vertex -95.00233198191678 -43.83738182869349 53.9
      vertex -95.13137084989847 -43.847151304047635 53.9
    endloop
  endfacet
  facet normal 0 0 1
    outer loop
      vertex -94.80075439908077 -44.34206832726746 53.9
      vertex -94.73051371481047 -43.95202400834948 53.9
      vertex -94.84852813742386 -43.848528137423855 53.9
    endloop
  endfacet
  facet normal 0 0 1
    outer loop
      vertex -94.83882883513662 -43.9989553597418 53.9
      vertex -94.80075439908077 -44.34206832726746 53.9
      vertex -94.84852813742386 -43.848528137423855 53.9
    endloop
  endfacet
  facet normal 0 0 1
    outer loop
      vertex -94.6194169800583 -44.072861680531865 53.9
      vertex -94.61458879518523 -44.3475983378117 53.9
      vertex -94.54287193228213 -44.067402929834394 53.9
    endloop
  endfacet
  facet normal 0 0 1
    outer loop
      vertex -94.6194169800583 -44.072861680531865 53.9
      vertex -94.54287193228213 -44.067402929834394 53.9
      vertex -94.6 -44.03923048454133 53.9
    endloop
  endfacet
  facet normal 0 0 1
    outer loop
      vertex -95.13137084989847 -43.847151304047635 53.9
      vertex -95.00233198191678 -43.83738182869349 53.9
      vertex -95.03923048454132 -43.6 53.9
    endloop
  endfacet
  facet normal 0 0 1
    outer loop
      vertex -95.18050689379541 -43.38169968840616 53.9
      vertex -95.15327051413735 -43.797246540650406 53.9
      vertex -95.10865543901355 -43.45922011883811 53.9
    endloop
  endfacet
  facet normal 0 0 1
    outer loop
      vertex -95.18050689379541 -43.38169968840616 53.9
      vertex -95.10865543901355 -43.45922011883811 53.9
      vertex -95.15911099154688 -43.31058285412303 53.9
    endloop
  endfacet
  facet normal 0 0 1
    outer loop
      vertex -95.18844481711216 -43.260590382064954 53.9
      vertex -95.18050689379541 -43.38169968840616 53.9
      vertex -95.15911099154688 -43.31058285412303 53.9
    endloop
  endfacet
  facet normal 0 0 1
    outer loop
      vertex -95.18844481711216 -43.260590382064954 53.9
      vertex -95.15911099154688 -43.31058285412303 53.9
      vertex -95.18973383364857 -43.15663143066406 53.9
    endloop
  endfacet
  facet normal 0 0 1
    outer loop
      vertex -93.99078638643152 -44.59939610786168 53.9
      vertex -93.79115809244792 -44.586311778198095 53.9
      vertex -93.90692914989526 -44.19389981419698 53.9
    endloop
  endfacet
  facet normal 0 0 1
    outer loop
      vertex -93.79115809244792 -44.586311778198095 53.9
      vertex -93.84336856933594 -44.189733833648575 53.9
      vertex -93.90692914989526 -44.19389981419698 53.9
    endloop
  endfacet
  facet normal 0 0 1
    outer loop
      vertex -93.5771461593233 -44.54251334838407 53.9
      vertex -93.38770650821586 -44.47820725201806 53.9
      vertex -93.60109645235062 -44.129130155983596 53.9
    endloop
  endfacet
  facet normal 0 0 1
    outer loop
      vertex -93.38770650821586 -44.47820725201806 53.9
      vertex -93.54077988116188 -44.10865543901354 53.9
      vertex -93.60109645235062 -44.129130155983596 53.9
    endloop
  endfacet
  facet normal 0 0 1
    outer loop
      vertex -93.37942533873574 -44.47412343116675 53.9
      vertex -93.31563983020214 -44.18534658476634 53.9
      vertex -93.45712806771787 -44.067402929834394 53.9
    endloop
  endfacet
  facet normal 0 0 1
    outer loop
      vertex -93.4 -44.03923048454133 53.9
      vertex -93.45712806771787 -44.067402929834394 53.9
      vertex -93.31563983020214 -44.18534658476634 53.9
    endloop
  endfacet
  facet normal 0 0 1
    outer loop
      vertex -93.29447942199573 -44.07837319931123 53.9
      vertex -93.21477221747907 -44.25584951200254 53.9
      vertex -93.25117947382479 -43.93596936567016 53.9
    endloop
  endfacet
  facet normal 0 0 1
    outer loop
      vertex -93.29447942199573 -44.07837319931123 53.9
      vertex -93.25117947382479 -43.93596936567016 53.9
      vertex -93.26948628518953 -43.95202400834948 53.9
    endloop
  endfacet
  facet normal 0 0 1
    outer loop
      vertex -93.15975930084593 -43.97705865252055 53.9
      vertex -93.13541721989682 -43.83022132605912 53.9
      vertex -93.15147186257614 -43.848528137423855 53.9
    endloop
  endfacet
  facet normal 0 0 1
    outer loop
      vertex -95.22022930056904 -42.77565287507836 53.9
      vertex -95.18973383364857 -42.84336856933594 53.9
      vertex -95.15911099154688 -42.68941714587697 53.9
    endloop
  endfacet
  facet normal 0 0 1
    outer loop
      vertex -95.24746568022711 -42.36010602283412 53.9
      vertex -95.15911099154688 -42.68941714587697 53.9
      vertex -95.13137084989847 -42.607697323768114 53.9
    endloop
  endfacet
  facet normal 0 0 1
    outer loop
      vertex -95.22022930056904 -42.77565287507836 53.9
      vertex -95.15911099154688 -42.68941714587697 53.9
      vertex -95.24746568022711 -42.36010602283412 53.9
    endloop
  endfacet
  facet normal 0 0 1
    outer loop
      vertex -95.24746568022711 -42.36010602283412 53.9
      vertex -95.13137084989847 -42.607697323768114 53.9
      vertex -95.14950888144473 -41.88931161116139 53.9
    endloop
  endfacet
  facet normal 0 0 1
    outer loop
      vertex -95.24746568022711 -42.36010602283412 53.9
      vertex -95.14950888144473 -41.88931161116139 53.9
      vertex -95.26057548523197 -42.16008905025204 53.9
    endloop
  endfacet
  facet normal 0 0 1
    outer loop
      vertex -94.84024069915407 -42.02294134747945 53.9
      vertex -94.86458278010318 -42.16977867394088 53.9
      vertex -94.84852813742386 -42.151471862576145 53.9
    endloop
  endfacet
  facet normal 0 0 1
    outer loop
      vertex -94.84024069915407 -42.02294134747945 53.9
      vertex -94.94243130479144 -41.857387247144125 53.9
      vertex -94.86458278010318 -42.16977867394088 53.9
    endloop
  endfacet
  facet normal 0 0 1
    outer loop
      vertex -94.78522778252093 -41.74415048799746 53.9
      vertex -94.74882052617521 -42.06403063432984 53.9
      vertex -94.70552057800427 -41.92162680068877 53.9
    endloop
  endfacet
  facet normal 0 0 1
    outer loop
      vertex -94.70552057800427 -41.92162680068877 53.9
      vertex -94.74882052617521 -42.06403063432984 53.9
      vertex -94.73051371481047 -42.04797599165052 53.9
    endloop
  endfacet
  facet normal 0 0 1
    outer loop
      vertex -94.61229349178414 -41.52179274798194 53.9
      vertex -94.4592201188381 -41.891344560986454 53.9
      vertex -94.39890354764938 -41.870869844016404 53.9
    endloop
  endfacet
  facet normal 0 0 1
    outer loop
      vertex -93.3805830199417 -41.927138319468135 53.9
      vertex -93.45712806771787 -41.932597070165606 53.9
      vertex -93.4 -41.96076951545867 53.9
    endloop
  endfacet
  facet normal 0 0 1
    outer loop
      vertex -93.16117116486338 -42.0010446402582 53.9
      vertex -93.19924560091923 -41.65793167273254 53.9
      vertex -93.15147186257614 -42.151471862576145 53.9
    endloop
  endfacet
  facet normal 0 0 1
    outer loop
      vertex -93.19924560091923 -41.65793167273254 53.9
      vertex -93.26948628518953 -42.04797599165052 53.9
      vertex -93.15147186257614 -42.151471862576145 53.9
    endloop
  endfacet
  facet normal 0 0 1
    outer loop
      vertex -93.3805830199417 -41.927138319468135 53.9
      vertex -93.38541120481477 -41.6524016621883 53.9
      vertex -93.45712806771787 -41.932597070165606 53.9
    endloop
  endfacet
  facet normal 0 0 1
    outer loop
      vertex -93.15975930084593 -43.97705865252055 53.9
      vertex -93.05756869520856 -44.142612752855875 53.9
      vertex -93.13541721989682 -43.83022132605912 53.9
    endloop
  endfacet
  facet normal 0 0 1
    outer loop
      vertex -92.85049111855527 -44.11068838883861 53.9
      vertex -92.73942451476803 -43.83991094974796 53.9
      vertex -92.75253431977289 -43.63989397716588 53.9
    endloop
  endfacet
  facet normal 0 0 1
    outer loop
      vertex -92.85049111855527 -44.11068838883861 53.9
      vertex -92.75253431977289 -43.63989397716588 53.9
      vertex -92.86862915010153 -43.392302676231886 53.9
    endloop
  endfacet
  facet normal 0 0 1
    outer loop
      vertex -92.75253431977289 -43.63989397716588 53.9
      vertex -92.84088900845312 -43.31058285412303 53.9
      vertex -92.86862915010153 -43.392302676231886 53.9
    endloop
  endfacet
  facet normal 0 0 1
    outer loop
      vertex -92.75253431977289 -43.63989397716588 53.9
      vertex -92.77977069943096 -43.22434712492164 53.9
      vertex -92.84088900845312 -43.31058285412303 53.9
    endloop
  endfacet
  facet normal 0 0 1
    outer loop
      vertex -92.77977069943096 -43.22434712492164 53.9
      vertex -92.81026616635143 -43.15663143066406 53.9
      vertex -92.84088900845312 -43.31058285412303 53.9
    endloop
  endfacet
  facet normal 0 0 1
    outer loop
      vertex -92.81155518288784 -42.739409617935046 53.9
      vertex -92.84088900845312 -42.68941714587697 53.9
      vertex -92.81026616635143 -42.84336856933594 53.9
    endloop
  endfacet
  facet normal 0 0 1
    outer loop
      vertex -92.81949310620459 -42.61830031159384 53.9
      vertex -92.84088900845312 -42.68941714587697 53.9
      vertex -92.81155518288784 -42.739409617935046 53.9
    endloop
  endfacet
  facet normal 0 0 1
    outer loop
      vertex -92.81949310620459 -42.61830031159384 53.9
      vertex -92.89134456098645 -42.54077988116189 53.9
      vertex -92.84088900845312 -42.68941714587697 53.9
    endloop
  endfacet
  facet normal 0 0 1
    outer loop
      vertex -92.86862915010153 -42.152848695952365 53.9
      vertex -92.98443012463 -42.36458939596602 53.9
      vertex -92.96076951545868 -42.4 53.9
    endloop
  endfacet
  facet normal 0 0 1
    outer loop
      vertex -92.86862915010153 -42.152848695952365 53.9
      vertex -92.86862915010153 -41.939333122915066 53.9
      vertex -92.98443012463 -42.36458939596602 53.9
    endloop
  endfacet
  facet normal 0 0 1
    outer loop
      vertex -92.81949310620459 -42.61830031159384 53.9
      vertex -92.84672948586265 -42.202753459349594 53.9
      vertex -92.89134456098645 -42.54077988116189 53.9
    endloop
  endfacet
  facet normal 0 0 1
    outer loop
      vertex -94.61229349178414 -41.52179274798194 53.9
      vertex -94.39890354764938 -41.870869844016404 53.9
      vertex -94.4228538406767 -41.45748665161593 53.9
    endloop
  endfacet
  facet normal 0 0 1
    outer loop
      vertex -94.20884190755208 -41.413688221801905 53.9
      vertex -94.15663143066406 -41.810266166351425 53.9
      vertex -94.09307085010474 -41.80610018580302 53.9
    endloop
  endfacet
  facet normal 0 0 1
    outer loop
      vertex -94.00921361356848 -41.40060389213832 53.9
      vertex -94.20884190755208 -41.413688221801905 53.9
      vertex -94.09307085010474 -41.80610018580302 53.9
    endloop
  endfacet
  facet normal 0 0 1
    outer loop
      vertex 37.868629150101526 -44.0606668770849 53.9
      vertex 38.00819231250715 -44.25376445842904 53.9
      vertex 38.019088762238866 -44.164199229477305 53.9
    endloop
  endfacet
  facet normal 0 0 1
    outer loop
      vertex 37.868629150101526 -44.0606668770849 53.9
      vertex 38.019088762238866 -44.164199229477305 53.9
      vertex 37.868629150101526 -43.84715130404757 53.9
    endloop
  endfacet
  facet normal 0 0 1
    outer loop
      vertex 37.84672948586265 -43.7972465406503 53.9
      vertex 37.891344560986454 -43.45922011883811 53.9
      vertex 37.81949310620459 -43.38169968840599 53.9
    endloop
  endfacet
  facet normal 0 0 1
    outer loop
      vertex 37.868629150101526 -43.84715130404757 53.9
      vertex 38.019088762238866 -44.164199229477305 53.9
      vertex 37.96076951545867 -43.6 53.9
    endloop
  endfacet
  facet normal 0 0 1
    outer loop
      vertex 37.81949310620459 -43.38169968840599 53.9
      vertex 37.891344560986454 -43.45922011883811 53.9
      vertex 37.84088900845312 -43.31058285412303 53.9
    endloop
  endfacet
  facet normal 0 0 1
    outer loop
      vertex 37.81949310620459 -43.38169968840599 53.9
      vertex 37.84088900845312 -43.31058285412303 53.9
      vertex 37.81155518288783 -43.26059038206473 53.9
    endloop
  endfacet
  facet normal 0 0 1
    outer loop
      vertex 37.81155518288783 -43.26059038206473 53.9
      vertex 37.84088900845312 -43.31058285412303 53.9
      vertex 37.810266166351425 -43.15663143066406 53.9
    endloop
  endfacet
  facet normal 0 0 1
    outer loop
      vertex 37.77977069943097 -42.775652875078556 53.9
      vertex 37.810266166351425 -42.84336856933594 53.9
      vertex 37.84088900845312 -42.68941714587697 53.9
    endloop
  endfacet
  facet normal 0 0 1
    outer loop
      vertex 37.7525343197729 -42.36010602283422 53.9
      vertex 37.84088900845312 -42.68941714587697 53.9
      vertex 37.868629150101526 -42.607697323768114 53.9
    endloop
  endfacet
  facet normal 0 0 1
    outer loop
      vertex 37.77977069943097 -42.775652875078556 53.9
      vertex 37.84088900845312 -42.68941714587697 53.9
      vertex 37.7525343197729 -42.36010602283422 53.9
    endloop
  endfacet
  facet normal 0 0 1
    outer loop
      vertex 37.868629150101526 -42.474094884947476 53.9
      vertex 37.891344560986454 -42.54077988116189 53.9
      vertex 37.91018073905757 -42.50258389053351 53.9
    endloop
  endfacet
  facet normal 0 0 1
    outer loop
      vertex 37.7525343197729 -42.36010602283422 53.9
      vertex 37.868629150101526 -42.607697323768114 53.9
      vertex 37.73942451476805 -42.16008905025209 53.9
    endloop
  endfacet
  facet normal 0 0 1
    outer loop
      vertex 37.868629150101526 -42.15284869595243 53.9
      vertex 37.868629150101526 -42.474094884947476 53.9
      vertex 37.91018073905757 -42.50258389053351 53.9
    endloop
  endfacet
  facet normal 0 0 1
    outer loop
      vertex 38.037957622526704 -42.119079975616984 53.9
      vertex 38.04221757124138 -42.2572538002685 53.9
      vertex 38.08290907008012 -42.22965274357955 53.9
    endloop
  endfacet
  facet normal 0 0 1
    outer loop
      vertex 38.04221757124138 -42.2572538002685 53.9
      vertex 38.04797599165052 -42.26948628518954 53.9
      vertex 38.08290907008012 -42.22965274357955 53.9
    endloop
  endfacet
  facet normal 0 0 1
    outer loop
      vertex 38.21477221747906 -44.255849512002584 53.9
      vertex 38.37204260690975 -44.47048267073515 53.9
      vertex 38.381271234266244 -44.43510616929738 53.9
    endloop
  endfacet
  facet normal 0 0 1
    outer loop
      vertex 38.21477221747906 -44.255849512002584 53.9
      vertex 38.381271234266244 -44.43510616929738 53.9
      vertex 38.26948628518954 -43.95202400834948 53.9
    endloop
  endfacet
  facet normal 0 0 1
    outer loop
      vertex 38.19924560091922 -44.34206832726747 53.9
      vertex 38.26948628518954 -43.95202400834948 53.9
      vertex 38.151471862576145 -43.848528137423855 53.9
    endloop
  endfacet
  facet normal 0 0 1
    outer loop
      vertex 38.161171164863376 -43.9989553597418 53.9
      vertex 38.19924560091922 -44.34206832726747 53.9
      vertex 38.151471862576145 -43.848528137423855 53.9
    endloop
  endfacet
  facet normal 0 0 1
    outer loop
      vertex 38.52591876801214 -44.14453333993164 53.9
      vertex 38.5665659768323 -44.4162893824359 53.9
      vertex 38.601096452350625 -44.129130155983596 53.9
    endloop
  endfacet
  facet normal 0 0 1
    outer loop
      vertex 38.52591876801214 -44.14453333993164 53.9
      vertex 38.601096452350625 -44.129130155983596 53.9
      vertex 38.54077988116189 -44.108655439013546 53.9
    endloop
  endfacet
  facet normal 0 0 1
    outer loop
      vertex 38.817263330891926 -44.38802280592333 53.9
      vertex 38.99078638643152 -44.59939610786168 53.9
      vertex 38.90692914989527 -44.19389981419698 53.9
    endloop
  endfacet
  facet normal 0 0 1
    outer loop
      vertex 38.817263330891926 -44.38802280592333 53.9
      vertex 38.90692914989527 -44.19389981419698 53.9
      vertex 38.84336856933594 -44.189733833648575 53.9
    endloop
  endfacet
  facet normal 0 0 1
    outer loop
      vertex 39.754154331865124 -43.98283306032474 53.9
      vertex 39.73051371481046 -43.95202400834948 53.9
      vertex 39.677551627641 -43.987412143615735 53.9
    endloop
  endfacet
  facet normal 0 0 1
    outer loop
      vertex 39.78522778252094 -44.255849512002584 53.9
      vertex 39.754154331865124 -43.98283306032474 53.9
      vertex 39.677551627641 -43.987412143615735 53.9
    endloop
  endfacet
  facet normal 0 0 1
    outer loop
      vertex 39.962042377473296 -43.880920024383016 53.9
      vertex 39.95778242875862 -43.7427461997315 53.9
      vertex 39.91709092991988 -43.77034725642045 53.9
    endloop
  endfacet
  facet normal 0 0 1
    outer loop
      vertex 39.95778242875862 -43.7427461997315 53.9
      vertex 39.95202400834948 -43.73051371481046 53.9
      vertex 39.91709092991988 -43.77034725642045 53.9
    endloop
  endfacet
  facet normal 0 0 1
    outer loop
      vertex 40.131370849898474 -43.84715130404757 53.9
      vertex 40.131370849898474 -43.525905115052524 53.9
      vertex 40.08981926094243 -43.49741610946649 53.9
    endloop
  endfacet
  facet normal 0 0 1
    outer loop
      vertex 40.26057548523195 -43.83991094974791 53.9
      vertex 40.2474656802271 -43.63989397716578 53.9
      vertex 40.131370849898474 -43.392302676231886 53.9
    endloop
  endfacet
  facet normal 0 0 1
    outer loop
      vertex 40.131370849898474 -43.525905115052524 53.9
      vertex 40.108655439013546 -43.45922011883811 53.9
      vertex 40.08981926094243 -43.49741610946649 53.9
    endloop
  endfacet
  facet normal 0 0 1
    outer loop
      vertex 40.2474656802271 -43.63989397716578 53.9
      vertex 40.15911099154688 -43.31058285412303 53.9
      vertex 40.131370849898474 -43.392302676231886 53.9
    endloop
  endfacet
  facet normal 0 0 1
    outer loop
      vertex 40.2474656802271 -43.63989397716578 53.9
      vertex 40.22022930056903 -43.224347124921444 53.9
      vertex 40.15911099154688 -43.31058285412303 53.9
    endloop
  endfacet
  facet normal 0 0 1
    outer loop
      vertex 40.22022930056903 -43.224347124921444 53.9
      vertex 40.189733833648575 -43.15663143066406 53.9
      vertex 40.15911099154688 -43.31058285412303 53.9
    endloop
  endfacet
  facet normal 0 0 1
    outer loop
      vertex 38.245845668134876 -42.01716693967526 53.9
      vertex 38.26948628518954 -42.04797599165052 53.9
      vertex 38.322448372359 -42.012587856384265 53.9
    endloop
  endfacet
  facet normal 0 0 1
    outer loop
      vertex 38.21477221747906 -41.744150487997416 53.9
      vertex 38.245845668134876 -42.01716693967526 53.9
      vertex 38.322448372359 -42.012587856384265 53.9
    endloop
  endfacet
  facet normal 0 0 1
    outer loop
      vertex 40.18844481711217 -42.73940961793527 53.9
      vertex 40.15911099154688 -42.68941714587697 53.9
      vertex 40.189733833648575 -42.84336856933594 53.9
    endloop
  endfacet
  facet normal 0 0 1
    outer loop
      vertex 40.18844481711217 -42.73940961793527 53.9
      vertex 40.18050689379541 -42.61830031159401 53.9
      vertex 40.15911099154688 -42.68941714587697 53.9
    endloop
  endfacet
  facet normal 0 0 1
    outer loop
      vertex 40.18050689379541 -42.61830031159401 53.9
      vertex 40.108655439013546 -42.54077988116189 53.9
      vertex 40.15911099154688 -42.68941714587697 53.9
    endloop
  endfacet
  facet normal 0 0 1
    outer loop
      vertex 39.47408123198786 -41.85546666006836 53.9
      vertex 39.398903547649375 -41.870869844016404 53.9
      vertex 39.45922011883811 -41.891344560986454 53.9
    endloop
  endfacet
  facet normal 0 0 1
    outer loop
      vertex 39.47408123198786 -41.85546666006836 53.9
      vertex 39.4334340231677 -41.5837106175641 53.9
      vertex 39.398903547649375 -41.870869844016404 53.9
    endloop
  endfacet
  facet normal 0 0 1
    outer loop
      vertex 39.78522778252094 -41.744150487997416 53.9
      vertex 39.618728765733756 -41.56489383070262 53.9
      vertex 39.73051371481046 -42.04797599165052 53.9
    endloop
  endfacet
  facet normal 0 0 1
    outer loop
      vertex 39.838828835136624 -42.0010446402582 53.9
      vertex 39.848528137423855 -42.151471862576145 53.9
      vertex 39.95202400834948 -42.26948628518954 53.9
    endloop
  endfacet
  facet normal 0 0 1
    outer loop
      vertex 39.838828835136624 -42.0010446402582 53.9
      vertex 39.95202400834948 -42.26948628518954 53.9
      vertex 39.92660978765472 -42.14621162704519 53.9
    endloop
  endfacet
  facet normal 0 0 1
    outer loop
      vertex 40.18050689379541 -42.61830031159401 53.9
      vertex 40.15327051413735 -42.2027534593497 53.9
      vertex 40.108655439013546 -42.54077988116189 53.9
    endloop
  endfacet
  facet normal 0 0 1
    outer loop
      vertex 40.131370849898474 -42.15284869595243 53.9
      vertex 39.980911237761134 -41.835800770522695 53.9
      vertex 40.03923048454133 -42.4 53.9
    endloop
  endfacet
  facet normal 0 0 1
    outer loop
      vertex 40.131370849898474 -42.15284869595243 53.9
      vertex 40.131370849898474 -41.9393331229151 53.9
      vertex 39.980911237761134 -41.835800770522695 53.9
    endloop
  endfacet
  facet normal 0 0 1
    outer loop
      vertex 40.131370849898474 -41.9393331229151 53.9
      vertex 39.99180768749285 -41.74623554157096 53.9
      vertex 39.980911237761134 -41.835800770522695 53.9
    endloop
  endfacet
  facet normal 0 0 1
    outer loop
      vertex 39.182736669108074 -41.61197719407667 53.9
      vertex 39 -41.4 53.9
      vertex 39 -41.8 53.9
    endloop
  endfacet
  facet normal 0 0 1
    outer loop
      vertex 39.182736669108074 -41.61197719407667 53.9
      vertex 39 -41.8 53.9
      vertex 39.15663143066406 -41.810266166351425 53.9
    endloop
  endfacet
  facet normal 0 0 1
    outer loop
      vertex 39.182736669108074 -41.61197719407667 53.9
      vertex 39.00921361356848 -41.40060389213832 53.9
      vertex 39 -41.4 53.9
    endloop
  endfacet
  facet normal 0 0 1
    outer loop
      vertex 39.78522778252094 -41.744150487997416 53.9
      vertex 39.62795739309025 -41.52951732926485 53.9
      vertex 39.618728765733756 -41.56489383070262 53.9
    endloop
  endfacet
  facet normal 0 0 1
    outer loop
      vertex -94.78522778252095 43.744150487997445 53.9
      vertex -94.62795739309026 43.52951732926486 53.9
      vertex -94.61872876573375 43.56489383070262 53.9
    endloop
  endfacet
  facet normal 0 0 1
    outer loop
      vertex -94.20884190755208 43.413688221801905 53.9
      vertex -94.00921361356848 43.40060389213833 53.9
      vertex -94.09307085010474 43.80610018580302 53.9
    endloop
  endfacet
  facet normal 0 0 1
    outer loop
      vertex -94.20884190755208 43.413688221801905 53.9
      vertex -94.09307085010474 43.80610018580302 53.9
      vertex -94.15663143066406 43.810266166351425 53.9
    endloop
  endfacet
  facet normal 0 0 1
    outer loop
      vertex -93.37942533873574 43.525876568833255 53.9
      vertex -93.2 43.614359353944906 53.9
      vertex -93.45712806771787 43.932597070165606 53.9
    endloop
  endfacet
  facet normal 0 0 1
    outer loop
      vertex -95.13137084989847 43.93933312291507 53.9
      vertex -94.99180768749285 43.746235541570975 53.9
      vertex -94.98091123776113 43.83580077052274 53.9
    endloop
  endfacet
  facet normal 0 0 1
    outer loop
      vertex -95.13137084989847 43.93933312291507 53.9
      vertex -94.98091123776113 43.83580077052274 53.9
      vertex -95.13137084989847 44.152848695952365 53.9
    endloop
  endfacet
  facet normal 0 0 1
    outer loop
      vertex -94.80075439908077 43.657931672732545 53.9
      vertex -94.73051371481047 44.04797599165052 53.9
      vertex -94.84852813742386 44.151471862576145 53.9
    endloop
  endfacet
  facet normal 0 0 1
    outer loop
      vertex -94.83882883513662 44.00104464025821 53.9
      vertex -94.80075439908077 43.657931672732545 53.9
      vertex -94.84852813742386 44.151471862576145 53.9
    endloop
  endfacet
  facet normal 0 0 1
    outer loop
      vertex -95.13137084989847 44.152848695952365 53.9
      vertex -94.98091123776113 43.83580077052274 53.9
      vertex -95.03923048454132 44.400000000000006 53.9
    endloop
  endfacet
  facet normal 0 0 1
    outer loop
      vertex -95.18050689379541 44.61830031159384 53.9
      vertex -95.15327051413735 44.202753459349594 53.9
      vertex -95.10865543901355 44.54077988116188 53.9
    endloop
  endfacet
  facet normal 0 0 1
    outer loop
      vertex -94.78522778252095 43.744150487997445 53.9
      vertex -94.61872876573375 43.56489383070262 53.9
      vertex -94.73051371481047 44.04797599165052 53.9
    endloop
  endfacet
  facet normal 0 0 1
    outer loop
      vertex -95.18050689379541 44.61830031159384 53.9
      vertex -95.10865543901355 44.54077988116188 53.9
      vertex -95.15911099154688 44.68941714587697 53.9
    endloop
  endfacet
  facet normal 0 0 1
    outer loop
      vertex -95.18050689379541 44.61830031159384 53.9
      vertex -95.15911099154688 44.68941714587697 53.9
      vertex -95.18844481711216 44.73940961793504 53.9
    endloop
  endfacet
  facet normal 0 0 1
    outer loop
      vertex -95.18844481711216 44.73940961793504 53.9
      vertex -95.15911099154688 44.68941714587697 53.9
      vertex -95.18973383364857 44.84336856933594 53.9
    endloop
  endfacet
  facet normal 0 0 1
    outer loop
      vertex -93.2 43.614359353944906 53.9
      vertex -93.4 43.96076951545868 53.9
      vertex -93.45712806771787 43.932597070165606 53.9
    endloop
  endfacet
  facet normal 0 0 1
    outer loop
      vertex -93.21477221747905 43.744150487997445 53.9
      vertex -93.24584566813488 44.01716693967528 53.9
      vertex -93.322448372359 44.01258785638426 53.9
    endloop
  endfacet
  facet normal 0 0 1
    outer loop
      vertex -93.24584566813488 44.01716693967528 53.9
      vertex -93.26948628518953 44.04797599165052 53.9
      vertex -93.322448372359 44.01258785638426 53.9
    endloop
  endfacet
  facet normal 0 0 1
    outer loop
      vertex -95.18973383364857 45.15663143066406 53.9
      vertex -95.15911099154688 45.31058285412303 53.9
      vertex -95.22022930056904 45.22434712492163 53.9
    endloop
  endfacet
  facet normal 0 0 1
    outer loop
      vertex -95.22022930056904 45.22434712492163 53.9
      vertex -95.15911099154688 45.31058285412303 53.9
      vertex -95.24746568022711 45.63989397716587 53.9
    endloop
  endfacet
  facet normal 0 0 1
    outer loop
      vertex -95.24746568022711 45.63989397716587 53.9
      vertex -95.15911099154688 45.31058285412303 53.9
      vertex -95.13137084989847 45.39230267623189 53.9
    endloop
  endfacet
  facet normal 0 0 1
    outer loop
      vertex -95.13137084989847 45.525905115052524 53.9
      vertex -95.10865543901355 45.45922011883812 53.9
      vertex -95.08981926094242 45.49741610946649 53.9
    endloop
  endfacet
  facet normal 0 0 1
    outer loop
      vertex -95.24746568022711 45.63989397716587 53.9
      vertex -95.13137084989847 45.39230267623189 53.9
      vertex -95.26057548523197 45.83991094974795 53.9
    endloop
  endfacet
  facet normal 0 0 1
    outer loop
      vertex -95.13137084989847 45.525905115052524 53.9
      vertex -95.08981926094242 45.49741610946649 53.9
      vertex -95.13137084989847 45.847151304047635 53.9
    endloop
  endfacet
  facet normal 0 0 1
    outer loop
      vertex -94.95778242875862 45.74274619973149 53.9
      vertex -94.95202400834948 45.730513714810456 53.9
      vertex -94.91709092991988 45.77034725642044 53.9
    endloop
  endfacet
  facet normal 0 0 1
    outer loop
      vertex -94.9620423774733 45.88092002438295 53.9
      vertex -94.95778242875862 45.74274619973149 53.9
      vertex -94.91709092991988 45.77034725642044 53.9
    endloop
  endfacet
  facet normal 0 0 1
    outer loop
      vertex -94.78522778252095 46.255849512002555 53.9
      vertex -94.75415433186512 45.98283306032472 53.9
      vertex -94.677551627641 45.98741214361574 53.9
    endloop
  endfacet
  facet normal 0 0 1
    outer loop
      vertex -94.75415433186512 45.98283306032472 53.9
      vertex -94.73051371481047 45.95202400834948 53.9
      vertex -94.677551627641 45.98741214361574 53.9
    endloop
  endfacet
  facet normal 0 0 1
    outer loop
      vertex -94.8 46.385640646055094 53.9
      vertex -94.6 46.03923048454132 53.9
      vertex -94.54287193228213 46.067402929834394 53.9
    endloop
  endfacet
  facet normal 0 0 1
    outer loop
      vertex -94.62057466126426 46.474123431166745 53.9
      vertex -94.8 46.385640646055094 53.9
      vertex -94.54287193228213 46.067402929834394 53.9
    endloop
  endfacet
  facet normal 0 0 1
    outer loop
      vertex -93.79115809244792 46.586311778198095 53.9
      vertex -93.90692914989526 46.19389981419698 53.9
      vertex -93.84336856933594 46.189733833648575 53.9
    endloop
  endfacet
  facet normal 0 0 1
    outer loop
      vertex -93.79115809244792 46.586311778198095 53.9
      vertex -93.99078638643152 46.59939610786167 53.9
      vertex -93.90692914989526 46.19389981419698 53.9
    endloop
  endfacet
  facet normal 0 0 1
    outer loop
      vertex -93.52591876801215 46.14453333993164 53.9
      vertex -93.60109645235062 46.129130155983596 53.9
      vertex -93.5407798811619 46.108655439013546 53.9
    endloop
  endfacet
  facet normal 0 0 1
    outer loop
      vertex -93.52591876801215 46.14453333993164 53.9
      vertex -93.5665659768323 46.416289382435764 53.9
      vertex -93.60109645235062 46.129130155983596 53.9
    endloop
  endfacet
  facet normal 0 0 1
    outer loop
      vertex -93.16117116486338 45.99895535974179 53.9
      vertex -93.19924560091923 46.342068327267455 53.9
      vertex -93.15147186257614 45.848528137423855 53.9
    endloop
  endfacet
  facet normal 0 0 1
    outer loop
      vertex -93.19924560091923 46.342068327267455 53.9
      vertex -93.26948628518953 45.95202400834948 53.9
      vertex -93.15147186257614 45.848528137423855 53.9
    endloop
  endfacet
  facet normal 0 0 1
    outer loop
      vertex -93.21477221747905 46.255849512002555 53.9
      vertex -93.31353872703902 45.981458908941484 53.9
      vertex -93.26948628518953 45.95202400834948 53.9
    endloop
  endfacet
  facet normal 0 0 1
    outer loop
      vertex -93.21477221747905 46.255849512002555 53.9
      vertex -93.37204260690974 46.47048267073514 53.9
      vertex -93.31353872703902 45.981458908941484 53.9
    endloop
  endfacet
  facet normal 0 0 1
    outer loop
      vertex -93.0379576225267 44.11907997561705 53.9
      vertex -93.04221757124138 44.25725380026851 53.9
      vertex -93.08290907008012 44.22965274357956 53.9
    endloop
  endfacet
  facet normal 0 0 1
    outer loop
      vertex -93.04221757124138 44.25725380026851 53.9
      vertex -93.04797599165052 44.269486285189544 53.9
      vertex -93.08290907008012 44.22965274357956 53.9
    endloop
  endfacet
  facet normal 0 0 1
    outer loop
      vertex -92.86862915010153 44.152848695952365 53.9
      vertex -92.86862915010153 44.474094884947476 53.9
      vertex -92.91018073905758 44.50258389053351 53.9
    endloop
  endfacet
  facet normal 0 0 1
    outer loop
      vertex -92.73942451476803 44.16008905025205 53.9
      vertex -92.75253431977289 44.36010602283413 53.9
      vertex -92.86862915010153 44.60769732376811 53.9
    endloop
  endfacet
  facet normal 0 0 1
    outer loop
      vertex -92.86862915010153 44.474094884947476 53.9
      vertex -92.89134456098645 44.54077988116188 53.9
      vertex -92.91018073905758 44.50258389053351 53.9
    endloop
  endfacet
  facet normal 0 0 1
    outer loop
      vertex -92.75253431977289 44.36010602283413 53.9
      vertex -92.84088900845312 44.68941714587697 53.9
      vertex -92.86862915010153 44.60769732376811 53.9
    endloop
  endfacet
  facet normal 0 0 1
    outer loop
      vertex -92.75253431977289 44.36010602283413 53.9
      vertex -92.77977069943096 44.77565287507837 53.9
      vertex -92.84088900845312 44.68941714587697 53.9
    endloop
  endfacet
  facet normal 0 0 1
    outer loop
      vertex -92.77977069943096 44.77565287507837 53.9
      vertex -92.81026616635143 44.84336856933594 53.9
      vertex -92.84088900845312 44.68941714587697 53.9
    endloop
  endfacet
  facet normal 0 0 1
    outer loop
      vertex -92.81155518288784 45.26059038206496 53.9
      vertex -92.84088900845312 45.31058285412303 53.9
      vertex -92.81026616635143 45.15663143066406 53.9
    endloop
  endfacet
  facet normal 0 0 1
    outer loop
      vertex -92.81155518288784 45.26059038206496 53.9
      vertex -92.81949310620459 45.38169968840616 53.9
      vertex -92.84088900845312 45.31058285412303 53.9
    endloop
  endfacet
  facet normal 0 0 1
    outer loop
      vertex -92.81949310620459 45.38169968840616 53.9
      vertex -92.89134456098645 45.45922011883812 53.9
      vertex -92.84088900845312 45.31058285412303 53.9
    endloop
  endfacet
  facet normal 0 0 1
    outer loop
      vertex -92.86862915010153 45.847151304047635 53.9
      vertex -92.98443012463 45.63541060403397 53.9
      vertex -92.96076951545868 45.599999999999994 53.9
    endloop
  endfacet
  facet normal 0 0 1
    outer loop
      vertex -93.16117116486338 45.99895535974179 53.9
      vertex -93.15147186257614 45.848528137423855 53.9
      vertex -93.04797599165052 45.730513714810456 53.9
    endloop
  endfacet
  facet normal 0 0 1
    outer loop
      vertex -93.16117116486338 45.99895535974179 53.9
      vertex -93.04797599165052 45.730513714810456 53.9
      vertex -93.07339021234529 45.8537883729548 53.9
    endloop
  endfacet
  facet normal 0 0 1
    outer loop
      vertex -92.81949310620459 45.38169968840616 53.9
      vertex -92.84672948586265 45.797246540650406 53.9
      vertex -92.89134456098645 45.45922011883812 53.9
    endloop
  endfacet
  facet normal 0 0 1
    outer loop
      vertex -92.86862915010153 45.847151304047635 53.9
      vertex -93.00819231250715 46.253764458429025 53.9
      vertex -92.98443012463 45.63541060403397 53.9
    endloop
  endfacet
  facet normal 0 0 1
    outer loop
      vertex -92.86862915010153 45.847151304047635 53.9
      vertex -92.86862915010153 46.06066687708493 53.9
      vertex -93.00819231250715 46.253764458429025 53.9
    endloop
  endfacet
  facet normal 0 0 1
    outer loop
      vertex 38.21477221747905 43.74415048799741 53.9
      vertex 38.37204260690975 43.529517329264856 53.9
      vertex 38.381271234266244 43.56489383070263 53.9
    endloop
  endfacet
  facet normal 0 0 1
    outer loop
      vertex 38.817263330891926 43.61197719407667 53.9
      vertex 38.99078638643152 43.40060389213833 53.9
      vertex 38.90692914989527 43.80610018580302 53.9
    endloop
  endfacet
  facet normal 0 0 1
    outer loop
      vertex 38.817263330891926 43.61197719407667 53.9
      vertex 38.90692914989527 43.80610018580302 53.9
      vertex 38.84336856933594 43.810266166351425 53.9
    endloop
  endfacet
  facet normal 0 0 1
    outer loop
      vertex 37.868629150101526 43.93933312291511 53.9
      vertex 38.00819231250715 43.74623554157097 53.9
      vertex 38.019088762238866 43.835800770522695 53.9
    endloop
  endfacet
  facet normal 0 0 1
    outer loop
      vertex 37.868629150101526 43.93933312291511 53.9
      vertex 38.019088762238866 43.835800770522695 53.9
      vertex 37.868629150101526 44.152848695952436 53.9
    endloop
  endfacet
  facet normal 0 0 1
    outer loop
      vertex 37.84672948586265 44.202753459349694 53.9
      vertex 37.891344560986454 44.54077988116188 53.9
      vertex 37.81949310620459 44.618300311594005 53.9
    endloop
  endfacet
  facet normal 0 0 1
    outer loop
      vertex 37.868629150101526 44.152848695952436 53.9
      vertex 38.019088762238866 43.835800770522695 53.9
      vertex 37.96076951545867 44.400000000000006 53.9
    endloop
  endfacet
  facet normal 0 0 1
    outer loop
      vertex 37.81949310620459 44.618300311594005 53.9
      vertex 37.891344560986454 44.54077988116188 53.9
      vertex 37.84088900845312 44.68941714587697 53.9
    endloop
  endfacet
  facet normal 0 0 1
    outer loop
      vertex 37.81949310620459 44.618300311594005 53.9
      vertex 37.84088900845312 44.68941714587697 53.9
      vertex 37.81155518288783 44.739409617935266 53.9
    endloop
  endfacet
  facet normal 0 0 1
    outer loop
      vertex 37.81155518288783 44.739409617935266 53.9
      vertex 37.84088900845312 44.68941714587697 53.9
      vertex 37.810266166351425 44.84336856933594 53.9
    endloop
  endfacet
  facet normal 0 0 1
    outer loop
      vertex 37.810266166351425 45.15663143066406 53.9
      vertex 37.84088900845312 45.31058285412303 53.9
      vertex 37.77977069943097 45.224347124921444 53.9
    endloop
  endfacet
  facet normal 0 0 1
    outer loop
      vertex 37.77977069943097 45.224347124921444 53.9
      vertex 37.84088900845312 45.31058285412303 53.9
      vertex 37.7525343197729 45.63989397716577 53.9
    endloop
  endfacet
  facet normal 0 0 1
    outer loop
      vertex 37.7525343197729 45.63989397716577 53.9
      vertex 37.84088900845312 45.31058285412303 53.9
      vertex 37.868629150101526 45.39230267623189 53.9
    endloop
  endfacet
  facet normal 0 0 1
    outer loop
      vertex 37.868629150101526 45.525905115052524 53.9
      vertex 37.891344560986454 45.45922011883812 53.9
      vertex 37.91018073905757 45.49741610946649 53.9
    endloop
  endfacet
  facet normal 0 0 1
    outer loop
      vertex 37.7525343197729 45.63989397716577 53.9
      vertex 37.868629150101526 45.39230267623189 53.9
      vertex 37.73942451476805 45.8399109497479 53.9
    endloop
  endfacet
  facet normal 0 0 1
    outer loop
      vertex 37.868629150101526 45.847151304047564 53.9
      vertex 37.868629150101526 45.525905115052524 53.9
      vertex 37.91018073905757 45.49741610946649 53.9
    endloop
  endfacet
  facet normal 0 0 1
    outer loop
      vertex 38.04221757124138 45.74274619973149 53.9
      vertex 38.04797599165052 45.730513714810456 53.9
      vertex 38.08290907008012 45.77034725642044 53.9
    endloop
  endfacet
  facet normal 0 0 1
    outer loop
      vertex 38.037957622526704 45.880920024383 53.9
      vertex 38.04221757124138 45.74274619973149 53.9
      vertex 38.08290907008012 45.77034725642044 53.9
    endloop
  endfacet
  facet normal 0 0 1
    outer loop
      vertex 38.21477221747905 43.74415048799741 53.9
      vertex 38.381271234266244 43.56489383070263 53.9
      vertex 38.26948628518954 44.04797599165052 53.9
    endloop
  endfacet
  facet normal 0 0 1
    outer loop
      vertex 38.19924560091922 43.65793167273253 53.9
      vertex 38.26948628518954 44.04797599165052 53.9
      vertex 38.151471862576145 44.151471862576145 53.9
    endloop
  endfacet
  facet normal 0 0 1
    outer loop
      vertex 38.161171164863376 44.00104464025821 53.9
      vertex 38.19924560091922 43.65793167273253 53.9
      vertex 38.151471862576145 44.151471862576145 53.9
    endloop
  endfacet
  facet normal 0 0 1
    outer loop
      vertex 38.52591876801214 43.85546666006836 53.9
      vertex 38.5665659768323 43.58371061756411 53.9
      vertex 38.601096452350625 43.870869844016404 53.9
    endloop
  endfacet
  facet normal 0 0 1
    outer loop
      vertex 38.52591876801214 43.85546666006836 53.9
      vertex 38.601096452350625 43.870869844016404 53.9
      vertex 38.54077988116189 43.891344560986454 53.9
    endloop
  endfacet
  facet normal 0 0 1
    outer loop
      vertex 39.754154331865124 44.01716693967526 53.9
      vertex 39.73051371481046 44.04797599165052 53.9
      vertex 39.677551627641 44.012587856384265 53.9
    endloop
  endfacet
  facet normal 0 0 1
    outer loop
      vertex 39.78522778252095 43.74415048799741 53.9
      vertex 39.754154331865124 44.01716693967526 53.9
      vertex 39.677551627641 44.012587856384265 53.9
    endloop
  endfacet
  facet normal 0 0 1
    outer loop
      vertex 39.962042377473296 44.119079975617 53.9
      vertex 39.95778242875862 44.25725380026851 53.9
      vertex 39.91709092991988 44.22965274357956 53.9
    endloop
  endfacet
  facet normal 0 0 1
    outer loop
      vertex 39.95778242875862 44.25725380026851 53.9
      vertex 39.95202400834948 44.269486285189544 53.9
      vertex 39.91709092991988 44.22965274357956 53.9
    endloop
  endfacet
  facet normal 0 0 1
    outer loop
      vertex 40.131370849898474 44.152848695952436 53.9
      vertex 40.131370849898474 44.474094884947476 53.9
      vertex 40.08981926094243 44.50258389053351 53.9
    endloop
  endfacet
  facet normal 0 0 1
    outer loop
      vertex 40.26057548523195 44.1600890502521 53.9
      vertex 40.2474656802271 44.36010602283423 53.9
      vertex 40.131370849898474 44.60769732376811 53.9
    endloop
  endfacet
  facet normal 0 0 1
    outer loop
      vertex 40.131370849898474 44.474094884947476 53.9
      vertex 40.108655439013546 44.54077988116188 53.9
      vertex 40.08981926094243 44.50258389053351 53.9
    endloop
  endfacet
  facet normal 0 0 1
    outer loop
      vertex 40.2474656802271 44.36010602283423 53.9
      vertex 40.15911099154688 44.68941714587697 53.9
      vertex 40.131370849898474 44.60769732376811 53.9
    endloop
  endfacet
  facet normal 0 0 1
    outer loop
      vertex 40.2474656802271 44.36010602283423 53.9
      vertex 40.22022930056903 44.775652875078556 53.9
      vertex 40.15911099154688 44.68941714587697 53.9
    endloop
  endfacet
  facet normal 0 0 1
    outer loop
      vertex 40.22022930056903 44.775652875078556 53.9
      vertex 40.189733833648575 44.84336856933594 53.9
      vertex 40.15911099154688 44.68941714587697 53.9
    endloop
  endfacet
  facet normal 0 0 1
    outer loop
      vertex 38.245845668134876 45.98283306032474 53.9
      vertex 38.26948628518954 45.95202400834948 53.9
      vertex 38.322448372359 45.987412143615735 53.9
    endloop
  endfacet
  facet normal 0 0 1
    outer loop
      vertex 38.245845668134876 45.98283306032474 53.9
      vertex 38.322448372359 45.987412143615735 53.9
      vertex 38.21477221747905 46.25584951200259 53.9
    endloop
  endfacet
  facet normal 0 0 1
    outer loop
      vertex 39.182736669108074 46.38802280592333 53.9
      vertex 39.09307085010473 46.19389981419698 53.9
      vertex 39.15663143066406 46.189733833648575 53.9
    endloop
  endfacet
  facet normal 0 0 1
    outer loop
      vertex 39.00921361356848 46.59939610786167 53.9
      vertex 39.09307085010473 46.19389981419698 53.9
      vertex 39.182736669108074 46.38802280592333 53.9
    endloop
  endfacet
  facet normal 0 0 1
    outer loop
      vertex 40.18844481711217 45.260590382064734 53.9
      vertex 40.15911099154688 45.31058285412303 53.9
      vertex 40.189733833648575 45.15663143066406 53.9
    endloop
  endfacet
  facet normal 0 0 1
    outer loop
      vertex 40.18844481711217 45.260590382064734 53.9
      vertex 40.18050689379541 45.381699688405995 53.9
      vertex 40.15911099154688 45.31058285412303 53.9
    endloop
  endfacet
  facet normal 0 0 1
    outer loop
      vertex 40.18050689379541 45.381699688405995 53.9
      vertex 40.108655439013546 45.45922011883812 53.9
      vertex 40.15911099154688 45.31058285412303 53.9
    endloop
  endfacet
  facet normal 0 0 1
    outer loop
      vertex 39.838828835136624 45.99895535974179 53.9
      vertex 39.848528137423855 45.848528137423855 53.9
      vertex 39.95202400834948 45.730513714810456 53.9
    endloop
  endfacet
  facet normal 0 0 1
    outer loop
      vertex 39.838828835136624 45.99895535974179 53.9
      vertex 39.95202400834948 45.730513714810456 53.9
      vertex 39.92660978765472 45.8537883729548 53.9
    endloop
  endfacet
  facet normal 0 0 1
    outer loop
      vertex 40.18050689379541 45.381699688405995 53.9
      vertex 40.15327051413735 45.797246540650306 53.9
      vertex 40.108655439013546 45.45922011883812 53.9
    endloop
  endfacet
  facet normal 0 0 1
    outer loop
      vertex 40.131370849898474 45.847151304047564 53.9
      vertex 39.980911237761134 46.164199229477305 53.9
      vertex 40.03923048454133 45.599999999999994 53.9
    endloop
  endfacet
  facet normal 0 0 1
    outer loop
      vertex 39.47408123198786 46.14453333993164 53.9
      vertex 39.398903547649375 46.129130155983596 53.9
      vertex 39.45922011883811 46.108655439013546 53.9
    endloop
  endfacet
  facet normal 0 0 1
    outer loop
      vertex 39.47408123198786 46.14453333993164 53.9
      vertex 39.4334340231677 46.41628938243589 53.9
      vertex 39.398903547649375 46.129130155983596 53.9
    endloop
  endfacet
  facet normal 0 0 1
    outer loop
      vertex 39.78522778252095 46.25584951200259 53.9
      vertex 39.62795739309025 46.470482670735144 53.9
      vertex 39.68646127296099 45.981458908941484 53.9
    endloop
  endfacet
  facet normal 0 0 1
    outer loop
      vertex 39.78522778252095 46.25584951200259 53.9
      vertex 39.68646127296099 45.981458908941484 53.9
      vertex 39.73051371481046 45.95202400834948 53.9
    endloop
  endfacet
  facet normal 0 0 1
    outer loop
      vertex 40.131370849898474 45.847151304047564 53.9
      vertex 40.131370849898474 46.06066687708489 53.9
      vertex 39.980911237761134 46.164199229477305 53.9
    endloop
  endfacet
  facet normal 0 0 1
    outer loop
      vertex 40.131370849898474 46.06066687708489 53.9
      vertex 39.99180768749285 46.25376445842903 53.9
      vertex 39.980911237761134 46.164199229477305 53.9
    endloop
  endfacet
endsolid OpenSCAD_Model
