solid OpenSCAD_Model
  facet normal -1 0 0
    outer loop
      vertex 117 36 19.7
      vertex 117 36 27.6
      vertex 117 40 19.7
    endloop
  endfacet
  facet normal -1 0 0
    outer loop
      vertex 117 40 19.7
      vertex 117 36 27.6
      vertex 117 40 27.6
    endloop
  endfacet
  facet normal 0 -1 0
    outer loop
      vertex 117 36 19.7
      vertex 117.15 36 19.7
      vertex 117 36 27.6
    endloop
  endfacet
  facet normal 0 0 1
    outer loop
      vertex 117.15 36 27.6
      vertex 117 40 27.6
      vertex 117 36 27.6
    endloop
  endfacet
  facet normal 0 0 -1
    outer loop
      vertex 117.15 40 19.7
      vertex 117 36 19.7
      vertex 117 40 19.7
    endloop
  endfacet
  facet normal 0 1 0
    outer loop
      vertex 117.15 40 27.6
      vertex 117 40 19.7
      vertex 117 40 27.6
    endloop
  endfacet
  facet normal 0 0 -1
    outer loop
      vertex 117 36 19.7
      vertex 117.15 40 19.7
      vertex 117.15 36 19.7
    endloop
  endfacet
  facet normal 1 0 0
    outer loop
      vertex 117.15 36 19.7
      vertex 117.15 40 19.7
      vertex 117.15 36 27.6
    endloop
  endfacet
  facet normal 0 -1 0
    outer loop
      vertex 117.15 36 19.7
      vertex 117.15 36 27.6
      vertex 117 36 27.6
    endloop
  endfacet
  facet normal 0 1 0
    outer loop
      vertex 117.15 40 19.7
      vertex 117 40 19.7
      vertex 117.15 40 27.6
    endloop
  endfacet
  facet normal 0 0 1
    outer loop
      vertex 117.15 36 27.6
      vertex 117.15 40 27.6
      vertex 117 40 27.6
    endloop
  endfacet
  facet normal 1 0 0
    outer loop
      vertex 117.15 36 27.6
      vertex 117.15 40 19.7
      vertex 117.15 40 27.6
    endloop
  endfacet
endsolid OpenSCAD_Model
