solid OpenSCAD_Model
  facet normal 0 0 -1
    outer loop
      vertex 30 -41 51.3
      vertex 37.81671270083112 -42.70116655633299 51.3
      vertex 30 -46.5 51.3
    endloop
  endfacet
  facet normal 0 0 -1
    outer loop
      vertex 30 -41 51.3
      vertex 37.39284867019282 -42.5071689932311 51.3
      vertex 37.81671270083112 -42.70116655633299 51.3
    endloop
  endfacet
  facet normal 0 0 -1
    outer loop
      vertex 30 -41 51.3
      vertex 33.687612179511795 -41 51.3
      vertex 37.39284867019282 -42.5071689932311 51.3
    endloop
  endfacet
  facet normal 0 0 -1
    outer loop
      vertex 44.142857142857146 -41 51.3
      vertex 40.14462101782583 -42.646731059776386 51.3
      vertex 40.11155755086026 -42.54932922697488 51.3
    endloop
  endfacet
  facet normal 0 0 -1
    outer loop
      vertex 44.142857142857146 -41 51.3
      vertex 40.11155755086026 -42.54932922697488 51.3
      vertex 43.65140215072445 -41.17564966263341 51.3
    endloop
  endfacet
  facet normal 0 0 -1
    outer loop
      vertex 44.142857142857146 -41 51.3
      vertex 43.65140215072445 -41.17564966263341 51.3
      vertex 44.10724310733182 -41 51.3
    endloop
  endfacet
  facet normal 0 0 1
    outer loop
      vertex 30 -46.5 51.3
      vertex 37.81671270083112 -42.70116655633299 51.3
      vertex 37.39284867019282 -42.5071689932311 51.3
    endloop
  endfacet
  facet normal 0 0 1
    outer loop
      vertex 30 -41 51.3
      vertex 30 -46.5 51.3
      vertex 33.687612179511795 -41 51.3
    endloop
  endfacet
  facet normal 0 0 1
    outer loop
      vertex 30 -46.5 51.3
      vertex 37.39284867019282 -42.5071689932311 51.3
      vertex 33.687612179511795 -41 51.3
    endloop
  endfacet
  facet normal 0 0 1
    outer loop
      vertex 40.11155755086026 -42.54932922697488 51.3
      vertex 40.14462101782583 -42.646731059776386 51.3
      vertex 43.65140215072445 -41.17564966263341 51.3
    endloop
  endfacet
  facet normal 0 0 1
    outer loop
      vertex 43.65140215072445 -41.17564966263341 51.3
      vertex 40.14462101782583 -42.646731059776386 51.3
      vertex 44.10724310733182 -41 51.3
    endloop
  endfacet
  facet normal 0 0 1
    outer loop
      vertex 40.14462101782583 -42.646731059776386 51.3
      vertex 44.142857142857146 -41 51.3
      vertex 44.10724310733182 -41 51.3
    endloop
  endfacet
endsolid OpenSCAD_Model
