solid OpenSCAD_Model
  facet normal 0 -1 0
    outer loop
      vertex 77.26057356946076 57 33.429909968689444
      vertex 77.75 57 33.102885682970026
      vertex 77.12039336451097 57 33.84988142598812
    endloop
  endfacet
  facet normal 0 -1 0
    outer loop
      vertex 77.12039336451097 57 33.84988142598812
      vertex 77.75 57 33.102885682970026
      vertex 77.37142560203309 57 33.87633336167522
    endloop
  endfacet
  facet normal 0 -1 0
    outer loop
      vertex 78.2779245543571 57 32.84254210369921
      vertex 77.37142560203309 57 33.87633336167522
      vertex 77.75 57 33.102885682970026
    endloop
  endfacet
  facet normal 0 -1 0
    outer loop
      vertex 76.42990996868944 57 34.26057356946076
      vertex 76.81801948466054 57 33.81801948466054
      vertex 76.94331109790215 57 34.24726608246741
    endloop
  endfacet
  facet normal 0 -1 0
    outer loop
      vertex 77.26057356946076 57 33.429909968689444
      vertex 76.94331109790215 57 34.24726608246741
      vertex 76.81801948466054 57 33.81801948466054
    endloop
  endfacet
  facet normal 0 -1 0
    outer loop
      vertex 76.94331109790215 57 34.24726608246741
      vertex 77.26057356946076 57 33.429909968689444
      vertex 77.12039336451097 57 33.84988142598812
    endloop
  endfacet
  facet normal 0 -1 0
    outer loop
      vertex 76.94331109790215 57 34.24726608246741
      vertex 77.12039336451097 57 33.84988142598812
      vertex 76.98337387988505 57 34.17188308951158
    endloop
  endfacet
  facet normal 0 -1 0
    outer loop
      vertex 77.37142560203309 57 33.87633336167522
      vertex 77.11666263024692 57 34.42646068129157
      vertex 77.20255923460407 57 34.24054630525831
    endloop
  endfacet
  facet normal 0 -1 0
    outer loop
      vertex 76.79570600599757 57 35.15
      vertex 77.37142560203309 57 33.87633336167522
      vertex 77.06459264092243 57 34.747582712667736
    endloop
  endfacet
  facet normal 0 -1 0
    outer loop
      vertex 76.9260570454424 57 34.83767861031868
      vertex 77.03449488871338 57 34.60270112286984
      vertex 77.11666263024692 57 34.42646068129157
    endloop
  endfacet
  facet normal 0 -1 0
    outer loop
      vertex 76.58164572970824 57 35.58407130024917
      vertex 77.11666263024692 57 34.42646068129157
      vertex 77.37142560203309 57 33.87633336167522
    endloop
  endfacet
  facet normal 0 -1 0
    outer loop
      vertex 77.37142560203309 57 33.87633336167522
      vertex 77.20255923460407 57 34.24054630525831
      vertex 77.25431580147148 57 34.128465680394626
    endloop
  endfacet
  facet normal 0 -1 0
    outer loop
      vertex 77.06459264092243 57 34.747582712667736
      vertex 77.37142560203309 57 33.87633336167522
      vertex 78.2779245543571 57 32.84254210369921
    endloop
  endfacet
  facet normal 0 -1 0
    outer loop
      vertex 77.74758271266774 57 34.06459264092243
      vertex 77.38370490960978 57 34.383704909609776
      vertex 78.2779245543571 57 32.84254210369921
    endloop
  endfacet
  facet normal 0 -1 0
    outer loop
      vertex 77.38370490960978 57 34.383704909609776
      vertex 77.06459264092243 57 34.747582712667736
      vertex 78.2779245543571 57 32.84254210369921
    endloop
  endfacet
  facet normal 0 -1 0
    outer loop
      vertex 76.58164572970824 57 35.58407130024917
      vertex 76.37463733299444 57 36.02858700110592
      vertex 76.52770887792282 57 35.69807549214584
    endloop
  endfacet
  facet normal 0 -1 0
    outer loop
      vertex 76.58164572970824 57 35.58407130024917
      vertex 76.52770887792282 57 35.69807549214584
      vertex 76.58088665596628 57 35.583756881610405
    endloop
  endfacet
  facet normal 0 -1 0
    outer loop
      vertex 76.42607444273045 57 36.04236953312068
      vertex 75.74672120073107 57 37.46016733927327
      vertex 75.95803537070951 57 37
    endloop
  endfacet
  facet normal 0 -1 0
    outer loop
      vertex 76.42607444273045 57 36.04236953312068
      vertex 76.3316540129169 57 36.51705308878581
      vertex 75.5840412507279 57 37.81632862550005
    endloop
  endfacet
  facet normal 0 -1 0
    outer loop
      vertex 76.58164572970824 57 35.58407130024917
      vertex 76.30042793952983 57 36.18809255795301
      vertex 76.37463733299444 57 36.02858700110592
    endloop
  endfacet
  facet normal 0 -1 0
    outer loop
      vertex 76.58164572970824 57 35.58407130024917
      vertex 76.15815150089226 57 36.49421104974007
      vertex 76.30042793952983 57 36.18809255795301
    endloop
  endfacet
  facet normal 0 -1 0
    outer loop
      vertex 76.58164572970824 57 35.58407130024917
      vertex 76.42607444273045 57 36.04236953312068
      vertex 76.15815150089226 57 36.49421104974007
    endloop
  endfacet
  facet normal 0 -1 0
    outer loop
      vertex 76.42607444273045 57 36.04236953312068
      vertex 76.18313996338594 57 36.497500843238235
      vertex 76.15815150089226 57 36.49421104974007
    endloop
  endfacet
  facet normal 0 -1 0
    outer loop
      vertex 76.42607444273045 57 36.04236953312068
      vertex 76.06835429195405 57 36.74790068072158
      vertex 76.18313996338594 57 36.497500843238235
    endloop
  endfacet
  facet normal 0 -1 0
    outer loop
      vertex 76.42607444273045 57 36.04236953312068
      vertex 75.95803537070951 57 37
      vertex 76.06835429195405 57 36.74790068072158
    endloop
  endfacet
  facet normal 0 -1 0
    outer loop
      vertex 76.79570600599757 57 35.15
      vertex 76.58164572970824 57 35.58407130024917
      vertex 77.37142560203309 57 33.87633336167522
    endloop
  endfacet
  facet normal 0 -1 0
    outer loop
      vertex 76.58164572970824 57 35.58407130024917
      vertex 76.9260570454424 57 34.83767861031868
      vertex 77.11666263024692 57 34.42646068129157
    endloop
  endfacet
  facet normal 0 -1 0
    outer loop
      vertex 76.9260570454424 57 34.83767861031868
      vertex 76.73248807935997 57 35.25586131828963
      vertex 76.86150114411262 57 34.9763893710068
    endloop
  endfacet
  facet normal 0 -1 0
    outer loop
      vertex 76.58164572970824 57 35.58407130024917
      vertex 76.73248807935997 57 35.25586131828963
      vertex 76.9260570454424 57 34.83767861031868
    endloop
  endfacet
  facet normal 0 -1 0
    outer loop
      vertex 78.15 57 33.79570600599758
      vertex 77.74758271266774 57 34.06459264092243
      vertex 78.2779245543571 57 32.84254210369921
    endloop
  endfacet
  facet normal 0 -1 0
    outer loop
      vertex 78.15 57 33.79570600599758
      vertex 78.2779245543571 57 32.84254210369921
      vertex 78.83531429703865 57 32.65333378169919
    endloop
  endfacet
  facet normal 0 -1 0
    outer loop
      vertex 78.58407130024916 57 33.58164572970824
      vertex 78.15 57 33.79570600599758
      vertex 78.83531429703865 57 32.65333378169919
    endloop
  endfacet
  facet normal 0 -1 0
    outer loop
      vertex 78.58407130024916 57 33.58164572970824
      vertex 78.83531429703865 57 32.65333378169919
      vertex 79.04236953312068 57 33.426074442730446
    endloop
  endfacet
  facet normal 0 -1 0
    outer loop
      vertex 79.04236953312068 57 33.426074442730446
      vertex 78.83531429703865 57 32.65333378169919
      vertex 79.41263213500977 57 32.53849812381785
    endloop
  endfacet
  facet normal 0 -1 0
    outer loop
      vertex 79.04236953312068 57 33.426074442730446
      vertex 79.41263213500977 57 32.53849812381785
      vertex 79.51705308878581 57 33.3316540129169
    endloop
  endfacet
  facet normal 0 -1 0
    outer loop
      vertex 79.51705308878581 57 33.3316540129169
      vertex 79.41263213500977 57 32.53849812381785
      vertex 80 57 32.5
    endloop
  endfacet
  facet normal 0 -1 0
    outer loop
      vertex 79.51705308878581 57 33.3316540129169
      vertex 80 57 32.5
      vertex 80 57 33.3
    endloop
  endfacet
  facet normal 0 -1 0
    outer loop
      vertex 76.42607444273045 57 36.04236953312068
      vertex 75.69599027192076 57 37.56663363034208
      vertex 75.74672120073107 57 37.46016733927327
    endloop
  endfacet
  facet normal 0 -1 0
    outer loop
      vertex 76.42607444273045 57 36.04236953312068
      vertex 75.5840412507279 57 37.81632862550005
      vertex 75.69599027192076 57 37.56663363034208
    endloop
  endfacet
  facet normal 0 -1 0
    outer loop
      vertex 76.3316540129169 57 36.51705308878581
      vertex 76.3 57 37
      vertex 75.5840412507279 57 37.81632862550005
    endloop
  endfacet
  facet normal 0 -1 0
    outer loop
      vertex 76.3 57 37
      vertex 76.3316540129169 57 37.48294691121419
      vertex 75.65333378169919 57 38.16468570296134
    endloop
  endfacet
  facet normal 0 -1 0
    outer loop
      vertex 76.3 57 37
      vertex 75.65333378169919 57 38.16468570296134
      vertex 75.5840412507279 57 37.81632862550005
    endloop
  endfacet
  facet normal 0 -1 0
    outer loop
      vertex 76.3316540129169 57 37.48294691121419
      vertex 76.42607444273045 57 37.95763046687933
      vertex 75.65333378169919 57 38.16468570296134
    endloop
  endfacet
  facet normal 0 -1 0
    outer loop
      vertex 76.42607444273045 57 37.95763046687933
      vertex 75.84254210369922 57 38.7220754456429
      vertex 75.65333378169919 57 38.16468570296134
    endloop
  endfacet
  facet normal 0 -1 0
    outer loop
      vertex 76.42607444273045 57 37.95763046687933
      vertex 75.86638252692016 57 38.77041904159351
      vertex 75.84254210369922 57 38.7220754456429
    endloop
  endfacet
  facet normal 0 -1 0
    outer loop
      vertex 76.42607444273045 57 37.95763046687933
      vertex 76.58164572970824 57 38.41592869975083
      vertex 75.86638252692016 57 38.77041904159351
    endloop
  endfacet
  facet normal 0 -1 0
    outer loop
      vertex 76.58164572970824 57 38.41592869975083
      vertex 76.02765124170831 57 39.09743964500051
      vertex 75.86638252692016 57 38.77041904159351
    endloop
  endfacet
  facet normal 0 -1 0
    outer loop
      vertex 76.58164572970824 57 38.41592869975083
      vertex 76.3364515896074 57 38.92946427172285
      vertex 76.02765124170831 57 39.09743964500051
    endloop
  endfacet
  facet normal 0 -1 0
    outer loop
      vertex 76.22442157864677 57 39.43189132184051
      vertex 76.10288568297003 57 39.25
      vertex 76.3364515896074 57 38.92946427172285
    endloop
  endfacet
  facet normal 0 -1 0
    outer loop
      vertex 76.58164572970824 57 38.41592869975083
      vertex 76.79570600599757 57 38.85
      vertex 76.3364515896074 57 38.92946427172285
    endloop
  endfacet
  facet normal 0 -1 0
    outer loop
      vertex 76.79570600599757 57 38.85
      vertex 76.22442157864677 57 39.43189132184051
      vertex 76.3364515896074 57 38.92946427172285
    endloop
  endfacet
  facet normal 0 -1 0
    outer loop
      vertex 76.79570600599757 57 38.85
      vertex 77.06459264092243 57 39.252417287332264
      vertex 76.22442157864677 57 39.43189132184051
    endloop
  endfacet
  facet normal 0 -1 0
    outer loop
      vertex 77.06459264092243 57 39.25241728733227
      vertex 76.71380557101831 57 40.06314732193015
      vertex 76.42990996868944 57 39.73942643053924
    endloop
  endfacet
  facet normal 0 -1 0
    outer loop
      vertex 77.06459264092243 57 39.25241728733227
      vertex 77.38370490960978 57 39.616295090390224
      vertex 76.71380557101831 57 40.06314732193015
    endloop
  endfacet
  facet normal 0 -1 0
    outer loop
      vertex 77.38370490960978 57 39.616295090390224
      vertex 77.11150673844092 57 39.88849326155908
      vertex 76.71380557101831 57 40.06314732193015
    endloop
  endfacet
  facet normal 0 -1 0
    outer loop
      vertex 78.58407130024916 57 40.41835427029176
      vertex 78.2779245543571 57 41.15745789630079
      vertex 77.75 57 40.897114317029974
    endloop
  endfacet
  facet normal 0 -1 0
    outer loop
      vertex 78.58407130024916 57 40.41835427029176
      vertex 79.04236953312068 57 40.573925557269554
      vertex 78.2779245543571 57 41.15745789630079
    endloop
  endfacet
  facet normal 0 -1 0
    outer loop
      vertex 79.04236953312068 57 40.573925557269554
      vertex 78.83531429703865 57 41.34666621830081
      vertex 78.2779245543571 57 41.15745789630079
    endloop
  endfacet
  facet normal 0 -1 0
    outer loop
      vertex 79.04236953312068 57 40.573925557269554
      vertex 79.51705308878581 57 40.6683459870831
      vertex 78.83531429703865 57 41.34666621830081
    endloop
  endfacet
  facet normal 0 -1 0
    outer loop
      vertex 79.51705308878581 57 40.6683459870831
      vertex 79.41263213500977 57 41.46150187618215
      vertex 78.83531429703865 57 41.34666621830081
    endloop
  endfacet
  facet normal 0 -1 0
    outer loop
      vertex 79.51705308878581 57 40.6683459870831
      vertex 80 57 40.7
      vertex 79.41263213500977 57 41.46150187618215
    endloop
  endfacet
  facet normal 0 -1 0
    outer loop
      vertex 80 57 40.7
      vertex 80 57 41.5
      vertex 79.41263213500977 57 41.46150187618215
    endloop
  endfacet
  facet normal 0 -1 0
    outer loop
      vertex 80 57 33.3
      vertex 80 57 32.5
      vertex 80.58736786499023 57 32.53849812381785
    endloop
  endfacet
  facet normal 0 -1 0
    outer loop
      vertex 80 57 33.3
      vertex 80.58736786499023 57 32.53849812381785
      vertex 80.48294691121419 57 33.3316540129169
    endloop
  endfacet
  facet normal 0 -1 0
    outer loop
      vertex 80.48294691121419 57 33.3316540129169
      vertex 80.58736786499023 57 32.53849812381785
      vertex 81.16468570296135 57 32.65333378169919
    endloop
  endfacet
  facet normal 0 -1 0
    outer loop
      vertex 80.48294691121419 57 33.3316540129169
      vertex 81.16468570296135 57 32.65333378169919
      vertex 80.95763046687932 57 33.426074442730446
    endloop
  endfacet
  facet normal 0 -1 0
    outer loop
      vertex 80.95763046687932 57 33.426074442730446
      vertex 81.16468570296135 57 32.65333378169919
      vertex 81.7220754456429 57 32.84254210369921
    endloop
  endfacet
  facet normal 0 -1 0
    outer loop
      vertex 80.95763046687932 57 33.426074442730446
      vertex 81.7220754456429 57 32.84254210369921
      vertex 81.41592869975084 57 33.58164572970824
    endloop
  endfacet
  facet normal 0 -1 0
    outer loop
      vertex 81.41592869975084 57 33.58164572970824
      vertex 81.7220754456429 57 32.84254210369921
      vertex 82.25 57 33.102885682970026
    endloop
  endfacet
  facet normal 0 -1 0
    outer loop
      vertex 81.41592869975084 57 33.58164572970824
      vertex 82.25 57 33.102885682970026
      vertex 81.85 57 33.79570600599758
    endloop
  endfacet
  facet normal 0 -1 0
    outer loop
      vertex 81.85 57 33.79570600599758
      vertex 82.25 57 33.102885682970026
      vertex 82.25241728733226 57 34.06459264092243
    endloop
  endfacet
  facet normal 0 -1 0
    outer loop
      vertex 82.25241728733226 57 34.06459264092243
      vertex 82.25 57 33.102885682970026
      vertex 82.73942643053924 57 33.429909968689444
    endloop
  endfacet
  facet normal 0 -1 0
    outer loop
      vertex 82.25241728733226 57 34.06459264092243
      vertex 82.73942643053924 57 33.429909968689444
      vertex 82.61629509039022 57 34.383704909609776
    endloop
  endfacet
  facet normal 0 -1 0
    outer loop
      vertex 82.61629509039022 57 34.383704909609776
      vertex 82.73942643053924 57 33.429909968689444
      vertex 83.18198051533946 57 33.81801948466054
    endloop
  endfacet
  facet normal 0 -1 0
    outer loop
      vertex 82.61629509039022 57 34.383704909609776
      vertex 83.18198051533946 57 33.81801948466054
      vertex 82.93540735907757 57 34.74758271266773
    endloop
  endfacet
  facet normal 0 -1 0
    outer loop
      vertex 83.20429399400243 57 35.15
      vertex 83.18198051533946 57 33.81801948466054
      vertex 83.57009003131056 57 34.26057356946076
    endloop
  endfacet
  facet normal 0 -1 0
    outer loop
      vertex 82.93540735907757 57 34.74758271266773
      vertex 83.18198051533946 57 33.81801948466054
      vertex 83.20429399400243 57 35.15
    endloop
  endfacet
  facet normal 0 -1 0
    outer loop
      vertex 83.20429399400243 57 35.15
      vertex 83.57009003131056 57 34.26057356946076
      vertex 83.41835427029176 57 35.58407130024917
    endloop
  endfacet
  facet normal 0 -1 0
    outer loop
      vertex 83.41835427029176 57 35.58407130024917
      vertex 83.57009003131056 57 34.26057356946076
      vertex 83.89711431702997 57 34.75
    endloop
  endfacet
  facet normal 0 -1 0
    outer loop
      vertex 83.41835427029176 57 35.58407130024917
      vertex 83.89711431702997 57 34.75
      vertex 83.57392555726955 57 36.04236953312067
    endloop
  endfacet
  facet normal 0 -1 0
    outer loop
      vertex 83.6683459870831 57 36.51705308878581
      vertex 83.89711431702997 57 34.75
      vertex 84.15745789630078 57 35.2779245543571
    endloop
  endfacet
  facet normal 0 -1 0
    outer loop
      vertex 83.57392555726955 57 36.04236953312067
      vertex 83.89711431702997 57 34.75
      vertex 83.6683459870831 57 36.51705308878581
    endloop
  endfacet
  facet normal 0 -1 0
    outer loop
      vertex 83.6683459870831 57 36.51705308878581
      vertex 84.15745789630078 57 35.2779245543571
      vertex 83.7 57 37
    endloop
  endfacet
  facet normal 0 -1 0
    outer loop
      vertex 83.7 57 37
      vertex 84.15745789630078 57 35.2779245543571
      vertex 83.6683459870831 57 37.48294691121419
    endloop
  endfacet
  facet normal 0 -1 0
    outer loop
      vertex 83.6683459870831 57 37.48294691121419
      vertex 84.15745789630078 57 35.2779245543571
      vertex 84.34666621830081 57 35.83531429703866
    endloop
  endfacet
  facet normal 0 -1 0
    outer loop
      vertex 83.6683459870831 57 37.48294691121419
      vertex 84.34666621830081 57 35.83531429703866
      vertex 84.46150187618214 57 36.412632135009765
    endloop
  endfacet
  facet normal 0 -1 0
    outer loop
      vertex 83.6683459870831 57 37.48294691121419
      vertex 84.46150187618214 57 36.412632135009765
      vertex 84.5 57 37
    endloop
  endfacet
  facet normal 0 -1 0
    outer loop
      vertex 80 57 40.7
      vertex 80.48294691121419 57 40.6683459870831
      vertex 80 57 41.5
    endloop
  endfacet
  facet normal 0 -1 0
    outer loop
      vertex 80.48294691121419 57 40.6683459870831
      vertex 80.58736786499023 57 41.46150187618215
      vertex 80 57 41.5
    endloop
  endfacet
  facet normal 0 -1 0
    outer loop
      vertex 80.48294691121419 57 40.6683459870831
      vertex 80.95763046687932 57 40.573925557269554
      vertex 80.58736786499023 57 41.46150187618215
    endloop
  endfacet
  facet normal 0 -1 0
    outer loop
      vertex 80.95763046687932 57 40.573925557269554
      vertex 81.16468570296135 57 41.34666621830081
      vertex 80.58736786499023 57 41.46150187618215
    endloop
  endfacet
  facet normal 0 -1 0
    outer loop
      vertex 80.95763046687932 57 40.573925557269554
      vertex 81.41592869975084 57 40.41835427029176
      vertex 81.16468570296135 57 41.34666621830081
    endloop
  endfacet
  facet normal 0 -1 0
    outer loop
      vertex 81.85 57 40.20429399400242
      vertex 81.16468570296135 57 41.34666621830081
      vertex 81.41592869975084 57 40.41835427029176
    endloop
  endfacet
  facet normal 0 -1 0
    outer loop
      vertex 81.85 57 40.20429399400242
      vertex 81.7220754456429 57 41.15745789630079
      vertex 81.16468570296135 57 41.34666621830081
    endloop
  endfacet
  facet normal 0 -1 0
    outer loop
      vertex 82.25241728733226 57 39.93540735907757
      vertex 81.7220754456429 57 41.15745789630079
      vertex 81.85 57 40.20429399400242
    endloop
  endfacet
  facet normal 0 -1 0
    outer loop
      vertex 82.25241728733226 57 39.93540735907757
      vertex 82.25 57 40.897114317029974
      vertex 81.7220754456429 57 41.15745789630079
    endloop
  endfacet
  facet normal 0 -1 0
    outer loop
      vertex 83.6683459870831 57 37.48294691121419
      vertex 84.5 57 37
      vertex 84.46150187618214 57 37.587367864990235
    endloop
  endfacet
  facet normal 0 -1 0
    outer loop
      vertex 83.6683459870831 57 37.48294691121419
      vertex 84.34666621830081 57 38.16468570296134
      vertex 84.15745789630078 57 38.7220754456429
    endloop
  endfacet
  facet normal 0 -1 0
    outer loop
      vertex 83.6683459870831 57 37.48294691121419
      vertex 83.89711431702997 57 39.25
      vertex 83.57392555726955 57 37.95763046687932
    endloop
  endfacet
  facet normal 0 -1 0
    outer loop
      vertex 83.6683459870831 57 37.48294691121419
      vertex 84.15745789630078 57 38.7220754456429
      vertex 83.89711431702997 57 39.25
    endloop
  endfacet
  facet normal 0 -1 0
    outer loop
      vertex 83.57392555726955 57 37.95763046687932
      vertex 83.57009003131056 57 39.73942643053924
      vertex 83.41835427029176 57 38.41592869975083
    endloop
  endfacet
  facet normal 0 -1 0
    outer loop
      vertex 83.41835427029176 57 38.41592869975083
      vertex 83.57009003131056 57 39.73942643053924
      vertex 83.20429399400243 57 38.85
    endloop
  endfacet
  facet normal 0 -1 0
    outer loop
      vertex 83.57392555726955 57 37.95763046687932
      vertex 83.89711431702997 57 39.25
      vertex 83.57009003131056 57 39.73942643053924
    endloop
  endfacet
  facet normal 0 -1 0
    outer loop
      vertex 82.25241728733226 57 39.93540735907757
      vertex 82.61629509039022 57 39.616295090390224
      vertex 82.25 57 40.897114317029974
    endloop
  endfacet
  facet normal 0 -1 0
    outer loop
      vertex 82.61629509039022 57 39.616295090390224
      vertex 82.73942643053924 57 40.570090031310556
      vertex 82.25 57 40.897114317029974
    endloop
  endfacet
  facet normal 0 -1 0
    outer loop
      vertex 82.93540735907757 57 39.252417287332264
      vertex 82.73942643053924 57 40.570090031310556
      vertex 82.61629509039022 57 39.616295090390224
    endloop
  endfacet
  facet normal 0 -1 0
    outer loop
      vertex 83.20429399400243 57 38.85
      vertex 83.18198051533946 57 40.18198051533946
      vertex 82.93540735907757 57 39.252417287332264
    endloop
  endfacet
  facet normal 0 -1 0
    outer loop
      vertex 83.20429399400243 57 38.85
      vertex 83.57009003131056 57 39.73942643053924
      vertex 83.18198051533946 57 40.18198051533946
    endloop
  endfacet
  facet normal 0 -1 0
    outer loop
      vertex 82.93540735907757 57 39.252417287332264
      vertex 83.18198051533946 57 40.18198051533946
      vertex 82.73942643053924 57 40.570090031310556
    endloop
  endfacet
  facet normal 0 1 0
    outer loop
      vertex 77.26057356946076 57 33.429909968689444
      vertex 76.81801948466054 57 33.81801948466054
      vertex 78.58407130024916 57 33.58164572970824
    endloop
  endfacet
  facet normal 0 1 0
    outer loop
      vertex 76.42990996868944 57 34.26057356946076
      vertex 76.98337387988505 57 34.17188308951158
      vertex 76.81801948466054 57 33.81801948466054
    endloop
  endfacet
  facet normal 0 1 0
    outer loop
      vertex 76.98337387988505 57 34.17188308951158
      vertex 77.12039336451097 57 33.84988142598812
      vertex 76.81801948466054 57 33.81801948466054
    endloop
  endfacet
  facet normal 0 1 0
    outer loop
      vertex 76.98337387988505 57 34.17188308951158
      vertex 76.42990996868944 57 34.26057356946076
      vertex 76.94331109790215 57 34.24726608246741
    endloop
  endfacet
  facet normal 0 1 0
    outer loop
      vertex 77.20255923460407 57 34.24054630525831
      vertex 77.11666263024692 57 34.42646068129157
      vertex 77.38370490960978 57 34.383704909609776
    endloop
  endfacet
  facet normal 0 1 0
    outer loop
      vertex 77.06459264092243 57 34.747582712667736
      vertex 77.03449488871338 57 34.60270112286984
      vertex 76.9260570454424 57 34.83767861031868
    endloop
  endfacet
  facet normal 0 1 0
    outer loop
      vertex 77.38370490960978 57 34.383704909609776
      vertex 77.11666263024692 57 34.42646068129157
      vertex 77.03449488871338 57 34.60270112286984
    endloop
  endfacet
  facet normal 0 1 0
    outer loop
      vertex 77.06459264092243 57 34.747582712667736
      vertex 77.38370490960978 57 34.383704909609776
      vertex 77.03449488871338 57 34.60270112286984
    endloop
  endfacet
  facet normal 0 1 0
    outer loop
      vertex 76.81801948466054 57 33.81801948466054
      vertex 77.12039336451097 57 33.84988142598812
      vertex 78.58407130024916 57 33.58164572970824
    endloop
  endfacet
  facet normal 0 1 0
    outer loop
      vertex 78.15 57 33.79570600599758
      vertex 77.12039336451097 57 33.84988142598812
      vertex 77.37142560203309 57 33.87633336167522
    endloop
  endfacet
  facet normal 0 1 0
    outer loop
      vertex 77.37142560203309 57 33.87633336167522
      vertex 77.25431580147148 57 34.128465680394626
      vertex 78.15 57 33.79570600599758
    endloop
  endfacet
  facet normal 0 1 0
    outer loop
      vertex 77.74758271266774 57 34.06459264092243
      vertex 78.15 57 33.79570600599758
      vertex 77.25431580147148 57 34.128465680394626
    endloop
  endfacet
  facet normal 0 1 0
    outer loop
      vertex 77.25431580147148 57 34.128465680394626
      vertex 77.20255923460407 57 34.24054630525831
      vertex 77.38370490960978 57 34.383704909609776
    endloop
  endfacet
  facet normal 0 1 0
    outer loop
      vertex 77.74758271266774 57 34.06459264092243
      vertex 77.25431580147148 57 34.128465680394626
      vertex 77.38370490960978 57 34.383704909609776
    endloop
  endfacet
  facet normal 0 1 0
    outer loop
      vertex 76.42607444273045 57 36.04236953312068
      vertex 76.58088665596628 57 35.583756881610405
      vertex 76.52770887792282 57 35.69807549214584
    endloop
  endfacet
  facet normal 0 1 0
    outer loop
      vertex 76.42607444273045 57 36.04236953312068
      vertex 76.58164572970824 57 35.58407130024917
      vertex 76.58088665596628 57 35.583756881610405
    endloop
  endfacet
  facet normal 0 1 0
    outer loop
      vertex 76.3 57 37
      vertex 76.06835429195405 57 36.74790068072158
      vertex 75.95803537070951 57 37
    endloop
  endfacet
  facet normal 0 1 0
    outer loop
      vertex 76.15815150089226 57 36.49421104974007
      vertex 76.18313996338594 57 36.497500843238235
      vertex 76.30042793952983 57 36.18809255795301
    endloop
  endfacet
  facet normal 0 1 0
    outer loop
      vertex 76.3316540129169 57 36.51705308878581
      vertex 76.30042793952983 57 36.18809255795301
      vertex 76.18313996338594 57 36.497500843238235
    endloop
  endfacet
  facet normal 0 1 0
    outer loop
      vertex 76.37463733299444 57 36.02858700110592
      vertex 76.30042793952983 57 36.18809255795301
      vertex 76.3316540129169 57 36.51705308878581
    endloop
  endfacet
  facet normal 0 1 0
    outer loop
      vertex 76.37463733299444 57 36.02858700110592
      vertex 76.3316540129169 57 36.51705308878581
      vertex 76.42607444273045 57 36.04236953312068
    endloop
  endfacet
  facet normal 0 1 0
    outer loop
      vertex 76.42607444273045 57 36.04236953312068
      vertex 76.52770887792282 57 35.69807549214584
      vertex 76.37463733299444 57 36.02858700110592
    endloop
  endfacet
  facet normal 0 1 0
    outer loop
      vertex 76.3316540129169 57 36.51705308878581
      vertex 76.18313996338594 57 36.497500843238235
      vertex 76.3 57 37
    endloop
  endfacet
  facet normal 0 1 0
    outer loop
      vertex 76.18313996338594 57 36.497500843238235
      vertex 76.06835429195405 57 36.74790068072158
      vertex 76.3 57 37
    endloop
  endfacet
  facet normal 0 1 0
    outer loop
      vertex 76.9260570454424 57 34.83767861031868
      vertex 76.86150114411262 57 34.9763893710068
      vertex 77.06459264092243 57 34.747582712667736
    endloop
  endfacet
  facet normal 0 1 0
    outer loop
      vertex 76.79570600599757 57 35.15
      vertex 77.06459264092243 57 34.747582712667736
      vertex 76.86150114411262 57 34.9763893710068
    endloop
  endfacet
  facet normal 0 1 0
    outer loop
      vertex 76.79570600599757 57 35.15
      vertex 76.86150114411262 57 34.9763893710068
      vertex 76.73248807935997 57 35.25586131828963
    endloop
  endfacet
  facet normal 0 1 0
    outer loop
      vertex 76.79570600599757 57 35.15
      vertex 76.73248807935997 57 35.25586131828963
      vertex 76.58164572970824 57 35.58407130024917
    endloop
  endfacet
  facet normal 0 1 0
    outer loop
      vertex 78.58407130024916 57 33.58164572970824
      vertex 79.04236953312068 57 33.426074442730446
      vertex 77.26057356946076 57 33.429909968689444
    endloop
  endfacet
  facet normal 0 1 0
    outer loop
      vertex 79.04236953312068 57 33.426074442730446
      vertex 79.51705308878581 57 33.3316540129169
      vertex 77.26057356946076 57 33.429909968689444
    endloop
  endfacet
  facet normal 0 1 0
    outer loop
      vertex 79.51705308878581 57 33.3316540129169
      vertex 80 57 33.3
      vertex 77.26057356946076 57 33.429909968689444
    endloop
  endfacet
  facet normal 0 1 0
    outer loop
      vertex 78.15 57 33.79570600599758
      vertex 78.58407130024916 57 33.58164572970824
      vertex 77.12039336451097 57 33.84988142598812
    endloop
  endfacet
  facet normal 0 1 0
    outer loop
      vertex 78.83531429703865 57 32.65333378169919
      vertex 78.2779245543571 57 32.84254210369921
      vertex 81.16468570296135 57 32.65333378169919
    endloop
  endfacet
  facet normal 0 1 0
    outer loop
      vertex 78.2779245543571 57 32.84254210369921
      vertex 77.75 57 33.102885682970026
      vertex 81.7220754456429 57 32.84254210369921
    endloop
  endfacet
  facet normal 0 1 0
    outer loop
      vertex 77.26057356946076 57 33.429909968689444
      vertex 82.25 57 33.102885682970026
      vertex 77.75 57 33.102885682970026
    endloop
  endfacet
  facet normal 0 1 0
    outer loop
      vertex 79.41263213500977 57 32.53849812381785
      vertex 78.83531429703865 57 32.65333378169919
      vertex 80.58736786499023 57 32.53849812381785
    endloop
  endfacet
  facet normal 0 1 0
    outer loop
      vertex 80 57 32.5
      vertex 79.41263213500977 57 32.53849812381785
      vertex 80.58736786499023 57 32.53849812381785
    endloop
  endfacet
  facet normal 0 1 0
    outer loop
      vertex 80 57 33.3
      vertex 82.25 57 33.102885682970026
      vertex 77.26057356946076 57 33.429909968689444
    endloop
  endfacet
  facet normal 0 1 0
    outer loop
      vertex 75.74672120073107 57 37.46016733927327
      vertex 75.69599027192076 57 37.56663363034208
      vertex 76.3316540129169 57 37.48294691121419
    endloop
  endfacet
  facet normal 0 1 0
    outer loop
      vertex 75.95803537070951 57 37
      vertex 75.74672120073107 57 37.46016733927327
      vertex 76.3316540129169 57 37.48294691121419
    endloop
  endfacet
  facet normal 0 1 0
    outer loop
      vertex 75.5840412507279 57 37.81632862550005
      vertex 76.42607444273045 57 37.95763046687933
      vertex 75.69599027192076 57 37.56663363034208
    endloop
  endfacet
  facet normal 0 1 0
    outer loop
      vertex 75.5840412507279 57 37.81632862550005
      vertex 75.65333378169919 57 38.16468570296134
      vertex 76.42607444273045 57 37.95763046687933
    endloop
  endfacet
  facet normal 0 1 0
    outer loop
      vertex 76.3 57 37
      vertex 75.95803537070951 57 37
      vertex 76.3316540129169 57 37.48294691121419
    endloop
  endfacet
  facet normal 0 1 0
    outer loop
      vertex 76.3316540129169 57 37.48294691121419
      vertex 75.69599027192076 57 37.56663363034208
      vertex 76.42607444273045 57 37.95763046687933
    endloop
  endfacet
  facet normal 0 1 0
    outer loop
      vertex 75.65333378169919 57 38.16468570296134
      vertex 75.84254210369922 57 38.7220754456429
      vertex 76.58164572970824 57 38.41592869975083
    endloop
  endfacet
  facet normal 0 1 0
    outer loop
      vertex 75.86638252692016 57 38.77041904159351
      vertex 76.58164572970824 57 38.41592869975083
      vertex 75.84254210369922 57 38.7220754456429
    endloop
  endfacet
  facet normal 0 1 0
    outer loop
      vertex 75.86638252692016 57 38.77041904159351
      vertex 76.02765124170831 57 39.09743964500051
      vertex 76.3364515896074 57 38.92946427172285
    endloop
  endfacet
  facet normal 0 1 0
    outer loop
      vertex 75.65333378169919 57 38.16468570296134
      vertex 76.58164572970824 57 38.41592869975083
      vertex 76.42607444273045 57 37.95763046687933
    endloop
  endfacet
  facet normal 0 1 0
    outer loop
      vertex 75.86638252692016 57 38.77041904159351
      vertex 76.79570600599757 57 38.85
      vertex 76.58164572970824 57 38.41592869975083
    endloop
  endfacet
  facet normal 0 1 0
    outer loop
      vertex 75.86638252692016 57 38.77041904159351
      vertex 76.3364515896074 57 38.92946427172285
      vertex 76.79570600599757 57 38.85
    endloop
  endfacet
  facet normal 0 1 0
    outer loop
      vertex 76.3364515896074 57 38.92946427172285
      vertex 76.10288568297003 57 39.25
      vertex 76.79570600599757 57 38.85
    endloop
  endfacet
  facet normal 0 1 0
    outer loop
      vertex 76.79570600599757 57 38.85
      vertex 76.10288568297003 57 39.25
      vertex 77.06459264092243 57 39.252417287332264
    endloop
  endfacet
  facet normal 0 1 0
    outer loop
      vertex 76.22442157864677 57 39.43189132184051
      vertex 77.06459264092243 57 39.252417287332264
      vertex 76.10288568297003 57 39.25
    endloop
  endfacet
  facet normal 0 1 0
    outer loop
      vertex 77.38370490960978 57 39.616295090390224
      vertex 77.06459264092243 57 39.25241728733227
      vertex 76.42990996868944 57 39.73942643053924
    endloop
  endfacet
  facet normal 0 1 0
    outer loop
      vertex 76.42990996868944 57 39.73942643053924
      vertex 77.11150673844092 57 39.88849326155908
      vertex 77.38370490960978 57 39.616295090390224
    endloop
  endfacet
  facet normal 0 1 0
    outer loop
      vertex 76.42990996868944 57 39.73942643053924
      vertex 76.71380557101831 57 40.06314732193015
      vertex 77.11150673844092 57 39.88849326155908
    endloop
  endfacet
  facet normal 0 1 0
    outer loop
      vertex 79.04236953312068 57 40.573925557269554
      vertex 78.58407130024916 57 40.41835427029176
      vertex 77.75 57 40.897114317029974
    endloop
  endfacet
  facet normal 0 1 0
    outer loop
      vertex 79.04236953312068 57 40.573925557269554
      vertex 77.75 57 40.897114317029974
      vertex 79.51705308878581 57 40.6683459870831
    endloop
  endfacet
  facet normal 0 1 0
    outer loop
      vertex 79.51705308878581 57 40.6683459870831
      vertex 77.75 57 40.897114317029974
      vertex 80 57 40.7
    endloop
  endfacet
  facet normal 0 1 0
    outer loop
      vertex 78.2779245543571 57 41.15745789630079
      vertex 82.25 57 40.897114317029974
      vertex 77.75 57 40.897114317029974
    endloop
  endfacet
  facet normal 0 1 0
    outer loop
      vertex 78.2779245543571 57 41.15745789630079
      vertex 78.83531429703865 57 41.34666621830081
      vertex 81.7220754456429 57 41.15745789630079
    endloop
  endfacet
  facet normal 0 1 0
    outer loop
      vertex 78.83531429703865 57 41.34666621830081
      vertex 79.41263213500977 57 41.46150187618215
      vertex 81.16468570296135 57 41.34666621830081
    endloop
  endfacet
  facet normal 0 1 0
    outer loop
      vertex 79.41263213500977 57 41.46150187618215
      vertex 80 57 41.5
      vertex 80.58736786499023 57 41.46150187618215
    endloop
  endfacet
  facet normal 0 1 0
    outer loop
      vertex 80.58736786499023 57 32.53849812381785
      vertex 78.83531429703865 57 32.65333378169919
      vertex 81.16468570296135 57 32.65333378169919
    endloop
  endfacet
  facet normal 0 1 0
    outer loop
      vertex 81.16468570296135 57 32.65333378169919
      vertex 78.2779245543571 57 32.84254210369921
      vertex 81.7220754456429 57 32.84254210369921
    endloop
  endfacet
  facet normal 0 1 0
    outer loop
      vertex 81.7220754456429 57 32.84254210369921
      vertex 77.75 57 33.102885682970026
      vertex 82.25 57 33.102885682970026
    endloop
  endfacet
  facet normal 0 1 0
    outer loop
      vertex 80 57 33.3
      vertex 80.48294691121419 57 33.3316540129169
      vertex 82.25 57 33.102885682970026
    endloop
  endfacet
  facet normal 0 1 0
    outer loop
      vertex 80.48294691121419 57 33.3316540129169
      vertex 80.95763046687932 57 33.426074442730446
      vertex 82.25 57 33.102885682970026
    endloop
  endfacet
  facet normal 0 1 0
    outer loop
      vertex 80.95763046687932 57 33.426074442730446
      vertex 81.41592869975084 57 33.58164572970824
      vertex 82.25 57 33.102885682970026
    endloop
  endfacet
  facet normal 0 1 0
    outer loop
      vertex 81.85 57 33.79570600599758
      vertex 82.73942643053924 57 33.429909968689444
      vertex 81.41592869975084 57 33.58164572970824
    endloop
  endfacet
  facet normal 0 1 0
    outer loop
      vertex 82.25 57 33.102885682970026
      vertex 81.41592869975084 57 33.58164572970824
      vertex 82.73942643053924 57 33.429909968689444
    endloop
  endfacet
  facet normal 0 1 0
    outer loop
      vertex 81.85 57 33.79570600599758
      vertex 82.25241728733226 57 34.06459264092243
      vertex 82.73942643053924 57 33.429909968689444
    endloop
  endfacet
  facet normal 0 1 0
    outer loop
      vertex 83.18198051533946 57 33.81801948466054
      vertex 82.73942643053924 57 33.429909968689444
      vertex 82.25241728733226 57 34.06459264092243
    endloop
  endfacet
  facet normal 0 1 0
    outer loop
      vertex 83.18198051533946 57 33.81801948466054
      vertex 82.25241728733226 57 34.06459264092243
      vertex 82.61629509039022 57 34.383704909609776
    endloop
  endfacet
  facet normal 0 1 0
    outer loop
      vertex 83.18198051533946 57 33.81801948466054
      vertex 82.61629509039022 57 34.383704909609776
      vertex 83.57009003131056 57 34.26057356946076
    endloop
  endfacet
  facet normal 0 1 0
    outer loop
      vertex 83.57009003131056 57 34.26057356946076
      vertex 82.61629509039022 57 34.383704909609776
      vertex 82.93540735907757 57 34.74758271266773
    endloop
  endfacet
  facet normal 0 1 0
    outer loop
      vertex 83.57009003131056 57 34.26057356946076
      vertex 82.93540735907757 57 34.74758271266773
      vertex 83.89711431702997 57 34.75
    endloop
  endfacet
  facet normal 0 1 0
    outer loop
      vertex 83.89711431702997 57 34.75
      vertex 82.93540735907757 57 34.74758271266773
      vertex 83.20429399400243 57 35.15
    endloop
  endfacet
  facet normal 0 1 0
    outer loop
      vertex 84.15745789630078 57 35.2779245543571
      vertex 83.89711431702997 57 34.75
      vertex 83.20429399400243 57 35.15
    endloop
  endfacet
  facet normal 0 1 0
    outer loop
      vertex 83.20429399400243 57 35.15
      vertex 83.41835427029176 57 35.58407130024917
      vertex 84.15745789630078 57 35.2779245543571
    endloop
  endfacet
  facet normal 0 1 0
    outer loop
      vertex 83.41835427029176 57 35.58407130024917
      vertex 83.57392555726955 57 36.04236953312067
      vertex 84.34666621830081 57 35.83531429703866
    endloop
  endfacet
  facet normal 0 1 0
    outer loop
      vertex 83.41835427029176 57 35.58407130024917
      vertex 84.34666621830081 57 35.83531429703866
      vertex 84.15745789630078 57 35.2779245543571
    endloop
  endfacet
  facet normal 0 1 0
    outer loop
      vertex 83.57392555726955 57 36.04236953312067
      vertex 83.6683459870831 57 36.51705308878581
      vertex 84.46150187618214 57 36.412632135009765
    endloop
  endfacet
  facet normal 0 1 0
    outer loop
      vertex 84.34666621830081 57 35.83531429703866
      vertex 83.57392555726955 57 36.04236953312067
      vertex 84.46150187618214 57 36.412632135009765
    endloop
  endfacet
  facet normal 0 1 0
    outer loop
      vertex 84.46150187618214 57 36.412632135009765
      vertex 83.6683459870831 57 36.51705308878581
      vertex 84.5 57 37
    endloop
  endfacet
  facet normal 0 1 0
    outer loop
      vertex 83.6683459870831 57 36.51705308878581
      vertex 83.7 57 37
      vertex 84.5 57 37
    endloop
  endfacet
  facet normal 0 1 0
    outer loop
      vertex 80 57 40.7
      vertex 77.75 57 40.897114317029974
      vertex 82.73942643053924 57 40.570090031310556
    endloop
  endfacet
  facet normal 0 1 0
    outer loop
      vertex 81.16468570296135 57 41.34666621830081
      vertex 79.41263213500977 57 41.46150187618215
      vertex 80.58736786499023 57 41.46150187618215
    endloop
  endfacet
  facet normal 0 1 0
    outer loop
      vertex 81.7220754456429 57 41.15745789630079
      vertex 78.83531429703865 57 41.34666621830081
      vertex 81.16468570296135 57 41.34666621830081
    endloop
  endfacet
  facet normal 0 1 0
    outer loop
      vertex 80 57 40.7
      vertex 82.73942643053924 57 40.570090031310556
      vertex 80.48294691121419 57 40.6683459870831
    endloop
  endfacet
  facet normal 0 1 0
    outer loop
      vertex 82.73942643053924 57 40.570090031310556
      vertex 77.75 57 40.897114317029974
      vertex 82.25 57 40.897114317029974
    endloop
  endfacet
  facet normal 0 1 0
    outer loop
      vertex 82.25 57 40.897114317029974
      vertex 78.2779245543571 57 41.15745789630079
      vertex 81.7220754456429 57 41.15745789630079
    endloop
  endfacet
  facet normal 0 1 0
    outer loop
      vertex 81.85 57 40.20429399400242
      vertex 81.41592869975084 57 40.41835427029176
      vertex 83.18198051533946 57 40.18198051533946
    endloop
  endfacet
  facet normal 0 1 0
    outer loop
      vertex 80.48294691121419 57 40.6683459870831
      vertex 82.73942643053924 57 40.570090031310556
      vertex 80.95763046687932 57 40.573925557269554
    endloop
  endfacet
  facet normal 0 1 0
    outer loop
      vertex 81.41592869975084 57 40.41835427029176
      vertex 80.95763046687932 57 40.573925557269554
      vertex 82.73942643053924 57 40.570090031310556
    endloop
  endfacet
  facet normal 0 1 0
    outer loop
      vertex 83.6683459870831 57 37.48294691121419
      vertex 83.57392555726955 57 37.95763046687932
      vertex 84.34666621830081 57 38.16468570296134
    endloop
  endfacet
  facet normal 0 1 0
    outer loop
      vertex 84.5 57 37
      vertex 83.7 57 37
      vertex 84.46150187618214 57 37.587367864990235
    endloop
  endfacet
  facet normal 0 1 0
    outer loop
      vertex 83.7 57 37
      vertex 83.6683459870831 57 37.48294691121419
      vertex 84.46150187618214 57 37.587367864990235
    endloop
  endfacet
  facet normal 0 1 0
    outer loop
      vertex 83.20429399400243 57 38.85
      vertex 84.15745789630078 57 38.7220754456429
      vertex 83.41835427029176 57 38.41592869975083
    endloop
  endfacet
  facet normal 0 1 0
    outer loop
      vertex 83.57392555726955 57 37.95763046687932
      vertex 83.41835427029176 57 38.41592869975083
      vertex 84.15745789630078 57 38.7220754456429
    endloop
  endfacet
  facet normal 0 1 0
    outer loop
      vertex 83.20429399400243 57 38.85
      vertex 82.93540735907757 57 39.252417287332264
      vertex 84.15745789630078 57 38.7220754456429
    endloop
  endfacet
  facet normal 0 1 0
    outer loop
      vertex 83.89711431702997 57 39.25
      vertex 84.15745789630078 57 38.7220754456429
      vertex 82.93540735907757 57 39.252417287332264
    endloop
  endfacet
  facet normal 0 1 0
    outer loop
      vertex 84.34666621830081 57 38.16468570296134
      vertex 83.57392555726955 57 37.95763046687932
      vertex 84.15745789630078 57 38.7220754456429
    endloop
  endfacet
  facet normal 0 1 0
    outer loop
      vertex 82.25241728733226 57 39.93540735907757
      vertex 83.57009003131056 57 39.73942643053924
      vertex 82.61629509039022 57 39.616295090390224
    endloop
  endfacet
  facet normal 0 1 0
    outer loop
      vertex 82.25241728733226 57 39.93540735907757
      vertex 81.85 57 40.20429399400242
      vertex 83.57009003131056 57 39.73942643053924
    endloop
  endfacet
  facet normal 0 1 0
    outer loop
      vertex 82.93540735907757 57 39.252417287332264
      vertex 82.61629509039022 57 39.616295090390224
      vertex 83.89711431702997 57 39.25
    endloop
  endfacet
  facet normal 0 1 0
    outer loop
      vertex 82.61629509039022 57 39.616295090390224
      vertex 83.57009003131056 57 39.73942643053924
      vertex 83.89711431702997 57 39.25
    endloop
  endfacet
  facet normal 0 1 0
    outer loop
      vertex 81.85 57 40.20429399400242
      vertex 83.18198051533946 57 40.18198051533946
      vertex 83.57009003131056 57 39.73942643053924
    endloop
  endfacet
  facet normal 0 1 0
    outer loop
      vertex 82.73942643053924 57 40.570090031310556
      vertex 83.18198051533946 57 40.18198051533946
      vertex 81.41592869975084 57 40.41835427029176
    endloop
  endfacet
endsolid OpenSCAD_Model
