solid OpenSCAD_Model
  facet normal 0 0 1
    outer loop
      vertex 87.0305818284807 28 7.4
      vertex 95.27838974742656 28 7.4
      vertex 77.5 36.57353574426864 7.4
    endloop
  endfacet
  facet normal 0 0 1
    outer loop
      vertex 95.27838974742656 28 7.4
      vertex 95.3 28.168394480130083 7.4
      vertex 77.5 36.57353574426864 7.4
    endloop
  endfacet
  facet normal 0 0 1
    outer loop
      vertex 95.3 28.168394480130083 7.4
      vertex 95.3 41.12432432432433 7.4
      vertex 77.5 36.57353574426864 7.4
    endloop
  endfacet
  facet normal 0 0 1
    outer loop
      vertex 77.5 36.57353574426864 7.4
      vertex 95.3 41.12432432432433 7.4
      vertex 77.5 40.97790055248619 7.4
    endloop
  endfacet
  facet normal 0 0 1
    outer loop
      vertex 77.5 40.97790055248619 7.4
      vertex 95.3 41.12432432432433 7.4
      vertex 79.38709677419355 50.5 7.4
    endloop
  endfacet
  facet normal 0 0 1
    outer loop
      vertex 79.38709677419355 50.5 7.4
      vertex 95.3 41.12432432432433 7.4
      vertex 80.21739130434783 50.5 7.4
    endloop
  endfacet
  facet normal 0 0 1
    outer loop
      vertex 102.5 33 7.4
      vertex 99.73838354064213 29 7.4
      vertex 108.63333333333333 29 7.4
    endloop
  endfacet
  facet normal 0 0 1
    outer loop
      vertex 102.5 33 7.4
      vertex 102 33 7.4
      vertex 99.73838354064213 29 7.4
    endloop
  endfacet
  facet normal 0 0 1
    outer loop
      vertex 99.5 33 7.4
      vertex 99 39.74999999999999 7.4
      vertex 99 34.25000000000001 7.4
    endloop
  endfacet
  facet normal 0 0 1
    outer loop
      vertex 99.5 33 7.4
      vertex 99.5 41 7.4
      vertex 99 39.74999999999999 7.4
    endloop
  endfacet
  facet normal 0 0 1
    outer loop
      vertex 102.5 33 7.4
      vertex 112.75 41 7.4
      vertex 102.5 41 7.4
    endloop
  endfacet
  facet normal 0 0 1
    outer loop
      vertex 102.5 41 7.4
      vertex 112.75 41 7.4
      vertex 112.75315066249894 49 7.4
    endloop
  endfacet
  facet normal 0 0 1
    outer loop
      vertex 112.75 41 7.4
      vertex 113.86447289809772 49 7.4
      vertex 112.75315066249894 49 7.4
    endloop
  endfacet
  facet normal 0 0 -1
    outer loop
      vertex 77.5 36.57353574426864 7.4
      vertex 80.21739130434783 50.5 7.4
      vertex 87.0305818284807 28 7.4
    endloop
  endfacet
  facet normal 0 0 -1
    outer loop
      vertex 87.0305818284807 28 7.4
      vertex 95.3 41.12432432432433 7.4
      vertex 95.27838974742656 28 7.4
    endloop
  endfacet
  facet normal 0 0 -1
    outer loop
      vertex 95.27838974742656 28 7.4
      vertex 95.3 41.12432432432433 7.4
      vertex 95.3 28.168394480130083 7.4
    endloop
  endfacet
  facet normal 0 0 -1
    outer loop
      vertex 77.5 36.57353574426864 7.4
      vertex 77.5 40.97790055248619 7.4
      vertex 80.21739130434783 50.5 7.4
    endloop
  endfacet
  facet normal 0 0 -1
    outer loop
      vertex 77.5 40.97790055248619 7.4
      vertex 79.38709677419355 50.5 7.4
      vertex 80.21739130434783 50.5 7.4
    endloop
  endfacet
  facet normal 0 0 -1
    outer loop
      vertex 95.3 41.12432432432433 7.4
      vertex 87.0305818284807 28 7.4
      vertex 80.21739130434783 50.5 7.4
    endloop
  endfacet
  facet normal 0 0 -1
    outer loop
      vertex 99.73838354064213 29 7.4
      vertex 102 33 7.4
      vertex 108.63333333333333 29 7.4
    endloop
  endfacet
  facet normal 0 0 -1
    outer loop
      vertex 102.5 33 7.4
      vertex 108.63333333333333 29 7.4
      vertex 102 33 7.4
    endloop
  endfacet
  facet normal 0 0 -1
    outer loop
      vertex 99.5 33 7.4
      vertex 99 34.25000000000001 7.4
      vertex 99.5 41 7.4
    endloop
  endfacet
  facet normal 0 0 -1
    outer loop
      vertex 99 34.25000000000001 7.4
      vertex 99 39.74999999999999 7.4
      vertex 99.5 41 7.4
    endloop
  endfacet
  facet normal 0 0 -1
    outer loop
      vertex 102.5 41 7.4
      vertex 113.86447289809772 49 7.4
      vertex 102.5 33 7.4
    endloop
  endfacet
  facet normal 0 0 -1
    outer loop
      vertex 112.75 41 7.4
      vertex 102.5 33 7.4
      vertex 113.86447289809772 49 7.4
    endloop
  endfacet
  facet normal 0 0 -1
    outer loop
      vertex 102.5 41 7.4
      vertex 112.75315066249894 49 7.4
      vertex 113.86447289809772 49 7.4
    endloop
  endfacet
endsolid OpenSCAD_Model
