solid OpenSCAD_Model
  facet normal 0 0 1
    outer loop
      vertex 92.35 -19.99185842870421 42.9
      vertex 92.61982810556029 -20.12492292477596 42.9
      vertex 92.35 -19.056762160495783 42.9
    endloop
  endfacet
  facet normal 0 0 1
    outer loop
      vertex 92.09984871327994 -19.82471268266984 42.9
      vertex 92 -18.30131570315093 42.9
      vertex 92 -19.73714771126322 42.9
    endloop
  endfacet
  facet normal 0 0 1
    outer loop
      vertex 92.61982810556029 -20.12492292477596 42.9
      vertex 92.70888867153529 -19.073928261737134 42.9
      vertex 92.6486952476189 -19.195019406402395 42.9
    endloop
  endfacet
  facet normal 0 0 1
    outer loop
      vertex 92.61982810556029 -20.12492292477596 42.9
      vertex 92.8219575197377 -19.16589945796129 42.9
      vertex 92.70888867153529 -19.073928261737134 42.9
    endloop
  endfacet
  facet normal 0 0 1
    outer loop
      vertex 92.61982810556029 -20.12492292477596 42.9
      vertex 92.6486952476189 -19.195019406402395 42.9
      vertex 92.64316739864671 -18.869579834820293 42.9
    endloop
  endfacet
  facet normal 0 0 1
    outer loop
      vertex 92.61982810556029 -20.12492292477596 42.9
      vertex 92.53184730794793 -18.782595348029343 42.9
      vertex 92.35 -19.056762160495783 42.9
    endloop
  endfacet
  facet normal 0 0 1
    outer loop
      vertex 92.61982810556029 -20.12492292477596 42.9
      vertex 92.64316739864671 -18.869579834820293 42.9
      vertex 92.61982810556029 -18.92874460929301 42.9
    endloop
  endfacet
  facet normal 0 0 1
    outer loop
      vertex 92.61982810556029 -20.12492292477596 42.9
      vertex 92.61982810556029 -18.92874460929301 42.9
      vertex 92.53184730794793 -18.782595348029343 42.9
    endloop
  endfacet
  facet normal 0 0 1
    outer loop
      vertex 92.61982810556029 -20.12492292477596 42.9
      vertex 92.9047161962642 -20.221629400464856 42.9
      vertex 92.8219575197377 -19.16589945796129 42.9
    endloop
  endfacet
  facet normal 0 0 1
    outer loop
      vertex 92.9047161962642 -20.221629400464856 42.9
      vertex 93.19978975789388 -20.280323181159766 42.9
      vertex 93.11588184801332 -19.242010984186557 42.9
    endloop
  endfacet
  facet normal 0 0 1
    outer loop
      vertex 93.19978975789388 -20.280323181159766 42.9
      vertex 93.5 -20.3 42.9
      vertex 93.42143689049996 -19.26808802823337 42.9
    endloop
  endfacet
  facet normal 0 0 1
    outer loop
      vertex 92.9047161962642 -20.221629400464856 42.9
      vertex 92.90142427124442 -19.29495003733454 42.9
      vertex 92.8533695449034 -19.11491531487141 42.9
    endloop
  endfacet
  facet normal 0 0 1
    outer loop
      vertex 92.9047161962642 -20.221629400464856 42.9
      vertex 92.8533695449034 -19.11491531487141 42.9
      vertex 92.8219575197377 -19.16589945796129 42.9
    endloop
  endfacet
  facet normal 0 0 1
    outer loop
      vertex 92.9047161962642 -20.221629400464856 42.9
      vertex 93.03076115779969 -19.122048757341783 42.9
      vertex 92.90142427124442 -19.29495003733454 42.9
    endloop
  endfacet
  facet normal 0 0 1
    outer loop
      vertex 92.9047161962642 -20.221629400464856 42.9
      vertex 93.11588184801332 -19.242010984186557 42.9
      vertex 93.03076115779969 -19.122048757341783 42.9
    endloop
  endfacet
  facet normal 0 0 1
    outer loop
      vertex 93.19978975789388 -20.280323181159766 42.9
      vertex 93.18114410864074 -19.16843759721676 42.9
      vertex 93.11588184801332 -19.242010984186557 42.9
    endloop
  endfacet
  facet normal 0 0 1
    outer loop
      vertex 93.19978975789388 -20.280323181159766 42.9
      vertex 93.25499950262748 -19.27592536805181 42.9
      vertex 93.18114410864074 -19.16843759721676 42.9
    endloop
  endfacet
  facet normal 0 0 1
    outer loop
      vertex 93.19978975789388 -20.280323181159766 42.9
      vertex 93.34336856933594 -19.18973383364857 42.9
      vertex 93.25499950262748 -19.27592536805181 42.9
    endloop
  endfacet
  facet normal 0 0 1
    outer loop
      vertex 93.19978975789388 -20.280323181159766 42.9
      vertex 93.42143689049996 -19.26808802823337 42.9
      vertex 93.34336856933594 -19.18973383364857 42.9
    endloop
  endfacet
  facet normal 0 0 1
    outer loop
      vertex 92.09984871327994 -19.82471268266984 42.9
      vertex 92.09984871327994 -16.17528731733016 42.9
      vertex 92 -18.30131570315093 42.9
    endloop
  endfacet
  facet normal 0 0 1
    outer loop
      vertex 93.5 -20.3 42.9
      vertex 93.80021024210612 -20.280323181159766 42.9
      vertex 93.5 -19.313617070672557 42.9
    endloop
  endfacet
  facet normal 0 0 1
    outer loop
      vertex 93.80021024210612 -20.280323181159766 42.9
      vertex 94.0952838037358 -20.221629400464856 42.9
      vertex 93.7398099580596 -19.181496995671022 42.9
    endloop
  endfacet
  facet normal 0 0 1
    outer loop
      vertex 93.5 -20.3 42.9
      vertex 93.5 -19.313617070672557 42.9
      vertex 93.42143689049996 -19.26808802823337 42.9
    endloop
  endfacet
  facet normal 0 0 1
    outer loop
      vertex 93.80021024210612 -20.280323181159766 42.9
      vertex 93.65663143066406 -19.18973383364857 42.9
      vertex 93.5 -19.313617070672557 42.9
    endloop
  endfacet
  facet normal 0 0 1
    outer loop
      vertex 93.80021024210612 -20.280323181159766 42.9
      vertex 93.7398099580596 -19.181496995671022 42.9
      vertex 93.65663143066406 -19.18973383364857 42.9
    endloop
  endfacet
  facet normal 0 0 1
    outer loop
      vertex 94.0952838037358 -20.221629400464856 42.9
      vertex 93.81058285412303 -19.159110991546882 42.9
      vertex 93.7398099580596 -19.181496995671022 42.9
    endloop
  endfacet
  facet normal 0 0 1
    outer loop
      vertex 94.0952838037358 -20.221629400464856 42.9
      vertex 93.89401021599903 -19.150916201168577 42.9
      vertex 93.81058285412303 -19.159110991546882 42.9
    endloop
  endfacet
  facet normal 0 0 1
    outer loop
      vertex 94.0952838037358 -20.221629400464856 42.9
      vertex 93.96761089457213 -19.107847002046277 42.9
      vertex 93.89401021599903 -19.150916201168577 42.9
    endloop
  endfacet
  facet normal 0 0 1
    outer loop
      vertex 94.0952838037358 -20.221629400464856 42.9
      vertex 94.03890889444466 -19.100977561053444 42.9
      vertex 93.96761089457213 -19.107847002046277 42.9
    endloop
  endfacet
  facet normal 0 0 1
    outer loop
      vertex 94.0952838037358 -20.221629400464856 42.9
      vertex 94.38017189443971 -20.12492292477596 42.9
      vertex 94.03890889444466 -19.100977561053444 42.9
    endloop
  endfacet
  facet normal 0 0 1
    outer loop
      vertex 94.38017189443971 -20.12492292477596 42.9
      vertex 94.10848948564639 -19.038437565129524 42.9
      vertex 94.03890889444466 -19.100977561053444 42.9
    endloop
  endfacet
  facet normal 0 0 1
    outer loop
      vertex 94.38017189443971 -20.12492292477596 42.9
      vertex 94.23949141279459 -19.0262019627213 42.9
      vertex 94.10848948564639 -19.038437565129524 42.9
    endloop
  endfacet
  facet normal 0 0 1
    outer loop
      vertex 94.38017189443971 -20.12492292477596 42.9
      vertex 94.28040324029362 -18.947563204475877 42.9
      vertex 94.23949141279459 -19.0262019627213 42.9
    endloop
  endfacet
  facet normal 0 0 1
    outer loop
      vertex 94.38017189443971 -20.12492292477596 42.9
      vertex 94.34344793833836 -18.94192614879085 42.9
      vertex 94.28040324029362 -18.947563204475877 42.9
    endloop
  endfacet
  facet normal 0 0 1
    outer loop
      vertex 94.38017189443971 -20.12492292477596 42.9
      vertex 94.65 -19.99185842870421 42.9
      vertex 94.38017189443971 -18.84585603624314 42.9
    endloop
  endfacet
  facet normal 0 0 1
    outer loop
      vertex 94.38017189443971 -20.12492292477596 42.9
      vertex 94.35642880518459 -18.847860979486782 42.9
      vertex 94.34344793833836 -18.94192614879085 42.9
    endloop
  endfacet
  facet normal 0 0 1
    outer loop
      vertex 94.38017189443971 -20.12492292477596 42.9
      vertex 94.38017189443971 -18.84585603624314 42.9
      vertex 94.35642880518459 -18.847860979486782 42.9
    endloop
  endfacet
  facet normal 0 0 1
    outer loop
      vertex 94.65 -19.99185842870421 42.9
      vertex 94.90015128672006 -19.82471268266984 42.9
      vertex 94.65 -18.456552503027506 42.9
    endloop
  endfacet
  facet normal 0 0 1
    outer loop
      vertex 94.65 -19.99185842870421 42.9
      vertex 94.56673638246467 -18.72150111221557 42.9
      vertex 94.38017189443971 -18.84585603624314 42.9
    endloop
  endfacet
  facet normal 0 0 1
    outer loop
      vertex 94.65 -19.99185842870421 42.9
      vertex 94.65 -18.456552503027506 42.9
      vertex 94.56673638246467 -18.72150111221557 42.9
    endloop
  endfacet
  facet normal 0 0 1
    outer loop
      vertex 94.90015128672006 -19.82471268266984 42.9
      vertex 94.65 -18.337422969717345 42.9
      vertex 94.65 -18.456552503027506 42.9
    endloop
  endfacet
  facet normal 0 0 1
    outer loop
      vertex 94.90015128672006 -19.82471268266984 42.9
      vertex 94.80038573479248 -18.302584500202375 42.9
      vertex 94.65 -18.337422969717345 42.9
    endloop
  endfacet
  facet normal 0 0 1
    outer loop
      vertex 94.65 -18.456552503027506 42.9
      vertex 94.55648014394401 -18.565021150978716 42.9
      vertex 94.56673638246467 -18.72150111221557 42.9
    endloop
  endfacet
  facet normal 0 0 1
    outer loop
      vertex 94.90015128672006 -19.82471268266984 42.9
      vertex 94.90015128672006 -16.17528731733016 42.9
      vertex 94.80038573479248 -18.302584500202375 42.9
    endloop
  endfacet
  facet normal 0 0 1
    outer loop
      vertex 92.35 -16.00814157129579 42.9
      vertex 92.35 -17.662577030282655 42.9
      vertex 92.37066906492244 -16.323490563165695 42.9
    endloop
  endfacet
  facet normal 0 0 1
    outer loop
      vertex 92.35 -16.00814157129579 42.9
      vertex 92.31650294576207 -16.030523587370805 42.9
      vertex 92.35 -17.662577030282655 42.9
    endloop
  endfacet
  facet normal 0 0 1
    outer loop
      vertex 92.61982810556029 -15.875077075224041 42.9
      vertex 92.65923995152795 -17.144659431402975 42.9
      vertex 92.72269594920823 -17.089010015001644 42.9
    endloop
  endfacet
  facet normal 0 0 1
    outer loop
      vertex 92.61982810556029 -15.875077075224041 42.9
      vertex 92.72269594920823 -17.089010015001644 42.9
      vertex 92.76929730262852 -17.042438304584966 42.9
    endloop
  endfacet
  facet normal 0 0 1
    outer loop
      vertex 92.61982810556029 -15.875077075224041 42.9
      vertex 92.62909094172049 -16.373294280177074 42.9
      vertex 92.65923995152795 -17.144659431402975 42.9
    endloop
  endfacet
  facet normal 0 0 1
    outer loop
      vertex 92.9047161962642 -15.778370599535144 42.9
      vertex 92.96264327222279 -16.929877272290373 42.9
      vertex 93.03275033849765 -16.895304293224456 42.9
    endloop
  endfacet
  facet normal 0 0 1
    outer loop
      vertex 93.19978975789388 -15.719676818840236 42.9
      vertex 93.26064179868413 -16.826721544147453 42.9
      vertex 93.34336856933594 -16.81026616635143 42.9
    endloop
  endfacet
  facet normal 0 0 1
    outer loop
      vertex 92.9047161962642 -15.778370599535144 42.9
      vertex 93.03275033849765 -16.895304293224456 42.9
      vertex 93.01674939547354 -16.374352548789766 42.9
    endloop
  endfacet
  facet normal 0 0 1
    outer loop
      vertex 92.9047161962642 -15.778370599535144 42.9
      vertex 92.85332051341685 -15.795817082964874 42.9
      vertex 92.96264327222279 -16.929877272290373 42.9
    endloop
  endfacet
  facet normal 0 0 1
    outer loop
      vertex 93.19978975789388 -15.719676818840236 42.9
      vertex 93.13045861640833 -15.733467640326262 42.9
      vertex 93.26064179868413 -16.826721544147453 42.9
    endloop
  endfacet
  facet normal 0 0 1
    outer loop
      vertex 93.80021024210612 -15.719676818840236 42.9
      vertex 93.8190605517079 -16.843766799003664 42.9
      vertex 93.89308052162329 -16.868893193032378 42.9
    endloop
  endfacet
  facet normal 0 0 1
    outer loop
      vertex 94.0952838037358 -15.778370599535144 42.9
      vertex 93.96724966150235 -16.895304293224456 42.9
      vertex 94.09948323864316 -16.9605146769592 42.9
    endloop
  endfacet
  facet normal 0 0 1
    outer loop
      vertex 94.0952838037358 -15.778370599535144 42.9
      vertex 94.09946376989711 -16.955034210340617 42.9
      vertex 94.1517460529901 -16.995345122663302 42.9
    endloop
  endfacet
  facet normal 0 0 1
    outer loop
      vertex 94.0952838037358 -15.778370599535144 42.9
      vertex 94.1517460529901 -16.995345122663302 42.9
      vertex 94.1928346015741 -17.022799613090235 42.9
    endloop
  endfacet
  facet normal 0 0 1
    outer loop
      vertex 94.65 -17.27602509758553 42.9
      vertex 94.65 -17.49406344585655 42.9
      vertex 94.75316844886873 -17.58218792828424 42.9
    endloop
  endfacet
  facet normal 0 0 1
    outer loop
      vertex 94.90015128672006 -16.17528731733016 42.9
      vertex 94.75316844886873 -17.58218792828424 42.9
      vertex 94.80038573479248 -18.302584500202375 42.9
    endloop
  endfacet
  facet normal 0 0 1
    outer loop
      vertex 94.38017189443971 -15.875077075224041 42.9
      vertex 94.35660593553749 -17.142611766893854 42.9
      vertex 94.38017189443971 -17.11676355333598 42.9
    endloop
  endfacet
  facet normal 0 0 1
    outer loop
      vertex 94.38017189443971 -15.875077075224041 42.9
      vertex 94.38017189443971 -17.11676355333598 42.9
      vertex 94.47024306044194 -17.249297510542483 42.9
    endloop
  endfacet
  facet normal 0 0 1
    outer loop
      vertex 94.38017189443971 -15.875077075224041 42.9
      vertex 94.3477111223648 -16.92074297801055 42.9
      vertex 94.35660593553749 -17.142611766893854 42.9
    endloop
  endfacet
  facet normal 0 0 1
    outer loop
      vertex 94.38017189443971 -15.875077075224041 42.9
      vertex 94.28587415946997 -16.98787503585752 42.9
      vertex 94.3477111223648 -16.92074297801055 42.9
    endloop
  endfacet
  facet normal 0 0 1
    outer loop
      vertex 94.65 -16.00814157129579 42.9
      vertex 94.65 -17.27602509758553 42.9
      vertex 94.75316844886873 -17.58218792828424 42.9
    endloop
  endfacet
  facet normal 0 0 1
    outer loop
      vertex 94.65 -16.00814157129579 42.9
      vertex 94.47024306044194 -17.249297510542483 42.9
      vertex 94.65 -17.27602509758553 42.9
    endloop
  endfacet
  facet normal 0 0 1
    outer loop
      vertex 94.65 -16.00814157129579 42.9
      vertex 94.75316844886873 -17.58218792828424 42.9
      vertex 94.90015128672006 -16.17528731733016 42.9
    endloop
  endfacet
  facet normal 0 0 1
    outer loop
      vertex 93.5 -15.7 42.9
      vertex 93.5 -16.8 42.9
      vertex 93.58416688946603 -16.805516589389992 42.9
    endloop
  endfacet
  facet normal 0 0 1
    outer loop
      vertex 93.5 -15.7 42.9
      vertex 93.46071636559223 -16.21598330180463 42.9
      vertex 93.5 -16.8 42.9
    endloop
  endfacet
  facet normal 0 0 1
    outer loop
      vertex 93.80021024210612 -15.719676818840236 42.9
      vertex 93.76767907880698 -16.311496785282216 42.9
      vertex 93.8190605517079 -16.843766799003664 42.9
    endloop
  endfacet
  facet normal 0 0 1
    outer loop
      vertex 93.5 -15.7 42.9
      vertex 93.58416688946603 -16.805516589389992 42.9
      vertex 93.57455231866548 -15.704886417126241 42.9
    endloop
  endfacet
  facet normal 0 0 1
    outer loop
      vertex 94.0952838037358 -15.778370599535144 42.9
      vertex 93.85770097539266 -15.731112436700656 42.9
      vertex 93.96724966150235 -16.895304293224456 42.9
    endloop
  endfacet
  facet normal 0 0 1
    outer loop
      vertex 94.0952838037358 -15.778370599535144 42.9
      vertex 94.1928346015741 -17.022799613090235 42.9
      vertex 94.10525536802744 -15.781755489501471 42.9
    endloop
  endfacet
  facet normal 0 0 1
    outer loop
      vertex 93.80021024210612 -15.719676818840236 42.9
      vertex 93.89308052162329 -16.868893193032378 42.9
      vertex 93.85770097539266 -15.731112436700656 42.9
    endloop
  endfacet
  facet normal 0 0 1
    outer loop
      vertex 94.38017189443971 -15.875077075224041 42.9
      vertex 94.47024306044194 -17.249297510542483 42.9
      vertex 94.65 -16.00814157129579 42.9
    endloop
  endfacet
  facet normal 0 0 1
    outer loop
      vertex 94.90015128672006 -19.82471268266984 42.9
      vertex 95.12634559672905 -19.62634559672906 42.9
      vertex 94.90015128672006 -16.17528731733016 42.9
    endloop
  endfacet
  facet normal 0 0 1
    outer loop
      vertex 95.12634559672905 -19.62634559672906 42.9
      vertex 95.32471268266984 -19.400151286720057 42.9
      vertex 95.12634559672905 -16.37365440327094 42.9
    endloop
  endfacet
  facet normal 0 0 1
    outer loop
      vertex 95.32471268266984 -19.400151286720057 42.9
      vertex 95.4918584287042 -19.15 42.9
      vertex 95.32471268266984 -16.599848713279943 42.9
    endloop
  endfacet
  facet normal 0 0 1
    outer loop
      vertex 95.4918584287042 -19.15 42.9
      vertex 95.62492292477596 -18.880171894439705 42.9
      vertex 95.4918584287042 -16.85 42.9
    endloop
  endfacet
  facet normal 0 0 1
    outer loop
      vertex 95.62492292477596 -18.880171894439705 42.9
      vertex 95.72162940046486 -18.595283803735796 42.9
      vertex 95.62492292477596 -17.119828105560295 42.9
    endloop
  endfacet
  facet normal 0 0 1
    outer loop
      vertex 95.72162940046486 -18.595283803735796 42.9
      vertex 95.78032318115976 -18.300210242106118 42.9
      vertex 95.72162940046486 -17.404716196264204 42.9
    endloop
  endfacet
  facet normal 0 0 1
    outer loop
      vertex 95.78032318115976 -18.300210242106118 42.9
      vertex 95.78032318115976 -17.699789757893882 42.9
      vertex 95.72162940046486 -17.404716196264204 42.9
    endloop
  endfacet
  facet normal 0 0 1
    outer loop
      vertex 95.78032318115976 -18.300210242106118 42.9
      vertex 95.8 -18 42.9
      vertex 95.78032318115976 -17.699789757893882 42.9
    endloop
  endfacet
  facet normal 0 0 1
    outer loop
      vertex 94.90015128672006 -16.17528731733016 42.9
      vertex 95.12634559672905 -19.62634559672906 42.9
      vertex 95.12634559672905 -16.37365440327094 42.9
    endloop
  endfacet
  facet normal 0 0 1
    outer loop
      vertex 95.32471268266984 -19.400151286720057 42.9
      vertex 95.32471268266984 -16.599848713279943 42.9
      vertex 95.12634559672905 -16.37365440327094 42.9
    endloop
  endfacet
  facet normal 0 0 1
    outer loop
      vertex 95.62492292477596 -18.880171894439705 42.9
      vertex 95.62492292477596 -17.119828105560295 42.9
      vertex 95.4918584287042 -16.85 42.9
    endloop
  endfacet
  facet normal 0 0 1
    outer loop
      vertex 95.4918584287042 -19.15 42.9
      vertex 95.4918584287042 -16.85 42.9
      vertex 95.32471268266984 -16.599848713279943 42.9
    endloop
  endfacet
  facet normal 0 0 1
    outer loop
      vertex 95.72162940046486 -18.595283803735796 42.9
      vertex 95.72162940046486 -17.404716196264204 42.9
      vertex 95.62492292477596 -17.119828105560295 42.9
    endloop
  endfacet
  facet normal 0 0 1
    outer loop
      vertex 111.87507707522404 -18.880171894439705 42.9
      vertex 112.0081415712958 -19.15 42.9
      vertex 111.87507707522404 -17.119828105560295 42.9
    endloop
  endfacet
  facet normal 0 0 1
    outer loop
      vertex 112.0081415712958 -19.15 42.9
      vertex 112.17528731733016 -19.400151286720057 42.9
      vertex 112.0081415712958 -16.85 42.9
    endloop
  endfacet
  facet normal 0 0 1
    outer loop
      vertex 111.77837059953514 -18.595283803735796 42.9
      vertex 111.71967681884024 -17.699789757893882 42.9
      vertex 111.71967681884024 -18.300210242106118 42.9
    endloop
  endfacet
  facet normal 0 0 1
    outer loop
      vertex 111.71967681884024 -18.300210242106118 42.9
      vertex 111.71967681884024 -17.699789757893882 42.9
      vertex 111.7 -18 42.9
    endloop
  endfacet
  facet normal 0 0 1
    outer loop
      vertex 111.77837059953514 -18.595283803735796 42.9
      vertex 111.77837059953514 -17.404716196264204 42.9
      vertex 111.71967681884024 -17.699789757893882 42.9
    endloop
  endfacet
  facet normal 0 0 1
    outer loop
      vertex 111.77837059953514 -18.595283803735796 42.9
      vertex 111.87507707522404 -18.880171894439705 42.9
      vertex 111.77837059953514 -17.404716196264204 42.9
    endloop
  endfacet
  facet normal 0 0 1
    outer loop
      vertex 111.87507707522404 -18.880171894439705 42.9
      vertex 111.87507707522404 -17.119828105560295 42.9
      vertex 111.77837059953514 -17.404716196264204 42.9
    endloop
  endfacet
  facet normal 0 0 1
    outer loop
      vertex 112.0081415712958 -19.15 42.9
      vertex 112.0081415712958 -16.85 42.9
      vertex 111.87507707522404 -17.119828105560295 42.9
    endloop
  endfacet
  facet normal 0 0 1
    outer loop
      vertex 112.17528731733016 -19.400151286720057 42.9
      vertex 112.17528731733016 -16.599848713279943 42.9
      vertex 112.0081415712958 -16.85 42.9
    endloop
  endfacet
  facet normal 0 0 1
    outer loop
      vertex 112.85 -19.99185842870421 42.9
      vertex 112.74049465206333 -18.321129675093086 42.9
      vertex 112.59984871327994 -19.82471268266984 42.9
    endloop
  endfacet
  facet normal 0 0 1
    outer loop
      vertex 113.11982810556029 -20.12492292477596 42.9
      vertex 113.4047161962642 -20.221629400464856 42.9
      vertex 113.31249616435177 -19.04520351891519 42.9
    endloop
  endfacet
  facet normal 0 0 1
    outer loop
      vertex 112.85 -19.99185842870421 42.9
      vertex 113.11982810556029 -20.12492292477596 42.9
      vertex 113.0285407889358 -18.73214761655319 42.9
    endloop
  endfacet
  facet normal 0 0 1
    outer loop
      vertex 113.11982810556029 -20.12492292477596 42.9
      vertex 113.21890681759247 -18.955705141051087 42.9
      vertex 113.15598215278604 -18.96028474721068 42.9
    endloop
  endfacet
  facet normal 0 0 1
    outer loop
      vertex 112.85 -19.99185842870421 42.9
      vertex 113.0285407889358 -18.73214761655319 42.9
      vertex 112.85 -18.610040761109286 42.9
    endloop
  endfacet
  facet normal 0 0 1
    outer loop
      vertex 113.11982810556029 -20.12492292477596 42.9
      vertex 113.11982810556029 -18.8509988295193 42.9
      vertex 113.0285407889358 -18.73214761655319 42.9
    endloop
  endfacet
  facet normal 0 0 1
    outer loop
      vertex 113.11982810556029 -20.12492292477596 42.9
      vertex 113.15598215278604 -18.96028474721068 42.9
      vertex 113.14354728749072 -18.849146875110833 42.9
    endloop
  endfacet
  facet normal 0 0 1
    outer loop
      vertex 113.11982810556029 -20.12492292477596 42.9
      vertex 113.14354728749072 -18.849146875110833 42.9
      vertex 113.11982810556029 -18.8509988295193 42.9
    endloop
  endfacet
  facet normal 0 0 1
    outer loop
      vertex 113.11982810556029 -20.12492292477596 42.9
      vertex 113.31249616435177 -19.04520351891519 42.9
      vertex 113.21890681759247 -18.955705141051087 42.9
    endloop
  endfacet
  facet normal 0 0 1
    outer loop
      vertex 113.4047161962642 -20.221629400464856 42.9
      vertex 113.35001639946066 -19.042642377996504 42.9
      vertex 113.31249616435177 -19.04520351891519 42.9
    endloop
  endfacet
  facet normal 0 0 1
    outer loop
      vertex 113.4047161962642 -20.221629400464856 42.9
      vertex 113.60958140484664 -19.16404661830482 42.9
      vertex 113.53223315353586 -19.109207482303635 42.9
    endloop
  endfacet
  facet normal 0 0 1
    outer loop
      vertex 113.4047161962642 -20.221629400464856 42.9
      vertex 113.40079460051516 -19.117697254580136 42.9
      vertex 113.35001639946066 -19.042642377996504 42.9
    endloop
  endfacet
  facet normal 0 0 1
    outer loop
      vertex 113.4047161962642 -20.221629400464856 42.9
      vertex 113.53223315353586 -19.109207482303635 42.9
      vertex 113.40079460051516 -19.117697254580136 42.9
    endloop
  endfacet
  facet normal 0 0 1
    outer loop
      vertex 112.17528731733016 -19.400151286720057 42.9
      vertex 112.37365440327095 -19.62634559672906 42.9
      vertex 112.17528731733016 -16.599848713279943 42.9
    endloop
  endfacet
  facet normal 0 0 1
    outer loop
      vertex 112.37365440327095 -19.62634559672906 42.9
      vertex 112.59984871327994 -19.82471268266984 42.9
      vertex 112.37365440327095 -16.37365440327094 42.9
    endloop
  endfacet
  facet normal 0 0 1
    outer loop
      vertex 112.85 -19.99185842870421 42.9
      vertex 112.85 -18.610040761109286 42.9
      vertex 112.74049465206333 -18.321129675093086 42.9
    endloop
  endfacet
  facet normal 0 0 1
    outer loop
      vertex 112.74049465206333 -18.321129675093086 42.9
      vertex 112.70033242336001 -17.708372475850496 42.9
      vertex 112.59984871327994 -19.82471268266984 42.9
    endloop
  endfacet
  facet normal 0 0 1
    outer loop
      vertex 112.85 -18.610040761109286 42.9
      vertex 112.85 -18.463258879867123 42.9
      vertex 112.74049465206333 -18.321129675093086 42.9
    endloop
  endfacet
  facet normal 0 0 1
    outer loop
      vertex 112.59984871327994 -19.82471268266984 42.9
      vertex 112.70033242336001 -17.708372475850496 42.9
      vertex 112.59984871327994 -16.17528731733016 42.9
    endloop
  endfacet
  facet normal 0 0 1
    outer loop
      vertex 113.4047161962642 -20.221629400464856 42.9
      vertex 113.69978975789388 -20.280323181159766 42.9
      vertex 113.60958140484664 -19.16404661830482 42.9
    endloop
  endfacet
  facet normal 0 0 1
    outer loop
      vertex 113.69978975789388 -20.280323181159766 42.9
      vertex 113.6809964370354 -19.15963157888462 42.9
      vertex 113.60958140484664 -19.16404661830482 42.9
    endloop
  endfacet
  facet normal 0 0 1
    outer loop
      vertex 113.69978975789388 -20.280323181159766 42.9
      vertex 113.75946061514479 -19.194767020407994 42.9
      vertex 113.6809964370354 -19.15963157888462 42.9
    endloop
  endfacet
  facet normal 0 0 1
    outer loop
      vertex 113.69978975789388 -20.280323181159766 42.9
      vertex 113.84336856933594 -19.18973383364857 42.9
      vertex 113.75946061514479 -19.194767020407994 42.9
    endloop
  endfacet
  facet normal 0 0 1
    outer loop
      vertex 113.69978975789388 -20.280323181159766 42.9
      vertex 113.9166281811402 -19.204926516568985 42.9
      vertex 113.84336856933594 -19.18973383364857 42.9
    endloop
  endfacet
  facet normal 0 0 1
    outer loop
      vertex 114.30021024210612 -20.280323181159766 42.9
      vertex 114.15663143066406 -19.18973383364857 42.9
      vertex 114 -19.2 42.9
    endloop
  endfacet
  facet normal 0 0 1
    outer loop
      vertex 114.30021024210612 -20.280323181159766 42.9
      vertex 114.5952838037358 -20.221629400464856 42.9
      vertex 114.15663143066406 -19.18973383364857 42.9
    endloop
  endfacet
  facet normal 0 0 1
    outer loop
      vertex 114.88017189443971 -20.12492292477596 42.9
      vertex 114.98838369473378 -20.071558770418328 42.9
      vertex 114.88017189443971 -18.812445348031915 42.9
    endloop
  endfacet
  facet normal 0 0 1
    outer loop
      vertex 114.5952838037358 -20.221629400464856 42.9
      vertex 114.70007350699252 -19.40469130534064 42.9
      vertex 114.53735672777721 -19.070122727709627 42.9
    endloop
  endfacet
  facet normal 0 0 1
    outer loop
      vertex 114.5952838037358 -20.221629400464856 42.9
      vertex 114.53735672777721 -19.070122727709627 42.9
      vertex 114.46724966150235 -19.104695706775544 42.9
    endloop
  endfacet
  facet normal 0 0 1
    outer loop
      vertex 114.88017189443971 -20.12492292477596 42.9
      vertex 114.84076004847205 -18.855340568597025 42.9
      vertex 114.77730405079177 -18.910989984998356 42.9
    endloop
  endfacet
  facet normal 0 0 1
    outer loop
      vertex 114.88017189443971 -20.12492292477596 42.9
      vertex 114.8584530354819 -18.956737606846332 42.9
      vertex 114.84076004847205 -18.855340568597025 42.9
    endloop
  endfacet
  facet normal 0 0 1
    outer loop
      vertex 114.88017189443971 -20.12492292477596 42.9
      vertex 114.88017189443971 -18.812445348031915 42.9
      vertex 114.8618328804811 -18.83335698561 42.9
    endloop
  endfacet
  facet normal 0 0 1
    outer loop
      vertex 112.17528731733016 -16.599848713279943 42.9
      vertex 112.37365440327095 -19.62634559672906 42.9
      vertex 112.37365440327095 -16.37365440327094 42.9
    endloop
  endfacet
  facet normal 0 0 1
    outer loop
      vertex 112.59984871327994 -19.82471268266984 42.9
      vertex 112.59984871327994 -16.17528731733016 42.9
      vertex 112.37365440327095 -16.37365440327094 42.9
    endloop
  endfacet
  facet normal 0 0 1
    outer loop
      vertex 112.59984871327994 -16.17528731733016 42.9
      vertex 112.70033242336001 -17.708372475850496 42.9
      vertex 112.85 -17.662577030282655 42.9
    endloop
  endfacet
  facet normal 0 0 1
    outer loop
      vertex 112.59984871327994 -16.17528731733016 42.9
      vertex 112.85 -17.662577030282655 42.9
      vertex 112.85 -17.54663626136368 42.9
    endloop
  endfacet
  facet normal 0 0 1
    outer loop
      vertex 112.59984871327994 -16.17528731733016 42.9
      vertex 112.85 -17.54663626136368 42.9
      vertex 112.85 -16.00814157129579 42.9
    endloop
  endfacet
  facet normal 0 0 1
    outer loop
      vertex 112.85 -16.00814157129579 42.9
      vertex 112.85 -17.54663626136368 42.9
      vertex 112.94351985605599 -17.434978849021284 42.9
    endloop
  endfacet
  facet normal 0 0 1
    outer loop
      vertex 113.11982810556029 -15.875077075224041 42.9
      vertex 113.11982810556029 -17.187554651968085 42.9
      vertex 113.14372306607841 -17.16030767154563 42.9
    endloop
  endfacet
  facet normal 0 0 1
    outer loop
      vertex 113.11982810556029 -15.875077075224041 42.9
      vertex 113.14372306607841 -17.16030767154563 42.9
      vertex 113.15147186257614 -16.894424294420702 42.9
    endloop
  endfacet
  facet normal 0 0 1
    outer loop
      vertex 113.11982810556029 -15.875077075224041 42.9
      vertex 113.05776368524872 -15.905683860219979 42.9
      vertex 113.11982810556029 -17.187554651968085 42.9
    endloop
  endfacet
  facet normal 0 0 1
    outer loop
      vertex 114.30021024210612 -15.719676818840236 42.9
      vertex 114.15663143066406 -16.81026616635143 42.9
      vertex 114.23935820131587 -16.826721544147453 42.9
    endloop
  endfacet
  facet normal 0 0 1
    outer loop
      vertex 114.5952838037358 -15.778370599535144 42.9
      vertex 114.46724966150235 -16.895304293224456 42.9
      vertex 114.59948323864316 -16.9605146769592 42.9
    endloop
  endfacet
  facet normal 0 0 1
    outer loop
      vertex 114.88017189443971 -15.875077075224041 42.9
      vertex 114.77730405079177 -17.089010015001644 42.9
      vertex 114.84076004847205 -17.144659431402975 42.9
    endloop
  endfacet
  facet normal 0 0 1
    outer loop
      vertex 114.88017189443971 -15.875077075224041 42.9
      vertex 114.85627693392159 -17.16030767154563 42.9
      vertex 114.88017189443971 -17.187554651968085 42.9
    endloop
  endfacet
  facet normal 0 0 1
    outer loop
      vertex 114.88017189443971 -15.875077075224041 42.9
      vertex 114.85092764191833 -16.81712853486021 42.9
      vertex 114.85627693392159 -17.16030767154563 42.9
    endloop
  endfacet
  facet normal 0 0 1
    outer loop
      vertex 114.88017189443971 -15.875077075224041 42.9
      vertex 114.88017189443971 -17.187554651968085 42.9
      vertex 114.95202400834948 -16.97132849105655 42.9
    endloop
  endfacet
  facet normal 0 0 1
    outer loop
      vertex 114 -15.7 42.9
      vertex 113.91583311053397 -16.805516589389992 42.9
      vertex 114 -16.8 42.9
    endloop
  endfacet
  facet normal 0 0 1
    outer loop
      vertex 114 -15.7 42.9
      vertex 113.85603728799259 -15.709435814661239 42.9
      vertex 113.91583311053397 -16.805516589389992 42.9
    endloop
  endfacet
  facet normal 0 0 1
    outer loop
      vertex 114.30021024210612 -15.719676818840236 42.9
      vertex 114.16902755981067 -15.7110786515812 42.9
      vertex 114.15663143066406 -16.81026616635143 42.9
    endloop
  endfacet
  facet normal 0 0 1
    outer loop
      vertex 114.30021024210612 -15.719676818840236 42.9
      vertex 114.23935820131587 -16.826721544147453 42.9
      vertex 114.31058285412303 -16.338220995707236 42.9
    endloop
  endfacet
  facet normal 0 0 1
    outer loop
      vertex 114.5952838037358 -15.778370599535144 42.9
      vertex 114.47078302677426 -15.753605855249116 42.9
      vertex 114.46724966150235 -16.895304293224456 42.9
    endloop
  endfacet
  facet normal 0 0 1
    outer loop
      vertex 114.5952838037358 -15.778370599535144 42.9
      vertex 114.59948323864316 -16.9605146769592 42.9
      vertex 114.6 -15.880022424876886 42.9
    endloop
  endfacet
  facet normal 0 0 1
    outer loop
      vertex 114.88017189443971 -15.875077075224041 42.9
      vertex 114.74065552350851 -15.827717648930282 42.9
      vertex 114.77730405079177 -17.089010015001644 42.9
    endloop
  endfacet
  facet normal 0 0 1
    outer loop
      vertex 114.88017189443971 -15.875077075224041 42.9
      vertex 114.95202400834948 -16.97132849105655 42.9
      vertex 115 -15.934169757391093 42.9
    endloop
  endfacet
  facet normal 0 0 1
    outer loop
      vertex 111.77837059953514 -2.5952838037357977 42.9
      vertex 111.87507707522404 -2.8801718944397066 42.9
      vertex 111.77837059953514 -1.4047161962642023 42.9
    endloop
  endfacet
  facet normal 0 0 1
    outer loop
      vertex 111.87507707522404 -2.8801718944397066 42.9
      vertex 112.0081415712958 -3.15 42.9
      vertex 111.87507707522404 -1.1198281055602934 42.9
    endloop
  endfacet
  facet normal 0 0 1
    outer loop
      vertex 112.0081415712958 -3.15 42.9
      vertex 112.17528731733016 -3.4001512867200576 42.9
      vertex 112.0081415712958 -0.8500000000000001 42.9
    endloop
  endfacet
  facet normal 0 0 1
    outer loop
      vertex 111.77837059953514 -2.5952838037357977 42.9
      vertex 111.71967681884024 -1.6997897578938814 42.9
      vertex 111.71967681884024 -2.3002102421061186 42.9
    endloop
  endfacet
  facet normal 0 0 1
    outer loop
      vertex 111.71967681884024 -2.3002102421061186 42.9
      vertex 111.71967681884024 -1.6997897578938814 42.9
      vertex 111.7 -2 42.9
    endloop
  endfacet
  facet normal 0 0 1
    outer loop
      vertex 111.77837059953514 -2.5952838037357977 42.9
      vertex 111.77837059953514 -1.4047161962642023 42.9
      vertex 111.71967681884024 -1.6997897578938814 42.9
    endloop
  endfacet
  facet normal 0 0 1
    outer loop
      vertex 111.87507707522404 -2.8801718944397066 42.9
      vertex 111.87507707522404 -1.1198281055602934 42.9
      vertex 111.77837059953514 -1.4047161962642023 42.9
    endloop
  endfacet
  facet normal 0 0 1
    outer loop
      vertex 112.0081415712958 -3.15 42.9
      vertex 112.0081415712958 -0.8500000000000001 42.9
      vertex 111.87507707522404 -1.1198281055602934 42.9
    endloop
  endfacet
  facet normal 0 0 1
    outer loop
      vertex 112.17528731733016 -3.4001512867200576 42.9
      vertex 112.17528731733016 -0.5998487132799426 42.9
      vertex 112.0081415712958 -0.8500000000000001 42.9
    endloop
  endfacet
  facet normal 0 0 1
    outer loop
      vertex 113.11982810556029 -4.124922924775959 42.9
      vertex 113.25934447649149 -4.172282351069718 42.9
      vertex 113.22269594920823 -2.910989984998356 42.9
    endloop
  endfacet
  facet normal 0 0 1
    outer loop
      vertex 113.4047161962642 -4.221629400464857 42.9
      vertex 113.40051676135684 -3.0394853230407985 42.9
      vertex 113.4 -4.119977575123115 42.9
    endloop
  endfacet
  facet normal 0 0 1
    outer loop
      vertex 113.4047161962642 -4.221629400464857 42.9
      vertex 113.52921697322574 -4.246394144750884 42.9
      vertex 113.53275033849765 -3.1046957067755465 42.9
    endloop
  endfacet
  facet normal 0 0 1
    outer loop
      vertex 112.85 -3.9918584287042087 42.9
      vertex 112.74527442142265 -2.3940548632662084 42.9
      vertex 112.59984871327994 -3.8247126826698405 42.9
    endloop
  endfacet
  facet normal 0 0 1
    outer loop
      vertex 112.85 -3.9918584287042087 42.9
      vertex 112.85 -2.694313237396803 42.9
      vertex 112.74527442142265 -2.3940548632662084 42.9
    endloop
  endfacet
  facet normal 0 0 1
    outer loop
      vertex 112.37365440327095 -3.626345596729059 42.9
      vertex 112.17528731733016 -0.5998487132799426 42.9
      vertex 112.17528731733016 -3.4001512867200576 42.9
    endloop
  endfacet
  facet normal 0 0 1
    outer loop
      vertex 112.37365440327095 -3.626345596729059 42.9
      vertex 112.59984871327994 -3.8247126826698405 42.9
      vertex 112.37365440327095 -0.3736544032709408 42.9
    endloop
  endfacet
  facet normal 0 0 1
    outer loop
      vertex 112.74527442142265 -2.3940548632662084 42.9
      vertex 112.70704855176503 -1.8108407940707816 42.9
      vertex 112.59984871327994 -3.8247126826698405 42.9
    endloop
  endfacet
  facet normal 0 0 1
    outer loop
      vertex 112.85 -2.694313237396803 42.9
      vertex 112.85 -2.4948764455793757 42.9
      vertex 112.74527442142265 -2.3940548632662084 42.9
    endloop
  endfacet
  facet normal 0 0 1
    outer loop
      vertex 113.11982810556029 -4.124922924775959 42.9
      vertex 113.11982810556029 -2.812445348031917 42.9
      vertex 113.04797599165052 -3.0286715089434493 42.9
    endloop
  endfacet
  facet normal 0 0 1
    outer loop
      vertex 113.11982810556029 -4.124922924775959 42.9
      vertex 113.14907235808167 -3.1828714651397894 42.9
      vertex 113.14372306607841 -2.8396923284543707 42.9
    endloop
  endfacet
  facet normal 0 0 1
    outer loop
      vertex 113.11982810556029 -4.124922924775959 42.9
      vertex 113.14372306607841 -2.8396923284543707 42.9
      vertex 113.11982810556029 -2.812445348031917 42.9
    endloop
  endfacet
  facet normal 0 0 1
    outer loop
      vertex 113.11982810556029 -4.124922924775959 42.9
      vertex 113.22269594920823 -2.910989984998356 42.9
      vertex 113.15923995152795 -2.8553405685970263 42.9
    endloop
  endfacet
  facet normal 0 0 1
    outer loop
      vertex 112.85 -3.9918584287042087 42.9
      vertex 113.02945380763707 -2.746077590070794 42.9
      vertex 112.85 -2.694313237396803 42.9
    endloop
  endfacet
  facet normal 0 0 1
    outer loop
      vertex 113.4047161962642 -4.221629400464857 42.9
      vertex 113.53275033849765 -3.1046957067755465 42.9
      vertex 113.40051676135684 -3.0394853230407985 42.9
    endloop
  endfacet
  facet normal 0 0 1
    outer loop
      vertex 113.69978975789388 -4.280323181159764 42.9
      vertex 113.83097244018933 -4.288921348418799 42.9
      vertex 113.84336856933594 -3.1897338336485723 42.9
    endloop
  endfacet
  facet normal 0 0 1
    outer loop
      vertex 113.69978975789388 -4.280323181159764 42.9
      vertex 113.76064179868413 -3.1732784558525484 42.9
      vertex 113.68941714587697 -3.6617790042927667 42.9
    endloop
  endfacet
  facet normal 0 0 1
    outer loop
      vertex 114 -4.3 42.9
      vertex 114.14396271200741 -4.290564185338761 42.9
      vertex 114.08416688946603 -3.1944834106100086 42.9
    endloop
  endfacet
  facet normal 0 0 1
    outer loop
      vertex 114.88017189443971 -4.124922924775959 42.9
      vertex 114.94223631475128 -4.0943161397800205 42.9
      vertex 114.88017189443971 -2.812445348031917 42.9
    endloop
  endfacet
  facet normal 0 0 1
    outer loop
      vertex 113.69978975789388 -4.280323181159764 42.9
      vertex 113.84336856933594 -3.1897338336485723 42.9
      vertex 113.76064179868413 -3.1732784558525484 42.9
    endloop
  endfacet
  facet normal 0 0 1
    outer loop
      vertex 114 -4.3 42.9
      vertex 114.08416688946603 -3.1944834106100086 42.9
      vertex 114 -3.2 42.9
    endloop
  endfacet
  facet normal 0 0 1
    outer loop
      vertex 114.88017189443971 -4.124922924775959 42.9
      vertex 114.85627693392159 -2.8396923284543707 42.9
      vertex 114.84852813742386 -3.105575705579299 42.9
    endloop
  endfacet
  facet normal 0 0 1
    outer loop
      vertex 114.88017189443971 -4.124922924775959 42.9
      vertex 114.88017189443971 -2.812445348031917 42.9
      vertex 114.85627693392159 -2.8396923284543707 42.9
    endloop
  endfacet
  facet normal 0 0 1
    outer loop
      vertex 112.59984871327994 -3.8247126826698405 42.9
      vertex 112.70704855176503 -1.8108407940707816 42.9
      vertex 112.59984871327994 -0.17528731733015923 42.9
    endloop
  endfacet
  facet normal 0 0 1
    outer loop
      vertex 112.37365440327095 -3.626345596729059 42.9
      vertex 112.37365440327095 -0.3736544032709408 42.9
      vertex 112.17528731733016 -0.5998487132799426 42.9
    endloop
  endfacet
  facet normal 0 0 1
    outer loop
      vertex 112.59984871327994 -3.8247126826698405 42.9
      vertex 112.59984871327994 -0.17528731733015923 42.9
      vertex 112.37365440327095 -0.3736544032709408 42.9
    endloop
  endfacet
  facet normal 0 0 1
    outer loop
      vertex 112.59984871327994 -0.17528731733015923 42.9
      vertex 112.70704855176503 -1.8108407940707816 42.9
      vertex 112.85 -1.659079326700702 42.9
    endloop
  endfacet
  facet normal 0 0 1
    outer loop
      vertex 112.85 -0.008141571295791294 42.9
      vertex 112.85 -1.659079326700702 42.9
      vertex 112.93984102117288 -1.3788506750570388 42.9
    endloop
  endfacet
  facet normal 0 0 1
    outer loop
      vertex 112.85 -0.008141571295791294 42.9
      vertex 112.93984102117288 -1.3788506750570388 42.9
      vertex 113.11982810556029 -0.8618046954373786 42.9
    endloop
  endfacet
  facet normal 0 0 1
    outer loop
      vertex 113.11982810556029 -0.8618046954373786 42.9
      vertex 113.11982810556029 -1.020308048859676 42.9
      vertex 113.13983052868333 -0.9509410080738772 42.9
    endloop
  endfacet
  facet normal 0 0 1
    outer loop
      vertex 113.11982810556029 0.12492292477595912 42.9
      vertex 113.13983052868333 -0.9509410080738772 42.9
      vertex 113.15864966249906 -1.1256443226778459 42.9
    endloop
  endfacet
  facet normal 0 0 1
    outer loop
      vertex 113.11982810556029 0.12492292477595912 42.9
      vertex 113.15864966249906 -1.1256443226778459 42.9
      vertex 113.21010951291875 -0.9404787630148105 42.9
    endloop
  endfacet
  facet normal 0 0 1
    outer loop
      vertex 113.11982810556029 0.12492292477595912 42.9
      vertex 113.21010951291875 -0.9404787630148105 42.9
      vertex 113.26983661872517 -1.0466503878365787 42.9
    endloop
  endfacet
  facet normal 0 0 1
    outer loop
      vertex 113.11982810556029 0.12492292477595912 42.9
      vertex 113.11982810556029 -0.8618046954373786 42.9
      vertex 113.13983052868333 -0.9509410080738772 42.9
    endloop
  endfacet
  facet normal 0 0 1
    outer loop
      vertex 113.11982810556029 0.12492292477595912 42.9
      vertex 113.26983661872517 -1.0466503878365787 42.9
      vertex 113.34328887959391 -0.7687192529459663 42.9
    endloop
  endfacet
  facet normal 0 0 1
    outer loop
      vertex 113.11982810556029 0.12492292477595912 42.9
      vertex 113.34328887959391 -0.7687192529459663 42.9
      vertex 113.45335847948259 -0.7453089919384721 42.9
    endloop
  endfacet
  facet normal 0 0 1
    outer loop
      vertex 113.4047161962642 0.2216294004648569 42.9
      vertex 113.45335847948259 -0.7453089919384721 42.9
      vertex 113.49587608422594 -0.5736237140658533 42.9
    endloop
  endfacet
  facet normal 0 0 1
    outer loop
      vertex 112.85 -0.008141571295791294 42.9
      vertex 113.11982810556029 -0.8618046954373786 42.9
      vertex 113.11982810556029 0.12492292477595912 42.9
    endloop
  endfacet
  facet normal 0 0 1
    outer loop
      vertex 113.11982810556029 0.12492292477595912 42.9
      vertex 113.45335847948259 -0.7453089919384721 42.9
      vertex 113.4047161962642 0.2216294004648569 42.9
    endloop
  endfacet
  facet normal 0 0 1
    outer loop
      vertex 113.4047161962642 0.2216294004648569 42.9
      vertex 113.49587608422594 -0.5736237140658533 42.9
      vertex 113.58090057896196 -0.7156169922961445 42.9
    endloop
  endfacet
  facet normal 0 0 1
    outer loop
      vertex 113.4047161962642 0.2216294004648569 42.9
      vertex 113.58090057896196 -0.7156169922961445 42.9
      vertex 113.61538239699686 -0.5645875641069398 42.9
    endloop
  endfacet
  facet normal 0 0 1
    outer loop
      vertex 113.4047161962642 0.2216294004648569 42.9
      vertex 113.61538239699686 -0.5645875641069398 42.9
      vertex 113.69978975789388 0.28032318115976373 42.9
    endloop
  endfacet
  facet normal 0 0 1
    outer loop
      vertex 114.5952838037358 0.2216294004648569 42.9
      vertex 114.46724966150235 -0.8953042932244535 42.9
      vertex 114.59948323864316 -0.9605146769592012 42.9
    endloop
  endfacet
  facet normal 0 0 1
    outer loop
      vertex 114.5952838037358 0.2216294004648569 42.9
      vertex 114.59948323864316 -0.9605146769592012 42.9
      vertex 114.62866270013981 -0.49781176722342235 42.9
    endloop
  endfacet
  facet normal 0 0 1
    outer loop
      vertex 114.88017189443971 0.12492292477595912 42.9
      vertex 114.85627693392159 -1.1603076715456293 42.9
      vertex 114.88017189443971 -1.187554651968083 42.9
    endloop
  endfacet
  facet normal 0 0 1
    outer loop
      vertex 114.88017189443971 0.12492292477595912 42.9
      vertex 114.88017189443971 -1.187554651968083 42.9
      vertex 114.9539308929773 -1.0004219283866687 42.9
    endloop
  endfacet
  facet normal 0 0 1
    outer loop
      vertex 114.88017189443971 0.12492292477595912 42.9
      vertex 114.87049981204875 -0.1866459664948693 42.9
      vertex 114.85627693392159 -1.1603076715456293 42.9
    endloop
  endfacet
  facet normal 0 0 1
    outer loop
      vertex 114.5952838037358 0.2216294004648569 42.9
      vertex 114.55408368428924 0.22982461376029525 42.9
      vertex 114.46724966150235 -0.8953042932244535 42.9
    endloop
  endfacet
  facet normal 0 0 -1
    outer loop
      vertex 92.35 -19.99185842870421 42.9
      vertex 92.90142427124442 -19.29495003733454 42.9
      vertex 92.61982810556029 -20.12492292477596 42.9
    endloop
  endfacet
  facet normal 0 0 -1
    outer loop
      vertex 92.6486952476189 -19.195019406402395 42.9
      vertex 92.70888867153529 -19.073928261737134 42.9
      vertex 92.35 -19.99185842870421 42.9
    endloop
  endfacet
  facet normal 0 0 -1
    outer loop
      vertex 92.6486952476189 -19.195019406402395 42.9
      vertex 92.35 -19.99185842870421 42.9
      vertex 92.64316739864671 -18.869579834820293 42.9
    endloop
  endfacet
  facet normal 0 0 -1
    outer loop
      vertex 92.8219575197377 -19.16589945796129 42.9
      vertex 92.35 -19.99185842870421 42.9
      vertex 92.70888867153529 -19.073928261737134 42.9
    endloop
  endfacet
  facet normal 0 0 -1
    outer loop
      vertex 92.90142427124442 -19.29495003733454 42.9
      vertex 92.35 -19.99185842870421 42.9
      vertex 92.8533695449034 -19.11491531487141 42.9
    endloop
  endfacet
  facet normal 0 0 -1
    outer loop
      vertex 92.8219575197377 -19.16589945796129 42.9
      vertex 92.8533695449034 -19.11491531487141 42.9
      vertex 92.35 -19.99185842870421 42.9
    endloop
  endfacet
  facet normal 0 0 -1
    outer loop
      vertex 92.35 -19.056762160495783 42.9
      vertex 92.53184730794793 -18.782595348029343 42.9
      vertex 92.35 -19.99185842870421 42.9
    endloop
  endfacet
  facet normal 0 0 -1
    outer loop
      vertex 92.61982810556029 -18.92874460929301 42.9
      vertex 92.64316739864671 -18.869579834820293 42.9
      vertex 92.35 -19.99185842870421 42.9
    endloop
  endfacet
  facet normal 0 0 -1
    outer loop
      vertex 92.61982810556029 -18.92874460929301 42.9
      vertex 92.35 -19.99185842870421 42.9
      vertex 92.53184730794793 -18.782595348029343 42.9
    endloop
  endfacet
  facet normal 0 0 -1
    outer loop
      vertex 92.61982810556029 -20.12492292477596 42.9
      vertex 93.5 -19.313617070672557 42.9
      vertex 92.9047161962642 -20.221629400464856 42.9
    endloop
  endfacet
  facet normal 0 0 -1
    outer loop
      vertex 92.9047161962642 -20.221629400464856 42.9
      vertex 93.5 -19.313617070672557 42.9
      vertex 93.19978975789388 -20.280323181159766 42.9
    endloop
  endfacet
  facet normal 0 0 -1
    outer loop
      vertex 92.90142427124442 -19.29495003733454 42.9
      vertex 93.03076115779969 -19.122048757341783 42.9
      vertex 92.61982810556029 -20.12492292477596 42.9
    endloop
  endfacet
  facet normal 0 0 -1
    outer loop
      vertex 93.11588184801332 -19.242010984186557 42.9
      vertex 92.61982810556029 -20.12492292477596 42.9
      vertex 93.03076115779969 -19.122048757341783 42.9
    endloop
  endfacet
  facet normal 0 0 -1
    outer loop
      vertex 93.11588184801332 -19.242010984186557 42.9
      vertex 93.18114410864074 -19.16843759721676 42.9
      vertex 92.61982810556029 -20.12492292477596 42.9
    endloop
  endfacet
  facet normal 0 0 -1
    outer loop
      vertex 93.25499950262748 -19.27592536805181 42.9
      vertex 92.61982810556029 -20.12492292477596 42.9
      vertex 93.18114410864074 -19.16843759721676 42.9
    endloop
  endfacet
  facet normal 0 0 -1
    outer loop
      vertex 93.25499950262748 -19.27592536805181 42.9
      vertex 93.34336856933594 -19.18973383364857 42.9
      vertex 92.61982810556029 -20.12492292477596 42.9
    endloop
  endfacet
  facet normal 0 0 -1
    outer loop
      vertex 93.34336856933594 -19.18973383364857 42.9
      vertex 93.42143689049996 -19.26808802823337 42.9
      vertex 92.61982810556029 -20.12492292477596 42.9
    endloop
  endfacet
  facet normal 0 0 -1
    outer loop
      vertex 93.5 -19.313617070672557 42.9
      vertex 92.61982810556029 -20.12492292477596 42.9
      vertex 93.42143689049996 -19.26808802823337 42.9
    endloop
  endfacet
  facet normal 0 0 -1
    outer loop
      vertex 92.09984871327994 -19.82471268266984 42.9
      vertex 92 -19.73714771126322 42.9
      vertex 92.09984871327994 -16.17528731733016 42.9
    endloop
  endfacet
  facet normal 0 0 -1
    outer loop
      vertex 92.09984871327994 -16.17528731733016 42.9
      vertex 92 -19.73714771126322 42.9
      vertex 92 -18.30131570315093 42.9
    endloop
  endfacet
  facet normal 0 0 -1
    outer loop
      vertex 93.5 -20.3 42.9
      vertex 93.19978975789388 -20.280323181159766 42.9
      vertex 94.0952838037358 -20.221629400464856 42.9
    endloop
  endfacet
  facet normal 0 0 -1
    outer loop
      vertex 93.5 -19.313617070672557 42.9
      vertex 94.0952838037358 -20.221629400464856 42.9
      vertex 93.19978975789388 -20.280323181159766 42.9
    endloop
  endfacet
  facet normal 0 0 -1
    outer loop
      vertex 93.5 -20.3 42.9
      vertex 94.0952838037358 -20.221629400464856 42.9
      vertex 93.80021024210612 -20.280323181159766 42.9
    endloop
  endfacet
  facet normal 0 0 -1
    outer loop
      vertex 94.38017189443971 -20.12492292477596 42.9
      vertex 94.0952838037358 -20.221629400464856 42.9
      vertex 93.65663143066406 -19.18973383364857 42.9
    endloop
  endfacet
  facet normal 0 0 -1
    outer loop
      vertex 93.5 -19.313617070672557 42.9
      vertex 93.65663143066406 -19.18973383364857 42.9
      vertex 94.0952838037358 -20.221629400464856 42.9
    endloop
  endfacet
  facet normal 0 0 -1
    outer loop
      vertex 94.38017189443971 -20.12492292477596 42.9
      vertex 93.65663143066406 -19.18973383364857 42.9
      vertex 94.65 -19.99185842870421 42.9
    endloop
  endfacet
  facet normal 0 0 -1
    outer loop
      vertex 94.65 -19.99185842870421 42.9
      vertex 93.65663143066406 -19.18973383364857 42.9
      vertex 94.90015128672006 -19.82471268266984 42.9
    endloop
  endfacet
  facet normal 0 0 -1
    outer loop
      vertex 93.65663143066406 -19.18973383364857 42.9
      vertex 93.7398099580596 -19.181496995671022 42.9
      vertex 95.4918584287042 -19.15 42.9
    endloop
  endfacet
  facet normal 0 0 -1
    outer loop
      vertex 93.7398099580596 -19.181496995671022 42.9
      vertex 93.81058285412303 -19.159110991546882 42.9
      vertex 95.4918584287042 -19.15 42.9
    endloop
  endfacet
  facet normal 0 0 -1
    outer loop
      vertex 93.89401021599903 -19.150916201168577 42.9
      vertex 95.4918584287042 -19.15 42.9
      vertex 93.81058285412303 -19.159110991546882 42.9
    endloop
  endfacet
  facet normal 0 0 -1
    outer loop
      vertex 93.89401021599903 -19.150916201168577 42.9
      vertex 93.96761089457213 -19.107847002046277 42.9
      vertex 95.4918584287042 -19.15 42.9
    endloop
  endfacet
  facet normal 0 0 -1
    outer loop
      vertex 93.96761089457213 -19.107847002046277 42.9
      vertex 94.03890889444466 -19.100977561053444 42.9
      vertex 95.4918584287042 -19.15 42.9
    endloop
  endfacet
  facet normal 0 0 -1
    outer loop
      vertex 94.90015128672006 -19.82471268266984 42.9
      vertex 93.65663143066406 -19.18973383364857 42.9
      vertex 95.12634559672905 -19.62634559672906 42.9
    endloop
  endfacet
  facet normal 0 0 -1
    outer loop
      vertex 95.12634559672905 -19.62634559672906 42.9
      vertex 93.65663143066406 -19.18973383364857 42.9
      vertex 95.32471268266984 -19.400151286720057 42.9
    endloop
  endfacet
  facet normal 0 0 -1
    outer loop
      vertex 94.03890889444466 -19.100977561053444 42.9
      vertex 94.10848948564639 -19.038437565129524 42.9
      vertex 95.4918584287042 -19.15 42.9
    endloop
  endfacet
  facet normal 0 0 -1
    outer loop
      vertex 94.10848948564639 -19.038437565129524 42.9
      vertex 94.23949141279459 -19.0262019627213 42.9
      vertex 95.4918584287042 -19.15 42.9
    endloop
  endfacet
  facet normal 0 0 -1
    outer loop
      vertex 94.23949141279459 -19.0262019627213 42.9
      vertex 94.28040324029362 -18.947563204475877 42.9
      vertex 95.4918584287042 -19.15 42.9
    endloop
  endfacet
  facet normal 0 0 -1
    outer loop
      vertex 95.32471268266984 -19.400151286720057 42.9
      vertex 93.65663143066406 -19.18973383364857 42.9
      vertex 95.4918584287042 -19.15 42.9
    endloop
  endfacet
  facet normal 0 0 -1
    outer loop
      vertex 94.28040324029362 -18.947563204475877 42.9
      vertex 94.34344793833836 -18.94192614879085 42.9
      vertex 95.62492292477596 -18.880171894439705 42.9
    endloop
  endfacet
  facet normal 0 0 -1
    outer loop
      vertex 94.34344793833836 -18.94192614879085 42.9
      vertex 94.35642880518459 -18.847860979486782 42.9
      vertex 95.62492292477596 -18.880171894439705 42.9
    endloop
  endfacet
  facet normal 0 0 -1
    outer loop
      vertex 94.35642880518459 -18.847860979486782 42.9
      vertex 94.38017189443971 -18.84585603624314 42.9
      vertex 95.62492292477596 -18.880171894439705 42.9
    endloop
  endfacet
  facet normal 0 0 -1
    outer loop
      vertex 94.38017189443971 -18.84585603624314 42.9
      vertex 94.56673638246467 -18.72150111221557 42.9
      vertex 95.62492292477596 -18.880171894439705 42.9
    endloop
  endfacet
  facet normal 0 0 -1
    outer loop
      vertex 94.65 -18.337422969717345 42.9
      vertex 94.80038573479248 -18.302584500202375 42.9
      vertex 94.65 -18.456552503027506 42.9
    endloop
  endfacet
  facet normal 0 0 -1
    outer loop
      vertex 92.35 -17.662577030282655 42.9
      vertex 92.31650294576207 -16.030523587370805 42.9
      vertex 92.37066906492244 -16.323490563165695 42.9
    endloop
  endfacet
  facet normal 0 0 -1
    outer loop
      vertex 92.65923995152795 -17.144659431402975 42.9
      vertex 92.62909094172049 -16.373294280177074 42.9
      vertex 92.72269594920823 -17.089010015001644 42.9
    endloop
  endfacet
  facet normal 0 0 -1
    outer loop
      vertex 92.72269594920823 -17.089010015001644 42.9
      vertex 92.62909094172049 -16.373294280177074 42.9
      vertex 92.76929730262852 -17.042438304584966 42.9
    endloop
  endfacet
  facet normal 0 0 -1
    outer loop
      vertex 93.03275033849765 -16.895304293224456 42.9
      vertex 92.96264327222279 -16.929877272290373 42.9
      vertex 93.01674939547354 -16.374352548789766 42.9
    endloop
  endfacet
  facet normal 0 0 -1
    outer loop
      vertex 93.34336856933594 -16.81026616635143 42.9
      vertex 93.26064179868413 -16.826721544147453 42.9
      vertex 93.13045861640833 -15.733467640326262 42.9
    endloop
  endfacet
  facet normal 0 0 -1
    outer loop
      vertex 92.35 -16.00814157129579 42.9
      vertex 92.37066906492244 -16.323490563165695 42.9
      vertex 92.31650294576207 -16.030523587370805 42.9
    endloop
  endfacet
  facet normal 0 0 -1
    outer loop
      vertex 92.62909094172049 -16.373294280177074 42.9
      vertex 92.61982810556029 -15.875077075224041 42.9
      vertex 92.76929730262852 -17.042438304584966 42.9
    endloop
  endfacet
  facet normal 0 0 -1
    outer loop
      vertex 92.96264327222279 -16.929877272290373 42.9
      vertex 92.85332051341685 -15.795817082964874 42.9
      vertex 93.01674939547354 -16.374352548789766 42.9
    endloop
  endfacet
  facet normal 0 0 -1
    outer loop
      vertex 92.9047161962642 -15.778370599535144 42.9
      vertex 93.01674939547354 -16.374352548789766 42.9
      vertex 92.85332051341685 -15.795817082964874 42.9
    endloop
  endfacet
  facet normal 0 0 -1
    outer loop
      vertex 93.19978975789388 -15.719676818840236 42.9
      vertex 93.34336856933594 -16.81026616635143 42.9
      vertex 93.13045861640833 -15.733467640326262 42.9
    endloop
  endfacet
  facet normal 0 0 -1
    outer loop
      vertex 93.5 -16.8 42.9
      vertex 93.46071636559223 -16.21598330180463 42.9
      vertex 93.58416688946603 -16.805516589389992 42.9
    endloop
  endfacet
  facet normal 0 0 -1
    outer loop
      vertex 93.8190605517079 -16.843766799003664 42.9
      vertex 93.76767907880698 -16.311496785282216 42.9
      vertex 93.89308052162329 -16.868893193032378 42.9
    endloop
  endfacet
  facet normal 0 0 -1
    outer loop
      vertex 94.09948323864316 -16.9605146769592 42.9
      vertex 93.96724966150235 -16.895304293224456 42.9
      vertex 93.85770097539266 -15.731112436700656 42.9
    endloop
  endfacet
  facet normal 0 0 -1
    outer loop
      vertex 94.1517460529901 -16.995345122663302 42.9
      vertex 94.09946376989711 -16.955034210340617 42.9
      vertex 94.10525536802744 -15.781755489501471 42.9
    endloop
  endfacet
  facet normal 0 0 -1
    outer loop
      vertex 94.1517460529901 -16.995345122663302 42.9
      vertex 94.10525536802744 -15.781755489501471 42.9
      vertex 94.1928346015741 -17.022799613090235 42.9
    endloop
  endfacet
  facet normal 0 0 -1
    outer loop
      vertex 94.3477111223648 -16.92074297801055 42.9
      vertex 94.28587415946997 -16.98787503585752 42.9
      vertex 94.90015128672006 -16.17528731733016 42.9
    endloop
  endfacet
  facet normal 0 0 -1
    outer loop
      vertex 94.38017189443971 -17.11676355333598 42.9
      vertex 94.35660593553749 -17.142611766893854 42.9
      vertex 94.90015128672006 -16.17528731733016 42.9
    endloop
  endfacet
  facet normal 0 0 -1
    outer loop
      vertex 94.38017189443971 -17.11676355333598 42.9
      vertex 95.32471268266984 -16.599848713279943 42.9
      vertex 94.47024306044194 -17.249297510542483 42.9
    endloop
  endfacet
  facet normal 0 0 -1
    outer loop
      vertex 94.47024306044194 -17.249297510542483 42.9
      vertex 95.32471268266984 -16.599848713279943 42.9
      vertex 94.65 -17.27602509758553 42.9
    endloop
  endfacet
  facet normal 0 0 -1
    outer loop
      vertex 94.3477111223648 -16.92074297801055 42.9
      vertex 94.90015128672006 -16.17528731733016 42.9
      vertex 94.35660593553749 -17.142611766893854 42.9
    endloop
  endfacet
  facet normal 0 0 -1
    outer loop
      vertex 94.38017189443971 -17.11676355333598 42.9
      vertex 94.90015128672006 -16.17528731733016 42.9
      vertex 95.12634559672905 -16.37365440327094 42.9
    endloop
  endfacet
  facet normal 0 0 -1
    outer loop
      vertex 93.58416688946603 -16.805516589389992 42.9
      vertex 93.46071636559223 -16.21598330180463 42.9
      vertex 93.57455231866548 -15.704886417126241 42.9
    endloop
  endfacet
  facet normal 0 0 -1
    outer loop
      vertex 93.5 -15.7 42.9
      vertex 93.57455231866548 -15.704886417126241 42.9
      vertex 93.46071636559223 -16.21598330180463 42.9
    endloop
  endfacet
  facet normal 0 0 -1
    outer loop
      vertex 93.89308052162329 -16.868893193032378 42.9
      vertex 93.76767907880698 -16.311496785282216 42.9
      vertex 93.85770097539266 -15.731112436700656 42.9
    endloop
  endfacet
  facet normal 0 0 -1
    outer loop
      vertex 94.09948323864316 -16.9605146769592 42.9
      vertex 93.85770097539266 -15.731112436700656 42.9
      vertex 94.0952838037358 -15.778370599535144 42.9
    endloop
  endfacet
  facet normal 0 0 -1
    outer loop
      vertex 94.0952838037358 -15.778370599535144 42.9
      vertex 94.10525536802744 -15.781755489501471 42.9
      vertex 94.09946376989711 -16.955034210340617 42.9
    endloop
  endfacet
  facet normal 0 0 -1
    outer loop
      vertex 93.80021024210612 -15.719676818840236 42.9
      vertex 93.85770097539266 -15.731112436700656 42.9
      vertex 93.76767907880698 -16.311496785282216 42.9
    endloop
  endfacet
  facet normal 0 0 -1
    outer loop
      vertex 94.38017189443971 -15.875077075224041 42.9
      vertex 94.65 -16.00814157129579 42.9
      vertex 94.28587415946997 -16.98787503585752 42.9
    endloop
  endfacet
  facet normal 0 0 -1
    outer loop
      vertex 94.65 -16.00814157129579 42.9
      vertex 94.90015128672006 -16.17528731733016 42.9
      vertex 94.28587415946997 -16.98787503585752 42.9
    endloop
  endfacet
  facet normal 0 0 -1
    outer loop
      vertex 95.62492292477596 -18.880171894439705 42.9
      vertex 95.4918584287042 -19.15 42.9
      vertex 94.28040324029362 -18.947563204475877 42.9
    endloop
  endfacet
  facet normal 0 0 -1
    outer loop
      vertex 94.55648014394401 -18.565021150978716 42.9
      vertex 95.72162940046486 -18.595283803735796 42.9
      vertex 94.56673638246467 -18.72150111221557 42.9
    endloop
  endfacet
  facet normal 0 0 -1
    outer loop
      vertex 94.55648014394401 -18.565021150978716 42.9
      vertex 94.65 -18.456552503027506 42.9
      vertex 95.72162940046486 -18.595283803735796 42.9
    endloop
  endfacet
  facet normal 0 0 -1
    outer loop
      vertex 94.65 -18.456552503027506 42.9
      vertex 94.80038573479248 -18.302584500202375 42.9
      vertex 95.72162940046486 -18.595283803735796 42.9
    endloop
  endfacet
  facet normal 0 0 -1
    outer loop
      vertex 95.62492292477596 -18.880171894439705 42.9
      vertex 94.56673638246467 -18.72150111221557 42.9
      vertex 95.72162940046486 -18.595283803735796 42.9
    endloop
  endfacet
  facet normal 0 0 -1
    outer loop
      vertex 95.78032318115976 -18.300210242106118 42.9
      vertex 95.72162940046486 -18.595283803735796 42.9
      vertex 94.80038573479248 -18.302584500202375 42.9
    endloop
  endfacet
  facet normal 0 0 -1
    outer loop
      vertex 95.8 -18 42.9
      vertex 95.78032318115976 -18.300210242106118 42.9
      vertex 94.80038573479248 -18.302584500202375 42.9
    endloop
  endfacet
  facet normal 0 0 -1
    outer loop
      vertex 95.8 -18 42.9
      vertex 94.80038573479248 -18.302584500202375 42.9
      vertex 95.78032318115976 -17.699789757893882 42.9
    endloop
  endfacet
  facet normal 0 0 -1
    outer loop
      vertex 95.78032318115976 -17.699789757893882 42.9
      vertex 94.80038573479248 -18.302584500202375 42.9
      vertex 95.72162940046486 -17.404716196264204 42.9
    endloop
  endfacet
  facet normal 0 0 -1
    outer loop
      vertex 94.80038573479248 -18.302584500202375 42.9
      vertex 94.75316844886873 -17.58218792828424 42.9
      vertex 95.62492292477596 -17.119828105560295 42.9
    endloop
  endfacet
  facet normal 0 0 -1
    outer loop
      vertex 94.75316844886873 -17.58218792828424 42.9
      vertex 94.65 -17.49406344585655 42.9
      vertex 95.4918584287042 -16.85 42.9
    endloop
  endfacet
  facet normal 0 0 -1
    outer loop
      vertex 94.65 -17.49406344585655 42.9
      vertex 94.65 -17.27602509758553 42.9
      vertex 95.4918584287042 -16.85 42.9
    endloop
  endfacet
  facet normal 0 0 -1
    outer loop
      vertex 95.62492292477596 -17.119828105560295 42.9
      vertex 95.72162940046486 -17.404716196264204 42.9
      vertex 94.80038573479248 -18.302584500202375 42.9
    endloop
  endfacet
  facet normal 0 0 -1
    outer loop
      vertex 95.4918584287042 -16.85 42.9
      vertex 95.62492292477596 -17.119828105560295 42.9
      vertex 94.75316844886873 -17.58218792828424 42.9
    endloop
  endfacet
  facet normal 0 0 -1
    outer loop
      vertex 95.32471268266984 -16.599848713279943 42.9
      vertex 95.4918584287042 -16.85 42.9
      vertex 94.65 -17.27602509758553 42.9
    endloop
  endfacet
  facet normal 0 0 -1
    outer loop
      vertex 94.38017189443971 -17.11676355333598 42.9
      vertex 95.12634559672905 -16.37365440327094 42.9
      vertex 95.32471268266984 -16.599848713279943 42.9
    endloop
  endfacet
  facet normal 0 0 -1
    outer loop
      vertex 111.77837059953514 -18.595283803735796 42.9
      vertex 111.71967681884024 -18.300210242106118 42.9
      vertex 112.85 -18.463258879867123 42.9
    endloop
  endfacet
  facet normal 0 0 -1
    outer loop
      vertex 111.71967681884024 -18.300210242106118 42.9
      vertex 111.7 -18 42.9
      vertex 112.70033242336001 -17.708372475850496 42.9
    endloop
  endfacet
  facet normal 0 0 -1
    outer loop
      vertex 111.7 -18 42.9
      vertex 111.71967681884024 -17.699789757893882 42.9
      vertex 112.70033242336001 -17.708372475850496 42.9
    endloop
  endfacet
  facet normal 0 0 -1
    outer loop
      vertex 111.71967681884024 -17.699789757893882 42.9
      vertex 111.77837059953514 -17.404716196264204 42.9
      vertex 112.85 -17.54663626136368 42.9
    endloop
  endfacet
  facet normal 0 0 -1
    outer loop
      vertex 112.37365440327095 -19.62634559672906 42.9
      vertex 112.17528731733016 -19.400151286720057 42.9
      vertex 113.9166281811402 -19.204926516568985 42.9
    endloop
  endfacet
  facet normal 0 0 -1
    outer loop
      vertex 112.0081415712958 -19.15 42.9
      vertex 113.35001639946066 -19.042642377996504 42.9
      vertex 112.17528731733016 -19.400151286720057 42.9
    endloop
  endfacet
  facet normal 0 0 -1
    outer loop
      vertex 113.15598215278604 -18.96028474721068 42.9
      vertex 113.21890681759247 -18.955705141051087 42.9
      vertex 112.0081415712958 -19.15 42.9
    endloop
  endfacet
  facet normal 0 0 -1
    outer loop
      vertex 112.59984871327994 -19.82471268266984 42.9
      vertex 113.9166281811402 -19.204926516568985 42.9
      vertex 112.85 -19.99185842870421 42.9
    endloop
  endfacet
  facet normal 0 0 -1
    outer loop
      vertex 112.85 -19.99185842870421 42.9
      vertex 113.9166281811402 -19.204926516568985 42.9
      vertex 113.11982810556029 -20.12492292477596 42.9
    endloop
  endfacet
  facet normal 0 0 -1
    outer loop
      vertex 113.11982810556029 -20.12492292477596 42.9
      vertex 113.9166281811402 -19.204926516568985 42.9
      vertex 113.4047161962642 -20.221629400464856 42.9
    endloop
  endfacet
  facet normal 0 0 -1
    outer loop
      vertex 112.37365440327095 -19.62634559672906 42.9
      vertex 113.9166281811402 -19.204926516568985 42.9
      vertex 112.59984871327994 -19.82471268266984 42.9
    endloop
  endfacet
  facet normal 0 0 -1
    outer loop
      vertex 113.40079460051516 -19.117697254580136 42.9
      vertex 112.17528731733016 -19.400151286720057 42.9
      vertex 113.35001639946066 -19.042642377996504 42.9
    endloop
  endfacet
  facet normal 0 0 -1
    outer loop
      vertex 113.31249616435177 -19.04520351891519 42.9
      vertex 112.0081415712958 -19.15 42.9
      vertex 113.21890681759247 -18.955705141051087 42.9
    endloop
  endfacet
  facet normal 0 0 -1
    outer loop
      vertex 113.31249616435177 -19.04520351891519 42.9
      vertex 113.35001639946066 -19.042642377996504 42.9
      vertex 112.0081415712958 -19.15 42.9
    endloop
  endfacet
  facet normal 0 0 -1
    outer loop
      vertex 113.40079460051516 -19.117697254580136 42.9
      vertex 113.53223315353586 -19.109207482303635 42.9
      vertex 112.17528731733016 -19.400151286720057 42.9
    endloop
  endfacet
  facet normal 0 0 -1
    outer loop
      vertex 113.60958140484664 -19.16404661830482 42.9
      vertex 112.17528731733016 -19.400151286720057 42.9
      vertex 113.53223315353586 -19.109207482303635 42.9
    endloop
  endfacet
  facet normal 0 0 -1
    outer loop
      vertex 113.60958140484664 -19.16404661830482 42.9
      vertex 113.6809964370354 -19.15963157888462 42.9
      vertex 112.17528731733016 -19.400151286720057 42.9
    endloop
  endfacet
  facet normal 0 0 -1
    outer loop
      vertex 113.75946061514479 -19.194767020407994 42.9
      vertex 113.84336856933594 -19.18973383364857 42.9
      vertex 112.17528731733016 -19.400151286720057 42.9
    endloop
  endfacet
  facet normal 0 0 -1
    outer loop
      vertex 113.75946061514479 -19.194767020407994 42.9
      vertex 112.17528731733016 -19.400151286720057 42.9
      vertex 113.6809964370354 -19.15963157888462 42.9
    endloop
  endfacet
  facet normal 0 0 -1
    outer loop
      vertex 112.17528731733016 -19.400151286720057 42.9
      vertex 113.84336856933594 -19.18973383364857 42.9
      vertex 113.9166281811402 -19.204926516568985 42.9
    endloop
  endfacet
  facet normal 0 0 -1
    outer loop
      vertex 111.87507707522404 -18.880171894439705 42.9
      vertex 113.0285407889358 -18.73214761655319 42.9
      vertex 112.0081415712958 -19.15 42.9
    endloop
  endfacet
  facet normal 0 0 -1
    outer loop
      vertex 111.87507707522404 -18.880171894439705 42.9
      vertex 111.77837059953514 -18.595283803735796 42.9
      vertex 113.0285407889358 -18.73214761655319 42.9
    endloop
  endfacet
  facet normal 0 0 -1
    outer loop
      vertex 113.11982810556029 -18.8509988295193 42.9
      vertex 112.0081415712958 -19.15 42.9
      vertex 113.0285407889358 -18.73214761655319 42.9
    endloop
  endfacet
  facet normal 0 0 -1
    outer loop
      vertex 113.15598215278604 -18.96028474721068 42.9
      vertex 112.0081415712958 -19.15 42.9
      vertex 113.14354728749072 -18.849146875110833 42.9
    endloop
  endfacet
  facet normal 0 0 -1
    outer loop
      vertex 113.11982810556029 -18.8509988295193 42.9
      vertex 113.14354728749072 -18.849146875110833 42.9
      vertex 112.0081415712958 -19.15 42.9
    endloop
  endfacet
  facet normal 0 0 -1
    outer loop
      vertex 112.85 -18.610040761109286 42.9
      vertex 113.0285407889358 -18.73214761655319 42.9
      vertex 111.77837059953514 -18.595283803735796 42.9
    endloop
  endfacet
  facet normal 0 0 -1
    outer loop
      vertex 112.85 -18.463258879867123 42.9
      vertex 112.85 -18.610040761109286 42.9
      vertex 111.77837059953514 -18.595283803735796 42.9
    endloop
  endfacet
  facet normal 0 0 -1
    outer loop
      vertex 112.74049465206333 -18.321129675093086 42.9
      vertex 112.85 -18.463258879867123 42.9
      vertex 111.71967681884024 -18.300210242106118 42.9
    endloop
  endfacet
  facet normal 0 0 -1
    outer loop
      vertex 111.71967681884024 -18.300210242106118 42.9
      vertex 112.70033242336001 -17.708372475850496 42.9
      vertex 112.74049465206333 -18.321129675093086 42.9
    endloop
  endfacet
  facet normal 0 0 -1
    outer loop
      vertex 113.4047161962642 -20.221629400464856 42.9
      vertex 113.9166281811402 -19.204926516568985 42.9
      vertex 113.69978975789388 -20.280323181159766 42.9
    endloop
  endfacet
  facet normal 0 0 -1
    outer loop
      vertex 114 -19.2 42.9
      vertex 114.15663143066406 -19.18973383364857 42.9
      vertex 114.5952838037358 -20.221629400464856 42.9
    endloop
  endfacet
  facet normal 0 0 -1
    outer loop
      vertex 114.30021024210612 -20.280323181159766 42.9
      vertex 114 -19.2 42.9
      vertex 114.5952838037358 -20.221629400464856 42.9
    endloop
  endfacet
  facet normal 0 0 -1
    outer loop
      vertex 114.8618328804811 -18.83335698561 42.9
      vertex 114.98838369473378 -20.071558770418328 42.9
      vertex 114.88017189443971 -20.12492292477596 42.9
    endloop
  endfacet
  facet normal 0 0 -1
    outer loop
      vertex 114.5952838037358 -20.221629400464856 42.9
      vertex 114.46724966150235 -19.104695706775544 42.9
      vertex 114.70007350699252 -19.40469130534064 42.9
    endloop
  endfacet
  facet normal 0 0 -1
    outer loop
      vertex 114.46724966150235 -19.104695706775544 42.9
      vertex 114.53735672777721 -19.070122727709627 42.9
      vertex 114.70007350699252 -19.40469130534064 42.9
    endloop
  endfacet
  facet normal 0 0 -1
    outer loop
      vertex 114.77730405079177 -18.910989984998356 42.9
      vertex 114.8584530354819 -18.956737606846332 42.9
      vertex 114.88017189443971 -20.12492292477596 42.9
    endloop
  endfacet
  facet normal 0 0 -1
    outer loop
      vertex 114.8618328804811 -18.83335698561 42.9
      vertex 114.88017189443971 -18.812445348031915 42.9
      vertex 114.98838369473378 -20.071558770418328 42.9
    endloop
  endfacet
  facet normal 0 0 -1
    outer loop
      vertex 114.77730405079177 -18.910989984998356 42.9
      vertex 114.84076004847205 -18.855340568597025 42.9
      vertex 114.8584530354819 -18.956737606846332 42.9
    endloop
  endfacet
  facet normal 0 0 -1
    outer loop
      vertex 112.70033242336001 -17.708372475850496 42.9
      vertex 111.71967681884024 -17.699789757893882 42.9
      vertex 112.85 -17.54663626136368 42.9
    endloop
  endfacet
  facet normal 0 0 -1
    outer loop
      vertex 111.77837059953514 -17.404716196264204 42.9
      vertex 111.87507707522404 -17.119828105560295 42.9
      vertex 112.94351985605599 -17.434978849021284 42.9
    endloop
  endfacet
  facet normal 0 0 -1
    outer loop
      vertex 111.87507707522404 -17.119828105560295 42.9
      vertex 112.0081415712958 -16.85 42.9
      vertex 112.94351985605599 -17.434978849021284 42.9
    endloop
  endfacet
  facet normal 0 0 -1
    outer loop
      vertex 112.94351985605599 -17.434978849021284 42.9
      vertex 112.85 -17.54663626136368 42.9
      vertex 111.77837059953514 -17.404716196264204 42.9
    endloop
  endfacet
  facet normal 0 0 -1
    outer loop
      vertex 112.85 -17.662577030282655 42.9
      vertex 112.70033242336001 -17.708372475850496 42.9
      vertex 112.85 -17.54663626136368 42.9
    endloop
  endfacet
  facet normal 0 0 -1
    outer loop
      vertex 112.0081415712958 -16.85 42.9
      vertex 112.17528731733016 -16.599848713279943 42.9
      vertex 112.94351985605599 -17.434978849021284 42.9
    endloop
  endfacet
  facet normal 0 0 -1
    outer loop
      vertex 112.17528731733016 -16.599848713279943 42.9
      vertex 112.37365440327095 -16.37365440327094 42.9
      vertex 112.94351985605599 -17.434978849021284 42.9
    endloop
  endfacet
  facet normal 0 0 -1
    outer loop
      vertex 112.37365440327095 -16.37365440327094 42.9
      vertex 112.59984871327994 -16.17528731733016 42.9
      vertex 112.94351985605599 -17.434978849021284 42.9
    endloop
  endfacet
  facet normal 0 0 -1
    outer loop
      vertex 112.59984871327994 -16.17528731733016 42.9
      vertex 112.85 -16.00814157129579 42.9
      vertex 112.94351985605599 -17.434978849021284 42.9
    endloop
  endfacet
  facet normal 0 0 -1
    outer loop
      vertex 113.14372306607841 -17.16030767154563 42.9
      vertex 113.11982810556029 -17.187554651968085 42.9
      vertex 113.15147186257614 -16.894424294420702 42.9
    endloop
  endfacet
  facet normal 0 0 -1
    outer loop
      vertex 113.11982810556029 -17.187554651968085 42.9
      vertex 113.05776368524872 -15.905683860219979 42.9
      vertex 113.15147186257614 -16.894424294420702 42.9
    endloop
  endfacet
  facet normal 0 0 -1
    outer loop
      vertex 113.11982810556029 -15.875077075224041 42.9
      vertex 113.15147186257614 -16.894424294420702 42.9
      vertex 113.05776368524872 -15.905683860219979 42.9
    endloop
  endfacet
  facet normal 0 0 -1
    outer loop
      vertex 114.23935820131587 -16.826721544147453 42.9
      vertex 114.15663143066406 -16.81026616635143 42.9
      vertex 114.31058285412303 -16.338220995707236 42.9
    endloop
  endfacet
  facet normal 0 0 -1
    outer loop
      vertex 114.88017189443971 -17.187554651968085 42.9
      vertex 114.85627693392159 -17.16030767154563 42.9
      vertex 114.95202400834948 -16.97132849105655 42.9
    endloop
  endfacet
  facet normal 0 0 -1
    outer loop
      vertex 114.59948323864316 -16.9605146769592 42.9
      vertex 114.46724966150235 -16.895304293224456 42.9
      vertex 114.6 -15.880022424876886 42.9
    endloop
  endfacet
  facet normal 0 0 -1
    outer loop
      vertex 114.85627693392159 -17.16030767154563 42.9
      vertex 114.85092764191833 -16.81712853486021 42.9
      vertex 114.95202400834948 -16.97132849105655 42.9
    endloop
  endfacet
  facet normal 0 0 -1
    outer loop
      vertex 114.77730405079177 -17.089010015001644 42.9
      vertex 114.74065552350851 -15.827717648930282 42.9
      vertex 114.84076004847205 -17.144659431402975 42.9
    endloop
  endfacet
  facet normal 0 0 -1
    outer loop
      vertex 114.85092764191833 -16.81712853486021 42.9
      vertex 115 -15.934169757391093 42.9
      vertex 114.95202400834948 -16.97132849105655 42.9
    endloop
  endfacet
  facet normal 0 0 -1
    outer loop
      vertex 114 -16.8 42.9
      vertex 113.91583311053397 -16.805516589389992 42.9
      vertex 113.85603728799259 -15.709435814661239 42.9
    endloop
  endfacet
  facet normal 0 0 -1
    outer loop
      vertex 114.15663143066406 -16.81026616635143 42.9
      vertex 114.16902755981067 -15.7110786515812 42.9
      vertex 114.31058285412303 -16.338220995707236 42.9
    endloop
  endfacet
  facet normal 0 0 -1
    outer loop
      vertex 114 -16.8 42.9
      vertex 113.85603728799259 -15.709435814661239 42.9
      vertex 114 -15.7 42.9
    endloop
  endfacet
  facet normal 0 0 -1
    outer loop
      vertex 114.30021024210612 -15.719676818840236 42.9
      vertex 114.31058285412303 -16.338220995707236 42.9
      vertex 114.16902755981067 -15.7110786515812 42.9
    endloop
  endfacet
  facet normal 0 0 -1
    outer loop
      vertex 114.46724966150235 -16.895304293224456 42.9
      vertex 114.47078302677426 -15.753605855249116 42.9
      vertex 114.6 -15.880022424876886 42.9
    endloop
  endfacet
  facet normal 0 0 -1
    outer loop
      vertex 114.5952838037358 -15.778370599535144 42.9
      vertex 114.6 -15.880022424876886 42.9
      vertex 114.47078302677426 -15.753605855249116 42.9
    endloop
  endfacet
  facet normal 0 0 -1
    outer loop
      vertex 114.88017189443971 -15.875077075224041 42.9
      vertex 114.84076004847205 -17.144659431402975 42.9
      vertex 114.74065552350851 -15.827717648930282 42.9
    endloop
  endfacet
  facet normal 0 0 -1
    outer loop
      vertex 114.88017189443971 -15.875077075224041 42.9
      vertex 115 -15.934169757391093 42.9
      vertex 114.85092764191833 -16.81712853486021 42.9
    endloop
  endfacet
  facet normal 0 0 -1
    outer loop
      vertex 111.87507707522404 -2.8801718944397066 42.9
      vertex 111.77837059953514 -2.5952838037357977 42.9
      vertex 112.70704855176503 -1.8108407940707816 42.9
    endloop
  endfacet
  facet normal 0 0 -1
    outer loop
      vertex 111.77837059953514 -2.5952838037357977 42.9
      vertex 111.71967681884024 -2.3002102421061186 42.9
      vertex 112.70704855176503 -1.8108407940707816 42.9
    endloop
  endfacet
  facet normal 0 0 -1
    outer loop
      vertex 111.71967681884024 -2.3002102421061186 42.9
      vertex 111.7 -2 42.9
      vertex 112.70704855176503 -1.8108407940707816 42.9
    endloop
  endfacet
  facet normal 0 0 -1
    outer loop
      vertex 111.7 -2 42.9
      vertex 111.71967681884024 -1.6997897578938814 42.9
      vertex 112.70704855176503 -1.8108407940707816 42.9
    endloop
  endfacet
  facet normal 0 0 -1
    outer loop
      vertex 111.71967681884024 -1.6997897578938814 42.9
      vertex 111.77837059953514 -1.4047161962642023 42.9
      vertex 112.70704855176503 -1.8108407940707816 42.9
    endloop
  endfacet
  facet normal 0 0 -1
    outer loop
      vertex 111.77837059953514 -1.4047161962642023 42.9
      vertex 111.87507707522404 -1.1198281055602934 42.9
      vertex 112.70704855176503 -1.8108407940707816 42.9
    endloop
  endfacet
  facet normal 0 0 -1
    outer loop
      vertex 113.11982810556029 -4.124922924775959 42.9
      vertex 113.15923995152795 -2.8553405685970263 42.9
      vertex 113.25934447649149 -4.172282351069718 42.9
    endloop
  endfacet
  facet normal 0 0 -1
    outer loop
      vertex 113.4047161962642 -4.221629400464857 42.9
      vertex 113.4 -4.119977575123115 42.9
      vertex 113.52921697322574 -4.246394144750884 42.9
    endloop
  endfacet
  facet normal 0 0 -1
    outer loop
      vertex 113.53275033849765 -3.1046957067755465 42.9
      vertex 113.52921697322574 -4.246394144750884 42.9
      vertex 113.4 -4.119977575123115 42.9
    endloop
  endfacet
  facet normal 0 0 -1
    outer loop
      vertex 112.17528731733016 -3.4001512867200576 42.9
      vertex 112.85 -2.694313237396803 42.9
      vertex 112.37365440327095 -3.626345596729059 42.9
    endloop
  endfacet
  facet normal 0 0 -1
    outer loop
      vertex 112.17528731733016 -3.4001512867200576 42.9
      vertex 112.0081415712958 -3.15 42.9
      vertex 112.85 -2.694313237396803 42.9
    endloop
  endfacet
  facet normal 0 0 -1
    outer loop
      vertex 112.59984871327994 -3.8247126826698405 42.9
      vertex 113.02945380763707 -2.746077590070794 42.9
      vertex 112.85 -3.9918584287042087 42.9
    endloop
  endfacet
  facet normal 0 0 -1
    outer loop
      vertex 112.37365440327095 -3.626345596729059 42.9
      vertex 113.02945380763707 -2.746077590070794 42.9
      vertex 112.59984871327994 -3.8247126826698405 42.9
    endloop
  endfacet
  facet normal 0 0 -1
    outer loop
      vertex 112.37365440327095 -3.626345596729059 42.9
      vertex 112.85 -2.694313237396803 42.9
      vertex 113.02945380763707 -2.746077590070794 42.9
    endloop
  endfacet
  facet normal 0 0 -1
    outer loop
      vertex 112.0081415712958 -3.15 42.9
      vertex 111.87507707522404 -2.8801718944397066 42.9
      vertex 112.85 -2.4948764455793757 42.9
    endloop
  endfacet
  facet normal 0 0 -1
    outer loop
      vertex 112.74527442142265 -2.3940548632662084 42.9
      vertex 111.87507707522404 -2.8801718944397066 42.9
      vertex 112.70704855176503 -1.8108407940707816 42.9
    endloop
  endfacet
  facet normal 0 0 -1
    outer loop
      vertex 112.85 -2.694313237396803 42.9
      vertex 112.0081415712958 -3.15 42.9
      vertex 112.85 -2.4948764455793757 42.9
    endloop
  endfacet
  facet normal 0 0 -1
    outer loop
      vertex 112.85 -2.4948764455793757 42.9
      vertex 111.87507707522404 -2.8801718944397066 42.9
      vertex 112.74527442142265 -2.3940548632662084 42.9
    endloop
  endfacet
  facet normal 0 0 -1
    outer loop
      vertex 113.14907235808167 -3.1828714651397894 42.9
      vertex 113.11982810556029 -4.124922924775959 42.9
      vertex 113.04797599165052 -3.0286715089434493 42.9
    endloop
  endfacet
  facet normal 0 0 -1
    outer loop
      vertex 113.14372306607841 -2.8396923284543707 42.9
      vertex 113.14907235808167 -3.1828714651397894 42.9
      vertex 113.04797599165052 -3.0286715089434493 42.9
    endloop
  endfacet
  facet normal 0 0 -1
    outer loop
      vertex 113.22269594920823 -2.910989984998356 42.9
      vertex 113.25934447649149 -4.172282351069718 42.9
      vertex 113.15923995152795 -2.8553405685970263 42.9
    endloop
  endfacet
  facet normal 0 0 -1
    outer loop
      vertex 113.40051676135684 -3.0394853230407985 42.9
      vertex 113.53275033849765 -3.1046957067755465 42.9
      vertex 113.4 -4.119977575123115 42.9
    endloop
  endfacet
  facet normal 0 0 -1
    outer loop
      vertex 113.14372306607841 -2.8396923284543707 42.9
      vertex 113.04797599165052 -3.0286715089434493 42.9
      vertex 113.11982810556029 -2.812445348031917 42.9
    endloop
  endfacet
  facet normal 0 0 -1
    outer loop
      vertex 113.69978975789388 -4.280323181159764 42.9
      vertex 113.68941714587697 -3.6617790042927667 42.9
      vertex 113.83097244018933 -4.288921348418799 42.9
    endloop
  endfacet
  facet normal 0 0 -1
    outer loop
      vertex 113.84336856933594 -3.1897338336485723 42.9
      vertex 113.83097244018933 -4.288921348418799 42.9
      vertex 113.68941714587697 -3.6617790042927667 42.9
    endloop
  endfacet
  facet normal 0 0 -1
    outer loop
      vertex 114 -3.2 42.9
      vertex 114.14396271200741 -4.290564185338761 42.9
      vertex 114 -4.3 42.9
    endloop
  endfacet
  facet normal 0 0 -1
    outer loop
      vertex 114.88017189443971 -4.124922924775959 42.9
      vertex 114.84852813742386 -3.105575705579299 42.9
      vertex 114.94223631475128 -4.0943161397800205 42.9
    endloop
  endfacet
  facet normal 0 0 -1
    outer loop
      vertex 113.76064179868413 -3.1732784558525484 42.9
      vertex 113.84336856933594 -3.1897338336485723 42.9
      vertex 113.68941714587697 -3.6617790042927667 42.9
    endloop
  endfacet
  facet normal 0 0 -1
    outer loop
      vertex 114 -3.2 42.9
      vertex 114.08416688946603 -3.1944834106100086 42.9
      vertex 114.14396271200741 -4.290564185338761 42.9
    endloop
  endfacet
  facet normal 0 0 -1
    outer loop
      vertex 114.88017189443971 -2.812445348031917 42.9
      vertex 114.94223631475128 -4.0943161397800205 42.9
      vertex 114.84852813742386 -3.105575705579299 42.9
    endloop
  endfacet
  facet normal 0 0 -1
    outer loop
      vertex 114.85627693392159 -2.8396923284543707 42.9
      vertex 114.88017189443971 -2.812445348031917 42.9
      vertex 114.84852813742386 -3.105575705579299 42.9
    endloop
  endfacet
  facet normal 0 0 -1
    outer loop
      vertex 111.87507707522404 -1.1198281055602934 42.9
      vertex 112.85 -1.659079326700702 42.9
      vertex 112.70704855176503 -1.8108407940707816 42.9
    endloop
  endfacet
  facet normal 0 0 -1
    outer loop
      vertex 111.87507707522404 -1.1198281055602934 42.9
      vertex 112.0081415712958 -0.8500000000000001 42.9
      vertex 112.85 -1.659079326700702 42.9
    endloop
  endfacet
  facet normal 0 0 -1
    outer loop
      vertex 112.0081415712958 -0.8500000000000001 42.9
      vertex 112.17528731733016 -0.5998487132799426 42.9
      vertex 112.85 -1.659079326700702 42.9
    endloop
  endfacet
  facet normal 0 0 -1
    outer loop
      vertex 112.17528731733016 -0.5998487132799426 42.9
      vertex 112.37365440327095 -0.3736544032709408 42.9
      vertex 112.85 -1.659079326700702 42.9
    endloop
  endfacet
  facet normal 0 0 -1
    outer loop
      vertex 112.37365440327095 -0.3736544032709408 42.9
      vertex 112.59984871327994 -0.17528731733015923 42.9
      vertex 112.85 -1.659079326700702 42.9
    endloop
  endfacet
  facet normal 0 0 -1
    outer loop
      vertex 113.4047161962642 0.2216294004648569 42.9
      vertex 112.93984102117288 -1.3788506750570388 42.9
      vertex 112.85 -1.659079326700702 42.9
    endloop
  endfacet
  facet normal 0 0 -1
    outer loop
      vertex 112.85 -0.008141571295791294 42.9
      vertex 113.11982810556029 0.12492292477595912 42.9
      vertex 112.85 -1.659079326700702 42.9
    endloop
  endfacet
  facet normal 0 0 -1
    outer loop
      vertex 113.4047161962642 0.2216294004648569 42.9
      vertex 113.11982810556029 -0.8618046954373786 42.9
      vertex 112.93984102117288 -1.3788506750570388 42.9
    endloop
  endfacet
  facet normal 0 0 -1
    outer loop
      vertex 113.11982810556029 0.12492292477595912 42.9
      vertex 113.4047161962642 0.2216294004648569 42.9
      vertex 112.85 -1.659079326700702 42.9
    endloop
  endfacet
  facet normal 0 0 -1
    outer loop
      vertex 113.13983052868333 -0.9509410080738772 42.9
      vertex 113.4047161962642 0.2216294004648569 42.9
      vertex 113.15864966249906 -1.1256443226778459 42.9
    endloop
  endfacet
  facet normal 0 0 -1
    outer loop
      vertex 113.21010951291875 -0.9404787630148105 42.9
      vertex 113.15864966249906 -1.1256443226778459 42.9
      vertex 113.4047161962642 0.2216294004648569 42.9
    endloop
  endfacet
  facet normal 0 0 -1
    outer loop
      vertex 113.13983052868333 -0.9509410080738772 42.9
      vertex 113.11982810556029 -1.020308048859676 42.9
      vertex 113.4047161962642 0.2216294004648569 42.9
    endloop
  endfacet
  facet normal 0 0 -1
    outer loop
      vertex 113.11982810556029 -0.8618046954373786 42.9
      vertex 113.4047161962642 0.2216294004648569 42.9
      vertex 113.11982810556029 -1.020308048859676 42.9
    endloop
  endfacet
  facet normal 0 0 -1
    outer loop
      vertex 113.21010951291875 -0.9404787630148105 42.9
      vertex 113.4047161962642 0.2216294004648569 42.9
      vertex 113.26983661872517 -1.0466503878365787 42.9
    endloop
  endfacet
  facet normal 0 0 -1
    outer loop
      vertex 113.34328887959391 -0.7687192529459663 42.9
      vertex 113.26983661872517 -1.0466503878365787 42.9
      vertex 113.4047161962642 0.2216294004648569 42.9
    endloop
  endfacet
  facet normal 0 0 -1
    outer loop
      vertex 113.34328887959391 -0.7687192529459663 42.9
      vertex 113.4047161962642 0.2216294004648569 42.9
      vertex 113.45335847948259 -0.7453089919384721 42.9
    endloop
  endfacet
  facet normal 0 0 -1
    outer loop
      vertex 113.49587608422594 -0.5736237140658533 42.9
      vertex 113.45335847948259 -0.7453089919384721 42.9
      vertex 113.69978975789388 0.28032318115976373 42.9
    endloop
  endfacet
  facet normal 0 0 -1
    outer loop
      vertex 113.69978975789388 0.28032318115976373 42.9
      vertex 113.45335847948259 -0.7453089919384721 42.9
      vertex 113.4047161962642 0.2216294004648569 42.9
    endloop
  endfacet
  facet normal 0 0 -1
    outer loop
      vertex 114.88017189443971 -1.187554651968083 42.9
      vertex 114.85627693392159 -1.1603076715456293 42.9
      vertex 114.9539308929773 -1.0004219283866687 42.9
    endloop
  endfacet
  facet normal 0 0 -1
    outer loop
      vertex 113.49587608422594 -0.5736237140658533 42.9
      vertex 113.69978975789388 0.28032318115976373 42.9
      vertex 113.58090057896196 -0.7156169922961445 42.9
    endloop
  endfacet
  facet normal 0 0 -1
    outer loop
      vertex 113.61538239699686 -0.5645875641069398 42.9
      vertex 113.58090057896196 -0.7156169922961445 42.9
      vertex 113.69978975789388 0.28032318115976373 42.9
    endloop
  endfacet
  facet normal 0 0 -1
    outer loop
      vertex 114.59948323864316 -0.9605146769592012 42.9
      vertex 114.46724966150235 -0.8953042932244535 42.9
      vertex 114.62866270013981 -0.49781176722342235 42.9
    endloop
  endfacet
  facet normal 0 0 -1
    outer loop
      vertex 114.46724966150235 -0.8953042932244535 42.9
      vertex 114.55408368428924 0.22982461376029525 42.9
      vertex 114.62866270013981 -0.49781176722342235 42.9
    endloop
  endfacet
  facet normal 0 0 -1
    outer loop
      vertex 114.85627693392159 -1.1603076715456293 42.9
      vertex 114.87049981204875 -0.1866459664948693 42.9
      vertex 114.9539308929773 -1.0004219283866687 42.9
    endloop
  endfacet
  facet normal 0 0 -1
    outer loop
      vertex 114.5952838037358 0.2216294004648569 42.9
      vertex 114.62866270013981 -0.49781176722342235 42.9
      vertex 114.55408368428924 0.22982461376029525 42.9
    endloop
  endfacet
  facet normal 0 0 -1
    outer loop
      vertex 114.87049981204875 -0.1866459664948693 42.9
      vertex 114.88017189443971 0.12492292477595912 42.9
      vertex 114.9539308929773 -1.0004219283866687 42.9
    endloop
  endfacet
endsolid OpenSCAD_Model
