solid OpenSCAD_Model
  facet normal 0 0 1
    outer loop
      vertex 98.5 35.887499999999996 19.8
      vertex 112.96666666666667 29 19.8
      vertex 98.5 39.8375 19.8
    endloop
  endfacet
  facet normal 0 0 1
    outer loop
      vertex 98.5 39.8375 19.8
      vertex 112.96666666666667 29 19.8
      vertex 99.63333333333333 49 19.8
    endloop
  endfacet
  facet normal 0 0 1
    outer loop
      vertex 99.63333333333333 49 19.8
      vertex 113.5 40.142857142857146 19.8
      vertex 101.1 49 19.8
    endloop
  endfacet
  facet normal 0 0 1
    outer loop
      vertex 110.74444444444444 29 19.8
      vertex 112.96666666666667 29 19.8
      vertex 98.5 35.887499999999996 19.8
    endloop
  endfacet
  facet normal 0 0 1
    outer loop
      vertex 112.96666666666667 29 19.8
      vertex 113.5 36.1948051948052 19.8
      vertex 99.63333333333333 49 19.8
    endloop
  endfacet
  facet normal 0 0 1
    outer loop
      vertex 113.5 36.1948051948052 19.8
      vertex 113.5 40.142857142857146 19.8
      vertex 99.63333333333333 49 19.8
    endloop
  endfacet
  facet normal 0 0 -1
    outer loop
      vertex 98.5 35.887499999999996 19.8
      vertex 101.1 49 19.8
      vertex 110.74444444444444 29 19.8
    endloop
  endfacet
  facet normal 0 0 -1
    outer loop
      vertex 98.5 35.887499999999996 19.8
      vertex 98.5 39.8375 19.8
      vertex 101.1 49 19.8
    endloop
  endfacet
  facet normal 0 0 -1
    outer loop
      vertex 98.5 39.8375 19.8
      vertex 99.63333333333333 49 19.8
      vertex 101.1 49 19.8
    endloop
  endfacet
  facet normal 0 0 -1
    outer loop
      vertex 110.74444444444444 29 19.8
      vertex 113.5 36.1948051948052 19.8
      vertex 112.96666666666667 29 19.8
    endloop
  endfacet
  facet normal 0 0 -1
    outer loop
      vertex 113.5 36.1948051948052 19.8
      vertex 110.74444444444444 29 19.8
      vertex 113.5 40.142857142857146 19.8
    endloop
  endfacet
  facet normal 0 0 -1
    outer loop
      vertex 113.5 40.142857142857146 19.8
      vertex 110.74444444444444 29 19.8
      vertex 101.1 49 19.8
    endloop
  endfacet
endsolid OpenSCAD_Model
