solid OpenSCAD_Model
  facet normal -0.8314696123025382 0.5555702330196126 0
    outer loop
      vertex 87.6199399791263 25.826284287026162 5.4
      vertex 87.40192378864668 25.5 5.4
      vertex 87.6199399791263 25.826284287026162 7.4
    endloop
  endfacet
  facet normal -0.7518398074789876 0.6593458151000572 0
    outer loop
      vertex 87.87867965644035 26.121320343559642 7.4
      vertex 87.87867965644035 26.121320343559642 5.4
      vertex 87.6199399791263 25.826284287026162 5.4
    endloop
  endfacet
  facet normal -0.6593458151000591 0.7518398074789859 0
    outer loop
      vertex 88.17371571297384 26.380060020873707 7.4
      vertex 88.17371571297384 26.380060020873707 5.4
      vertex 87.87867965644035 26.121320343559642 5.4
    endloop
  endfacet
  facet normal -0.5555702330196085 0.8314696123025411 0
    outer loop
      vertex 88.5 26.598076211353316 7.4
      vertex 88.5 26.598076211353316 5.4
      vertex 88.17371571297384 26.380060020873707 5.4
    endloop
  endfacet
  facet normal -0.44228869021899464 0.8968727415326915 0
    outer loop
      vertex 88.85194970290473 26.771638597533858 7.4
      vertex 88.85194970290473 26.771638597533858 5.4
      vertex 88.5 26.598076211353316 5.4
    endloop
  endfacet
  facet normal -0.32143946530317186 0.9469301294951022 0
    outer loop
      vertex 89.22354286469243 26.897777478867205 7.4
      vertex 89.22354286469243 26.897777478867205 5.4
      vertex 88.85194970290473 26.771638597533858 5.4
    endloop
  endfacet
  facet normal -0.1950903220161193 0.9807852804032323 0
    outer loop
      vertex 89.60842142333985 26.97433458412143 7.4
      vertex 89.60842142333985 26.97433458412143 5.4
      vertex 89.22354286469243 26.897777478867205 5.4
    endloop
  endfacet
  facet normal -0.0654031292301486 0.997858923238603 0
    outer loop
      vertex 90 27 7.4
      vertex 90 27 5.4
      vertex 89.60842142333985 26.97433458412143 5.4
    endloop
  endfacet
  facet normal 0.0654031292301486 0.997858923238603 0
    outer loop
      vertex 90.39157857666015 26.97433458412143 7.4
      vertex 90.39157857666015 26.97433458412143 5.4
      vertex 90 27 5.4
    endloop
  endfacet
  facet normal 0.1950903220161193 0.9807852804032323 0
    outer loop
      vertex 90.77645713530757 26.897777478867205 7.4
      vertex 90.77645713530757 26.897777478867205 5.4
      vertex 90.39157857666015 26.97433458412143 5.4
    endloop
  endfacet
  facet normal 0.44228869021899464 0.8968727415326915 0
    outer loop
      vertex 91.5 26.598076211353316 7.4
      vertex 91.5 26.598076211353316 5.4
      vertex 91.14805029709527 26.771638597533858 5.4
    endloop
  endfacet
  facet normal 0.32143946530317186 0.9469301294951022 0
    outer loop
      vertex 91.14805029709527 26.771638597533858 7.4
      vertex 91.14805029709527 26.771638597533858 5.4
      vertex 90.77645713530757 26.897777478867205 5.4
    endloop
  endfacet
  facet normal 0.6593458151000591 0.7518398074789859 0
    outer loop
      vertex 92.12132034355965 26.121320343559642 7.4
      vertex 92.12132034355965 26.121320343559642 5.4
      vertex 91.82628428702616 26.380060020873707 5.4
    endloop
  endfacet
  facet normal 0.8314696123025382 0.5555702330196126 0
    outer loop
      vertex 92.59807621135332 25.5 7.4
      vertex 92.59807621135332 25.5 5.4
      vertex 92.3800600208737 25.826284287026162 5.4
    endloop
  endfacet
  facet normal 0.7518398074789876 0.6593458151000572 0
    outer loop
      vertex 92.3800600208737 25.826284287026162 7.4
      vertex 92.3800600208737 25.826284287026162 5.4
      vertex 92.12132034355965 26.121320343559642 5.4
    endloop
  endfacet
  facet normal 0.5555702330196085 0.8314696123025411 0
    outer loop
      vertex 91.82628428702616 26.380060020873707 7.4
      vertex 91.82628428702616 26.380060020873707 5.4
      vertex 91.5 26.598076211353316 5.4
    endloop
  endfacet
  facet normal -0.8314696123025382 0.5555702330196126 0
    outer loop
      vertex 87.40192378864668 25.5 5.4
      vertex 87.40192378864668 25.5 7.4
      vertex 87.6199399791263 25.826284287026162 7.4
    endloop
  endfacet
  facet normal -0.7518398074789876 0.6593458151000572 0
    outer loop
      vertex 87.6199399791263 25.826284287026162 7.4
      vertex 87.87867965644035 26.121320343559642 7.4
      vertex 87.6199399791263 25.826284287026162 5.4
    endloop
  endfacet
  facet normal -0.6593458151000591 0.7518398074789859 0
    outer loop
      vertex 87.87867965644035 26.121320343559642 7.4
      vertex 88.17371571297384 26.380060020873707 7.4
      vertex 87.87867965644035 26.121320343559642 5.4
    endloop
  endfacet
  facet normal -0.5555702330196085 0.8314696123025411 0
    outer loop
      vertex 88.17371571297384 26.380060020873707 7.4
      vertex 88.5 26.598076211353316 7.4
      vertex 88.17371571297384 26.380060020873707 5.4
    endloop
  endfacet
  facet normal -0.44228869021899464 0.8968727415326915 0
    outer loop
      vertex 88.5 26.598076211353316 5.4
      vertex 88.5 26.598076211353316 7.4
      vertex 88.85194970290473 26.771638597533858 7.4
    endloop
  endfacet
  facet normal -0.32143946530317186 0.9469301294951022 0
    outer loop
      vertex 89.22354286469243 26.897777478867205 7.4
      vertex 88.85194970290473 26.771638597533858 5.4
      vertex 88.85194970290473 26.771638597533858 7.4
    endloop
  endfacet
  facet normal -0.1950903220161193 0.9807852804032323 0
    outer loop
      vertex 89.60842142333985 26.97433458412143 7.4
      vertex 89.22354286469243 26.897777478867205 5.4
      vertex 89.22354286469243 26.897777478867205 7.4
    endloop
  endfacet
  facet normal -0.0654031292301486 0.997858923238603 0
    outer loop
      vertex 90 27 7.4
      vertex 89.60842142333985 26.97433458412143 5.4
      vertex 89.60842142333985 26.97433458412143 7.4
    endloop
  endfacet
  facet normal 0.0654031292301486 0.997858923238603 0
    outer loop
      vertex 90.39157857666015 26.97433458412143 7.4
      vertex 90 27 5.4
      vertex 90 27 7.4
    endloop
  endfacet
  facet normal 0.1950903220161193 0.9807852804032323 0
    outer loop
      vertex 90.39157857666015 26.97433458412143 5.4
      vertex 90.39157857666015 26.97433458412143 7.4
      vertex 90.77645713530757 26.897777478867205 7.4
    endloop
  endfacet
  facet normal 0.32143946530317186 0.9469301294951022 0
    outer loop
      vertex 90.77645713530757 26.897777478867205 5.4
      vertex 90.77645713530757 26.897777478867205 7.4
      vertex 91.14805029709527 26.771638597533858 7.4
    endloop
  endfacet
  facet normal 0.44228869021899464 0.8968727415326915 0
    outer loop
      vertex 91.14805029709527 26.771638597533858 7.4
      vertex 91.5 26.598076211353316 7.4
      vertex 91.14805029709527 26.771638597533858 5.4
    endloop
  endfacet
  facet normal 0.5555702330196085 0.8314696123025411 0
    outer loop
      vertex 91.5 26.598076211353316 7.4
      vertex 91.82628428702616 26.380060020873707 7.4
      vertex 91.5 26.598076211353316 5.4
    endloop
  endfacet
  facet normal 0.6593458151000591 0.7518398074789859 0
    outer loop
      vertex 91.82628428702616 26.380060020873707 7.4
      vertex 92.12132034355965 26.121320343559642 7.4
      vertex 91.82628428702616 26.380060020873707 5.4
    endloop
  endfacet
  facet normal 0.7518398074789876 0.6593458151000572 0
    outer loop
      vertex 92.12132034355965 26.121320343559642 7.4
      vertex 92.3800600208737 25.826284287026162 7.4
      vertex 92.12132034355965 26.121320343559642 5.4
    endloop
  endfacet
  facet normal 0.8314696123025382 0.5555702330196126 0
    outer loop
      vertex 92.3800600208737 25.826284287026162 5.4
      vertex 92.3800600208737 25.826284287026162 7.4
      vertex 92.59807621135332 25.5 7.4
    endloop
  endfacet
  facet normal -0.1950903220161155 0.9807852804032331 0
    outer loop
      vertex 116.22354286469243 26.897777478867205 5.4
      vertex 116.5 26.952768222130228 7.4
      vertex 116.5 26.952768222130228 5.4
    endloop
  endfacet
  facet normal -0.8314696123025384 0.5555702330196126 0
    outer loop
      vertex 114.40192378864668 25.5 5.4
      vertex 114.6199399791263 25.826284287026162 8
      vertex 114.6199399791263 25.826284287026162 5.4
    endloop
  endfacet
  facet normal -0.7518398074789877 0.6593458151000572 0
    outer loop
      vertex 114.6199399791263 25.826284287026162 5.4
      vertex 114.87867965644035 26.121320343559642 8
      vertex 114.87867965644035 26.121320343559642 5.4
    endloop
  endfacet
  facet normal -0.6593458151000591 0.7518398074789862 0
    outer loop
      vertex 114.87867965644035 26.121320343559642 5.4
      vertex 115.17371571297384 26.380060020873707 8
      vertex 115.17371571297384 26.380060020873707 5.4
    endloop
  endfacet
  facet normal -0.5555702330196084 0.831469612302541 0
    outer loop
      vertex 115.17371571297384 26.380060020873707 5.4
      vertex 115.5 26.598076211353316 8
      vertex 115.5 26.598076211353316 5.4
    endloop
  endfacet
  facet normal -0.4422886902189946 0.8968727415326915 0
    outer loop
      vertex 115.5 26.598076211353316 5.4
      vertex 115.85194970290473 26.771638597533858 8
      vertex 115.85194970290473 26.771638597533858 5.4
    endloop
  endfacet
  facet normal -0.32143946530317186 0.9469301294951021 0
    outer loop
      vertex 116.22354286469243 26.897777478867205 8
      vertex 116.22354286469243 26.897777478867205 5.4
      vertex 115.85194970290473 26.771638597533858 5.4
    endloop
  endfacet
  facet normal -0.8314696123025382 0.5555702330196126 0
    outer loop
      vertex 114.6199399791263 25.826284287026162 8
      vertex 114.40192378864668 25.5 5.4
      vertex 114.40192378864668 25.5 7.4
    endloop
  endfacet
  facet normal -0.19509032201611545 0.9807852804032329 0
    outer loop
      vertex 116.22354286469243 26.897777478867205 8
      vertex 116.5 26.952768222130228 7.4
      vertex 116.22354286469243 26.897777478867205 5.4
    endloop
  endfacet
  facet normal -0.7518398074789877 0.6593458151000572 0
    outer loop
      vertex 114.6199399791263 25.826284287026162 5.4
      vertex 114.6199399791263 25.826284287026162 8
      vertex 114.87867965644035 26.121320343559642 8
    endloop
  endfacet
  facet normal -0.6593458151000591 0.7518398074789862 0
    outer loop
      vertex 114.87867965644035 26.121320343559642 8
      vertex 115.17371571297384 26.380060020873707 8
      vertex 114.87867965644035 26.121320343559642 5.4
    endloop
  endfacet
  facet normal -0.5555702330196084 0.831469612302541 0
    outer loop
      vertex 115.17371571297384 26.380060020873707 5.4
      vertex 115.17371571297384 26.380060020873707 8
      vertex 115.5 26.598076211353316 8
    endloop
  endfacet
  facet normal -0.4422886902189946 0.8968727415326915 0
    outer loop
      vertex 115.5 26.598076211353316 5.4
      vertex 115.5 26.598076211353316 8
      vertex 115.85194970290473 26.771638597533858 8
    endloop
  endfacet
  facet normal -0.32143946530317186 0.9469301294951021 0
    outer loop
      vertex 115.85194970290473 26.771638597533858 5.4
      vertex 115.85194970290473 26.771638597533858 8
      vertex 116.22354286469243 26.897777478867205 8
    endloop
  endfacet
  facet normal -0.8314696123025384 0.5555702330196126 0
    outer loop
      vertex 114.40192378864668 25.5 7.4
      vertex 114.40192378864668 25.5 8
      vertex 114.6199399791263 25.826284287026162 8
    endloop
  endfacet
  facet normal -0.19509032201611548 0.9807852804032331 0
    outer loop
      vertex 116.22354286469243 26.897777478867205 8
      vertex 116.5 26.952768222130228 8
      vertex 116.5 26.952768222130228 7.4
    endloop
  endfacet
  facet normal 0 0 1
    outer loop
      vertex 75.40094925736972 25.83876672481679 5.4
      vertex 74.57856591963774 25.5 5.4
      vertex 75.8025212536189 25.5 5.4
    endloop
  endfacet
  facet normal 0 0 1
    outer loop
      vertex 75.68102802636437 25.838484672310532 5.4
      vertex 75.8025212536189 25.5 5.4
      vertex 75.75866188716694 25.79070219996064 5.4
    endloop
  endfacet
  facet normal 0 0 1
    outer loop
      vertex 75.75866188716694 25.79070219996064 5.4
      vertex 75.8025212536189 25.5 5.4
      vertex 75.84336856933594 25.81026616635143 5.4
    endloop
  endfacet
  facet normal 0 0 1
    outer loop
      vertex 75.91750917172764 25.78350183434553 5.4
      vertex 75.84336856933594 25.81026616635143 5.4
      vertex 75.8025212536189 25.5 5.4
    endloop
  endfacet
  facet normal 0 0 1
    outer loop
      vertex 75.40094925736972 25.83876672481679 5.4
      vertex 75.8025212536189 25.5 5.4
      vertex 75.53191430916247 25.888011009440348 5.4
    endloop
  endfacet
  facet normal 0 0 1
    outer loop
      vertex 75.61099878069655 25.818414169542706 5.4
      vertex 75.53191430916247 25.888011009440348 5.4
      vertex 75.8025212536189 25.5 5.4
    endloop
  endfacet
  facet normal 0 0 1
    outer loop
      vertex 75.61099878069655 25.818414169542706 5.4
      vertex 75.8025212536189 25.5 5.4
      vertex 75.68102802636437 25.838484672310532 5.4
    endloop
  endfacet
  facet normal 0 0 1
    outer loop
      vertex 76.1974787463811 25.5 5.4
      vertex 76.15663143066406 25.81026616635143 5.4
      vertex 76 25.8 5.4
    endloop
  endfacet
  facet normal 0 0 1
    outer loop
      vertex 76.1974787463811 25.5 5.4
      vertex 77.73714771126322 25.5 5.4
      vertex 76.15663143066406 25.81026616635143 5.4
    endloop
  endfacet
  facet normal 0 0 1
    outer loop
      vertex 77.73714771126322 25.5 5.4
      vertex 76.31058285412303 25.840889008453118 5.4
      vertex 76.15663143066406 25.81026616635143 5.4
    endloop
  endfacet
  facet normal 0 0 1
    outer loop
      vertex 77.73714771126322 25.5 5.4
      vertex 76.39045402797855 25.86800161857879 5.4
      vertex 76.31058285412303 25.840889008453118 5.4
    endloop
  endfacet
  facet normal 0 0 1
    outer loop
      vertex 77.73714771126322 25.5 5.4
      vertex 76.4677130808475 25.891261553749864 5.4
      vertex 76.39045402797855 25.86800161857879 5.4
    endloop
  endfacet
  facet normal 0 0 1
    outer loop
      vertex 77.73714771126322 25.5 5.4
      vertex 76.46724966150235 25.895304293224456 5.4
      vertex 76.4677130808475 25.891261553749864 5.4
    endloop
  endfacet
  facet normal 0 0 1
    outer loop
      vertex 76.46724966150235 25.895304293224456 5.4
      vertex 77.73714771126322 25.5 5.4
      vertex 76.53735672777721 25.929877272290373 5.4
    endloop
  endfacet
  facet normal 0 0 1
    outer loop
      vertex 77.73714771126322 25.5 5.4
      vertex 76.60829220540222 25.9623513784682 5.4
      vertex 76.60871292015914 25.960668897714314 5.4
    endloop
  endfacet
  facet normal 0 0 1
    outer loop
      vertex 77.73714771126322 25.5 5.4
      vertex 76.60871292015914 25.960668897714314 5.4
      vertex 76.53735672777721 25.929877272290373 5.4
    endloop
  endfacet
  facet normal 0 0 1
    outer loop
      vertex 77.73714771126322 25.5 5.4
      vertex 76.73779388915504 25.987055774134113 5.4
      vertex 76.60829220540222 25.9623513784682 5.4
    endloop
  endfacet
  facet normal 0 0 1
    outer loop
      vertex 77.73714771126322 25.5 5.4
      vertex 76.77998857431088 26.057330226528556 5.4
      vertex 76.73779388915504 25.987055774134113 5.4
    endloop
  endfacet
  facet normal 0 0 1
    outer loop
      vertex 77.73714771126322 25.5 5.4
      vertex 76.77942648847066 26.06396334424762 5.4
      vertex 76.77998857431088 26.057330226528556 5.4
    endloop
  endfacet
  facet normal 0 0 1
    outer loop
      vertex 76.77942648847066 26.06396334424762 5.4
      vertex 77.73714771126322 25.5 5.4
      vertex 76.84262387186305 26.084619683602405 5.4
    endloop
  endfacet
  facet normal 0 0 1
    outer loop
      vertex 76.84262387186305 26.084619683602405 5.4
      vertex 77.73714771126322 25.5 5.4
      vertex 76.85639385890696 26.154018664767882 5.4
    endloop
  endfacet
  facet normal 0 0 1
    outer loop
      vertex 76.85639385890696 26.154018664767882 5.4
      vertex 77.73714771126322 25.5 5.4
      vertex 76.88017189443971 26.161717634676776 5.4
    endloop
  endfacet
  facet normal 0 0 1
    outer loop
      vertex 74.85 28.99185842870421 5.4
      vertex 74.85 27.337422969717345 5.4
      vertex 74.87283744237993 28.64342638988576 5.4
    endloop
  endfacet
  facet normal 0 0 1
    outer loop
      vertex 74.85 28.99185842870421 5.4
      vertex 74.81842180940268 28.970758556322938 5.4
      vertex 74.85 27.337422969717345 5.4
    endloop
  endfacet
  facet normal 0 0 1
    outer loop
      vertex 75.11982810556029 29.12492292477596 5.4
      vertex 75.15923995152795 27.855340568597025 5.4
      vertex 75.22269594920823 27.910989984998356 5.4
    endloop
  endfacet
  facet normal 0 0 1
    outer loop
      vertex 75.11982810556029 29.12492292477596 5.4
      vertex 75.22269594920823 27.910989984998356 5.4
      vertex 75.26931769101786 27.957402461166602 5.4
    endloop
  endfacet
  facet normal 0 0 1
    outer loop
      vertex 75.11982810556029 29.12492292477596 5.4
      vertex 75.12478237657807 28.858449134635528 5.4
      vertex 75.15923995152795 27.855340568597025 5.4
    endloop
  endfacet
  facet normal 0 0 1
    outer loop
      vertex 75.4047161962642 29.221629400464856 5.4
      vertex 75.46264327222279 28.070122727709627 5.4
      vertex 75.53275033849765 28.104695706775544 5.4
    endloop
  endfacet
  facet normal 0 0 1
    outer loop
      vertex 75.4047161962642 29.221629400464856 5.4
      vertex 75.53275033849765 28.104695706775544 5.4
      vertex 75.5192984111731 28.612087476523946 5.4
    endloop
  endfacet
  facet normal 0 0 1
    outer loop
      vertex 75.4047161962642 29.221629400464856 5.4
      vertex 75.3570901138329 29.20546252395057 5.4
      vertex 75.46264327222279 28.070122727709627 5.4
    endloop
  endfacet
  facet normal 0 0 1
    outer loop
      vertex 75.69978975789388 29.280323181159766 5.4
      vertex 75.75921244776265 28.199281780929013 5.4
      vertex 75.84336856933594 28.18973383364857 5.4
    endloop
  endfacet
  facet normal 0 0 1
    outer loop
      vertex 75.69978975789388 29.280323181159766 5.4
      vertex 75.84336856933594 28.18973383364857 5.4
      vertex 75.91879147486395 28.233340981146466 5.4
    endloop
  endfacet
  facet normal 0 0 1
    outer loop
      vertex 77.15 27.62853689999481 5.4
      vertex 77.15 27.470185478728684 5.4
      vertex 77.25841970153397 27.337693438374316 5.4
    endloop
  endfacet
  facet normal 0 0 1
    outer loop
      vertex 77.15 28.99185842870421 5.4
      vertex 77.15 27.62853689999481 5.4
      vertex 77.25841970153397 27.337693438374316 5.4
    endloop
  endfacet
  facet normal 0 0 1
    outer loop
      vertex 76 29.3 5.4
      vertex 75.91879147486395 28.233340981146466 5.4
      vertex 76 28.2 5.4
    endloop
  endfacet
  facet normal 0 0 1
    outer loop
      vertex 76 29.3 5.4
      vertex 76 28.2 5.4
      vertex 76.17108796142722 28.299542086648565 5.4
    endloop
  endfacet
  facet normal 0 0 1
    outer loop
      vertex 76.30021024210612 29.280323181159766 5.4
      vertex 76.31892942757403 28.16405245320832 5.4
      vertex 76.38715402595147 28.20444378735616 5.4
    endloop
  endfacet
  facet normal 0 0 1
    outer loop
      vertex 76.30021024210612 29.280323181159766 5.4
      vertex 76.17108796142722 28.299542086648565 5.4
      vertex 76.24304850884413 28.24041401007333 5.4
    endloop
  endfacet
  facet normal 0 0 1
    outer loop
      vertex 76.30021024210612 29.280323181159766 5.4
      vertex 76.24304850884413 28.24041401007333 5.4
      vertex 76.31892942757403 28.16405245320832 5.4
    endloop
  endfacet
  facet normal 0 0 1
    outer loop
      vertex 76.5952838037358 29.221629400464856 5.4
      vertex 76.38715402595147 28.20444378735616 5.4
      vertex 76.46832841047598 28.114106408129494 5.4
    endloop
  endfacet
  facet normal 0 0 1
    outer loop
      vertex 76.64877145915732 28.068768598610053 5.4
      vertex 76.64960835755478 28.050730280236177 5.4
      vertex 76.68640198931709 28.05925947307774 5.4
    endloop
  endfacet
  facet normal 0 0 1
    outer loop
      vertex 76.5952838037358 29.221629400464856 5.4
      vertex 76.64877145915732 28.068768598610053 5.4
      vertex 76.68640198931709 28.05925947307774 5.4
    endloop
  endfacet
  facet normal 0 0 1
    outer loop
      vertex 76.88017189443971 29.12492292477596 5.4
      vertex 76.84460196464968 27.979101049063853 5.4
      vertex 76.85647720312429 27.850464143984325 5.4
    endloop
  endfacet
  facet normal 0 0 1
    outer loop
      vertex 76.88017189443971 29.12492292477596 5.4
      vertex 76.68640198931709 28.05925947307774 5.4
      vertex 76.78181295216021 27.964199070551704 5.4
    endloop
  endfacet
  facet normal 0 0 1
    outer loop
      vertex 76.88017189443971 29.12492292477596 5.4
      vertex 76.78181295216021 27.964199070551704 5.4
      vertex 76.84460196464968 27.979101049063853 5.4
    endloop
  endfacet
  facet normal 0 0 1
    outer loop
      vertex 76.88017189443971 29.12492292477596 5.4
      vertex 76.88017189443971 27.85623502065886 5.4
      vertex 76.97125080633212 27.73532725832257 5.4
    endloop
  endfacet
  facet normal 0 0 1
    outer loop
      vertex 77.15 28.99185842870421 5.4
      vertex 76.97125080633212 27.73532725832257 5.4
      vertex 77.15 27.62853689999481 5.4
    endloop
  endfacet
  facet normal 0 0 1
    outer loop
      vertex 76.88017189443971 29.12492292477596 5.4
      vertex 76.85647720312429 27.850464143984325 5.4
      vertex 76.88017189443971 27.85623502065886 5.4
    endloop
  endfacet
  facet normal 0 0 1
    outer loop
      vertex 76.5952838037358 29.221629400464856 5.4
      vertex 76.59894047816145 28.19227280589437 5.4
      vertex 76.64877145915732 28.068768598610053 5.4
    endloop
  endfacet
  facet normal 0 0 1
    outer loop
      vertex 76.5952838037358 29.221629400464856 5.4
      vertex 76.46832841047598 28.114106408129494 5.4
      vertex 76.59894047816145 28.19227280589437 5.4
    endloop
  endfacet
  facet normal 0 0 1
    outer loop
      vertex 76.5952838037358 29.221629400464856 5.4
      vertex 76.68640198931709 28.05925947307774 5.4
      vertex 76.88017189443971 29.12492292477596 5.4
    endloop
  endfacet
  facet normal 0 0 1
    outer loop
      vertex 77.15 28.99185842870421 5.4
      vertex 76.88017189443971 29.12492292477596 5.4
      vertex 76.97125080633212 27.73532725832257 5.4
    endloop
  endfacet
  facet normal 0 0 1
    outer loop
      vertex 76.88017189443971 26.161717634676776 5.4
      vertex 77.73714771126322 25.5 5.4
      vertex 77.06496009029938 26.305599869163704 5.4
    endloop
  endfacet
  facet normal 0 0 1
    outer loop
      vertex 77.05648014394401 26.434978849021284 5.4
      vertex 77.06496009029938 26.305599869163704 5.4
      vertex 77.73714771126322 25.5 5.4
    endloop
  endfacet
  facet normal 0 0 1
    outer loop
      vertex 77.05648014394401 26.434978849021284 5.4
      vertex 77.73714771126322 25.5 5.4
      vertex 77.15 26.55356286022524 5.4
    endloop
  endfacet
  facet normal 0 0 1
    outer loop
      vertex 77.15 26.662577030282655 5.4
      vertex 77.15 26.55356286022524 5.4
      vertex 77.73714771126322 25.5 5.4
    endloop
  endfacet
  facet normal 0 0 1
    outer loop
      vertex 77.73714771126322 25.5 5.4
      vertex 77.29815053465933 26.731518063762703 5.4
      vertex 77.15 26.662577030282655 5.4
    endloop
  endfacet
  facet normal 0 0 1
    outer loop
      vertex 77.25841970153397 27.337693438374316 5.4
      vertex 77.29815053465933 26.731518063762703 5.4
      vertex 77.73714771126322 25.5 5.4
    endloop
  endfacet
  facet normal 0 0 1
    outer loop
      vertex 77.82471268266984 25.599848713279943 5.4
      vertex 77.62634559672905 28.62634559672906 5.4
      vertex 77.73714771126322 25.5 5.4
    endloop
  endfacet
  facet normal 0 0 1
    outer loop
      vertex 77.82471268266984 25.599848713279943 5.4
      vertex 77.9918584287042 25.85 5.4
      vertex 77.82471268266984 28.400151286720057 5.4
    endloop
  endfacet
  facet normal 0 0 1
    outer loop
      vertex 77.9918584287042 25.85 5.4
      vertex 78.12492292477596 26.119828105560295 5.4
      vertex 77.9918584287042 28.15 5.4
    endloop
  endfacet
  facet normal 0 0 1
    outer loop
      vertex 78.12492292477596 26.119828105560295 5.4
      vertex 78.22162940046486 26.404716196264204 5.4
      vertex 78.12492292477596 27.880171894439705 5.4
    endloop
  endfacet
  facet normal 0 0 1
    outer loop
      vertex 78.22162940046486 26.404716196264204 5.4
      vertex 78.28032318115976 26.699789757893882 5.4
      vertex 78.22162940046486 27.595283803735796 5.4
    endloop
  endfacet
  facet normal 0 0 1
    outer loop
      vertex 78.28032318115976 26.699789757893882 5.4
      vertex 78.3 27 5.4
      vertex 78.28032318115976 27.300210242106118 5.4
    endloop
  endfacet
  facet normal 0 0 1
    outer loop
      vertex 77.15 28.99185842870421 5.4
      vertex 77.25841970153397 27.337693438374316 5.4
      vertex 77.73714771126322 25.5 5.4
    endloop
  endfacet
  facet normal 0 0 1
    outer loop
      vertex 77.82471268266984 25.599848713279943 5.4
      vertex 77.82471268266984 28.400151286720057 5.4
      vertex 77.62634559672905 28.62634559672906 5.4
    endloop
  endfacet
  facet normal 0 0 1
    outer loop
      vertex 77.15 28.99185842870421 5.4
      vertex 77.73714771126322 25.5 5.4
      vertex 77.40015128672006 28.82471268266984 5.4
    endloop
  endfacet
  facet normal 0 0 1
    outer loop
      vertex 77.40015128672006 28.82471268266984 5.4
      vertex 77.73714771126322 25.5 5.4
      vertex 77.62634559672905 28.62634559672906 5.4
    endloop
  endfacet
  facet normal 0 0 1
    outer loop
      vertex 78.12492292477596 26.119828105560295 5.4
      vertex 78.12492292477596 27.880171894439705 5.4
      vertex 77.9918584287042 28.15 5.4
    endloop
  endfacet
  facet normal 0 0 1
    outer loop
      vertex 77.9918584287042 25.85 5.4
      vertex 77.9918584287042 28.15 5.4
      vertex 77.82471268266984 28.400151286720057 5.4
    endloop
  endfacet
  facet normal 0 0 1
    outer loop
      vertex 78.28032318115976 26.699789757893882 5.4
      vertex 78.28032318115976 27.300210242106118 5.4
      vertex 78.22162940046486 27.595283803735796 5.4
    endloop
  endfacet
  facet normal 0 0 1
    outer loop
      vertex 78.22162940046486 26.404716196264204 5.4
      vertex 78.22162940046486 27.595283803735796 5.4
      vertex 78.12492292477596 27.880171894439705 5.4
    endloop
  endfacet
  facet normal 0 0 1
    outer loop
      vertex 75.69978975789388 29.280323181159766 5.4
      vertex 75.91879147486395 28.233340981146466 5.4
      vertex 76 29.3 5.4
    endloop
  endfacet
  facet normal 0 0 1
    outer loop
      vertex 76.30021024210612 29.280323181159766 5.4
      vertex 76 29.3 5.4
      vertex 76.17108796142722 28.299542086648565 5.4
    endloop
  endfacet
  facet normal 0 0 1
    outer loop
      vertex 76.30021024210612 29.280323181159766 5.4
      vertex 76.38715402595147 28.20444378735616 5.4
      vertex 76.5952838037358 29.221629400464856 5.4
    endloop
  endfacet
  facet normal 0 0 1
    outer loop
      vertex 112.87507707522404 50.119828105560295 5.4
      vertex 112.77837059953514 51.595283803735796 5.4
      vertex 112.77837059953514 50.404716196264204 5.4
    endloop
  endfacet
  facet normal 0 0 1
    outer loop
      vertex 113.17528731733016 49.59984871327994 5.4
      vertex 113.0081415712958 52.15 5.4
      vertex 113.0081415712958 49.85 5.4
    endloop
  endfacet
  facet normal 0 0 1
    outer loop
      vertex 112.87507707522404 50.119828105560295 5.4
      vertex 113.0081415712958 49.85 5.4
      vertex 112.87507707522404 51.880171894439705 5.4
    endloop
  endfacet
  facet normal 0 0 1
    outer loop
      vertex 113.37365440327095 49.37365440327094 5.4
      vertex 113.59984871327994 49.17528731733016 5.4
      vertex 113.37365440327095 52.21204700442022 5.4
    endloop
  endfacet
  facet normal 0 0 1
    outer loop
      vertex 113.59984871327994 49.17528731733016 5.4
      vertex 113.85 49.008141571295795 5.4
      vertex 113.37365440327095 52.21204700442022 5.4
    endloop
  endfacet
  facet normal 0 0 1
    outer loop
      vertex 113.85 49.008141571295795 5.4
      vertex 113.85 50.3279959863686 5.4
      vertex 113.74409006209395 50.624014968229375 5.4
    endloop
  endfacet
  facet normal 0 0 1
    outer loop
      vertex 113.37365440327095 49.37365440327094 5.4
      vertex 113.17528731733016 52.40015128672006 5.4
      vertex 113.17528731733016 49.59984871327994 5.4
    endloop
  endfacet
  facet normal 0 0 1
    outer loop
      vertex 113.85 50.3279959863686 5.4
      vertex 113.85 50.513370395273796 5.4
      vertex 113.74409006209395 50.624014968229375 5.4
    endloop
  endfacet
  facet normal 0 0 1
    outer loop
      vertex 113.85 49.008141571295795 5.4
      vertex 113.74409006209395 50.624014968229375 5.4
      vertex 113.37365440327095 52.21204700442022 5.4
    endloop
  endfacet
  facet normal 0 0 1
    outer loop
      vertex 112.71967681884024 50.69978975789388 5.4
      vertex 112.71967681884024 51.30021024210612 5.4
      vertex 112.7 51 5.4
    endloop
  endfacet
  facet normal 0 0 1
    outer loop
      vertex 112.77837059953514 50.404716196264204 5.4
      vertex 112.71967681884024 51.30021024210612 5.4
      vertex 112.71967681884024 50.69978975789388 5.4
    endloop
  endfacet
  facet normal 0 0 1
    outer loop
      vertex 112.77837059953514 50.404716196264204 5.4
      vertex 112.77837059953514 51.595283803735796 5.4
      vertex 112.71967681884024 51.30021024210612 5.4
    endloop
  endfacet
  facet normal 0 0 1
    outer loop
      vertex 112.87507707522404 50.119828105560295 5.4
      vertex 112.87507707522404 51.880171894439705 5.4
      vertex 112.77837059953514 51.595283803735796 5.4
    endloop
  endfacet
  facet normal 0 0 1
    outer loop
      vertex 113.0081415712958 49.85 5.4
      vertex 113.0081415712958 52.15 5.4
      vertex 112.87507707522404 51.880171894439705 5.4
    endloop
  endfacet
  facet normal 0 0 1
    outer loop
      vertex 113.17528731733016 49.59984871327994 5.4
      vertex 113.17528731733016 52.40015128672006 5.4
      vertex 113.0081415712958 52.15 5.4
    endloop
  endfacet
  facet normal 0 0 1
    outer loop
      vertex 113.37365440327095 49.37365440327094 5.4
      vertex 113.37365440327095 52.21204700442022 5.4
      vertex 113.17528731733016 52.40015128672006 5.4
    endloop
  endfacet
  facet normal 0 0 1
    outer loop
      vertex 113.74409006209395 50.624014968229375 5.4
      vertex 113.70489182804762 51.22206445116284 5.4
      vertex 113.37365440327095 52.21204700442022 5.4
    endloop
  endfacet
  facet normal 0 0 1
    outer loop
      vertex 113.37365440327095 52.21204700442022 5.4
      vertex 113.70489182804762 51.22206445116284 5.4
      vertex 113.85 51.337422969717345 5.4
    endloop
  endfacet
  facet normal 0 0 1
    outer loop
      vertex 113.37365440327095 52.21204700442022 5.4
      vertex 113.85 51.337422969717345 5.4
      vertex 113.85 51.432008333050284 5.4
    endloop
  endfacet
  facet normal 0 0 1
    outer loop
      vertex 113.94351985605599 51.565021150978716 5.4
      vertex 113.37365440327095 52.21204700442022 5.4
      vertex 113.85 51.432008333050284 5.4
    endloop
  endfacet
  facet normal 0 0 1
    outer loop
      vertex 113.37365440327095 52.21204700442022 5.4
      vertex 113.94351985605599 51.565021150978716 5.4
      vertex 113.93252566871003 51.73276003558658 5.4
    endloop
  endfacet
  facet normal 0 0 1
    outer loop
      vertex 113.37365440327095 52.21204700442022 5.4
      vertex 113.93252566871003 51.73276003558658 5.4
      vertex 114.11982810556029 51.812445348031915 5.4
    endloop
  endfacet
  facet normal 0 0 1
    outer loop
      vertex 114.14372306607841 51.83969232845437 5.4
      vertex 113.37365440327095 52.21204700442022 5.4
      vertex 114.11982810556029 51.812445348031915 5.4
    endloop
  endfacet
  facet normal 0 0 1
    outer loop
      vertex 114.11982810556029 48.87507707522404 5.4
      vertex 114.16833655837694 48.85861067432456 5.4
      vertex 114.22269594920823 50.08901001500164 5.4
    endloop
  endfacet
  facet normal 0 0 1
    outer loop
      vertex 114.4047161962642 48.778370599535144 5.4
      vertex 114.4103686598942 48.777246254612976 5.4
      vertex 114.53275033849765 49.89530429322445 5.4
    endloop
  endfacet
  facet normal 0 0 1
    outer loop
      vertex 114.4047161962642 48.778370599535144 5.4
      vertex 114.40051676135684 49.9605146769592 5.4
      vertex 114.365701657175 49.619281132328545 5.4
    endloop
  endfacet
  facet normal 0 0 1
    outer loop
      vertex 114.11982810556029 48.87507707522404 5.4
      vertex 114.15923995152795 50.14465943140298 5.4
      vertex 114.14076161275314 50.00102092904116 5.4
    endloop
  endfacet
  facet normal 0 0 1
    outer loop
      vertex 114.11982810556029 48.87507707522404 5.4
      vertex 114.22269594920823 50.08901001500164 5.4
      vertex 114.15923995152795 50.14465943140298 5.4
    endloop
  endfacet
  facet normal 0 0 1
    outer loop
      vertex 113.85 49.008141571295795 5.4
      vertex 114.02921710799271 50.25753374863797 5.4
      vertex 113.85 50.3279959863686 5.4
    endloop
  endfacet
  facet normal 0 0 1
    outer loop
      vertex 114.4047161962642 48.778370599535144 5.4
      vertex 114.53275033849765 49.89530429322445 5.4
      vertex 114.40051676135684 49.9605146769592 5.4
    endloop
  endfacet
  facet normal 0 0 1
    outer loop
      vertex 116.15 49.008141571295795 5.4
      vertex 116.40015128672006 49.17528731733016 5.4
      vertex 116.15 50.51462716666765 5.4
    endloop
  endfacet
  facet normal 0 0 1
    outer loop
      vertex 116.40015128672006 49.17528731733016 5.4
      vertex 116.26461418833723 51.24318383303442 5.4
      vertex 116.15 50.51462716666765 5.4
    endloop
  endfacet
  facet normal 0 0 1
    outer loop
      vertex 114.14372306607841 51.83969232845437 5.4
      vertex 114.14355637313345 51.84865818855205 5.4
      vertex 113.37365440327095 52.21204700442022 5.4
    endloop
  endfacet
  facet normal 0 0 1
    outer loop
      vertex 113.37365440327095 52.21204700442022 5.4
      vertex 114.14355637313345 51.84865818855205 5.4
      vertex 114.15923995152795 51.85534056859702 5.4
    endloop
  endfacet
  facet normal 0 0 1
    outer loop
      vertex 114.22269594920823 51.91098998499836 5.4
      vertex 113.37365440327095 52.21204700442022 5.4
      vertex 114.15923995152795 51.85534056859702 5.4
    endloop
  endfacet
  facet normal 0 0 1
    outer loop
      vertex 114.22269594920823 51.91098998499836 5.4
      vertex 114.2191599929455 51.95271744451058 5.4
      vertex 113.37365440327095 52.21204700442022 5.4
    endloop
  endfacet
  facet normal 0 0 1
    outer loop
      vertex 114.26996536248235 51.95234411756246 5.4
      vertex 113.37365440327095 52.21204700442022 5.4
      vertex 114.2191599929455 51.95271744451058 5.4
    endloop
  endfacet
  facet normal 0 0 1
    outer loop
      vertex 114.26996536248235 51.95234411756246 5.4
      vertex 114.3925559999576 52.03425656273232 5.4
      vertex 113.37365440327095 52.21204700442022 5.4
    endloop
  endfacet
  facet normal 0 0 1
    outer loop
      vertex 114.3925559999576 52.03425656273232 5.4
      vertex 114.39128707984086 52.039331102285686 5.4
      vertex 113.37365440327095 52.21204700442022 5.4
    endloop
  endfacet
  facet normal 0 0 1
    outer loop
      vertex 113.37365440327095 52.21204700442022 5.4
      vertex 114.39128707984086 52.039331102285686 5.4
      vertex 114.46264327222279 52.07012272770963 5.4
    endloop
  endfacet
  facet normal 0 0 1
    outer loop
      vertex 114.53275033849765 52.10469570677555 5.4
      vertex 113.37365440327095 52.21204700442022 5.4
      vertex 114.46264327222279 52.07012272770963 5.4
    endloop
  endfacet
  facet normal 0 0 1
    outer loop
      vertex 114.53275033849765 52.10469570677555 5.4
      vertex 114.5322869191525 52.10873844625014 5.4
      vertex 113.37365440327095 52.21204700442022 5.4
    endloop
  endfacet
  facet normal 0 0 1
    outer loop
      vertex 114.60954597202145 52.131998381421205 5.4
      vertex 113.37365440327095 52.21204700442022 5.4
      vertex 114.5322869191525 52.10873844625014 5.4
    endloop
  endfacet
  facet normal 0 0 1
    outer loop
      vertex 114.60954597202145 52.131998381421205 5.4
      vertex 114.68941714587697 52.15911099154688 5.4
      vertex 113.37365440327095 52.21204700442022 5.4
    endloop
  endfacet
  facet normal 0 0 1
    outer loop
      vertex 113.37365440327095 52.21204700442022 5.4
      vertex 114.68941714587697 52.15911099154688 5.4
      vertex 114.84336856933594 52.189733833648575 5.4
    endloop
  endfacet
  facet normal 0 0 1
    outer loop
      vertex 113.37365440327095 52.21204700442022 5.4
      vertex 114.91583311053397 52.19448341061001 5.4
      vertex 114.91630031062141 52.2006199976991 5.4
    endloop
  endfacet
  facet normal 0 0 1
    outer loop
      vertex 113.37365440327095 52.21204700442022 5.4
      vertex 114.84336856933594 52.189733833648575 5.4
      vertex 114.91583311053397 52.19448341061001 5.4
    endloop
  endfacet
  facet normal 0 0 1
    outer loop
      vertex 115.24133811283306 52.20929780003936 5.4
      vertex 115.08249082827236 52.21649816565447 5.4
      vertex 115.15663143066406 52.189733833648575 5.4
    endloop
  endfacet
  facet normal 0 0 1
    outer loop
      vertex 116.40015128672006 49.17528731733016 5.4
      vertex 116.42245065093759 52.48449013018752 5.4
      vertex 116.26461418833723 51.24318383303442 5.4
    endloop
  endfacet
  facet normal 0 0 1
    outer loop
      vertex 116.42245065093759 52.48449013018752 5.4
      vertex 115.08249082827236 52.21649816565447 5.4
      vertex 115.24133811283306 52.20929780003936 5.4
    endloop
  endfacet
  facet normal 0 0 -1
    outer loop
      vertex 75.40094925736972 25.83876672481679 5.4
      vertex 75.53191430916247 25.888011009440348 5.4
      vertex 74.57856591963774 25.5 5.4
    endloop
  endfacet
  facet normal 0 0 -1
    outer loop
      vertex 75.75866188716694 25.79070219996064 5.4
      vertex 74.57856591963774 25.5 5.4
      vertex 75.68102802636437 25.838484672310532 5.4
    endloop
  endfacet
  facet normal 0 0 -1
    outer loop
      vertex 75.75866188716694 25.79070219996064 5.4
      vertex 75.84336856933594 25.81026616635143 5.4
      vertex 74.57856591963774 25.5 5.4
    endloop
  endfacet
  facet normal 0 0 -1
    outer loop
      vertex 74.57856591963774 25.5 5.4
      vertex 75.91750917172764 25.78350183434553 5.4
      vertex 75.8025212536189 25.5 5.4
    endloop
  endfacet
  facet normal 0 0 -1
    outer loop
      vertex 75.84336856933594 25.81026616635143 5.4
      vertex 75.91750917172764 25.78350183434553 5.4
      vertex 74.57856591963774 25.5 5.4
    endloop
  endfacet
  facet normal 0 0 -1
    outer loop
      vertex 75.61099878069655 25.818414169542706 5.4
      vertex 74.57856591963774 25.5 5.4
      vertex 75.53191430916247 25.888011009440348 5.4
    endloop
  endfacet
  facet normal 0 0 -1
    outer loop
      vertex 75.61099878069655 25.818414169542706 5.4
      vertex 75.68102802636437 25.838484672310532 5.4
      vertex 74.57856591963774 25.5 5.4
    endloop
  endfacet
  facet normal 0 0 -1
    outer loop
      vertex 76.1974787463811 25.5 5.4
      vertex 76 25.8 5.4
      vertex 77.73714771126322 25.5 5.4
    endloop
  endfacet
  facet normal 0 0 -1
    outer loop
      vertex 76 25.8 5.4
      vertex 76.15663143066406 25.81026616635143 5.4
      vertex 77.82471268266984 25.599848713279943 5.4
    endloop
  endfacet
  facet normal 0 0 -1
    outer loop
      vertex 76.15663143066406 25.81026616635143 5.4
      vertex 76.31058285412303 25.840889008453118 5.4
      vertex 77.82471268266984 25.599848713279943 5.4
    endloop
  endfacet
  facet normal 0 0 -1
    outer loop
      vertex 76.31058285412303 25.840889008453118 5.4
      vertex 76.39045402797855 25.86800161857879 5.4
      vertex 77.82471268266984 25.599848713279943 5.4
    endloop
  endfacet
  facet normal 0 0 -1
    outer loop
      vertex 77.73714771126322 25.5 5.4
      vertex 76 25.8 5.4
      vertex 77.82471268266984 25.599848713279943 5.4
    endloop
  endfacet
  facet normal 0 0 -1
    outer loop
      vertex 76.39045402797855 25.86800161857879 5.4
      vertex 76.4677130808475 25.891261553749864 5.4
      vertex 77.82471268266984 25.599848713279943 5.4
    endloop
  endfacet
  facet normal 0 0 -1
    outer loop
      vertex 76.46724966150235 25.895304293224456 5.4
      vertex 77.9918584287042 25.85 5.4
      vertex 76.4677130808475 25.891261553749864 5.4
    endloop
  endfacet
  facet normal 0 0 -1
    outer loop
      vertex 76.46724966150235 25.895304293224456 5.4
      vertex 76.53735672777721 25.929877272290373 5.4
      vertex 77.9918584287042 25.85 5.4
    endloop
  endfacet
  facet normal 0 0 -1
    outer loop
      vertex 76.53735672777721 25.929877272290373 5.4
      vertex 76.60871292015914 25.960668897714314 5.4
      vertex 77.9918584287042 25.85 5.4
    endloop
  endfacet
  facet normal 0 0 -1
    outer loop
      vertex 77.9918584287042 25.85 5.4
      vertex 76.60871292015914 25.960668897714314 5.4
      vertex 76.60829220540222 25.9623513784682 5.4
    endloop
  endfacet
  facet normal 0 0 -1
    outer loop
      vertex 76.60829220540222 25.9623513784682 5.4
      vertex 76.73779388915504 25.987055774134113 5.4
      vertex 78.12492292477596 26.119828105560295 5.4
    endloop
  endfacet
  facet normal 0 0 -1
    outer loop
      vertex 74.85 27.337422969717345 5.4
      vertex 74.81842180940268 28.970758556322938 5.4
      vertex 74.87283744237993 28.64342638988576 5.4
    endloop
  endfacet
  facet normal 0 0 -1
    outer loop
      vertex 75.22269594920823 27.910989984998356 5.4
      vertex 75.15923995152795 27.855340568597025 5.4
      vertex 75.12478237657807 28.858449134635528 5.4
    endloop
  endfacet
  facet normal 0 0 -1
    outer loop
      vertex 75.22269594920823 27.910989984998356 5.4
      vertex 75.12478237657807 28.858449134635528 5.4
      vertex 75.26931769101786 27.957402461166602 5.4
    endloop
  endfacet
  facet normal 0 0 -1
    outer loop
      vertex 74.85 28.99185842870421 5.4
      vertex 74.87283744237993 28.64342638988576 5.4
      vertex 74.81842180940268 28.970758556322938 5.4
    endloop
  endfacet
  facet normal 0 0 -1
    outer loop
      vertex 75.12478237657807 28.858449134635528 5.4
      vertex 75.11982810556029 29.12492292477596 5.4
      vertex 75.26931769101786 27.957402461166602 5.4
    endloop
  endfacet
  facet normal 0 0 -1
    outer loop
      vertex 75.53275033849765 28.104695706775544 5.4
      vertex 75.46264327222279 28.070122727709627 5.4
      vertex 75.5192984111731 28.612087476523946 5.4
    endloop
  endfacet
  facet normal 0 0 -1
    outer loop
      vertex 75.46264327222279 28.070122727709627 5.4
      vertex 75.3570901138329 29.20546252395057 5.4
      vertex 75.5192984111731 28.612087476523946 5.4
    endloop
  endfacet
  facet normal 0 0 -1
    outer loop
      vertex 76.88017189443971 29.12492292477596 5.4
      vertex 75.84336856933594 28.18973383364857 5.4
      vertex 75.75921244776265 28.199281780929013 5.4
    endloop
  endfacet
  facet normal 0 0 -1
    outer loop
      vertex 75.91879147486395 28.233340981146466 5.4
      vertex 75.84336856933594 28.18973383364857 5.4
      vertex 77.15 28.99185842870421 5.4
    endloop
  endfacet
  facet normal 0 0 -1
    outer loop
      vertex 75.91879147486395 28.233340981146466 5.4
      vertex 77.15 28.99185842870421 5.4
      vertex 76 28.2 5.4
    endloop
  endfacet
  facet normal 0 0 -1
    outer loop
      vertex 76.17108796142722 28.299542086648565 5.4
      vertex 76 28.2 5.4
      vertex 77.15 28.99185842870421 5.4
    endloop
  endfacet
  facet normal 0 0 -1
    outer loop
      vertex 76.17108796142722 28.299542086648565 5.4
      vertex 77.15 28.99185842870421 5.4
      vertex 76.24304850884413 28.24041401007333 5.4
    endloop
  endfacet
  facet normal 0 0 -1
    outer loop
      vertex 76.5952838037358 29.221629400464856 5.4
      vertex 76.88017189443971 29.12492292477596 5.4
      vertex 75.75921244776265 28.199281780929013 5.4
    endloop
  endfacet
  facet normal 0 0 -1
    outer loop
      vertex 76.38715402595147 28.20444378735616 5.4
      vertex 76.31892942757403 28.16405245320832 5.4
      vertex 77.40015128672006 28.82471268266984 5.4
    endloop
  endfacet
  facet normal 0 0 -1
    outer loop
      vertex 76.38715402595147 28.20444378735616 5.4
      vertex 77.40015128672006 28.82471268266984 5.4
      vertex 76.46832841047598 28.114106408129494 5.4
    endloop
  endfacet
  facet normal 0 0 -1
    outer loop
      vertex 76.59894047816145 28.19227280589437 5.4
      vertex 76.46832841047598 28.114106408129494 5.4
      vertex 77.40015128672006 28.82471268266984 5.4
    endloop
  endfacet
  facet normal 0 0 -1
    outer loop
      vertex 76.84460196464968 27.979101049063853 5.4
      vertex 77.82471268266984 28.400151286720057 5.4
      vertex 76.85647720312429 27.850464143984325 5.4
    endloop
  endfacet
  facet normal 0 0 -1
    outer loop
      vertex 76.84460196464968 27.979101049063853 5.4
      vertex 76.78181295216021 27.964199070551704 5.4
      vertex 77.82471268266984 28.400151286720057 5.4
    endloop
  endfacet
  facet normal 0 0 -1
    outer loop
      vertex 76.68640198931709 28.05925947307774 5.4
      vertex 76.64960835755478 28.050730280236177 5.4
      vertex 77.82471268266984 28.400151286720057 5.4
    endloop
  endfacet
  facet normal 0 0 -1
    outer loop
      vertex 76.68640198931709 28.05925947307774 5.4
      vertex 77.82471268266984 28.400151286720057 5.4
      vertex 76.78181295216021 27.964199070551704 5.4
    endloop
  endfacet
  facet normal 0 0 -1
    outer loop
      vertex 76.64960835755478 28.050730280236177 5.4
      vertex 76.64877145915732 28.068768598610053 5.4
      vertex 77.40015128672006 28.82471268266984 5.4
    endloop
  endfacet
  facet normal 0 0 -1
    outer loop
      vertex 76.59894047816145 28.19227280589437 5.4
      vertex 77.40015128672006 28.82471268266984 5.4
      vertex 76.64877145915732 28.068768598610053 5.4
    endloop
  endfacet
  facet normal 0 0 -1
    outer loop
      vertex 77.15 28.99185842870421 5.4
      vertex 76.31892942757403 28.16405245320832 5.4
      vertex 76.24304850884413 28.24041401007333 5.4
    endloop
  endfacet
  facet normal 0 0 -1
    outer loop
      vertex 77.15 28.99185842870421 5.4
      vertex 75.84336856933594 28.18973383364857 5.4
      vertex 76.88017189443971 29.12492292477596 5.4
    endloop
  endfacet
  facet normal 0 0 -1
    outer loop
      vertex 77.40015128672006 28.82471268266984 5.4
      vertex 76.31892942757403 28.16405245320832 5.4
      vertex 77.15 28.99185842870421 5.4
    endloop
  endfacet
  facet normal 0 0 -1
    outer loop
      vertex 77.9918584287042 25.85 5.4
      vertex 77.82471268266984 25.599848713279943 5.4
      vertex 76.4677130808475 25.891261553749864 5.4
    endloop
  endfacet
  facet normal 0 0 -1
    outer loop
      vertex 76.73779388915504 25.987055774134113 5.4
      vertex 76.77998857431088 26.057330226528556 5.4
      vertex 78.12492292477596 26.119828105560295 5.4
    endloop
  endfacet
  facet normal 0 0 -1
    outer loop
      vertex 76.77942648847066 26.06396334424762 5.4
      vertex 78.22162940046486 26.404716196264204 5.4
      vertex 76.77998857431088 26.057330226528556 5.4
    endloop
  endfacet
  facet normal 0 0 -1
    outer loop
      vertex 76.77942648847066 26.06396334424762 5.4
      vertex 76.84262387186305 26.084619683602405 5.4
      vertex 78.22162940046486 26.404716196264204 5.4
    endloop
  endfacet
  facet normal 0 0 -1
    outer loop
      vertex 76.84262387186305 26.084619683602405 5.4
      vertex 76.85639385890696 26.154018664767882 5.4
      vertex 78.22162940046486 26.404716196264204 5.4
    endloop
  endfacet
  facet normal 0 0 -1
    outer loop
      vertex 76.85639385890696 26.154018664767882 5.4
      vertex 76.88017189443971 26.161717634676776 5.4
      vertex 78.22162940046486 26.404716196264204 5.4
    endloop
  endfacet
  facet normal 0 0 -1
    outer loop
      vertex 76.88017189443971 26.161717634676776 5.4
      vertex 77.06496009029938 26.305599869163704 5.4
      vertex 78.22162940046486 26.404716196264204 5.4
    endloop
  endfacet
  facet normal 0 0 -1
    outer loop
      vertex 78.12492292477596 26.119828105560295 5.4
      vertex 77.9918584287042 25.85 5.4
      vertex 76.60829220540222 25.9623513784682 5.4
    endloop
  endfacet
  facet normal 0 0 -1
    outer loop
      vertex 76.77998857431088 26.057330226528556 5.4
      vertex 78.22162940046486 26.404716196264204 5.4
      vertex 78.12492292477596 26.119828105560295 5.4
    endloop
  endfacet
  facet normal 0 0 -1
    outer loop
      vertex 77.05648014394401 26.434978849021284 5.4
      vertex 78.28032318115976 26.699789757893882 5.4
      vertex 77.06496009029938 26.305599869163704 5.4
    endloop
  endfacet
  facet normal 0 0 -1
    outer loop
      vertex 77.15 26.662577030282655 5.4
      vertex 77.29815053465933 26.731518063762703 5.4
      vertex 77.15 26.55356286022524 5.4
    endloop
  endfacet
  facet normal 0 0 -1
    outer loop
      vertex 77.05648014394401 26.434978849021284 5.4
      vertex 77.15 26.55356286022524 5.4
      vertex 78.28032318115976 26.699789757893882 5.4
    endloop
  endfacet
  facet normal 0 0 -1
    outer loop
      vertex 78.28032318115976 26.699789757893882 5.4
      vertex 77.15 26.55356286022524 5.4
      vertex 77.29815053465933 26.731518063762703 5.4
    endloop
  endfacet
  facet normal 0 0 -1
    outer loop
      vertex 78.28032318115976 27.300210242106118 5.4
      vertex 77.29815053465933 26.731518063762703 5.4
      vertex 77.25841970153397 27.337693438374316 5.4
    endloop
  endfacet
  facet normal 0 0 -1
    outer loop
      vertex 78.22162940046486 26.404716196264204 5.4
      vertex 77.06496009029938 26.305599869163704 5.4
      vertex 78.28032318115976 26.699789757893882 5.4
    endloop
  endfacet
  facet normal 0 0 -1
    outer loop
      vertex 78.3 27 5.4
      vertex 78.28032318115976 26.699789757893882 5.4
      vertex 77.29815053465933 26.731518063762703 5.4
    endloop
  endfacet
  facet normal 0 0 -1
    outer loop
      vertex 78.28032318115976 27.300210242106118 5.4
      vertex 78.3 27 5.4
      vertex 77.29815053465933 26.731518063762703 5.4
    endloop
  endfacet
  facet normal 0 0 -1
    outer loop
      vertex 78.22162940046486 27.595283803735796 5.4
      vertex 77.15 27.470185478728684 5.4
      vertex 77.15 27.62853689999481 5.4
    endloop
  endfacet
  facet normal 0 0 -1
    outer loop
      vertex 77.25841970153397 27.337693438374316 5.4
      vertex 77.15 27.470185478728684 5.4
      vertex 78.22162940046486 27.595283803735796 5.4
    endloop
  endfacet
  facet normal 0 0 -1
    outer loop
      vertex 76.88017189443971 27.85623502065886 5.4
      vertex 77.9918584287042 28.15 5.4
      vertex 76.97125080633212 27.73532725832257 5.4
    endloop
  endfacet
  facet normal 0 0 -1
    outer loop
      vertex 76.88017189443971 27.85623502065886 5.4
      vertex 76.85647720312429 27.850464143984325 5.4
      vertex 77.9918584287042 28.15 5.4
    endloop
  endfacet
  facet normal 0 0 -1
    outer loop
      vertex 77.15 27.62853689999481 5.4
      vertex 76.97125080633212 27.73532725832257 5.4
      vertex 77.9918584287042 28.15 5.4
    endloop
  endfacet
  facet normal 0 0 -1
    outer loop
      vertex 78.22162940046486 27.595283803735796 5.4
      vertex 77.15 27.62853689999481 5.4
      vertex 77.9918584287042 28.15 5.4
    endloop
  endfacet
  facet normal 0 0 -1
    outer loop
      vertex 78.22162940046486 27.595283803735796 5.4
      vertex 78.28032318115976 27.300210242106118 5.4
      vertex 77.25841970153397 27.337693438374316 5.4
    endloop
  endfacet
  facet normal 0 0 -1
    outer loop
      vertex 78.12492292477596 27.880171894439705 5.4
      vertex 78.22162940046486 27.595283803735796 5.4
      vertex 77.9918584287042 28.15 5.4
    endloop
  endfacet
  facet normal 0 0 -1
    outer loop
      vertex 77.62634559672905 28.62634559672906 5.4
      vertex 77.82471268266984 28.400151286720057 5.4
      vertex 76.64960835755478 28.050730280236177 5.4
    endloop
  endfacet
  facet normal 0 0 -1
    outer loop
      vertex 77.9918584287042 28.15 5.4
      vertex 76.85647720312429 27.850464143984325 5.4
      vertex 77.82471268266984 28.400151286720057 5.4
    endloop
  endfacet
  facet normal 0 0 -1
    outer loop
      vertex 77.62634559672905 28.62634559672906 5.4
      vertex 76.64960835755478 28.050730280236177 5.4
      vertex 77.40015128672006 28.82471268266984 5.4
    endloop
  endfacet
  facet normal 0 0 -1
    outer loop
      vertex 75.4047161962642 29.221629400464856 5.4
      vertex 75.5192984111731 28.612087476523946 5.4
      vertex 75.3570901138329 29.20546252395057 5.4
    endloop
  endfacet
  facet normal 0 0 -1
    outer loop
      vertex 75.69978975789388 29.280323181159766 5.4
      vertex 76 29.3 5.4
      vertex 75.75921244776265 28.199281780929013 5.4
    endloop
  endfacet
  facet normal 0 0 -1
    outer loop
      vertex 76 29.3 5.4
      vertex 76.30021024210612 29.280323181159766 5.4
      vertex 75.75921244776265 28.199281780929013 5.4
    endloop
  endfacet
  facet normal 0 0 -1
    outer loop
      vertex 76.30021024210612 29.280323181159766 5.4
      vertex 76.5952838037358 29.221629400464856 5.4
      vertex 75.75921244776265 28.199281780929013 5.4
    endloop
  endfacet
  facet normal 0 0 -1
    outer loop
      vertex 87.6199399791263 25.826284287026162 5.4
      vertex 92.3800600208737 25.826284287026162 5.4
      vertex 87.40192378864668 25.5 5.4
    endloop
  endfacet
  facet normal 0 0 -1
    outer loop
      vertex 87.6199399791263 25.826284287026162 5.4
      vertex 87.87867965644035 26.121320343559642 5.4
      vertex 92.12132034355965 26.121320343559642 5.4
    endloop
  endfacet
  facet normal 0 0 -1
    outer loop
      vertex 87.87867965644035 26.121320343559642 5.4
      vertex 88.17371571297384 26.380060020873707 5.4
      vertex 91.82628428702616 26.380060020873707 5.4
    endloop
  endfacet
  facet normal 0 0 -1
    outer loop
      vertex 88.17371571297384 26.380060020873707 5.4
      vertex 88.5 26.598076211353316 5.4
      vertex 91.14805029709527 26.771638597533858 5.4
    endloop
  endfacet
  facet normal 0 0 -1
    outer loop
      vertex 88.5 26.598076211353316 5.4
      vertex 88.85194970290473 26.771638597533858 5.4
      vertex 91.14805029709527 26.771638597533858 5.4
    endloop
  endfacet
  facet normal 0 0 -1
    outer loop
      vertex 88.85194970290473 26.771638597533858 5.4
      vertex 89.22354286469243 26.897777478867205 5.4
      vertex 90.39157857666015 26.97433458412143 5.4
    endloop
  endfacet
  facet normal 0 0 -1
    outer loop
      vertex 88.17371571297384 26.380060020873707 5.4
      vertex 91.14805029709527 26.771638597533858 5.4
      vertex 91.5 26.598076211353316 5.4
    endloop
  endfacet
  facet normal 0 0 -1
    outer loop
      vertex 89.22354286469243 26.897777478867205 5.4
      vertex 89.60842142333985 26.97433458412143 5.4
      vertex 90.39157857666015 26.97433458412143 5.4
    endloop
  endfacet
  facet normal 0 0 -1
    outer loop
      vertex 88.85194970290473 26.771638597533858 5.4
      vertex 90.39157857666015 26.97433458412143 5.4
      vertex 90.77645713530757 26.897777478867205 5.4
    endloop
  endfacet
  facet normal 0 0 -1
    outer loop
      vertex 88.85194970290473 26.771638597533858 5.4
      vertex 90.77645713530757 26.897777478867205 5.4
      vertex 91.14805029709527 26.771638597533858 5.4
    endloop
  endfacet
  facet normal 0 0 -1
    outer loop
      vertex 89.60842142333985 26.97433458412143 5.4
      vertex 90 27 5.4
      vertex 90.39157857666015 26.97433458412143 5.4
    endloop
  endfacet
  facet normal 0 0 -1
    outer loop
      vertex 87.40192378864668 25.5 5.4
      vertex 92.3800600208737 25.826284287026162 5.4
      vertex 92.59807621135332 25.5 5.4
    endloop
  endfacet
  facet normal 0 0 -1
    outer loop
      vertex 87.87867965644035 26.121320343559642 5.4
      vertex 91.82628428702616 26.380060020873707 5.4
      vertex 92.12132034355965 26.121320343559642 5.4
    endloop
  endfacet
  facet normal 0 0 -1
    outer loop
      vertex 87.6199399791263 25.826284287026162 5.4
      vertex 92.12132034355965 26.121320343559642 5.4
      vertex 92.3800600208737 25.826284287026162 5.4
    endloop
  endfacet
  facet normal 0 0 -1
    outer loop
      vertex 88.17371571297384 26.380060020873707 5.4
      vertex 91.5 26.598076211353316 5.4
      vertex 91.82628428702616 26.380060020873707 5.4
    endloop
  endfacet
  facet normal 0 -1 0
    outer loop
      vertex 92.59807621135332 25.5 5.4
      vertex 92.59807621135332 25.5 7.4
      vertex 87.40192378864668 25.5 5.4
    endloop
  endfacet
  facet normal 0 -1 0
    outer loop
      vertex 87.40192378864668 25.5 5.4
      vertex 92.59807621135332 25.5 7.4
      vertex 87.40192378864668 25.5 7.4
    endloop
  endfacet
  facet normal 0 0 1
    outer loop
      vertex 87.6199399791263 25.826284287026162 7.4
      vertex 87.40192378864668 25.5 7.4
      vertex 92.3800600208737 25.826284287026162 7.4
    endloop
  endfacet
  facet normal 0 0 1
    outer loop
      vertex 87.6199399791263 25.826284287026162 7.4
      vertex 92.3800600208737 25.826284287026162 7.4
      vertex 87.87867965644035 26.121320343559642 7.4
    endloop
  endfacet
  facet normal 0 0 1
    outer loop
      vertex 87.87867965644035 26.121320343559642 7.4
      vertex 91.82628428702616 26.380060020873707 7.4
      vertex 88.17371571297384 26.380060020873707 7.4
    endloop
  endfacet
  facet normal 0 0 1
    outer loop
      vertex 88.17371571297384 26.380060020873707 7.4
      vertex 91.5 26.598076211353316 7.4
      vertex 88.5 26.598076211353316 7.4
    endloop
  endfacet
  facet normal 0 0 1
    outer loop
      vertex 88.5 26.598076211353316 7.4
      vertex 90.77645713530757 26.897777478867205 7.4
      vertex 88.85194970290473 26.771638597533858 7.4
    endloop
  endfacet
  facet normal 0 0 1
    outer loop
      vertex 89.22354286469243 26.897777478867205 7.4
      vertex 88.85194970290473 26.771638597533858 7.4
      vertex 90.77645713530757 26.897777478867205 7.4
    endloop
  endfacet
  facet normal 0 0 1
    outer loop
      vertex 89.60842142333985 26.97433458412143 7.4
      vertex 89.22354286469243 26.897777478867205 7.4
      vertex 90 27 7.4
    endloop
  endfacet
  facet normal 0 0 1
    outer loop
      vertex 90.77645713530757 26.897777478867205 7.4
      vertex 88.5 26.598076211353316 7.4
      vertex 91.14805029709527 26.771638597533858 7.4
    endloop
  endfacet
  facet normal 0 0 1
    outer loop
      vertex 90 27 7.4
      vertex 89.22354286469243 26.897777478867205 7.4
      vertex 90.39157857666015 26.97433458412143 7.4
    endloop
  endfacet
  facet normal 0 0 1
    outer loop
      vertex 89.22354286469243 26.897777478867205 7.4
      vertex 90.77645713530757 26.897777478867205 7.4
      vertex 90.39157857666015 26.97433458412143 7.4
    endloop
  endfacet
  facet normal 0 0 1
    outer loop
      vertex 92.59807621135332 25.5 7.4
      vertex 92.3800600208737 25.826284287026162 7.4
      vertex 87.40192378864668 25.5 7.4
    endloop
  endfacet
  facet normal 0 0 1
    outer loop
      vertex 91.82628428702616 26.380060020873707 7.4
      vertex 87.87867965644035 26.121320343559642 7.4
      vertex 92.12132034355965 26.121320343559642 7.4
    endloop
  endfacet
  facet normal 0 0 1
    outer loop
      vertex 92.12132034355965 26.121320343559642 7.4
      vertex 87.87867965644035 26.121320343559642 7.4
      vertex 92.3800600208737 25.826284287026162 7.4
    endloop
  endfacet
  facet normal 0 0 1
    outer loop
      vertex 91.5 26.598076211353316 7.4
      vertex 88.17371571297384 26.380060020873707 7.4
      vertex 91.82628428702616 26.380060020873707 7.4
    endloop
  endfacet
  facet normal 0 0 1
    outer loop
      vertex 91.14805029709527 26.771638597533858 7.4
      vertex 88.5 26.598076211353316 7.4
      vertex 91.5 26.598076211353316 7.4
    endloop
  endfacet
  facet normal 0 0 -1
    outer loop
      vertex 116.5 25.5 5.4
      vertex 114.40192378864668 25.5 5.4
      vertex 114.6199399791263 25.826284287026162 5.4
    endloop
  endfacet
  facet normal 0 0 -1
    outer loop
      vertex 116.5 25.5 5.4
      vertex 114.6199399791263 25.826284287026162 5.4
      vertex 114.87867965644035 26.121320343559642 5.4
    endloop
  endfacet
  facet normal 0 0 -1
    outer loop
      vertex 116.5 25.5 5.4
      vertex 114.87867965644035 26.121320343559642 5.4
      vertex 115.17371571297384 26.380060020873707 5.4
    endloop
  endfacet
  facet normal 0 0 -1
    outer loop
      vertex 116.5 25.5 5.4
      vertex 115.17371571297384 26.380060020873707 5.4
      vertex 115.5 26.598076211353316 5.4
    endloop
  endfacet
  facet normal 0 0 -1
    outer loop
      vertex 116.5 25.5 5.4
      vertex 115.5 26.598076211353316 5.4
      vertex 115.85194970290473 26.771638597533858 5.4
    endloop
  endfacet
  facet normal 0 0 -1
    outer loop
      vertex 116.5 25.5 5.4
      vertex 115.85194970290473 26.771638597533858 5.4
      vertex 116.22354286469243 26.897777478867205 5.4
    endloop
  endfacet
  facet normal 0 0 -1
    outer loop
      vertex 116.5 25.5 5.4
      vertex 116.22354286469243 26.897777478867205 5.4
      vertex 116.5 26.952768222130228 5.4
    endloop
  endfacet
  facet normal 1 0 0
    outer loop
      vertex 116.5 25.5 5.4
      vertex 116.5 26.952768222130228 5.4
      vertex 116.5 25.5 7.3
    endloop
  endfacet
  facet normal 0 -1 0
    outer loop
      vertex 116.5 25.5 5.4
      vertex 114.40192378864668 25.5 7.4
      vertex 114.40192378864668 25.5 5.4
    endloop
  endfacet
  facet normal 0 -1 0
    outer loop
      vertex 116.5 25.5 5.4
      vertex 116.5 25.5 7.3
      vertex 114.40192378864668 25.5 7.4
    endloop
  endfacet
  facet normal 1 0 0
    outer loop
      vertex 116.5 25.5 7.3
      vertex 116.5 26.952768222130228 5.4
      vertex 116.5 25.5 7.4
    endloop
  endfacet
  facet normal 1 0 0
    outer loop
      vertex 116.5 25.5 7.4
      vertex 116.5 26.952768222130228 5.4
      vertex 116.5 26.952768222130228 7.4
    endloop
  endfacet
  facet normal 0 -1 0
    outer loop
      vertex 116.5 25.5 7.3
      vertex 116.5 25.5 7.4
      vertex 114.40192378864668 25.5 7.4
    endloop
  endfacet
  facet normal 0 0 -1
    outer loop
      vertex 114.4047161962642 48.778370599535144 5.4
      vertex 114.365701657175 49.619281132328545 5.4
      vertex 114.4103686598942 48.777246254612976 5.4
    endloop
  endfacet
  facet normal 0 0 -1
    outer loop
      vertex 113.85 49.008141571295795 5.4
      vertex 113.59984871327994 49.17528731733016 5.4
      vertex 114.02921710799271 50.25753374863797 5.4
    endloop
  endfacet
  facet normal 0 0 -1
    outer loop
      vertex 113.37365440327095 49.37365440327094 5.4
      vertex 113.17528731733016 49.59984871327994 5.4
      vertex 114.02921710799271 50.25753374863797 5.4
    endloop
  endfacet
  facet normal 0 0 -1
    outer loop
      vertex 113.17528731733016 49.59984871327994 5.4
      vertex 113.0081415712958 49.85 5.4
      vertex 114.02921710799271 50.25753374863797 5.4
    endloop
  endfacet
  facet normal 0 0 -1
    outer loop
      vertex 113.37365440327095 49.37365440327094 5.4
      vertex 114.02921710799271 50.25753374863797 5.4
      vertex 113.59984871327994 49.17528731733016 5.4
    endloop
  endfacet
  facet normal 0 0 -1
    outer loop
      vertex 112.87507707522404 50.119828105560295 5.4
      vertex 112.77837059953514 50.404716196264204 5.4
      vertex 113.70489182804762 51.22206445116284 5.4
    endloop
  endfacet
  facet normal 0 0 -1
    outer loop
      vertex 112.77837059953514 50.404716196264204 5.4
      vertex 112.71967681884024 50.69978975789388 5.4
      vertex 113.70489182804762 51.22206445116284 5.4
    endloop
  endfacet
  facet normal 0 0 -1
    outer loop
      vertex 113.0081415712958 49.85 5.4
      vertex 112.87507707522404 50.119828105560295 5.4
      vertex 113.85 50.3279959863686 5.4
    endloop
  endfacet
  facet normal 0 0 -1
    outer loop
      vertex 113.85 50.3279959863686 5.4
      vertex 112.87507707522404 50.119828105560295 5.4
      vertex 113.85 50.513370395273796 5.4
    endloop
  endfacet
  facet normal 0 0 -1
    outer loop
      vertex 113.0081415712958 49.85 5.4
      vertex 113.85 50.3279959863686 5.4
      vertex 114.02921710799271 50.25753374863797 5.4
    endloop
  endfacet
  facet normal 0 0 -1
    outer loop
      vertex 112.87507707522404 50.119828105560295 5.4
      vertex 113.74409006209395 50.624014968229375 5.4
      vertex 113.85 50.513370395273796 5.4
    endloop
  endfacet
  facet normal 0 0 -1
    outer loop
      vertex 112.87507707522404 50.119828105560295 5.4
      vertex 113.70489182804762 51.22206445116284 5.4
      vertex 113.74409006209395 50.624014968229375 5.4
    endloop
  endfacet
  facet normal 0 0 -1
    outer loop
      vertex 112.71967681884024 50.69978975789388 5.4
      vertex 112.7 51 5.4
      vertex 113.85 51.432008333050284 5.4
    endloop
  endfacet
  facet normal 0 0 -1
    outer loop
      vertex 112.7 51 5.4
      vertex 112.71967681884024 51.30021024210612 5.4
      vertex 113.93252566871003 51.73276003558658 5.4
    endloop
  endfacet
  facet normal 0 0 -1
    outer loop
      vertex 112.71967681884024 51.30021024210612 5.4
      vertex 112.77837059953514 51.595283803735796 5.4
      vertex 113.93252566871003 51.73276003558658 5.4
    endloop
  endfacet
  facet normal 0 0 -1
    outer loop
      vertex 113.85 51.337422969717345 5.4
      vertex 113.70489182804762 51.22206445116284 5.4
      vertex 112.71967681884024 50.69978975789388 5.4
    endloop
  endfacet
  facet normal 0 0 -1
    outer loop
      vertex 113.85 51.337422969717345 5.4
      vertex 112.71967681884024 50.69978975789388 5.4
      vertex 113.85 51.432008333050284 5.4
    endloop
  endfacet
  facet normal 0 0 -1
    outer loop
      vertex 113.85 51.432008333050284 5.4
      vertex 112.7 51 5.4
      vertex 113.93252566871003 51.73276003558658 5.4
    endloop
  endfacet
  facet normal 0 0 -1
    outer loop
      vertex 112.77837059953514 51.595283803735796 5.4
      vertex 112.87507707522404 51.880171894439705 5.4
      vertex 113.93252566871003 51.73276003558658 5.4
    endloop
  endfacet
  facet normal 0 0 -1
    outer loop
      vertex 113.17528731733016 52.40015128672006 5.4
      vertex 113.37365440327095 52.21204700442022 5.4
      vertex 113.0081415712958 52.15 5.4
    endloop
  endfacet
  facet normal 0 0 -1
    outer loop
      vertex 112.87507707522404 51.880171894439705 5.4
      vertex 113.0081415712958 52.15 5.4
      vertex 114.14355637313345 51.84865818855205 5.4
    endloop
  endfacet
  facet normal 0 0 -1
    outer loop
      vertex 113.93252566871003 51.73276003558658 5.4
      vertex 112.87507707522404 51.880171894439705 5.4
      vertex 114.14355637313345 51.84865818855205 5.4
    endloop
  endfacet
  facet normal 0 0 -1
    outer loop
      vertex 114.15923995152795 51.85534056859702 5.4
      vertex 114.14355637313345 51.84865818855205 5.4
      vertex 113.0081415712958 52.15 5.4
    endloop
  endfacet
  facet normal 0 0 -1
    outer loop
      vertex 114.22269594920823 51.91098998499836 5.4
      vertex 114.15923995152795 51.85534056859702 5.4
      vertex 113.0081415712958 52.15 5.4
    endloop
  endfacet
  facet normal 0 0 -1
    outer loop
      vertex 114.22269594920823 51.91098998499836 5.4
      vertex 113.0081415712958 52.15 5.4
      vertex 114.2191599929455 51.95271744451058 5.4
    endloop
  endfacet
  facet normal 0 0 -1
    outer loop
      vertex 114.26996536248235 51.95234411756246 5.4
      vertex 114.2191599929455 51.95271744451058 5.4
      vertex 113.0081415712958 52.15 5.4
    endloop
  endfacet
  facet normal 0 0 -1
    outer loop
      vertex 113.37365440327095 52.21204700442022 5.4
      vertex 114.91630031062141 52.2006199976991 5.4
      vertex 113.0081415712958 52.15 5.4
    endloop
  endfacet
  facet normal 0 0 -1
    outer loop
      vertex 114.11982810556029 48.87507707522404 5.4
      vertex 114.14076161275314 50.00102092904116 5.4
      vertex 114.16833655837694 48.85861067432456 5.4
    endloop
  endfacet
  facet normal 0 0 -1
    outer loop
      vertex 114.53275033849765 49.89530429322445 5.4
      vertex 114.4103686598942 48.777246254612976 5.4
      vertex 114.365701657175 49.619281132328545 5.4
    endloop
  endfacet
  facet normal 0 0 -1
    outer loop
      vertex 114.22269594920823 50.08901001500164 5.4
      vertex 114.16833655837694 48.85861067432456 5.4
      vertex 114.14076161275314 50.00102092904116 5.4
    endloop
  endfacet
  facet normal 0 0 -1
    outer loop
      vertex 114.53275033849765 49.89530429322445 5.4
      vertex 114.365701657175 49.619281132328545 5.4
      vertex 114.40051676135684 49.9605146769592 5.4
    endloop
  endfacet
  facet normal 0 0 -1
    outer loop
      vertex 114.22269594920823 50.08901001500164 5.4
      vertex 114.14076161275314 50.00102092904116 5.4
      vertex 114.15923995152795 50.14465943140298 5.4
    endloop
  endfacet
  facet normal 0 0 -1
    outer loop
      vertex 116.15 49.008141571295795 5.4
      vertex 116.15 50.51462716666765 5.4
      vertex 116.26461418833723 51.24318383303442 5.4
    endloop
  endfacet
  facet normal 0 0 -1
    outer loop
      vertex 116.15 49.008141571295795 5.4
      vertex 116.42245065093759 52.48449013018752 5.4
      vertex 116.40015128672006 49.17528731733016 5.4
    endloop
  endfacet
  facet normal 0 0 -1
    outer loop
      vertex 113.94351985605599 51.565021150978716 5.4
      vertex 113.85 51.432008333050284 5.4
      vertex 113.93252566871003 51.73276003558658 5.4
    endloop
  endfacet
  facet normal 0 0 -1
    outer loop
      vertex 114.14372306607841 51.83969232845437 5.4
      vertex 114.11982810556029 51.812445348031915 5.4
      vertex 113.93252566871003 51.73276003558658 5.4
    endloop
  endfacet
  facet normal 0 0 -1
    outer loop
      vertex 114.14372306607841 51.83969232845437 5.4
      vertex 113.93252566871003 51.73276003558658 5.4
      vertex 114.14355637313345 51.84865818855205 5.4
    endloop
  endfacet
  facet normal 0 0 -1
    outer loop
      vertex 114.26996536248235 51.95234411756246 5.4
      vertex 113.0081415712958 52.15 5.4
      vertex 114.3925559999576 52.03425656273232 5.4
    endloop
  endfacet
  facet normal 0 0 -1
    outer loop
      vertex 114.3925559999576 52.03425656273232 5.4
      vertex 113.0081415712958 52.15 5.4
      vertex 114.39128707984086 52.039331102285686 5.4
    endloop
  endfacet
  facet normal 0 0 -1
    outer loop
      vertex 114.46264327222279 52.07012272770963 5.4
      vertex 114.39128707984086 52.039331102285686 5.4
      vertex 113.0081415712958 52.15 5.4
    endloop
  endfacet
  facet normal 0 0 -1
    outer loop
      vertex 114.53275033849765 52.10469570677555 5.4
      vertex 114.46264327222279 52.07012272770963 5.4
      vertex 113.0081415712958 52.15 5.4
    endloop
  endfacet
  facet normal 0 0 -1
    outer loop
      vertex 114.53275033849765 52.10469570677555 5.4
      vertex 113.0081415712958 52.15 5.4
      vertex 114.5322869191525 52.10873844625014 5.4
    endloop
  endfacet
  facet normal 0 0 -1
    outer loop
      vertex 114.60954597202145 52.131998381421205 5.4
      vertex 114.5322869191525 52.10873844625014 5.4
      vertex 113.0081415712958 52.15 5.4
    endloop
  endfacet
  facet normal 0 0 -1
    outer loop
      vertex 114.60954597202145 52.131998381421205 5.4
      vertex 113.0081415712958 52.15 5.4
      vertex 114.68941714587697 52.15911099154688 5.4
    endloop
  endfacet
  facet normal 0 0 -1
    outer loop
      vertex 114.84336856933594 52.189733833648575 5.4
      vertex 114.68941714587697 52.15911099154688 5.4
      vertex 113.0081415712958 52.15 5.4
    endloop
  endfacet
  facet normal 0 0 -1
    outer loop
      vertex 114.84336856933594 52.189733833648575 5.4
      vertex 113.0081415712958 52.15 5.4
      vertex 114.91630031062141 52.2006199976991 5.4
    endloop
  endfacet
  facet normal 0 0 -1
    outer loop
      vertex 114.91583311053397 52.19448341061001 5.4
      vertex 114.84336856933594 52.189733833648575 5.4
      vertex 114.91630031062141 52.2006199976991 5.4
    endloop
  endfacet
  facet normal 0 0 -1
    outer loop
      vertex 116.15 49.008141571295795 5.4
      vertex 116.26461418833723 51.24318383303442 5.4
      vertex 116.42245065093759 52.48449013018752 5.4
    endloop
  endfacet
  facet normal 0 0 -1
    outer loop
      vertex 115.08249082827236 52.21649816565447 5.4
      vertex 116.42245065093759 52.48449013018752 5.4
      vertex 115.15663143066406 52.189733833648575 5.4
    endloop
  endfacet
  facet normal 0 0 -1
    outer loop
      vertex 115.24133811283306 52.20929780003936 5.4
      vertex 115.15663143066406 52.189733833648575 5.4
      vertex 116.42245065093759 52.48449013018752 5.4
    endloop
  endfacet
  facet normal 0 -1 0
    outer loop
      vertex 116.5 25.5 7.4
      vertex 114.40192378864668 25.5 8
      vertex 114.40192378864668 25.5 7.4
    endloop
  endfacet
  facet normal 1 0 0
    outer loop
      vertex 116.5 25.5 7.4
      vertex 116.5 26.952768222130228 7.4
      vertex 116.5 25.5 8
    endloop
  endfacet
  facet normal 0 -1 0
    outer loop
      vertex 116.5 25.5 7.4
      vertex 116.5 25.5 8
      vertex 114.40192378864668 25.5 8
    endloop
  endfacet
  facet normal 1 0 0
    outer loop
      vertex 116.5 25.5 8
      vertex 116.5 26.952768222130228 7.4
      vertex 116.5 26.952768222130228 8
    endloop
  endfacet
  facet normal 0 0 1
    outer loop
      vertex 116.5 25.5 8
      vertex 114.6199399791263 25.826284287026162 8
      vertex 114.40192378864668 25.5 8
    endloop
  endfacet
  facet normal 0 0 1
    outer loop
      vertex 116.5 25.5 8
      vertex 114.87867965644035 26.121320343559642 8
      vertex 114.6199399791263 25.826284287026162 8
    endloop
  endfacet
  facet normal 0 0 1
    outer loop
      vertex 116.5 25.5 8
      vertex 115.17371571297384 26.380060020873707 8
      vertex 114.87867965644035 26.121320343559642 8
    endloop
  endfacet
  facet normal 0 0 1
    outer loop
      vertex 116.5 25.5 8
      vertex 115.5 26.598076211353316 8
      vertex 115.17371571297384 26.380060020873707 8
    endloop
  endfacet
  facet normal 0 0 1
    outer loop
      vertex 116.5 25.5 8
      vertex 115.85194970290473 26.771638597533858 8
      vertex 115.5 26.598076211353316 8
    endloop
  endfacet
  facet normal 0 0 1
    outer loop
      vertex 116.5 25.5 8
      vertex 116.22354286469243 26.897777478867205 8
      vertex 115.85194970290473 26.771638597533858 8
    endloop
  endfacet
  facet normal 0 0 1
    outer loop
      vertex 116.5 25.5 8
      vertex 116.5 26.952768222130228 8
      vertex 116.22354286469243 26.897777478867205 8
    endloop
  endfacet
endsolid OpenSCAD_Model
