solid OpenSCAD_Model
  facet normal -0.6593458151000646 -0.7518398074789812 0
    outer loop
      vertex 96.70861014228866 26.468640657621393 12.5
      vertex 96.58076118445749 26.580761184457486 17.5
      vertex 96.58076118445749 26.580761184457486 12.5
    endloop
  endfacet
  facet normal -0.5555702330196138 -0.8314696123025374 0
    outer loop
      vertex 96.85 26.37416697508023 12.5
      vertex 96.70861014228866 26.468640657621393 17.5
      vertex 96.70861014228866 26.468640657621393 12.5
    endloop
  endfacet
  facet normal -0.6593458151000646 -0.7518398074789812 0
    outer loop
      vertex 96.70861014228866 26.468640657621393 12.5
      vertex 96.70861014228866 26.468640657621393 17.5
      vertex 96.58076118445749 26.580761184457486 17.5
    endloop
  endfacet
  facet normal -0.5555702330196138 -0.8314696123025374 0
    outer loop
      vertex 96.85 26.37416697508023 12.5
      vertex 96.85 26.37416697508023 17.5
      vertex 96.70861014228866 26.468640657621393 17.5
    endloop
  endfacet
  facet normal -0.7518398074789812 -0.6593458151000646 0
    outer loop
      vertex 96.58076118445749 26.580761184457486 12.5
      vertex 96.46864065762139 26.708610142288663 17.5
      vertex 96.46864065762139 26.708610142288663 12.5
    endloop
  endfacet
  facet normal -0.8314696123025503 -0.5555702330195946 0
    outer loop
      vertex 96.46864065762139 26.708610142288663 12.5
      vertex 96.37416697508023 26.85 17.5
      vertex 96.37416697508023 26.85 12.5
    endloop
  endfacet
  facet normal -0.8968727415326628 -0.44228869021905287 0
    outer loop
      vertex 96.37416697508023 26.85 12.5
      vertex 96.30019516117552 27 17.5
      vertex 96.30019516117552 27 12.5
    endloop
  endfacet
  facet normal -0.8314696123025503 -0.5555702330195946 0
    outer loop
      vertex 96.46864065762139 26.708610142288663 12.5
      vertex 96.46864065762139 26.708610142288663 17.5
      vertex 96.37416697508023 26.85 17.5
    endloop
  endfacet
  facet normal -0.7518398074789812 -0.6593458151000646 0
    outer loop
      vertex 96.58076118445749 26.580761184457486 12.5
      vertex 96.58076118445749 26.580761184457486 17.5
      vertex 96.46864065762139 26.708610142288663 17.5
    endloop
  endfacet
  facet normal -0.8968727415326628 -0.44228869021905287 0
    outer loop
      vertex 96.37416697508023 26.85 12.5
      vertex 96.37416697508023 26.85 17.5
      vertex 96.30019516117552 27 17.5
    endloop
  endfacet
  facet normal -0.44228869021897593 -0.8968727415327009 0
    outer loop
      vertex 97.00251153792539 26.298956607735327 12.5
      vertex 96.85 26.37416697508023 17.5
      vertex 96.85 26.37416697508023 12.5
    endloop
  endfacet
  facet normal -0.32143946530318623 -0.9469301294950974 0
    outer loop
      vertex 97.16353524136672 26.24429642582421 12.5
      vertex 97.00251153792539 26.298956607735327 17.5
      vertex 97.00251153792539 26.298956607735327 12.5
    endloop
  endfacet
  facet normal -0.19509032201612544 -0.980785280403231 0
    outer loop
      vertex 97.33031595011393 26.211121680214045 12.5
      vertex 97.16353524136672 26.24429642582421 17.5
      vertex 97.16353524136672 26.24429642582421 12.5
    endloop
  endfacet
  facet normal -0.06540312923013912 -0.9978589232386038 0
    outer loop
      vertex 97.5 26.2 12.5
      vertex 97.33031595011393 26.211121680214045 17.5
      vertex 97.33031595011393 26.211121680214045 12.5
    endloop
  endfacet
  facet normal -0.44228869021897593 -0.8968727415327009 0
    outer loop
      vertex 97.00251153792539 26.298956607735327 12.5
      vertex 97.00251153792539 26.298956607735327 17.5
      vertex 96.85 26.37416697508023 17.5
    endloop
  endfacet
  facet normal -0.32143946530318623 -0.9469301294950974 0
    outer loop
      vertex 97.16353524136672 26.24429642582421 12.5
      vertex 97.16353524136672 26.24429642582421 17.5
      vertex 97.00251153792539 26.298956607735327 17.5
    endloop
  endfacet
  facet normal -0.19509032201612544 -0.980785280403231 0
    outer loop
      vertex 97.33031595011393 26.211121680214045 12.5
      vertex 97.33031595011393 26.211121680214045 17.5
      vertex 97.16353524136672 26.24429642582421 17.5
    endloop
  endfacet
  facet normal -0.06540312923013912 -0.9978589232386038 0
    outer loop
      vertex 97.5 26.2 12.5
      vertex 97.5 26.2 17.5
      vertex 97.33031595011393 26.211121680214045 17.5
    endloop
  endfacet
  facet normal 0 0 1
    outer loop
      vertex 96.89895923599144 26.898959235991434 13
      vertex 96.98255278534259 26.82564966075245 13
      vertex 96.81399180462716 27 13
    endloop
  endfacet
  facet normal 0 0 1
    outer loop
      vertex 96.89895923599144 26.898959235991434 13
      vertex 96.81399180462716 27 13
      vertex 96.82564966075245 26.982552785342587 13
    endloop
  endfacet
  facet normal 0.8314696123023969 0.5555702330198242 0
    outer loop
      vertex 96.82564966075245 26.982552785342587 13
      vertex 96.81399180462716 27 13
      vertex 96.81399180462716 27 17.5
    endloop
  endfacet
  facet normal 0.7518398074789362 0.6593458151001158 0
    outer loop
      vertex 96.89895923599144 26.898959235991434 13
      vertex 96.82564966075245 26.982552785342587 13
      vertex 96.89895923599144 26.898959235991434 17.5
    endloop
  endfacet
  facet normal 0.8314696123023969 0.5555702330198242 0
    outer loop
      vertex 96.82564966075245 26.982552785342587 13
      vertex 96.81399180462716 27 17.5
      vertex 96.82564966075245 26.982552785342587 17.5
    endloop
  endfacet
  facet normal 0.7518398074789362 0.6593458151001158 0
    outer loop
      vertex 96.82564966075245 26.982552785342587 13
      vertex 96.82564966075245 26.982552785342587 17.5
      vertex 96.89895923599144 26.898959235991434 17.5
    endloop
  endfacet
  facet normal 0 0 1
    outer loop
      vertex 97.17471908248967 26.714702397365407 13
      vertex 97.28000381166285 26.678963047654292 13
      vertex 96.81399180462716 27 13
    endloop
  endfacet
  facet normal 0 0 1
    outer loop
      vertex 97.28000381166285 26.678963047654292 13
      vertex 97.38905273661295 26.65727186783226 13
      vertex 96.81399180462716 27 13
    endloop
  endfacet
  facet normal 0.5555702330196043 0.8314696123025439 0
    outer loop
      vertex 97.075 26.763878406783228 13
      vertex 96.98255278534259 26.82564966075245 13
      vertex 97.075 26.763878406783228 17.5
    endloop
  endfacet
  facet normal 0.4422886902190091 0.8968727415326846 0
    outer loop
      vertex 97.075 26.763878406783228 13
      vertex 97.17471908248967 26.714702397365407 17.5
      vertex 97.17471908248967 26.714702397365407 13
    endloop
  endfacet
  facet normal 0 0 1
    outer loop
      vertex 97.075 26.763878406783228 13
      vertex 96.81399180462716 27 13
      vertex 96.98255278534259 26.82564966075245 13
    endloop
  endfacet
  facet normal 0 0 1
    outer loop
      vertex 97.075 26.763878406783228 13
      vertex 97.17471908248967 26.714702397365407 13
      vertex 96.81399180462716 27 13
    endloop
  endfacet
  facet normal 0.6593458151000775 0.75183980747897 0
    outer loop
      vertex 96.89895923599144 26.898959235991434 13
      vertex 96.98255278534259 26.82564966075245 17.5
      vertex 96.98255278534259 26.82564966075245 13
    endloop
  endfacet
  facet normal 0 0 1
    outer loop
      vertex 97.38905273661295 26.65727186783226 13
      vertex 97.5 26.65 13
      vertex 97.5 27 13
    endloop
  endfacet
  facet normal 0.32143946530318035 0.9469301294950994 0
    outer loop
      vertex 97.17471908248967 26.714702397365407 13
      vertex 97.28000381166285 26.678963047654292 17.5
      vertex 97.28000381166285 26.678963047654292 13
    endloop
  endfacet
  facet normal 0.19509032201612994 0.98078528040323 0
    outer loop
      vertex 97.28000381166285 26.678963047654292 13
      vertex 97.38905273661295 26.65727186783226 17.5
      vertex 97.38905273661295 26.65727186783226 13
    endloop
  endfacet
  facet normal 0.06540312923015168 0.9978589232386029 0
    outer loop
      vertex 97.38905273661295 26.65727186783226 13
      vertex 97.5 26.65 17.5
      vertex 97.5 26.65 13
    endloop
  endfacet
  facet normal 0 0 1
    outer loop
      vertex 97.38905273661295 26.65727186783226 13
      vertex 97.5 27 13
      vertex 96.81399180462716 27 13
    endloop
  endfacet
  facet normal 0.4422886902190091 0.8968727415326846 0
    outer loop
      vertex 97.075 26.763878406783228 13
      vertex 97.075 26.763878406783228 17.5
      vertex 97.17471908248967 26.714702397365407 17.5
    endloop
  endfacet
  facet normal 0.6593458151000775 0.75183980747897 0
    outer loop
      vertex 96.89895923599144 26.898959235991434 13
      vertex 96.89895923599144 26.898959235991434 17.5
      vertex 96.98255278534259 26.82564966075245 17.5
    endloop
  endfacet
  facet normal 0.5555702330196043 0.8314696123025439 0
    outer loop
      vertex 96.98255278534259 26.82564966075245 13
      vertex 96.98255278534259 26.82564966075245 17.5
      vertex 97.075 26.763878406783228 17.5
    endloop
  endfacet
  facet normal 0.19509032201612994 0.98078528040323 0
    outer loop
      vertex 97.28000381166285 26.678963047654292 13
      vertex 97.28000381166285 26.678963047654292 17.5
      vertex 97.38905273661295 26.65727186783226 17.5
    endloop
  endfacet
  facet normal 0.32143946530318035 0.9469301294950994 0
    outer loop
      vertex 97.17471908248967 26.714702397365407 13
      vertex 97.17471908248967 26.714702397365407 17.5
      vertex 97.28000381166285 26.678963047654292 17.5
    endloop
  endfacet
  facet normal 0.06540312923015168 0.9978589232386029 0
    outer loop
      vertex 97.38905273661295 26.65727186783226 13
      vertex 97.38905273661295 26.65727186783226 17.5
      vertex 97.5 26.65 17.5
    endloop
  endfacet
  facet normal 0 0 1
    outer loop
      vertex 96.70861014228866 26.468640657621393 17.5
      vertex 96.85 26.37416697508023 17.5
      vertex 97.075 26.763878406783228 17.5
    endloop
  endfacet
  facet normal 0 0 -1
    outer loop
      vertex 97.5 27 12.5
      vertex 96.58076118445749 26.580761184457486 12.5
      vertex 96.46864065762139 26.708610142288663 12.5
    endloop
  endfacet
  facet normal 0 0 -1
    outer loop
      vertex 97.5 27 12.5
      vertex 96.37416697508023 26.85 12.5
      vertex 96.30019516117552 27 12.5
    endloop
  endfacet
  facet normal 0 0 -1
    outer loop
      vertex 97.5 27 12.5
      vertex 96.46864065762139 26.708610142288663 12.5
      vertex 96.37416697508023 26.85 12.5
    endloop
  endfacet
  facet normal 0 1 0
    outer loop
      vertex 97.5 27 12.5
      vertex 96.30019516117552 27 12.5
      vertex 96.81399180462716 27 13
    endloop
  endfacet
  facet normal 0 1 0
    outer loop
      vertex 96.81399180462716 27 13
      vertex 96.30019516117552 27 12.5
      vertex 96.81399180462716 27 17.5
    endloop
  endfacet
  facet normal 0 1 0
    outer loop
      vertex 96.81399180462716 27 17.5
      vertex 96.30019516117552 27 12.5
      vertex 96.30019516117552 27 17.5
    endloop
  endfacet
  facet normal 0 0 1
    outer loop
      vertex 96.37416697508023 26.85 17.5
      vertex 96.46864065762139 26.708610142288663 17.5
      vertex 96.82564966075245 26.982552785342587 17.5
    endloop
  endfacet
  facet normal 0 0 1
    outer loop
      vertex 96.30019516117552 27 17.5
      vertex 96.37416697508023 26.85 17.5
      vertex 96.81399180462716 27 17.5
    endloop
  endfacet
  facet normal 0 0 1
    outer loop
      vertex 96.46864065762139 26.708610142288663 17.5
      vertex 96.58076118445749 26.580761184457486 17.5
      vertex 96.89895923599144 26.898959235991434 17.5
    endloop
  endfacet
  facet normal 0 0 1
    outer loop
      vertex 96.58076118445749 26.580761184457486 17.5
      vertex 96.70861014228866 26.468640657621393 17.5
      vertex 96.98255278534259 26.82564966075245 17.5
    endloop
  endfacet
  facet normal 0 0 1
    outer loop
      vertex 96.58076118445749 26.580761184457486 17.5
      vertex 96.98255278534259 26.82564966075245 17.5
      vertex 96.89895923599144 26.898959235991434 17.5
    endloop
  endfacet
  facet normal 0 0 1
    outer loop
      vertex 96.46864065762139 26.708610142288663 17.5
      vertex 96.89895923599144 26.898959235991434 17.5
      vertex 96.82564966075245 26.982552785342587 17.5
    endloop
  endfacet
  facet normal 0 0 1
    outer loop
      vertex 96.37416697508023 26.85 17.5
      vertex 96.82564966075245 26.982552785342587 17.5
      vertex 96.81399180462716 27 17.5
    endloop
  endfacet
  facet normal 0 0 -1
    outer loop
      vertex 97.5 27 12.5
      vertex 97.00251153792539 26.298956607735327 12.5
      vertex 96.85 26.37416697508023 12.5
    endloop
  endfacet
  facet normal 0 0 -1
    outer loop
      vertex 97.5 27 12.5
      vertex 97.33031595011393 26.211121680214045 12.5
      vertex 97.16353524136672 26.24429642582421 12.5
    endloop
  endfacet
  facet normal 0 0 -1
    outer loop
      vertex 97.5 27 12.5
      vertex 97.16353524136672 26.24429642582421 12.5
      vertex 97.00251153792539 26.298956607735327 12.5
    endloop
  endfacet
  facet normal 0 0 -1
    outer loop
      vertex 97.5 27 12.5
      vertex 97.5 26.2 12.5
      vertex 97.33031595011393 26.211121680214045 12.5
    endloop
  endfacet
  facet normal 1 0 0
    outer loop
      vertex 97.5 26.65 13
      vertex 97.5 26.65 17.5
      vertex 97.5 26.2 12.5
    endloop
  endfacet
  facet normal 0 0 1
    outer loop
      vertex 96.85 26.37416697508023 17.5
      vertex 97.00251153792539 26.298956607735327 17.5
      vertex 97.17471908248967 26.714702397365407 17.5
    endloop
  endfacet
  facet normal 0 0 1
    outer loop
      vertex 97.00251153792539 26.298956607735327 17.5
      vertex 97.16353524136672 26.24429642582421 17.5
      vertex 97.28000381166285 26.678963047654292 17.5
    endloop
  endfacet
  facet normal 0 0 1
    outer loop
      vertex 97.00251153792539 26.298956607735327 17.5
      vertex 97.28000381166285 26.678963047654292 17.5
      vertex 97.17471908248967 26.714702397365407 17.5
    endloop
  endfacet
  facet normal 1 0 0
    outer loop
      vertex 97.5 26.2 17.5
      vertex 97.5 26.2 12.5
      vertex 97.5 26.65 17.5
    endloop
  endfacet
  facet normal 0 0 1
    outer loop
      vertex 97.16353524136672 26.24429642582421 17.5
      vertex 97.33031595011393 26.211121680214045 17.5
      vertex 97.38905273661295 26.65727186783226 17.5
    endloop
  endfacet
  facet normal 0 0 1
    outer loop
      vertex 97.33031595011393 26.211121680214045 17.5
      vertex 97.5 26.2 17.5
      vertex 97.5 26.65 17.5
    endloop
  endfacet
  facet normal 0 0 1
    outer loop
      vertex 97.16353524136672 26.24429642582421 17.5
      vertex 97.38905273661295 26.65727186783226 17.5
      vertex 97.28000381166285 26.678963047654292 17.5
    endloop
  endfacet
  facet normal 0 0 1
    outer loop
      vertex 97.33031595011393 26.211121680214045 17.5
      vertex 97.5 26.65 17.5
      vertex 97.38905273661295 26.65727186783226 17.5
    endloop
  endfacet
  facet normal 0 0 -1
    outer loop
      vertex 97.5 27 12.5
      vertex 96.70861014228866 26.468640657621393 12.5
      vertex 96.58076118445749 26.580761184457486 12.5
    endloop
  endfacet
  facet normal 0 0 -1
    outer loop
      vertex 97.5 27 12.5
      vertex 96.85 26.37416697508023 12.5
      vertex 96.70861014228866 26.468640657621393 12.5
    endloop
  endfacet
  facet normal 1 0 0
    outer loop
      vertex 97.5 27 12.5
      vertex 97.5 26.65 13
      vertex 97.5 26.2 12.5
    endloop
  endfacet
  facet normal 0 1 0
    outer loop
      vertex 97.5 27 12.5
      vertex 96.81399180462716 27 13
      vertex 97.5 27 13
    endloop
  endfacet
  facet normal 1 0 0
    outer loop
      vertex 97.5 27 12.5
      vertex 97.5 27 13
      vertex 97.5 26.65 13
    endloop
  endfacet
  facet normal 0 0 1
    outer loop
      vertex 96.70861014228866 26.468640657621393 17.5
      vertex 97.075 26.763878406783228 17.5
      vertex 96.98255278534259 26.82564966075245 17.5
    endloop
  endfacet
  facet normal 0 0 1
    outer loop
      vertex 96.85 26.37416697508023 17.5
      vertex 97.17471908248967 26.714702397365407 17.5
      vertex 97.075 26.763878406783228 17.5
    endloop
  endfacet
endsolid OpenSCAD_Model
