solid OpenSCAD_Model
  facet normal 0 -1 0
    outer loop
      vertex 77.52138784656547 53 29.17368451944987
      vertex 78.8 53 29.5
      vertex 77.5 53 29.5
    endloop
  endfacet
  facet normal 0 -1 0
    outer loop
      vertex 77.69030116872179 53 28.543291419087275
      vertex 78.96076951545868 53 28.9
      vertex 77.58518543427734 53 28.852952387243697
    endloop
  endfacet
  facet normal 0 -1 0
    outer loop
      vertex 77.58518543427734 53 28.852952387243697
      vertex 78.84088900845312 53 29.189417145876973
      vertex 77.52138784656547 53 29.17368451944987
    endloop
  endfacet
  facet normal 0 -1 0
    outer loop
      vertex 77.5 53 29.5
      vertex 78.81026616635143 53 29.656631430664063
      vertex 77.52138784656547 53 29.82631548055013
    endloop
  endfacet
  facet normal 0 -1 0
    outer loop
      vertex 77.52138784656547 53 29.82631548055013
      vertex 78.96076951545868 53 30.1
      vertex 77.58518543427734 53 30.147047612756303
    endloop
  endfacet
  facet normal 0 -1 0
    outer loop
      vertex 77.83493649053891 53 28.25
      vertex 79.26948628518953 53 28.547975991650517
      vertex 77.69030116872179 53 28.543291419087275
    endloop
  endfacet
  facet normal 0 -1 0
    outer loop
      vertex 77.52138784656547 53 29.17368451944987
      vertex 78.81026616635143 53 29.343368569335937
      vertex 78.8 53 29.5
    endloop
  endfacet
  facet normal 0 -1 0
    outer loop
      vertex 77.52138784656547 53 29.17368451944987
      vertex 78.84088900845312 53 29.189417145876973
      vertex 78.81026616635143 53 29.343368569335937
    endloop
  endfacet
  facet normal 0 -1 0
    outer loop
      vertex 77.58518543427734 53 28.852952387243697
      vertex 78.96076951545868 53 28.9
      vertex 78.89134456098645 53 29.040779881161892
    endloop
  endfacet
  facet normal 0 -1 0
    outer loop
      vertex 77.69030116872179 53 28.543291419087275
      vertex 79.15147186257614 53 28.651471862576145
      vertex 79.04797599165052 53 28.769486285189537
    endloop
  endfacet
  facet normal 0 -1 0
    outer loop
      vertex 77.69030116872179 53 28.543291419087275
      vertex 79.26948628518953 53 28.547975991650517
      vertex 79.15147186257614 53 28.651471862576145
    endloop
  endfacet
  facet normal 0 -1 0
    outer loop
      vertex 77.69030116872179 53 30.456708580912725
      vertex 79.1368900425641 53 30.551523024974347
      vertex 77.83493649053891 53 30.75
    endloop
  endfacet
  facet normal 0 -1 0
    outer loop
      vertex 77.5 53 29.5
      vertex 78.8 53 29.5
      vertex 78.81026616635143 53 29.656631430664063
    endloop
  endfacet
  facet normal 0 -1 0
    outer loop
      vertex 77.52138784656547 53 29.82631548055013
      vertex 78.81026616635143 53 29.656631430664063
      vertex 78.84088900845312 53 29.810582854123027
    endloop
  endfacet
  facet normal 0 -1 0
    outer loop
      vertex 77.52138784656547 53 29.82631548055013
      vertex 78.84088900845312 53 29.810582854123027
      vertex 78.89134456098645 53 29.959220118838108
    endloop
  endfacet
  facet normal 0 -1 0
    outer loop
      vertex 77.83493649053891 53 30.75
      vertex 79.11659842355648 53 30.83400456124844
      vertex 78.01661664927191 53 31.0219035725218
    endloop
  endfacet
  facet normal 0 -1 0
    outer loop
      vertex 77.52138784656547 53 29.82631548055013
      vertex 78.89134456098645 53 29.959220118838108
      vertex 78.96076951545868 53 30.1
    endloop
  endfacet
  facet normal 0 -1 0
    outer loop
      vertex 77.58518543427734 53 30.147047612756303
      vertex 78.96076951545868 53 30.1
      vertex 79.04797599165052 53 30.230513714810463
    endloop
  endfacet
  facet normal 0 -1 0
    outer loop
      vertex 77.58518543427734 53 30.147047612756303
      vertex 79.04797599165052 53 30.230513714810463
      vertex 79.15147186257614 53 30.348528137423855
    endloop
  endfacet
  facet normal 0 -1 0
    outer loop
      vertex 77.69030116872179 53 30.456708580912725
      vertex 79.15147186257614 53 30.348528137423855
      vertex 79.1368900425641 53 30.551523024974347
    endloop
  endfacet
  facet normal 0 -1 0
    outer loop
      vertex 77.83493649053891 53 30.75
      vertex 79.1368900425641 53 30.551523024974347
      vertex 79.11659842355648 53 30.83400456124844
    endloop
  endfacet
  facet normal 0 -1 0
    outer loop
      vertex 78.01661664927191 53 31.0219035725218
      vertex 79.09800956502038 53 31.09278180888382
      vertex 78.23223304703363 53 31.26776695296637
    endloop
  endfacet
  facet normal 0 -1 0
    outer loop
      vertex 78.23223304703363 53 31.26776695296637
      vertex 79.08144152747914 53 31.323427017426834
      vertex 78.47809642747819 53 31.483383350728086
    endloop
  endfacet
  facet normal 0 -1 0
    outer loop
      vertex 78.01661664927191 53 31.0219035725218
      vertex 79.11659842355648 53 30.83400456124844
      vertex 79.09800956502038 53 31.09278180888382
    endloop
  endfacet
  facet normal 0 -1 0
    outer loop
      vertex 77.83493649053891 53 28.25
      vertex 79.5407798811619 53 28.391344560986457
      vertex 79.4 53 28.460769515458672
    endloop
  endfacet
  facet normal 0 -1 0
    outer loop
      vertex 77.83493649053891 53 28.25
      vertex 79.68941714587697 53 28.340889008453118
      vertex 79.5407798811619 53 28.391344560986457
    endloop
  endfacet
  facet normal 0 -1 0
    outer loop
      vertex 78.01661664927191 53 27.9780964274782
      vertex 82.16506350946109 53 28.25
      vertex 77.83493649053891 53 28.25
    endloop
  endfacet
  facet normal 0 -1 0
    outer loop
      vertex 77.83493649053891 53 28.25
      vertex 79.84336856933594 53 28.31026616635143
      vertex 79.68941714587697 53 28.340889008453118
    endloop
  endfacet
  facet normal 0 -1 0
    outer loop
      vertex 77.83493649053891 53 28.25
      vertex 80 53 28.3
      vertex 79.84336856933594 53 28.31026616635143
    endloop
  endfacet
  facet normal 0 -1 0
    outer loop
      vertex 78.23223304703363 53 31.26776695296637
      vertex 79.09800956502038 53 31.09278180888382
      vertex 79.08144152747914 53 31.323427017426834
    endloop
  endfacet
  facet normal 0 -1 0
    outer loop
      vertex 78.47809642747819 53 31.483383350728086
      vertex 79.06717779464867 53 31.521993783412377
      vertex 78.75 53 31.665063509461095
    endloop
  endfacet
  facet normal 0 -1 0
    outer loop
      vertex 78.47809642747819 53 31.483383350728086
      vertex 79.06995131464606 53 31.483383350728086
      vertex 79.06717779464867 53 31.521993783412377
    endloop
  endfacet
  facet normal 0 -1 0
    outer loop
      vertex 79.04329141908728 53 31.80969883127822
      vertex 79.04912794349696 53 31.773267458565527
      vertex 79.09188792601184 53 31.794977006160057
    endloop
  endfacet
  facet normal 0 -1 0
    outer loop
      vertex 79.04329141908728 53 31.80969883127822
      vertex 79.09188792601184 53 31.794977006160057
      vertex 79.18228893753673 53 31.79574819750935
    endloop
  endfacet
  facet normal 0 -1 0
    outer loop
      vertex 79.04329141908728 53 31.80969883127822
      vertex 79.18228893753673 53 31.79574819750935
      vertex 79.23050604466466 53 31.80969883127822
    endloop
  endfacet
  facet normal 0 -1 0
    outer loop
      vertex 79.04329141908728 53 31.80969883127822
      vertex 79.23050604466466 53 31.80969883127822
      vertex 79.22869904692462 53 31.872636240173357
    endloop
  endfacet
  facet normal 0 -1 0
    outer loop
      vertex 78.23223304703363 53 27.73223304703363
      vertex 81.98338335072809 53 27.9780964274782
      vertex 78.01661664927191 53 27.9780964274782
    endloop
  endfacet
  facet normal 0 -1 0
    outer loop
      vertex 78.47809642747819 53 27.516616649271914
      vertex 81.76776695296637 53 27.73223304703363
      vertex 78.23223304703363 53 27.73223304703363
    endloop
  endfacet
  facet normal 0 -1 0
    outer loop
      vertex 78.75 53 27.334936490538905
      vertex 81.52190357252181 53 27.516616649271914
      vertex 78.47809642747819 53 27.516616649271914
    endloop
  endfacet
  facet normal 0 -1 0
    outer loop
      vertex 79.04329141908728 53 27.19030116872178
      vertex 81.25 53 27.334936490538905
      vertex 78.75 53 27.334936490538905
    endloop
  endfacet
  facet normal 0 -1 0
    outer loop
      vertex 79.04329141908728 53 27.19030116872178
      vertex 79.3529523872437 53 27.085185434277328
      vertex 80.95670858091272 53 27.19030116872178
    endloop
  endfacet
  facet normal 0 -1 0
    outer loop
      vertex 79.67368451944986 53 27.021387846565474
      vertex 80.6470476127563 53 27.085185434277328
      vertex 79.3529523872437 53 27.085185434277328
    endloop
  endfacet
  facet normal 0 -1 0
    outer loop
      vertex 79.3529523872437 53 31.914814565722672
      vertex 79.38023922724925 53 31.912634775502234
      vertex 79.48329326355996 53 31.91271474084164
    endloop
  endfacet
  facet normal 0 -1 0
    outer loop
      vertex 79.3529523872437 53 31.914814565722672
      vertex 79.48329326355996 53 31.91271474084164
      vertex 79.5425266569108 53 31.914814565722672
    endloop
  endfacet
  facet normal 0 -1 0
    outer loop
      vertex 79.3529523872437 53 31.914814565722672
      vertex 79.5425266569108 53 31.914814565722672
      vertex 79.54257709954818 53 31.952533266160845
    endloop
  endfacet
  facet normal 0 -1 0
    outer loop
      vertex 79.67368451944986 53 27.021387846565474
      vertex 80 53 27
      vertex 80.32631548055014 53 27.021387846565474
    endloop
  endfacet
  facet normal 0 -1 0
    outer loop
      vertex 79.67368451944986 53 27.021387846565474
      vertex 80.32631548055014 53 27.021387846565474
      vertex 80.6470476127563 53 27.085185434277328
    endloop
  endfacet
  facet normal 0 -1 0
    outer loop
      vertex 77.83493649053891 53 28.25
      vertex 82.16506350946109 53 28.25
      vertex 80 53 28.3
    endloop
  endfacet
  facet normal 0 -1 0
    outer loop
      vertex 79.3529523872437 53 27.085185434277328
      vertex 80.6470476127563 53 27.085185434277328
      vertex 80.95670858091272 53 27.19030116872178
    endloop
  endfacet
  facet normal 0 -1 0
    outer loop
      vertex 79.04329141908728 53 27.19030116872178
      vertex 80.95670858091272 53 27.19030116872178
      vertex 81.25 53 27.334936490538905
    endloop
  endfacet
  facet normal 0 -1 0
    outer loop
      vertex 78.75 53 27.334936490538905
      vertex 81.25 53 27.334936490538905
      vertex 81.52190357252181 53 27.516616649271914
    endloop
  endfacet
  facet normal 0 -1 0
    outer loop
      vertex 78.47809642747819 53 27.516616649271914
      vertex 81.52190357252181 53 27.516616649271914
      vertex 81.76776695296637 53 27.73223304703363
    endloop
  endfacet
  facet normal 0 -1 0
    outer loop
      vertex 80.6470476127563 53 31.914814565722672
      vertex 80.45742290045182 53 31.952533266160845
      vertex 80.45748995852638 53 31.90239030066131
    endloop
  endfacet
  facet normal 0 -1 0
    outer loop
      vertex 80.6470476127563 53 31.914814565722672
      vertex 80.45748995852638 53 31.90239030066131
      vertex 80.51631188177248 53 31.903757631803128
    endloop
  endfacet
  facet normal 0 -1 0
    outer loop
      vertex 80.6470476127563 53 31.914814565722672
      vertex 80.51631188177248 53 31.903757631803128
      vertex 80.61972901431743 53 31.910427515231586
    endloop
  endfacet
  facet normal 0 -1 0
    outer loop
      vertex 78.23223304703363 53 27.73223304703363
      vertex 81.76776695296637 53 27.73223304703363
      vertex 81.98338335072809 53 27.9780964274782
    endloop
  endfacet
  facet normal 0 -1 0
    outer loop
      vertex 78.01661664927191 53 27.9780964274782
      vertex 81.98338335072809 53 27.9780964274782
      vertex 82.16506350946109 53 28.25
    endloop
  endfacet
  facet normal 0 -1 0
    outer loop
      vertex 82.16506350946109 53 28.25
      vertex 80.15663143066406 53 28.31026616635143
      vertex 80 53 28.3
    endloop
  endfacet
  facet normal 0 -1 0
    outer loop
      vertex 82.16506350946109 53 28.25
      vertex 80.31058285412303 53 28.340889008453118
      vertex 80.15663143066406 53 28.31026616635143
    endloop
  endfacet
  facet normal 0 -1 0
    outer loop
      vertex 82.16506350946109 53 28.25
      vertex 80.4592201188381 53 28.391344560986457
      vertex 80.31058285412303 53 28.340889008453118
    endloop
  endfacet
  facet normal 0 -1 0
    outer loop
      vertex 82.30969883127821 53 28.543291419087275
      vertex 80.6 53 28.460769515458672
      vertex 80.4592201188381 53 28.391344560986457
    endloop
  endfacet
  facet normal 0 -1 0
    outer loop
      vertex 82.30969883127821 53 28.543291419087275
      vertex 80.73051371481047 53 28.547975991650517
      vertex 80.6 53 28.460769515458672
    endloop
  endfacet
  facet normal 0 -1 0
    outer loop
      vertex 82.16506350946109 53 30.75
      vertex 80.73906891199688 53 30.75
      vertex 80.73064821370681 53 30.456708580912725
    endloop
  endfacet
  facet normal 0 -1 0
    outer loop
      vertex 81.76776695296637 53 31.26776695296637
      vertex 80.75393453373606 53 31.26776695296637
      vertex 80.7468755432148 53 31.0219035725218
    endloop
  endfacet
  facet normal 0 -1 0
    outer loop
      vertex 81.52190357252181 53 31.483383350728086
      vertex 80.76012510227567 53 31.483383350728086
      vertex 80.75393453373606 53 31.26776695296637
    endloop
  endfacet
  facet normal 0 -1 0
    outer loop
      vertex 81.98338335072809 53 31.0219035725218
      vertex 80.7468755432148 53 31.0219035725218
      vertex 80.73906891199688 53 30.75
    endloop
  endfacet
  facet normal 0 -1 0
    outer loop
      vertex 81.52190357252181 53 31.483383350728086
      vertex 81.25 53 31.665063509461095
      vertex 80.76012510227567 53 31.483383350728086
    endloop
  endfacet
  facet normal 0 -1 0
    outer loop
      vertex 82.30969883127821 53 28.543291419087275
      vertex 80.84852813742386 53 28.651471862576145
      vertex 80.73051371481047 53 28.547975991650517
    endloop
  endfacet
  facet normal 0 -1 0
    outer loop
      vertex 82.41481456572266 53 28.852952387243697
      vertex 80.95202400834948 53 28.769486285189537
      vertex 80.84852813742386 53 28.651471862576145
    endloop
  endfacet
  facet normal 0 -1 0
    outer loop
      vertex 82.41481456572266 53 28.852952387243697
      vertex 81.03923048454132 53 28.9
      vertex 80.95202400834948 53 28.769486285189537
    endloop
  endfacet
  facet normal 0 -1 0
    outer loop
      vertex 82.47861215343453 53 29.17368451944987
      vertex 81.10865543901355 53 29.040779881161892
      vertex 81.03923048454132 53 28.9
    endloop
  endfacet
  facet normal 0 -1 0
    outer loop
      vertex 82.16506350946109 53 28.25
      vertex 82.30969883127821 53 28.543291419087275
      vertex 80.4592201188381 53 28.391344560986457
    endloop
  endfacet
  facet normal 0 -1 0
    outer loop
      vertex 82.47861215343453 53 29.17368451944987
      vertex 81.15911099154688 53 29.189417145876973
      vertex 81.10865543901355 53 29.040779881161892
    endloop
  endfacet
  facet normal 0 -1 0
    outer loop
      vertex 82.47861215343453 53 29.17368451944987
      vertex 81.18973383364857 53 29.343368569335937
      vertex 81.15911099154688 53 29.189417145876973
    endloop
  endfacet
  facet normal 0 -1 0
    outer loop
      vertex 82.5 53 29.5
      vertex 81.2 53 29.5
      vertex 81.18973383364857 53 29.343368569335937
    endloop
  endfacet
  facet normal 0 -1 0
    outer loop
      vertex 82.30969883127821 53 28.543291419087275
      vertex 82.41481456572266 53 28.852952387243697
      vertex 80.84852813742386 53 28.651471862576145
    endloop
  endfacet
  facet normal 0 -1 0
    outer loop
      vertex 82.30969883127821 53 30.456708580912725
      vertex 80.73051371481047 53 30.452024008349483
      vertex 80.84852813742386 53 30.348528137423855
    endloop
  endfacet
  facet normal 0 -1 0
    outer loop
      vertex 82.30969883127821 53 30.456708580912725
      vertex 80.73064821370681 53 30.456708580912725
      vertex 80.73051371481047 53 30.452024008349483
    endloop
  endfacet
  facet normal 0 -1 0
    outer loop
      vertex 82.30969883127821 53 30.456708580912725
      vertex 80.84852813742386 53 30.348528137423855
      vertex 80.95202400834948 53 30.230513714810463
    endloop
  endfacet
  facet normal 0 -1 0
    outer loop
      vertex 82.41481456572266 53 30.147047612756303
      vertex 81.03923048454132 53 30.1
      vertex 81.10865543901355 53 29.959220118838108
    endloop
  endfacet
  facet normal 0 -1 0
    outer loop
      vertex 82.41481456572266 53 30.147047612756303
      vertex 81.10865543901355 53 29.959220118838108
      vertex 81.15911099154688 53 29.810582854123027
    endloop
  endfacet
  facet normal 0 -1 0
    outer loop
      vertex 82.30969883127821 53 30.456708580912725
      vertex 80.95202400834948 53 30.230513714810463
      vertex 81.03923048454132 53 30.1
    endloop
  endfacet
  facet normal 0 -1 0
    outer loop
      vertex 81.76776695296637 53 31.26776695296637
      vertex 81.52190357252181 53 31.483383350728086
      vertex 80.75393453373606 53 31.26776695296637
    endloop
  endfacet
  facet normal 0 -1 0
    outer loop
      vertex 81.98338335072809 53 31.0219035725218
      vertex 81.76776695296637 53 31.26776695296637
      vertex 80.7468755432148 53 31.0219035725218
    endloop
  endfacet
  facet normal 0 -1 0
    outer loop
      vertex 82.47861215343453 53 29.82631548055013
      vertex 81.15911099154688 53 29.810582854123027
      vertex 81.18973383364857 53 29.656631430664063
    endloop
  endfacet
  facet normal 0 -1 0
    outer loop
      vertex 82.47861215343453 53 29.82631548055013
      vertex 81.18973383364857 53 29.656631430664063
      vertex 81.2 53 29.5
    endloop
  endfacet
  facet normal 0 -1 0
    outer loop
      vertex 82.30969883127821 53 30.456708580912725
      vertex 82.16506350946109 53 30.75
      vertex 80.73064821370681 53 30.456708580912725
    endloop
  endfacet
  facet normal 0 -1 0
    outer loop
      vertex 82.16506350946109 53 30.75
      vertex 81.98338335072809 53 31.0219035725218
      vertex 80.73906891199688 53 30.75
    endloop
  endfacet
  facet normal 0 -1 0
    outer loop
      vertex 82.41481456572266 53 28.852952387243697
      vertex 82.47861215343453 53 29.17368451944987
      vertex 81.03923048454132 53 28.9
    endloop
  endfacet
  facet normal 0 -1 0
    outer loop
      vertex 82.47861215343453 53 29.17368451944987
      vertex 82.5 53 29.5
      vertex 81.18973383364857 53 29.343368569335937
    endloop
  endfacet
  facet normal 0 -1 0
    outer loop
      vertex 82.47861215343453 53 29.82631548055013
      vertex 82.41481456572266 53 30.147047612756303
      vertex 81.15911099154688 53 29.810582854123027
    endloop
  endfacet
  facet normal 0 -1 0
    outer loop
      vertex 82.41481456572266 53 30.147047612756303
      vertex 82.30969883127821 53 30.456708580912725
      vertex 81.03923048454132 53 30.1
    endloop
  endfacet
  facet normal 0 -1 0
    outer loop
      vertex 82.47861215343453 53 29.82631548055013
      vertex 81.2 53 29.5
      vertex 82.5 53 29.5
    endloop
  endfacet
  facet normal 0 -1 0
    outer loop
      vertex 77.52138784656547 53 44.17368451944987
      vertex 78.8 53 44.5
      vertex 77.5 53 44.5
    endloop
  endfacet
  facet normal 0 -1 0
    outer loop
      vertex 77.5 53 44.5
      vertex 78.81026616635143 53 44.65663143066406
      vertex 77.52138784656547 53 44.82631548055013
    endloop
  endfacet
  facet normal 0 -1 0
    outer loop
      vertex 77.52138784656547 53 44.82631548055013
      vertex 78.96076951545868 53 45.1
      vertex 77.58518543427734 53 45.1470476127563
    endloop
  endfacet
  facet normal 0 -1 0
    outer loop
      vertex 78.01661664927191 53 42.9780964274782
      vertex 78.8693139472663 53 43.25
      vertex 77.83493649053891 53 43.25
    endloop
  endfacet
  facet normal 0 -1 0
    outer loop
      vertex 78.23223304703363 53 42.73223304703363
      vertex 78.88399820199113 53 42.9780964274782
      vertex 78.01661664927191 53 42.9780964274782
    endloop
  endfacet
  facet normal 0 -1 0
    outer loop
      vertex 77.83493649053891 53 43.25
      vertex 78.85347463384156 53 43.543291419087275
      vertex 77.69030116872179 53 43.543291419087275
    endloop
  endfacet
  facet normal 0 -1 0
    outer loop
      vertex 77.52138784656547 53 44.17368451944987
      vertex 78.81026616635143 53 44.34336856933594
      vertex 78.8 53 44.5
    endloop
  endfacet
  facet normal 0 -1 0
    outer loop
      vertex 78.01661664927191 53 42.9780964274782
      vertex 78.88399820199113 53 42.9780964274782
      vertex 78.8693139472663 53 43.25
    endloop
  endfacet
  facet normal 0 -1 0
    outer loop
      vertex 77.69030116872179 53 43.543291419087275
      vertex 78.85347463384156 53 43.543291419087275
      vertex 78.8480737386889 53 43.64329803939884
    endloop
  endfacet
  facet normal 0 -1 0
    outer loop
      vertex 77.83493649053891 53 43.25
      vertex 78.8693139472663 53 43.25
      vertex 78.86566547652711 53 43.3175575469657
    endloop
  endfacet
  facet normal 0 -1 0
    outer loop
      vertex 77.58518543427734 53 45.1470476127563
      vertex 79.15147186257614 53 45.348528137423855
      vertex 77.69030116872179 53 45.456708580912725
    endloop
  endfacet
  facet normal 0 -1 0
    outer loop
      vertex 77.5 53 44.5
      vertex 78.8 53 44.5
      vertex 78.81026616635143 53 44.65663143066406
    endloop
  endfacet
  facet normal 0 -1 0
    outer loop
      vertex 77.52138784656547 53 44.82631548055013
      vertex 78.81026616635143 53 44.65663143066406
      vertex 78.84088900845312 53 44.81058285412303
    endloop
  endfacet
  facet normal 0 -1 0
    outer loop
      vertex 77.52138784656547 53 44.82631548055013
      vertex 78.84088900845312 53 44.81058285412303
      vertex 78.89134456098645 53 44.95922011883811
    endloop
  endfacet
  facet normal 0 -1 0
    outer loop
      vertex 77.69030116872179 53 45.456708580912725
      vertex 79.5407798811619 53 45.608655439013546
      vertex 77.83493649053891 53 45.75
    endloop
  endfacet
  facet normal 0 -1 0
    outer loop
      vertex 77.52138784656547 53 44.82631548055013
      vertex 78.89134456098645 53 44.95922011883811
      vertex 78.96076951545868 53 45.1
    endloop
  endfacet
  facet normal 0 -1 0
    outer loop
      vertex 77.58518543427734 53 45.1470476127563
      vertex 78.96076951545868 53 45.1
      vertex 79.04797599165052 53 45.23051371481046
    endloop
  endfacet
  facet normal 0 -1 0
    outer loop
      vertex 77.58518543427734 53 45.1470476127563
      vertex 79.04797599165052 53 45.23051371481046
      vertex 79.15147186257614 53 45.348528137423855
    endloop
  endfacet
  facet normal 0 -1 0
    outer loop
      vertex 77.69030116872179 53 45.456708580912725
      vertex 79.15147186257614 53 45.348528137423855
      vertex 79.26948628518953 53 45.45202400834948
    endloop
  endfacet
  facet normal 0 -1 0
    outer loop
      vertex 79.3529523872437 53 42.08518543427733
      vertex 79.38027098568257 53 42.08957248476842
      vertex 79.37240428744285 53 42.08906767956889
    endloop
  endfacet
  facet normal 0 -1 0
    outer loop
      vertex 77.69030116872179 53 45.456708580912725
      vertex 79.26948628518953 53 45.45202400834948
      vertex 79.4 53 45.53923048454133
    endloop
  endfacet
  facet normal 0 -1 0
    outer loop
      vertex 77.69030116872179 53 45.456708580912725
      vertex 79.4 53 45.53923048454133
      vertex 79.5407798811619 53 45.608655439013546
    endloop
  endfacet
  facet normal 0 -1 0
    outer loop
      vertex 77.83493649053891 53 45.75
      vertex 79.5407798811619 53 45.608655439013546
      vertex 79.68941714587697 53 45.65911099154688
    endloop
  endfacet
  facet normal 0 -1 0
    outer loop
      vertex 77.83493649053891 53 45.75
      vertex 79.68941714587697 53 45.65911099154688
      vertex 79.84336856933594 53 45.689733833648575
    endloop
  endfacet
  facet normal 0 -1 0
    outer loop
      vertex 77.83493649053891 53 45.75
      vertex 79.84336856933594 53 45.689733833648575
      vertex 80 53 45.7
    endloop
  endfacet
  facet normal 0 -1 0
    outer loop
      vertex 77.83493649053891 53 45.75
      vertex 81.98338335072809 53 46.0219035725218
      vertex 78.01661664927191 53 46.0219035725218
    endloop
  endfacet
  facet normal 0 -1 0
    outer loop
      vertex 78.01661664927191 53 46.0219035725218
      vertex 81.76776695296637 53 46.26776695296637
      vertex 78.23223304703363 53 46.26776695296637
    endloop
  endfacet
  facet normal 0 -1 0
    outer loop
      vertex 79.3529523872437 53 42.08518543427733
      vertex 79.47493993959874 53 42.09567815479983
      vertex 79.38027098568257 53 42.08957248476842
    endloop
  endfacet
  facet normal 0 -1 0
    outer loop
      vertex 79.3529523872437 53 42.08518543427733
      vertex 79.53402518485828 53 42.09705357245463
      vertex 79.47493993959874 53 42.09567815479983
    endloop
  endfacet
  facet normal 0 -1 0
    outer loop
      vertex 79.3529523872437 53 42.08518543427733
      vertex 79.53420864110504 53 42.0491313237194
      vertex 79.53402518485828 53 42.09705357245463
    endloop
  endfacet
  facet normal 0 -1 0
    outer loop
      vertex 78.23223304703363 53 46.26776695296637
      vertex 81.52190357252181 53 46.48338335072809
      vertex 78.47809642747819 53 46.48338335072809
    endloop
  endfacet
  facet normal 0 -1 0
    outer loop
      vertex 78.47809642747819 53 46.48338335072809
      vertex 81.25 53 46.6650635094611
      vertex 78.75 53 46.6650635094611
    endloop
  endfacet
  facet normal 0 -1 0
    outer loop
      vertex 78.75 53 46.6650635094611
      vertex 80.95670858091272 53 46.80969883127822
      vertex 79.04329141908728 53 46.80969883127822
    endloop
  endfacet
  facet normal 0 -1 0
    outer loop
      vertex 79.04329141908728 53 46.80969883127822
      vertex 80.6470476127563 53 46.91481456572267
      vertex 79.3529523872437 53 46.91481456572267
    endloop
  endfacet
  facet normal 0 -1 0
    outer loop
      vertex 79.3529523872437 53 46.91481456572267
      vertex 80.32631548055014 53 46.978612153434526
      vertex 79.67368451944986 53 46.978612153434526
    endloop
  endfacet
  facet normal 0 -1 0
    outer loop
      vertex 80.6470476127563 53 42.08518543427733
      vertex 80.4574733430892 53 42.08518543427733
      vertex 80.45742290045182 53 42.04746673383916
    endloop
  endfacet
  facet normal 0 -1 0
    outer loop
      vertex 80.6470476127563 53 42.08518543427733
      vertex 80.51670673644004 53 42.08728525915836
      vertex 80.4574733430892 53 42.08518543427733
    endloop
  endfacet
  facet normal 0 -1 0
    outer loop
      vertex 80.6470476127563 53 42.08518543427733
      vertex 80.61976077275075 53 42.087365224497766
      vertex 80.51670673644004 53 42.08728525915836
    endloop
  endfacet
  facet normal 0 -1 0
    outer loop
      vertex 77.83493649053891 53 45.75
      vertex 80 53 45.7
      vertex 82.16506350946109 53 45.75
    endloop
  endfacet
  facet normal 0 -1 0
    outer loop
      vertex 79.67368451944986 53 46.978612153434526
      vertex 80.32631548055014 53 46.978612153434526
      vertex 80 53 47
    endloop
  endfacet
  facet normal 0 -1 0
    outer loop
      vertex 79.3529523872437 53 46.91481456572267
      vertex 80.6470476127563 53 46.91481456572267
      vertex 80.32631548055014 53 46.978612153434526
    endloop
  endfacet
  facet normal 0 -1 0
    outer loop
      vertex 79.04329141908728 53 46.80969883127822
      vertex 80.95670858091272 53 46.80969883127822
      vertex 80.6470476127563 53 46.91481456572267
    endloop
  endfacet
  facet normal 0 -1 0
    outer loop
      vertex 78.75 53 46.6650635094611
      vertex 81.25 53 46.6650635094611
      vertex 80.95670858091272 53 46.80969883127822
    endloop
  endfacet
  facet normal 0 -1 0
    outer loop
      vertex 78.47809642747819 53 46.48338335072809
      vertex 81.52190357252181 53 46.48338335072809
      vertex 81.25 53 46.6650635094611
    endloop
  endfacet
  facet normal 0 -1 0
    outer loop
      vertex 78.23223304703363 53 46.26776695296637
      vertex 81.76776695296637 53 46.26776695296637
      vertex 81.52190357252181 53 46.48338335072809
    endloop
  endfacet
  facet normal 0 -1 0
    outer loop
      vertex 78.01661664927191 53 46.0219035725218
      vertex 81.98338335072809 53 46.0219035725218
      vertex 81.76776695296637 53 46.26776695296637
    endloop
  endfacet
  facet normal 0 -1 0
    outer loop
      vertex 80.95670858091272 53 42.19030116872178
      vertex 80.76949395533534 53 42.19030116872178
      vertex 80.77130095307538 53 42.12736375982664
    endloop
  endfacet
  facet normal 0 -1 0
    outer loop
      vertex 80.76949395533534 53 42.19030116872178
      vertex 80.90811207398816 53 42.20502299383995
      vertex 80.81771106246327 53 42.204251802490646
    endloop
  endfacet
  facet normal 0 -1 0
    outer loop
      vertex 80.76949395533534 53 42.19030116872178
      vertex 80.9146451664446 53 42.2050947159235
      vertex 80.90811207398816 53 42.20502299383995
    endloop
  endfacet
  facet normal 0 -1 0
    outer loop
      vertex 80.95670858091272 53 42.19030116872178
      vertex 80.9146451664446 53 42.2050947159235
      vertex 80.76949395533534 53 42.19030116872178
    endloop
  endfacet
  facet normal 0 -1 0
    outer loop
      vertex 81.25 53 42.3349364905389
      vertex 81.09848658691632 53 42.3349364905389
      vertex 81.10097867808037 53 42.2614473072531
    endloop
  endfacet
  facet normal 0 -1 0
    outer loop
      vertex 81.09848658691632 53 42.3349364905389
      vertex 81.18728993258065 53 42.36092790550431
      vertex 81.13617767491765 53 42.359483691115855
    endloop
  endfacet
  facet normal 0 -1 0
    outer loop
      vertex 81.25 53 42.3349364905389
      vertex 81.18728993258065 53 42.36092790550431
      vertex 81.09848658691632 53 42.3349364905389
    endloop
  endfacet
  facet normal 0 -1 0
    outer loop
      vertex 81.25 53 42.3349364905389
      vertex 81.22750166671969 53 42.36251704232526
      vertex 81.18728993258065 53 42.36092790550431
    endloop
  endfacet
  facet normal 0 -1 0
    outer loop
      vertex 81.25 53 42.3349364905389
      vertex 81.26093083351934 53 42.38562199492367
      vertex 81.22750166671969 53 42.36251704232526
    endloop
  endfacet
  facet normal 0 -1 0
    outer loop
      vertex 82.16506350946109 53 45.75
      vertex 80 53 45.7
      vertex 80.15663143066406 53 45.689733833648575
    endloop
  endfacet
  facet normal 0 -1 0
    outer loop
      vertex 82.16506350946109 53 45.75
      vertex 80.15663143066406 53 45.689733833648575
      vertex 80.31058285412303 53 45.65911099154688
    endloop
  endfacet
  facet normal 0 -1 0
    outer loop
      vertex 77.83493649053891 53 45.75
      vertex 82.16506350946109 53 45.75
      vertex 81.98338335072809 53 46.0219035725218
    endloop
  endfacet
  facet normal 0 -1 0
    outer loop
      vertex 82.16506350946109 53 45.75
      vertex 80.31058285412303 53 45.65911099154688
      vertex 80.4592201188381 53 45.608655439013546
    endloop
  endfacet
  facet normal 0 -1 0
    outer loop
      vertex 82.16506350946109 53 45.75
      vertex 80.4592201188381 53 45.608655439013546
      vertex 80.6 53 45.53923048454133
    endloop
  endfacet
  facet normal 0 -1 0
    outer loop
      vertex 81.25 53 42.3349364905389
      vertex 81.28819730472361 53 42.388558085517246
      vertex 81.26093083351934 53 42.38562199492367
    endloop
  endfacet
  facet normal 0 -1 0
    outer loop
      vertex 81.28819730472361 53 42.388558085517246
      vertex 81.25 53 42.3349364905389
      vertex 81.33169385710517 53 42.3895225807058
    endloop
  endfacet
  facet normal 0 -1 0
    outer loop
      vertex 81.52190357252181 53 42.51661664927191
      vertex 81.28174701668159 53 42.51661664927191
      vertex 81.28819730472361 53 42.388558085517246
    endloop
  endfacet
  facet normal 0 -1 0
    outer loop
      vertex 81.33169385710517 53 42.3895225807058
      vertex 81.52190357252181 53 42.51661664927191
      vertex 81.28819730472361 53 42.388558085517246
    endloop
  endfacet
  facet normal 0 -1 0
    outer loop
      vertex 81.52190357252181 53 42.51661664927191
      vertex 81.30519002039247 53 42.53911347961351
      vertex 81.28174701668159 53 42.51661664927191
    endloop
  endfacet
  facet normal 0 -1 0
    outer loop
      vertex 81.52190357252181 53 42.51661664927191
      vertex 81.319673518405 53 42.55496275167388
      vertex 81.30519002039247 53 42.53911347961351
    endloop
  endfacet
  facet normal 0 -1 0
    outer loop
      vertex 82.16506350946109 53 43.25
      vertex 81.27353038137998 53 43.25
      vertex 81.277986433688 53 43.191857896669816
    endloop
  endfacet
  facet normal 0 -1 0
    outer loop
      vertex 81.98338335072809 53 42.9780964274782
      vertex 82.16506350946109 53 43.25
      vertex 81.277986433688 53 43.191857896669816
    endloop
  endfacet
  facet normal 0 -1 0
    outer loop
      vertex 82.30969883127821 53 43.543291419087275
      vertex 81.24729052380808 53 43.59237491053853
      vertex 81.2563436344594 53 43.47425087191334
    endloop
  endfacet
  facet normal 0 -1 0
    outer loop
      vertex 82.41481456572266 53 43.8529523872437
      vertex 81.23137983023994 53 43.799975972094
      vertex 81.23331083252508 53 43.77478045672922
    endloop
  endfacet
  facet normal 0 -1 0
    outer loop
      vertex 82.5 53 44.5
      vertex 81.2 53 44.5
      vertex 81.18973383364857 53 44.34336856933594
    endloop
  endfacet
  facet normal 0 -1 0
    outer loop
      vertex 82.30969883127821 53 45.456708580912725
      vertex 80.73051371481047 53 45.45202400834948
      vertex 80.84852813742386 53 45.348528137423855
    endloop
  endfacet
  facet normal 0 -1 0
    outer loop
      vertex 82.30969883127821 53 45.456708580912725
      vertex 80.84852813742386 53 45.348528137423855
      vertex 80.95202400834948 53 45.23051371481046
    endloop
  endfacet
  facet normal 0 -1 0
    outer loop
      vertex 82.41481456572266 53 45.1470476127563
      vertex 81.03923048454132 53 45.1
      vertex 81.10865543901355 53 44.95922011883811
    endloop
  endfacet
  facet normal 0 -1 0
    outer loop
      vertex 82.47861215343453 53 44.82631548055013
      vertex 81.15911099154688 53 44.81058285412303
      vertex 81.18973383364857 53 44.65663143066406
    endloop
  endfacet
  facet normal 0 -1 0
    outer loop
      vertex 82.47861215343453 53 44.82631548055013
      vertex 81.18973383364857 53 44.65663143066406
      vertex 81.2 53 44.5
    endloop
  endfacet
  facet normal 0 -1 0
    outer loop
      vertex 82.30969883127821 53 45.456708580912725
      vertex 82.16506350946109 53 45.75
      vertex 80.73051371481047 53 45.45202400834948
    endloop
  endfacet
  facet normal 0 -1 0
    outer loop
      vertex 82.16506350946109 53 43.25
      vertex 82.30969883127821 53 43.543291419087275
      vertex 81.2563436344594 53 43.47425087191334
    endloop
  endfacet
  facet normal 0 -1 0
    outer loop
      vertex 82.30969883127821 53 43.543291419087275
      vertex 82.41481456572266 53 43.8529523872437
      vertex 81.23331083252508 53 43.77478045672922
    endloop
  endfacet
  facet normal 0 -1 0
    outer loop
      vertex 82.47861215343453 53 44.82631548055013
      vertex 82.41481456572266 53 45.1470476127563
      vertex 81.15911099154688 53 44.81058285412303
    endloop
  endfacet
  facet normal 0 -1 0
    outer loop
      vertex 82.41481456572266 53 45.1470476127563
      vertex 82.30969883127821 53 45.456708580912725
      vertex 81.03923048454132 53 45.1
    endloop
  endfacet
  facet normal 0 -1 0
    outer loop
      vertex 82.5 53 44.5
      vertex 82.47861215343453 53 44.82631548055013
      vertex 81.2 53 44.5
    endloop
  endfacet
  facet normal 0 1 0
    outer loop
      vertex 77.69030116872179 53 28.543291419087275
      vertex 77.58518543427734 53 28.852952387243697
      vertex 78.89134456098645 53 29.040779881161892
    endloop
  endfacet
  facet normal 0 1 0
    outer loop
      vertex 77.58518543427734 53 28.852952387243697
      vertex 77.52138784656547 53 29.17368451944987
      vertex 78.8 53 29.5
    endloop
  endfacet
  facet normal 0 1 0
    outer loop
      vertex 77.5 53 29.5
      vertex 79.15147186257614 53 30.348528137423855
      vertex 77.52138784656547 53 29.17368451944987
    endloop
  endfacet
  facet normal 0 1 0
    outer loop
      vertex 77.5 53 29.5
      vertex 77.52138784656547 53 29.82631548055013
      vertex 79.15147186257614 53 30.348528137423855
    endloop
  endfacet
  facet normal 0 1 0
    outer loop
      vertex 77.52138784656547 53 29.82631548055013
      vertex 77.58518543427734 53 30.147047612756303
      vertex 79.15147186257614 53 30.348528137423855
    endloop
  endfacet
  facet normal 0 1 0
    outer loop
      vertex 78.01661664927191 53 27.9780964274782
      vertex 77.83493649053891 53 28.25
      vertex 79.4 53 28.460769515458672
    endloop
  endfacet
  facet normal 0 1 0
    outer loop
      vertex 77.83493649053891 53 28.25
      vertex 77.69030116872179 53 28.543291419087275
      vertex 79.04797599165052 53 28.769486285189537
    endloop
  endfacet
  facet normal 0 1 0
    outer loop
      vertex 78.81026616635143 53 29.343368569335937
      vertex 78.84088900845312 53 29.189417145876973
      vertex 77.58518543427734 53 28.852952387243697
    endloop
  endfacet
  facet normal 0 1 0
    outer loop
      vertex 78.81026616635143 53 29.656631430664063
      vertex 78.8 53 29.5
      vertex 77.52138784656547 53 29.17368451944987
    endloop
  endfacet
  facet normal 0 1 0
    outer loop
      vertex 78.8 53 29.5
      vertex 78.81026616635143 53 29.343368569335937
      vertex 77.58518543427734 53 28.852952387243697
    endloop
  endfacet
  facet normal 0 1 0
    outer loop
      vertex 78.01661664927191 53 27.9780964274782
      vertex 79.4 53 28.460769515458672
      vertex 78.23223304703363 53 27.73223304703363
    endloop
  endfacet
  facet normal 0 1 0
    outer loop
      vertex 78.89134456098645 53 29.040779881161892
      vertex 78.96076951545868 53 28.9
      vertex 77.69030116872179 53 28.543291419087275
    endloop
  endfacet
  facet normal 0 1 0
    outer loop
      vertex 79.04797599165052 53 28.769486285189537
      vertex 79.15147186257614 53 28.651471862576145
      vertex 77.83493649053891 53 28.25
    endloop
  endfacet
  facet normal 0 1 0
    outer loop
      vertex 77.69030116872179 53 30.456708580912725
      vertex 77.83493649053891 53 30.75
      vertex 79.15147186257614 53 30.348528137423855
    endloop
  endfacet
  facet normal 0 1 0
    outer loop
      vertex 78.84088900845312 53 29.810582854123027
      vertex 78.81026616635143 53 29.656631430664063
      vertex 77.52138784656547 53 29.17368451944987
    endloop
  endfacet
  facet normal 0 1 0
    outer loop
      vertex 78.89134456098645 53 29.959220118838108
      vertex 78.84088900845312 53 29.810582854123027
      vertex 77.52138784656547 53 29.17368451944987
    endloop
  endfacet
  facet normal 0 1 0
    outer loop
      vertex 77.83493649053891 53 30.75
      vertex 78.01661664927191 53 31.0219035725218
      vertex 79.1368900425641 53 30.551523024974347
    endloop
  endfacet
  facet normal 0 1 0
    outer loop
      vertex 78.96076951545868 53 30.1
      vertex 78.89134456098645 53 29.959220118838108
      vertex 77.52138784656547 53 29.17368451944987
    endloop
  endfacet
  facet normal 0 1 0
    outer loop
      vertex 79.04797599165052 53 30.230513714810463
      vertex 78.96076951545868 53 30.1
      vertex 77.52138784656547 53 29.17368451944987
    endloop
  endfacet
  facet normal 0 1 0
    outer loop
      vertex 79.15147186257614 53 30.348528137423855
      vertex 79.04797599165052 53 30.230513714810463
      vertex 77.52138784656547 53 29.17368451944987
    endloop
  endfacet
  facet normal 0 1 0
    outer loop
      vertex 77.83493649053891 53 30.75
      vertex 79.1368900425641 53 30.551523024974347
      vertex 79.15147186257614 53 30.348528137423855
    endloop
  endfacet
  facet normal 0 1 0
    outer loop
      vertex 78.01661664927191 53 31.0219035725218
      vertex 78.23223304703363 53 31.26776695296637
      vertex 79.11659842355648 53 30.83400456124844
    endloop
  endfacet
  facet normal 0 1 0
    outer loop
      vertex 78.23223304703363 53 31.26776695296637
      vertex 78.47809642747819 53 31.483383350728086
      vertex 79.09800956502038 53 31.09278180888382
    endloop
  endfacet
  facet normal 0 1 0
    outer loop
      vertex 78.47809642747819 53 27.516616649271914
      vertex 78.23223304703363 53 27.73223304703363
      vertex 80.31058285412303 53 28.340889008453118
    endloop
  endfacet
  facet normal 0 1 0
    outer loop
      vertex 79.4 53 28.460769515458672
      vertex 79.5407798811619 53 28.391344560986457
      vertex 78.23223304703363 53 27.73223304703363
    endloop
  endfacet
  facet normal 0 1 0
    outer loop
      vertex 79.15147186257614 53 28.651471862576145
      vertex 79.26948628518953 53 28.547975991650517
      vertex 77.83493649053891 53 28.25
    endloop
  endfacet
  facet normal 0 1 0
    outer loop
      vertex 78.47809642747819 53 27.516616649271914
      vertex 80.31058285412303 53 28.340889008453118
      vertex 78.75 53 27.334936490538905
    endloop
  endfacet
  facet normal 0 1 0
    outer loop
      vertex 79.5407798811619 53 28.391344560986457
      vertex 79.68941714587697 53 28.340889008453118
      vertex 78.23223304703363 53 27.73223304703363
    endloop
  endfacet
  facet normal 0 1 0
    outer loop
      vertex 79.04329141908728 53 27.19030116872178
      vertex 78.75 53 27.334936490538905
      vertex 80.31058285412303 53 28.340889008453118
    endloop
  endfacet
  facet normal 0 1 0
    outer loop
      vertex 79.68941714587697 53 28.340889008453118
      vertex 79.84336856933594 53 28.31026616635143
      vertex 78.23223304703363 53 27.73223304703363
    endloop
  endfacet
  facet normal 0 1 0
    outer loop
      vertex 79.84336856933594 53 28.31026616635143
      vertex 80 53 28.3
      vertex 78.23223304703363 53 27.73223304703363
    endloop
  endfacet
  facet normal 0 1 0
    outer loop
      vertex 78.01661664927191 53 31.0219035725218
      vertex 79.11659842355648 53 30.83400456124844
      vertex 79.1368900425641 53 30.551523024974347
    endloop
  endfacet
  facet normal 0 1 0
    outer loop
      vertex 79.11659842355648 53 30.83400456124844
      vertex 78.23223304703363 53 31.26776695296637
      vertex 79.09800956502038 53 31.09278180888382
    endloop
  endfacet
  facet normal 0 1 0
    outer loop
      vertex 78.47809642747819 53 31.483383350728086
      vertex 79.08144152747914 53 31.323427017426834
      vertex 79.09800956502038 53 31.09278180888382
    endloop
  endfacet
  facet normal 0 1 0
    outer loop
      vertex 78.47809642747819 53 31.483383350728086
      vertex 78.75 53 31.665063509461095
      vertex 79.06995131464606 53 31.483383350728086
    endloop
  endfacet
  facet normal 0 1 0
    outer loop
      vertex 78.75 53 31.665063509461095
      vertex 79.06717779464867 53 31.521993783412377
      vertex 79.06995131464606 53 31.483383350728086
    endloop
  endfacet
  facet normal 0 1 0
    outer loop
      vertex 79.04329141908728 53 31.80969883127822
      vertex 79.22869904692462 53 31.872636240173357
      vertex 79.04912794349696 53 31.773267458565527
    endloop
  endfacet
  facet normal 0 1 0
    outer loop
      vertex 79.09188792601184 53 31.794977006160057
      vertex 79.04912794349696 53 31.773267458565527
      vertex 79.22869904692462 53 31.872636240173357
    endloop
  endfacet
  facet normal 0 1 0
    outer loop
      vertex 79.09188792601184 53 31.794977006160057
      vertex 79.22869904692462 53 31.872636240173357
      vertex 79.18228893753673 53 31.79574819750935
    endloop
  endfacet
  facet normal 0 1 0
    outer loop
      vertex 79.22869904692462 53 31.872636240173357
      vertex 79.23050604466466 53 31.80969883127822
      vertex 79.18228893753673 53 31.79574819750935
    endloop
  endfacet
  facet normal 0 1 0
    outer loop
      vertex 80 53 28.3
      vertex 80.15663143066406 53 28.31026616635143
      vertex 78.23223304703363 53 27.73223304703363
    endloop
  endfacet
  facet normal 0 1 0
    outer loop
      vertex 79.3529523872437 53 27.085185434277328
      vertex 79.04329141908728 53 27.19030116872178
      vertex 80.31058285412303 53 28.340889008453118
    endloop
  endfacet
  facet normal 0 1 0
    outer loop
      vertex 80.15663143066406 53 28.31026616635143
      vertex 80.31058285412303 53 28.340889008453118
      vertex 78.23223304703363 53 27.73223304703363
    endloop
  endfacet
  facet normal 0 1 0
    outer loop
      vertex 79.3529523872437 53 27.085185434277328
      vertex 80.31058285412303 53 28.340889008453118
      vertex 79.67368451944986 53 27.021387846565474
    endloop
  endfacet
  facet normal 0 1 0
    outer loop
      vertex 79.67368451944986 53 27.021387846565474
      vertex 80.31058285412303 53 28.340889008453118
      vertex 80 53 27
    endloop
  endfacet
  facet normal 0 1 0
    outer loop
      vertex 79.3529523872437 53 31.914814565722672
      vertex 79.54257709954818 53 31.952533266160845
      vertex 79.38023922724925 53 31.912634775502234
    endloop
  endfacet
  facet normal 0 1 0
    outer loop
      vertex 79.38023922724925 53 31.912634775502234
      vertex 79.54257709954818 53 31.952533266160845
      vertex 79.48329326355996 53 31.91271474084164
    endloop
  endfacet
  facet normal 0 1 0
    outer loop
      vertex 79.54257709954818 53 31.952533266160845
      vertex 79.5425266569108 53 31.914814565722672
      vertex 79.48329326355996 53 31.91271474084164
    endloop
  endfacet
  facet normal 0 1 0
    outer loop
      vertex 77.52138784656547 53 44.17368451944987
      vertex 77.5 53 44.5
      vertex 78.81026616635143 53 44.34336856933594
    endloop
  endfacet
  facet normal 0 1 0
    outer loop
      vertex 77.83493649053891 53 43.25
      vertex 77.69030116872179 53 43.543291419087275
      vertex 78.8480737386889 53 43.64329803939884
    endloop
  endfacet
  facet normal 0 1 0
    outer loop
      vertex 77.5 53 44.5
      vertex 77.52138784656547 53 44.82631548055013
      vertex 78.81026616635143 53 44.34336856933594
    endloop
  endfacet
  facet normal 0 1 0
    outer loop
      vertex 77.58518543427734 53 45.1470476127563
      vertex 78.8 53 44.5
      vertex 77.52138784656547 53 44.82631548055013
    endloop
  endfacet
  facet normal 0 1 0
    outer loop
      vertex 77.58518543427734 53 45.1470476127563
      vertex 77.69030116872179 53 45.456708580912725
      vertex 78.8 53 44.5
    endloop
  endfacet
  facet normal 0 1 0
    outer loop
      vertex 78.01661664927191 53 42.9780964274782
      vertex 77.83493649053891 53 43.25
      vertex 78.86566547652711 53 43.3175575469657
    endloop
  endfacet
  facet normal 0 1 0
    outer loop
      vertex 78.23223304703363 53 42.73223304703363
      vertex 78.01661664927191 53 42.9780964274782
      vertex 78.8693139472663 53 43.25
    endloop
  endfacet
  facet normal 0 1 0
    outer loop
      vertex 78.01661664927191 53 42.9780964274782
      vertex 78.86566547652711 53 43.3175575469657
      vertex 78.8693139472663 53 43.25
    endloop
  endfacet
  facet normal 0 1 0
    outer loop
      vertex 78.23223304703363 53 42.73223304703363
      vertex 78.8693139472663 53 43.25
      vertex 78.88399820199113 53 42.9780964274782
    endloop
  endfacet
  facet normal 0 1 0
    outer loop
      vertex 77.83493649053891 53 43.25
      vertex 78.8480737386889 53 43.64329803939884
      vertex 78.85347463384156 53 43.543291419087275
    endloop
  endfacet
  facet normal 0 1 0
    outer loop
      vertex 77.69030116872179 53 45.456708580912725
      vertex 77.83493649053891 53 45.75
      vertex 78.89134456098645 53 44.95922011883811
    endloop
  endfacet
  facet normal 0 1 0
    outer loop
      vertex 78.8 53 44.5
      vertex 78.81026616635143 53 44.34336856933594
      vertex 77.52138784656547 53 44.82631548055013
    endloop
  endfacet
  facet normal 0 1 0
    outer loop
      vertex 78.81026616635143 53 44.65663143066406
      vertex 78.8 53 44.5
      vertex 77.69030116872179 53 45.456708580912725
    endloop
  endfacet
  facet normal 0 1 0
    outer loop
      vertex 77.83493649053891 53 45.75
      vertex 78.01661664927191 53 46.0219035725218
      vertex 79.04797599165052 53 45.23051371481046
    endloop
  endfacet
  facet normal 0 1 0
    outer loop
      vertex 78.84088900845312 53 44.81058285412303
      vertex 78.81026616635143 53 44.65663143066406
      vertex 77.69030116872179 53 45.456708580912725
    endloop
  endfacet
  facet normal 0 1 0
    outer loop
      vertex 78.89134456098645 53 44.95922011883811
      vertex 78.84088900845312 53 44.81058285412303
      vertex 77.69030116872179 53 45.456708580912725
    endloop
  endfacet
  facet normal 0 1 0
    outer loop
      vertex 78.96076951545868 53 45.1
      vertex 78.89134456098645 53 44.95922011883811
      vertex 77.83493649053891 53 45.75
    endloop
  endfacet
  facet normal 0 1 0
    outer loop
      vertex 79.04797599165052 53 45.23051371481046
      vertex 78.96076951545868 53 45.1
      vertex 77.83493649053891 53 45.75
    endloop
  endfacet
  facet normal 0 1 0
    outer loop
      vertex 79.15147186257614 53 45.348528137423855
      vertex 79.04797599165052 53 45.23051371481046
      vertex 78.01661664927191 53 46.0219035725218
    endloop
  endfacet
  facet normal 0 1 0
    outer loop
      vertex 78.01661664927191 53 46.0219035725218
      vertex 78.23223304703363 53 46.26776695296637
      vertex 79.5407798811619 53 45.608655439013546
    endloop
  endfacet
  facet normal 0 1 0
    outer loop
      vertex 79.26948628518953 53 45.45202400834948
      vertex 79.15147186257614 53 45.348528137423855
      vertex 78.01661664927191 53 46.0219035725218
    endloop
  endfacet
  facet normal 0 1 0
    outer loop
      vertex 79.4 53 45.53923048454133
      vertex 79.26948628518953 53 45.45202400834948
      vertex 78.01661664927191 53 46.0219035725218
    endloop
  endfacet
  facet normal 0 1 0
    outer loop
      vertex 79.4 53 45.53923048454133
      vertex 78.01661664927191 53 46.0219035725218
      vertex 79.5407798811619 53 45.608655439013546
    endloop
  endfacet
  facet normal 0 1 0
    outer loop
      vertex 78.23223304703363 53 46.26776695296637
      vertex 78.47809642747819 53 46.48338335072809
      vertex 80 53 45.7
    endloop
  endfacet
  facet normal 0 1 0
    outer loop
      vertex 78.47809642747819 53 46.48338335072809
      vertex 78.75 53 46.6650635094611
      vertex 80 53 45.7
    endloop
  endfacet
  facet normal 0 1 0
    outer loop
      vertex 79.5407798811619 53 45.608655439013546
      vertex 78.23223304703363 53 46.26776695296637
      vertex 79.68941714587697 53 45.65911099154688
    endloop
  endfacet
  facet normal 0 1 0
    outer loop
      vertex 79.68941714587697 53 45.65911099154688
      vertex 78.23223304703363 53 46.26776695296637
      vertex 79.84336856933594 53 45.689733833648575
    endloop
  endfacet
  facet normal 0 1 0
    outer loop
      vertex 79.84336856933594 53 45.689733833648575
      vertex 78.23223304703363 53 46.26776695296637
      vertex 80 53 45.7
    endloop
  endfacet
  facet normal 0 1 0
    outer loop
      vertex 78.75 53 46.6650635094611
      vertex 79.04329141908728 53 46.80969883127822
      vertex 80 53 45.7
    endloop
  endfacet
  facet normal 0 1 0
    outer loop
      vertex 79.3529523872437 53 42.08518543427733
      vertex 79.37240428744285 53 42.08906767956889
      vertex 79.53420864110504 53 42.0491313237194
    endloop
  endfacet
  facet normal 0 1 0
    outer loop
      vertex 79.53420864110504 53 42.0491313237194
      vertex 79.37240428744285 53 42.08906767956889
      vertex 79.38027098568257 53 42.08957248476842
    endloop
  endfacet
  facet normal 0 1 0
    outer loop
      vertex 79.47493993959874 53 42.09567815479983
      vertex 79.53420864110504 53 42.0491313237194
      vertex 79.38027098568257 53 42.08957248476842
    endloop
  endfacet
  facet normal 0 1 0
    outer loop
      vertex 79.53402518485828 53 42.09705357245463
      vertex 79.53420864110504 53 42.0491313237194
      vertex 79.47493993959874 53 42.09567815479983
    endloop
  endfacet
  facet normal 0 1 0
    outer loop
      vertex 79.04329141908728 53 46.80969883127822
      vertex 79.3529523872437 53 46.91481456572267
      vertex 80 53 45.7
    endloop
  endfacet
  facet normal 0 1 0
    outer loop
      vertex 79.3529523872437 53 46.91481456572267
      vertex 79.67368451944986 53 46.978612153434526
      vertex 80 53 45.7
    endloop
  endfacet
  facet normal 0 1 0
    outer loop
      vertex 79.67368451944986 53 46.978612153434526
      vertex 80 53 47
      vertex 80 53 45.7
    endloop
  endfacet
  facet normal 0 1 0
    outer loop
      vertex 80 53 27
      vertex 80.31058285412303 53 28.340889008453118
      vertex 80.32631548055014 53 27.021387846565474
    endloop
  endfacet
  facet normal 0 1 0
    outer loop
      vertex 80.32631548055014 53 27.021387846565474
      vertex 80.31058285412303 53 28.340889008453118
      vertex 80.6470476127563 53 27.085185434277328
    endloop
  endfacet
  facet normal 0 1 0
    outer loop
      vertex 80.45748995852638 53 31.90239030066131
      vertex 80.45742290045182 53 31.952533266160845
      vertex 80.51631188177248 53 31.903757631803128
    endloop
  endfacet
  facet normal 0 1 0
    outer loop
      vertex 80.51631188177248 53 31.903757631803128
      vertex 80.45742290045182 53 31.952533266160845
      vertex 80.61972901431743 53 31.910427515231586
    endloop
  endfacet
  facet normal 0 1 0
    outer loop
      vertex 80.6470476127563 53 31.914814565722672
      vertex 80.61972901431743 53 31.910427515231586
      vertex 80.45742290045182 53 31.952533266160845
    endloop
  endfacet
  facet normal 0 1 0
    outer loop
      vertex 80.6470476127563 53 27.085185434277328
      vertex 80.31058285412303 53 28.340889008453118
      vertex 80.95670858091272 53 27.19030116872178
    endloop
  endfacet
  facet normal 0 1 0
    outer loop
      vertex 80.95670858091272 53 27.19030116872178
      vertex 80.31058285412303 53 28.340889008453118
      vertex 81.25 53 27.334936490538905
    endloop
  endfacet
  facet normal 0 1 0
    outer loop
      vertex 80.31058285412303 53 28.340889008453118
      vertex 80.4592201188381 53 28.391344560986457
      vertex 81.76776695296637 53 27.73223304703363
    endloop
  endfacet
  facet normal 0 1 0
    outer loop
      vertex 81.25 53 27.334936490538905
      vertex 80.31058285412303 53 28.340889008453118
      vertex 81.52190357252181 53 27.516616649271914
    endloop
  endfacet
  facet normal 0 1 0
    outer loop
      vertex 81.52190357252181 53 27.516616649271914
      vertex 80.31058285412303 53 28.340889008453118
      vertex 81.76776695296637 53 27.73223304703363
    endloop
  endfacet
  facet normal 0 1 0
    outer loop
      vertex 81.98338335072809 53 27.9780964274782
      vertex 80.4592201188381 53 28.391344560986457
      vertex 80.6 53 28.460769515458672
    endloop
  endfacet
  facet normal 0 1 0
    outer loop
      vertex 80.6 53 28.460769515458672
      vertex 80.73051371481047 53 28.547975991650517
      vertex 81.98338335072809 53 27.9780964274782
    endloop
  endfacet
  facet normal 0 1 0
    outer loop
      vertex 81.98338335072809 53 27.9780964274782
      vertex 80.73051371481047 53 28.547975991650517
      vertex 80.84852813742386 53 28.651471862576145
    endloop
  endfacet
  facet normal 0 1 0
    outer loop
      vertex 80.75393453373606 53 31.26776695296637
      vertex 80.76012510227567 53 31.483383350728086
      vertex 81.25 53 31.665063509461095
    endloop
  endfacet
  facet normal 0 1 0
    outer loop
      vertex 80.73064821370681 53 30.456708580912725
      vertex 80.73906891199688 53 30.75
      vertex 81.98338335072809 53 31.0219035725218
    endloop
  endfacet
  facet normal 0 1 0
    outer loop
      vertex 80.73064821370681 53 30.456708580912725
      vertex 82.16506350946109 53 30.75
      vertex 80.73051371481047 53 30.452024008349483
    endloop
  endfacet
  facet normal 0 1 0
    outer loop
      vertex 80.7468755432148 53 31.0219035725218
      vertex 80.75393453373606 53 31.26776695296637
      vertex 81.52190357252181 53 31.483383350728086
    endloop
  endfacet
  facet normal 0 1 0
    outer loop
      vertex 80.73906891199688 53 30.75
      vertex 80.7468755432148 53 31.0219035725218
      vertex 81.76776695296637 53 31.26776695296637
    endloop
  endfacet
  facet normal 0 1 0
    outer loop
      vertex 80.75393453373606 53 31.26776695296637
      vertex 81.25 53 31.665063509461095
      vertex 81.52190357252181 53 31.483383350728086
    endloop
  endfacet
  facet normal 0 1 0
    outer loop
      vertex 81.98338335072809 53 27.9780964274782
      vertex 81.76776695296637 53 27.73223304703363
      vertex 80.4592201188381 53 28.391344560986457
    endloop
  endfacet
  facet normal 0 1 0
    outer loop
      vertex 80.84852813742386 53 28.651471862576145
      vertex 80.95202400834948 53 28.769486285189537
      vertex 81.98338335072809 53 27.9780964274782
    endloop
  endfacet
  facet normal 0 1 0
    outer loop
      vertex 80.95202400834948 53 28.769486285189537
      vertex 81.03923048454132 53 28.9
      vertex 82.16506350946109 53 28.25
    endloop
  endfacet
  facet normal 0 1 0
    outer loop
      vertex 81.03923048454132 53 28.9
      vertex 81.10865543901355 53 29.040779881161892
      vertex 82.16506350946109 53 28.25
    endloop
  endfacet
  facet normal 0 1 0
    outer loop
      vertex 81.10865543901355 53 29.040779881161892
      vertex 81.15911099154688 53 29.189417145876973
      vertex 82.30969883127821 53 28.543291419087275
    endloop
  endfacet
  facet normal 0 1 0
    outer loop
      vertex 81.15911099154688 53 29.189417145876973
      vertex 81.18973383364857 53 29.343368569335937
      vertex 82.30969883127821 53 28.543291419087275
    endloop
  endfacet
  facet normal 0 1 0
    outer loop
      vertex 82.16506350946109 53 28.25
      vertex 81.98338335072809 53 27.9780964274782
      vertex 80.95202400834948 53 28.769486285189537
    endloop
  endfacet
  facet normal 0 1 0
    outer loop
      vertex 81.18973383364857 53 29.343368569335937
      vertex 81.2 53 29.5
      vertex 82.30969883127821 53 28.543291419087275
    endloop
  endfacet
  facet normal 0 1 0
    outer loop
      vertex 81.2 53 29.5
      vertex 81.18973383364857 53 29.656631430664063
      vertex 82.41481456572266 53 28.852952387243697
    endloop
  endfacet
  facet normal 0 1 0
    outer loop
      vertex 81.18973383364857 53 29.656631430664063
      vertex 81.15911099154688 53 29.810582854123027
      vertex 82.41481456572266 53 28.852952387243697
    endloop
  endfacet
  facet normal 0 1 0
    outer loop
      vertex 82.30969883127821 53 28.543291419087275
      vertex 82.16506350946109 53 28.25
      vertex 81.10865543901355 53 29.040779881161892
    endloop
  endfacet
  facet normal 0 1 0
    outer loop
      vertex 80.84852813742386 53 30.348528137423855
      vertex 80.73051371481047 53 30.452024008349483
      vertex 82.47861215343453 53 29.17368451944987
    endloop
  endfacet
  facet normal 0 1 0
    outer loop
      vertex 81.03923048454132 53 30.1
      vertex 80.95202400834948 53 30.230513714810463
      vertex 82.41481456572266 53 28.852952387243697
    endloop
  endfacet
  facet normal 0 1 0
    outer loop
      vertex 80.95202400834948 53 30.230513714810463
      vertex 80.84852813742386 53 30.348528137423855
      vertex 82.47861215343453 53 29.17368451944987
    endloop
  endfacet
  facet normal 0 1 0
    outer loop
      vertex 81.10865543901355 53 29.959220118838108
      vertex 81.03923048454132 53 30.1
      vertex 82.41481456572266 53 28.852952387243697
    endloop
  endfacet
  facet normal 0 1 0
    outer loop
      vertex 81.15911099154688 53 29.810582854123027
      vertex 81.10865543901355 53 29.959220118838108
      vertex 82.41481456572266 53 28.852952387243697
    endloop
  endfacet
  facet normal 0 1 0
    outer loop
      vertex 80.7468755432148 53 31.0219035725218
      vertex 81.52190357252181 53 31.483383350728086
      vertex 81.76776695296637 53 31.26776695296637
    endloop
  endfacet
  facet normal 0 1 0
    outer loop
      vertex 80.73906891199688 53 30.75
      vertex 81.76776695296637 53 31.26776695296637
      vertex 81.98338335072809 53 31.0219035725218
    endloop
  endfacet
  facet normal 0 1 0
    outer loop
      vertex 80.73064821370681 53 30.456708580912725
      vertex 81.98338335072809 53 31.0219035725218
      vertex 82.16506350946109 53 30.75
    endloop
  endfacet
  facet normal 0 1 0
    outer loop
      vertex 82.30969883127821 53 30.456708580912725
      vertex 80.73051371481047 53 30.452024008349483
      vertex 82.16506350946109 53 30.75
    endloop
  endfacet
  facet normal 0 1 0
    outer loop
      vertex 82.41481456572266 53 30.147047612756303
      vertex 80.73051371481047 53 30.452024008349483
      vertex 82.30969883127821 53 30.456708580912725
    endloop
  endfacet
  facet normal 0 1 0
    outer loop
      vertex 82.47861215343453 53 29.82631548055013
      vertex 80.73051371481047 53 30.452024008349483
      vertex 82.41481456572266 53 30.147047612756303
    endloop
  endfacet
  facet normal 0 1 0
    outer loop
      vertex 82.47861215343453 53 29.17368451944987
      vertex 82.41481456572266 53 28.852952387243697
      vertex 80.95202400834948 53 30.230513714810463
    endloop
  endfacet
  facet normal 0 1 0
    outer loop
      vertex 82.41481456572266 53 28.852952387243697
      vertex 82.30969883127821 53 28.543291419087275
      vertex 81.2 53 29.5
    endloop
  endfacet
  facet normal 0 1 0
    outer loop
      vertex 82.5 53 29.5
      vertex 82.47861215343453 53 29.17368451944987
      vertex 80.73051371481047 53 30.452024008349483
    endloop
  endfacet
  facet normal 0 1 0
    outer loop
      vertex 82.5 53 29.5
      vertex 80.73051371481047 53 30.452024008349483
      vertex 82.47861215343453 53 29.82631548055013
    endloop
  endfacet
  facet normal 0 1 0
    outer loop
      vertex 80.45742290045182 53 42.04746673383916
      vertex 80.4574733430892 53 42.08518543427733
      vertex 80.51670673644004 53 42.08728525915836
    endloop
  endfacet
  facet normal 0 1 0
    outer loop
      vertex 80.51670673644004 53 42.08728525915836
      vertex 80.61976077275075 53 42.087365224497766
      vertex 80.45742290045182 53 42.04746673383916
    endloop
  endfacet
  facet normal 0 1 0
    outer loop
      vertex 80.6470476127563 53 42.08518543427733
      vertex 80.45742290045182 53 42.04746673383916
      vertex 80.61976077275075 53 42.087365224497766
    endloop
  endfacet
  facet normal 0 1 0
    outer loop
      vertex 80 53 47
      vertex 80.32631548055014 53 46.978612153434526
      vertex 80 53 45.7
    endloop
  endfacet
  facet normal 0 1 0
    outer loop
      vertex 80.6470476127563 53 46.91481456572267
      vertex 80 53 45.7
      vertex 80.32631548055014 53 46.978612153434526
    endloop
  endfacet
  facet normal 0 1 0
    outer loop
      vertex 80.6470476127563 53 46.91481456572267
      vertex 80.95670858091272 53 46.80969883127822
      vertex 80 53 45.7
    endloop
  endfacet
  facet normal 0 1 0
    outer loop
      vertex 80.77130095307538 53 42.12736375982664
      vertex 80.76949395533534 53 42.19030116872178
      vertex 80.81771106246327 53 42.204251802490646
    endloop
  endfacet
  facet normal 0 1 0
    outer loop
      vertex 80.81771106246327 53 42.204251802490646
      vertex 80.90811207398816 53 42.20502299383995
      vertex 80.77130095307538 53 42.12736375982664
    endloop
  endfacet
  facet normal 0 1 0
    outer loop
      vertex 80.90811207398816 53 42.20502299383995
      vertex 80.9146451664446 53 42.2050947159235
      vertex 80.77130095307538 53 42.12736375982664
    endloop
  endfacet
  facet normal 0 1 0
    outer loop
      vertex 80.95670858091272 53 42.19030116872178
      vertex 80.77130095307538 53 42.12736375982664
      vertex 80.9146451664446 53 42.2050947159235
    endloop
  endfacet
  facet normal 0 1 0
    outer loop
      vertex 81.10097867808037 53 42.2614473072531
      vertex 81.09848658691632 53 42.3349364905389
      vertex 81.13617767491765 53 42.359483691115855
    endloop
  endfacet
  facet normal 0 1 0
    outer loop
      vertex 81.13617767491765 53 42.359483691115855
      vertex 81.18728993258065 53 42.36092790550431
      vertex 81.10097867808037 53 42.2614473072531
    endloop
  endfacet
  facet normal 0 1 0
    outer loop
      vertex 81.22750166671969 53 42.36251704232526
      vertex 81.10097867808037 53 42.2614473072531
      vertex 81.18728993258065 53 42.36092790550431
    endloop
  endfacet
  facet normal 0 1 0
    outer loop
      vertex 81.25 53 42.3349364905389
      vertex 81.10097867808037 53 42.2614473072531
      vertex 81.22750166671969 53 42.36251704232526
    endloop
  endfacet
  facet normal 0 1 0
    outer loop
      vertex 80 53 45.7
      vertex 81.98338335072809 53 46.0219035725218
      vertex 80.15663143066406 53 45.689733833648575
    endloop
  endfacet
  facet normal 0 1 0
    outer loop
      vertex 81.25 53 46.6650635094611
      vertex 80 53 45.7
      vertex 80.95670858091272 53 46.80969883127822
    endloop
  endfacet
  facet normal 0 1 0
    outer loop
      vertex 80.15663143066406 53 45.689733833648575
      vertex 81.98338335072809 53 46.0219035725218
      vertex 80.31058285412303 53 45.65911099154688
    endloop
  endfacet
  facet normal 0 1 0
    outer loop
      vertex 80.4592201188381 53 45.608655439013546
      vertex 80.31058285412303 53 45.65911099154688
      vertex 81.98338335072809 53 46.0219035725218
    endloop
  endfacet
  facet normal 0 1 0
    outer loop
      vertex 81.52190357252181 53 46.48338335072809
      vertex 80 53 45.7
      vertex 81.25 53 46.6650635094611
    endloop
  endfacet
  facet normal 0 1 0
    outer loop
      vertex 80.4592201188381 53 45.608655439013546
      vertex 81.98338335072809 53 46.0219035725218
      vertex 80.6 53 45.53923048454133
    endloop
  endfacet
  facet normal 0 1 0
    outer loop
      vertex 80.73051371481047 53 45.45202400834948
      vertex 82.16506350946109 53 45.75
      vertex 80.84852813742386 53 45.348528137423855
    endloop
  endfacet
  facet normal 0 1 0
    outer loop
      vertex 81.76776695296637 53 46.26776695296637
      vertex 80 53 45.7
      vertex 81.52190357252181 53 46.48338335072809
    endloop
  endfacet
  facet normal 0 1 0
    outer loop
      vertex 81.25 53 42.3349364905389
      vertex 81.22750166671969 53 42.36251704232526
      vertex 81.33169385710517 53 42.3895225807058
    endloop
  endfacet
  facet normal 0 1 0
    outer loop
      vertex 81.22750166671969 53 42.36251704232526
      vertex 81.26093083351934 53 42.38562199492367
      vertex 81.33169385710517 53 42.3895225807058
    endloop
  endfacet
  facet normal 0 1 0
    outer loop
      vertex 81.28819730472361 53 42.388558085517246
      vertex 81.33169385710517 53 42.3895225807058
      vertex 81.26093083351934 53 42.38562199492367
    endloop
  endfacet
  facet normal 0 1 0
    outer loop
      vertex 81.28819730472361 53 42.388558085517246
      vertex 81.28174701668159 53 42.51661664927191
      vertex 81.33169385710517 53 42.3895225807058
    endloop
  endfacet
  facet normal 0 1 0
    outer loop
      vertex 81.28174701668159 53 42.51661664927191
      vertex 81.30519002039247 53 42.53911347961351
      vertex 81.33169385710517 53 42.3895225807058
    endloop
  endfacet
  facet normal 0 1 0
    outer loop
      vertex 81.319673518405 53 42.55496275167388
      vertex 81.33169385710517 53 42.3895225807058
      vertex 81.30519002039247 53 42.53911347961351
    endloop
  endfacet
  facet normal 0 1 0
    outer loop
      vertex 81.319673518405 53 42.55496275167388
      vertex 81.52190357252181 53 42.51661664927191
      vertex 81.33169385710517 53 42.3895225807058
    endloop
  endfacet
  facet normal 0 1 0
    outer loop
      vertex 81.277986433688 53 43.191857896669816
      vertex 81.27353038137998 53 43.25
      vertex 81.98338335072809 53 42.9780964274782
    endloop
  endfacet
  facet normal 0 1 0
    outer loop
      vertex 81.2563436344594 53 43.47425087191334
      vertex 81.24729052380808 53 43.59237491053853
      vertex 82.16506350946109 53 43.25
    endloop
  endfacet
  facet normal 0 1 0
    outer loop
      vertex 81.27353038137998 53 43.25
      vertex 82.16506350946109 53 43.25
      vertex 81.98338335072809 53 42.9780964274782
    endloop
  endfacet
  facet normal 0 1 0
    outer loop
      vertex 81.23331083252508 53 43.77478045672922
      vertex 81.23137983023994 53 43.799975972094
      vertex 82.30969883127821 53 43.543291419087275
    endloop
  endfacet
  facet normal 0 1 0
    outer loop
      vertex 80.95202400834948 53 45.23051371481046
      vertex 80.84852813742386 53 45.348528137423855
      vertex 82.16506350946109 53 45.75
    endloop
  endfacet
  facet normal 0 1 0
    outer loop
      vertex 81.10865543901355 53 44.95922011883811
      vertex 81.03923048454132 53 45.1
      vertex 82.30969883127821 53 45.456708580912725
    endloop
  endfacet
  facet normal 0 1 0
    outer loop
      vertex 81.76776695296637 53 46.26776695296637
      vertex 81.98338335072809 53 46.0219035725218
      vertex 80 53 45.7
    endloop
  endfacet
  facet normal 0 1 0
    outer loop
      vertex 81.18973383364857 53 44.34336856933594
      vertex 81.2 53 44.5
      vertex 82.41481456572266 53 45.1470476127563
    endloop
  endfacet
  facet normal 0 1 0
    outer loop
      vertex 81.2 53 44.5
      vertex 81.18973383364857 53 44.65663143066406
      vertex 82.41481456572266 53 45.1470476127563
    endloop
  endfacet
  facet normal 0 1 0
    outer loop
      vertex 81.18973383364857 53 44.65663143066406
      vertex 81.15911099154688 53 44.81058285412303
      vertex 82.41481456572266 53 45.1470476127563
    endloop
  endfacet
  facet normal 0 1 0
    outer loop
      vertex 82.16506350946109 53 45.75
      vertex 82.30969883127821 53 45.456708580912725
      vertex 80.95202400834948 53 45.23051371481046
    endloop
  endfacet
  facet normal 0 1 0
    outer loop
      vertex 81.98338335072809 53 46.0219035725218
      vertex 82.16506350946109 53 45.75
      vertex 80.6 53 45.53923048454133
    endloop
  endfacet
  facet normal 0 1 0
    outer loop
      vertex 81.24729052380808 53 43.59237491053853
      vertex 82.30969883127821 53 43.543291419087275
      vertex 82.16506350946109 53 43.25
    endloop
  endfacet
  facet normal 0 1 0
    outer loop
      vertex 81.23137983023994 53 43.799975972094
      vertex 82.41481456572266 53 43.8529523872437
      vertex 82.30969883127821 53 43.543291419087275
    endloop
  endfacet
  facet normal 0 1 0
    outer loop
      vertex 82.47861215343453 53 44.82631548055013
      vertex 81.18973383364857 53 44.34336856933594
      vertex 82.41481456572266 53 45.1470476127563
    endloop
  endfacet
  facet normal 0 1 0
    outer loop
      vertex 82.30969883127821 53 45.456708580912725
      vertex 82.41481456572266 53 45.1470476127563
      vertex 81.10865543901355 53 44.95922011883811
    endloop
  endfacet
  facet normal 0 1 0
    outer loop
      vertex 82.5 53 44.5
      vertex 81.18973383364857 53 44.34336856933594
      vertex 82.47861215343453 53 44.82631548055013
    endloop
  endfacet
endsolid OpenSCAD_Model
