solid OpenSCAD_Model
  facet normal 0 0 1
    outer loop
      vertex 66.3 -51 48.3
      vertex 68.90619494802273 -51 48.3
      vertex 66.3 -50.80200607902735 48.3
    endloop
  endfacet
  facet normal 0 0 1
    outer loop
      vertex 66.3 -50.80200607902735 48.3
      vertex 68.90619494802273 -51 48.3
      vertex 67.2629800126197 -50.621697923254054 48.3
    endloop
  endfacet
  facet normal 0 0 1
    outer loop
      vertex 66.3 -50.400000000000006 48.3
      vertex 67.57382206944477 -49.803411217750615 48.3
      vertex 67.8203409273233 -49.59037305157222 48.3
    endloop
  endfacet
  facet normal 0 0 1
    outer loop
      vertex 68.90619494802273 -51 48.3
      vertex 68.63729358421917 -50.466230095541455 48.3
      vertex 67.2629800126197 -50.621697923254054 48.3
    endloop
  endfacet
  facet normal 0 0 1
    outer loop
      vertex 68.90619494802273 -51 48.3
      vertex 68.68313635274119 -50.45996883046041 48.3
      vertex 68.63729358421917 -50.466230095541455 48.3
    endloop
  endfacet
  facet normal 0 0 1
    outer loop
      vertex 68.90619494802273 -51 48.3
      vertex 68.73521543893447 -50.50239743149324 48.3
      vertex 68.68313635274119 -50.45996883046041 48.3
    endloop
  endfacet
  facet normal 0 0 1
    outer loop
      vertex 68.90619494802273 -51 48.3
      vertex 68.8331094163829 -50.49093507291684 48.3
      vertex 68.73521543893447 -50.50239743149324 48.3
    endloop
  endfacet
  facet normal 0 0 1
    outer loop
      vertex 68.90619494802273 -51 48.3
      vertex 68.89641823853795 -50.511072533121805 48.3
      vertex 68.8331094163829 -50.49093507291684 48.3
    endloop
  endfacet
  facet normal 0 0 1
    outer loop
      vertex 68.90619494802273 -51 48.3
      vertex 68.96091328500209 -50.504178235051505 48.3
      vertex 68.89641823853795 -50.511072533121805 48.3
    endloop
  endfacet
  facet normal 0 0 1
    outer loop
      vertex 68.90619494802273 -51 48.3
      vertex 69.02477005810286 -50.50354111544016 48.3
      vertex 68.96091328500209 -50.504178235051505 48.3
    endloop
  endfacet
  facet normal 0 0 1
    outer loop
      vertex 66.3 -50.400000000000006 48.3
      vertex 67.76054899603898 -49.531565461814665 48.3
      vertex 66.011630374427 -47.81064332095704 48.3
    endloop
  endfacet
  facet normal 0 0 1
    outer loop
      vertex 66.3 -50.400000000000006 48.3
      vertex 67.8203409273233 -49.59037305157222 48.3
      vertex 67.76054899603898 -49.531565461814665 48.3
    endloop
  endfacet
  facet normal 0 0 1
    outer loop
      vertex 66.3 -50.400000000000006 48.3
      vertex 66.011630374427 -47.81064332095704 48.3
      vertex 66 -47.8 48.3
    endloop
  endfacet
  facet normal 0 0 1
    outer loop
      vertex 67.82677134043877 -49.060391455822256 48.3
      vertex 66 -47.8 48.3
      vertex 66.01138604272673 -47.808449393913726 48.3
    endloop
  endfacet
  facet normal 0 0 1
    outer loop
      vertex 66 -47.8 48.3
      vertex 67.84839004105916 -48.96731981638358 48.3
      vertex 66.16060245113597 -47.81578565883129 48.3
    endloop
  endfacet
  facet normal 0 0 1
    outer loop
      vertex 67.82677134043877 -49.060391455822256 48.3
      vertex 66.98531446170036 -48.436621713446876 48.3
      vertex 66 -47.8 48.3
    endloop
  endfacet
  facet normal 0 0 1
    outer loop
      vertex 67.84579813671482 -48.974955320362845 48.3
      vertex 66 -47.8 48.3
      vertex 66.98531446170036 -48.436621713446876 48.3
    endloop
  endfacet
  facet normal 0 0 1
    outer loop
      vertex 67.84579813671482 -48.974955320362845 48.3
      vertex 67.84839004105916 -48.96731981638358 48.3
      vertex 66 -47.8 48.3
    endloop
  endfacet
  facet normal 0 0 1
    outer loop
      vertex 67.92029191363453 -48.78208045677296 48.3
      vertex 67.40492392744743 -48.44486494956899 48.3
      vertex 66.44150922286038 -47.84339606222474 48.3
    endloop
  endfacet
  facet normal 0 0 1
    outer loop
      vertex 67.96263385589575 -48.6972098173583 48.3
      vertex 66.44150922286038 -47.84339606222474 48.3
      vertex 67.40492392744743 -48.44486494956899 48.3
    endloop
  endfacet
  facet normal 0 0 1
    outer loop
      vertex 67.8563614821075 -48.94383670830584 48.3
      vertex 67.8825437013069 -48.866706377736186 48.3
      vertex 66.44150922286038 -47.84339606222474 48.3
    endloop
  endfacet
  facet normal 0 0 1
    outer loop
      vertex 67.8825437013069 -48.866706377736186 48.3
      vertex 67.70079224868911 -48.7359216670433 48.3
      vertex 66.44150922286038 -47.84339606222474 48.3
    endloop
  endfacet
  facet normal 0 0 1
    outer loop
      vertex 67.92029191363453 -48.78208045677296 48.3
      vertex 66.44150922286038 -47.84339606222474 48.3
      vertex 67.70079224868911 -48.7359216670433 48.3
    endloop
  endfacet
  facet normal 0 0 1
    outer loop
      vertex 67.96263385589575 -48.6972098173583 48.3
      vertex 68.01535685926534 -48.61830426669034 48.3
      vertex 66.44150922286038 -47.84339606222474 48.3
    endloop
  endfacet
  facet normal 0 0 1
    outer loop
      vertex 68.01535685926534 -48.61830426669034 48.3
      vertex 67.61774977727923 -48.407837333816374 48.3
      vertex 66.44150922286038 -47.84339606222474 48.3
    endloop
  endfacet
  facet normal 0 0 1
    outer loop
      vertex 68.07072565628185 -48.5435452644309 48.3
      vertex 66.44150922286038 -47.84339606222474 48.3
      vertex 67.61774977727923 -48.407837333816374 48.3
    endloop
  endfacet
  facet normal 0 0 1
    outer loop
      vertex 68.12983529177134 -48.476143643083184 48.3
      vertex 67.87193167665178 -48.366826290976164 48.3
      vertex 66.44150922286038 -47.84339606222474 48.3
    endloop
  endfacet
  facet normal 0 0 1
    outer loop
      vertex 66.44150922286038 -47.84339606222474 48.3
      vertex 68.38055310569709 -48.25703595876487 48.3
      vertex 67.126425134054 -47.9107166343938 48.3
    endloop
  endfacet
  facet normal 0 0 1
    outer loop
      vertex 68.07072565628185 -48.5435452644309 48.3
      vertex 68.12983529177134 -48.476143643083184 48.3
      vertex 66.44150922286038 -47.84339606222474 48.3
    endloop
  endfacet
  facet normal 0 0 1
    outer loop
      vertex 68.1904598111224 -48.41728034936071 48.3
      vertex 66.44150922286038 -47.84339606222474 48.3
      vertex 67.87193167665178 -48.366826290976164 48.3
    endloop
  endfacet
  facet normal 0 0 1
    outer loop
      vertex 68.1904598111224 -48.41728034936071 48.3
      vertex 68.247767140234 -48.367023170572836 48.3
      vertex 66.44150922286038 -47.84339606222474 48.3
    endloop
  endfacet
  facet normal 0 0 1
    outer loop
      vertex 68.247767140234 -48.367023170572836 48.3
      vertex 68.01517641191761 -48.28657191712399 48.3
      vertex 66.44150922286038 -47.84339606222474 48.3
    endloop
  endfacet
  facet normal 0 0 1
    outer loop
      vertex 68.30120790650808 -48.326780281925295 48.3
      vertex 66.44150922286038 -47.84339606222474 48.3
      vertex 68.01517641191761 -48.28657191712399 48.3
    endloop
  endfacet
  facet normal 0 0 1
    outer loop
      vertex 68.30120790650808 -48.326780281925295 48.3
      vertex 68.39830444578281 -48.26190244856603 48.3
      vertex 66.44150922286038 -47.84339606222474 48.3
    endloop
  endfacet
  facet normal 0 0 1
    outer loop
      vertex 68.39830444578281 -48.26190244856603 48.3
      vertex 68.38055310569709 -48.25703595876487 48.3
      vertex 66.44150922286038 -47.84339606222474 48.3
    endloop
  endfacet
  facet normal 0 0 1
    outer loop
      vertex 68.40572020744264 -48.257948621322384 48.3
      vertex 67.126425134054 -47.9107166343938 48.3
      vertex 68.38055310569709 -48.25703595876487 48.3
    endloop
  endfacet
  facet normal 0 0 1
    outer loop
      vertex 68.90619494802273 -51 48.3
      vertex 69.13918492091719 -50.49156066793427 48.3
      vertex 69.02477005810286 -50.50354111544016 48.3
    endloop
  endfacet
  facet normal 0 0 1
    outer loop
      vertex 70.5 -49.021255817597535 48.3
      vertex 70.20480716000874 -49.305916504626126 48.3
      vertex 70.2410929810326 -49.35057597665549 48.3
    endloop
  endfacet
  facet normal 0 0 1
    outer loop
      vertex 70.5 -49.021255817597535 48.3
      vertex 70.26211779412068 -49.240411401782204 48.3
      vertex 70.20480716000874 -49.305916504626126 48.3
    endloop
  endfacet
  facet normal 0 0 1
    outer loop
      vertex 70.5 -49.021255817597535 48.3
      vertex 70.19591687607812 -49.15165797415137 48.3
      vertex 70.26211779412068 -49.240411401782204 48.3
    endloop
  endfacet
  facet normal 0 0 1
    outer loop
      vertex 70.5 -49.021255817597535 48.3
      vertex 70.27787025231873 -49.0779639913484 48.3
      vertex 70.19591687607812 -49.15165797415137 48.3
    endloop
  endfacet
  facet normal 0 0 1
    outer loop
      vertex 70.5 -49.021255817597535 48.3
      vertex 70.17110474701019 -49.049713826376525 48.3
      vertex 70.27787025231873 -49.0779639913484 48.3
    endloop
  endfacet
  facet normal 0 0 1
    outer loop
      vertex 70.5 -49.021255817597535 48.3
      vertex 70.5 -48.76916528406818 48.3
      vertex 70.17110474701019 -49.049713826376525 48.3
    endloop
  endfacet
  facet normal 0 0 1
    outer loop
      vertex 70.5 -48.00060664600042 48.3
      vertex 70.13231694336582 -48.501744797312114 48.3
      vertex 70.06852523305673 -48.68655360894994 48.3
    endloop
  endfacet
  facet normal 0 0 1
    outer loop
      vertex 70.5 -48.00060664600042 48.3
      vertex 70.02794011056136 -48.540962318250834 48.3
      vertex 70.13231694336582 -48.501744797312114 48.3
    endloop
  endfacet
  facet normal 0 0 1
    outer loop
      vertex 70.5 -48.00060664600042 48.3
      vertex 70.06852523305673 -48.68655360894994 48.3
      vertex 70.5 -48.6254285622756 48.3
    endloop
  endfacet
  facet normal 0 0 1
    outer loop
      vertex 70.5 -48.00060664600042 48.3
      vertex 70.10637668334972 -48.373394581902005 48.3
      vertex 70.02794011056136 -48.540962318250834 48.3
    endloop
  endfacet
  facet normal 0 0 1
    outer loop
      vertex 70.5 -48.00060664600042 48.3
      vertex 69.96503213120234 -48.41619411846772 48.3
      vertex 70.10637668334972 -48.373394581902005 48.3
    endloop
  endfacet
  facet normal 0 0 1
    outer loop
      vertex 70.5 -48.00060664600042 48.3
      vertex 70.0906287386446 -48.261024865934736 48.3
      vertex 69.96503213120234 -48.41619411846772 48.3
    endloop
  endfacet
  facet normal 0 0 1
    outer loop
      vertex 70.5 -48.00060664600042 48.3
      vertex 69.92809710505101 -48.3002687396141 48.3
      vertex 70.0906287386446 -48.261024865934736 48.3
    endloop
  endfacet
  facet normal 0 0 1
    outer loop
      vertex 70.5 -48.00060664600042 48.3
      vertex 70.14430752834843 -48.15626938375133 48.3
      vertex 69.92809710505101 -48.3002687396141 48.3
    endloop
  endfacet
  facet normal 0 0 1
    outer loop
      vertex 70.36147988450436 -48.05237366684944 48.3
      vertex 70.01920161896977 -48.18028812927025 48.3
      vertex 70.14430752834843 -48.15626938375133 48.3
    endloop
  endfacet
  facet normal 0 0 1
    outer loop
      vertex 70.5 -48.00060664600042 48.3
      vertex 70.36147988450436 -48.05237366684944 48.3
      vertex 70.14430752834843 -48.15626938375133 48.3
    endloop
  endfacet
  facet normal 0 0 1
    outer loop
      vertex 70.5 -48.00060664600042 48.3
      vertex 70.44908508927546 -47.99658157044271 48.3
      vertex 70.36147988450436 -48.05237366684944 48.3
    endloop
  endfacet
  facet normal 0 0 1
    outer loop
      vertex 66.3 -51 48.3
      vertex 66.3 -52 48.3
      vertex 69.8 -52 48.3
    endloop
  endfacet
  facet normal 0 0 1
    outer loop
      vertex 66.3 -51 48.3
      vertex 69.8 -52 48.3
      vertex 68.90619494802273 -51 48.3
    endloop
  endfacet
  facet normal 0 0 1
    outer loop
      vertex 67.84839004105916 -48.96731981638358 48.3
      vertex 67.8563614821075 -48.94383670830584 48.3
      vertex 66.44150922286038 -47.84339606222474 48.3
    endloop
  endfacet
  facet normal 0 0 1
    outer loop
      vertex 67.84839004105916 -48.96731981638358 48.3
      vertex 66.44150922286038 -47.84339606222474 48.3
      vertex 66.16060245113597 -47.81578565883129 48.3
    endloop
  endfacet
  facet normal 0 0 1
    outer loop
      vertex 68.90619494802273 -51 48.3
      vertex 69.8 -52 48.3
      vertex 69.17514304628901 -50.492974761974914 48.3
    endloop
  endfacet
  facet normal 0 0 1
    outer loop
      vertex 69.8 -52 48.3
      vertex 69.17789420220775 -50.48550440542376 48.3
      vertex 69.17514304628901 -50.492974761974914 48.3
    endloop
  endfacet
  facet normal 0 0 1
    outer loop
      vertex 69.17789420220775 -50.48550440542376 48.3
      vertex 69.8 -52 48.3
      vertex 69.4398275583978 -50.48513735642798 48.3
    endloop
  endfacet
  facet normal 0 0 1
    outer loop
      vertex 69.8 -52 48.3
      vertex 69.47335723608288 -50.40168378430702 48.3
      vertex 69.4398275583978 -50.48513735642798 48.3
    endloop
  endfacet
  facet normal 0 0 1
    outer loop
      vertex 69.8 -52 48.3
      vertex 70.42239304812834 -50.87969251336898 48.3
      vertex 69.47335723608288 -50.40168378430702 48.3
    endloop
  endfacet
  facet normal 0 0 1
    outer loop
      vertex 68.90619494802273 -51 48.3
      vertex 69.17514304628901 -50.492974761974914 48.3
      vertex 69.13918492091719 -50.49156066793427 48.3
    endloop
  endfacet
  facet normal 0 0 1
    outer loop
      vertex 69.47335723608288 -50.40168378430702 48.3
      vertex 70.42239304812834 -50.87969251336898 48.3
      vertex 70.56450248236216 -50.62389553174812 48.3
    endloop
  endfacet
  facet normal 0 0 1
    outer loop
      vertex 70.2410929810326 -49.35057597665549 48.3
      vertex 70.25714321822737 -49.53088854687293 48.3
      vertex 71.99302710690463 -47.80517446859239 48.3
    endloop
  endfacet
  facet normal 0 0 1
    outer loop
      vertex 70.5 -49.021255817597535 48.3
      vertex 70.2410929810326 -49.35057597665549 48.3
      vertex 71.99801409132198 -47.800216700810054 48.3
    endloop
  endfacet
  facet normal 0 0 1
    outer loop
      vertex 70.5 -49.021255817597535 48.3
      vertex 71.99801409132198 -47.800216700810054 48.3
      vertex 70.5 -48.76916528406818 48.3
    endloop
  endfacet
  facet normal 0 0 1
    outer loop
      vertex 70.5 -48.00060664600042 48.3
      vertex 70.5 -48.6254285622756 48.3
      vertex 71.99801409132198 -47.800216700810054 48.3
    endloop
  endfacet
  facet normal 0 0 1
    outer loop
      vertex 70.5 -48.00060664600042 48.3
      vertex 71.99801409132198 -47.800216700810054 48.3
      vertex 70.44908508927546 -47.99658157044271 48.3
    endloop
  endfacet
  facet normal 0 0 1
    outer loop
      vertex 71.94545454545455 -48.138181818181806 48.3
      vertex 71.99302710690463 -47.80517446859239 48.3
      vertex 70.25714321822737 -49.53088854687293 48.3
    endloop
  endfacet
  facet normal 0 0 1
    outer loop
      vertex 70.2410929810326 -49.35057597665549 48.3
      vertex 71.99302710690463 -47.80517446859239 48.3
      vertex 71.99801409132198 -47.800216700810054 48.3
    endloop
  endfacet
  facet normal 0 0 -1
    outer loop
      vertex 66.3 -51 48.3
      vertex 70.42239304812834 -50.87969251336898 48.3
      vertex 66.3 -52 48.3
    endloop
  endfacet
  facet normal 0 0 -1
    outer loop
      vertex 69.8 -52 48.3
      vertex 66.3 -52 48.3
      vertex 70.42239304812834 -50.87969251336898 48.3
    endloop
  endfacet
  facet normal 0 0 -1
    outer loop
      vertex 66.3 -51 48.3
      vertex 66.3 -50.80200607902735 48.3
      vertex 70.42239304812834 -50.87969251336898 48.3
    endloop
  endfacet
  facet normal 0 0 -1
    outer loop
      vertex 68.63729358421917 -50.466230095541455 48.3
      vertex 66.3 -50.80200607902735 48.3
      vertex 67.2629800126197 -50.621697923254054 48.3
    endloop
  endfacet
  facet normal 0 0 -1
    outer loop
      vertex 68.63729358421917 -50.466230095541455 48.3
      vertex 68.68313635274119 -50.45996883046041 48.3
      vertex 66.3 -50.80200607902735 48.3
    endloop
  endfacet
  facet normal 0 0 -1
    outer loop
      vertex 68.73521543893447 -50.50239743149324 48.3
      vertex 66.3 -50.80200607902735 48.3
      vertex 68.68313635274119 -50.45996883046041 48.3
    endloop
  endfacet
  facet normal 0 0 -1
    outer loop
      vertex 68.73521543893447 -50.50239743149324 48.3
      vertex 68.8331094163829 -50.49093507291684 48.3
      vertex 66.3 -50.80200607902735 48.3
    endloop
  endfacet
  facet normal 0 0 -1
    outer loop
      vertex 68.89641823853795 -50.511072533121805 48.3
      vertex 66.3 -50.80200607902735 48.3
      vertex 68.8331094163829 -50.49093507291684 48.3
    endloop
  endfacet
  facet normal 0 0 -1
    outer loop
      vertex 68.89641823853795 -50.511072533121805 48.3
      vertex 68.96091328500209 -50.504178235051505 48.3
      vertex 66.3 -50.80200607902735 48.3
    endloop
  endfacet
  facet normal 0 0 -1
    outer loop
      vertex 69.02477005810286 -50.50354111544016 48.3
      vertex 66.3 -50.80200607902735 48.3
      vertex 68.96091328500209 -50.504178235051505 48.3
    endloop
  endfacet
  facet normal 0 0 -1
    outer loop
      vertex 69.02477005810286 -50.50354111544016 48.3
      vertex 69.13918492091719 -50.49156066793427 48.3
      vertex 66.3 -50.80200607902735 48.3
    endloop
  endfacet
  facet normal 0 0 -1
    outer loop
      vertex 66.3 -50.80200607902735 48.3
      vertex 69.13918492091719 -50.49156066793427 48.3
      vertex 69.17514304628901 -50.492974761974914 48.3
    endloop
  endfacet
  facet normal 0 0 -1
    outer loop
      vertex 66.3 -50.80200607902735 48.3
      vertex 69.17514304628901 -50.492974761974914 48.3
      vertex 70.42239304812834 -50.87969251336898 48.3
    endloop
  endfacet
  facet normal 0 0 -1
    outer loop
      vertex 66.3 -50.400000000000006 48.3
      vertex 66 -47.8 48.3
      vertex 67.57382206944477 -49.803411217750615 48.3
    endloop
  endfacet
  facet normal 0 0 -1
    outer loop
      vertex 67.76054899603898 -49.531565461814665 48.3
      vertex 67.57382206944477 -49.803411217750615 48.3
      vertex 66 -47.8 48.3
    endloop
  endfacet
  facet normal 0 0 -1
    outer loop
      vertex 67.76054899603898 -49.531565461814665 48.3
      vertex 66 -47.8 48.3
      vertex 66.011630374427 -47.81064332095704 48.3
    endloop
  endfacet
  facet normal 0 0 -1
    outer loop
      vertex 66.01138604272673 -47.808449393913726 48.3
      vertex 66 -47.8 48.3
      vertex 66.98531446170036 -48.436621713446876 48.3
    endloop
  endfacet
  facet normal 0 0 -1
    outer loop
      vertex 67.82677134043877 -49.060391455822256 48.3
      vertex 66.01138604272673 -47.808449393913726 48.3
      vertex 66.98531446170036 -48.436621713446876 48.3
    endloop
  endfacet
  facet normal 0 0 -1
    outer loop
      vertex 67.70079224868911 -48.7359216670433 48.3
      vertex 66 -47.8 48.3
      vertex 67.40492392744743 -48.44486494956899 48.3
    endloop
  endfacet
  facet normal 0 0 -1
    outer loop
      vertex 66.98531446170036 -48.436621713446876 48.3
      vertex 66 -47.8 48.3
      vertex 67.70079224868911 -48.7359216670433 48.3
    endloop
  endfacet
  facet normal 0 0 -1
    outer loop
      vertex 67.40492392744743 -48.44486494956899 48.3
      vertex 66 -47.8 48.3
      vertex 67.61774977727923 -48.407837333816374 48.3
    endloop
  endfacet
  facet normal 0 0 -1
    outer loop
      vertex 66.16060245113597 -47.81578565883129 48.3
      vertex 68.40572020744264 -48.257948621322384 48.3
      vertex 66 -47.8 48.3
    endloop
  endfacet
  facet normal 0 0 -1
    outer loop
      vertex 66.44150922286038 -47.84339606222474 48.3
      vertex 68.40572020744264 -48.257948621322384 48.3
      vertex 66.16060245113597 -47.81578565883129 48.3
    endloop
  endfacet
  facet normal 0 0 -1
    outer loop
      vertex 67.61774977727923 -48.407837333816374 48.3
      vertex 66 -47.8 48.3
      vertex 67.87193167665178 -48.366826290976164 48.3
    endloop
  endfacet
  facet normal 0 0 -1
    outer loop
      vertex 67.87193167665178 -48.366826290976164 48.3
      vertex 66 -47.8 48.3
      vertex 68.01517641191761 -48.28657191712399 48.3
    endloop
  endfacet
  facet normal 0 0 -1
    outer loop
      vertex 68.30120790650808 -48.326780281925295 48.3
      vertex 68.01517641191761 -48.28657191712399 48.3
      vertex 66 -47.8 48.3
    endloop
  endfacet
  facet normal 0 0 -1
    outer loop
      vertex 66.44150922286038 -47.84339606222474 48.3
      vertex 67.126425134054 -47.9107166343938 48.3
      vertex 68.40572020744264 -48.257948621322384 48.3
    endloop
  endfacet
  facet normal 0 0 -1
    outer loop
      vertex 67.76054899603898 -49.531565461814665 48.3
      vertex 67.8203409273233 -49.59037305157222 48.3
      vertex 67.57382206944477 -49.803411217750615 48.3
    endloop
  endfacet
  facet normal 0 0 -1
    outer loop
      vertex 67.84579813671482 -48.974955320362845 48.3
      vertex 67.70079224868911 -48.7359216670433 48.3
      vertex 67.84839004105916 -48.96731981638358 48.3
    endloop
  endfacet
  facet normal 0 0 -1
    outer loop
      vertex 67.84839004105916 -48.96731981638358 48.3
      vertex 67.70079224868911 -48.7359216670433 48.3
      vertex 67.8563614821075 -48.94383670830584 48.3
    endloop
  endfacet
  facet normal 0 0 -1
    outer loop
      vertex 67.84579813671482 -48.974955320362845 48.3
      vertex 66.98531446170036 -48.436621713446876 48.3
      vertex 67.70079224868911 -48.7359216670433 48.3
    endloop
  endfacet
  facet normal 0 0 -1
    outer loop
      vertex 67.92029191363453 -48.78208045677296 48.3
      vertex 67.70079224868911 -48.7359216670433 48.3
      vertex 67.40492392744743 -48.44486494956899 48.3
    endloop
  endfacet
  facet normal 0 0 -1
    outer loop
      vertex 67.8563614821075 -48.94383670830584 48.3
      vertex 67.70079224868911 -48.7359216670433 48.3
      vertex 67.8825437013069 -48.866706377736186 48.3
    endloop
  endfacet
  facet normal 0 0 -1
    outer loop
      vertex 67.96263385589575 -48.6972098173583 48.3
      vertex 67.40492392744743 -48.44486494956899 48.3
      vertex 67.61774977727923 -48.407837333816374 48.3
    endloop
  endfacet
  facet normal 0 0 -1
    outer loop
      vertex 67.96263385589575 -48.6972098173583 48.3
      vertex 67.61774977727923 -48.407837333816374 48.3
      vertex 68.01535685926534 -48.61830426669034 48.3
    endloop
  endfacet
  facet normal 0 0 -1
    outer loop
      vertex 68.07072565628185 -48.5435452644309 48.3
      vertex 67.61774977727923 -48.407837333816374 48.3
      vertex 67.87193167665178 -48.366826290976164 48.3
    endloop
  endfacet
  facet normal 0 0 -1
    outer loop
      vertex 68.07072565628185 -48.5435452644309 48.3
      vertex 67.87193167665178 -48.366826290976164 48.3
      vertex 68.12983529177134 -48.476143643083184 48.3
    endloop
  endfacet
  facet normal 0 0 -1
    outer loop
      vertex 68.1904598111224 -48.41728034936071 48.3
      vertex 67.87193167665178 -48.366826290976164 48.3
      vertex 68.01517641191761 -48.28657191712399 48.3
    endloop
  endfacet
  facet normal 0 0 -1
    outer loop
      vertex 68.1904598111224 -48.41728034936071 48.3
      vertex 68.01517641191761 -48.28657191712399 48.3
      vertex 68.247767140234 -48.367023170572836 48.3
    endloop
  endfacet
  facet normal 0 0 -1
    outer loop
      vertex 68.30120790650808 -48.326780281925295 48.3
      vertex 66 -47.8 48.3
      vertex 68.39830444578281 -48.26190244856603 48.3
    endloop
  endfacet
  facet normal 0 0 -1
    outer loop
      vertex 68.39830444578281 -48.26190244856603 48.3
      vertex 66 -47.8 48.3
      vertex 68.38055310569709 -48.25703595876487 48.3
    endloop
  endfacet
  facet normal 0 0 -1
    outer loop
      vertex 68.38055310569709 -48.25703595876487 48.3
      vertex 66 -47.8 48.3
      vertex 68.40572020744264 -48.257948621322384 48.3
    endloop
  endfacet
  facet normal 0 0 -1
    outer loop
      vertex 69.17789420220775 -50.48550440542376 48.3
      vertex 69.4398275583978 -50.48513735642798 48.3
      vertex 69.17514304628901 -50.492974761974914 48.3
    endloop
  endfacet
  facet normal 0 0 -1
    outer loop
      vertex 70.56450248236216 -50.62389553174812 48.3
      vertex 69.17514304628901 -50.492974761974914 48.3
      vertex 69.4398275583978 -50.48513735642798 48.3
    endloop
  endfacet
  facet normal 0 0 -1
    outer loop
      vertex 69.47335723608288 -50.40168378430702 48.3
      vertex 70.56450248236216 -50.62389553174812 48.3
      vertex 69.4398275583978 -50.48513735642798 48.3
    endloop
  endfacet
  facet normal 0 0 -1
    outer loop
      vertex 70.42239304812834 -50.87969251336898 48.3
      vertex 69.17514304628901 -50.492974761974914 48.3
      vertex 70.56450248236216 -50.62389553174812 48.3
    endloop
  endfacet
  facet normal 0 0 -1
    outer loop
      vertex 70.17110474701019 -49.049713826376525 48.3
      vertex 70.5 -48.76916528406818 48.3
      vertex 70.27787025231873 -49.0779639913484 48.3
    endloop
  endfacet
  facet normal 0 0 -1
    outer loop
      vertex 70.2410929810326 -49.35057597665549 48.3
      vertex 71.94545454545455 -48.138181818181806 48.3
      vertex 70.25714321822737 -49.53088854687293 48.3
    endloop
  endfacet
  facet normal 0 0 -1
    outer loop
      vertex 70.2410929810326 -49.35057597665549 48.3
      vertex 70.20480716000874 -49.305916504626126 48.3
      vertex 71.94545454545455 -48.138181818181806 48.3
    endloop
  endfacet
  facet normal 0 0 -1
    outer loop
      vertex 70.26211779412068 -49.240411401782204 48.3
      vertex 71.94545454545455 -48.138181818181806 48.3
      vertex 70.20480716000874 -49.305916504626126 48.3
    endloop
  endfacet
  facet normal 0 0 -1
    outer loop
      vertex 70.26211779412068 -49.240411401782204 48.3
      vertex 70.19591687607812 -49.15165797415137 48.3
      vertex 71.94545454545455 -48.138181818181806 48.3
    endloop
  endfacet
  facet normal 0 0 -1
    outer loop
      vertex 71.94545454545455 -48.138181818181806 48.3
      vertex 70.19591687607812 -49.15165797415137 48.3
      vertex 70.27787025231873 -49.0779639913484 48.3
    endloop
  endfacet
  facet normal 0 0 -1
    outer loop
      vertex 70.13231694336582 -48.501744797312114 48.3
      vertex 71.99801409132198 -47.800216700810054 48.3
      vertex 70.06852523305673 -48.68655360894994 48.3
    endloop
  endfacet
  facet normal 0 0 -1
    outer loop
      vertex 71.99801409132198 -47.800216700810054 48.3
      vertex 70.5 -48.6254285622756 48.3
      vertex 70.06852523305673 -48.68655360894994 48.3
    endloop
  endfacet
  facet normal 0 0 -1
    outer loop
      vertex 71.99302710690463 -47.80517446859239 48.3
      vertex 70.27787025231873 -49.0779639913484 48.3
      vertex 70.5 -48.76916528406818 48.3
    endloop
  endfacet
  facet normal 0 0 -1
    outer loop
      vertex 70.0906287386446 -48.261024865934736 48.3
      vertex 71.99801409132198 -47.800216700810054 48.3
      vertex 69.96503213120234 -48.41619411846772 48.3
    endloop
  endfacet
  facet normal 0 0 -1
    outer loop
      vertex 70.0906287386446 -48.261024865934736 48.3
      vertex 69.92809710505101 -48.3002687396141 48.3
      vertex 71.99801409132198 -47.800216700810054 48.3
    endloop
  endfacet
  facet normal 0 0 -1
    outer loop
      vertex 70.13231694336582 -48.501744797312114 48.3
      vertex 70.02794011056136 -48.540962318250834 48.3
      vertex 71.99801409132198 -47.800216700810054 48.3
    endloop
  endfacet
  facet normal 0 0 -1
    outer loop
      vertex 70.10637668334972 -48.373394581902005 48.3
      vertex 71.99801409132198 -47.800216700810054 48.3
      vertex 70.02794011056136 -48.540962318250834 48.3
    endloop
  endfacet
  facet normal 0 0 -1
    outer loop
      vertex 70.10637668334972 -48.373394581902005 48.3
      vertex 69.96503213120234 -48.41619411846772 48.3
      vertex 71.99801409132198 -47.800216700810054 48.3
    endloop
  endfacet
  facet normal 0 0 -1
    outer loop
      vertex 70.14430752834843 -48.15626938375133 48.3
      vertex 71.99801409132198 -47.800216700810054 48.3
      vertex 69.92809710505101 -48.3002687396141 48.3
    endloop
  endfacet
  facet normal 0 0 -1
    outer loop
      vertex 70.14430752834843 -48.15626938375133 48.3
      vertex 70.01920161896977 -48.18028812927025 48.3
      vertex 71.99801409132198 -47.800216700810054 48.3
    endloop
  endfacet
  facet normal 0 0 -1
    outer loop
      vertex 71.99801409132198 -47.800216700810054 48.3
      vertex 70.01920161896977 -48.18028812927025 48.3
      vertex 70.36147988450436 -48.05237366684944 48.3
    endloop
  endfacet
  facet normal 0 0 -1
    outer loop
      vertex 70.44908508927546 -47.99658157044271 48.3
      vertex 71.99801409132198 -47.800216700810054 48.3
      vertex 70.36147988450436 -48.05237366684944 48.3
    endloop
  endfacet
  facet normal 0 0 -1
    outer loop
      vertex 71.99302710690463 -47.80517446859239 48.3
      vertex 71.94545454545455 -48.138181818181806 48.3
      vertex 70.27787025231873 -49.0779639913484 48.3
    endloop
  endfacet
  facet normal 0 0 -1
    outer loop
      vertex 71.99302710690463 -47.80517446859239 48.3
      vertex 70.5 -48.76916528406818 48.3
      vertex 71.99801409132198 -47.800216700810054 48.3
    endloop
  endfacet
endsolid OpenSCAD_Model
