solid OpenSCAD_Model
  facet normal 0 0 1
    outer loop
      vertex 81.82174890676369 -32.941526030702356 35.2
      vertex 78.5 -39.30829904600965 35.2
      vertex 81.85340501554879 -32.9696296345325 35.2
    endloop
  endfacet
  facet normal 0 0 1
    outer loop
      vertex 81.82174890676369 -32.941526030702356 35.2
      vertex 82.46284602723328 -31.638979500224448 35.2
      vertex 78.5 -39.30829904600965 35.2
    endloop
  endfacet
  facet normal 0 0 1
    outer loop
      vertex 82.46284602723328 -31.638979500224448 35.2
      vertex 78.5 -27.326470588235292 35.2
      vertex 78.5 -39.30829904600965 35.2
    endloop
  endfacet
  facet normal 0 0 1
    outer loop
      vertex 82.46284602723328 -31.638979500224448 35.2
      vertex 84.49999999999987 -27.500000000000256 35.2
      vertex 78.5 -27.326470588235292 35.2
    endloop
  endfacet
  facet normal 0 0 1
    outer loop
      vertex 81.82174890676369 -32.941526030702356 35.2
      vertex 81.85340501554879 -32.9696296345325 35.2
      vertex 90.5 -39.34473573765769 35.2
    endloop
  endfacet
  facet normal 0 0 1
    outer loop
      vertex 81.82174890676369 -32.941526030702356 35.2
      vertex 90.5 -39.34473573765769 35.2
      vertex 82.46284602723328 -31.638979500224448 35.2
    endloop
  endfacet
  facet normal 0 0 1
    outer loop
      vertex 90.5 -39.34473573765769 35.2
      vertex 84.49999999999987 -27.500000000000256 35.2
      vertex 82.46284602723328 -31.638979500224448 35.2
    endloop
  endfacet
  facet normal 0 0 -1
    outer loop
      vertex 78.5 -39.30829904600965 35.2
      vertex 78.5 -27.326470588235292 35.2
      vertex 84.49999999999987 -27.500000000000256 35.2
    endloop
  endfacet
  facet normal 0 0 -1
    outer loop
      vertex 78.5 -39.30829904600965 35.2
      vertex 84.49999999999987 -27.500000000000256 35.2
      vertex 81.85340501554879 -32.9696296345325 35.2
    endloop
  endfacet
  facet normal 0 0 -1
    outer loop
      vertex 90.5 -39.34473573765769 35.2
      vertex 81.85340501554879 -32.9696296345325 35.2
      vertex 84.49999999999987 -27.500000000000256 35.2
    endloop
  endfacet
endsolid OpenSCAD_Model
