solid OpenSCAD_Model
  facet normal 0 0 1
    outer loop
      vertex 75.71284237711589 -29.181178695022382 43.3
      vertex 76 -29.2 43.3
      vertex 75.73362013694397 -29.023355940354985 43.3
    endloop
  endfacet
  facet normal 0 0 1
    outer loop
      vertex 76 -29.2 43.3
      vertex 76.28715762288411 -29.181178695022382 43.3
      vertex 76 -28.642372171132727 43.3
    endloop
  endfacet
  facet normal 0 0 1
    outer loop
      vertex 75.43059810077446 -29.12503681783595 43.3
      vertex 75.71284237711589 -29.181178695022382 43.3
      vertex 75.6343625835891 -28.35844344221411 43.3
    endloop
  endfacet
  facet normal 0 0 1
    outer loop
      vertex 76 -29.2 43.3
      vertex 75.93474457227971 -28.401698594771787 43.3
      vertex 75.73362013694397 -29.023355940354985 43.3
    endloop
  endfacet
  facet normal 0 0 1
    outer loop
      vertex 76.28715762288411 -29.181178695022382 43.3
      vertex 76.56940189922554 -29.12503681783595 43.3
      vertex 76.36351783509534 -28.356667030033254 43.3
    endloop
  endfacet
  facet normal 0 0 1
    outer loop
      vertex 76 -29.2 43.3
      vertex 76 -28.642372171132727 43.3
      vertex 75.93474457227971 -28.401698594771787 43.3
    endloop
  endfacet
  facet normal 0 0 1
    outer loop
      vertex 76.28715762288411 -29.181178695022382 43.3
      vertex 76.15663143066406 -28.189733833648575 43.3
      vertex 76 -28.642372171132727 43.3
    endloop
  endfacet
  facet normal 0 0 1
    outer loop
      vertex 74.9 -28.905255888325765 43.3
      vertex 74.83206732226047 -27.86880351273134 43.3
      vertex 74.66072485618082 -28.745377348640716 43.3
    endloop
  endfacet
  facet normal 0 0 1
    outer loop
      vertex 74.9 -28.905255888325765 43.3
      vertex 74.9 -27.987410599955744 43.3
      vertex 74.83206732226047 -27.86880351273134 43.3
    endloop
  endfacet
  facet normal 0 0 1
    outer loop
      vertex 75.71284237711589 -29.181178695022382 43.3
      vertex 75.74572967528805 -28.51515082725067 43.3
      vertex 75.68533232718579 -28.173900627253847 43.3
    endloop
  endfacet
  facet normal 0 0 1
    outer loop
      vertex 75.71284237711589 -29.181178695022382 43.3
      vertex 75.68533232718579 -28.173900627253847 43.3
      vertex 75.6343625835891 -28.35844344221411 43.3
    endloop
  endfacet
  facet normal 0 0 1
    outer loop
      vertex 76.28715762288411 -29.181178695022382 43.3
      vertex 76.24545275170591 -28.336578865595705 43.3
      vertex 76.15663143066406 -28.189733833648575 43.3
    endloop
  endfacet
  facet normal 0 0 1
    outer loop
      vertex 76.56940189922554 -29.12503681783595 43.3
      vertex 76.40826373807882 -28.240708432635778 43.3
      vertex 76.36351783509534 -28.356667030033254 43.3
    endloop
  endfacet
  facet normal 0 0 1
    outer loop
      vertex 76.56940189922554 -29.12503681783595 43.3
      vertex 76.8419035512032 -29.032534971524832 43.3
      vertex 76.5317208891843 -28.072902015733572 43.3
    endloop
  endfacet
  facet normal 0 0 1
    outer loop
      vertex 76.8419035512032 -29.032534971524832 43.3
      vertex 77.1 -28.905255888325765 43.3
      vertex 76.82847529326264 -27.86611400976931 43.3
    endloop
  endfacet
  facet normal 0 0 1
    outer loop
      vertex 76.56940189922554 -29.12503681783595 43.3
      vertex 76.46351437774582 -28.106568283355966 43.3
      vertex 76.40826373807882 -28.240708432635778 43.3
    endloop
  endfacet
  facet normal 0 0 1
    outer loop
      vertex 76.56940189922554 -29.12503681783595 43.3
      vertex 76.5317208891843 -28.072902015733572 43.3
      vertex 76.46351437774582 -28.106568283355966 43.3
    endloop
  endfacet
  facet normal 0 0 1
    outer loop
      vertex 76.8419035512032 -29.032534971524832 43.3
      vertex 76.60413345191695 -28.037221709026586 43.3
      vertex 76.5317208891843 -28.072902015733572 43.3
    endloop
  endfacet
  facet normal 0 0 1
    outer loop
      vertex 77.1 -28.905255888325765 43.3
      vertex 77.33927514381918 -28.745377348640716 43.3
      vertex 77.1 -27.571222704384873 43.3
    endloop
  endfacet
  facet normal 0 0 1
    outer loop
      vertex 76.8419035512032 -29.032534971524832 43.3
      vertex 76.72296769217255 -27.9570660994774 43.3
      vertex 76.60413345191695 -28.037221709026586 43.3
    endloop
  endfacet
  facet normal 0 0 1
    outer loop
      vertex 76.8419035512032 -29.032534971524832 43.3
      vertex 76.76955653508834 -27.933100240839966 43.3
      vertex 76.72296769217255 -27.9570660994774 43.3
    endloop
  endfacet
  facet normal 0 0 1
    outer loop
      vertex 76.8419035512032 -29.032534971524832 43.3
      vertex 76.82847529326264 -27.86611400976931 43.3
      vertex 76.76955653508834 -27.933100240839966 43.3
    endloop
  endfacet
  facet normal 0 0 1
    outer loop
      vertex 77.1 -28.905255888325765 43.3
      vertex 76.91942038940667 -27.814346024343628 43.3
      vertex 76.82847529326264 -27.86611400976931 43.3
    endloop
  endfacet
  facet normal 0 0 1
    outer loop
      vertex 77.1 -28.905255888325765 43.3
      vertex 76.94665795206429 -27.736632529295964 43.3
      vertex 76.91942038940667 -27.814346024343628 43.3
    endloop
  endfacet
  facet normal 0 0 1
    outer loop
      vertex 77.1 -28.905255888325765 43.3
      vertex 77.02084520452786 -27.697587082433266 43.3
      vertex 76.94665795206429 -27.736632529295964 43.3
    endloop
  endfacet
  facet normal 0 0 1
    outer loop
      vertex 74.44436508138959 -28.555634918610405 43.3
      vertex 74.66072485618082 -28.745377348640716 43.3
      vertex 74.44436508138959 -25.444365081389595 43.3
    endloop
  endfacet
  facet normal 0 0 1
    outer loop
      vertex 74.44436508138959 -28.555634918610405 43.3
      vertex 74.25462265135928 -25.660724856180813 43.3
      vertex 74.25462265135928 -28.339275143819187 43.3
    endloop
  endfacet
  facet normal 0 0 1
    outer loop
      vertex 74.09474411167423 -28.1 43.3
      vertex 74.25462265135928 -28.339275143819187 43.3
      vertex 74.09474411167423 -25.9 43.3
    endloop
  endfacet
  facet normal 0 0 1
    outer loop
      vertex 74.09474411167423 -28.1 43.3
      vertex 73.96746502847517 -26.1580964487968 43.3
      vertex 73.96746502847517 -27.8419035512032 43.3
    endloop
  endfacet
  facet normal 0 0 1
    outer loop
      vertex 73.87496318216405 -27.569401899225547 43.3
      vertex 73.96746502847517 -27.8419035512032 43.3
      vertex 73.87496318216405 -26.430598100774453 43.3
    endloop
  endfacet
  facet normal 0 0 1
    outer loop
      vertex 74.66072485618082 -28.745377348640716 43.3
      vertex 74.83206732226047 -27.86880351273134 43.3
      vertex 74.66072485618082 -25.254622651359284 43.3
    endloop
  endfacet
  facet normal 0 0 1
    outer loop
      vertex 73.87496318216405 -27.569401899225547 43.3
      vertex 73.81882130497762 -26.712842377115887 43.3
      vertex 73.81882130497762 -27.287157622884113 43.3
    endloop
  endfacet
  facet normal 0 0 1
    outer loop
      vertex 76.5317208891843 -28.072902015733572 43.3
      vertex 76.46351135758623 -28.1065392342529 43.3
      vertex 76.46351437774582 -28.106568283355966 43.3
    endloop
  endfacet
  facet normal 0 0 1
    outer loop
      vertex 76.72296769217255 -27.9570660994774 43.3
      vertex 76.60397830645638 -28.03657226515207 43.3
      vertex 76.60413345191695 -28.037221709026586 43.3
    endloop
  endfacet
  facet normal 0 0 1
    outer loop
      vertex 77.1 -28.905255888325765 43.3
      vertex 77.1 -27.571222704384873 43.3
      vertex 77.02084520452786 -27.697587082433266 43.3
    endloop
  endfacet
  facet normal 0 0 1
    outer loop
      vertex 76.82847529326264 -27.86611400976931 43.3
      vertex 76.76860368012971 -27.918620005288286 43.3
      vertex 76.76955653508834 -27.933100240839966 43.3
    endloop
  endfacet
  facet normal 0 0 1
    outer loop
      vertex 77.33927514381918 -28.745377348640716 43.3
      vertex 77.1 -27.47677161289374 43.3
      vertex 77.1 -27.571222704384873 43.3
    endloop
  endfacet
  facet normal 0 0 1
    outer loop
      vertex 77.33927514381918 -28.745377348640716 43.3
      vertex 77.25062499529571 -27.392837450445708 43.3
      vertex 77.1 -27.47677161289374 43.3
    endloop
  endfacet
  facet normal 0 0 1
    outer loop
      vertex 76.94665795206429 -27.736632529295964 43.3
      vertex 76.91292377948885 -27.775098980790354 43.3
      vertex 76.91942038940667 -27.814346024343628 43.3
    endloop
  endfacet
  facet normal 0 0 1
    outer loop
      vertex 77.1 -27.571222704384873 43.3
      vertex 77.0166627406914 -27.63377501549615 43.3
      vertex 77.02084520452786 -27.697587082433266 43.3
    endloop
  endfacet
  facet normal 0 0 1
    outer loop
      vertex 77.33927514381918 -28.745377348640716 43.3
      vertex 77.55563491861041 -28.555634918610405 43.3
      vertex 77.33927514381918 -25.254622651359284 43.3
    endloop
  endfacet
  facet normal 0 0 1
    outer loop
      vertex 77.55563491861041 -28.555634918610405 43.3
      vertex 77.74537734864072 -28.339275143819187 43.3
      vertex 77.55563491861041 -25.444365081389595 43.3
    endloop
  endfacet
  facet normal 0 0 1
    outer loop
      vertex 77.74537734864072 -28.339275143819187 43.3
      vertex 77.90525588832577 -28.1 43.3
      vertex 77.74537734864072 -25.660724856180813 43.3
    endloop
  endfacet
  facet normal 0 0 1
    outer loop
      vertex 77.33927514381918 -28.745377348640716 43.3
      vertex 77.33927514381918 -25.254622651359284 43.3
      vertex 77.25062499529571 -27.392837450445708 43.3
    endloop
  endfacet
  facet normal 0 0 1
    outer loop
      vertex 77.90525588832577 -28.1 43.3
      vertex 78.03253497152483 -27.8419035512032 43.3
      vertex 77.90525588832577 -25.9 43.3
    endloop
  endfacet
  facet normal 0 0 1
    outer loop
      vertex 78.03253497152483 -27.8419035512032 43.3
      vertex 78.12503681783595 -27.569401899225547 43.3
      vertex 78.03253497152483 -26.1580964487968 43.3
    endloop
  endfacet
  facet normal 0 0 1
    outer loop
      vertex 78.12503681783595 -27.569401899225547 43.3
      vertex 78.18117869502238 -27.287157622884113 43.3
      vertex 78.12503681783595 -26.430598100774453 43.3
    endloop
  endfacet
  facet normal 0 0 1
    outer loop
      vertex 73.81882130497762 -27.287157622884113 43.3
      vertex 73.81882130497762 -26.712842377115887 43.3
      vertex 73.8 -27 43.3
    endloop
  endfacet
  facet normal 0 0 1
    outer loop
      vertex 73.87496318216405 -27.569401899225547 43.3
      vertex 73.87496318216405 -26.430598100774453 43.3
      vertex 73.81882130497762 -26.712842377115887 43.3
    endloop
  endfacet
  facet normal 0 0 1
    outer loop
      vertex 73.96746502847517 -27.8419035512032 43.3
      vertex 73.96746502847517 -26.1580964487968 43.3
      vertex 73.87496318216405 -26.430598100774453 43.3
    endloop
  endfacet
  facet normal 0 0 1
    outer loop
      vertex 74.09474411167423 -28.1 43.3
      vertex 74.09474411167423 -25.9 43.3
      vertex 73.96746502847517 -26.1580964487968 43.3
    endloop
  endfacet
  facet normal 0 0 1
    outer loop
      vertex 74.25462265135928 -28.339275143819187 43.3
      vertex 74.25462265135928 -25.660724856180813 43.3
      vertex 74.09474411167423 -25.9 43.3
    endloop
  endfacet
  facet normal 0 0 1
    outer loop
      vertex 74.44436508138959 -28.555634918610405 43.3
      vertex 74.44436508138959 -25.444365081389595 43.3
      vertex 74.25462265135928 -25.660724856180813 43.3
    endloop
  endfacet
  facet normal 0 0 1
    outer loop
      vertex 74.66072485618082 -28.745377348640716 43.3
      vertex 74.66072485618082 -25.254622651359284 43.3
      vertex 74.44436508138959 -25.444365081389595 43.3
    endloop
  endfacet
  facet normal 0 0 1
    outer loop
      vertex 77.74537734864072 -28.339275143819187 43.3
      vertex 77.74537734864072 -25.660724856180813 43.3
      vertex 77.55563491861041 -25.444365081389595 43.3
    endloop
  endfacet
  facet normal 0 0 1
    outer loop
      vertex 78.18117869502238 -27.287157622884113 43.3
      vertex 78.2 -27 43.3
      vertex 78.18117869502238 -26.712842377115887 43.3
    endloop
  endfacet
  facet normal 0 0 1
    outer loop
      vertex 78.18117869502238 -27.287157622884113 43.3
      vertex 78.18117869502238 -26.712842377115887 43.3
      vertex 78.12503681783595 -26.430598100774453 43.3
    endloop
  endfacet
  facet normal 0 0 1
    outer loop
      vertex 78.12503681783595 -27.569401899225547 43.3
      vertex 78.12503681783595 -26.430598100774453 43.3
      vertex 78.03253497152483 -26.1580964487968 43.3
    endloop
  endfacet
  facet normal 0 0 1
    outer loop
      vertex 78.03253497152483 -27.8419035512032 43.3
      vertex 78.03253497152483 -26.1580964487968 43.3
      vertex 77.90525588832577 -25.9 43.3
    endloop
  endfacet
  facet normal 0 0 1
    outer loop
      vertex 77.74537734864072 -25.660724856180813 43.3
      vertex 77.90525588832577 -28.1 43.3
      vertex 77.90525588832577 -25.9 43.3
    endloop
  endfacet
  facet normal 0 0 1
    outer loop
      vertex 77.1 -26.210536764303882 43.3
      vertex 77.1 -26.37523814098233 43.3
      vertex 77.19248791940491 -26.505837078575162 43.3
    endloop
  endfacet
  facet normal 0 0 1
    outer loop
      vertex 77.33927514381918 -25.254622651359284 43.3
      vertex 77.19248791940491 -26.505837078575162 43.3
      vertex 77.25062499529571 -27.392837450445708 43.3
    endloop
  endfacet
  facet normal 0 0 1
    outer loop
      vertex 77.55563491861041 -28.555634918610405 43.3
      vertex 77.55563491861041 -25.444365081389595 43.3
      vertex 77.33927514381918 -25.254622651359284 43.3
    endloop
  endfacet
  facet normal 0 0 1
    outer loop
      vertex 77.1 -25.094744111674235 43.3
      vertex 77.1 -26.210536764303882 43.3
      vertex 77.19248791940491 -26.505837078575162 43.3
    endloop
  endfacet
  facet normal 0 0 1
    outer loop
      vertex 74.9 -25.094744111674235 43.3
      vertex 75.05334204793571 -26.263367470704036 43.3
      vertex 75.08707622051115 -26.224901019209646 43.3
    endloop
  endfacet
  facet normal 0 0 1
    outer loop
      vertex 74.9 -25.094744111674235 43.3
      vertex 74.93316135536138 -25.600688624475694 43.3
      vertex 75.05334204793571 -26.263367470704036 43.3
    endloop
  endfacet
  facet normal 0 0 1
    outer loop
      vertex 74.9 -25.094744111674235 43.3
      vertex 75.08707622051115 -26.224901019209646 43.3
      vertex 74.94735978235123 -25.07138885162989 43.3
    endloop
  endfacet
  facet normal 0 0 1
    outer loop
      vertex 75.4682791108157 -25.927097984266428 43.3
      vertex 75.53648864241377 -25.8934607657471 43.3
      vertex 75.53311311776714 -25.860993619553508 43.3
    endloop
  endfacet
  facet normal 0 0 1
    outer loop
      vertex 75.1580964487968 -24.967465028475168 43.3
      vertex 75.27703230782745 -26.0429339005226 43.3
      vertex 75.39602169354362 -25.96342773484793 43.3
    endloop
  endfacet
  facet normal 0 0 1
    outer loop
      vertex 75.1580964487968 -24.967465028475168 43.3
      vertex 75.21061919695832 -25.765636626708137 43.3
      vertex 75.27703230782745 -26.0429339005226 43.3
    endloop
  endfacet
  facet normal 0 0 1
    outer loop
      vertex 75.43059810077446 -24.87496318216405 43.3
      vertex 75.4682791108157 -25.927097984266428 43.3
      vertex 75.53311311776714 -25.860993619553508 43.3
    endloop
  endfacet
  facet normal 0 0 1
    outer loop
      vertex 75.43059810077446 -24.87496318216405 43.3
      vertex 75.53311311776714 -25.860993619553508 43.3
      vertex 75.61142845760054 -25.867362600831722 43.3
    endloop
  endfacet
  facet normal 0 0 1
    outer loop
      vertex 75.43059810077446 -24.87496318216405 43.3
      vertex 75.61142845760054 -25.867362600831722 43.3
      vertex 75.68941714587694 -25.840889008453004 43.3
    endloop
  endfacet
  facet normal 0 0 1
    outer loop
      vertex 75.43059810077446 -24.87496318216405 43.3
      vertex 75.68941714587694 -25.840889008453004 43.3
      vertex 75.76259158789142 -25.82633370696034 43.3
    endloop
  endfacet
  facet normal 0 0 1
    outer loop
      vertex 75.71284237711589 -24.818821304977618 43.3
      vertex 75.74572967528805 -25.48484917274933 43.3
      vertex 75.84336856933594 -25.81026616635143 43.3
    endloop
  endfacet
  facet normal 0 0 1
    outer loop
      vertex 76.56940189922554 -24.87496318216405 43.3
      vertex 76.3821782164327 -25.814960419799583 43.3
      vertex 76.4639106985344 -25.889619744779075 43.3
    endloop
  endfacet
  facet normal 0 0 1
    outer loop
      vertex 76.28715762288411 -24.818821304977618 43.3
      vertex 76.31502763375718 -25.83927931113374 43.3
      vertex 76.3821782164327 -25.814960419799583 43.3
    endloop
  endfacet
  facet normal 0 0 1
    outer loop
      vertex 75.71284237711589 -24.818821304977618 43.3
      vertex 75.84336856933594 -25.81026616635143 43.3
      vertex 76 -25.755158347790143 43.3
    endloop
  endfacet
  facet normal 0 0 1
    outer loop
      vertex 76 -24.8 43.3
      vertex 76 -25.755158347790143 43.3
      vertex 76.07944292499744 -25.77186396406341 43.3
    endloop
  endfacet
  facet normal 0 0 1
    outer loop
      vertex 76 -24.8 43.3
      vertex 76.07944292499744 -25.77186396406341 43.3
      vertex 76.16570952279989 -25.74131121067504 43.3
    endloop
  endfacet
  facet normal 0 0 1
    outer loop
      vertex 76.28715762288411 -24.818821304977618 43.3
      vertex 76.23966811029482 -25.780570690585336 43.3
      vertex 76.31502763375718 -25.83927931113374 43.3
    endloop
  endfacet
  facet normal 0 0 1
    outer loop
      vertex 76.28715762288411 -24.818821304977618 43.3
      vertex 76.16570952279989 -25.74131121067504 43.3
      vertex 76.23966811029482 -25.780570690585336 43.3
    endloop
  endfacet
  facet normal 0 0 1
    outer loop
      vertex 75.1580964487968 -24.967465028475168 43.3
      vertex 75.39602169354362 -25.96342773484793 43.3
      vertex 75.17069626115686 -24.963187968508663 43.3
    endloop
  endfacet
  facet normal 0 0 1
    outer loop
      vertex 75.43059810077446 -24.87496318216405 43.3
      vertex 75.17069626115686 -24.963187968508663 43.3
      vertex 75.4682791108157 -25.927097984266428 43.3
    endloop
  endfacet
  facet normal 0 0 1
    outer loop
      vertex 75.43059810077446 -24.87496318216405 43.3
      vertex 75.76259158789142 -25.82633370696034 43.3
      vertex 75.71284237711589 -24.818821304977618 43.3
    endloop
  endfacet
  facet normal 0 0 1
    outer loop
      vertex 75.71284237711589 -24.818821304977618 43.3
      vertex 76 -25.755158347790143 43.3
      vertex 76 -24.8 43.3
    endloop
  endfacet
  facet normal 0 0 1
    outer loop
      vertex 76.28715762288411 -24.818821304977618 43.3
      vertex 76.3821782164327 -25.814960419799583 43.3
      vertex 76.56940189922554 -24.87496318216405 43.3
    endloop
  endfacet
  facet normal 0 0 1
    outer loop
      vertex 76 -24.8 43.3
      vertex 76.16570952279989 -25.74131121067504 43.3
      vertex 76.28715762288411 -24.818821304977618 43.3
    endloop
  endfacet
  facet normal 0 0 1
    outer loop
      vertex 77.1 -25.094744111674235 43.3
      vertex 76.91773966235102 -26.124500496094527 43.3
      vertex 77.1 -26.210536764303882 43.3
    endloop
  endfacet
  facet normal 0 0 1
    outer loop
      vertex 76.8419035512032 -24.967465028475168 43.3
      vertex 76.6731986314491 -25.933376031460593 43.3
      vertex 76.77183951592725 -26.032206021137565 43.3
    endloop
  endfacet
  facet normal 0 0 1
    outer loop
      vertex 76.8419035512032 -24.967465028475168 43.3
      vertex 76.84603208757045 -26.003894055356504 43.3
      vertex 76.91773966235102 -26.124500496094527 43.3
    endloop
  endfacet
  facet normal 0 0 1
    outer loop
      vertex 76.8419035512032 -24.967465028475168 43.3
      vertex 76.77183951592725 -26.032206021137565 43.3
      vertex 76.84603208757045 -26.003894055356504 43.3
    endloop
  endfacet
  facet normal 0 0 1
    outer loop
      vertex 76.56940189922554 -24.87496318216405 43.3
      vertex 76.63932592724707 -25.946052380214123 43.3
      vertex 76.6731986314491 -25.933376031460593 43.3
    endloop
  endfacet
  facet normal 0 0 1
    outer loop
      vertex 76.56940189922554 -24.87496318216405 43.3
      vertex 76.4639106985344 -25.889619744779075 43.3
      vertex 76.58950782883994 -25.84343526866362 43.3
    endloop
  endfacet
  facet normal 0 0 1
    outer loop
      vertex 76.56940189922554 -24.87496318216405 43.3
      vertex 76.58950782883994 -25.84343526866362 43.3
      vertex 76.63932592724707 -25.946052380214123 43.3
    endloop
  endfacet
  facet normal 0 0 1
    outer loop
      vertex 76.8419035512032 -24.967465028475168 43.3
      vertex 76.91773966235102 -26.124500496094527 43.3
      vertex 77.1 -25.094744111674235 43.3
    endloop
  endfacet
  facet normal 0 0 1
    outer loop
      vertex 77.1 -25.094744111674235 43.3
      vertex 77.19248791940491 -26.505837078575162 43.3
      vertex 77.33927514381918 -25.254622651359284 43.3
    endloop
  endfacet
  facet normal 0 0 1
    outer loop
      vertex 76.56940189922554 -24.87496318216405 43.3
      vertex 76.6731986314491 -25.933376031460593 43.3
      vertex 76.8419035512032 -24.967465028475168 43.3
    endloop
  endfacet
  facet normal 0 0 1
    outer loop
      vertex 92.1580964487968 -29.032534971524832 43.3
      vertex 92.43059810077446 -29.12503681783595 43.3
      vertex 92.32978452401709 -28.097043135012356 43.3
    endloop
  endfacet
  facet normal 0 0 1
    outer loop
      vertex 91.9 -28.905255888325765 43.3
      vertex 91.80751208059509 -27.494162921424838 43.3
      vertex 91.66072485618082 -28.745377348640716 43.3
    endloop
  endfacet
  facet normal 0 0 1
    outer loop
      vertex 92.43059810077446 -29.12503681783595 43.3
      vertex 92.35787580228984 -28.011083995491905 43.3
      vertex 92.32978452401709 -28.097043135012356 43.3
    endloop
  endfacet
  facet normal 0 0 1
    outer loop
      vertex 92.43059810077446 -29.12503681783595 43.3
      vertex 92.53648864241377 -28.1065392342529 43.3
      vertex 92.40849467014897 -28.060348142047335 43.3
    endloop
  endfacet
  facet normal 0 0 1
    outer loop
      vertex 92.43059810077446 -29.12503681783595 43.3
      vertex 92.40849467014897 -28.060348142047335 43.3
      vertex 92.35787580228984 -28.011083995491905 43.3
    endloop
  endfacet
  facet normal 0 0 1
    outer loop
      vertex 92.1580964487968 -29.032534971524832 43.3
      vertex 92.23139631987029 -27.918620005288286 43.3
      vertex 92.15338673679771 -27.850207437045764 43.3
    endloop
  endfacet
  facet normal 0 0 1
    outer loop
      vertex 92.1580964487968 -29.032534971524832 43.3
      vertex 92.32978452401709 -28.097043135012356 43.3
      vertex 92.23139631987029 -27.918620005288286 43.3
    endloop
  endfacet
  facet normal 0 0 1
    outer loop
      vertex 91.9 -28.905255888325765 43.3
      vertex 92.08226033764898 -27.875499503905473 43.3
      vertex 91.9 -27.789463235696118 43.3
    endloop
  endfacet
  facet normal 0 0 1
    outer loop
      vertex 92.43059810077446 -29.12503681783595 43.3
      vertex 92.71284237711589 -29.181178695022382 43.3
      vertex 92.63344147750428 -28.348787116509033 43.3
    endloop
  endfacet
  facet normal 0 0 1
    outer loop
      vertex 92.71284237711589 -29.181178695022382 43.3
      vertex 93 -29.2 43.3
      vertex 92.84336856933594 -28.189733833648575 43.3
    endloop
  endfacet
  facet normal 0 0 1
    outer loop
      vertex 93.56940189922554 -29.12503681783595 43.3
      vertex 93.82930373884314 -29.036812031491337 43.3
      vertex 93.5317208891843 -28.072902015733572 43.3
    endloop
  endfacet
  facet normal 0 0 1
    outer loop
      vertex 93.8419035512032 -29.032534971524832 43.3
      vertex 93.60397830645638 -28.03657226515207 43.3
      vertex 93.82930373884314 -29.036812031491337 43.3
    endloop
  endfacet
  facet normal 0 0 1
    outer loop
      vertex 92.43059810077446 -29.12503681783595 43.3
      vertex 92.63344147750428 -28.348787116509033 43.3
      vertex 92.53648864241377 -28.1065392342529 43.3
    endloop
  endfacet
  facet normal 0 0 1
    outer loop
      vertex 92.71284237711589 -29.181178695022382 43.3
      vertex 92.84336856933594 -28.189733833648575 43.3
      vertex 92.75454724829409 -28.336578865595705 43.3
    endloop
  endfacet
  facet normal 0 0 1
    outer loop
      vertex 92.71284237711589 -29.181178695022382 43.3
      vertex 92.75454724829409 -28.336578865595705 43.3
      vertex 92.68488639912186 -28.15757301026503 43.3
    endloop
  endfacet
  facet normal 0 0 1
    outer loop
      vertex 93.28715762288411 -29.181178695022382 43.3
      vertex 93.15663143066406 -28.18973383364857 43.3
      vertex 93 -28.2 43.3
    endloop
  endfacet
  facet normal 0 0 1
    outer loop
      vertex 92.71284237711589 -29.181178695022382 43.3
      vertex 92.68488639912186 -28.15757301026503 43.3
      vertex 92.61286987147203 -28.13312669324574 43.3
    endloop
  endfacet
  facet normal 0 0 1
    outer loop
      vertex 93.28715762288411 -29.181178695022382 43.3
      vertex 93.25427032471195 -28.51515082725067 43.3
      vertex 93.15663143066406 -28.18973383364857 43.3
    endloop
  endfacet
  facet normal 0 0 1
    outer loop
      vertex 93.56940189922554 -29.12503681783595 43.3
      vertex 93.31058285412306 -28.159110991546996 43.3
      vertex 93.23740841210858 -28.17366629303966 43.3
    endloop
  endfacet
  facet normal 0 0 1
    outer loop
      vertex 93.56940189922554 -29.12503681783595 43.3
      vertex 93.38857154239946 -28.132637399168278 43.3
      vertex 93.31058285412306 -28.159110991546996 43.3
    endloop
  endfacet
  facet normal 0 0 1
    outer loop
      vertex 93.56940189922554 -29.12503681783595 43.3
      vertex 93.46688688223286 -28.139006380446492 43.3
      vertex 93.38857154239946 -28.132637399168278 43.3
    endloop
  endfacet
  facet normal 0 0 1
    outer loop
      vertex 93.56940189922554 -29.12503681783595 43.3
      vertex 93.5317208891843 -28.072902015733572 43.3
      vertex 93.46688688223286 -28.139006380446492 43.3
    endloop
  endfacet
  facet normal 0 0 1
    outer loop
      vertex 93.8419035512032 -29.032534971524832 43.3
      vertex 93.78938080304168 -28.234363373291867 43.3
      vertex 93.72296769217255 -27.9570660994774 43.3
    endloop
  endfacet
  facet normal 0 0 1
    outer loop
      vertex 93.8419035512032 -29.032534971524832 43.3
      vertex 93.72296769217255 -27.9570660994774 43.3
      vertex 93.60397830645638 -28.03657226515207 43.3
    endloop
  endfacet
  facet normal 0 0 1
    outer loop
      vertex 93.5317208891843 -28.072902015733572 43.3
      vertex 93.46351135758623 -28.1065392342529 43.3
      vertex 93.46688688223286 -28.139006380446492 43.3
    endloop
  endfacet
  facet normal 0 0 1
    outer loop
      vertex 94.1 -28.905255888325765 43.3
      vertex 93.91292377948885 -27.775098980790354 43.3
      vertex 94.05264021764877 -28.92861114837011 43.3
    endloop
  endfacet
  facet normal 0 0 1
    outer loop
      vertex 94.1 -28.905255888325765 43.3
      vertex 94.06683864463862 -28.39931137552432 43.3
      vertex 93.94665795206429 -27.736632529295964 43.3
    endloop
  endfacet
  facet normal 0 0 1
    outer loop
      vertex 94.1 -28.905255888325765 43.3
      vertex 93.94665795206429 -27.736632529295964 43.3
      vertex 93.91292377948885 -27.775098980790354 43.3
    endloop
  endfacet
  facet normal 0 0 1
    outer loop
      vertex 91.9 -28.905255888325765 43.3
      vertex 91.9 -27.789463235696118 43.3
      vertex 91.80751208059509 -27.494162921424838 43.3
    endloop
  endfacet
  facet normal 0 0 1
    outer loop
      vertex 92.53648864241377 -28.1065392342529 43.3
      vertex 92.40813959032394 -28.04324448627935 43.3
      vertex 92.40849467014897 -28.060348142047335 43.3
    endloop
  endfacet
  facet normal 0 0 1
    outer loop
      vertex 91.44436508138959 -28.555634918610405 43.3
      vertex 91.66072485618082 -28.745377348640716 43.3
      vertex 91.44436508138959 -25.444365081389595 43.3
    endloop
  endfacet
  facet normal 0 0 1
    outer loop
      vertex 91.80751208059509 -27.494162921424838 43.3
      vertex 91.74937500470429 -26.607162549554292 43.3
      vertex 91.66072485618082 -28.745377348640716 43.3
    endloop
  endfacet
  facet normal 0 0 1
    outer loop
      vertex 91.9 -27.789463235696118 43.3
      vertex 91.9 -27.62476185901767 43.3
      vertex 91.80751208059509 -27.494162921424838 43.3
    endloop
  endfacet
  facet normal 0 0 1
    outer loop
      vertex 91.09474411167423 -28.1 43.3
      vertex 91.25462265135928 -28.339275143819187 43.3
      vertex 91.09474411167423 -25.9 43.3
    endloop
  endfacet
  facet normal 0 0 1
    outer loop
      vertex 90.96746502847517 -27.8419035512032 43.3
      vertex 91.09474411167423 -28.1 43.3
      vertex 90.96746502847517 -26.1580964487968 43.3
    endloop
  endfacet
  facet normal 0 0 1
    outer loop
      vertex 90.87496318216405 -27.569401899225547 43.3
      vertex 90.96746502847517 -27.8419035512032 43.3
      vertex 90.87496318216405 -26.430598100774453 43.3
    endloop
  endfacet
  facet normal 0 0 1
    outer loop
      vertex 90.87496318216405 -27.569401899225547 43.3
      vertex 90.81882130497762 -26.712842377115887 43.3
      vertex 90.81882130497762 -27.287157622884113 43.3
    endloop
  endfacet
  facet normal 0 0 1
    outer loop
      vertex 91.25462265135928 -28.339275143819187 43.3
      vertex 91.44436508138959 -28.555634918610405 43.3
      vertex 91.25462265135928 -25.660724856180813 43.3
    endloop
  endfacet
  facet normal 0 0 1
    outer loop
      vertex 94.33927514381918 -28.745377348640716 43.3
      vertex 94.55563491861041 -28.555634918610405 43.3
      vertex 94.33927514381918 -25.254622651359284 43.3
    endloop
  endfacet
  facet normal 0 0 1
    outer loop
      vertex 94.55563491861041 -28.555634918610405 43.3
      vertex 94.74537734864072 -28.339275143819187 43.3
      vertex 94.55563491861041 -25.444365081389595 43.3
    endloop
  endfacet
  facet normal 0 0 1
    outer loop
      vertex 94.74537734864072 -28.339275143819187 43.3
      vertex 94.90525588832577 -28.1 43.3
      vertex 94.74537734864072 -25.660724856180813 43.3
    endloop
  endfacet
  facet normal 0 0 1
    outer loop
      vertex 94.90525588832577 -28.1 43.3
      vertex 95.03253497152483 -27.8419035512032 43.3
      vertex 94.90525588832577 -25.9 43.3
    endloop
  endfacet
  facet normal 0 0 1
    outer loop
      vertex 95.03253497152483 -27.8419035512032 43.3
      vertex 95.12503681783595 -27.569401899225547 43.3
      vertex 95.03253497152483 -26.1580964487968 43.3
    endloop
  endfacet
  facet normal 0 0 1
    outer loop
      vertex 95.12503681783595 -27.569401899225547 43.3
      vertex 95.18117869502238 -27.287157622884113 43.3
      vertex 95.12503681783595 -26.430598100774453 43.3
    endloop
  endfacet
  facet normal 0 0 1
    outer loop
      vertex 90.81882130497762 -27.287157622884113 43.3
      vertex 90.81882130497762 -26.712842377115887 43.3
      vertex 90.8 -27 43.3
    endloop
  endfacet
  facet normal 0 0 1
    outer loop
      vertex 90.87496318216405 -27.569401899225547 43.3
      vertex 90.87496318216405 -26.430598100774453 43.3
      vertex 90.81882130497762 -26.712842377115887 43.3
    endloop
  endfacet
  facet normal 0 0 1
    outer loop
      vertex 90.96746502847517 -27.8419035512032 43.3
      vertex 90.96746502847517 -26.1580964487968 43.3
      vertex 90.87496318216405 -26.430598100774453 43.3
    endloop
  endfacet
  facet normal 0 0 1
    outer loop
      vertex 90.96746502847517 -26.1580964487968 43.3
      vertex 91.09474411167423 -28.1 43.3
      vertex 91.09474411167423 -25.9 43.3
    endloop
  endfacet
  facet normal 0 0 1
    outer loop
      vertex 91.66072485618082 -28.745377348640716 43.3
      vertex 91.74937500470429 -26.607162549554292 43.3
      vertex 91.66072485618082 -25.254622651359284 43.3
    endloop
  endfacet
  facet normal 0 0 1
    outer loop
      vertex 91.25462265135928 -28.339275143819187 43.3
      vertex 91.25462265135928 -25.660724856180813 43.3
      vertex 91.09474411167423 -25.9 43.3
    endloop
  endfacet
  facet normal 0 0 1
    outer loop
      vertex 91.44436508138959 -28.555634918610405 43.3
      vertex 91.44436508138959 -25.444365081389595 43.3
      vertex 91.25462265135928 -25.660724856180813 43.3
    endloop
  endfacet
  facet normal 0 0 1
    outer loop
      vertex 91.66072485618082 -28.745377348640716 43.3
      vertex 91.66072485618082 -25.254622651359284 43.3
      vertex 91.44436508138959 -25.444365081389595 43.3
    endloop
  endfacet
  facet normal 0 0 1
    outer loop
      vertex 91.66072485618082 -25.254622651359284 43.3
      vertex 91.74937500470429 -26.607162549554292 43.3
      vertex 91.9 -26.521053209231535 43.3
    endloop
  endfacet
  facet normal 0 0 1
    outer loop
      vertex 91.9 -25.094744111674235 43.3
      vertex 91.9 -26.521053209231535 43.3
      vertex 91.98232361758657 -26.350759800357633 43.3
    endloop
  endfacet
  facet normal 0 0 1
    outer loop
      vertex 91.9 -25.094744111674235 43.3
      vertex 91.98232361758657 -26.350759800357633 43.3
      vertex 92.05271177926382 -26.25856417831052 43.3
    endloop
  endfacet
  facet normal 0 0 1
    outer loop
      vertex 95.18117869502238 -27.287157622884113 43.3
      vertex 95.19999999999999 -26.999999999999783 43.3
      vertex 95.18117869502238 -26.712842377115887 43.3
    endloop
  endfacet
  facet normal 0 0 1
    outer loop
      vertex 95.18117869502238 -27.287157622884113 43.3
      vertex 95.18117869502238 -26.712842377115887 43.3
      vertex 95.12503681783595 -26.430598100774453 43.3
    endloop
  endfacet
  facet normal 0 0 1
    outer loop
      vertex 94.33927514381918 -28.745377348640716 43.3
      vertex 94.33927514381918 -25.254622651359284 43.3
      vertex 94.16793267773953 -26.131196487268657 43.3
    endloop
  endfacet
  facet normal 0 0 1
    outer loop
      vertex 95.03253497152483 -26.1580964487968 43.3
      vertex 95.12503681783595 -27.569401899225547 43.3
      vertex 95.12503681783595 -26.430598100774453 43.3
    endloop
  endfacet
  facet normal 0 0 1
    outer loop
      vertex 95.03253497152483 -27.8419035512032 43.3
      vertex 95.03253497152483 -26.1580964487968 43.3
      vertex 94.90525588832577 -25.9 43.3
    endloop
  endfacet
  facet normal 0 0 1
    outer loop
      vertex 94.90525588832577 -28.1 43.3
      vertex 94.90525588832577 -25.9 43.3
      vertex 94.74537734864072 -25.660724856180813 43.3
    endloop
  endfacet
  facet normal 0 0 1
    outer loop
      vertex 94.74537734864072 -28.339275143819187 43.3
      vertex 94.74537734864072 -25.660724856180813 43.3
      vertex 94.55563491861041 -25.444365081389595 43.3
    endloop
  endfacet
  facet normal 0 0 1
    outer loop
      vertex 94.55563491861041 -28.555634918610405 43.3
      vertex 94.55563491861041 -25.444365081389595 43.3
      vertex 94.33927514381918 -25.254622651359284 43.3
    endloop
  endfacet
  facet normal 0 0 1
    outer loop
      vertex 91.9 -25.094744111674235 43.3
      vertex 92.05271177926382 -26.25856417831052 43.3
      vertex 92.0816145206818 -26.19190603047097 43.3
    endloop
  endfacet
  facet normal 0 0 1
    outer loop
      vertex 91.9 -25.094744111674235 43.3
      vertex 92.0816145206818 -26.19190603047097 43.3
      vertex 92.17119452010701 -26.105204935052754 43.3
    endloop
  endfacet
  facet normal 0 0 1
    outer loop
      vertex 92.1580964487968 -24.967465028475168 43.3
      vertex 92.17119452010701 -26.105204935052754 43.3
      vertex 92.2247039632063 -25.979678366342775 43.3
    endloop
  endfacet
  facet normal 0 0 1
    outer loop
      vertex 92.1580964487968 -24.967465028475168 43.3
      vertex 92.2247039632063 -25.979678366342775 43.3
      vertex 92.27588739635179 -26.032581121609976 43.3
    endloop
  endfacet
  facet normal 0 0 1
    outer loop
      vertex 92.1580964487968 -24.967465028475168 43.3
      vertex 92.27588739635179 -26.032581121609976 43.3
      vertex 92.36267755625236 -25.82384810657603 43.3
    endloop
  endfacet
  facet normal 0 0 1
    outer loop
      vertex 92.1580964487968 -24.967465028475168 43.3
      vertex 92.36267755625236 -25.82384810657603 43.3
      vertex 92.46380433529956 -25.802152632563246 43.3
    endloop
  endfacet
  facet normal 0 0 1
    outer loop
      vertex 91.9 -25.094744111674235 43.3
      vertex 92.17119452010701 -26.105204935052754 43.3
      vertex 92.1580964487968 -24.967465028475168 43.3
    endloop
  endfacet
  facet normal 0 0 1
    outer loop
      vertex 92.43059810077446 -24.87496318216405 43.3
      vertex 92.46380433529956 -25.802152632563246 43.3
      vertex 92.51401741092496 -25.677323473245107 43.3
    endloop
  endfacet
  facet normal 0 0 1
    outer loop
      vertex 92.43059810077446 -24.87496318216405 43.3
      vertex 92.51401741092496 -25.677323473245107 43.3
      vertex 92.59173626192118 -25.759291567364222 43.3
    endloop
  endfacet
  facet normal 0 0 1
    outer loop
      vertex 92.1580964487968 -24.967465028475168 43.3
      vertex 92.46380433529956 -25.802152632563246 43.3
      vertex 92.43059810077446 -24.87496318216405 43.3
    endloop
  endfacet
  facet normal 0 0 1
    outer loop
      vertex 92.43059810077446 -24.87496318216405 43.3
      vertex 92.59173626192118 -25.759291567364222 43.3
      vertex 92.63648216490466 -25.643332969966742 43.3
    endloop
  endfacet
  facet normal 0 0 1
    outer loop
      vertex 92.71284237711589 -24.818821304977618 43.3
      vertex 92.75454724829409 -25.663421134404295 43.3
      vertex 92.84336856933594 -25.810266166351425 43.3
    endloop
  endfacet
  facet normal 0 0 1
    outer loop
      vertex 93.28715762288411 -24.818821304977618 43.3
      vertex 93.31466767281421 -25.826099372746153 43.3
      vertex 93.3656374164109 -25.64155655778589 43.3
    endloop
  endfacet
  facet normal 0 0 1
    outer loop
      vertex 93.28715762288411 -24.818821304977618 43.3
      vertex 93.25427032471195 -25.48484917274933 43.3
      vertex 93.31466767281421 -25.826099372746153 43.3
    endloop
  endfacet
  facet normal 0 0 1
    outer loop
      vertex 94.1 -25.094744111674235 43.3
      vertex 94.1 -26.012589400044252 43.3
      vertex 94.16793267773953 -26.131196487268657 43.3
    endloop
  endfacet
  facet normal 0 0 1
    outer loop
      vertex 94.1 -25.094744111674235 43.3
      vertex 94.16793267773953 -26.131196487268657 43.3
      vertex 94.33927514381918 -25.254622651359284 43.3
    endloop
  endfacet
  facet normal 0 0 1
    outer loop
      vertex 92.71284237711589 -24.818821304977618 43.3
      vertex 92.84336856933594 -25.810266166351425 43.3
      vertex 93 -25.35762782886727 43.3
    endloop
  endfacet
  facet normal 0 0 1
    outer loop
      vertex 93 -24.8 43.3
      vertex 93 -25.35762782886727 43.3
      vertex 93.06525542772029 -25.598301405228213 43.3
    endloop
  endfacet
  facet normal 0 0 1
    outer loop
      vertex 92.43059810077446 -24.87496318216405 43.3
      vertex 92.63648216490466 -25.643332969966742 43.3
      vertex 92.71284237711589 -24.818821304977618 43.3
    endloop
  endfacet
  facet normal 0 0 1
    outer loop
      vertex 93 -24.8 43.3
      vertex 93.06525542772029 -25.598301405228213 43.3
      vertex 93.26637986305603 -24.97664405964501 43.3
    endloop
  endfacet
  facet normal 0 0 1
    outer loop
      vertex 93.28715762288411 -24.818821304977618 43.3
      vertex 93.3656374164109 -25.64155655778589 43.3
      vertex 93.56940189922554 -24.87496318216405 43.3
    endloop
  endfacet
  facet normal 0 0 1
    outer loop
      vertex 92.71284237711589 -24.818821304977618 43.3
      vertex 93 -25.35762782886727 43.3
      vertex 93 -24.8 43.3
    endloop
  endfacet
  facet normal 0 0 1
    outer loop
      vertex 93 -24.8 43.3
      vertex 93.26637986305603 -24.97664405964501 43.3
      vertex 93.28715762288411 -24.818821304977618 43.3
    endloop
  endfacet
  facet normal 0 0 -1
    outer loop
      vertex 75.43059810077446 -29.12503681783595 43.3
      vertex 75.74572967528805 -28.51515082725067 43.3
      vertex 75.71284237711589 -29.181178695022382 43.3
    endloop
  endfacet
  facet normal 0 0 -1
    outer loop
      vertex 75.71284237711589 -29.181178695022382 43.3
      vertex 76 -28.642372171132727 43.3
      vertex 76 -29.2 43.3
    endloop
  endfacet
  facet normal 0 0 -1
    outer loop
      vertex 75.73362013694397 -29.023355940354985 43.3
      vertex 75.93474457227971 -28.401698594771787 43.3
      vertex 75.71284237711589 -29.181178695022382 43.3
    endloop
  endfacet
  facet normal 0 0 -1
    outer loop
      vertex 76 -29.2 43.3
      vertex 76.24545275170591 -28.336578865595705 43.3
      vertex 76.28715762288411 -29.181178695022382 43.3
    endloop
  endfacet
  facet normal 0 0 -1
    outer loop
      vertex 76.28715762288411 -29.181178695022382 43.3
      vertex 76.40826373807882 -28.240708432635778 43.3
      vertex 76.56940189922554 -29.12503681783595 43.3
    endloop
  endfacet
  facet normal 0 0 -1
    outer loop
      vertex 76 -28.642372171132727 43.3
      vertex 75.71284237711589 -29.181178695022382 43.3
      vertex 75.93474457227971 -28.401698594771787 43.3
    endloop
  endfacet
  facet normal 0 0 -1
    outer loop
      vertex 76 -28.642372171132727 43.3
      vertex 76.15663143066406 -28.189733833648575 43.3
      vertex 76 -29.2 43.3
    endloop
  endfacet
  facet normal 0 0 -1
    outer loop
      vertex 74.9 -28.905255888325765 43.3
      vertex 74.66072485618082 -28.745377348640716 43.3
      vertex 74.9 -27.987410599955744 43.3
    endloop
  endfacet
  facet normal 0 0 -1
    outer loop
      vertex 74.66072485618082 -28.745377348640716 43.3
      vertex 74.44436508138959 -28.555634918610405 43.3
      vertex 74.83206732226047 -27.86880351273134 43.3
    endloop
  endfacet
  facet normal 0 0 -1
    outer loop
      vertex 74.66072485618082 -28.745377348640716 43.3
      vertex 74.83206732226047 -27.86880351273134 43.3
      vertex 74.9 -27.987410599955744 43.3
    endloop
  endfacet
  facet normal 0 0 -1
    outer loop
      vertex 75.43059810077446 -29.12503681783595 43.3
      vertex 75.68533232718579 -28.173900627253847 43.3
      vertex 75.74572967528805 -28.51515082725067 43.3
    endloop
  endfacet
  facet normal 0 0 -1
    outer loop
      vertex 75.6343625835891 -28.35844344221411 43.3
      vertex 75.68533232718579 -28.173900627253847 43.3
      vertex 75.43059810077446 -29.12503681783595 43.3
    endloop
  endfacet
  facet normal 0 0 -1
    outer loop
      vertex 76 -29.2 43.3
      vertex 76.15663143066406 -28.189733833648575 43.3
      vertex 76.24545275170591 -28.336578865595705 43.3
    endloop
  endfacet
  facet normal 0 0 -1
    outer loop
      vertex 76.36351783509534 -28.356667030033254 43.3
      vertex 76.40826373807882 -28.240708432635778 43.3
      vertex 76.28715762288411 -29.181178695022382 43.3
    endloop
  endfacet
  facet normal 0 0 -1
    outer loop
      vertex 76.56940189922554 -29.12503681783595 43.3
      vertex 76.40826373807882 -28.240708432635778 43.3
      vertex 76.8419035512032 -29.032534971524832 43.3
    endloop
  endfacet
  facet normal 0 0 -1
    outer loop
      vertex 76.8419035512032 -29.032534971524832 43.3
      vertex 76.40826373807882 -28.240708432635778 43.3
      vertex 77.1 -28.905255888325765 43.3
    endloop
  endfacet
  facet normal 0 0 -1
    outer loop
      vertex 77.1 -28.905255888325765 43.3
      vertex 76.40826373807882 -28.240708432635778 43.3
      vertex 77.33927514381918 -28.745377348640716 43.3
    endloop
  endfacet
  facet normal 0 0 -1
    outer loop
      vertex 77.33927514381918 -28.745377348640716 43.3
      vertex 76.46351437774582 -28.106568283355966 43.3
      vertex 77.55563491861041 -28.555634918610405 43.3
    endloop
  endfacet
  facet normal 0 0 -1
    outer loop
      vertex 77.33927514381918 -28.745377348640716 43.3
      vertex 76.40826373807882 -28.240708432635778 43.3
      vertex 76.46351437774582 -28.106568283355966 43.3
    endloop
  endfacet
  facet normal 0 0 -1
    outer loop
      vertex 77.55563491861041 -28.555634918610405 43.3
      vertex 76.46351437774582 -28.106568283355966 43.3
      vertex 77.74537734864072 -28.339275143819187 43.3
    endloop
  endfacet
  facet normal 0 0 -1
    outer loop
      vertex 77.74537734864072 -28.339275143819187 43.3
      vertex 76.46351437774582 -28.106568283355966 43.3
      vertex 77.90525588832577 -28.1 43.3
    endloop
  endfacet
  facet normal 0 0 -1
    outer loop
      vertex 74.44436508138959 -28.555634918610405 43.3
      vertex 74.25462265135928 -28.339275143819187 43.3
      vertex 74.66072485618082 -25.254622651359284 43.3
    endloop
  endfacet
  facet normal 0 0 -1
    outer loop
      vertex 74.09474411167423 -28.1 43.3
      vertex 74.66072485618082 -25.254622651359284 43.3
      vertex 74.25462265135928 -28.339275143819187 43.3
    endloop
  endfacet
  facet normal 0 0 -1
    outer loop
      vertex 74.09474411167423 -28.1 43.3
      vertex 73.96746502847517 -27.8419035512032 43.3
      vertex 74.66072485618082 -25.254622651359284 43.3
    endloop
  endfacet
  facet normal 0 0 -1
    outer loop
      vertex 74.83206732226047 -27.86880351273134 43.3
      vertex 74.44436508138959 -28.555634918610405 43.3
      vertex 74.66072485618082 -25.254622651359284 43.3
    endloop
  endfacet
  facet normal 0 0 -1
    outer loop
      vertex 76.46351135758623 -28.1065392342529 43.3
      vertex 78.18117869502238 -27.287157622884113 43.3
      vertex 76.46351437774582 -28.106568283355966 43.3
    endloop
  endfacet
  facet normal 0 0 -1
    outer loop
      vertex 77.90525588832577 -28.1 43.3
      vertex 76.46351437774582 -28.106568283355966 43.3
      vertex 78.03253497152483 -27.8419035512032 43.3
    endloop
  endfacet
  facet normal 0 0 -1
    outer loop
      vertex 78.03253497152483 -27.8419035512032 43.3
      vertex 76.46351437774582 -28.106568283355966 43.3
      vertex 78.12503681783595 -27.569401899225547 43.3
    endloop
  endfacet
  facet normal 0 0 -1
    outer loop
      vertex 76.46351135758623 -28.1065392342529 43.3
      vertex 76.5317208891843 -28.072902015733572 43.3
      vertex 78.18117869502238 -27.287157622884113 43.3
    endloop
  endfacet
  facet normal 0 0 -1
    outer loop
      vertex 76.5317208891843 -28.072902015733572 43.3
      vertex 76.60413345191695 -28.037221709026586 43.3
      vertex 78.18117869502238 -27.287157622884113 43.3
    endloop
  endfacet
  facet normal 0 0 -1
    outer loop
      vertex 76.60397830645638 -28.03657226515207 43.3
      vertex 78.18117869502238 -27.287157622884113 43.3
      vertex 76.60413345191695 -28.037221709026586 43.3
    endloop
  endfacet
  facet normal 0 0 -1
    outer loop
      vertex 76.60397830645638 -28.03657226515207 43.3
      vertex 76.72296769217255 -27.9570660994774 43.3
      vertex 78.18117869502238 -27.287157622884113 43.3
    endloop
  endfacet
  facet normal 0 0 -1
    outer loop
      vertex 76.72296769217255 -27.9570660994774 43.3
      vertex 76.76955653508834 -27.933100240839966 43.3
      vertex 78.18117869502238 -27.287157622884113 43.3
    endloop
  endfacet
  facet normal 0 0 -1
    outer loop
      vertex 76.76860368012971 -27.918620005288286 43.3
      vertex 78.18117869502238 -27.287157622884113 43.3
      vertex 76.76955653508834 -27.933100240839966 43.3
    endloop
  endfacet
  facet normal 0 0 -1
    outer loop
      vertex 76.76860368012971 -27.918620005288286 43.3
      vertex 76.82847529326264 -27.86611400976931 43.3
      vertex 78.18117869502238 -27.287157622884113 43.3
    endloop
  endfacet
  facet normal 0 0 -1
    outer loop
      vertex 76.82847529326264 -27.86611400976931 43.3
      vertex 76.91942038940667 -27.814346024343628 43.3
      vertex 78.18117869502238 -27.287157622884113 43.3
    endloop
  endfacet
  facet normal 0 0 -1
    outer loop
      vertex 76.91292377948885 -27.775098980790354 43.3
      vertex 78.18117869502238 -27.287157622884113 43.3
      vertex 76.91942038940667 -27.814346024343628 43.3
    endloop
  endfacet
  facet normal 0 0 -1
    outer loop
      vertex 76.91292377948885 -27.775098980790354 43.3
      vertex 76.94665795206429 -27.736632529295964 43.3
      vertex 78.18117869502238 -27.287157622884113 43.3
    endloop
  endfacet
  facet normal 0 0 -1
    outer loop
      vertex 76.94665795206429 -27.736632529295964 43.3
      vertex 77.02084520452786 -27.697587082433266 43.3
      vertex 78.18117869502238 -27.287157622884113 43.3
    endloop
  endfacet
  facet normal 0 0 -1
    outer loop
      vertex 78.12503681783595 -27.569401899225547 43.3
      vertex 76.46351437774582 -28.106568283355966 43.3
      vertex 78.18117869502238 -27.287157622884113 43.3
    endloop
  endfacet
  facet normal 0 0 -1
    outer loop
      vertex 77.0166627406914 -27.63377501549615 43.3
      vertex 78.18117869502238 -27.287157622884113 43.3
      vertex 77.02084520452786 -27.697587082433266 43.3
    endloop
  endfacet
  facet normal 0 0 -1
    outer loop
      vertex 77.0166627406914 -27.63377501549615 43.3
      vertex 77.1 -27.571222704384873 43.3
      vertex 78.18117869502238 -27.287157622884113 43.3
    endloop
  endfacet
  facet normal 0 0 -1
    outer loop
      vertex 77.1 -27.47677161289374 43.3
      vertex 77.25062499529571 -27.392837450445708 43.3
      vertex 77.1 -27.571222704384873 43.3
    endloop
  endfacet
  facet normal 0 0 -1
    outer loop
      vertex 78.2 -27 43.3
      vertex 77.1 -27.571222704384873 43.3
      vertex 77.25062499529571 -27.392837450445708 43.3
    endloop
  endfacet
  facet normal 0 0 -1
    outer loop
      vertex 78.18117869502238 -27.287157622884113 43.3
      vertex 77.1 -27.571222704384873 43.3
      vertex 78.2 -27 43.3
    endloop
  endfacet
  facet normal 0 0 -1
    outer loop
      vertex 78.18117869502238 -26.712842377115887 43.3
      vertex 78.2 -27 43.3
      vertex 77.25062499529571 -27.392837450445708 43.3
    endloop
  endfacet
  facet normal 0 0 -1
    outer loop
      vertex 73.96746502847517 -27.8419035512032 43.3
      vertex 73.87496318216405 -27.569401899225547 43.3
      vertex 74.66072485618082 -25.254622651359284 43.3
    endloop
  endfacet
  facet normal 0 0 -1
    outer loop
      vertex 73.87496318216405 -27.569401899225547 43.3
      vertex 73.81882130497762 -27.287157622884113 43.3
      vertex 74.66072485618082 -25.254622651359284 43.3
    endloop
  endfacet
  facet normal 0 0 -1
    outer loop
      vertex 73.81882130497762 -27.287157622884113 43.3
      vertex 73.8 -27 43.3
      vertex 74.66072485618082 -25.254622651359284 43.3
    endloop
  endfacet
  facet normal 0 0 -1
    outer loop
      vertex 73.8 -27 43.3
      vertex 73.81882130497762 -26.712842377115887 43.3
      vertex 74.66072485618082 -25.254622651359284 43.3
    endloop
  endfacet
  facet normal 0 0 -1
    outer loop
      vertex 73.81882130497762 -26.712842377115887 43.3
      vertex 73.87496318216405 -26.430598100774453 43.3
      vertex 74.66072485618082 -25.254622651359284 43.3
    endloop
  endfacet
  facet normal 0 0 -1
    outer loop
      vertex 73.87496318216405 -26.430598100774453 43.3
      vertex 73.96746502847517 -26.1580964487968 43.3
      vertex 74.66072485618082 -25.254622651359284 43.3
    endloop
  endfacet
  facet normal 0 0 -1
    outer loop
      vertex 75.05334204793571 -26.263367470704036 43.3
      vertex 74.93316135536138 -25.600688624475694 43.3
      vertex 75.08707622051115 -26.224901019209646 43.3
    endloop
  endfacet
  facet normal 0 0 -1
    outer loop
      vertex 75.27703230782745 -26.0429339005226 43.3
      vertex 75.21061919695832 -25.765636626708137 43.3
      vertex 75.39602169354362 -25.96342773484793 43.3
    endloop
  endfacet
  facet normal 0 0 -1
    outer loop
      vertex 77.19248791940491 -26.505837078575162 43.3
      vertex 78.03253497152483 -26.1580964487968 43.3
      vertex 77.25062499529571 -27.392837450445708 43.3
    endloop
  endfacet
  facet normal 0 0 -1
    outer loop
      vertex 78.12503681783595 -26.430598100774453 43.3
      vertex 77.25062499529571 -27.392837450445708 43.3
      vertex 78.03253497152483 -26.1580964487968 43.3
    endloop
  endfacet
  facet normal 0 0 -1
    outer loop
      vertex 78.12503681783595 -26.430598100774453 43.3
      vertex 78.18117869502238 -26.712842377115887 43.3
      vertex 77.25062499529571 -27.392837450445708 43.3
    endloop
  endfacet
  facet normal 0 0 -1
    outer loop
      vertex 77.19248791940491 -26.505837078575162 43.3
      vertex 77.1 -26.37523814098233 43.3
      vertex 78.03253497152483 -26.1580964487968 43.3
    endloop
  endfacet
  facet normal 0 0 -1
    outer loop
      vertex 77.1 -26.210536764303882 43.3
      vertex 78.03253497152483 -26.1580964487968 43.3
      vertex 77.1 -26.37523814098233 43.3
    endloop
  endfacet
  facet normal 0 0 -1
    outer loop
      vertex 77.1 -26.210536764303882 43.3
      vertex 76.91773966235102 -26.124500496094527 43.3
      vertex 77.90525588832577 -25.9 43.3
    endloop
  endfacet
  facet normal 0 0 -1
    outer loop
      vertex 77.90525588832577 -25.9 43.3
      vertex 78.03253497152483 -26.1580964487968 43.3
      vertex 77.1 -26.210536764303882 43.3
    endloop
  endfacet
  facet normal 0 0 -1
    outer loop
      vertex 73.96746502847517 -26.1580964487968 43.3
      vertex 74.09474411167423 -25.9 43.3
      vertex 74.66072485618082 -25.254622651359284 43.3
    endloop
  endfacet
  facet normal 0 0 -1
    outer loop
      vertex 75.08707622051115 -26.224901019209646 43.3
      vertex 74.93316135536138 -25.600688624475694 43.3
      vertex 74.94735978235123 -25.07138885162989 43.3
    endloop
  endfacet
  facet normal 0 0 -1
    outer loop
      vertex 74.09474411167423 -25.9 43.3
      vertex 74.25462265135928 -25.660724856180813 43.3
      vertex 74.66072485618082 -25.254622651359284 43.3
    endloop
  endfacet
  facet normal 0 0 -1
    outer loop
      vertex 74.25462265135928 -25.660724856180813 43.3
      vertex 74.44436508138959 -25.444365081389595 43.3
      vertex 74.66072485618082 -25.254622651359284 43.3
    endloop
  endfacet
  facet normal 0 0 -1
    outer loop
      vertex 75.39602169354362 -25.96342773484793 43.3
      vertex 75.21061919695832 -25.765636626708137 43.3
      vertex 75.17069626115686 -24.963187968508663 43.3
    endloop
  endfacet
  facet normal 0 0 -1
    outer loop
      vertex 75.53648864241377 -25.8934607657471 43.3
      vertex 75.4682791108157 -25.927097984266428 43.3
      vertex 75.17069626115686 -24.963187968508663 43.3
    endloop
  endfacet
  facet normal 0 0 -1
    outer loop
      vertex 75.53648864241377 -25.8934607657471 43.3
      vertex 75.17069626115686 -24.963187968508663 43.3
      vertex 75.53311311776714 -25.860993619553508 43.3
    endloop
  endfacet
  facet normal 0 0 -1
    outer loop
      vertex 75.61142845760054 -25.867362600831722 43.3
      vertex 75.53311311776714 -25.860993619553508 43.3
      vertex 75.17069626115686 -24.963187968508663 43.3
    endloop
  endfacet
  facet normal 0 0 -1
    outer loop
      vertex 75.61142845760054 -25.867362600831722 43.3
      vertex 75.17069626115686 -24.963187968508663 43.3
      vertex 75.68941714587694 -25.840889008453004 43.3
    endloop
  endfacet
  facet normal 0 0 -1
    outer loop
      vertex 75.76259158789142 -25.82633370696034 43.3
      vertex 75.68941714587694 -25.840889008453004 43.3
      vertex 75.71284237711589 -24.818821304977618 43.3
    endloop
  endfacet
  facet normal 0 0 -1
    outer loop
      vertex 76 -25.755158347790143 43.3
      vertex 75.84336856933594 -25.81026616635143 43.3
      vertex 77.33927514381918 -25.254622651359284 43.3
    endloop
  endfacet
  facet normal 0 0 -1
    outer loop
      vertex 76 -25.755158347790143 43.3
      vertex 77.33927514381918 -25.254622651359284 43.3
      vertex 76.07944292499744 -25.77186396406341 43.3
    endloop
  endfacet
  facet normal 0 0 -1
    outer loop
      vertex 76.56940189922554 -24.87496318216405 43.3
      vertex 75.84336856933594 -25.81026616635143 43.3
      vertex 75.74572967528805 -25.48484917274933 43.3
    endloop
  endfacet
  facet normal 0 0 -1
    outer loop
      vertex 74.9 -25.094744111674235 43.3
      vertex 74.94735978235123 -25.07138885162989 43.3
      vertex 74.93316135536138 -25.600688624475694 43.3
    endloop
  endfacet
  facet normal 0 0 -1
    outer loop
      vertex 75.1580964487968 -24.967465028475168 43.3
      vertex 75.17069626115686 -24.963187968508663 43.3
      vertex 75.21061919695832 -25.765636626708137 43.3
    endloop
  endfacet
  facet normal 0 0 -1
    outer loop
      vertex 75.17069626115686 -24.963187968508663 43.3
      vertex 75.71284237711589 -24.818821304977618 43.3
      vertex 75.68941714587694 -25.840889008453004 43.3
    endloop
  endfacet
  facet normal 0 0 -1
    outer loop
      vertex 76.56940189922554 -24.87496318216405 43.3
      vertex 76.8419035512032 -24.967465028475168 43.3
      vertex 75.84336856933594 -25.81026616635143 43.3
    endloop
  endfacet
  facet normal 0 0 -1
    outer loop
      vertex 75.43059810077446 -24.87496318216405 43.3
      vertex 75.71284237711589 -24.818821304977618 43.3
      vertex 75.17069626115686 -24.963187968508663 43.3
    endloop
  endfacet
  facet normal 0 0 -1
    outer loop
      vertex 75.71284237711589 -24.818821304977618 43.3
      vertex 76 -24.8 43.3
      vertex 75.74572967528805 -25.48484917274933 43.3
    endloop
  endfacet
  facet normal 0 0 -1
    outer loop
      vertex 76 -24.8 43.3
      vertex 76.28715762288411 -24.818821304977618 43.3
      vertex 75.74572967528805 -25.48484917274933 43.3
    endloop
  endfacet
  facet normal 0 0 -1
    outer loop
      vertex 76.28715762288411 -24.818821304977618 43.3
      vertex 76.56940189922554 -24.87496318216405 43.3
      vertex 75.74572967528805 -25.48484917274933 43.3
    endloop
  endfacet
  facet normal 0 0 -1
    outer loop
      vertex 76.84603208757045 -26.003894055356504 43.3
      vertex 77.55563491861041 -25.444365081389595 43.3
      vertex 76.91773966235102 -26.124500496094527 43.3
    endloop
  endfacet
  facet normal 0 0 -1
    outer loop
      vertex 76.6731986314491 -25.933376031460593 43.3
      vertex 76.63932592724707 -25.946052380214123 43.3
      vertex 77.55563491861041 -25.444365081389595 43.3
    endloop
  endfacet
  facet normal 0 0 -1
    outer loop
      vertex 76.84603208757045 -26.003894055356504 43.3
      vertex 76.77183951592725 -26.032206021137565 43.3
      vertex 77.55563491861041 -25.444365081389595 43.3
    endloop
  endfacet
  facet normal 0 0 -1
    outer loop
      vertex 76.6731986314491 -25.933376031460593 43.3
      vertex 77.55563491861041 -25.444365081389595 43.3
      vertex 76.77183951592725 -26.032206021137565 43.3
    endloop
  endfacet
  facet normal 0 0 -1
    outer loop
      vertex 76.3821782164327 -25.814960419799583 43.3
      vertex 76.31502763375718 -25.83927931113374 43.3
      vertex 77.33927514381918 -25.254622651359284 43.3
    endloop
  endfacet
  facet normal 0 0 -1
    outer loop
      vertex 76.3821782164327 -25.814960419799583 43.3
      vertex 77.33927514381918 -25.254622651359284 43.3
      vertex 76.4639106985344 -25.889619744779075 43.3
    endloop
  endfacet
  facet normal 0 0 -1
    outer loop
      vertex 76.58950782883994 -25.84343526866362 43.3
      vertex 77.55563491861041 -25.444365081389595 43.3
      vertex 76.63932592724707 -25.946052380214123 43.3
    endloop
  endfacet
  facet normal 0 0 -1
    outer loop
      vertex 76.58950782883994 -25.84343526866362 43.3
      vertex 76.4639106985344 -25.889619744779075 43.3
      vertex 77.55563491861041 -25.444365081389595 43.3
    endloop
  endfacet
  facet normal 0 0 -1
    outer loop
      vertex 77.74537734864072 -25.660724856180813 43.3
      vertex 77.90525588832577 -25.9 43.3
      vertex 76.91773966235102 -26.124500496094527 43.3
    endloop
  endfacet
  facet normal 0 0 -1
    outer loop
      vertex 77.74537734864072 -25.660724856180813 43.3
      vertex 76.91773966235102 -26.124500496094527 43.3
      vertex 77.55563491861041 -25.444365081389595 43.3
    endloop
  endfacet
  facet normal 0 0 -1
    outer loop
      vertex 77.33927514381918 -25.254622651359284 43.3
      vertex 76.31502763375718 -25.83927931113374 43.3
      vertex 76.23966811029482 -25.780570690585336 43.3
    endloop
  endfacet
  facet normal 0 0 -1
    outer loop
      vertex 76.16570952279989 -25.74131121067504 43.3
      vertex 77.33927514381918 -25.254622651359284 43.3
      vertex 76.23966811029482 -25.780570690585336 43.3
    endloop
  endfacet
  facet normal 0 0 -1
    outer loop
      vertex 76.16570952279989 -25.74131121067504 43.3
      vertex 76.07944292499744 -25.77186396406341 43.3
      vertex 77.33927514381918 -25.254622651359284 43.3
    endloop
  endfacet
  facet normal 0 0 -1
    outer loop
      vertex 77.55563491861041 -25.444365081389595 43.3
      vertex 76.4639106985344 -25.889619744779075 43.3
      vertex 77.33927514381918 -25.254622651359284 43.3
    endloop
  endfacet
  facet normal 0 0 -1
    outer loop
      vertex 77.33927514381918 -25.254622651359284 43.3
      vertex 75.84336856933594 -25.81026616635143 43.3
      vertex 77.1 -25.094744111674235 43.3
    endloop
  endfacet
  facet normal 0 0 -1
    outer loop
      vertex 76.8419035512032 -24.967465028475168 43.3
      vertex 77.1 -25.094744111674235 43.3
      vertex 75.84336856933594 -25.81026616635143 43.3
    endloop
  endfacet
  facet normal 0 0 -1
    outer loop
      vertex 92.43059810077446 -29.12503681783595 43.3
      vertex 92.1580964487968 -29.032534971524832 43.3
      vertex 92.71284237711589 -29.181178695022382 43.3
    endloop
  endfacet
  facet normal 0 0 -1
    outer loop
      vertex 92.15338673679771 -27.850207437045764 43.3
      vertex 92.71284237711589 -29.181178695022382 43.3
      vertex 92.1580964487968 -29.032534971524832 43.3
    endloop
  endfacet
  facet normal 0 0 -1
    outer loop
      vertex 91.44436508138959 -28.555634918610405 43.3
      vertex 92.08226033764898 -27.875499503905473 43.3
      vertex 91.66072485618082 -28.745377348640716 43.3
    endloop
  endfacet
  facet normal 0 0 -1
    outer loop
      vertex 91.66072485618082 -28.745377348640716 43.3
      vertex 92.08226033764898 -27.875499503905473 43.3
      vertex 91.9 -28.905255888325765 43.3
    endloop
  endfacet
  facet normal 0 0 -1
    outer loop
      vertex 92.71284237711589 -29.181178695022382 43.3
      vertex 92.32978452401709 -28.097043135012356 43.3
      vertex 92.40849467014897 -28.060348142047335 43.3
    endloop
  endfacet
  facet normal 0 0 -1
    outer loop
      vertex 92.23139631987029 -27.918620005288286 43.3
      vertex 92.32978452401709 -28.097043135012356 43.3
      vertex 92.71284237711589 -29.181178695022382 43.3
    endloop
  endfacet
  facet normal 0 0 -1
    outer loop
      vertex 91.44436508138959 -28.555634918610405 43.3
      vertex 91.25462265135928 -28.339275143819187 43.3
      vertex 92.08226033764898 -27.875499503905473 43.3
    endloop
  endfacet
  facet normal 0 0 -1
    outer loop
      vertex 91.25462265135928 -28.339275143819187 43.3
      vertex 91.09474411167423 -28.1 43.3
      vertex 92.08226033764898 -27.875499503905473 43.3
    endloop
  endfacet
  facet normal 0 0 -1
    outer loop
      vertex 92.15338673679771 -27.850207437045764 43.3
      vertex 92.23139631987029 -27.918620005288286 43.3
      vertex 92.71284237711589 -29.181178695022382 43.3
    endloop
  endfacet
  facet normal 0 0 -1
    outer loop
      vertex 92.40813959032394 -28.04324448627935 43.3
      vertex 92.63344147750428 -28.348787116509033 43.3
      vertex 92.40849467014897 -28.060348142047335 43.3
    endloop
  endfacet
  facet normal 0 0 -1
    outer loop
      vertex 92.71284237711589 -29.181178695022382 43.3
      vertex 92.61286987147203 -28.13312669324574 43.3
      vertex 93 -29.2 43.3
    endloop
  endfacet
  facet normal 0 0 -1
    outer loop
      vertex 93.56940189922554 -29.12503681783595 43.3
      vertex 93.23740841210858 -28.17366629303966 43.3
      vertex 93.82930373884314 -29.036812031491337 43.3
    endloop
  endfacet
  facet normal 0 0 -1
    outer loop
      vertex 93.8419035512032 -29.032534971524832 43.3
      vertex 93.82930373884314 -29.036812031491337 43.3
      vertex 93.78938080304168 -28.234363373291867 43.3
    endloop
  endfacet
  facet normal 0 0 -1
    outer loop
      vertex 94.1 -28.905255888325765 43.3
      vertex 94.05264021764877 -28.92861114837011 43.3
      vertex 94.06683864463862 -28.39931137552432 43.3
    endloop
  endfacet
  facet normal 0 0 -1
    outer loop
      vertex 92.71284237711589 -29.181178695022382 43.3
      vertex 92.40849467014897 -28.060348142047335 43.3
      vertex 92.63344147750428 -28.348787116509033 43.3
    endloop
  endfacet
  facet normal 0 0 -1
    outer loop
      vertex 93 -29.2 43.3
      vertex 92.61286987147203 -28.13312669324574 43.3
      vertex 92.75454724829409 -28.336578865595705 43.3
    endloop
  endfacet
  facet normal 0 0 -1
    outer loop
      vertex 93 -28.2 43.3
      vertex 93.25427032471195 -28.51515082725067 43.3
      vertex 93.28715762288411 -29.181178695022382 43.3
    endloop
  endfacet
  facet normal 0 0 -1
    outer loop
      vertex 92.75454724829409 -28.336578865595705 43.3
      vertex 92.84336856933594 -28.189733833648575 43.3
      vertex 93 -29.2 43.3
    endloop
  endfacet
  facet normal 0 0 -1
    outer loop
      vertex 93.23740841210858 -28.17366629303966 43.3
      vertex 93.31058285412306 -28.159110991546996 43.3
      vertex 93.82930373884314 -29.036812031491337 43.3
    endloop
  endfacet
  facet normal 0 0 -1
    outer loop
      vertex 93.31058285412306 -28.159110991546996 43.3
      vertex 93.38857154239946 -28.132637399168278 43.3
      vertex 93.82930373884314 -29.036812031491337 43.3
    endloop
  endfacet
  facet normal 0 0 -1
    outer loop
      vertex 93.38857154239946 -28.132637399168278 43.3
      vertex 93.46688688223286 -28.139006380446492 43.3
      vertex 93.82930373884314 -29.036812031491337 43.3
    endloop
  endfacet
  facet normal 0 0 -1
    outer loop
      vertex 93.46351135758623 -28.1065392342529 43.3
      vertex 93.82930373884314 -29.036812031491337 43.3
      vertex 93.46688688223286 -28.139006380446492 43.3
    endloop
  endfacet
  facet normal 0 0 -1
    outer loop
      vertex 93.46351135758623 -28.1065392342529 43.3
      vertex 93.5317208891843 -28.072902015733572 43.3
      vertex 93.82930373884314 -29.036812031491337 43.3
    endloop
  endfacet
  facet normal 0 0 -1
    outer loop
      vertex 93.60397830645638 -28.03657226515207 43.3
      vertex 93.78938080304168 -28.234363373291867 43.3
      vertex 93.82930373884314 -29.036812031491337 43.3
    endloop
  endfacet
  facet normal 0 0 -1
    outer loop
      vertex 93 -28.2 43.3
      vertex 93.15663143066406 -28.18973383364857 43.3
      vertex 93.25427032471195 -28.51515082725067 43.3
    endloop
  endfacet
  facet normal 0 0 -1
    outer loop
      vertex 92.68488639912186 -28.15757301026503 43.3
      vertex 92.75454724829409 -28.336578865595705 43.3
      vertex 92.61286987147203 -28.13312669324574 43.3
    endloop
  endfacet
  facet normal 0 0 -1
    outer loop
      vertex 92.40813959032394 -28.04324448627935 43.3
      vertex 92.53648864241377 -28.1065392342529 43.3
      vertex 92.63344147750428 -28.348787116509033 43.3
    endloop
  endfacet
  facet normal 0 0 -1
    outer loop
      vertex 94.55563491861041 -28.555634918610405 43.3
      vertex 94.33927514381918 -28.745377348640716 43.3
      vertex 94.74537734864072 -28.339275143819187 43.3
    endloop
  endfacet
  facet normal 0 0 -1
    outer loop
      vertex 94.74537734864072 -28.339275143819187 43.3
      vertex 94.33927514381918 -28.745377348640716 43.3
      vertex 94.90525588832577 -28.1 43.3
    endloop
  endfacet
  facet normal 0 0 -1
    outer loop
      vertex 93.91292377948885 -27.775098980790354 43.3
      vertex 94.06683864463862 -28.39931137552432 43.3
      vertex 94.05264021764877 -28.92861114837011 43.3
    endloop
  endfacet
  facet normal 0 0 -1
    outer loop
      vertex 94.90525588832577 -28.1 43.3
      vertex 94.33927514381918 -28.745377348640716 43.3
      vertex 95.03253497152483 -27.8419035512032 43.3
    endloop
  endfacet
  facet normal 0 0 -1
    outer loop
      vertex 91.09474411167423 -28.1 43.3
      vertex 90.96746502847517 -27.8419035512032 43.3
      vertex 91.9 -27.789463235696118 43.3
    endloop
  endfacet
  facet normal 0 0 -1
    outer loop
      vertex 91.09474411167423 -28.1 43.3
      vertex 91.9 -27.789463235696118 43.3
      vertex 92.08226033764898 -27.875499503905473 43.3
    endloop
  endfacet
  facet normal 0 0 -1
    outer loop
      vertex 92.35787580228984 -28.011083995491905 43.3
      vertex 92.40849467014897 -28.060348142047335 43.3
      vertex 92.32978452401709 -28.097043135012356 43.3
    endloop
  endfacet
  facet normal 0 0 -1
    outer loop
      vertex 91.9 -27.789463235696118 43.3
      vertex 90.96746502847517 -27.8419035512032 43.3
      vertex 91.9 -27.62476185901767 43.3
    endloop
  endfacet
  facet normal 0 0 -1
    outer loop
      vertex 91.80751208059509 -27.494162921424838 43.3
      vertex 91.9 -27.62476185901767 43.3
      vertex 90.96746502847517 -27.8419035512032 43.3
    endloop
  endfacet
  facet normal 0 0 -1
    outer loop
      vertex 90.87496318216405 -27.569401899225547 43.3
      vertex 90.81882130497762 -27.287157622884113 43.3
      vertex 91.74937500470429 -26.607162549554292 43.3
    endloop
  endfacet
  facet normal 0 0 -1
    outer loop
      vertex 90.87496318216405 -27.569401899225547 43.3
      vertex 91.74937500470429 -26.607162549554292 43.3
      vertex 90.96746502847517 -27.8419035512032 43.3
    endloop
  endfacet
  facet normal 0 0 -1
    outer loop
      vertex 91.80751208059509 -27.494162921424838 43.3
      vertex 90.96746502847517 -27.8419035512032 43.3
      vertex 91.74937500470429 -26.607162549554292 43.3
    endloop
  endfacet
  facet normal 0 0 -1
    outer loop
      vertex 93.60397830645638 -28.03657226515207 43.3
      vertex 93.72296769217255 -27.9570660994774 43.3
      vertex 93.78938080304168 -28.234363373291867 43.3
    endloop
  endfacet
  facet normal 0 0 -1
    outer loop
      vertex 93.91292377948885 -27.775098980790354 43.3
      vertex 93.94665795206429 -27.736632529295964 43.3
      vertex 94.06683864463862 -28.39931137552432 43.3
    endloop
  endfacet
  facet normal 0 0 -1
    outer loop
      vertex 95.03253497152483 -27.8419035512032 43.3
      vertex 94.33927514381918 -28.745377348640716 43.3
      vertex 95.12503681783595 -27.569401899225547 43.3
    endloop
  endfacet
  facet normal 0 0 -1
    outer loop
      vertex 95.12503681783595 -27.569401899225547 43.3
      vertex 94.33927514381918 -28.745377348640716 43.3
      vertex 95.18117869502238 -27.287157622884113 43.3
    endloop
  endfacet
  facet normal 0 0 -1
    outer loop
      vertex 95.18117869502238 -27.287157622884113 43.3
      vertex 94.33927514381918 -28.745377348640716 43.3
      vertex 95.19999999999999 -26.999999999999783 43.3
    endloop
  endfacet
  facet normal 0 0 -1
    outer loop
      vertex 95.18117869502238 -26.712842377115887 43.3
      vertex 95.19999999999999 -26.999999999999783 43.3
      vertex 94.33927514381918 -28.745377348640716 43.3
    endloop
  endfacet
  facet normal 0 0 -1
    outer loop
      vertex 95.18117869502238 -26.712842377115887 43.3
      vertex 94.33927514381918 -28.745377348640716 43.3
      vertex 95.12503681783595 -26.430598100774453 43.3
    endloop
  endfacet
  facet normal 0 0 -1
    outer loop
      vertex 95.12503681783595 -26.430598100774453 43.3
      vertex 94.33927514381918 -28.745377348640716 43.3
      vertex 95.03253497152483 -26.1580964487968 43.3
    endloop
  endfacet
  facet normal 0 0 -1
    outer loop
      vertex 90.81882130497762 -27.287157622884113 43.3
      vertex 90.8 -27 43.3
      vertex 91.74937500470429 -26.607162549554292 43.3
    endloop
  endfacet
  facet normal 0 0 -1
    outer loop
      vertex 90.8 -27 43.3
      vertex 90.81882130497762 -26.712842377115887 43.3
      vertex 91.74937500470429 -26.607162549554292 43.3
    endloop
  endfacet
  facet normal 0 0 -1
    outer loop
      vertex 90.81882130497762 -26.712842377115887 43.3
      vertex 90.87496318216405 -26.430598100774453 43.3
      vertex 91.74937500470429 -26.607162549554292 43.3
    endloop
  endfacet
  facet normal 0 0 -1
    outer loop
      vertex 90.87496318216405 -26.430598100774453 43.3
      vertex 90.96746502847517 -26.1580964487968 43.3
      vertex 91.74937500470429 -26.607162549554292 43.3
    endloop
  endfacet
  facet normal 0 0 -1
    outer loop
      vertex 91.09474411167423 -25.9 43.3
      vertex 91.9 -26.521053209231535 43.3
      vertex 91.74937500470429 -26.607162549554292 43.3
    endloop
  endfacet
  facet normal 0 0 -1
    outer loop
      vertex 90.96746502847517 -26.1580964487968 43.3
      vertex 91.09474411167423 -25.9 43.3
      vertex 91.74937500470429 -26.607162549554292 43.3
    endloop
  endfacet
  facet normal 0 0 -1
    outer loop
      vertex 91.09474411167423 -25.9 43.3
      vertex 91.25462265135928 -25.660724856180813 43.3
      vertex 91.9 -26.521053209231535 43.3
    endloop
  endfacet
  facet normal 0 0 -1
    outer loop
      vertex 92.43059810077446 -24.87496318216405 43.3
      vertex 91.98232361758657 -26.350759800357633 43.3
      vertex 91.9 -26.521053209231535 43.3
    endloop
  endfacet
  facet normal 0 0 -1
    outer loop
      vertex 94.55563491861041 -25.444365081389595 43.3
      vertex 94.33927514381918 -28.745377348640716 43.3
      vertex 94.16793267773953 -26.131196487268657 43.3
    endloop
  endfacet
  facet normal 0 0 -1
    outer loop
      vertex 94.90525588832577 -25.9 43.3
      vertex 95.03253497152483 -26.1580964487968 43.3
      vertex 94.33927514381918 -28.745377348640716 43.3
    endloop
  endfacet
  facet normal 0 0 -1
    outer loop
      vertex 94.90525588832577 -25.9 43.3
      vertex 94.33927514381918 -28.745377348640716 43.3
      vertex 94.74537734864072 -25.660724856180813 43.3
    endloop
  endfacet
  facet normal 0 0 -1
    outer loop
      vertex 94.55563491861041 -25.444365081389595 43.3
      vertex 94.74537734864072 -25.660724856180813 43.3
      vertex 94.33927514381918 -28.745377348640716 43.3
    endloop
  endfacet
  facet normal 0 0 -1
    outer loop
      vertex 91.25462265135928 -25.660724856180813 43.3
      vertex 91.44436508138959 -25.444365081389595 43.3
      vertex 91.9 -26.521053209231535 43.3
    endloop
  endfacet
  facet normal 0 0 -1
    outer loop
      vertex 91.66072485618082 -25.254622651359284 43.3
      vertex 91.9 -26.521053209231535 43.3
      vertex 91.44436508138959 -25.444365081389595 43.3
    endloop
  endfacet
  facet normal 0 0 -1
    outer loop
      vertex 92.43059810077446 -24.87496318216405 43.3
      vertex 92.05271177926382 -26.25856417831052 43.3
      vertex 91.98232361758657 -26.350759800357633 43.3
    endloop
  endfacet
  facet normal 0 0 -1
    outer loop
      vertex 92.0816145206818 -26.19190603047097 43.3
      vertex 92.05271177926382 -26.25856417831052 43.3
      vertex 92.43059810077446 -24.87496318216405 43.3
    endloop
  endfacet
  facet normal 0 0 -1
    outer loop
      vertex 92.0816145206818 -26.19190603047097 43.3
      vertex 92.43059810077446 -24.87496318216405 43.3
      vertex 92.17119452010701 -26.105204935052754 43.3
    endloop
  endfacet
  facet normal 0 0 -1
    outer loop
      vertex 92.2247039632063 -25.979678366342775 43.3
      vertex 92.17119452010701 -26.105204935052754 43.3
      vertex 92.71284237711589 -24.818821304977618 43.3
    endloop
  endfacet
  facet normal 0 0 -1
    outer loop
      vertex 91.9 -25.094744111674235 43.3
      vertex 92.1580964487968 -24.967465028475168 43.3
      vertex 91.9 -26.521053209231535 43.3
    endloop
  endfacet
  facet normal 0 0 -1
    outer loop
      vertex 92.2247039632063 -25.979678366342775 43.3
      vertex 92.71284237711589 -24.818821304977618 43.3
      vertex 92.27588739635179 -26.032581121609976 43.3
    endloop
  endfacet
  facet normal 0 0 -1
    outer loop
      vertex 92.36267755625236 -25.82384810657603 43.3
      vertex 92.27588739635179 -26.032581121609976 43.3
      vertex 92.71284237711589 -24.818821304977618 43.3
    endloop
  endfacet
  facet normal 0 0 -1
    outer loop
      vertex 92.1580964487968 -24.967465028475168 43.3
      vertex 92.43059810077446 -24.87496318216405 43.3
      vertex 91.9 -26.521053209231535 43.3
    endloop
  endfacet
  facet normal 0 0 -1
    outer loop
      vertex 92.36267755625236 -25.82384810657603 43.3
      vertex 92.71284237711589 -24.818821304977618 43.3
      vertex 92.46380433529956 -25.802152632563246 43.3
    endloop
  endfacet
  facet normal 0 0 -1
    outer loop
      vertex 92.71284237711589 -24.818821304977618 43.3
      vertex 92.17119452010701 -26.105204935052754 43.3
      vertex 92.43059810077446 -24.87496318216405 43.3
    endloop
  endfacet
  facet normal 0 0 -1
    outer loop
      vertex 92.51401741092496 -25.677323473245107 43.3
      vertex 92.46380433529956 -25.802152632563246 43.3
      vertex 92.71284237711589 -24.818821304977618 43.3
    endloop
  endfacet
  facet normal 0 0 -1
    outer loop
      vertex 92.51401741092496 -25.677323473245107 43.3
      vertex 92.71284237711589 -24.818821304977618 43.3
      vertex 92.59173626192118 -25.759291567364222 43.3
    endloop
  endfacet
  facet normal 0 0 -1
    outer loop
      vertex 92.63648216490466 -25.643332969966742 43.3
      vertex 92.59173626192118 -25.759291567364222 43.3
      vertex 92.71284237711589 -24.818821304977618 43.3
    endloop
  endfacet
  facet normal 0 0 -1
    outer loop
      vertex 92.75454724829409 -25.663421134404295 43.3
      vertex 93 -24.8 43.3
      vertex 92.84336856933594 -25.810266166351425 43.3
    endloop
  endfacet
  facet normal 0 0 -1
    outer loop
      vertex 93.3656374164109 -25.64155655778589 43.3
      vertex 93.31466767281421 -25.826099372746153 43.3
      vertex 93.56940189922554 -24.87496318216405 43.3
    endloop
  endfacet
  facet normal 0 0 -1
    outer loop
      vertex 93.25427032471195 -25.48484917274933 43.3
      vertex 93.56940189922554 -24.87496318216405 43.3
      vertex 93.31466767281421 -25.826099372746153 43.3
    endloop
  endfacet
  facet normal 0 0 -1
    outer loop
      vertex 94.33927514381918 -25.254622651359284 43.3
      vertex 94.16793267773953 -26.131196487268657 43.3
      vertex 94.1 -26.012589400044252 43.3
    endloop
  endfacet
  facet normal 0 0 -1
    outer loop
      vertex 94.33927514381918 -25.254622651359284 43.3
      vertex 94.55563491861041 -25.444365081389595 43.3
      vertex 94.16793267773953 -26.131196487268657 43.3
    endloop
  endfacet
  facet normal 0 0 -1
    outer loop
      vertex 94.1 -25.094744111674235 43.3
      vertex 94.33927514381918 -25.254622651359284 43.3
      vertex 94.1 -26.012589400044252 43.3
    endloop
  endfacet
  facet normal 0 0 -1
    outer loop
      vertex 93 -25.35762782886727 43.3
      vertex 92.84336856933594 -25.810266166351425 43.3
      vertex 93 -24.8 43.3
    endloop
  endfacet
  facet normal 0 0 -1
    outer loop
      vertex 93 -25.35762782886727 43.3
      vertex 93.28715762288411 -24.818821304977618 43.3
      vertex 93.06525542772029 -25.598301405228213 43.3
    endloop
  endfacet
  facet normal 0 0 -1
    outer loop
      vertex 93 -24.8 43.3
      vertex 92.75454724829409 -25.663421134404295 43.3
      vertex 92.71284237711589 -24.818821304977618 43.3
    endloop
  endfacet
  facet normal 0 0 -1
    outer loop
      vertex 93.26637986305603 -24.97664405964501 43.3
      vertex 93.06525542772029 -25.598301405228213 43.3
      vertex 93.28715762288411 -24.818821304977618 43.3
    endloop
  endfacet
  facet normal 0 0 -1
    outer loop
      vertex 93.28715762288411 -24.818821304977618 43.3
      vertex 93 -25.35762782886727 43.3
      vertex 93 -24.8 43.3
    endloop
  endfacet
  facet normal 0 0 -1
    outer loop
      vertex 93.56940189922554 -24.87496318216405 43.3
      vertex 93.25427032471195 -25.48484917274933 43.3
      vertex 93.28715762288411 -24.818821304977618 43.3
    endloop
  endfacet
endsolid OpenSCAD_Model
