solid OpenSCAD_Model
  facet normal 0 0 -1
    outer loop
      vertex -103 -41 51.3
      vertex -95.18328729916888 -42.70116655633299 51.3
      vertex -103 -46.5 51.3
    endloop
  endfacet
  facet normal 0 0 -1
    outer loop
      vertex -103 -41 51.3
      vertex -95.60715132980718 -42.5071689932311 51.3
      vertex -95.18328729916888 -42.70116655633299 51.3
    endloop
  endfacet
  facet normal 0 0 -1
    outer loop
      vertex -103 -41 51.3
      vertex -99.3123878204882 -41 51.3
      vertex -95.60715132980718 -42.5071689932311 51.3
    endloop
  endfacet
  facet normal 0 0 -1
    outer loop
      vertex -88.85714285714286 -41 51.3
      vertex -92.85537898217417 -42.646731059776386 51.3
      vertex -92.88844244913973 -42.54932922697488 51.3
    endloop
  endfacet
  facet normal 0 0 -1
    outer loop
      vertex -88.85714285714286 -41 51.3
      vertex -92.88844244913973 -42.54932922697488 51.3
      vertex -89.34859784927558 -41.175649662633425 51.3
    endloop
  endfacet
  facet normal 0 0 -1
    outer loop
      vertex -88.85714285714286 -41 51.3
      vertex -89.34859784927558 -41.175649662633425 51.3
      vertex -88.89275689266819 -41 51.3
    endloop
  endfacet
  facet normal 0 0 1
    outer loop
      vertex -103 -46.5 51.3
      vertex -95.18328729916888 -42.70116655633299 51.3
      vertex -95.60715132980718 -42.5071689932311 51.3
    endloop
  endfacet
  facet normal 0 0 1
    outer loop
      vertex -103 -41 51.3
      vertex -103 -46.5 51.3
      vertex -99.3123878204882 -41 51.3
    endloop
  endfacet
  facet normal 0 0 1
    outer loop
      vertex -103 -46.5 51.3
      vertex -95.60715132980718 -42.5071689932311 51.3
      vertex -99.3123878204882 -41 51.3
    endloop
  endfacet
  facet normal 0 0 1
    outer loop
      vertex -92.88844244913973 -42.54932922697488 51.3
      vertex -92.85537898217417 -42.646731059776386 51.3
      vertex -89.34859784927558 -41.175649662633425 51.3
    endloop
  endfacet
  facet normal 0 0 1
    outer loop
      vertex -89.34859784927558 -41.175649662633425 51.3
      vertex -92.85537898217417 -42.646731059776386 51.3
      vertex -88.89275689266819 -41 51.3
    endloop
  endfacet
  facet normal 0 0 1
    outer loop
      vertex -92.85537898217417 -42.646731059776386 51.3
      vertex -88.85714285714286 -41 51.3
      vertex -88.89275689266819 -41 51.3
    endloop
  endfacet
endsolid OpenSCAD_Model
