solid OpenSCAD_Model
  facet normal -1 0 0
    outer loop
      vertex 117 50.48529411764706 19.8
      vertex 117 50.584807815664234 19.82940944639045
      vertex 117 51.02826523263543 19.766081720837487
    endloop
  endfacet
  facet normal -1 0 0
    outer loop
      vertex 117 51.02826523263543 19.766081720837487
      vertex 117 50.584807815664234 19.82940944639045
      vertex 117 51 19.8
    endloop
  endfacet
  facet normal 1 0 0
    outer loop
      vertex 117 51 19.8
      vertex 117 50.48529411764706 19.8
      vertex 117 51.02826523263543 19.766081720837487
    endloop
  endfacet
  facet normal 1 0 0
    outer loop
      vertex 117 51 19.8
      vertex 117 50.584807815664234 19.82940944639045
      vertex 117 50.48529411764706 19.8
    endloop
  endfacet
endsolid OpenSCAD_Model
