solid OpenSCAD_Model
  facet normal 0.3214394653031611 0.9469301294951058 0
    outer loop
      vertex 75.7407798811619 37.891344560986454 16.8
      vertex 75.88941714587698 37.84088900845312 14.8
      vertex 75.7407798811619 37.891344560986454 14.8
    endloop
  endfacet
  facet normal 0.19509032201614018 0.9807852804032281 0
    outer loop
      vertex 75.88941714587698 37.84088900845312 16.8
      vertex 76.04336856933594 37.810266166351425 14.8
      vertex 75.88941714587698 37.84088900845312 14.8
    endloop
  endfacet
  facet normal 0.44228869021900913 0.8968727415326845 0
    outer loop
      vertex 75.60000000000001 37.96076951545867 16.8
      vertex 75.7407798811619 37.891344560986454 14.8
      vertex 75.60000000000001 37.96076951545867 14.8
    endloop
  endfacet
  facet normal 0.06540312923014742 0.9978589232386033 0
    outer loop
      vertex 76.04336856933594 37.810266166351425 16.8
      vertex 76.2 37.8 14.8
      vertex 76.04336856933594 37.810266166351425 14.8
    endloop
  endfacet
  facet normal -0.06540312923014742 0.9978589232386033 0
    outer loop
      vertex 76.2 37.8 16.8
      vertex 76.35663143066407 37.810266166351425 14.8
      vertex 76.2 37.8 14.8
    endloop
  endfacet
  facet normal -0.19509032201614018 0.9807852804032281 0
    outer loop
      vertex 76.35663143066407 37.810266166351425 16.8
      vertex 76.51058285412303 37.84088900845312 14.8
      vertex 76.35663143066407 37.810266166351425 14.8
    endloop
  endfacet
  facet normal -0.3214394653031611 0.9469301294951058 0
    outer loop
      vertex 76.51058285412303 37.84088900845312 16.8
      vertex 76.6592201188381 37.891344560986454 14.8
      vertex 76.51058285412303 37.84088900845312 14.8
    endloop
  endfacet
  facet normal -0.44228869021900913 0.8968727415326845 0
    outer loop
      vertex 76.6592201188381 37.891344560986454 16.8
      vertex 76.8 37.96076951545867 14.8
      vertex 76.6592201188381 37.891344560986454 14.8
    endloop
  endfacet
  facet normal -0.5555702330195729 0.8314696123025648 0
    outer loop
      vertex 76.8 37.96076951545867 16.8
      vertex 76.93051371481047 38.04797599165052 14.8
      vertex 76.8 37.96076951545867 14.8
    endloop
  endfacet
  facet normal 0.5555702330195729 0.8314696123025648 0
    outer loop
      vertex 75.46948628518953 38.04797599165052 16.8
      vertex 75.60000000000001 37.96076951545867 14.8
      vertex 75.46948628518953 38.04797599165052 14.8
    endloop
  endfacet
  facet normal 0.6593458151001 0.75183980747895 0
    outer loop
      vertex 75.46948628518953 38.04797599165052 14.8
      vertex 75.35147186257615 38.151471862576145 14.8
      vertex 75.35147186257615 38.151471862576145 16.8
    endloop
  endfacet
  facet normal 0.7518398074789697 0.6593458151000777 0
    outer loop
      vertex 75.24797599165052 38.26948628518954 16.8
      vertex 75.35147186257615 38.151471862576145 14.8
      vertex 75.24797599165052 38.26948628518954 14.8
    endloop
  endfacet
  facet normal 0.8314696123025578 0.5555702330195834 0
    outer loop
      vertex 75.16076951545868 38.4 16.8
      vertex 75.24797599165052 38.26948628518954 14.8
      vertex 75.16076951545868 38.4 14.8
    endloop
  endfacet
  facet normal 0.8968727415326665 0.44228869021904554 0
    outer loop
      vertex 75.09134456098646 38.54077988116189 16.8
      vertex 75.16076951545868 38.4 14.8
      vertex 75.09134456098646 38.54077988116189 14.8
    endloop
  endfacet
  facet normal -0.6593458151001 0.75183980747895 0
    outer loop
      vertex 76.93051371481047 38.04797599165052 16.8
      vertex 77.04852813742386 38.151471862576145 14.8
      vertex 76.93051371481047 38.04797599165052 14.8
    endloop
  endfacet
  facet normal -0.7518398074789697 0.6593458151000777 0
    outer loop
      vertex 77.04852813742386 38.151471862576145 14.8
      vertex 77.04852813742386 38.151471862576145 16.8
      vertex 77.15202400834949 38.26948628518954 14.8
    endloop
  endfacet
  facet normal -0.8314696123025578 0.5555702330195834 0
    outer loop
      vertex 77.15202400834949 38.26948628518954 16.8
      vertex 77.23923048454132 38.4 14.8
      vertex 77.15202400834949 38.26948628518954 14.8
    endloop
  endfacet
  facet normal -0.8968727415326665 0.44228869021904554 0
    outer loop
      vertex 77.23923048454132 38.4 16.8
      vertex 77.30865543901355 38.54077988116189 14.8
      vertex 77.23923048454132 38.4 14.8
    endloop
  endfacet
  facet normal 0.9469301294951106 0.3214394653031474 0
    outer loop
      vertex 75.04088900845312 38.68941714587697 16.8
      vertex 75.09134456098646 38.54077988116189 14.8
      vertex 75.04088900845312 38.68941714587697 14.8
    endloop
  endfacet
  facet normal 0.9807852804032281 0.19509032201614018 0
    outer loop
      vertex 75.01026616635143 38.84336856933594 16.8
      vertex 75.04088900845312 38.68941714587697 14.8
      vertex 75.01026616635143 38.84336856933594 14.8
    endloop
  endfacet
  facet normal 0.9978589232386033 0.06540312923014742 0
    outer loop
      vertex 75 39 16.8
      vertex 75.01026616635143 38.84336856933594 14.8
      vertex 75 39 14.8
    endloop
  endfacet
  facet normal -0.9469301294951106 0.3214394653031474 0
    outer loop
      vertex 77.30865543901355 38.54077988116189 16.8
      vertex 77.35911099154688 38.68941714587697 14.8
      vertex 77.30865543901355 38.54077988116189 14.8
    endloop
  endfacet
  facet normal -0.9807852804032281 0.19509032201614018 0
    outer loop
      vertex 77.35911099154688 38.68941714587697 16.8
      vertex 77.38973383364858 38.84336856933594 14.8
      vertex 77.35911099154688 38.68941714587697 14.8
    endloop
  endfacet
  facet normal -0.9978589232386033 0.06540312923014742 0
    outer loop
      vertex 77.38973383364858 38.84336856933594 14.8
      vertex 77.38973383364858 38.84336856933594 16.8
      vertex 77.4 39 14.8
    endloop
  endfacet
  facet normal 0.19509032201614018 0.9807852804032281 0
    outer loop
      vertex 76.04336856933594 37.810266166351425 16.8
      vertex 76.04336856933594 37.810266166351425 14.8
      vertex 75.88941714587698 37.84088900845312 16.8
    endloop
  endfacet
  facet normal 0.3214394653031611 0.9469301294951058 0
    outer loop
      vertex 75.88941714587698 37.84088900845312 16.8
      vertex 75.88941714587698 37.84088900845312 14.8
      vertex 75.7407798811619 37.891344560986454 16.8
    endloop
  endfacet
  facet normal 0.5555702330195729 0.8314696123025648 0
    outer loop
      vertex 75.60000000000001 37.96076951545867 16.8
      vertex 75.60000000000001 37.96076951545867 14.8
      vertex 75.46948628518953 38.04797599165052 16.8
    endloop
  endfacet
  facet normal 0.44228869021900913 0.8968727415326845 0
    outer loop
      vertex 75.7407798811619 37.891344560986454 16.8
      vertex 75.7407798811619 37.891344560986454 14.8
      vertex 75.60000000000001 37.96076951545867 16.8
    endloop
  endfacet
  facet normal 0.06540312923014742 0.9978589232386033 0
    outer loop
      vertex 76.2 37.8 16.8
      vertex 76.2 37.8 14.8
      vertex 76.04336856933594 37.810266166351425 16.8
    endloop
  endfacet
  facet normal -0.06540312923014742 0.9978589232386033 0
    outer loop
      vertex 76.35663143066407 37.810266166351425 16.8
      vertex 76.35663143066407 37.810266166351425 14.8
      vertex 76.2 37.8 16.8
    endloop
  endfacet
  facet normal -0.19509032201614018 0.9807852804032281 0
    outer loop
      vertex 76.51058285412303 37.84088900845312 16.8
      vertex 76.51058285412303 37.84088900845312 14.8
      vertex 76.35663143066407 37.810266166351425 16.8
    endloop
  endfacet
  facet normal -0.3214394653031611 0.9469301294951058 0
    outer loop
      vertex 76.6592201188381 37.891344560986454 16.8
      vertex 76.6592201188381 37.891344560986454 14.8
      vertex 76.51058285412303 37.84088900845312 16.8
    endloop
  endfacet
  facet normal -0.44228869021900913 0.8968727415326845 0
    outer loop
      vertex 76.8 37.96076951545867 16.8
      vertex 76.8 37.96076951545867 14.8
      vertex 76.6592201188381 37.891344560986454 16.8
    endloop
  endfacet
  facet normal 0.6593458151001 0.75183980747895 0
    outer loop
      vertex 75.46948628518953 38.04797599165052 16.8
      vertex 75.46948628518953 38.04797599165052 14.8
      vertex 75.35147186257615 38.151471862576145 16.8
    endloop
  endfacet
  facet normal 0.7518398074789697 0.6593458151000777 0
    outer loop
      vertex 75.24797599165052 38.26948628518954 16.8
      vertex 75.35147186257615 38.151471862576145 16.8
      vertex 75.35147186257615 38.151471862576145 14.8
    endloop
  endfacet
  facet normal 0.8314696123025578 0.5555702330195834 0
    outer loop
      vertex 75.16076951545868 38.4 16.8
      vertex 75.24797599165052 38.26948628518954 16.8
      vertex 75.24797599165052 38.26948628518954 14.8
    endloop
  endfacet
  facet normal 0.8968727415326665 0.44228869021904554 0
    outer loop
      vertex 75.09134456098646 38.54077988116189 16.8
      vertex 75.16076951545868 38.4 16.8
      vertex 75.16076951545868 38.4 14.8
    endloop
  endfacet
  facet normal -0.5555702330195729 0.8314696123025648 0
    outer loop
      vertex 76.93051371481047 38.04797599165052 16.8
      vertex 76.93051371481047 38.04797599165052 14.8
      vertex 76.8 37.96076951545867 16.8
    endloop
  endfacet
  facet normal -0.6593458151001 0.75183980747895 0
    outer loop
      vertex 77.04852813742386 38.151471862576145 16.8
      vertex 77.04852813742386 38.151471862576145 14.8
      vertex 76.93051371481047 38.04797599165052 16.8
    endloop
  endfacet
  facet normal -0.7518398074789697 0.6593458151000777 0
    outer loop
      vertex 77.04852813742386 38.151471862576145 16.8
      vertex 77.15202400834949 38.26948628518954 16.8
      vertex 77.15202400834949 38.26948628518954 14.8
    endloop
  endfacet
  facet normal -0.8314696123025578 0.5555702330195834 0
    outer loop
      vertex 77.15202400834949 38.26948628518954 16.8
      vertex 77.23923048454132 38.4 16.8
      vertex 77.23923048454132 38.4 14.8
    endloop
  endfacet
  facet normal -0.8968727415326665 0.44228869021904554 0
    outer loop
      vertex 77.23923048454132 38.4 16.8
      vertex 77.30865543901355 38.54077988116189 16.8
      vertex 77.30865543901355 38.54077988116189 14.8
    endloop
  endfacet
  facet normal 0.9469301294951106 0.3214394653031474 0
    outer loop
      vertex 75.04088900845312 38.68941714587697 16.8
      vertex 75.09134456098646 38.54077988116189 16.8
      vertex 75.09134456098646 38.54077988116189 14.8
    endloop
  endfacet
  facet normal 0.9807852804032281 0.19509032201614018 0
    outer loop
      vertex 75.01026616635143 38.84336856933594 16.8
      vertex 75.04088900845312 38.68941714587697 16.8
      vertex 75.04088900845312 38.68941714587697 14.8
    endloop
  endfacet
  facet normal 0.9978589232386033 0.06540312923014742 0
    outer loop
      vertex 75 39 16.8
      vertex 75.01026616635143 38.84336856933594 16.8
      vertex 75.01026616635143 38.84336856933594 14.8
    endloop
  endfacet
  facet normal -0.9469301294951106 0.3214394653031474 0
    outer loop
      vertex 77.30865543901355 38.54077988116189 16.8
      vertex 77.35911099154688 38.68941714587697 16.8
      vertex 77.35911099154688 38.68941714587697 14.8
    endloop
  endfacet
  facet normal -0.9807852804032281 0.19509032201614018 0
    outer loop
      vertex 77.35911099154688 38.68941714587697 16.8
      vertex 77.38973383364858 38.84336856933594 16.8
      vertex 77.38973383364858 38.84336856933594 14.8
    endloop
  endfacet
  facet normal -0.9978589232386033 0.06540312923014742 0
    outer loop
      vertex 77.38973383364858 38.84336856933594 16.8
      vertex 77.4 39 16.8
      vertex 77.4 39 14.8
    endloop
  endfacet
  facet normal 0.9978589232386033 -0.06540312923014742 0
    outer loop
      vertex 75.01026616635143 39.15663143066406 16.8
      vertex 75 39 14.8
      vertex 75.01026616635143 39.15663143066406 14.8
    endloop
  endfacet
  facet normal 0.9807852804032281 -0.19509032201614018 0
    outer loop
      vertex 75.04088900845312 39.31058285412303 16.8
      vertex 75.01026616635143 39.15663143066406 14.8
      vertex 75.04088900845312 39.31058285412303 14.8
    endloop
  endfacet
  facet normal 0.9469301294951106 -0.3214394653031474 0
    outer loop
      vertex 75.09134456098646 39.45922011883811 16.8
      vertex 75.04088900845312 39.31058285412303 14.8
      vertex 75.09134456098646 39.45922011883811 14.8
    endloop
  endfacet
  facet normal -0.9978589232386033 -0.06540312923014742 0
    outer loop
      vertex 77.4 39 14.8
      vertex 77.4 39 16.8
      vertex 77.38973383364858 39.15663143066406 14.8
    endloop
  endfacet
  facet normal -0.9807852804032281 -0.19509032201614018 0
    outer loop
      vertex 77.38973383364858 39.15663143066406 16.8
      vertex 77.35911099154688 39.31058285412303 14.8
      vertex 77.38973383364858 39.15663143066406 14.8
    endloop
  endfacet
  facet normal -0.9469301294951106 -0.3214394653031474 0
    outer loop
      vertex 77.35911099154688 39.31058285412303 16.8
      vertex 77.30865543901355 39.45922011883811 14.8
      vertex 77.35911099154688 39.31058285412303 14.8
    endloop
  endfacet
  facet normal 0.8968727415326665 -0.44228869021904554 0
    outer loop
      vertex 75.16076951545868 39.6 16.8
      vertex 75.09134456098646 39.45922011883811 14.8
      vertex 75.16076951545868 39.6 14.8
    endloop
  endfacet
  facet normal 0.8314696123025578 -0.5555702330195834 0
    outer loop
      vertex 75.24797599165052 39.73051371481046 16.8
      vertex 75.16076951545868 39.6 14.8
      vertex 75.24797599165052 39.73051371481046 14.8
    endloop
  endfacet
  facet normal 0.7518398074789697 -0.6593458151000777 0
    outer loop
      vertex 75.35147186257615 39.848528137423855 16.8
      vertex 75.24797599165052 39.73051371481046 14.8
      vertex 75.35147186257615 39.848528137423855 14.8
    endloop
  endfacet
  facet normal 0.6593458151001 -0.75183980747895 0
    outer loop
      vertex 75.46948628518953 39.95202400834948 16.8
      vertex 75.35147186257615 39.848528137423855 14.8
      vertex 75.46948628518953 39.95202400834948 14.8
    endloop
  endfacet
  facet normal -0.8968727415326665 -0.44228869021904554 0
    outer loop
      vertex 77.30865543901355 39.45922011883811 16.8
      vertex 77.23923048454132 39.6 14.8
      vertex 77.30865543901355 39.45922011883811 14.8
    endloop
  endfacet
  facet normal -0.8314696123025578 -0.5555702330195834 0
    outer loop
      vertex 77.23923048454132 39.6 16.8
      vertex 77.15202400834949 39.73051371481046 14.8
      vertex 77.23923048454132 39.6 14.8
    endloop
  endfacet
  facet normal -0.7518398074789697 -0.6593458151000777 0
    outer loop
      vertex 77.15202400834949 39.73051371481046 16.8
      vertex 77.04852813742386 39.848528137423855 14.8
      vertex 77.15202400834949 39.73051371481046 14.8
    endloop
  endfacet
  facet normal -0.6593458151001 -0.75183980747895 0
    outer loop
      vertex 77.04852813742386 39.848528137423855 16.8
      vertex 76.93051371481047 39.95202400834948 14.8
      vertex 77.04852813742386 39.848528137423855 14.8
    endloop
  endfacet
  facet normal -0.5555702330195729 -0.8314696123025648 0
    outer loop
      vertex 76.93051371481047 39.95202400834948 16.8
      vertex 76.8 40.03923048454133 14.8
      vertex 76.93051371481047 39.95202400834948 14.8
    endloop
  endfacet
  facet normal 0.5555702330195729 -0.8314696123025648 0
    outer loop
      vertex 75.60000000000001 40.03923048454133 16.8
      vertex 75.46948628518953 39.95202400834948 14.8
      vertex 75.60000000000001 40.03923048454133 14.8
    endloop
  endfacet
  facet normal 0.44228869021900913 -0.8968727415326845 0
    outer loop
      vertex 75.7407798811619 40.108655439013546 16.8
      vertex 75.60000000000001 40.03923048454133 14.8
      vertex 75.7407798811619 40.108655439013546 14.8
    endloop
  endfacet
  facet normal 0.3214394653031611 -0.9469301294951058 0
    outer loop
      vertex 75.88941714587698 40.15911099154688 16.8
      vertex 75.7407798811619 40.108655439013546 14.8
      vertex 75.88941714587698 40.15911099154688 14.8
    endloop
  endfacet
  facet normal 0.19509032201614018 -0.9807852804032281 0
    outer loop
      vertex 76.04336856933594 40.189733833648575 16.8
      vertex 75.88941714587698 40.15911099154688 14.8
      vertex 76.04336856933594 40.189733833648575 14.8
    endloop
  endfacet
  facet normal 0.06540312923014742 -0.9978589232386033 0
    outer loop
      vertex 76.2 40.2 16.8
      vertex 76.04336856933594 40.189733833648575 14.8
      vertex 76.2 40.2 14.8
    endloop
  endfacet
  facet normal -0.06540312923014742 -0.9978589232386033 0
    outer loop
      vertex 76.35663143066407 40.189733833648575 16.8
      vertex 76.2 40.2 14.8
      vertex 76.35663143066407 40.189733833648575 14.8
    endloop
  endfacet
  facet normal -0.19509032201614018 -0.9807852804032281 0
    outer loop
      vertex 76.51058285412303 40.15911099154688 16.8
      vertex 76.35663143066407 40.189733833648575 14.8
      vertex 76.51058285412303 40.15911099154688 14.8
    endloop
  endfacet
  facet normal -0.3214394653031611 -0.9469301294951058 0
    outer loop
      vertex 76.6592201188381 40.108655439013546 16.8
      vertex 76.51058285412303 40.15911099154688 14.8
      vertex 76.6592201188381 40.108655439013546 14.8
    endloop
  endfacet
  facet normal -0.44228869021900913 -0.8968727415326845 0
    outer loop
      vertex 76.8 40.03923048454133 16.8
      vertex 76.6592201188381 40.108655439013546 14.8
      vertex 76.8 40.03923048454133 14.8
    endloop
  endfacet
  facet normal 0.9978589232386033 -0.06540312923014742 0
    outer loop
      vertex 75.01026616635143 39.15663143066406 16.8
      vertex 75 39 16.8
      vertex 75 39 14.8
    endloop
  endfacet
  facet normal 0.9807852804032281 -0.19509032201614018 0
    outer loop
      vertex 75.04088900845312 39.31058285412303 16.8
      vertex 75.01026616635143 39.15663143066406 16.8
      vertex 75.01026616635143 39.15663143066406 14.8
    endloop
  endfacet
  facet normal 0.9469301294951106 -0.3214394653031474 0
    outer loop
      vertex 75.09134456098646 39.45922011883811 16.8
      vertex 75.04088900845312 39.31058285412303 16.8
      vertex 75.04088900845312 39.31058285412303 14.8
    endloop
  endfacet
  facet normal -0.9978589232386033 -0.06540312923014742 0
    outer loop
      vertex 77.4 39 16.8
      vertex 77.38973383364858 39.15663143066406 16.8
      vertex 77.38973383364858 39.15663143066406 14.8
    endloop
  endfacet
  facet normal -0.9807852804032281 -0.19509032201614018 0
    outer loop
      vertex 77.38973383364858 39.15663143066406 16.8
      vertex 77.35911099154688 39.31058285412303 16.8
      vertex 77.35911099154688 39.31058285412303 14.8
    endloop
  endfacet
  facet normal -0.9469301294951106 -0.3214394653031474 0
    outer loop
      vertex 77.35911099154688 39.31058285412303 16.8
      vertex 77.30865543901355 39.45922011883811 16.8
      vertex 77.30865543901355 39.45922011883811 14.8
    endloop
  endfacet
  facet normal 0.8968727415326665 -0.44228869021904554 0
    outer loop
      vertex 75.16076951545868 39.6 16.8
      vertex 75.09134456098646 39.45922011883811 16.8
      vertex 75.09134456098646 39.45922011883811 14.8
    endloop
  endfacet
  facet normal 0.8314696123025578 -0.5555702330195834 0
    outer loop
      vertex 75.24797599165052 39.73051371481046 16.8
      vertex 75.16076951545868 39.6 16.8
      vertex 75.16076951545868 39.6 14.8
    endloop
  endfacet
  facet normal 0.7518398074789697 -0.6593458151000777 0
    outer loop
      vertex 75.35147186257615 39.848528137423855 16.8
      vertex 75.24797599165052 39.73051371481046 16.8
      vertex 75.24797599165052 39.73051371481046 14.8
    endloop
  endfacet
  facet normal 0.6593458151001 -0.75183980747895 0
    outer loop
      vertex 75.35147186257615 39.848528137423855 16.8
      vertex 75.35147186257615 39.848528137423855 14.8
      vertex 75.46948628518953 39.95202400834948 16.8
    endloop
  endfacet
  facet normal 0.5555702330195729 -0.8314696123025648 0
    outer loop
      vertex 75.46948628518953 39.95202400834948 16.8
      vertex 75.46948628518953 39.95202400834948 14.8
      vertex 75.60000000000001 40.03923048454133 16.8
    endloop
  endfacet
  facet normal -0.8968727415326665 -0.44228869021904554 0
    outer loop
      vertex 77.30865543901355 39.45922011883811 16.8
      vertex 77.23923048454132 39.6 16.8
      vertex 77.23923048454132 39.6 14.8
    endloop
  endfacet
  facet normal -0.8314696123025578 -0.5555702330195834 0
    outer loop
      vertex 77.23923048454132 39.6 16.8
      vertex 77.15202400834949 39.73051371481046 16.8
      vertex 77.15202400834949 39.73051371481046 14.8
    endloop
  endfacet
  facet normal -0.7518398074789697 -0.6593458151000777 0
    outer loop
      vertex 77.15202400834949 39.73051371481046 16.8
      vertex 77.04852813742386 39.848528137423855 16.8
      vertex 77.04852813742386 39.848528137423855 14.8
    endloop
  endfacet
  facet normal -0.6593458151001 -0.75183980747895 0
    outer loop
      vertex 76.93051371481047 39.95202400834948 16.8
      vertex 76.93051371481047 39.95202400834948 14.8
      vertex 77.04852813742386 39.848528137423855 16.8
    endloop
  endfacet
  facet normal 0.44228869021900913 -0.8968727415326845 0
    outer loop
      vertex 75.60000000000001 40.03923048454133 16.8
      vertex 75.60000000000001 40.03923048454133 14.8
      vertex 75.7407798811619 40.108655439013546 16.8
    endloop
  endfacet
  facet normal 0.3214394653031611 -0.9469301294951058 0
    outer loop
      vertex 75.7407798811619 40.108655439013546 16.8
      vertex 75.7407798811619 40.108655439013546 14.8
      vertex 75.88941714587698 40.15911099154688 16.8
    endloop
  endfacet
  facet normal 0.19509032201614018 -0.9807852804032281 0
    outer loop
      vertex 75.88941714587698 40.15911099154688 16.8
      vertex 75.88941714587698 40.15911099154688 14.8
      vertex 76.04336856933594 40.189733833648575 16.8
    endloop
  endfacet
  facet normal -0.44228869021900913 -0.8968727415326845 0
    outer loop
      vertex 76.6592201188381 40.108655439013546 16.8
      vertex 76.6592201188381 40.108655439013546 14.8
      vertex 76.8 40.03923048454133 16.8
    endloop
  endfacet
  facet normal 0.06540312923014742 -0.9978589232386033 0
    outer loop
      vertex 76.04336856933594 40.189733833648575 16.8
      vertex 76.04336856933594 40.189733833648575 14.8
      vertex 76.2 40.2 16.8
    endloop
  endfacet
  facet normal -0.06540312923014742 -0.9978589232386033 0
    outer loop
      vertex 76.2 40.2 16.8
      vertex 76.2 40.2 14.8
      vertex 76.35663143066407 40.189733833648575 16.8
    endloop
  endfacet
  facet normal -0.3214394653031611 -0.9469301294951058 0
    outer loop
      vertex 76.51058285412303 40.15911099154688 16.8
      vertex 76.51058285412303 40.15911099154688 14.8
      vertex 76.6592201188381 40.108655439013546 16.8
    endloop
  endfacet
  facet normal -0.19509032201614018 -0.9807852804032281 0
    outer loop
      vertex 76.35663143066407 40.189733833648575 16.8
      vertex 76.35663143066407 40.189733833648575 14.8
      vertex 76.51058285412303 40.15911099154688 16.8
    endloop
  endfacet
  facet normal -0.5555702330195729 -0.8314696123025648 0
    outer loop
      vertex 76.8 40.03923048454133 16.8
      vertex 76.8 40.03923048454133 14.8
      vertex 76.93051371481047 39.95202400834948 16.8
    endloop
  endfacet
  facet normal 0.44228869021900913 0.8968727415326845 0
    outer loop
      vertex 96.10000000000001 37.96076951545867 14.8
      vertex 96.10000000000001 37.96076951545867 16.8
      vertex 96.2407798811619 37.891344560986454 14.8
    endloop
  endfacet
  facet normal 0.06540312923014742 0.9978589232386033 0
    outer loop
      vertex 96.54336856933594 37.810266166351425 14.8
      vertex 96.54336856933594 37.810266166351425 16.8
      vertex 96.7 37.8 14.8
    endloop
  endfacet
  facet normal 0.3214394653031611 0.9469301294951058 0
    outer loop
      vertex 96.2407798811619 37.891344560986454 14.8
      vertex 96.2407798811619 37.891344560986454 16.8
      vertex 96.38941714587698 37.84088900845312 14.8
    endloop
  endfacet
  facet normal 0.19509032201614018 0.9807852804032281 0
    outer loop
      vertex 96.38941714587698 37.84088900845312 14.8
      vertex 96.38941714587698 37.84088900845312 16.8
      vertex 96.54336856933594 37.810266166351425 14.8
    endloop
  endfacet
  facet normal -0.06540312923014742 0.9978589232386033 0
    outer loop
      vertex 96.7 37.8 14.8
      vertex 96.7 37.8 16.8
      vertex 96.85663143066407 37.810266166351425 14.8
    endloop
  endfacet
  facet normal -0.19509032201614018 0.9807852804032281 0
    outer loop
      vertex 96.85663143066407 37.810266166351425 14.8
      vertex 96.85663143066407 37.810266166351425 16.8
      vertex 97.01058285412303 37.84088900845312 14.8
    endloop
  endfacet
  facet normal -0.3214394653031611 0.9469301294951058 0
    outer loop
      vertex 97.01058285412303 37.84088900845312 14.8
      vertex 97.01058285412303 37.84088900845312 16.8
      vertex 97.1592201188381 37.891344560986454 14.8
    endloop
  endfacet
  facet normal -0.44228869021900913 0.8968727415326845 0
    outer loop
      vertex 97.1592201188381 37.891344560986454 14.8
      vertex 97.1592201188381 37.891344560986454 16.8
      vertex 97.3 37.96076951545867 14.8
    endloop
  endfacet
  facet normal -0.5555702330195729 0.8314696123025648 0
    outer loop
      vertex 97.3 37.96076951545867 14.8
      vertex 97.3 37.96076951545867 16.8
      vertex 97.43051371481047 38.04797599165052 14.8
    endloop
  endfacet
  facet normal 0.5555702330195729 0.8314696123025648 0
    outer loop
      vertex 95.96948628518953 38.04797599165052 14.8
      vertex 95.96948628518953 38.04797599165052 16.8
      vertex 96.10000000000001 37.96076951545867 14.8
    endloop
  endfacet
  facet normal 0.6593458151001 0.75183980747895 0
    outer loop
      vertex 95.96948628518953 38.04797599165052 14.8
      vertex 95.85147186257615 38.151471862576145 14.8
      vertex 95.85147186257615 38.151471862576145 16.8
    endloop
  endfacet
  facet normal 0.7518398074789697 0.6593458151000777 0
    outer loop
      vertex 95.85147186257615 38.151471862576145 14.8
      vertex 95.74797599165052 38.26948628518954 14.8
      vertex 95.74797599165052 38.26948628518954 16.8
    endloop
  endfacet
  facet normal 0.8314696123025578 0.5555702330195834 0
    outer loop
      vertex 95.74797599165052 38.26948628518954 14.8
      vertex 95.66076951545868 38.4 14.8
      vertex 95.66076951545868 38.4 16.8
    endloop
  endfacet
  facet normal 0.8968727415326665 0.44228869021904554 0
    outer loop
      vertex 95.66076951545868 38.4 14.8
      vertex 95.59134456098646 38.54077988116189 14.8
      vertex 95.59134456098646 38.54077988116189 16.8
    endloop
  endfacet
  facet normal -0.6593458151001 0.75183980747895 0
    outer loop
      vertex 97.43051371481047 38.04797599165052 14.8
      vertex 97.43051371481047 38.04797599165052 16.8
      vertex 97.54852813742386 38.151471862576145 14.8
    endloop
  endfacet
  facet normal -0.7518398074789697 0.6593458151000777 0
    outer loop
      vertex 97.54852813742386 38.151471862576145 14.8
      vertex 97.54852813742386 38.151471862576145 16.8
      vertex 97.65202400834949 38.26948628518954 14.8
    endloop
  endfacet
  facet normal -0.8314696123025578 0.5555702330195834 0
    outer loop
      vertex 97.73923048454132 38.4 14.8
      vertex 97.65202400834949 38.26948628518954 14.8
      vertex 97.65202400834949 38.26948628518954 16.8
    endloop
  endfacet
  facet normal -0.8968727415326665 0.44228869021904554 0
    outer loop
      vertex 97.80865543901355 38.54077988116189 14.8
      vertex 97.73923048454132 38.4 14.8
      vertex 97.73923048454132 38.4 16.8
    endloop
  endfacet
  facet normal 0.9469301294951106 0.3214394653031474 0
    outer loop
      vertex 95.59134456098646 38.54077988116189 14.8
      vertex 95.54088900845312 38.68941714587697 14.8
      vertex 95.54088900845312 38.68941714587697 16.8
    endloop
  endfacet
  facet normal 0.9807852804032281 0.19509032201614018 0
    outer loop
      vertex 95.54088900845312 38.68941714587697 14.8
      vertex 95.51026616635143 38.84336856933594 14.8
      vertex 95.51026616635143 38.84336856933594 16.8
    endloop
  endfacet
  facet normal 0.9978589232386033 0.06540312923014742 0
    outer loop
      vertex 95.51026616635143 38.84336856933594 14.8
      vertex 95.5 39 14.8
      vertex 95.5 39 16.8
    endloop
  endfacet
  facet normal -0.9469301294951106 0.3214394653031474 0
    outer loop
      vertex 97.85911099154688 38.68941714587697 14.8
      vertex 97.80865543901355 38.54077988116189 14.8
      vertex 97.80865543901355 38.54077988116189 16.8
    endloop
  endfacet
  facet normal -0.9807852804032281 0.19509032201614018 0
    outer loop
      vertex 97.88973383364858 38.84336856933594 14.8
      vertex 97.85911099154688 38.68941714587697 14.8
      vertex 97.85911099154688 38.68941714587697 16.8
    endloop
  endfacet
  facet normal -0.9978589232386033 0.06540312923014742 0
    outer loop
      vertex 97.88973383364858 38.84336856933594 14.8
      vertex 97.88973383364858 38.84336856933594 16.8
      vertex 97.9 39 14.8
    endloop
  endfacet
  facet normal 0.44228869021900913 0.8968727415326845 0
    outer loop
      vertex 96.2407798811619 37.891344560986454 14.8
      vertex 96.10000000000001 37.96076951545867 16.8
      vertex 96.2407798811619 37.891344560986454 16.8
    endloop
  endfacet
  facet normal 0.5555702330195729 0.8314696123025648 0
    outer loop
      vertex 96.10000000000001 37.96076951545867 14.8
      vertex 95.96948628518953 38.04797599165052 16.8
      vertex 96.10000000000001 37.96076951545867 16.8
    endloop
  endfacet
  facet normal 0.3214394653031611 0.9469301294951058 0
    outer loop
      vertex 96.38941714587698 37.84088900845312 14.8
      vertex 96.2407798811619 37.891344560986454 16.8
      vertex 96.38941714587698 37.84088900845312 16.8
    endloop
  endfacet
  facet normal 0.19509032201614018 0.9807852804032281 0
    outer loop
      vertex 96.54336856933594 37.810266166351425 14.8
      vertex 96.38941714587698 37.84088900845312 16.8
      vertex 96.54336856933594 37.810266166351425 16.8
    endloop
  endfacet
  facet normal 0.06540312923014742 0.9978589232386033 0
    outer loop
      vertex 96.7 37.8 14.8
      vertex 96.54336856933594 37.810266166351425 16.8
      vertex 96.7 37.8 16.8
    endloop
  endfacet
  facet normal -0.06540312923014742 0.9978589232386033 0
    outer loop
      vertex 96.85663143066407 37.810266166351425 14.8
      vertex 96.7 37.8 16.8
      vertex 96.85663143066407 37.810266166351425 16.8
    endloop
  endfacet
  facet normal -0.19509032201614018 0.9807852804032281 0
    outer loop
      vertex 97.01058285412303 37.84088900845312 14.8
      vertex 96.85663143066407 37.810266166351425 16.8
      vertex 97.01058285412303 37.84088900845312 16.8
    endloop
  endfacet
  facet normal -0.3214394653031611 0.9469301294951058 0
    outer loop
      vertex 97.1592201188381 37.891344560986454 14.8
      vertex 97.01058285412303 37.84088900845312 16.8
      vertex 97.1592201188381 37.891344560986454 16.8
    endloop
  endfacet
  facet normal -0.44228869021900913 0.8968727415326845 0
    outer loop
      vertex 97.3 37.96076951545867 14.8
      vertex 97.1592201188381 37.891344560986454 16.8
      vertex 97.3 37.96076951545867 16.8
    endloop
  endfacet
  facet normal 0.6593458151001 0.75183980747895 0
    outer loop
      vertex 95.96948628518953 38.04797599165052 14.8
      vertex 95.85147186257615 38.151471862576145 16.8
      vertex 95.96948628518953 38.04797599165052 16.8
    endloop
  endfacet
  facet normal 0.7518398074789697 0.6593458151000777 0
    outer loop
      vertex 95.85147186257615 38.151471862576145 14.8
      vertex 95.74797599165052 38.26948628518954 16.8
      vertex 95.85147186257615 38.151471862576145 16.8
    endloop
  endfacet
  facet normal 0.8314696123025578 0.5555702330195834 0
    outer loop
      vertex 95.74797599165052 38.26948628518954 14.8
      vertex 95.66076951545868 38.4 16.8
      vertex 95.74797599165052 38.26948628518954 16.8
    endloop
  endfacet
  facet normal 0.8968727415326665 0.44228869021904554 0
    outer loop
      vertex 95.66076951545868 38.4 14.8
      vertex 95.59134456098646 38.54077988116189 16.8
      vertex 95.66076951545868 38.4 16.8
    endloop
  endfacet
  facet normal -0.5555702330195729 0.8314696123025648 0
    outer loop
      vertex 97.43051371481047 38.04797599165052 14.8
      vertex 97.3 37.96076951545867 16.8
      vertex 97.43051371481047 38.04797599165052 16.8
    endloop
  endfacet
  facet normal -0.6593458151001 0.75183980747895 0
    outer loop
      vertex 97.54852813742386 38.151471862576145 14.8
      vertex 97.43051371481047 38.04797599165052 16.8
      vertex 97.54852813742386 38.151471862576145 16.8
    endloop
  endfacet
  facet normal -0.7518398074789697 0.6593458151000777 0
    outer loop
      vertex 97.65202400834949 38.26948628518954 14.8
      vertex 97.54852813742386 38.151471862576145 16.8
      vertex 97.65202400834949 38.26948628518954 16.8
    endloop
  endfacet
  facet normal -0.8314696123025578 0.5555702330195834 0
    outer loop
      vertex 97.73923048454132 38.4 14.8
      vertex 97.65202400834949 38.26948628518954 16.8
      vertex 97.73923048454132 38.4 16.8
    endloop
  endfacet
  facet normal -0.8968727415326665 0.44228869021904554 0
    outer loop
      vertex 97.80865543901355 38.54077988116189 14.8
      vertex 97.73923048454132 38.4 16.8
      vertex 97.80865543901355 38.54077988116189 16.8
    endloop
  endfacet
  facet normal 0.9469301294951106 0.3214394653031474 0
    outer loop
      vertex 95.59134456098646 38.54077988116189 14.8
      vertex 95.54088900845312 38.68941714587697 16.8
      vertex 95.59134456098646 38.54077988116189 16.8
    endloop
  endfacet
  facet normal 0.9807852804032281 0.19509032201614018 0
    outer loop
      vertex 95.54088900845312 38.68941714587697 14.8
      vertex 95.51026616635143 38.84336856933594 16.8
      vertex 95.54088900845312 38.68941714587697 16.8
    endloop
  endfacet
  facet normal 0.9978589232386033 0.06540312923014742 0
    outer loop
      vertex 95.51026616635143 38.84336856933594 14.8
      vertex 95.5 39 16.8
      vertex 95.51026616635143 38.84336856933594 16.8
    endloop
  endfacet
  facet normal -0.9469301294951106 0.3214394653031474 0
    outer loop
      vertex 97.85911099154688 38.68941714587697 14.8
      vertex 97.80865543901355 38.54077988116189 16.8
      vertex 97.85911099154688 38.68941714587697 16.8
    endloop
  endfacet
  facet normal -0.9807852804032281 0.19509032201614018 0
    outer loop
      vertex 97.88973383364858 38.84336856933594 14.8
      vertex 97.85911099154688 38.68941714587697 16.8
      vertex 97.88973383364858 38.84336856933594 16.8
    endloop
  endfacet
  facet normal -0.9978589232386033 0.06540312923014742 0
    outer loop
      vertex 97.9 39 14.8
      vertex 97.88973383364858 38.84336856933594 16.8
      vertex 97.9 39 16.8
    endloop
  endfacet
  facet normal 0.9978589232386033 -0.06540312923014742 0
    outer loop
      vertex 95.5 39 14.8
      vertex 95.51026616635143 39.15663143066406 14.8
      vertex 95.51026616635143 39.15663143066406 16.8
    endloop
  endfacet
  facet normal 0.9807852804032281 -0.19509032201614018 0
    outer loop
      vertex 95.51026616635143 39.15663143066406 14.8
      vertex 95.54088900845312 39.31058285412303 14.8
      vertex 95.54088900845312 39.31058285412303 16.8
    endloop
  endfacet
  facet normal 0.9469301294951106 -0.3214394653031474 0
    outer loop
      vertex 95.54088900845312 39.31058285412303 14.8
      vertex 95.59134456098646 39.45922011883811 14.8
      vertex 95.59134456098646 39.45922011883811 16.8
    endloop
  endfacet
  facet normal -0.9978589232386033 -0.06540312923014742 0
    outer loop
      vertex 97.9 39 14.8
      vertex 97.9 39 16.8
      vertex 97.88973383364858 39.15663143066406 14.8
    endloop
  endfacet
  facet normal -0.9807852804032281 -0.19509032201614018 0
    outer loop
      vertex 97.85911099154688 39.31058285412303 14.8
      vertex 97.88973383364858 39.15663143066406 14.8
      vertex 97.88973383364858 39.15663143066406 16.8
    endloop
  endfacet
  facet normal -0.9469301294951106 -0.3214394653031474 0
    outer loop
      vertex 97.80865543901355 39.45922011883811 14.8
      vertex 97.85911099154688 39.31058285412303 14.8
      vertex 97.85911099154688 39.31058285412303 16.8
    endloop
  endfacet
  facet normal 0.8968727415326665 -0.44228869021904554 0
    outer loop
      vertex 95.59134456098646 39.45922011883811 14.8
      vertex 95.66076951545868 39.6 14.8
      vertex 95.66076951545868 39.6 16.8
    endloop
  endfacet
  facet normal 0.8314696123025578 -0.5555702330195834 0
    outer loop
      vertex 95.66076951545868 39.6 14.8
      vertex 95.74797599165052 39.73051371481046 14.8
      vertex 95.74797599165052 39.73051371481046 16.8
    endloop
  endfacet
  facet normal 0.7518398074789697 -0.6593458151000777 0
    outer loop
      vertex 95.74797599165052 39.73051371481046 14.8
      vertex 95.85147186257615 39.848528137423855 14.8
      vertex 95.85147186257615 39.848528137423855 16.8
    endloop
  endfacet
  facet normal 0.6593458151001 -0.75183980747895 0
    outer loop
      vertex 95.96948628518953 39.95202400834948 14.8
      vertex 95.96948628518953 39.95202400834948 16.8
      vertex 95.85147186257615 39.848528137423855 14.8
    endloop
  endfacet
  facet normal -0.8314696123025578 -0.5555702330195834 0
    outer loop
      vertex 97.65202400834949 39.73051371481046 14.8
      vertex 97.73923048454132 39.6 14.8
      vertex 97.73923048454132 39.6 16.8
    endloop
  endfacet
  facet normal -0.8968727415326665 -0.44228869021904554 0
    outer loop
      vertex 97.73923048454132 39.6 14.8
      vertex 97.80865543901355 39.45922011883811 14.8
      vertex 97.80865543901355 39.45922011883811 16.8
    endloop
  endfacet
  facet normal -0.7518398074789697 -0.6593458151000777 0
    outer loop
      vertex 97.54852813742386 39.848528137423855 14.8
      vertex 97.65202400834949 39.73051371481046 14.8
      vertex 97.65202400834949 39.73051371481046 16.8
    endloop
  endfacet
  facet normal -0.6593458151001 -0.75183980747895 0
    outer loop
      vertex 97.54852813742386 39.848528137423855 14.8
      vertex 97.54852813742386 39.848528137423855 16.8
      vertex 97.43051371481047 39.95202400834948 14.8
    endloop
  endfacet
  facet normal -0.5555702330195729 -0.8314696123025648 0
    outer loop
      vertex 97.43051371481047 39.95202400834948 14.8
      vertex 97.43051371481047 39.95202400834948 16.8
      vertex 97.3 40.03923048454133 14.8
    endloop
  endfacet
  facet normal 0.5555702330195729 -0.8314696123025648 0
    outer loop
      vertex 96.10000000000001 40.03923048454133 14.8
      vertex 96.10000000000001 40.03923048454133 16.8
      vertex 95.96948628518953 39.95202400834948 14.8
    endloop
  endfacet
  facet normal 0.44228869021900913 -0.8968727415326845 0
    outer loop
      vertex 96.2407798811619 40.108655439013546 14.8
      vertex 96.2407798811619 40.108655439013546 16.8
      vertex 96.10000000000001 40.03923048454133 14.8
    endloop
  endfacet
  facet normal 0.3214394653031611 -0.9469301294951058 0
    outer loop
      vertex 96.38941714587698 40.15911099154688 14.8
      vertex 96.38941714587698 40.15911099154688 16.8
      vertex 96.2407798811619 40.108655439013546 14.8
    endloop
  endfacet
  facet normal 0.19509032201614018 -0.9807852804032281 0
    outer loop
      vertex 96.54336856933594 40.189733833648575 14.8
      vertex 96.54336856933594 40.189733833648575 16.8
      vertex 96.38941714587698 40.15911099154688 14.8
    endloop
  endfacet
  facet normal -0.19509032201614018 -0.9807852804032281 0
    outer loop
      vertex 97.01058285412303 40.15911099154688 14.8
      vertex 97.01058285412303 40.15911099154688 16.8
      vertex 96.85663143066407 40.189733833648575 14.8
    endloop
  endfacet
  facet normal 0.06540312923014742 -0.9978589232386033 0
    outer loop
      vertex 96.7 40.2 14.8
      vertex 96.7 40.2 16.8
      vertex 96.54336856933594 40.189733833648575 14.8
    endloop
  endfacet
  facet normal -0.06540312923014742 -0.9978589232386033 0
    outer loop
      vertex 96.85663143066407 40.189733833648575 14.8
      vertex 96.85663143066407 40.189733833648575 16.8
      vertex 96.7 40.2 14.8
    endloop
  endfacet
  facet normal -0.44228869021900913 -0.8968727415326845 0
    outer loop
      vertex 97.3 40.03923048454133 14.8
      vertex 97.3 40.03923048454133 16.8
      vertex 97.1592201188381 40.108655439013546 14.8
    endloop
  endfacet
  facet normal -0.3214394653031611 -0.9469301294951058 0
    outer loop
      vertex 97.1592201188381 40.108655439013546 14.8
      vertex 97.1592201188381 40.108655439013546 16.8
      vertex 97.01058285412303 40.15911099154688 14.8
    endloop
  endfacet
  facet normal 0.9978589232386033 -0.06540312923014742 0
    outer loop
      vertex 95.5 39 14.8
      vertex 95.51026616635143 39.15663143066406 16.8
      vertex 95.5 39 16.8
    endloop
  endfacet
  facet normal 0.9807852804032281 -0.19509032201614018 0
    outer loop
      vertex 95.51026616635143 39.15663143066406 14.8
      vertex 95.54088900845312 39.31058285412303 16.8
      vertex 95.51026616635143 39.15663143066406 16.8
    endloop
  endfacet
  facet normal 0.9469301294951106 -0.3214394653031474 0
    outer loop
      vertex 95.54088900845312 39.31058285412303 14.8
      vertex 95.59134456098646 39.45922011883811 16.8
      vertex 95.54088900845312 39.31058285412303 16.8
    endloop
  endfacet
  facet normal -0.9978589232386033 -0.06540312923014742 0
    outer loop
      vertex 97.88973383364858 39.15663143066406 14.8
      vertex 97.9 39 16.8
      vertex 97.88973383364858 39.15663143066406 16.8
    endloop
  endfacet
  facet normal -0.9807852804032281 -0.19509032201614018 0
    outer loop
      vertex 97.85911099154688 39.31058285412303 14.8
      vertex 97.88973383364858 39.15663143066406 16.8
      vertex 97.85911099154688 39.31058285412303 16.8
    endloop
  endfacet
  facet normal -0.9469301294951106 -0.3214394653031474 0
    outer loop
      vertex 97.80865543901355 39.45922011883811 14.8
      vertex 97.85911099154688 39.31058285412303 16.8
      vertex 97.80865543901355 39.45922011883811 16.8
    endloop
  endfacet
  facet normal 0.8968727415326665 -0.44228869021904554 0
    outer loop
      vertex 95.59134456098646 39.45922011883811 14.8
      vertex 95.66076951545868 39.6 16.8
      vertex 95.59134456098646 39.45922011883811 16.8
    endloop
  endfacet
  facet normal 0.8314696123025578 -0.5555702330195834 0
    outer loop
      vertex 95.66076951545868 39.6 14.8
      vertex 95.74797599165052 39.73051371481046 16.8
      vertex 95.66076951545868 39.6 16.8
    endloop
  endfacet
  facet normal 0.7518398074789697 -0.6593458151000777 0
    outer loop
      vertex 95.74797599165052 39.73051371481046 14.8
      vertex 95.85147186257615 39.848528137423855 16.8
      vertex 95.74797599165052 39.73051371481046 16.8
    endloop
  endfacet
  facet normal 0.6593458151001 -0.75183980747895 0
    outer loop
      vertex 95.85147186257615 39.848528137423855 14.8
      vertex 95.96948628518953 39.95202400834948 16.8
      vertex 95.85147186257615 39.848528137423855 16.8
    endloop
  endfacet
  facet normal 0.5555702330195729 -0.8314696123025648 0
    outer loop
      vertex 95.96948628518953 39.95202400834948 14.8
      vertex 96.10000000000001 40.03923048454133 16.8
      vertex 95.96948628518953 39.95202400834948 16.8
    endloop
  endfacet
  facet normal -0.8314696123025578 -0.5555702330195834 0
    outer loop
      vertex 97.65202400834949 39.73051371481046 14.8
      vertex 97.73923048454132 39.6 16.8
      vertex 97.65202400834949 39.73051371481046 16.8
    endloop
  endfacet
  facet normal -0.8968727415326665 -0.44228869021904554 0
    outer loop
      vertex 97.73923048454132 39.6 14.8
      vertex 97.80865543901355 39.45922011883811 16.8
      vertex 97.73923048454132 39.6 16.8
    endloop
  endfacet
  facet normal -0.7518398074789697 -0.6593458151000777 0
    outer loop
      vertex 97.54852813742386 39.848528137423855 14.8
      vertex 97.65202400834949 39.73051371481046 16.8
      vertex 97.54852813742386 39.848528137423855 16.8
    endloop
  endfacet
  facet normal -0.6593458151001 -0.75183980747895 0
    outer loop
      vertex 97.43051371481047 39.95202400834948 14.8
      vertex 97.54852813742386 39.848528137423855 16.8
      vertex 97.43051371481047 39.95202400834948 16.8
    endloop
  endfacet
  facet normal 0.44228869021900913 -0.8968727415326845 0
    outer loop
      vertex 96.10000000000001 40.03923048454133 14.8
      vertex 96.2407798811619 40.108655439013546 16.8
      vertex 96.10000000000001 40.03923048454133 16.8
    endloop
  endfacet
  facet normal 0.3214394653031611 -0.9469301294951058 0
    outer loop
      vertex 96.2407798811619 40.108655439013546 14.8
      vertex 96.38941714587698 40.15911099154688 16.8
      vertex 96.2407798811619 40.108655439013546 16.8
    endloop
  endfacet
  facet normal 0.19509032201614018 -0.9807852804032281 0
    outer loop
      vertex 96.38941714587698 40.15911099154688 14.8
      vertex 96.54336856933594 40.189733833648575 16.8
      vertex 96.38941714587698 40.15911099154688 16.8
    endloop
  endfacet
  facet normal 0.06540312923014742 -0.9978589232386033 0
    outer loop
      vertex 96.54336856933594 40.189733833648575 14.8
      vertex 96.7 40.2 16.8
      vertex 96.54336856933594 40.189733833648575 16.8
    endloop
  endfacet
  facet normal -0.19509032201614018 -0.9807852804032281 0
    outer loop
      vertex 96.85663143066407 40.189733833648575 14.8
      vertex 97.01058285412303 40.15911099154688 16.8
      vertex 96.85663143066407 40.189733833648575 16.8
    endloop
  endfacet
  facet normal -0.06540312923014742 -0.9978589232386033 0
    outer loop
      vertex 96.7 40.2 14.8
      vertex 96.85663143066407 40.189733833648575 16.8
      vertex 96.7 40.2 16.8
    endloop
  endfacet
  facet normal -0.5555702330195729 -0.8314696123025648 0
    outer loop
      vertex 97.3 40.03923048454133 14.8
      vertex 97.43051371481047 39.95202400834948 16.8
      vertex 97.3 40.03923048454133 16.8
    endloop
  endfacet
  facet normal -0.44228869021900913 -0.8968727415326845 0
    outer loop
      vertex 97.1592201188381 40.108655439013546 14.8
      vertex 97.3 40.03923048454133 16.8
      vertex 97.1592201188381 40.108655439013546 16.8
    endloop
  endfacet
  facet normal -0.3214394653031611 -0.9469301294951058 0
    outer loop
      vertex 97.01058285412303 40.15911099154688 14.8
      vertex 97.1592201188381 40.108655439013546 16.8
      vertex 97.01058285412303 40.15911099154688 16.8
    endloop
  endfacet
  facet normal 0 0 -1
    outer loop
      vertex 74.5 37 14.8
      vertex 75.46948628518953 38.04797599165052 14.8
      vertex 75.60000000000001 37.96076951545867 14.8
    endloop
  endfacet
  facet normal 0 0 -1
    outer loop
      vertex 74.5 37 14.8
      vertex 75.35147186257615 38.151471862576145 14.8
      vertex 75.46948628518953 38.04797599165052 14.8
    endloop
  endfacet
  facet normal 0 0 -1
    outer loop
      vertex 74.5 37 14.8
      vertex 75.88941714587698 37.84088900845312 14.8
      vertex 76.04336856933594 37.810266166351425 14.8
    endloop
  endfacet
  facet normal 0 0 -1
    outer loop
      vertex 74.5 37 14.8
      vertex 76.04336856933594 37.810266166351425 14.8
      vertex 76.2 37.8 14.8
    endloop
  endfacet
  facet normal 0 0 -1
    outer loop
      vertex 74.5 37 14.8
      vertex 75.7407798811619 37.891344560986454 14.8
      vertex 75.88941714587698 37.84088900845312 14.8
    endloop
  endfacet
  facet normal 0 0 -1
    outer loop
      vertex 74.5 37 14.8
      vertex 75.60000000000001 37.96076951545867 14.8
      vertex 75.7407798811619 37.891344560986454 14.8
    endloop
  endfacet
  facet normal 0 0 -1
    outer loop
      vertex 74.5 37 14.8
      vertex 76.2 37.8 14.8
      vertex 76.35663143066407 37.810266166351425 14.8
    endloop
  endfacet
  facet normal 0 0 -1
    outer loop
      vertex 74.5 37 14.8
      vertex 75.24797599165052 38.26948628518954 14.8
      vertex 75.35147186257615 38.151471862576145 14.8
    endloop
  endfacet
  facet normal 0 0 -1
    outer loop
      vertex 74.5 37 14.8
      vertex 75.16076951545868 38.4 14.8
      vertex 75.24797599165052 38.26948628518954 14.8
    endloop
  endfacet
  facet normal 0 0 -1
    outer loop
      vertex 74.5 37 14.8
      vertex 75.09134456098646 38.54077988116189 14.8
      vertex 75.16076951545868 38.4 14.8
    endloop
  endfacet
  facet normal 0 0 -1
    outer loop
      vertex 74.5 37 14.8
      vertex 75.04088900845312 38.68941714587697 14.8
      vertex 75.09134456098646 38.54077988116189 14.8
    endloop
  endfacet
  facet normal 0 0 -1
    outer loop
      vertex 74.5 37 14.8
      vertex 75.01026616635143 38.84336856933594 14.8
      vertex 75.04088900845312 38.68941714587697 14.8
    endloop
  endfacet
  facet normal 0 0 -1
    outer loop
      vertex 74.5 37 14.8
      vertex 75 39 14.8
      vertex 75.01026616635143 38.84336856933594 14.8
    endloop
  endfacet
  facet normal 0 0 -1
    outer loop
      vertex 74.5 37 14.8
      vertex 76.35663143066407 37.810266166351425 14.8
      vertex 98.5 41 14.8
    endloop
  endfacet
  facet normal 0 0 -1
    outer loop
      vertex 98.5 41 14.8
      vertex 76.35663143066407 37.810266166351425 14.8
      vertex 76.51058285412303 37.84088900845312 14.8
    endloop
  endfacet
  facet normal 0 0 -1
    outer loop
      vertex 98.5 41 14.8
      vertex 76.51058285412303 37.84088900845312 14.8
      vertex 76.6592201188381 37.891344560986454 14.8
    endloop
  endfacet
  facet normal 0 0 -1
    outer loop
      vertex 98.5 41 14.8
      vertex 76.6592201188381 37.891344560986454 14.8
      vertex 76.8 37.96076951545867 14.8
    endloop
  endfacet
  facet normal 0 0 1
    outer loop
      vertex 74.5 37 16.8
      vertex 75.60000000000001 37.96076951545867 16.8
      vertex 75.46948628518953 38.04797599165052 16.8
    endloop
  endfacet
  facet normal 0 0 1
    outer loop
      vertex 74.5 37 16.8
      vertex 75.46948628518953 38.04797599165052 16.8
      vertex 75.35147186257615 38.151471862576145 16.8
    endloop
  endfacet
  facet normal 0 0 1
    outer loop
      vertex 74.5 37 16.8
      vertex 76.04336856933594 37.810266166351425 16.8
      vertex 75.88941714587698 37.84088900845312 16.8
    endloop
  endfacet
  facet normal 0 0 1
    outer loop
      vertex 74.5 37 16.8
      vertex 76.2 37.8 16.8
      vertex 76.04336856933594 37.810266166351425 16.8
    endloop
  endfacet
  facet normal 0 0 1
    outer loop
      vertex 74.5 37 16.8
      vertex 75.88941714587698 37.84088900845312 16.8
      vertex 75.7407798811619 37.891344560986454 16.8
    endloop
  endfacet
  facet normal 0 0 1
    outer loop
      vertex 74.5 37 16.8
      vertex 75.7407798811619 37.891344560986454 16.8
      vertex 75.60000000000001 37.96076951545867 16.8
    endloop
  endfacet
  facet normal 0 0 1
    outer loop
      vertex 74.5 37 16.8
      vertex 76.35663143066407 37.810266166351425 16.8
      vertex 76.2 37.8 16.8
    endloop
  endfacet
  facet normal 0 0 1
    outer loop
      vertex 74.5 37 16.8
      vertex 76.51058285412303 37.84088900845312 16.8
      vertex 76.35663143066407 37.810266166351425 16.8
    endloop
  endfacet
  facet normal 0 0 1
    outer loop
      vertex 74.5 37 16.8
      vertex 76.6592201188381 37.891344560986454 16.8
      vertex 76.51058285412303 37.84088900845312 16.8
    endloop
  endfacet
  facet normal 0 0 1
    outer loop
      vertex 74.5 37 16.8
      vertex 75.35147186257615 38.151471862576145 16.8
      vertex 75.24797599165052 38.26948628518954 16.8
    endloop
  endfacet
  facet normal 0 0 1
    outer loop
      vertex 74.5 37 16.8
      vertex 75.24797599165052 38.26948628518954 16.8
      vertex 75.16076951545868 38.4 16.8
    endloop
  endfacet
  facet normal 0 0 1
    outer loop
      vertex 74.5 37 16.8
      vertex 75.16076951545868 38.4 16.8
      vertex 75.09134456098646 38.54077988116189 16.8
    endloop
  endfacet
  facet normal -1 0 0
    outer loop
      vertex 74.5 37 14.8
      vertex 74.5 37 16.8
      vertex 74.5 41 16.8
    endloop
  endfacet
  facet normal 0 0 1
    outer loop
      vertex 74.5 37 16.8
      vertex 75.09134456098646 38.54077988116189 16.8
      vertex 75.04088900845312 38.68941714587697 16.8
    endloop
  endfacet
  facet normal 0 0 1
    outer loop
      vertex 74.5 37 16.8
      vertex 75.04088900845312 38.68941714587697 16.8
      vertex 74.5 41 16.8
    endloop
  endfacet
  facet normal 0 -1 0
    outer loop
      vertex 74.5 37 14.8
      vertex 98.5 37 16.8
      vertex 74.5 37 16.8
    endloop
  endfacet
  facet normal 0 0 1
    outer loop
      vertex 74.5 37 16.8
      vertex 98.5 37 16.8
      vertex 76.6592201188381 37.891344560986454 16.8
    endloop
  endfacet
  facet normal 0 0 1
    outer loop
      vertex 98.5 37 16.8
      vertex 76.8 37.96076951545867 16.8
      vertex 76.6592201188381 37.891344560986454 16.8
    endloop
  endfacet
  facet normal 0 0 1
    outer loop
      vertex 98.5 37 16.8
      vertex 76.93051371481047 38.04797599165052 16.8
      vertex 76.8 37.96076951545867 16.8
    endloop
  endfacet
  facet normal 0 0 1
    outer loop
      vertex 98.5 37 16.8
      vertex 77.04852813742386 38.151471862576145 16.8
      vertex 76.93051371481047 38.04797599165052 16.8
    endloop
  endfacet
  facet normal 0 0 1
    outer loop
      vertex 98.5 37 16.8
      vertex 77.15202400834949 38.26948628518954 16.8
      vertex 77.04852813742386 38.151471862576145 16.8
    endloop
  endfacet
  facet normal 0 0 1
    outer loop
      vertex 98.5 37 16.8
      vertex 77.23923048454132 38.4 16.8
      vertex 77.15202400834949 38.26948628518954 16.8
    endloop
  endfacet
  facet normal 0 0 1
    outer loop
      vertex 98.5 37 16.8
      vertex 77.30865543901355 38.54077988116189 16.8
      vertex 77.23923048454132 38.4 16.8
    endloop
  endfacet
  facet normal 0 0 1
    outer loop
      vertex 98.5 37 16.8
      vertex 77.35911099154688 38.68941714587697 16.8
      vertex 77.30865543901355 38.54077988116189 16.8
    endloop
  endfacet
  facet normal 0 0 1
    outer loop
      vertex 98.5 37 16.8
      vertex 77.38973383364858 38.84336856933594 16.8
      vertex 77.35911099154688 38.68941714587697 16.8
    endloop
  endfacet
  facet normal 0 0 1
    outer loop
      vertex 98.5 37 16.8
      vertex 77.4 39 16.8
      vertex 77.38973383364858 38.84336856933594 16.8
    endloop
  endfacet
  facet normal 0 0 1
    outer loop
      vertex 98.5 37 16.8
      vertex 77.38973383364858 39.15663143066406 16.8
      vertex 77.4 39 16.8
    endloop
  endfacet
  facet normal 0 0 1
    outer loop
      vertex 98.5 37 16.8
      vertex 77.35911099154688 39.31058285412303 16.8
      vertex 77.38973383364858 39.15663143066406 16.8
    endloop
  endfacet
  facet normal 0 0 1
    outer loop
      vertex 98.5 37 16.8
      vertex 77.30865543901355 39.45922011883811 16.8
      vertex 77.35911099154688 39.31058285412303 16.8
    endloop
  endfacet
  facet normal 0 0 1
    outer loop
      vertex 98.5 37 16.8
      vertex 77.23923048454132 39.6 16.8
      vertex 77.30865543901355 39.45922011883811 16.8
    endloop
  endfacet
  facet normal 0 0 1
    outer loop
      vertex 98.5 37 16.8
      vertex 77.04852813742386 39.848528137423855 16.8
      vertex 77.15202400834949 39.73051371481046 16.8
    endloop
  endfacet
  facet normal 0 0 1
    outer loop
      vertex 98.5 37 16.8
      vertex 76.93051371481047 39.95202400834948 16.8
      vertex 77.04852813742386 39.848528137423855 16.8
    endloop
  endfacet
  facet normal 0 0 1
    outer loop
      vertex 98.5 37 16.8
      vertex 76.8 40.03923048454133 16.8
      vertex 76.93051371481047 39.95202400834948 16.8
    endloop
  endfacet
  facet normal 0 0 1
    outer loop
      vertex 98.5 37 16.8
      vertex 77.15202400834949 39.73051371481046 16.8
      vertex 77.23923048454132 39.6 16.8
    endloop
  endfacet
  facet normal 0 0 -1
    outer loop
      vertex 74.5 37 14.8
      vertex 74.5 41 14.8
      vertex 75 39 14.8
    endloop
  endfacet
  facet normal 0 0 -1
    outer loop
      vertex 74.5 41 14.8
      vertex 75.01026616635143 39.15663143066406 14.8
      vertex 75 39 14.8
    endloop
  endfacet
  facet normal 0 0 -1
    outer loop
      vertex 74.5 41 14.8
      vertex 75.04088900845312 39.31058285412303 14.8
      vertex 75.01026616635143 39.15663143066406 14.8
    endloop
  endfacet
  facet normal 0 0 -1
    outer loop
      vertex 74.5 41 14.8
      vertex 75.09134456098646 39.45922011883811 14.8
      vertex 75.04088900845312 39.31058285412303 14.8
    endloop
  endfacet
  facet normal -1 0 0
    outer loop
      vertex 74.5 37 14.8
      vertex 74.5 41 16.8
      vertex 74.5 41 14.8
    endloop
  endfacet
  facet normal 0 0 -1
    outer loop
      vertex 74.5 41 14.8
      vertex 75.16076951545868 39.6 14.8
      vertex 75.09134456098646 39.45922011883811 14.8
    endloop
  endfacet
  facet normal 0 0 -1
    outer loop
      vertex 74.5 41 14.8
      vertex 75.24797599165052 39.73051371481046 14.8
      vertex 75.16076951545868 39.6 14.8
    endloop
  endfacet
  facet normal 0 0 -1
    outer loop
      vertex 74.5 41 14.8
      vertex 75.35147186257615 39.848528137423855 14.8
      vertex 75.24797599165052 39.73051371481046 14.8
    endloop
  endfacet
  facet normal 0 0 -1
    outer loop
      vertex 74.5 41 14.8
      vertex 75.46948628518953 39.95202400834948 14.8
      vertex 75.35147186257615 39.848528137423855 14.8
    endloop
  endfacet
  facet normal 0 0 -1
    outer loop
      vertex 74.5 41 14.8
      vertex 75.60000000000001 40.03923048454133 14.8
      vertex 75.46948628518953 39.95202400834948 14.8
    endloop
  endfacet
  facet normal 0 0 -1
    outer loop
      vertex 74.5 41 14.8
      vertex 75.7407798811619 40.108655439013546 14.8
      vertex 75.60000000000001 40.03923048454133 14.8
    endloop
  endfacet
  facet normal 0 0 -1
    outer loop
      vertex 74.5 41 14.8
      vertex 75.88941714587698 40.15911099154688 14.8
      vertex 75.7407798811619 40.108655439013546 14.8
    endloop
  endfacet
  facet normal 0 0 -1
    outer loop
      vertex 74.5 41 14.8
      vertex 76.04336856933594 40.189733833648575 14.8
      vertex 75.88941714587698 40.15911099154688 14.8
    endloop
  endfacet
  facet normal 0 0 -1
    outer loop
      vertex 74.5 41 14.8
      vertex 76.2 40.2 14.8
      vertex 76.04336856933594 40.189733833648575 14.8
    endloop
  endfacet
  facet normal 0 0 -1
    outer loop
      vertex 98.5 41 14.8
      vertex 76.8 37.96076951545867 14.8
      vertex 76.93051371481047 38.04797599165052 14.8
    endloop
  endfacet
  facet normal 0 0 -1
    outer loop
      vertex 98.5 41 14.8
      vertex 76.93051371481047 38.04797599165052 14.8
      vertex 77.04852813742386 38.151471862576145 14.8
    endloop
  endfacet
  facet normal 0 0 -1
    outer loop
      vertex 98.5 41 14.8
      vertex 77.04852813742386 38.151471862576145 14.8
      vertex 77.15202400834949 38.26948628518954 14.8
    endloop
  endfacet
  facet normal 0 0 -1
    outer loop
      vertex 98.5 41 14.8
      vertex 77.15202400834949 38.26948628518954 14.8
      vertex 77.23923048454132 38.4 14.8
    endloop
  endfacet
  facet normal 0 0 -1
    outer loop
      vertex 98.5 41 14.8
      vertex 77.23923048454132 38.4 14.8
      vertex 77.30865543901355 38.54077988116189 14.8
    endloop
  endfacet
  facet normal 0 0 -1
    outer loop
      vertex 98.5 41 14.8
      vertex 77.30865543901355 38.54077988116189 14.8
      vertex 77.35911099154688 38.68941714587697 14.8
    endloop
  endfacet
  facet normal 0 0 -1
    outer loop
      vertex 98.5 41 14.8
      vertex 77.35911099154688 38.68941714587697 14.8
      vertex 77.38973383364858 38.84336856933594 14.8
    endloop
  endfacet
  facet normal 0 0 -1
    outer loop
      vertex 98.5 41 14.8
      vertex 77.38973383364858 38.84336856933594 14.8
      vertex 77.4 39 14.8
    endloop
  endfacet
  facet normal 0 0 -1
    outer loop
      vertex 98.5 41 14.8
      vertex 77.4 39 14.8
      vertex 77.38973383364858 39.15663143066406 14.8
    endloop
  endfacet
  facet normal 0 0 -1
    outer loop
      vertex 98.5 41 14.8
      vertex 77.38973383364858 39.15663143066406 14.8
      vertex 77.35911099154688 39.31058285412303 14.8
    endloop
  endfacet
  facet normal 0 0 -1
    outer loop
      vertex 98.5 41 14.8
      vertex 77.35911099154688 39.31058285412303 14.8
      vertex 77.30865543901355 39.45922011883811 14.8
    endloop
  endfacet
  facet normal 0 0 -1
    outer loop
      vertex 74.5 41 14.8
      vertex 98.5 41 14.8
      vertex 76.2 40.2 14.8
    endloop
  endfacet
  facet normal 0 0 -1
    outer loop
      vertex 98.5 41 14.8
      vertex 77.15202400834949 39.73051371481046 14.8
      vertex 77.04852813742386 39.848528137423855 14.8
    endloop
  endfacet
  facet normal 0 0 -1
    outer loop
      vertex 98.5 41 14.8
      vertex 77.30865543901355 39.45922011883811 14.8
      vertex 77.23923048454132 39.6 14.8
    endloop
  endfacet
  facet normal 0 0 -1
    outer loop
      vertex 98.5 41 14.8
      vertex 77.23923048454132 39.6 14.8
      vertex 77.15202400834949 39.73051371481046 14.8
    endloop
  endfacet
  facet normal 0 0 -1
    outer loop
      vertex 98.5 41 14.8
      vertex 77.04852813742386 39.848528137423855 14.8
      vertex 76.93051371481047 39.95202400834948 14.8
    endloop
  endfacet
  facet normal 0 0 -1
    outer loop
      vertex 98.5 41 14.8
      vertex 76.93051371481047 39.95202400834948 14.8
      vertex 76.8 40.03923048454133 14.8
    endloop
  endfacet
  facet normal 0 0 -1
    outer loop
      vertex 98.5 41 14.8
      vertex 76.35663143066407 40.189733833648575 14.8
      vertex 76.2 40.2 14.8
    endloop
  endfacet
  facet normal 0 0 -1
    outer loop
      vertex 98.5 41 14.8
      vertex 76.51058285412303 40.15911099154688 14.8
      vertex 76.35663143066407 40.189733833648575 14.8
    endloop
  endfacet
  facet normal 0 0 -1
    outer loop
      vertex 98.5 41 14.8
      vertex 76.8 40.03923048454133 14.8
      vertex 76.6592201188381 40.108655439013546 14.8
    endloop
  endfacet
  facet normal 0 0 -1
    outer loop
      vertex 98.5 41 14.8
      vertex 76.6592201188381 40.108655439013546 14.8
      vertex 76.51058285412303 40.15911099154688 14.8
    endloop
  endfacet
  facet normal 0 1 0
    outer loop
      vertex 74.5 41 14.8
      vertex 74.5 41 16.8
      vertex 98.5 41 14.8
    endloop
  endfacet
  facet normal 0 0 1
    outer loop
      vertex 74.5 41 16.8
      vertex 75.04088900845312 38.68941714587697 16.8
      vertex 75.01026616635143 38.84336856933594 16.8
    endloop
  endfacet
  facet normal 0 0 1
    outer loop
      vertex 74.5 41 16.8
      vertex 75.01026616635143 38.84336856933594 16.8
      vertex 75 39 16.8
    endloop
  endfacet
  facet normal 0 0 1
    outer loop
      vertex 74.5 41 16.8
      vertex 75 39 16.8
      vertex 75.01026616635143 39.15663143066406 16.8
    endloop
  endfacet
  facet normal 0 0 1
    outer loop
      vertex 74.5 41 16.8
      vertex 75.01026616635143 39.15663143066406 16.8
      vertex 75.04088900845312 39.31058285412303 16.8
    endloop
  endfacet
  facet normal 0 0 1
    outer loop
      vertex 74.5 41 16.8
      vertex 75.04088900845312 39.31058285412303 16.8
      vertex 75.09134456098646 39.45922011883811 16.8
    endloop
  endfacet
  facet normal 0 0 1
    outer loop
      vertex 74.5 41 16.8
      vertex 75.09134456098646 39.45922011883811 16.8
      vertex 75.16076951545868 39.6 16.8
    endloop
  endfacet
  facet normal 0 0 1
    outer loop
      vertex 74.5 41 16.8
      vertex 75.16076951545868 39.6 16.8
      vertex 75.24797599165052 39.73051371481046 16.8
    endloop
  endfacet
  facet normal 0 0 1
    outer loop
      vertex 74.5 41 16.8
      vertex 75.24797599165052 39.73051371481046 16.8
      vertex 75.35147186257615 39.848528137423855 16.8
    endloop
  endfacet
  facet normal 0 0 1
    outer loop
      vertex 74.5 41 16.8
      vertex 75.35147186257615 39.848528137423855 16.8
      vertex 75.46948628518953 39.95202400834948 16.8
    endloop
  endfacet
  facet normal 0 0 1
    outer loop
      vertex 74.5 41 16.8
      vertex 75.46948628518953 39.95202400834948 16.8
      vertex 75.60000000000001 40.03923048454133 16.8
    endloop
  endfacet
  facet normal 0 0 1
    outer loop
      vertex 74.5 41 16.8
      vertex 75.60000000000001 40.03923048454133 16.8
      vertex 75.7407798811619 40.108655439013546 16.8
    endloop
  endfacet
  facet normal 0 0 1
    outer loop
      vertex 74.5 41 16.8
      vertex 75.7407798811619 40.108655439013546 16.8
      vertex 75.88941714587698 40.15911099154688 16.8
    endloop
  endfacet
  facet normal 0 0 1
    outer loop
      vertex 74.5 41 16.8
      vertex 75.88941714587698 40.15911099154688 16.8
      vertex 76.04336856933594 40.189733833648575 16.8
    endloop
  endfacet
  facet normal 0 0 1
    outer loop
      vertex 74.5 41 16.8
      vertex 76.04336856933594 40.189733833648575 16.8
      vertex 76.2 40.2 16.8
    endloop
  endfacet
  facet normal 0 0 1
    outer loop
      vertex 74.5 41 16.8
      vertex 76.2 40.2 16.8
      vertex 76.35663143066407 40.189733833648575 16.8
    endloop
  endfacet
  facet normal 0 0 1
    outer loop
      vertex 74.5 41 16.8
      vertex 76.35663143066407 40.189733833648575 16.8
      vertex 98.5 37 16.8
    endloop
  endfacet
  facet normal 0 0 1
    outer loop
      vertex 98.5 37 16.8
      vertex 76.35663143066407 40.189733833648575 16.8
      vertex 76.51058285412303 40.15911099154688 16.8
    endloop
  endfacet
  facet normal 0 0 1
    outer loop
      vertex 98.5 37 16.8
      vertex 76.6592201188381 40.108655439013546 16.8
      vertex 76.8 40.03923048454133 16.8
    endloop
  endfacet
  facet normal 0 0 1
    outer loop
      vertex 98.5 37 16.8
      vertex 76.51058285412303 40.15911099154688 16.8
      vertex 76.6592201188381 40.108655439013546 16.8
    endloop
  endfacet
  facet normal 0 0 -1
    outer loop
      vertex 74.5 37 14.8
      vertex 96.10000000000001 37.96076951545867 14.8
      vertex 96.2407798811619 37.891344560986454 14.8
    endloop
  endfacet
  facet normal 0 0 -1
    outer loop
      vertex 74.5 37 14.8
      vertex 95.96948628518953 38.04797599165052 14.8
      vertex 96.10000000000001 37.96076951545867 14.8
    endloop
  endfacet
  facet normal 0 0 -1
    outer loop
      vertex 74.5 37 14.8
      vertex 95.85147186257615 38.151471862576145 14.8
      vertex 95.96948628518953 38.04797599165052 14.8
    endloop
  endfacet
  facet normal 0 0 -1
    outer loop
      vertex 74.5 37 14.8
      vertex 95.74797599165052 38.26948628518954 14.8
      vertex 95.85147186257615 38.151471862576145 14.8
    endloop
  endfacet
  facet normal 0 0 -1
    outer loop
      vertex 74.5 37 14.8
      vertex 95.66076951545868 38.4 14.8
      vertex 95.74797599165052 38.26948628518954 14.8
    endloop
  endfacet
  facet normal 0 0 -1
    outer loop
      vertex 74.5 37 14.8
      vertex 95.59134456098646 38.54077988116189 14.8
      vertex 95.66076951545868 38.4 14.8
    endloop
  endfacet
  facet normal 0 0 -1
    outer loop
      vertex 74.5 37 14.8
      vertex 96.2407798811619 37.891344560986454 14.8
      vertex 98.5 37 14.8
    endloop
  endfacet
  facet normal 0 -1 0
    outer loop
      vertex 74.5 37 14.8
      vertex 98.5 37 14.8
      vertex 98.5 37 16.8
    endloop
  endfacet
  facet normal 0 0 -1
    outer loop
      vertex 74.5 37 14.8
      vertex 95.54088900845312 38.68941714587697 14.8
      vertex 95.59134456098646 38.54077988116189 14.8
    endloop
  endfacet
  facet normal 0 0 -1
    outer loop
      vertex 74.5 37 14.8
      vertex 95.51026616635143 38.84336856933594 14.8
      vertex 95.54088900845312 38.68941714587697 14.8
    endloop
  endfacet
  facet normal 0 0 -1
    outer loop
      vertex 74.5 37 14.8
      vertex 95.5 39 14.8
      vertex 95.51026616635143 38.84336856933594 14.8
    endloop
  endfacet
  facet normal 0 0 -1
    outer loop
      vertex 74.5 37 14.8
      vertex 95.51026616635143 39.15663143066406 14.8
      vertex 95.5 39 14.8
    endloop
  endfacet
  facet normal 0 0 -1
    outer loop
      vertex 74.5 37 14.8
      vertex 95.54088900845312 39.31058285412303 14.8
      vertex 95.51026616635143 39.15663143066406 14.8
    endloop
  endfacet
  facet normal 0 0 -1
    outer loop
      vertex 74.5 37 14.8
      vertex 95.59134456098646 39.45922011883811 14.8
      vertex 95.54088900845312 39.31058285412303 14.8
    endloop
  endfacet
  facet normal 0 0 -1
    outer loop
      vertex 74.5 37 14.8
      vertex 95.66076951545868 39.6 14.8
      vertex 95.59134456098646 39.45922011883811 14.8
    endloop
  endfacet
  facet normal 0 0 -1
    outer loop
      vertex 74.5 37 14.8
      vertex 95.74797599165052 39.73051371481046 14.8
      vertex 95.66076951545868 39.6 14.8
    endloop
  endfacet
  facet normal 0 0 -1
    outer loop
      vertex 74.5 37 14.8
      vertex 95.85147186257615 39.848528137423855 14.8
      vertex 95.74797599165052 39.73051371481046 14.8
    endloop
  endfacet
  facet normal 0 0 -1
    outer loop
      vertex 74.5 37 14.8
      vertex 95.96948628518953 39.95202400834948 14.8
      vertex 95.85147186257615 39.848528137423855 14.8
    endloop
  endfacet
  facet normal 0 0 -1
    outer loop
      vertex 74.5 37 14.8
      vertex 96.10000000000001 40.03923048454133 14.8
      vertex 95.96948628518953 39.95202400834948 14.8
    endloop
  endfacet
  facet normal 0 0 -1
    outer loop
      vertex 98.5 37 14.8
      vertex 96.38941714587698 37.84088900845312 14.8
      vertex 96.54336856933594 37.810266166351425 14.8
    endloop
  endfacet
  facet normal 0 0 -1
    outer loop
      vertex 98.5 37 14.8
      vertex 96.54336856933594 37.810266166351425 14.8
      vertex 96.7 37.8 14.8
    endloop
  endfacet
  facet normal 0 0 -1
    outer loop
      vertex 98.5 37 14.8
      vertex 96.7 37.8 14.8
      vertex 96.85663143066407 37.810266166351425 14.8
    endloop
  endfacet
  facet normal 0 0 -1
    outer loop
      vertex 98.5 37 14.8
      vertex 96.2407798811619 37.891344560986454 14.8
      vertex 96.38941714587698 37.84088900845312 14.8
    endloop
  endfacet
  facet normal 0 0 -1
    outer loop
      vertex 98.5 37 14.8
      vertex 96.85663143066407 37.810266166351425 14.8
      vertex 97.01058285412303 37.84088900845312 14.8
    endloop
  endfacet
  facet normal 0 0 -1
    outer loop
      vertex 98.5 37 14.8
      vertex 97.01058285412303 37.84088900845312 14.8
      vertex 97.1592201188381 37.891344560986454 14.8
    endloop
  endfacet
  facet normal 0 0 -1
    outer loop
      vertex 98.5 37 14.8
      vertex 97.1592201188381 37.891344560986454 14.8
      vertex 97.3 37.96076951545867 14.8
    endloop
  endfacet
  facet normal 0 0 -1
    outer loop
      vertex 98.5 37 14.8
      vertex 97.3 37.96076951545867 14.8
      vertex 97.43051371481047 38.04797599165052 14.8
    endloop
  endfacet
  facet normal 0 0 -1
    outer loop
      vertex 98.5 37 14.8
      vertex 97.43051371481047 38.04797599165052 14.8
      vertex 97.54852813742386 38.151471862576145 14.8
    endloop
  endfacet
  facet normal 0 0 -1
    outer loop
      vertex 98.5 37 14.8
      vertex 97.54852813742386 38.151471862576145 14.8
      vertex 97.65202400834949 38.26948628518954 14.8
    endloop
  endfacet
  facet normal 0 0 -1
    outer loop
      vertex 98.5 37 14.8
      vertex 97.65202400834949 38.26948628518954 14.8
      vertex 97.73923048454132 38.4 14.8
    endloop
  endfacet
  facet normal 0 0 -1
    outer loop
      vertex 98.5 37 14.8
      vertex 97.73923048454132 38.4 14.8
      vertex 97.80865543901355 38.54077988116189 14.8
    endloop
  endfacet
  facet normal 0 0 -1
    outer loop
      vertex 98.5 37 14.8
      vertex 97.80865543901355 38.54077988116189 14.8
      vertex 97.85911099154688 38.68941714587697 14.8
    endloop
  endfacet
  facet normal 0 0 -1
    outer loop
      vertex 98.5 37 14.8
      vertex 97.85911099154688 38.68941714587697 14.8
      vertex 98.5 41 14.8
    endloop
  endfacet
  facet normal 1 0 0
    outer loop
      vertex 98.5 37 14.8
      vertex 98.5 41 14.8
      vertex 98.5 37 16.8
    endloop
  endfacet
  facet normal 0 0 1
    outer loop
      vertex 74.5 41 16.8
      vertex 96.38941714587698 37.84088900845312 16.8
      vertex 96.2407798811619 37.891344560986454 16.8
    endloop
  endfacet
  facet normal 0 0 1
    outer loop
      vertex 74.5 41 16.8
      vertex 96.2407798811619 37.891344560986454 16.8
      vertex 96.10000000000001 37.96076951545867 16.8
    endloop
  endfacet
  facet normal 0 0 1
    outer loop
      vertex 74.5 41 16.8
      vertex 96.54336856933594 37.810266166351425 16.8
      vertex 96.38941714587698 37.84088900845312 16.8
    endloop
  endfacet
  facet normal 0 0 1
    outer loop
      vertex 74.5 41 16.8
      vertex 98.5 37 16.8
      vertex 96.54336856933594 37.810266166351425 16.8
    endloop
  endfacet
  facet normal 0 0 1
    outer loop
      vertex 98.5 37 16.8
      vertex 96.7 37.8 16.8
      vertex 96.54336856933594 37.810266166351425 16.8
    endloop
  endfacet
  facet normal 0 0 1
    outer loop
      vertex 98.5 37 16.8
      vertex 96.85663143066407 37.810266166351425 16.8
      vertex 96.7 37.8 16.8
    endloop
  endfacet
  facet normal 0 0 1
    outer loop
      vertex 98.5 37 16.8
      vertex 97.01058285412303 37.84088900845312 16.8
      vertex 96.85663143066407 37.810266166351425 16.8
    endloop
  endfacet
  facet normal 0 0 1
    outer loop
      vertex 98.5 37 16.8
      vertex 97.1592201188381 37.891344560986454 16.8
      vertex 97.01058285412303 37.84088900845312 16.8
    endloop
  endfacet
  facet normal 0 0 1
    outer loop
      vertex 98.5 37 16.8
      vertex 97.3 37.96076951545867 16.8
      vertex 97.1592201188381 37.891344560986454 16.8
    endloop
  endfacet
  facet normal 0 0 1
    outer loop
      vertex 98.5 37 16.8
      vertex 97.43051371481047 38.04797599165052 16.8
      vertex 97.3 37.96076951545867 16.8
    endloop
  endfacet
  facet normal 0 0 1
    outer loop
      vertex 98.5 37 16.8
      vertex 97.54852813742386 38.151471862576145 16.8
      vertex 97.43051371481047 38.04797599165052 16.8
    endloop
  endfacet
  facet normal 0 0 1
    outer loop
      vertex 98.5 37 16.8
      vertex 97.65202400834949 38.26948628518954 16.8
      vertex 97.54852813742386 38.151471862576145 16.8
    endloop
  endfacet
  facet normal 0 0 1
    outer loop
      vertex 98.5 37 16.8
      vertex 97.73923048454132 38.4 16.8
      vertex 97.65202400834949 38.26948628518954 16.8
    endloop
  endfacet
  facet normal 0 0 1
    outer loop
      vertex 98.5 37 16.8
      vertex 97.80865543901355 38.54077988116189 16.8
      vertex 97.73923048454132 38.4 16.8
    endloop
  endfacet
  facet normal 0 0 1
    outer loop
      vertex 98.5 37 16.8
      vertex 97.85911099154688 38.68941714587697 16.8
      vertex 97.80865543901355 38.54077988116189 16.8
    endloop
  endfacet
  facet normal 0 0 1
    outer loop
      vertex 98.5 37 16.8
      vertex 97.88973383364858 38.84336856933594 16.8
      vertex 97.85911099154688 38.68941714587697 16.8
    endloop
  endfacet
  facet normal 0 0 1
    outer loop
      vertex 98.5 37 16.8
      vertex 97.9 39 16.8
      vertex 97.88973383364858 38.84336856933594 16.8
    endloop
  endfacet
  facet normal 0 0 -1
    outer loop
      vertex 74.5 37 14.8
      vertex 96.2407798811619 40.108655439013546 14.8
      vertex 96.10000000000001 40.03923048454133 14.8
    endloop
  endfacet
  facet normal 0 0 -1
    outer loop
      vertex 74.5 37 14.8
      vertex 96.38941714587698 40.15911099154688 14.8
      vertex 96.2407798811619 40.108655439013546 14.8
    endloop
  endfacet
  facet normal 0 0 -1
    outer loop
      vertex 74.5 37 14.8
      vertex 96.54336856933594 40.189733833648575 14.8
      vertex 96.38941714587698 40.15911099154688 14.8
    endloop
  endfacet
  facet normal 0 0 -1
    outer loop
      vertex 74.5 37 14.8
      vertex 98.5 41 14.8
      vertex 96.54336856933594 40.189733833648575 14.8
    endloop
  endfacet
  facet normal 0 0 -1
    outer loop
      vertex 98.5 41 14.8
      vertex 97.85911099154688 38.68941714587697 14.8
      vertex 97.88973383364858 38.84336856933594 14.8
    endloop
  endfacet
  facet normal 0 0 -1
    outer loop
      vertex 98.5 41 14.8
      vertex 97.88973383364858 38.84336856933594 14.8
      vertex 97.9 39 14.8
    endloop
  endfacet
  facet normal 0 0 -1
    outer loop
      vertex 98.5 41 14.8
      vertex 97.9 39 14.8
      vertex 97.88973383364858 39.15663143066406 14.8
    endloop
  endfacet
  facet normal 0 0 -1
    outer loop
      vertex 98.5 41 14.8
      vertex 97.88973383364858 39.15663143066406 14.8
      vertex 97.85911099154688 39.31058285412303 14.8
    endloop
  endfacet
  facet normal 0 0 -1
    outer loop
      vertex 98.5 41 14.8
      vertex 97.85911099154688 39.31058285412303 14.8
      vertex 97.80865543901355 39.45922011883811 14.8
    endloop
  endfacet
  facet normal 0 0 -1
    outer loop
      vertex 98.5 41 14.8
      vertex 97.80865543901355 39.45922011883811 14.8
      vertex 97.73923048454132 39.6 14.8
    endloop
  endfacet
  facet normal 0 0 -1
    outer loop
      vertex 98.5 41 14.8
      vertex 97.73923048454132 39.6 14.8
      vertex 97.65202400834949 39.73051371481046 14.8
    endloop
  endfacet
  facet normal 0 0 -1
    outer loop
      vertex 98.5 41 14.8
      vertex 97.65202400834949 39.73051371481046 14.8
      vertex 97.54852813742386 39.848528137423855 14.8
    endloop
  endfacet
  facet normal 0 0 -1
    outer loop
      vertex 98.5 41 14.8
      vertex 97.43051371481047 39.95202400834948 14.8
      vertex 97.3 40.03923048454133 14.8
    endloop
  endfacet
  facet normal 0 0 -1
    outer loop
      vertex 98.5 41 14.8
      vertex 96.7 40.2 14.8
      vertex 96.54336856933594 40.189733833648575 14.8
    endloop
  endfacet
  facet normal 0 0 -1
    outer loop
      vertex 98.5 41 14.8
      vertex 96.85663143066407 40.189733833648575 14.8
      vertex 96.7 40.2 14.8
    endloop
  endfacet
  facet normal 0 0 -1
    outer loop
      vertex 98.5 41 14.8
      vertex 97.1592201188381 40.108655439013546 14.8
      vertex 97.01058285412303 40.15911099154688 14.8
    endloop
  endfacet
  facet normal 0 0 -1
    outer loop
      vertex 98.5 41 14.8
      vertex 97.3 40.03923048454133 14.8
      vertex 97.1592201188381 40.108655439013546 14.8
    endloop
  endfacet
  facet normal 0 0 -1
    outer loop
      vertex 98.5 41 14.8
      vertex 97.01058285412303 40.15911099154688 14.8
      vertex 96.85663143066407 40.189733833648575 14.8
    endloop
  endfacet
  facet normal 0 0 -1
    outer loop
      vertex 98.5 41 14.8
      vertex 97.54852813742386 39.848528137423855 14.8
      vertex 97.43051371481047 39.95202400834948 14.8
    endloop
  endfacet
  facet normal 0 0 1
    outer loop
      vertex 74.5 41 16.8
      vertex 95.85147186257615 38.151471862576145 16.8
      vertex 95.74797599165052 38.26948628518954 16.8
    endloop
  endfacet
  facet normal 0 0 1
    outer loop
      vertex 74.5 41 16.8
      vertex 95.74797599165052 38.26948628518954 16.8
      vertex 95.66076951545868 38.4 16.8
    endloop
  endfacet
  facet normal 0 0 1
    outer loop
      vertex 74.5 41 16.8
      vertex 96.10000000000001 37.96076951545867 16.8
      vertex 95.96948628518953 38.04797599165052 16.8
    endloop
  endfacet
  facet normal 0 0 1
    outer loop
      vertex 74.5 41 16.8
      vertex 95.96948628518953 38.04797599165052 16.8
      vertex 95.85147186257615 38.151471862576145 16.8
    endloop
  endfacet
  facet normal 0 0 1
    outer loop
      vertex 74.5 41 16.8
      vertex 95.66076951545868 38.4 16.8
      vertex 95.59134456098646 38.54077988116189 16.8
    endloop
  endfacet
  facet normal 0 0 1
    outer loop
      vertex 74.5 41 16.8
      vertex 95.59134456098646 38.54077988116189 16.8
      vertex 95.54088900845312 38.68941714587697 16.8
    endloop
  endfacet
  facet normal 0 0 1
    outer loop
      vertex 74.5 41 16.8
      vertex 95.54088900845312 38.68941714587697 16.8
      vertex 95.51026616635143 38.84336856933594 16.8
    endloop
  endfacet
  facet normal 0 0 1
    outer loop
      vertex 74.5 41 16.8
      vertex 95.51026616635143 38.84336856933594 16.8
      vertex 95.5 39 16.8
    endloop
  endfacet
  facet normal 0 0 1
    outer loop
      vertex 74.5 41 16.8
      vertex 95.5 39 16.8
      vertex 95.51026616635143 39.15663143066406 16.8
    endloop
  endfacet
  facet normal 0 0 1
    outer loop
      vertex 74.5 41 16.8
      vertex 95.51026616635143 39.15663143066406 16.8
      vertex 95.54088900845312 39.31058285412303 16.8
    endloop
  endfacet
  facet normal 0 0 1
    outer loop
      vertex 74.5 41 16.8
      vertex 95.54088900845312 39.31058285412303 16.8
      vertex 95.59134456098646 39.45922011883811 16.8
    endloop
  endfacet
  facet normal 0 1 0
    outer loop
      vertex 74.5 41 16.8
      vertex 98.5 41 16.8
      vertex 98.5 41 14.8
    endloop
  endfacet
  facet normal 0 0 1
    outer loop
      vertex 74.5 41 16.8
      vertex 95.59134456098646 39.45922011883811 16.8
      vertex 95.66076951545868 39.6 16.8
    endloop
  endfacet
  facet normal 0 0 1
    outer loop
      vertex 74.5 41 16.8
      vertex 95.66076951545868 39.6 16.8
      vertex 95.74797599165052 39.73051371481046 16.8
    endloop
  endfacet
  facet normal 0 0 1
    outer loop
      vertex 74.5 41 16.8
      vertex 95.74797599165052 39.73051371481046 16.8
      vertex 95.85147186257615 39.848528137423855 16.8
    endloop
  endfacet
  facet normal 0 0 1
    outer loop
      vertex 74.5 41 16.8
      vertex 95.85147186257615 39.848528137423855 16.8
      vertex 95.96948628518953 39.95202400834948 16.8
    endloop
  endfacet
  facet normal 0 0 1
    outer loop
      vertex 74.5 41 16.8
      vertex 95.96948628518953 39.95202400834948 16.8
      vertex 96.10000000000001 40.03923048454133 16.8
    endloop
  endfacet
  facet normal 0 0 1
    outer loop
      vertex 74.5 41 16.8
      vertex 96.10000000000001 40.03923048454133 16.8
      vertex 96.2407798811619 40.108655439013546 16.8
    endloop
  endfacet
  facet normal 0 0 1
    outer loop
      vertex 74.5 41 16.8
      vertex 96.2407798811619 40.108655439013546 16.8
      vertex 96.38941714587698 40.15911099154688 16.8
    endloop
  endfacet
  facet normal 0 0 1
    outer loop
      vertex 74.5 41 16.8
      vertex 96.38941714587698 40.15911099154688 16.8
      vertex 96.54336856933594 40.189733833648575 16.8
    endloop
  endfacet
  facet normal 0 0 1
    outer loop
      vertex 74.5 41 16.8
      vertex 96.54336856933594 40.189733833648575 16.8
      vertex 96.7 40.2 16.8
    endloop
  endfacet
  facet normal 0 0 1
    outer loop
      vertex 74.5 41 16.8
      vertex 96.7 40.2 16.8
      vertex 98.5 41 16.8
    endloop
  endfacet
  facet normal 1 0 0
    outer loop
      vertex 98.5 37 16.8
      vertex 98.5 41 14.8
      vertex 98.5 41 16.8
    endloop
  endfacet
  facet normal 0 0 1
    outer loop
      vertex 98.5 37 16.8
      vertex 98.5 41 16.8
      vertex 97.9 39 16.8
    endloop
  endfacet
  facet normal 0 0 1
    outer loop
      vertex 98.5 41 16.8
      vertex 97.88973383364858 39.15663143066406 16.8
      vertex 97.9 39 16.8
    endloop
  endfacet
  facet normal 0 0 1
    outer loop
      vertex 98.5 41 16.8
      vertex 97.85911099154688 39.31058285412303 16.8
      vertex 97.88973383364858 39.15663143066406 16.8
    endloop
  endfacet
  facet normal 0 0 1
    outer loop
      vertex 98.5 41 16.8
      vertex 97.80865543901355 39.45922011883811 16.8
      vertex 97.85911099154688 39.31058285412303 16.8
    endloop
  endfacet
  facet normal 0 0 1
    outer loop
      vertex 98.5 41 16.8
      vertex 97.73923048454132 39.6 16.8
      vertex 97.80865543901355 39.45922011883811 16.8
    endloop
  endfacet
  facet normal 0 0 1
    outer loop
      vertex 98.5 41 16.8
      vertex 97.65202400834949 39.73051371481046 16.8
      vertex 97.73923048454132 39.6 16.8
    endloop
  endfacet
  facet normal 0 0 1
    outer loop
      vertex 98.5 41 16.8
      vertex 97.54852813742386 39.848528137423855 16.8
      vertex 97.65202400834949 39.73051371481046 16.8
    endloop
  endfacet
  facet normal 0 0 1
    outer loop
      vertex 98.5 41 16.8
      vertex 97.3 40.03923048454133 16.8
      vertex 97.43051371481047 39.95202400834948 16.8
    endloop
  endfacet
  facet normal 0 0 1
    outer loop
      vertex 98.5 41 16.8
      vertex 96.7 40.2 16.8
      vertex 96.85663143066407 40.189733833648575 16.8
    endloop
  endfacet
  facet normal 0 0 1
    outer loop
      vertex 98.5 41 16.8
      vertex 97.01058285412303 40.15911099154688 16.8
      vertex 97.1592201188381 40.108655439013546 16.8
    endloop
  endfacet
  facet normal 0 0 1
    outer loop
      vertex 98.5 41 16.8
      vertex 97.1592201188381 40.108655439013546 16.8
      vertex 97.3 40.03923048454133 16.8
    endloop
  endfacet
  facet normal 0 0 1
    outer loop
      vertex 98.5 41 16.8
      vertex 96.85663143066407 40.189733833648575 16.8
      vertex 97.01058285412303 40.15911099154688 16.8
    endloop
  endfacet
  facet normal 0 0 1
    outer loop
      vertex 98.5 41 16.8
      vertex 97.43051371481047 39.95202400834948 16.8
      vertex 97.54852813742386 39.848528137423855 16.8
    endloop
  endfacet
endsolid OpenSCAD_Model
