solid OpenSCAD_Model
  facet normal 0 0 -1
    outer loop
      vertex 98.4 -18.5 33.4
      vertex 98.4 -14.5 33.4
      vertex 101.3 -18.5 33.4
    endloop
  endfacet
  facet normal 0 0 -1
    outer loop
      vertex 98.4 -14.5 33.4
      vertex 98.4 -8.5 33.4
      vertex 101.3 -18.5 33.4
    endloop
  endfacet
  facet normal -1 0 0
    outer loop
      vertex 98.4 -18.5 33.4
      vertex 98.4 -14.5 42.599999999999994
      vertex 98.4 -14.5 33.4
    endloop
  endfacet
  facet normal 0 1 0
    outer loop
      vertex 98.4 -8.5 33.4
      vertex 100 -8.5 41
      vertex 100 -8.5 35
    endloop
  endfacet
  facet normal -1 0 0
    outer loop
      vertex 98.4 -18.5 33.4
      vertex 98.4 -18.5 42.599999999999994
      vertex 98.4 -14.5 42.599999999999994
    endloop
  endfacet
  facet normal 0 1 0
    outer loop
      vertex 98.4 -8.5 33.4
      vertex 98.4 -8.5 42.599999999999994
      vertex 100 -8.5 41
    endloop
  endfacet
  facet normal 0 -1 0
    outer loop
      vertex 98.4 -18.5 33.4
      vertex 101.3 -18.5 33.4
      vertex 101.3 -18.5 34.800000000000004
    endloop
  endfacet
  facet normal 0 -1 0
    outer loop
      vertex 98.4 -18.5 33.4
      vertex 101.3 -18.5 34.800000000000004
      vertex 107.60000000000001 -18.5 42.599999999999994
    endloop
  endfacet
  facet normal 0 0 -1
    outer loop
      vertex 98.4 -8.5 33.4
      vertex 101.3 -8.5 33.4
      vertex 101.3 -18.5 33.4
    endloop
  endfacet
  facet normal 0 1 0
    outer loop
      vertex 98.4 -8.5 33.4
      vertex 100 -8.5 35
      vertex 101.3 -8.5 33.4
    endloop
  endfacet
  facet normal 0 1 0
    outer loop
      vertex 100 -8.5 35
      vertex 101.3 -8.5 34.800000000000004
      vertex 101.3 -8.5 33.4
    endloop
  endfacet
  facet normal 0 1 0
    outer loop
      vertex 100 -8.5 35
      vertex 106 -8.5 35
      vertex 101.3 -8.5 34.800000000000004
    endloop
  endfacet
  facet normal 0 0 -1
    outer loop
      vertex 107.60000000000001 -18.5 33.4
      vertex 104.7 -18.5 33.4
      vertex 104.7 -8.5 33.4
    endloop
  endfacet
  facet normal 0 -1 0
    outer loop
      vertex 107.60000000000001 -18.5 42.599999999999994
      vertex 101.3 -18.5 34.800000000000004
      vertex 104.7 -18.5 34.800000000000004
    endloop
  endfacet
  facet normal 0 -1 0
    outer loop
      vertex 107.60000000000001 -18.5 33.4
      vertex 107.60000000000001 -18.5 42.599999999999994
      vertex 104.7 -18.5 33.4
    endloop
  endfacet
  facet normal 0 -1 0
    outer loop
      vertex 107.60000000000001 -18.5 42.599999999999994
      vertex 104.7 -18.5 34.800000000000004
      vertex 104.7 -18.5 33.4
    endloop
  endfacet
  facet normal 1 0 0
    outer loop
      vertex 107.60000000000001 -18.5 33.4
      vertex 107.60000000000001 -8.5 33.4
      vertex 107.60000000000001 -18.5 42.599999999999994
    endloop
  endfacet
  facet normal 0 1 0
    outer loop
      vertex 106 -8.5 35
      vertex 104.7 -8.5 33.4
      vertex 104.7 -8.5 34.800000000000004
    endloop
  endfacet
  facet normal 0 1 0
    outer loop
      vertex 106 -8.5 35
      vertex 104.7 -8.5 34.800000000000004
      vertex 101.3 -8.5 34.800000000000004
    endloop
  endfacet
  facet normal 0 0 -1
    outer loop
      vertex 107.60000000000001 -18.5 33.4
      vertex 104.7 -8.5 33.4
      vertex 107.60000000000001 -8.5 33.4
    endloop
  endfacet
  facet normal 0 1 0
    outer loop
      vertex 107.60000000000001 -8.5 33.4
      vertex 104.7 -8.5 33.4
      vertex 106 -8.5 35
    endloop
  endfacet
  facet normal 0 1 0
    outer loop
      vertex 107.60000000000001 -8.5 33.4
      vertex 106 -8.5 35
      vertex 107.60000000000001 -8.5 42.599999999999994
    endloop
  endfacet
  facet normal 0 -1 0
    outer loop
      vertex 98.4 -18.5 33.4
      vertex 107.60000000000001 -18.5 42.599999999999994
      vertex 98.4 -18.5 42.599999999999994
    endloop
  endfacet
  facet normal 0 0 1
    outer loop
      vertex 98.4 -18.5 42.599999999999994
      vertex 107.60000000000001 -18.5 42.599999999999994
      vertex 98.4 -14.5 42.599999999999994
    endloop
  endfacet
  facet normal 0 0 1
    outer loop
      vertex 98.4 -14.5 42.599999999999994
      vertex 107.60000000000001 -18.5 42.599999999999994
      vertex 98.4 -13.552631578947377 42.599999999999994
    endloop
  endfacet
  facet normal 0 0 1
    outer loop
      vertex 98.4 -13.552631578947377 42.599999999999994
      vertex 107.60000000000001 -18.5 42.599999999999994
      vertex 99.6 -9.804347826086943 42.599999999999994
    endloop
  endfacet
  facet normal 0 1 0
    outer loop
      vertex 98.4 -8.5 42.599999999999994
      vertex 106 -8.5 41
      vertex 100 -8.5 41
    endloop
  endfacet
  facet normal 0 0 1
    outer loop
      vertex 99.6 -9.804347826086943 42.599999999999994
      vertex 107.60000000000001 -8.5 42.599999999999994
      vertex 98.4 -8.5 42.599999999999994
    endloop
  endfacet
  facet normal 1 0 0
    outer loop
      vertex 107.60000000000001 -8.5 33.4
      vertex 107.60000000000001 -8.5 42.599999999999994
      vertex 107.60000000000001 -18.5 42.599999999999994
    endloop
  endfacet
  facet normal 0 1 0
    outer loop
      vertex 106 -8.5 35
      vertex 106 -8.5 41
      vertex 107.60000000000001 -8.5 42.599999999999994
    endloop
  endfacet
  facet normal 0 0 1
    outer loop
      vertex 99.6 -9.804347826086943 42.599999999999994
      vertex 107.60000000000001 -18.5 42.599999999999994
      vertex 107.60000000000001 -8.5 42.599999999999994
    endloop
  endfacet
  facet normal 0 1 0
    outer loop
      vertex 98.4 -8.5 42.599999999999994
      vertex 107.60000000000001 -8.5 42.599999999999994
      vertex 106 -8.5 41
    endloop
  endfacet
  facet normal -1 0 0
    outer loop
      vertex 100 -8.5 35
      vertex 100 -8.5 41
      vertex 100 4.209999999999999 35
    endloop
  endfacet
  facet normal 0 0 -1
    outer loop
      vertex 100 -8.5 35
      vertex 100 4.209999999999999 35
      vertex 106 4.209999999999999 35
    endloop
  endfacet
  facet normal 0 1 0
    outer loop
      vertex 100 4.209999999999999 35
      vertex 100.00625 4.209999999999999 35.00625
      vertex 106 4.209999999999999 35
    endloop
  endfacet
  facet normal 0 1 0
    outer loop
      vertex 100 4.209999999999999 35
      vertex 100.00625 4.209999999999999 40.99375
      vertex 100.00625 4.209999999999999 35.00625
    endloop
  endfacet
  facet normal 0 0 -1
    outer loop
      vertex 100 -8.5 35
      vertex 106 4.209999999999999 35
      vertex 106 -8.5 35
    endloop
  endfacet
  facet normal 0 1 0
    outer loop
      vertex 100.00625 4.209999999999999 35.00625
      vertex 105.99375 4.209999999999999 35.00625
      vertex 106 4.209999999999999 35
    endloop
  endfacet
  facet normal 1 0 0
    outer loop
      vertex 106 -8.5 35
      vertex 106 4.209999999999999 35
      vertex 106 4.209999999999999 41
    endloop
  endfacet
  facet normal 0 1 0
    outer loop
      vertex 106 4.209999999999999 35
      vertex 105.99375 4.209999999999999 35.00625
      vertex 106 4.209999999999999 41
    endloop
  endfacet
  facet normal 0 0 1
    outer loop
      vertex 100 -8.5 41
      vertex 106 -8.5 41
      vertex 100 4.209999999999999 41
    endloop
  endfacet
  facet normal -1 0 0
    outer loop
      vertex 100 -8.5 41
      vertex 100 4.209999999999999 41
      vertex 100 4.209999999999999 35
    endloop
  endfacet
  facet normal 0 1 0
    outer loop
      vertex 100 4.209999999999999 35
      vertex 100 4.209999999999999 41
      vertex 100.00625 4.209999999999999 40.99375
    endloop
  endfacet
  facet normal 0 1 0
    outer loop
      vertex 100 4.209999999999999 41
      vertex 105.99375 4.209999999999999 40.99375
      vertex 100.00625 4.209999999999999 40.99375
    endloop
  endfacet
  facet normal 1 0 0
    outer loop
      vertex 106 -8.5 35
      vertex 106 4.209999999999999 41
      vertex 106 -8.5 41
    endloop
  endfacet
  facet normal 0 1 0
    outer loop
      vertex 105.99375 4.209999999999999 35.00625
      vertex 105.99375 4.209999999999999 40.99375
      vertex 106 4.209999999999999 41
    endloop
  endfacet
  facet normal 0 0 1
    outer loop
      vertex 106 -8.5 41
      vertex 106 4.209999999999999 41
      vertex 100 4.209999999999999 41
    endloop
  endfacet
  facet normal 0 1 0
    outer loop
      vertex 100 4.209999999999999 41
      vertex 106 4.209999999999999 41
      vertex 105.99375 4.209999999999999 40.99375
    endloop
  endfacet
  facet normal 0 0.5299989400031784 -0.8479983040050889
    outer loop
      vertex 100.00625 4.209999999999999 35.00625
      vertex 100.5 5 35.5
      vertex 105.5 5 35.5
    endloop
  endfacet
  facet normal -0.8479983040050856 0.5299989400031839 0
    outer loop
      vertex 100.00625 4.209999999999999 35.00625
      vertex 100.00625 4.209999999999999 40.99375
      vertex 100.5 5 35.5
    endloop
  endfacet
  facet normal 0 0.5299989400031785 -0.847998304005089
    outer loop
      vertex 100.00625 4.209999999999999 35.00625
      vertex 105.5 5 35.5
      vertex 105.99375 4.209999999999999 35.00625
    endloop
  endfacet
  facet normal 0 1 0
    outer loop
      vertex 100.5 5 35.5
      vertex 105.5 5 40.5
      vertex 105.5 5 35.5
    endloop
  endfacet
  facet normal 0.8479983040050855 0.5299989400031839 0
    outer loop
      vertex 105.5 5 35.5
      vertex 105.5 5 40.5
      vertex 105.99375 4.209999999999999 35.00625
    endloop
  endfacet
  facet normal -0.8479983040050855 0.5299989400031839 0
    outer loop
      vertex 100.5 5 35.5
      vertex 100.00625 4.209999999999999 40.99375
      vertex 100.5 5 40.5
    endloop
  endfacet
  facet normal 0 1 0
    outer loop
      vertex 100.5 5 35.5
      vertex 100.5 5 40.5
      vertex 105.5 5 40.5
    endloop
  endfacet
  facet normal 0 0.5299989400031784 0.847998304005089
    outer loop
      vertex 100.5 5 40.5
      vertex 100.00625 4.209999999999999 40.99375
      vertex 105.99375 4.209999999999999 40.99375
    endloop
  endfacet
  facet normal 0.8479983040050856 0.5299989400031839 0
    outer loop
      vertex 105.99375 4.209999999999999 35.00625
      vertex 105.5 5 40.5
      vertex 105.99375 4.209999999999999 40.99375
    endloop
  endfacet
  facet normal 0 0.5299989400031784 0.8479983040050889
    outer loop
      vertex 100.5 5 40.5
      vertex 105.99375 4.209999999999999 40.99375
      vertex 105.5 5 40.5
    endloop
  endfacet
  facet normal -1 0 0
    outer loop
      vertex 92 -14.5 33.4
      vertex 92 -14.5 42.599999999999994
      vertex 92 -12.8 35.2
    endloop
  endfacet
  facet normal -1 0 0
    outer loop
      vertex 92 -14.5 33.4
      vertex 92 -10.200000000000001 35.2
      vertex 92 -8.5 33.4
    endloop
  endfacet
  facet normal -1 0 0
    outer loop
      vertex 92 -14.5 33.4
      vertex 92 -12.8 35.2
      vertex 92 -10.200000000000001 35.2
    endloop
  endfacet
  facet normal 0 0 -1
    outer loop
      vertex 92 -14.5 33.4
      vertex 92 -8.5 33.4
      vertex 98.4 -14.5 33.4
    endloop
  endfacet
  facet normal -1 0 0
    outer loop
      vertex 92 -8.5 33.4
      vertex 92 -10.200000000000001 35.2
      vertex 92 -10.200000000000001 40.800000000000004
    endloop
  endfacet
  facet normal 0 1 0
    outer loop
      vertex 92 -8.5 33.4
      vertex 92 -8.5 42.599999999999994
      vertex 98.4 -8.5 33.4
    endloop
  endfacet
  facet normal 0 -1 0
    outer loop
      vertex 92 -14.5 33.4
      vertex 98.4 -14.5 33.4
      vertex 98.4 -14.5 42.599999999999994
    endloop
  endfacet
  facet normal 0 0 -1
    outer loop
      vertex 92 -8.5 33.4
      vertex 98.4 -8.5 33.4
      vertex 98.4 -14.5 33.4
    endloop
  endfacet
  facet normal -1 0 0
    outer loop
      vertex 92 -14.5 42.599999999999994
      vertex 92 -12.8 40.800000000000004
      vertex 92 -12.8 35.2
    endloop
  endfacet
  facet normal 0 -1 0
    outer loop
      vertex 92 -14.5 33.4
      vertex 98.4 -14.5 42.599999999999994
      vertex 92 -14.5 42.599999999999994
    endloop
  endfacet
  facet normal -1 0 0
    outer loop
      vertex 92 -8.5 33.4
      vertex 92 -10.200000000000001 40.800000000000004
      vertex 92 -8.5 42.599999999999994
    endloop
  endfacet
  facet normal -1 0 0
    outer loop
      vertex 92 -8.5 42.599999999999994
      vertex 92 -10.200000000000001 40.800000000000004
      vertex 92 -12.8 40.800000000000004
    endloop
  endfacet
  facet normal -1 0 0
    outer loop
      vertex 92 -14.5 42.599999999999994
      vertex 92 -8.5 42.599999999999994
      vertex 92 -12.8 40.800000000000004
    endloop
  endfacet
  facet normal 0 0 1
    outer loop
      vertex 92 -14.5 42.599999999999994
      vertex 98.4 -13.552631578947377 42.599999999999994
      vertex 92 -8.5 42.599999999999994
    endloop
  endfacet
  facet normal 0 0 1
    outer loop
      vertex 92 -14.5 42.599999999999994
      vertex 98.4 -14.5 42.599999999999994
      vertex 98.4 -13.552631578947377 42.599999999999994
    endloop
  endfacet
  facet normal 0 1 0
    outer loop
      vertex 98.4 -8.5 33.4
      vertex 92 -8.5 42.599999999999994
      vertex 98.4 -8.5 42.599999999999994
    endloop
  endfacet
  facet normal 0 0 1
    outer loop
      vertex 92 -8.5 42.599999999999994
      vertex 98.4 -13.552631578947377 42.599999999999994
      vertex 98.4 -8.5 42.599999999999994
    endloop
  endfacet
  facet normal 0 0 1
    outer loop
      vertex 98.4 -13.552631578947377 42.599999999999994
      vertex 99.6 -9.804347826086943 42.599999999999994
      vertex 98.4 -8.5 42.599999999999994
    endloop
  endfacet
  facet normal 0 0 1
    outer loop
      vertex 99.6 -12.8 35.2
      vertex 92 -10.200000000000001 35.2
      vertex 92 -12.8 35.2
    endloop
  endfacet
  facet normal 0 -1 0
    outer loop
      vertex 99.6 -10.200000000000001 35.2
      vertex 92 -10.200000000000001 40.800000000000004
      vertex 92 -10.200000000000001 35.2
    endloop
  endfacet
  facet normal 0 1 0
    outer loop
      vertex 99.6 -12.8 35.2
      vertex 92 -12.8 35.2
      vertex 99.6 -12.8 40.800000000000004
    endloop
  endfacet
  facet normal 0 0 1
    outer loop
      vertex 99.6 -12.8 35.2
      vertex 99.6 -10.200000000000001 35.2
      vertex 92 -10.200000000000001 35.2
    endloop
  endfacet
  facet normal -1 0 0
    outer loop
      vertex 99.6 -12.8 35.2
      vertex 99.6 -12.8 40.800000000000004
      vertex 99.6 -10.200000000000001 35.2
    endloop
  endfacet
  facet normal 0 1 0
    outer loop
      vertex 99.6 -12.8 40.800000000000004
      vertex 92 -12.8 35.2
      vertex 92 -12.8 40.800000000000004
    endloop
  endfacet
  facet normal 0 0 -1
    outer loop
      vertex 99.6 -10.200000000000001 40.800000000000004
      vertex 92 -12.8 40.800000000000004
      vertex 92 -10.200000000000001 40.800000000000004
    endloop
  endfacet
  facet normal 0 -1 0
    outer loop
      vertex 99.6 -10.200000000000001 35.2
      vertex 99.6 -10.200000000000001 40.800000000000004
      vertex 92 -10.200000000000001 40.800000000000004
    endloop
  endfacet
  facet normal -1 0 0
    outer loop
      vertex 99.6 -10.200000000000001 35.2
      vertex 99.6 -12.8 40.800000000000004
      vertex 99.6 -10.200000000000001 40.800000000000004
    endloop
  endfacet
  facet normal 0 0 -1
    outer loop
      vertex 99.6 -12.8 40.800000000000004
      vertex 92 -12.8 40.800000000000004
      vertex 99.6 -10.200000000000001 40.800000000000004
    endloop
  endfacet
  facet normal 1 0 0
    outer loop
      vertex 101.3 -8.5 34.800000000000004
      vertex 101.3 -18.5 34.800000000000004
      vertex 101.3 -18.5 33.4
    endloop
  endfacet
  facet normal 0 0 -1
    outer loop
      vertex 101.3 -18.5 34.800000000000004
      vertex 101.3 -8.5 34.800000000000004
      vertex 104.7 -18.5 34.800000000000004
    endloop
  endfacet
  facet normal 1 0 0
    outer loop
      vertex 101.3 -8.5 34.800000000000004
      vertex 101.3 -18.5 33.4
      vertex 101.3 -8.5 33.4
    endloop
  endfacet
  facet normal 0 0 -1
    outer loop
      vertex 101.3 -8.5 34.800000000000004
      vertex 104.7 -8.5 34.800000000000004
      vertex 104.7 -18.5 34.800000000000004
    endloop
  endfacet
  facet normal -1 0 0
    outer loop
      vertex 104.7 -18.5 34.800000000000004
      vertex 104.7 -8.5 33.4
      vertex 104.7 -18.5 33.4
    endloop
  endfacet
  facet normal -1 0 0
    outer loop
      vertex 104.7 -8.5 34.800000000000004
      vertex 104.7 -8.5 33.4
      vertex 104.7 -18.5 34.800000000000004
    endloop
  endfacet
endsolid OpenSCAD_Model
