solid OpenSCAD_Model
  facet normal 0 -1 0
    outer loop
      vertex 97.5 6 32.6
      vertex 99.6 6 34.6
      vertex 99.6 6 41.4
    endloop
  endfacet
  facet normal 0 -1 0
    outer loop
      vertex 97.5 6 32.6
      vertex 100 6 43.1
      vertex 97.5 6 43.1
    endloop
  endfacet
  facet normal -1 0 0
    outer loop
      vertex 97.5 6 32.6
      vertex 97.5 6 43.1
      vertex 97.5 11 43.1
    endloop
  endfacet
  facet normal 0 -1 0
    outer loop
      vertex 97.5 6 32.6
      vertex 108.5 6 32.6
      vertex 99.6 6 34.6
    endloop
  endfacet
  facet normal 0 -1 0
    outer loop
      vertex 97.5 6 32.6
      vertex 99.6 6 41.4
      vertex 100 6 43.1
    endloop
  endfacet
  facet normal 0 -1 0
    outer loop
      vertex 100 6 43.1
      vertex 99.6 6 41.4
      vertex 106.39999999999999 6 41.4
    endloop
  endfacet
  facet normal 0 0 1
    outer loop
      vertex 97.5 6 43.1
      vertex 100 6 43.1
      vertex 100 11 43.1
    endloop
  endfacet
  facet normal -1 0 0
    outer loop
      vertex 97.5 6 32.6
      vertex 97.5 11 43.1
      vertex 97.5 11 32.6
    endloop
  endfacet
  facet normal 0 1 0
    outer loop
      vertex 97.5 11 32.6
      vertex 97.5 11 43.1
      vertex 99.6 11 34.6
    endloop
  endfacet
  facet normal 0 1 0
    outer loop
      vertex 97.5 11 43.1
      vertex 99.6 11 41.4
      vertex 99.6 11 34.6
    endloop
  endfacet
  facet normal 0 0 -1
    outer loop
      vertex 97.5 6 32.6
      vertex 97.5 11 32.6
      vertex 108.5 11 32.6
    endloop
  endfacet
  facet normal 0 1 0
    outer loop
      vertex 97.5 11 32.6
      vertex 99.6 11 34.6
      vertex 106.39999999999999 11 34.6
    endloop
  endfacet
  facet normal 0 0 1
    outer loop
      vertex 97.5 6 43.1
      vertex 100 11 43.1
      vertex 97.5 11 43.1
    endloop
  endfacet
  facet normal 0 1 0
    outer loop
      vertex 97.5 11 43.1
      vertex 100 11 43.1
      vertex 99.6 11 41.4
    endloop
  endfacet
  facet normal 0 1 0
    outer loop
      vertex 100 11 43.1
      vertex 106 11 43.1
      vertex 99.6 11 41.4
    endloop
  endfacet
  facet normal 0 -1 0
    outer loop
      vertex 108.5 6 32.6
      vertex 106.39999999999999 6 34.6
      vertex 99.6 6 34.6
    endloop
  endfacet
  facet normal 0 0 -1
    outer loop
      vertex 97.5 6 32.6
      vertex 108.5 11 32.6
      vertex 108.5 6 32.6
    endloop
  endfacet
  facet normal 0 -1 0
    outer loop
      vertex 108.5 6 32.6
      vertex 108.5 6 43.1
      vertex 106.39999999999999 6 34.6
    endloop
  endfacet
  facet normal 0 -1 0
    outer loop
      vertex 108.5 6 43.1
      vertex 106.39999999999999 6 41.4
      vertex 106.39999999999999 6 34.6
    endloop
  endfacet
  facet normal 1 0 0
    outer loop
      vertex 108.5 6 32.6
      vertex 108.5 11 32.6
      vertex 108.5 6 43.1
    endloop
  endfacet
  facet normal 0 -1 0
    outer loop
      vertex 100 6 43.1
      vertex 106.39999999999999 6 41.4
      vertex 106 6 43.1
    endloop
  endfacet
  facet normal 0 -1 0
    outer loop
      vertex 106 6 43.1
      vertex 106.39999999999999 6 41.4
      vertex 108.5 6 43.1
    endloop
  endfacet
  facet normal 0 0 1
    outer loop
      vertex 106 6 43.1
      vertex 108.5 6 43.1
      vertex 108.5 11 43.1
    endloop
  endfacet
  facet normal 0 1 0
    outer loop
      vertex 97.5 11 32.6
      vertex 106.39999999999999 11 34.6
      vertex 108.5 11 32.6
    endloop
  endfacet
  facet normal 0 1 0
    outer loop
      vertex 108.5 11 32.6
      vertex 106.39999999999999 11 41.4
      vertex 106 11 43.1
    endloop
  endfacet
  facet normal 1 0 0
    outer loop
      vertex 108.5 6 43.1
      vertex 108.5 11 32.6
      vertex 108.5 11 43.1
    endloop
  endfacet
  facet normal 0 1 0
    outer loop
      vertex 108.5 11 32.6
      vertex 106.39999999999999 11 34.6
      vertex 106.39999999999999 11 41.4
    endloop
  endfacet
  facet normal 0 1 0
    outer loop
      vertex 108.5 11 32.6
      vertex 106 11 43.1
      vertex 108.5 11 43.1
    endloop
  endfacet
  facet normal 0 0 1
    outer loop
      vertex 106 6 43.1
      vertex 108.5 11 43.1
      vertex 106 11 43.1
    endloop
  endfacet
  facet normal 0 1 0
    outer loop
      vertex 106 11 43.1
      vertex 106.39999999999999 11 41.4
      vertex 99.6 11 41.4
    endloop
  endfacet
  facet normal 0 -1 0
    outer loop
      vertex 100 6 43.1
      vertex 106 6 43.1
      vertex 100 6 45
    endloop
  endfacet
  facet normal -1 0 0
    outer loop
      vertex 100 6 43.1
      vertex 100 6 45
      vertex 100 11 45
    endloop
  endfacet
  facet normal -1 0 0
    outer loop
      vertex 100 6 43.1
      vertex 100 11 45
      vertex 100 11 43.1
    endloop
  endfacet
  facet normal 0 1 0
    outer loop
      vertex 100 11 43.1
      vertex 100 11 45
      vertex 106 11 45
    endloop
  endfacet
  facet normal 0 -1 0
    outer loop
      vertex 100 6 45
      vertex 106 6 43.1
      vertex 106 6 45
    endloop
  endfacet
  facet normal 1 0 0
    outer loop
      vertex 106 6 43.1
      vertex 106 11 43.1
      vertex 106 6 45
    endloop
  endfacet
  facet normal 1 0 0
    outer loop
      vertex 106 6 45
      vertex 106 11 43.1
      vertex 106 11 45
    endloop
  endfacet
  facet normal 0 1 0
    outer loop
      vertex 100 11 43.1
      vertex 106 11 45
      vertex 106 11 43.1
    endloop
  endfacet
  facet normal -1 0 0
    outer loop
      vertex 97.5 6 45
      vertex 97.5 6 47
      vertex 97.5 11 45
    endloop
  endfacet
  facet normal 0 -1 0
    outer loop
      vertex 97.5 6 45
      vertex 108.5 6 47
      vertex 97.5 6 47
    endloop
  endfacet
  facet normal 0 -1 0
    outer loop
      vertex 97.5 6 45
      vertex 100 6 45
      vertex 108.5 6 47
    endloop
  endfacet
  facet normal 0 0 -1
    outer loop
      vertex 97.5 6 45
      vertex 100 11 45
      vertex 100 6 45
    endloop
  endfacet
  facet normal 0 0 -1
    outer loop
      vertex 97.5 6 45
      vertex 97.5 11 45
      vertex 100 11 45
    endloop
  endfacet
  facet normal -1 0 0
    outer loop
      vertex 97.5 6 47
      vertex 97.5 11 47
      vertex 97.5 11 45
    endloop
  endfacet
  facet normal 0 1 0
    outer loop
      vertex 97.5 11 45
      vertex 97.5 11 47
      vertex 100 11 45
    endloop
  endfacet
  facet normal 0 1 0
    outer loop
      vertex 97.5 11 47
      vertex 106 11 45
      vertex 100 11 45
    endloop
  endfacet
  facet normal 0 -1 0
    outer loop
      vertex 100 6 45
      vertex 106 6 45
      vertex 108.5 6 47
    endloop
  endfacet
  facet normal 0 -1 0
    outer loop
      vertex 106 6 45
      vertex 108.5 6 45
      vertex 108.5 6 47
    endloop
  endfacet
  facet normal 0 0 -1
    outer loop
      vertex 106 6 45
      vertex 108.5 11 45
      vertex 108.5 6 45
    endloop
  endfacet
  facet normal 1 0 0
    outer loop
      vertex 108.5 6 45
      vertex 108.5 11 47
      vertex 108.5 6 47
    endloop
  endfacet
  facet normal 0 0 -1
    outer loop
      vertex 106 6 45
      vertex 106 11 45
      vertex 108.5 11 45
    endloop
  endfacet
  facet normal 0 1 0
    outer loop
      vertex 97.5 11 47
      vertex 108.5 11 45
      vertex 106 11 45
    endloop
  endfacet
  facet normal 0 1 0
    outer loop
      vertex 97.5 11 47
      vertex 108.5 11 47
      vertex 108.5 11 45
    endloop
  endfacet
  facet normal 1 0 0
    outer loop
      vertex 108.5 6 45
      vertex 108.5 11 45
      vertex 108.5 11 47
    endloop
  endfacet
  facet normal 0 0 -1
    outer loop
      vertex 95 6 47
      vertex 95 11 47
      vertex 97.5 6 47
    endloop
  endfacet
  facet normal -1 0 0
    outer loop
      vertex 95 6 47
      vertex 95 6 50
      vertex 95 11 50
    endloop
  endfacet
  facet normal 0 -1 0
    outer loop
      vertex 95 6 47
      vertex 111 6 50
      vertex 95 6 50
    endloop
  endfacet
  facet normal 0 -1 0
    outer loop
      vertex 95 6 47
      vertex 97.5 6 47
      vertex 111 6 50
    endloop
  endfacet
  facet normal 0 0 1
    outer loop
      vertex 95 6 50
      vertex 111 6 50
      vertex 95 11 50
    endloop
  endfacet
  facet normal 0 0 -1
    outer loop
      vertex 97.5 6 47
      vertex 95 11 47
      vertex 97.5 11 47
    endloop
  endfacet
  facet normal -1 0 0
    outer loop
      vertex 95 6 47
      vertex 95 11 50
      vertex 95 11 47
    endloop
  endfacet
  facet normal 0 1 0
    outer loop
      vertex 95 11 47
      vertex 95 11 50
      vertex 97.5 11 47
    endloop
  endfacet
  facet normal 0 1 0
    outer loop
      vertex 95 11 50
      vertex 108.5 11 47
      vertex 97.5 11 47
    endloop
  endfacet
  facet normal 0 -1 0
    outer loop
      vertex 97.5 6 47
      vertex 108.5 6 47
      vertex 111 6 50
    endloop
  endfacet
  facet normal 0 -1 0
    outer loop
      vertex 108.5 6 47
      vertex 111 6 47
      vertex 111 6 50
    endloop
  endfacet
  facet normal 0 0 -1
    outer loop
      vertex 108.5 6 47
      vertex 108.5 11 47
      vertex 111 6 47
    endloop
  endfacet
  facet normal 1 0 0
    outer loop
      vertex 111 6 47
      vertex 111 11 47
      vertex 111 6 50
    endloop
  endfacet
  facet normal 0 0 1
    outer loop
      vertex 95 11 50
      vertex 111 6 50
      vertex 111 11 50
    endloop
  endfacet
  facet normal 0 1 0
    outer loop
      vertex 95 11 50
      vertex 111 11 47
      vertex 108.5 11 47
    endloop
  endfacet
  facet normal 0 1 0
    outer loop
      vertex 95 11 50
      vertex 111 11 50
      vertex 111 11 47
    endloop
  endfacet
  facet normal 0 0 -1
    outer loop
      vertex 111 6 47
      vertex 108.5 11 47
      vertex 111 11 47
    endloop
  endfacet
  facet normal 1 0 0
    outer loop
      vertex 111 6 50
      vertex 111 11 47
      vertex 111 11 50
    endloop
  endfacet
  facet normal 1 0 0
    outer loop
      vertex 99.6 6 41.4
      vertex 99.6 6 34.6
      vertex 99.6 11 34.6
    endloop
  endfacet
  facet normal 0 0 -1
    outer loop
      vertex 106.39999999999999 6 41.4
      vertex 99.6 6 41.4
      vertex 99.6 11 41.4
    endloop
  endfacet
  facet normal 0 0 1
    outer loop
      vertex 99.6 11 34.6
      vertex 99.6 6 34.6
      vertex 106.39999999999999 11 34.6
    endloop
  endfacet
  facet normal 1 0 0
    outer loop
      vertex 99.6 6 41.4
      vertex 99.6 11 34.6
      vertex 99.6 11 41.4
    endloop
  endfacet
  facet normal 0 0 1
    outer loop
      vertex 106.39999999999999 11 34.6
      vertex 99.6 6 34.6
      vertex 106.39999999999999 6 34.6
    endloop
  endfacet
  facet normal -1 0 0
    outer loop
      vertex 106.39999999999999 6 41.4
      vertex 106.39999999999999 11 41.4
      vertex 106.39999999999999 6 34.6
    endloop
  endfacet
  facet normal -1 0 0
    outer loop
      vertex 106.39999999999999 11 41.4
      vertex 106.39999999999999 11 34.6
      vertex 106.39999999999999 6 34.6
    endloop
  endfacet
  facet normal 0 0 -1
    outer loop
      vertex 99.6 11 41.4
      vertex 106.39999999999999 11 41.4
      vertex 106.39999999999999 6 41.4
    endloop
  endfacet
endsolid OpenSCAD_Model
