solid OpenSCAD_Model
  facet normal 0.19509032201613385 0.9807852804032294 0
    outer loop
      vertex 96.71529905038723 36.937481591082026 29.6
      vertex 96.85642118855795 36.90941065248881 27.6
      vertex 96.71529905038723 36.937481591082026 27.6
    endloop
  endfacet
  facet normal 0.3214394653031757 0.9469301294951007 0
    outer loop
      vertex 96.5790482243984 36.98373251423759 29.6
      vertex 96.71529905038723 36.937481591082026 27.6
      vertex 96.5790482243984 36.98373251423759 27.6
    endloop
  endfacet
  facet normal 0.06540312923015723 0.9978589232386026 0
    outer loop
      vertex 96.85642118855795 36.90941065248881 29.6
      vertex 97 36.9 27.6
      vertex 96.85642118855795 36.90941065248881 27.6
    endloop
  endfacet
  facet normal -0.06540312923015723 0.9978589232386026 0
    outer loop
      vertex 97 36.9 29.6
      vertex 97.14357881144205 36.90941065248881 27.6
      vertex 97 36.9 27.6
    endloop
  endfacet
  facet normal -0.19509032201613385 0.9807852804032294 0
    outer loop
      vertex 97.14357881144205 36.90941065248881 29.6
      vertex 97.28470094961277 36.937481591082026 27.6
      vertex 97.14357881144205 36.90941065248881 27.6
    endloop
  endfacet
  facet normal -0.3214394653031757 0.9469301294951007 0
    outer loop
      vertex 97.28470094961277 36.937481591082026 29.6
      vertex 97.4209517756016 36.98373251423759 27.6
      vertex 97.28470094961277 36.937481591082026 27.6
    endloop
  endfacet
  facet normal 0.4422886902189695 0.8968727415327039 0
    outer loop
      vertex 96.45 37.047372055837116 29.6
      vertex 96.5790482243984 36.98373251423759 27.6
      vertex 96.45 37.047372055837116 27.6
    endloop
  endfacet
  facet normal 0.5555702330196156 0.8314696123025362 0
    outer loop
      vertex 96.33036242809041 37.12731132567964 29.6
      vertex 96.45 37.047372055837116 27.6
      vertex 96.33036242809041 37.12731132567964 27.6
    endloop
  endfacet
  facet normal 0.6593458151000651 0.7518398074789806 0
    outer loop
      vertex 96.33036242809041 37.12731132567964 27.6
      vertex 96.2221825406948 37.222182540694796 27.6
      vertex 96.2221825406948 37.222182540694796 29.6
    endloop
  endfacet
  facet normal 0.7518398074789776 0.6593458151000686 0
    outer loop
      vertex 96.12731132567964 37.33036242809041 29.6
      vertex 96.2221825406948 37.222182540694796 27.6
      vertex 96.12731132567964 37.33036242809041 27.6
    endloop
  endfacet
  facet normal 0.8314696123025362 0.5555702330196156 0
    outer loop
      vertex 96.04737205583712 37.45 29.6
      vertex 96.12731132567964 37.33036242809041 27.6
      vertex 96.04737205583712 37.45 27.6
    endloop
  endfacet
  facet normal -0.4422886902189695 0.8968727415327039 0
    outer loop
      vertex 97.4209517756016 36.98373251423759 29.6
      vertex 97.55 37.047372055837116 27.6
      vertex 97.4209517756016 36.98373251423759 27.6
    endloop
  endfacet
  facet normal -0.5555702330196156 0.8314696123025362 0
    outer loop
      vertex 97.55 37.047372055837116 29.6
      vertex 97.66963757190959 37.12731132567964 27.6
      vertex 97.55 37.047372055837116 27.6
    endloop
  endfacet
  facet normal -0.6593458151000651 0.7518398074789806 0
    outer loop
      vertex 97.66963757190959 37.12731132567964 29.6
      vertex 97.7778174593052 37.222182540694796 27.6
      vertex 97.66963757190959 37.12731132567964 27.6
    endloop
  endfacet
  facet normal -0.7518398074789776 0.6593458151000686 0
    outer loop
      vertex 97.7778174593052 37.222182540694796 27.6
      vertex 97.7778174593052 37.222182540694796 29.6
      vertex 97.87268867432036 37.33036242809041 27.6
    endloop
  endfacet
  facet normal -0.8314696123025362 0.5555702330196156 0
    outer loop
      vertex 97.87268867432036 37.33036242809041 29.6
      vertex 97.95262794416288 37.45 27.6
      vertex 97.87268867432036 37.33036242809041 27.6
    endloop
  endfacet
  facet normal -0.8968727415326944 0.44228869021898914 0
    outer loop
      vertex 97.95262794416288 37.45 29.6
      vertex 98.01626748576241 37.5790482243984 27.6
      vertex 97.95262794416288 37.45 27.6
    endloop
  endfacet
  facet normal 0.8968727415326944 0.44228869021898914 0
    outer loop
      vertex 95.98373251423759 37.5790482243984 29.6
      vertex 96.04737205583712 37.45 27.6
      vertex 95.98373251423759 37.5790482243984 27.6
    endloop
  endfacet
  facet normal 0.9469301294950909 0.32143946530320494 0
    outer loop
      vertex 95.93748159108202 37.71529905038723 29.6
      vertex 95.98373251423759 37.5790482243984 27.6
      vertex 95.93748159108202 37.71529905038723 27.6
    endloop
  endfacet
  facet normal 0.9807852804032294 0.19509032201613385 0
    outer loop
      vertex 95.9094106524888 37.856421188557945 29.6
      vertex 95.93748159108202 37.71529905038723 27.6
      vertex 95.9094106524888 37.856421188557945 27.6
    endloop
  endfacet
  facet normal 0.9978589232386091 0.06540312923005889 0
    outer loop
      vertex 95.9 38 29.6
      vertex 95.9094106524888 37.856421188557945 27.6
      vertex 95.9 38 27.6
    endloop
  endfacet
  facet normal -0.9469301294950909 0.32143946530320494 0
    outer loop
      vertex 98.01626748576241 37.5790482243984 29.6
      vertex 98.06251840891798 37.71529905038723 27.6
      vertex 98.01626748576241 37.5790482243984 27.6
    endloop
  endfacet
  facet normal -0.9807852804032294 0.19509032201613385 0
    outer loop
      vertex 98.06251840891798 37.71529905038723 29.6
      vertex 98.0905893475112 37.856421188557945 27.6
      vertex 98.06251840891798 37.71529905038723 27.6
    endloop
  endfacet
  facet normal -0.9978589232386091 0.06540312923005889 0
    outer loop
      vertex 98.0905893475112 37.856421188557945 27.6
      vertex 98.0905893475112 37.856421188557945 29.6
      vertex 98.1 38 27.6
    endloop
  endfacet
  facet normal 0.19509032201613385 0.9807852804032294 0
    outer loop
      vertex 96.85642118855795 36.90941065248881 29.6
      vertex 96.85642118855795 36.90941065248881 27.6
      vertex 96.71529905038723 36.937481591082026 29.6
    endloop
  endfacet
  facet normal 0.3214394653031757 0.9469301294951007 0
    outer loop
      vertex 96.71529905038723 36.937481591082026 29.6
      vertex 96.71529905038723 36.937481591082026 27.6
      vertex 96.5790482243984 36.98373251423759 29.6
    endloop
  endfacet
  facet normal 0.06540312923015723 0.9978589232386026 0
    outer loop
      vertex 97 36.9 29.6
      vertex 97 36.9 27.6
      vertex 96.85642118855795 36.90941065248881 29.6
    endloop
  endfacet
  facet normal -0.06540312923015723 0.9978589232386026 0
    outer loop
      vertex 97.14357881144205 36.90941065248881 29.6
      vertex 97.14357881144205 36.90941065248881 27.6
      vertex 97 36.9 29.6
    endloop
  endfacet
  facet normal -0.19509032201613385 0.9807852804032294 0
    outer loop
      vertex 97.28470094961277 36.937481591082026 29.6
      vertex 97.28470094961277 36.937481591082026 27.6
      vertex 97.14357881144205 36.90941065248881 29.6
    endloop
  endfacet
  facet normal -0.3214394653031757 0.9469301294951007 0
    outer loop
      vertex 97.4209517756016 36.98373251423759 29.6
      vertex 97.4209517756016 36.98373251423759 27.6
      vertex 97.28470094961277 36.937481591082026 29.6
    endloop
  endfacet
  facet normal 0.5555702330196156 0.8314696123025362 0
    outer loop
      vertex 96.45 37.047372055837116 29.6
      vertex 96.45 37.047372055837116 27.6
      vertex 96.33036242809041 37.12731132567964 29.6
    endloop
  endfacet
  facet normal 0.4422886902189695 0.8968727415327039 0
    outer loop
      vertex 96.5790482243984 36.98373251423759 29.6
      vertex 96.5790482243984 36.98373251423759 27.6
      vertex 96.45 37.047372055837116 29.6
    endloop
  endfacet
  facet normal 0.6593458151000651 0.7518398074789806 0
    outer loop
      vertex 96.33036242809041 37.12731132567964 29.6
      vertex 96.33036242809041 37.12731132567964 27.6
      vertex 96.2221825406948 37.222182540694796 29.6
    endloop
  endfacet
  facet normal 0.8314696123025362 0.5555702330196156 0
    outer loop
      vertex 96.04737205583712 37.45 29.6
      vertex 96.12731132567964 37.33036242809041 29.6
      vertex 96.12731132567964 37.33036242809041 27.6
    endloop
  endfacet
  facet normal 0.8968727415326944 0.44228869021898914 0
    outer loop
      vertex 95.98373251423759 37.5790482243984 29.6
      vertex 96.04737205583712 37.45 29.6
      vertex 96.04737205583712 37.45 27.6
    endloop
  endfacet
  facet normal 0.7518398074789776 0.6593458151000686 0
    outer loop
      vertex 96.12731132567964 37.33036242809041 29.6
      vertex 96.2221825406948 37.222182540694796 29.6
      vertex 96.2221825406948 37.222182540694796 27.6
    endloop
  endfacet
  facet normal -0.4422886902189695 0.8968727415327039 0
    outer loop
      vertex 97.55 37.047372055837116 29.6
      vertex 97.55 37.047372055837116 27.6
      vertex 97.4209517756016 36.98373251423759 29.6
    endloop
  endfacet
  facet normal -0.5555702330196156 0.8314696123025362 0
    outer loop
      vertex 97.66963757190959 37.12731132567964 29.6
      vertex 97.66963757190959 37.12731132567964 27.6
      vertex 97.55 37.047372055837116 29.6
    endloop
  endfacet
  facet normal -0.6593458151000651 0.7518398074789806 0
    outer loop
      vertex 97.7778174593052 37.222182540694796 29.6
      vertex 97.7778174593052 37.222182540694796 27.6
      vertex 97.66963757190959 37.12731132567964 29.6
    endloop
  endfacet
  facet normal -0.7518398074789776 0.6593458151000686 0
    outer loop
      vertex 97.7778174593052 37.222182540694796 29.6
      vertex 97.87268867432036 37.33036242809041 29.6
      vertex 97.87268867432036 37.33036242809041 27.6
    endloop
  endfacet
  facet normal -0.8314696123025362 0.5555702330196156 0
    outer loop
      vertex 97.87268867432036 37.33036242809041 29.6
      vertex 97.95262794416288 37.45 29.6
      vertex 97.95262794416288 37.45 27.6
    endloop
  endfacet
  facet normal 0.9469301294950909 0.32143946530320494 0
    outer loop
      vertex 95.93748159108202 37.71529905038723 29.6
      vertex 95.98373251423759 37.5790482243984 29.6
      vertex 95.98373251423759 37.5790482243984 27.6
    endloop
  endfacet
  facet normal 0.9807852804032294 0.19509032201613385 0
    outer loop
      vertex 95.9094106524888 37.856421188557945 29.6
      vertex 95.93748159108202 37.71529905038723 29.6
      vertex 95.93748159108202 37.71529905038723 27.6
    endloop
  endfacet
  facet normal 0.9978589232386091 0.06540312923005889 0
    outer loop
      vertex 95.9 38 29.6
      vertex 95.9094106524888 37.856421188557945 29.6
      vertex 95.9094106524888 37.856421188557945 27.6
    endloop
  endfacet
  facet normal -0.8968727415326944 0.44228869021898914 0
    outer loop
      vertex 97.95262794416288 37.45 29.6
      vertex 98.01626748576241 37.5790482243984 29.6
      vertex 98.01626748576241 37.5790482243984 27.6
    endloop
  endfacet
  facet normal -0.9469301294950909 0.32143946530320494 0
    outer loop
      vertex 98.01626748576241 37.5790482243984 29.6
      vertex 98.06251840891798 37.71529905038723 29.6
      vertex 98.06251840891798 37.71529905038723 27.6
    endloop
  endfacet
  facet normal -0.9807852804032294 0.19509032201613385 0
    outer loop
      vertex 98.06251840891798 37.71529905038723 29.6
      vertex 98.0905893475112 37.856421188557945 29.6
      vertex 98.0905893475112 37.856421188557945 27.6
    endloop
  endfacet
  facet normal -0.9978589232386091 0.06540312923005889 0
    outer loop
      vertex 98.0905893475112 37.856421188557945 29.6
      vertex 98.1 38 29.6
      vertex 98.1 38 27.6
    endloop
  endfacet
  facet normal 0.9978589232386091 -0.06540312923005889 0
    outer loop
      vertex 95.9094106524888 38.143578811442055 29.6
      vertex 95.9 38 27.6
      vertex 95.9094106524888 38.143578811442055 27.6
    endloop
  endfacet
  facet normal 0.9807852804032294 -0.19509032201613385 0
    outer loop
      vertex 95.93748159108202 38.28470094961277 29.6
      vertex 95.9094106524888 38.143578811442055 27.6
      vertex 95.93748159108202 38.28470094961277 27.6
    endloop
  endfacet
  facet normal 0.9469301294950909 -0.32143946530320494 0
    outer loop
      vertex 95.98373251423759 38.4209517756016 29.6
      vertex 95.93748159108202 38.28470094961277 27.6
      vertex 95.98373251423759 38.4209517756016 27.6
    endloop
  endfacet
  facet normal -0.9978589232386091 -0.06540312923005889 0
    outer loop
      vertex 98.1 38 27.6
      vertex 98.1 38 29.6
      vertex 98.0905893475112 38.143578811442055 27.6
    endloop
  endfacet
  facet normal -0.9807852804032294 -0.19509032201613385 0
    outer loop
      vertex 98.0905893475112 38.143578811442055 29.6
      vertex 98.06251840891798 38.28470094961277 27.6
      vertex 98.0905893475112 38.143578811442055 27.6
    endloop
  endfacet
  facet normal -0.9469301294950909 -0.32143946530320494 0
    outer loop
      vertex 98.06251840891798 38.28470094961277 29.6
      vertex 98.01626748576241 38.4209517756016 27.6
      vertex 98.06251840891798 38.28470094961277 27.6
    endloop
  endfacet
  facet normal -0.8968727415326944 -0.44228869021898914 0
    outer loop
      vertex 98.01626748576241 38.4209517756016 29.6
      vertex 97.95262794416288 38.55 27.6
      vertex 98.01626748576241 38.4209517756016 27.6
    endloop
  endfacet
  facet normal 0.8968727415326944 -0.44228869021898914 0
    outer loop
      vertex 96.04737205583712 38.55 29.6
      vertex 95.98373251423759 38.4209517756016 27.6
      vertex 96.04737205583712 38.55 27.6
    endloop
  endfacet
  facet normal 0.8314696123025362 -0.5555702330196156 0
    outer loop
      vertex 96.12731132567964 38.66963757190959 29.6
      vertex 96.04737205583712 38.55 27.6
      vertex 96.12731132567964 38.66963757190959 27.6
    endloop
  endfacet
  facet normal 0.7518398074789776 -0.6593458151000686 0
    outer loop
      vertex 96.2221825406948 38.777817459305204 29.6
      vertex 96.12731132567964 38.66963757190959 27.6
      vertex 96.2221825406948 38.777817459305204 27.6
    endloop
  endfacet
  facet normal 0.6593458151000651 -0.7518398074789806 0
    outer loop
      vertex 96.33036242809041 38.87268867432036 29.6
      vertex 96.2221825406948 38.777817459305204 27.6
      vertex 96.33036242809041 38.87268867432036 27.6
    endloop
  endfacet
  facet normal 0.5555702330196156 -0.8314696123025362 0
    outer loop
      vertex 96.45 38.952627944162884 29.6
      vertex 96.33036242809041 38.87268867432036 27.6
      vertex 96.45 38.952627944162884 27.6
    endloop
  endfacet
  facet normal 0.4422886902189695 -0.8968727415327039 0
    outer loop
      vertex 96.5790482243984 39.01626748576241 29.6
      vertex 96.45 38.952627944162884 27.6
      vertex 96.5790482243984 39.01626748576241 27.6
    endloop
  endfacet
  facet normal -0.8314696123025362 -0.5555702330196156 0
    outer loop
      vertex 97.95262794416288 38.55 29.6
      vertex 97.87268867432036 38.66963757190959 27.6
      vertex 97.95262794416288 38.55 27.6
    endloop
  endfacet
  facet normal -0.7518398074789776 -0.6593458151000686 0
    outer loop
      vertex 97.87268867432036 38.66963757190959 29.6
      vertex 97.7778174593052 38.777817459305204 27.6
      vertex 97.87268867432036 38.66963757190959 27.6
    endloop
  endfacet
  facet normal -0.4422886902189695 -0.8968727415327039 0
    outer loop
      vertex 97.55 38.952627944162884 29.6
      vertex 97.4209517756016 39.01626748576241 27.6
      vertex 97.55 38.952627944162884 27.6
    endloop
  endfacet
  facet normal -0.6593458151000651 -0.7518398074789806 0
    outer loop
      vertex 97.66963757190959 38.87268867432036 27.6
      vertex 97.7778174593052 38.777817459305204 27.6
      vertex 97.7778174593052 38.777817459305204 29.6
    endloop
  endfacet
  facet normal -0.5555702330196156 -0.8314696123025362 0
    outer loop
      vertex 97.66963757190959 38.87268867432036 29.6
      vertex 97.55 38.952627944162884 27.6
      vertex 97.66963757190959 38.87268867432036 27.6
    endloop
  endfacet
  facet normal 0.3214394653031757 -0.9469301294951007 0
    outer loop
      vertex 96.71529905038723 39.062518408917974 29.6
      vertex 96.5790482243984 39.01626748576241 27.6
      vertex 96.71529905038723 39.062518408917974 27.6
    endloop
  endfacet
  facet normal 0.19509032201613385 -0.9807852804032294 0
    outer loop
      vertex 96.85642118855795 39.09058934751119 29.6
      vertex 96.71529905038723 39.062518408917974 27.6
      vertex 96.85642118855795 39.09058934751119 27.6
    endloop
  endfacet
  facet normal 0.06540312923015723 -0.9978589232386026 0
    outer loop
      vertex 97 39.1 29.6
      vertex 96.85642118855795 39.09058934751119 27.6
      vertex 97 39.1 27.6
    endloop
  endfacet
  facet normal -0.06540312923015723 -0.9978589232386026 0
    outer loop
      vertex 97.14357881144205 39.09058934751119 29.6
      vertex 97 39.1 27.6
      vertex 97.14357881144205 39.09058934751119 27.6
    endloop
  endfacet
  facet normal -0.3214394653031757 -0.9469301294951007 0
    outer loop
      vertex 97.4209517756016 39.01626748576241 29.6
      vertex 97.28470094961277 39.062518408917974 27.6
      vertex 97.4209517756016 39.01626748576241 27.6
    endloop
  endfacet
  facet normal -0.19509032201613385 -0.9807852804032294 0
    outer loop
      vertex 97.28470094961277 39.062518408917974 29.6
      vertex 97.14357881144205 39.09058934751119 27.6
      vertex 97.28470094961277 39.062518408917974 27.6
    endloop
  endfacet
  facet normal 0.9978589232386091 -0.06540312923005889 0
    outer loop
      vertex 95.9094106524888 38.143578811442055 29.6
      vertex 95.9 38 29.6
      vertex 95.9 38 27.6
    endloop
  endfacet
  facet normal 0.9807852804032294 -0.19509032201613385 0
    outer loop
      vertex 95.93748159108202 38.28470094961277 29.6
      vertex 95.9094106524888 38.143578811442055 29.6
      vertex 95.9094106524888 38.143578811442055 27.6
    endloop
  endfacet
  facet normal 0.9469301294950909 -0.32143946530320494 0
    outer loop
      vertex 95.98373251423759 38.4209517756016 29.6
      vertex 95.93748159108202 38.28470094961277 29.6
      vertex 95.93748159108202 38.28470094961277 27.6
    endloop
  endfacet
  facet normal 0.8968727415326944 -0.44228869021898914 0
    outer loop
      vertex 96.04737205583712 38.55 29.6
      vertex 95.98373251423759 38.4209517756016 29.6
      vertex 95.98373251423759 38.4209517756016 27.6
    endloop
  endfacet
  facet normal -0.9978589232386091 -0.06540312923005889 0
    outer loop
      vertex 98.1 38 29.6
      vertex 98.0905893475112 38.143578811442055 29.6
      vertex 98.0905893475112 38.143578811442055 27.6
    endloop
  endfacet
  facet normal -0.9807852804032294 -0.19509032201613385 0
    outer loop
      vertex 98.0905893475112 38.143578811442055 29.6
      vertex 98.06251840891798 38.28470094961277 29.6
      vertex 98.06251840891798 38.28470094961277 27.6
    endloop
  endfacet
  facet normal -0.9469301294950909 -0.32143946530320494 0
    outer loop
      vertex 98.06251840891798 38.28470094961277 29.6
      vertex 98.01626748576241 38.4209517756016 29.6
      vertex 98.01626748576241 38.4209517756016 27.6
    endloop
  endfacet
  facet normal 0.8314696123025362 -0.5555702330196156 0
    outer loop
      vertex 96.12731132567964 38.66963757190959 29.6
      vertex 96.04737205583712 38.55 29.6
      vertex 96.04737205583712 38.55 27.6
    endloop
  endfacet
  facet normal 0.7518398074789776 -0.6593458151000686 0
    outer loop
      vertex 96.2221825406948 38.777817459305204 29.6
      vertex 96.12731132567964 38.66963757190959 29.6
      vertex 96.12731132567964 38.66963757190959 27.6
    endloop
  endfacet
  facet normal 0.6593458151000651 -0.7518398074789806 0
    outer loop
      vertex 96.2221825406948 38.777817459305204 29.6
      vertex 96.2221825406948 38.777817459305204 27.6
      vertex 96.33036242809041 38.87268867432036 29.6
    endloop
  endfacet
  facet normal 0.5555702330196156 -0.8314696123025362 0
    outer loop
      vertex 96.33036242809041 38.87268867432036 29.6
      vertex 96.33036242809041 38.87268867432036 27.6
      vertex 96.45 38.952627944162884 29.6
    endloop
  endfacet
  facet normal 0.4422886902189695 -0.8968727415327039 0
    outer loop
      vertex 96.45 38.952627944162884 29.6
      vertex 96.45 38.952627944162884 27.6
      vertex 96.5790482243984 39.01626748576241 29.6
    endloop
  endfacet
  facet normal -0.8968727415326944 -0.44228869021898914 0
    outer loop
      vertex 98.01626748576241 38.4209517756016 29.6
      vertex 97.95262794416288 38.55 29.6
      vertex 97.95262794416288 38.55 27.6
    endloop
  endfacet
  facet normal -0.7518398074789776 -0.6593458151000686 0
    outer loop
      vertex 97.87268867432036 38.66963757190959 29.6
      vertex 97.7778174593052 38.777817459305204 29.6
      vertex 97.7778174593052 38.777817459305204 27.6
    endloop
  endfacet
  facet normal -0.8314696123025362 -0.5555702330196156 0
    outer loop
      vertex 97.95262794416288 38.55 29.6
      vertex 97.87268867432036 38.66963757190959 29.6
      vertex 97.87268867432036 38.66963757190959 27.6
    endloop
  endfacet
  facet normal -0.4422886902189695 -0.8968727415327039 0
    outer loop
      vertex 97.4209517756016 39.01626748576241 29.6
      vertex 97.4209517756016 39.01626748576241 27.6
      vertex 97.55 38.952627944162884 29.6
    endloop
  endfacet
  facet normal -0.6593458151000651 -0.7518398074789806 0
    outer loop
      vertex 97.66963757190959 38.87268867432036 29.6
      vertex 97.66963757190959 38.87268867432036 27.6
      vertex 97.7778174593052 38.777817459305204 29.6
    endloop
  endfacet
  facet normal -0.5555702330196156 -0.8314696123025362 0
    outer loop
      vertex 97.55 38.952627944162884 29.6
      vertex 97.55 38.952627944162884 27.6
      vertex 97.66963757190959 38.87268867432036 29.6
    endloop
  endfacet
  facet normal 0.3214394653031757 -0.9469301294951007 0
    outer loop
      vertex 96.5790482243984 39.01626748576241 29.6
      vertex 96.5790482243984 39.01626748576241 27.6
      vertex 96.71529905038723 39.062518408917974 29.6
    endloop
  endfacet
  facet normal 0.19509032201613385 -0.9807852804032294 0
    outer loop
      vertex 96.71529905038723 39.062518408917974 29.6
      vertex 96.71529905038723 39.062518408917974 27.6
      vertex 96.85642118855795 39.09058934751119 29.6
    endloop
  endfacet
  facet normal 0.06540312923015723 -0.9978589232386026 0
    outer loop
      vertex 96.85642118855795 39.09058934751119 29.6
      vertex 96.85642118855795 39.09058934751119 27.6
      vertex 97 39.1 29.6
    endloop
  endfacet
  facet normal -0.06540312923015723 -0.9978589232386026 0
    outer loop
      vertex 97 39.1 29.6
      vertex 97 39.1 27.6
      vertex 97.14357881144205 39.09058934751119 29.6
    endloop
  endfacet
  facet normal -0.3214394653031757 -0.9469301294951007 0
    outer loop
      vertex 97.28470094961277 39.062518408917974 29.6
      vertex 97.28470094961277 39.062518408917974 27.6
      vertex 97.4209517756016 39.01626748576241 29.6
    endloop
  endfacet
  facet normal -0.19509032201613385 -0.9807852804032294 0
    outer loop
      vertex 97.14357881144205 39.09058934751119 29.6
      vertex 97.14357881144205 39.09058934751119 27.6
      vertex 97.28470094961277 39.062518408917974 29.6
    endloop
  endfacet
  facet normal 0.3214394653031757 0.9469301294951007 0
    outer loop
      vertex 114.5790482243984 36.98373251423759 27.6
      vertex 114.5790482243984 36.98373251423759 29.6
      vertex 114.71529905038723 36.937481591082026 27.6
    endloop
  endfacet
  facet normal 0.19509032201613385 0.9807852804032294 0
    outer loop
      vertex 114.71529905038723 36.937481591082026 27.6
      vertex 114.71529905038723 36.937481591082026 29.6
      vertex 114.85642118855795 36.90941065248881 27.6
    endloop
  endfacet
  facet normal 0.06540312923015723 0.9978589232386026 0
    outer loop
      vertex 114.85642118855795 36.90941065248881 27.6
      vertex 114.85642118855795 36.90941065248881 29.6
      vertex 115 36.9 27.6
    endloop
  endfacet
  facet normal -0.06540312923015723 0.9978589232386026 0
    outer loop
      vertex 115 36.9 27.6
      vertex 115 36.9 29.6
      vertex 115.14357881144205 36.90941065248881 27.6
    endloop
  endfacet
  facet normal -0.19509032201613385 0.9807852804032294 0
    outer loop
      vertex 115.14357881144205 36.90941065248881 27.6
      vertex 115.14357881144205 36.90941065248881 29.6
      vertex 115.28470094961277 36.937481591082026 27.6
    endloop
  endfacet
  facet normal -0.3214394653031757 0.9469301294951007 0
    outer loop
      vertex 115.28470094961277 36.937481591082026 27.6
      vertex 115.28470094961277 36.937481591082026 29.6
      vertex 115.4209517756016 36.98373251423759 27.6
    endloop
  endfacet
  facet normal 0.6593458151000651 0.7518398074789806 0
    outer loop
      vertex 114.2221825406948 37.222182540694796 27.6
      vertex 114.2221825406948 37.222182540694796 29.6
      vertex 114.33036242809041 37.12731132567964 27.6
    endloop
  endfacet
  facet normal 0.7518398074789776 0.6593458151000686 0
    outer loop
      vertex 114.2221825406948 37.222182540694796 27.6
      vertex 114.12731132567964 37.33036242809041 27.6
      vertex 114.12731132567964 37.33036242809041 29.6
    endloop
  endfacet
  facet normal 0.8314696123025362 0.5555702330196156 0
    outer loop
      vertex 114.12731132567964 37.33036242809041 27.6
      vertex 114.04737205583712 37.45 27.6
      vertex 114.04737205583712 37.45 29.6
    endloop
  endfacet
  facet normal 0.8968727415326944 0.44228869021898914 0
    outer loop
      vertex 114.04737205583712 37.45 27.6
      vertex 113.98373251423759 37.5790482243984 27.6
      vertex 113.98373251423759 37.5790482243984 29.6
    endloop
  endfacet
  facet normal 0.9469301294950909 0.32143946530320494 0
    outer loop
      vertex 113.98373251423759 37.5790482243984 27.6
      vertex 113.93748159108202 37.71529905038723 27.6
      vertex 113.93748159108202 37.71529905038723 29.6
    endloop
  endfacet
  facet normal 0.9807852804032294 0.19509032201613385 0
    outer loop
      vertex 113.93748159108202 37.71529905038723 27.6
      vertex 113.9094106524888 37.856421188557945 27.6
      vertex 113.9094106524888 37.856421188557945 29.6
    endloop
  endfacet
  facet normal 0.9978589232386091 0.06540312923005889 0
    outer loop
      vertex 113.9094106524888 37.856421188557945 27.6
      vertex 113.9 38 27.6
      vertex 113.9 38 29.6
    endloop
  endfacet
  facet normal 0.4422886902189695 0.8968727415327039 0
    outer loop
      vertex 114.45 37.047372055837116 27.6
      vertex 114.45 37.047372055837116 29.6
      vertex 114.5790482243984 36.98373251423759 27.6
    endloop
  endfacet
  facet normal 0.5555702330196156 0.8314696123025362 0
    outer loop
      vertex 114.33036242809041 37.12731132567964 27.6
      vertex 114.33036242809041 37.12731132567964 29.6
      vertex 114.45 37.047372055837116 27.6
    endloop
  endfacet
  facet normal -0.4422886902189695 0.8968727415327039 0
    outer loop
      vertex 115.4209517756016 36.98373251423759 27.6
      vertex 115.4209517756016 36.98373251423759 29.6
      vertex 115.55 37.047372055837116 27.6
    endloop
  endfacet
  facet normal -0.5555702330196156 0.8314696123025362 0
    outer loop
      vertex 115.55 37.047372055837116 27.6
      vertex 115.55 37.047372055837116 29.6
      vertex 115.66963757190959 37.12731132567964 27.6
    endloop
  endfacet
  facet normal -0.6593458151000651 0.7518398074789806 0
    outer loop
      vertex 115.66963757190959 37.12731132567964 27.6
      vertex 115.66963757190959 37.12731132567964 29.6
      vertex 115.7778174593052 37.222182540694796 27.6
    endloop
  endfacet
  facet normal -0.7518398074789776 0.6593458151000686 0
    outer loop
      vertex 115.7778174593052 37.222182540694796 27.6
      vertex 115.7778174593052 37.222182540694796 29.6
      vertex 115.87268867432036 37.33036242809041 27.6
    endloop
  endfacet
  facet normal -0.8314696123025362 0.5555702330196156 0
    outer loop
      vertex 115.95262794416288 37.45 27.6
      vertex 115.87268867432036 37.33036242809041 27.6
      vertex 115.87268867432036 37.33036242809041 29.6
    endloop
  endfacet
  facet normal -0.8968727415326944 0.44228869021898914 0
    outer loop
      vertex 116.01626748576241 37.5790482243984 27.6
      vertex 115.95262794416288 37.45 27.6
      vertex 115.95262794416288 37.45 29.6
    endloop
  endfacet
  facet normal -0.9469301294950909 0.32143946530320494 0
    outer loop
      vertex 116.06251840891798 37.71529905038723 27.6
      vertex 116.01626748576241 37.5790482243984 27.6
      vertex 116.01626748576241 37.5790482243984 29.6
    endloop
  endfacet
  facet normal -0.9807852804032294 0.19509032201613385 0
    outer loop
      vertex 116.0905893475112 37.856421188557945 27.6
      vertex 116.06251840891798 37.71529905038723 27.6
      vertex 116.06251840891798 37.71529905038723 29.6
    endloop
  endfacet
  facet normal -0.9978589232386091 0.06540312923005889 0
    outer loop
      vertex 116.0905893475112 37.856421188557945 27.6
      vertex 116.0905893475112 37.856421188557945 29.6
      vertex 116.1 38 27.6
    endloop
  endfacet
  facet normal 0.19509032201613385 0.9807852804032294 0
    outer loop
      vertex 114.85642118855795 36.90941065248881 27.6
      vertex 114.71529905038723 36.937481591082026 29.6
      vertex 114.85642118855795 36.90941065248881 29.6
    endloop
  endfacet
  facet normal 0.06540312923015723 0.9978589232386026 0
    outer loop
      vertex 115 36.9 27.6
      vertex 114.85642118855795 36.90941065248881 29.6
      vertex 115 36.9 29.6
    endloop
  endfacet
  facet normal 0.3214394653031757 0.9469301294951007 0
    outer loop
      vertex 114.71529905038723 36.937481591082026 27.6
      vertex 114.5790482243984 36.98373251423759 29.6
      vertex 114.71529905038723 36.937481591082026 29.6
    endloop
  endfacet
  facet normal -0.06540312923015723 0.9978589232386026 0
    outer loop
      vertex 115.14357881144205 36.90941065248881 27.6
      vertex 115 36.9 29.6
      vertex 115.14357881144205 36.90941065248881 29.6
    endloop
  endfacet
  facet normal -0.19509032201613385 0.9807852804032294 0
    outer loop
      vertex 115.28470094961277 36.937481591082026 27.6
      vertex 115.14357881144205 36.90941065248881 29.6
      vertex 115.28470094961277 36.937481591082026 29.6
    endloop
  endfacet
  facet normal -0.3214394653031757 0.9469301294951007 0
    outer loop
      vertex 115.4209517756016 36.98373251423759 27.6
      vertex 115.28470094961277 36.937481591082026 29.6
      vertex 115.4209517756016 36.98373251423759 29.6
    endloop
  endfacet
  facet normal 0.6593458151000651 0.7518398074789806 0
    outer loop
      vertex 114.33036242809041 37.12731132567964 27.6
      vertex 114.2221825406948 37.222182540694796 29.6
      vertex 114.33036242809041 37.12731132567964 29.6
    endloop
  endfacet
  facet normal 0.7518398074789776 0.6593458151000686 0
    outer loop
      vertex 114.2221825406948 37.222182540694796 27.6
      vertex 114.12731132567964 37.33036242809041 29.6
      vertex 114.2221825406948 37.222182540694796 29.6
    endloop
  endfacet
  facet normal 0.8314696123025362 0.5555702330196156 0
    outer loop
      vertex 114.12731132567964 37.33036242809041 27.6
      vertex 114.04737205583712 37.45 29.6
      vertex 114.12731132567964 37.33036242809041 29.6
    endloop
  endfacet
  facet normal 0.8968727415326944 0.44228869021898914 0
    outer loop
      vertex 114.04737205583712 37.45 27.6
      vertex 113.98373251423759 37.5790482243984 29.6
      vertex 114.04737205583712 37.45 29.6
    endloop
  endfacet
  facet normal 0.9469301294950909 0.32143946530320494 0
    outer loop
      vertex 113.98373251423759 37.5790482243984 27.6
      vertex 113.93748159108202 37.71529905038723 29.6
      vertex 113.98373251423759 37.5790482243984 29.6
    endloop
  endfacet
  facet normal 0.9807852804032294 0.19509032201613385 0
    outer loop
      vertex 113.93748159108202 37.71529905038723 27.6
      vertex 113.9094106524888 37.856421188557945 29.6
      vertex 113.93748159108202 37.71529905038723 29.6
    endloop
  endfacet
  facet normal 0.9978589232386091 0.06540312923005889 0
    outer loop
      vertex 113.9094106524888 37.856421188557945 27.6
      vertex 113.9 38 29.6
      vertex 113.9094106524888 37.856421188557945 29.6
    endloop
  endfacet
  facet normal 0.4422886902189695 0.8968727415327039 0
    outer loop
      vertex 114.5790482243984 36.98373251423759 27.6
      vertex 114.45 37.047372055837116 29.6
      vertex 114.5790482243984 36.98373251423759 29.6
    endloop
  endfacet
  facet normal 0.5555702330196156 0.8314696123025362 0
    outer loop
      vertex 114.45 37.047372055837116 27.6
      vertex 114.33036242809041 37.12731132567964 29.6
      vertex 114.45 37.047372055837116 29.6
    endloop
  endfacet
  facet normal -0.4422886902189695 0.8968727415327039 0
    outer loop
      vertex 115.55 37.047372055837116 27.6
      vertex 115.4209517756016 36.98373251423759 29.6
      vertex 115.55 37.047372055837116 29.6
    endloop
  endfacet
  facet normal -0.5555702330196156 0.8314696123025362 0
    outer loop
      vertex 115.66963757190959 37.12731132567964 27.6
      vertex 115.55 37.047372055837116 29.6
      vertex 115.66963757190959 37.12731132567964 29.6
    endloop
  endfacet
  facet normal -0.6593458151000651 0.7518398074789806 0
    outer loop
      vertex 115.7778174593052 37.222182540694796 27.6
      vertex 115.66963757190959 37.12731132567964 29.6
      vertex 115.7778174593052 37.222182540694796 29.6
    endloop
  endfacet
  facet normal -0.7518398074789776 0.6593458151000686 0
    outer loop
      vertex 115.87268867432036 37.33036242809041 27.6
      vertex 115.7778174593052 37.222182540694796 29.6
      vertex 115.87268867432036 37.33036242809041 29.6
    endloop
  endfacet
  facet normal -0.8314696123025362 0.5555702330196156 0
    outer loop
      vertex 115.95262794416288 37.45 27.6
      vertex 115.87268867432036 37.33036242809041 29.6
      vertex 115.95262794416288 37.45 29.6
    endloop
  endfacet
  facet normal -0.8968727415326944 0.44228869021898914 0
    outer loop
      vertex 116.01626748576241 37.5790482243984 27.6
      vertex 115.95262794416288 37.45 29.6
      vertex 116.01626748576241 37.5790482243984 29.6
    endloop
  endfacet
  facet normal -0.9469301294950909 0.32143946530320494 0
    outer loop
      vertex 116.06251840891798 37.71529905038723 27.6
      vertex 116.01626748576241 37.5790482243984 29.6
      vertex 116.06251840891798 37.71529905038723 29.6
    endloop
  endfacet
  facet normal -0.9807852804032294 0.19509032201613385 0
    outer loop
      vertex 116.0905893475112 37.856421188557945 27.6
      vertex 116.06251840891798 37.71529905038723 29.6
      vertex 116.0905893475112 37.856421188557945 29.6
    endloop
  endfacet
  facet normal -0.9978589232386091 0.06540312923005889 0
    outer loop
      vertex 116.1 38 27.6
      vertex 116.0905893475112 37.856421188557945 29.6
      vertex 116.1 38 29.6
    endloop
  endfacet
  facet normal 0.9978589232386091 -0.06540312923005889 0
    outer loop
      vertex 113.9 38 27.6
      vertex 113.9094106524888 38.143578811442055 27.6
      vertex 113.9094106524888 38.143578811442055 29.6
    endloop
  endfacet
  facet normal 0.9807852804032294 -0.19509032201613385 0
    outer loop
      vertex 113.9094106524888 38.143578811442055 27.6
      vertex 113.93748159108202 38.28470094961277 27.6
      vertex 113.93748159108202 38.28470094961277 29.6
    endloop
  endfacet
  facet normal 0.9469301294950909 -0.32143946530320494 0
    outer loop
      vertex 113.93748159108202 38.28470094961277 27.6
      vertex 113.98373251423759 38.4209517756016 27.6
      vertex 113.98373251423759 38.4209517756016 29.6
    endloop
  endfacet
  facet normal 0.8968727415326944 -0.44228869021898914 0
    outer loop
      vertex 113.98373251423759 38.4209517756016 27.6
      vertex 114.04737205583712 38.55 27.6
      vertex 114.04737205583712 38.55 29.6
    endloop
  endfacet
  facet normal 0.8314696123025362 -0.5555702330196156 0
    outer loop
      vertex 114.04737205583712 38.55 27.6
      vertex 114.12731132567964 38.66963757190959 27.6
      vertex 114.12731132567964 38.66963757190959 29.6
    endloop
  endfacet
  facet normal 0.7518398074789776 -0.6593458151000686 0
    outer loop
      vertex 114.12731132567964 38.66963757190959 27.6
      vertex 114.2221825406948 38.777817459305204 27.6
      vertex 114.2221825406948 38.777817459305204 29.6
    endloop
  endfacet
  facet normal 0.6593458151000651 -0.7518398074789806 0
    outer loop
      vertex 114.33036242809041 38.87268867432036 27.6
      vertex 114.33036242809041 38.87268867432036 29.6
      vertex 114.2221825406948 38.777817459305204 27.6
    endloop
  endfacet
  facet normal -0.9978589232386091 -0.06540312923005889 0
    outer loop
      vertex 116.1 38 27.6
      vertex 116.1 38 29.6
      vertex 116.0905893475112 38.143578811442055 27.6
    endloop
  endfacet
  facet normal -0.9807852804032294 -0.19509032201613385 0
    outer loop
      vertex 116.06251840891798 38.28470094961277 27.6
      vertex 116.0905893475112 38.143578811442055 27.6
      vertex 116.0905893475112 38.143578811442055 29.6
    endloop
  endfacet
  facet normal -0.9469301294950909 -0.32143946530320494 0
    outer loop
      vertex 116.01626748576241 38.4209517756016 27.6
      vertex 116.06251840891798 38.28470094961277 27.6
      vertex 116.06251840891798 38.28470094961277 29.6
    endloop
  endfacet
  facet normal -0.8968727415326944 -0.44228869021898914 0
    outer loop
      vertex 115.95262794416288 38.55 27.6
      vertex 116.01626748576241 38.4209517756016 27.6
      vertex 116.01626748576241 38.4209517756016 29.6
    endloop
  endfacet
  facet normal 0.5555702330196156 -0.8314696123025362 0
    outer loop
      vertex 114.45 38.952627944162884 27.6
      vertex 114.45 38.952627944162884 29.6
      vertex 114.33036242809041 38.87268867432036 27.6
    endloop
  endfacet
  facet normal 0.4422886902189695 -0.8968727415327039 0
    outer loop
      vertex 114.5790482243984 39.01626748576241 27.6
      vertex 114.5790482243984 39.01626748576241 29.6
      vertex 114.45 38.952627944162884 27.6
    endloop
  endfacet
  facet normal -0.5555702330196156 -0.8314696123025362 0
    outer loop
      vertex 115.66963757190959 38.87268867432036 27.6
      vertex 115.66963757190959 38.87268867432036 29.6
      vertex 115.55 38.952627944162884 27.6
    endloop
  endfacet
  facet normal -0.4422886902189695 -0.8968727415327039 0
    outer loop
      vertex 115.55 38.952627944162884 27.6
      vertex 115.55 38.952627944162884 29.6
      vertex 115.4209517756016 39.01626748576241 27.6
    endloop
  endfacet
  facet normal -0.8314696123025362 -0.5555702330196156 0
    outer loop
      vertex 115.87268867432036 38.66963757190959 27.6
      vertex 115.95262794416288 38.55 27.6
      vertex 115.95262794416288 38.55 29.6
    endloop
  endfacet
  facet normal -0.7518398074789776 -0.6593458151000686 0
    outer loop
      vertex 115.7778174593052 38.777817459305204 27.6
      vertex 115.87268867432036 38.66963757190959 27.6
      vertex 115.87268867432036 38.66963757190959 29.6
    endloop
  endfacet
  facet normal -0.6593458151000651 -0.7518398074789806 0
    outer loop
      vertex 115.7778174593052 38.777817459305204 27.6
      vertex 115.7778174593052 38.777817459305204 29.6
      vertex 115.66963757190959 38.87268867432036 27.6
    endloop
  endfacet
  facet normal 0.3214394653031757 -0.9469301294951007 0
    outer loop
      vertex 114.71529905038723 39.062518408917974 27.6
      vertex 114.71529905038723 39.062518408917974 29.6
      vertex 114.5790482243984 39.01626748576241 27.6
    endloop
  endfacet
  facet normal 0.19509032201613385 -0.9807852804032294 0
    outer loop
      vertex 114.85642118855795 39.09058934751119 27.6
      vertex 114.85642118855795 39.09058934751119 29.6
      vertex 114.71529905038723 39.062518408917974 27.6
    endloop
  endfacet
  facet normal 0.06540312923015723 -0.9978589232386026 0
    outer loop
      vertex 115 39.1 27.6
      vertex 115 39.1 29.6
      vertex 114.85642118855795 39.09058934751119 27.6
    endloop
  endfacet
  facet normal -0.06540312923015723 -0.9978589232386026 0
    outer loop
      vertex 115.14357881144205 39.09058934751119 27.6
      vertex 115.14357881144205 39.09058934751119 29.6
      vertex 115 39.1 27.6
    endloop
  endfacet
  facet normal -0.19509032201613385 -0.9807852804032294 0
    outer loop
      vertex 115.28470094961277 39.062518408917974 27.6
      vertex 115.28470094961277 39.062518408917974 29.6
      vertex 115.14357881144205 39.09058934751119 27.6
    endloop
  endfacet
  facet normal -0.3214394653031757 -0.9469301294951007 0
    outer loop
      vertex 115.4209517756016 39.01626748576241 27.6
      vertex 115.4209517756016 39.01626748576241 29.6
      vertex 115.28470094961277 39.062518408917974 27.6
    endloop
  endfacet
  facet normal 0.9978589232386091 -0.06540312923005889 0
    outer loop
      vertex 113.9 38 27.6
      vertex 113.9094106524888 38.143578811442055 29.6
      vertex 113.9 38 29.6
    endloop
  endfacet
  facet normal 0.9807852804032294 -0.19509032201613385 0
    outer loop
      vertex 113.9094106524888 38.143578811442055 27.6
      vertex 113.93748159108202 38.28470094961277 29.6
      vertex 113.9094106524888 38.143578811442055 29.6
    endloop
  endfacet
  facet normal 0.9469301294950909 -0.32143946530320494 0
    outer loop
      vertex 113.93748159108202 38.28470094961277 27.6
      vertex 113.98373251423759 38.4209517756016 29.6
      vertex 113.93748159108202 38.28470094961277 29.6
    endloop
  endfacet
  facet normal 0.8968727415326944 -0.44228869021898914 0
    outer loop
      vertex 113.98373251423759 38.4209517756016 27.6
      vertex 114.04737205583712 38.55 29.6
      vertex 113.98373251423759 38.4209517756016 29.6
    endloop
  endfacet
  facet normal 0.8314696123025362 -0.5555702330196156 0
    outer loop
      vertex 114.04737205583712 38.55 27.6
      vertex 114.12731132567964 38.66963757190959 29.6
      vertex 114.04737205583712 38.55 29.6
    endloop
  endfacet
  facet normal 0.7518398074789776 -0.6593458151000686 0
    outer loop
      vertex 114.12731132567964 38.66963757190959 27.6
      vertex 114.2221825406948 38.777817459305204 29.6
      vertex 114.12731132567964 38.66963757190959 29.6
    endloop
  endfacet
  facet normal 0.6593458151000651 -0.7518398074789806 0
    outer loop
      vertex 114.2221825406948 38.777817459305204 27.6
      vertex 114.33036242809041 38.87268867432036 29.6
      vertex 114.2221825406948 38.777817459305204 29.6
    endloop
  endfacet
  facet normal -0.9978589232386091 -0.06540312923005889 0
    outer loop
      vertex 116.0905893475112 38.143578811442055 27.6
      vertex 116.1 38 29.6
      vertex 116.0905893475112 38.143578811442055 29.6
    endloop
  endfacet
  facet normal -0.9807852804032294 -0.19509032201613385 0
    outer loop
      vertex 116.06251840891798 38.28470094961277 27.6
      vertex 116.0905893475112 38.143578811442055 29.6
      vertex 116.06251840891798 38.28470094961277 29.6
    endloop
  endfacet
  facet normal -0.9469301294950909 -0.32143946530320494 0
    outer loop
      vertex 116.01626748576241 38.4209517756016 27.6
      vertex 116.06251840891798 38.28470094961277 29.6
      vertex 116.01626748576241 38.4209517756016 29.6
    endloop
  endfacet
  facet normal 0.5555702330196156 -0.8314696123025362 0
    outer loop
      vertex 114.33036242809041 38.87268867432036 27.6
      vertex 114.45 38.952627944162884 29.6
      vertex 114.33036242809041 38.87268867432036 29.6
    endloop
  endfacet
  facet normal 0.4422886902189695 -0.8968727415327039 0
    outer loop
      vertex 114.45 38.952627944162884 27.6
      vertex 114.5790482243984 39.01626748576241 29.6
      vertex 114.45 38.952627944162884 29.6
    endloop
  endfacet
  facet normal -0.5555702330196156 -0.8314696123025362 0
    outer loop
      vertex 115.55 38.952627944162884 27.6
      vertex 115.66963757190959 38.87268867432036 29.6
      vertex 115.55 38.952627944162884 29.6
    endloop
  endfacet
  facet normal -0.4422886902189695 -0.8968727415327039 0
    outer loop
      vertex 115.4209517756016 39.01626748576241 27.6
      vertex 115.55 38.952627944162884 29.6
      vertex 115.4209517756016 39.01626748576241 29.6
    endloop
  endfacet
  facet normal -0.8968727415326944 -0.44228869021898914 0
    outer loop
      vertex 115.95262794416288 38.55 27.6
      vertex 116.01626748576241 38.4209517756016 29.6
      vertex 115.95262794416288 38.55 29.6
    endloop
  endfacet
  facet normal -0.8314696123025362 -0.5555702330196156 0
    outer loop
      vertex 115.87268867432036 38.66963757190959 27.6
      vertex 115.95262794416288 38.55 29.6
      vertex 115.87268867432036 38.66963757190959 29.6
    endloop
  endfacet
  facet normal -0.7518398074789776 -0.6593458151000686 0
    outer loop
      vertex 115.7778174593052 38.777817459305204 27.6
      vertex 115.87268867432036 38.66963757190959 29.6
      vertex 115.7778174593052 38.777817459305204 29.6
    endloop
  endfacet
  facet normal -0.6593458151000651 -0.7518398074789806 0
    outer loop
      vertex 115.66963757190959 38.87268867432036 27.6
      vertex 115.7778174593052 38.777817459305204 29.6
      vertex 115.66963757190959 38.87268867432036 29.6
    endloop
  endfacet
  facet normal 0.3214394653031757 -0.9469301294951007 0
    outer loop
      vertex 114.5790482243984 39.01626748576241 27.6
      vertex 114.71529905038723 39.062518408917974 29.6
      vertex 114.5790482243984 39.01626748576241 29.6
    endloop
  endfacet
  facet normal 0.19509032201613385 -0.9807852804032294 0
    outer loop
      vertex 114.71529905038723 39.062518408917974 27.6
      vertex 114.85642118855795 39.09058934751119 29.6
      vertex 114.71529905038723 39.062518408917974 29.6
    endloop
  endfacet
  facet normal 0.06540312923015723 -0.9978589232386026 0
    outer loop
      vertex 114.85642118855795 39.09058934751119 27.6
      vertex 115 39.1 29.6
      vertex 114.85642118855795 39.09058934751119 29.6
    endloop
  endfacet
  facet normal -0.06540312923015723 -0.9978589232386026 0
    outer loop
      vertex 115 39.1 27.6
      vertex 115.14357881144205 39.09058934751119 29.6
      vertex 115 39.1 29.6
    endloop
  endfacet
  facet normal -0.19509032201613385 -0.9807852804032294 0
    outer loop
      vertex 115.14357881144205 39.09058934751119 27.6
      vertex 115.28470094961277 39.062518408917974 29.6
      vertex 115.14357881144205 39.09058934751119 29.6
    endloop
  endfacet
  facet normal -0.3214394653031757 -0.9469301294951007 0
    outer loop
      vertex 115.28470094961277 39.062518408917974 27.6
      vertex 115.4209517756016 39.01626748576241 29.6
      vertex 115.28470094961277 39.062518408917974 29.6
    endloop
  endfacet
  facet normal 0 0 -1
    outer loop
      vertex 95.5 36 27.6
      vertex 96.33036242809041 37.12731132567964 27.6
      vertex 96.45 37.047372055837116 27.6
    endloop
  endfacet
  facet normal 0 0 -1
    outer loop
      vertex 95.5 36 27.6
      vertex 96.71529905038723 36.937481591082026 27.6
      vertex 96.85642118855795 36.90941065248881 27.6
    endloop
  endfacet
  facet normal 0 0 -1
    outer loop
      vertex 95.5 36 27.6
      vertex 96.85642118855795 36.90941065248881 27.6
      vertex 97 36.9 27.6
    endloop
  endfacet
  facet normal 0 0 -1
    outer loop
      vertex 95.5 36 27.6
      vertex 97 36.9 27.6
      vertex 97.14357881144205 36.90941065248881 27.6
    endloop
  endfacet
  facet normal 0 0 -1
    outer loop
      vertex 95.5 36 27.6
      vertex 96.5790482243984 36.98373251423759 27.6
      vertex 96.71529905038723 36.937481591082026 27.6
    endloop
  endfacet
  facet normal 0 0 -1
    outer loop
      vertex 95.5 36 27.6
      vertex 96.45 37.047372055837116 27.6
      vertex 96.5790482243984 36.98373251423759 27.6
    endloop
  endfacet
  facet normal 0 0 -1
    outer loop
      vertex 95.5 36 27.6
      vertex 96.2221825406948 37.222182540694796 27.6
      vertex 96.33036242809041 37.12731132567964 27.6
    endloop
  endfacet
  facet normal 0 0 -1
    outer loop
      vertex 95.5 36 27.6
      vertex 96.12731132567964 37.33036242809041 27.6
      vertex 96.2221825406948 37.222182540694796 27.6
    endloop
  endfacet
  facet normal 0 0 -1
    outer loop
      vertex 95.5 36 27.6
      vertex 96.04737205583712 37.45 27.6
      vertex 96.12731132567964 37.33036242809041 27.6
    endloop
  endfacet
  facet normal 0 0 -1
    outer loop
      vertex 95.5 36 27.6
      vertex 95.93748159108202 37.71529905038723 27.6
      vertex 95.98373251423759 37.5790482243984 27.6
    endloop
  endfacet
  facet normal 0 0 -1
    outer loop
      vertex 95.5 36 27.6
      vertex 95.98373251423759 37.5790482243984 27.6
      vertex 96.04737205583712 37.45 27.6
    endloop
  endfacet
  facet normal 0 0 -1
    outer loop
      vertex 95.5 36 27.6
      vertex 95.9094106524888 37.856421188557945 27.6
      vertex 95.93748159108202 37.71529905038723 27.6
    endloop
  endfacet
  facet normal 0 0 -1
    outer loop
      vertex 95.5 36 27.6
      vertex 95.9 38 27.6
      vertex 95.9094106524888 37.856421188557945 27.6
    endloop
  endfacet
  facet normal 0 0 -1
    outer loop
      vertex 95.5 36 27.6
      vertex 97.14357881144205 36.90941065248881 27.6
      vertex 117 40 27.6
    endloop
  endfacet
  facet normal 0 0 -1
    outer loop
      vertex 117 40 27.6
      vertex 97.14357881144205 36.90941065248881 27.6
      vertex 97.28470094961277 36.937481591082026 27.6
    endloop
  endfacet
  facet normal 0 0 -1
    outer loop
      vertex 117 40 27.6
      vertex 97.28470094961277 36.937481591082026 27.6
      vertex 97.4209517756016 36.98373251423759 27.6
    endloop
  endfacet
  facet normal 0 0 1
    outer loop
      vertex 95.5 36 29.6
      vertex 96.45 37.047372055837116 29.6
      vertex 96.33036242809041 37.12731132567964 29.6
    endloop
  endfacet
  facet normal 0 0 1
    outer loop
      vertex 95.5 36 29.6
      vertex 96.85642118855795 36.90941065248881 29.6
      vertex 96.71529905038723 36.937481591082026 29.6
    endloop
  endfacet
  facet normal 0 0 1
    outer loop
      vertex 95.5 36 29.6
      vertex 97 36.9 29.6
      vertex 96.85642118855795 36.90941065248881 29.6
    endloop
  endfacet
  facet normal 0 0 1
    outer loop
      vertex 95.5 36 29.6
      vertex 97.14357881144205 36.90941065248881 29.6
      vertex 97 36.9 29.6
    endloop
  endfacet
  facet normal 0 0 1
    outer loop
      vertex 95.5 36 29.6
      vertex 97.28470094961277 36.937481591082026 29.6
      vertex 97.14357881144205 36.90941065248881 29.6
    endloop
  endfacet
  facet normal 0 0 1
    outer loop
      vertex 95.5 36 29.6
      vertex 96.71529905038723 36.937481591082026 29.6
      vertex 96.5790482243984 36.98373251423759 29.6
    endloop
  endfacet
  facet normal 0 0 1
    outer loop
      vertex 95.5 36 29.6
      vertex 96.5790482243984 36.98373251423759 29.6
      vertex 96.45 37.047372055837116 29.6
    endloop
  endfacet
  facet normal 0 0 1
    outer loop
      vertex 95.5 36 29.6
      vertex 97.4209517756016 36.98373251423759 29.6
      vertex 97.28470094961277 36.937481591082026 29.6
    endloop
  endfacet
  facet normal 0 0 1
    outer loop
      vertex 95.5 36 29.6
      vertex 97.55 37.047372055837116 29.6
      vertex 97.4209517756016 36.98373251423759 29.6
    endloop
  endfacet
  facet normal 0 0 1
    outer loop
      vertex 95.5 36 29.6
      vertex 96.33036242809041 37.12731132567964 29.6
      vertex 96.2221825406948 37.222182540694796 29.6
    endloop
  endfacet
  facet normal 0 0 1
    outer loop
      vertex 95.5 36 29.6
      vertex 96.2221825406948 37.222182540694796 29.6
      vertex 96.12731132567964 37.33036242809041 29.6
    endloop
  endfacet
  facet normal 0 0 1
    outer loop
      vertex 95.5 36 29.6
      vertex 96.12731132567964 37.33036242809041 29.6
      vertex 96.04737205583712 37.45 29.6
    endloop
  endfacet
  facet normal -1 0 0
    outer loop
      vertex 95.5 36 27.6
      vertex 95.5 36 29.6
      vertex 95.5 40 29.6
    endloop
  endfacet
  facet normal 0 0 1
    outer loop
      vertex 95.5 36 29.6
      vertex 95.98373251423759 37.5790482243984 29.6
      vertex 95.93748159108202 37.71529905038723 29.6
    endloop
  endfacet
  facet normal 0 0 1
    outer loop
      vertex 95.5 36 29.6
      vertex 96.04737205583712 37.45 29.6
      vertex 95.98373251423759 37.5790482243984 29.6
    endloop
  endfacet
  facet normal 0 0 1
    outer loop
      vertex 95.5 36 29.6
      vertex 95.93748159108202 37.71529905038723 29.6
      vertex 95.9094106524888 37.856421188557945 29.6
    endloop
  endfacet
  facet normal 0 0 1
    outer loop
      vertex 95.5 36 29.6
      vertex 95.9094106524888 37.856421188557945 29.6
      vertex 95.9 38 29.6
    endloop
  endfacet
  facet normal 0 0 1
    outer loop
      vertex 95.5 36 29.6
      vertex 95.9 38 29.6
      vertex 95.9094106524888 38.143578811442055 29.6
    endloop
  endfacet
  facet normal 0 -1 0
    outer loop
      vertex 95.5 36 27.6
      vertex 117 36 29.6
      vertex 95.5 36 29.6
    endloop
  endfacet
  facet normal 0 0 1
    outer loop
      vertex 95.5 36 29.6
      vertex 117 36 29.6
      vertex 97.55 37.047372055837116 29.6
    endloop
  endfacet
  facet normal 0 0 1
    outer loop
      vertex 117 36 29.6
      vertex 97.66963757190959 37.12731132567964 29.6
      vertex 97.55 37.047372055837116 29.6
    endloop
  endfacet
  facet normal 0 0 1
    outer loop
      vertex 117 36 29.6
      vertex 97.7778174593052 37.222182540694796 29.6
      vertex 97.66963757190959 37.12731132567964 29.6
    endloop
  endfacet
  facet normal 0 0 1
    outer loop
      vertex 117 36 29.6
      vertex 97.87268867432036 37.33036242809041 29.6
      vertex 97.7778174593052 37.222182540694796 29.6
    endloop
  endfacet
  facet normal 0 0 1
    outer loop
      vertex 117 36 29.6
      vertex 97.95262794416288 37.45 29.6
      vertex 97.87268867432036 37.33036242809041 29.6
    endloop
  endfacet
  facet normal 0 0 1
    outer loop
      vertex 117 36 29.6
      vertex 98.01626748576241 37.5790482243984 29.6
      vertex 97.95262794416288 37.45 29.6
    endloop
  endfacet
  facet normal 0 0 1
    outer loop
      vertex 117 36 29.6
      vertex 98.06251840891798 37.71529905038723 29.6
      vertex 98.01626748576241 37.5790482243984 29.6
    endloop
  endfacet
  facet normal 0 0 1
    outer loop
      vertex 117 36 29.6
      vertex 98.0905893475112 37.856421188557945 29.6
      vertex 98.06251840891798 37.71529905038723 29.6
    endloop
  endfacet
  facet normal 0 0 1
    outer loop
      vertex 117 36 29.6
      vertex 98.1 38 29.6
      vertex 98.0905893475112 37.856421188557945 29.6
    endloop
  endfacet
  facet normal 0 0 1
    outer loop
      vertex 117 36 29.6
      vertex 98.0905893475112 38.143578811442055 29.6
      vertex 98.1 38 29.6
    endloop
  endfacet
  facet normal 0 0 1
    outer loop
      vertex 117 36 29.6
      vertex 98.06251840891798 38.28470094961277 29.6
      vertex 98.0905893475112 38.143578811442055 29.6
    endloop
  endfacet
  facet normal 0 0 1
    outer loop
      vertex 117 36 29.6
      vertex 98.01626748576241 38.4209517756016 29.6
      vertex 98.06251840891798 38.28470094961277 29.6
    endloop
  endfacet
  facet normal 0 0 1
    outer loop
      vertex 117 36 29.6
      vertex 97.95262794416288 38.55 29.6
      vertex 98.01626748576241 38.4209517756016 29.6
    endloop
  endfacet
  facet normal 0 0 1
    outer loop
      vertex 117 36 29.6
      vertex 97.87268867432036 38.66963757190959 29.6
      vertex 97.95262794416288 38.55 29.6
    endloop
  endfacet
  facet normal 0 0 1
    outer loop
      vertex 117 36 29.6
      vertex 97.7778174593052 38.777817459305204 29.6
      vertex 97.87268867432036 38.66963757190959 29.6
    endloop
  endfacet
  facet normal 0 0 1
    outer loop
      vertex 117 36 29.6
      vertex 97.66963757190959 38.87268867432036 29.6
      vertex 97.7778174593052 38.777817459305204 29.6
    endloop
  endfacet
  facet normal 0 0 1
    outer loop
      vertex 117 36 29.6
      vertex 97.55 38.952627944162884 29.6
      vertex 97.66963757190959 38.87268867432036 29.6
    endloop
  endfacet
  facet normal 0 0 -1
    outer loop
      vertex 95.5 36 27.6
      vertex 95.5 40 27.6
      vertex 95.9 38 27.6
    endloop
  endfacet
  facet normal 0 0 -1
    outer loop
      vertex 95.5 40 27.6
      vertex 95.9094106524888 38.143578811442055 27.6
      vertex 95.9 38 27.6
    endloop
  endfacet
  facet normal 0 0 -1
    outer loop
      vertex 95.5 40 27.6
      vertex 95.93748159108202 38.28470094961277 27.6
      vertex 95.9094106524888 38.143578811442055 27.6
    endloop
  endfacet
  facet normal 0 0 -1
    outer loop
      vertex 95.5 40 27.6
      vertex 95.98373251423759 38.4209517756016 27.6
      vertex 95.93748159108202 38.28470094961277 27.6
    endloop
  endfacet
  facet normal 0 0 -1
    outer loop
      vertex 95.5 40 27.6
      vertex 96.04737205583712 38.55 27.6
      vertex 95.98373251423759 38.4209517756016 27.6
    endloop
  endfacet
  facet normal -1 0 0
    outer loop
      vertex 95.5 36 27.6
      vertex 95.5 40 29.6
      vertex 95.5 40 27.6
    endloop
  endfacet
  facet normal 0 0 -1
    outer loop
      vertex 95.5 40 27.6
      vertex 96.12731132567964 38.66963757190959 27.6
      vertex 96.04737205583712 38.55 27.6
    endloop
  endfacet
  facet normal 0 0 -1
    outer loop
      vertex 95.5 40 27.6
      vertex 96.2221825406948 38.777817459305204 27.6
      vertex 96.12731132567964 38.66963757190959 27.6
    endloop
  endfacet
  facet normal 0 0 -1
    outer loop
      vertex 95.5 40 27.6
      vertex 96.33036242809041 38.87268867432036 27.6
      vertex 96.2221825406948 38.777817459305204 27.6
    endloop
  endfacet
  facet normal 0 0 -1
    outer loop
      vertex 95.5 40 27.6
      vertex 96.45 38.952627944162884 27.6
      vertex 96.33036242809041 38.87268867432036 27.6
    endloop
  endfacet
  facet normal 0 0 -1
    outer loop
      vertex 95.5 40 27.6
      vertex 96.5790482243984 39.01626748576241 27.6
      vertex 96.45 38.952627944162884 27.6
    endloop
  endfacet
  facet normal 0 0 -1
    outer loop
      vertex 95.5 40 27.6
      vertex 96.71529905038723 39.062518408917974 27.6
      vertex 96.5790482243984 39.01626748576241 27.6
    endloop
  endfacet
  facet normal 0 0 -1
    outer loop
      vertex 95.5 40 27.6
      vertex 96.85642118855795 39.09058934751119 27.6
      vertex 96.71529905038723 39.062518408917974 27.6
    endloop
  endfacet
  facet normal 0 0 -1
    outer loop
      vertex 95.5 40 27.6
      vertex 97 39.1 27.6
      vertex 96.85642118855795 39.09058934751119 27.6
    endloop
  endfacet
  facet normal 0 0 -1
    outer loop
      vertex 117 40 27.6
      vertex 97.4209517756016 36.98373251423759 27.6
      vertex 97.55 37.047372055837116 27.6
    endloop
  endfacet
  facet normal 0 0 -1
    outer loop
      vertex 117 40 27.6
      vertex 97.55 37.047372055837116 27.6
      vertex 97.66963757190959 37.12731132567964 27.6
    endloop
  endfacet
  facet normal 0 0 -1
    outer loop
      vertex 117 40 27.6
      vertex 97.66963757190959 37.12731132567964 27.6
      vertex 97.7778174593052 37.222182540694796 27.6
    endloop
  endfacet
  facet normal 0 0 -1
    outer loop
      vertex 117 40 27.6
      vertex 97.7778174593052 37.222182540694796 27.6
      vertex 97.87268867432036 37.33036242809041 27.6
    endloop
  endfacet
  facet normal 0 0 -1
    outer loop
      vertex 117 40 27.6
      vertex 97.87268867432036 37.33036242809041 27.6
      vertex 97.95262794416288 37.45 27.6
    endloop
  endfacet
  facet normal 0 0 -1
    outer loop
      vertex 117 40 27.6
      vertex 97.95262794416288 37.45 27.6
      vertex 98.01626748576241 37.5790482243984 27.6
    endloop
  endfacet
  facet normal 0 0 -1
    outer loop
      vertex 117 40 27.6
      vertex 98.01626748576241 37.5790482243984 27.6
      vertex 98.06251840891798 37.71529905038723 27.6
    endloop
  endfacet
  facet normal 0 0 -1
    outer loop
      vertex 117 40 27.6
      vertex 98.06251840891798 37.71529905038723 27.6
      vertex 98.0905893475112 37.856421188557945 27.6
    endloop
  endfacet
  facet normal 0 0 -1
    outer loop
      vertex 117 40 27.6
      vertex 98.0905893475112 37.856421188557945 27.6
      vertex 98.1 38 27.6
    endloop
  endfacet
  facet normal 0 0 -1
    outer loop
      vertex 117 40 27.6
      vertex 98.1 38 27.6
      vertex 98.0905893475112 38.143578811442055 27.6
    endloop
  endfacet
  facet normal 0 0 -1
    outer loop
      vertex 117 40 27.6
      vertex 98.0905893475112 38.143578811442055 27.6
      vertex 98.06251840891798 38.28470094961277 27.6
    endloop
  endfacet
  facet normal 0 0 -1
    outer loop
      vertex 117 40 27.6
      vertex 98.06251840891798 38.28470094961277 27.6
      vertex 98.01626748576241 38.4209517756016 27.6
    endloop
  endfacet
  facet normal 0 0 -1
    outer loop
      vertex 117 40 27.6
      vertex 98.01626748576241 38.4209517756016 27.6
      vertex 97.95262794416288 38.55 27.6
    endloop
  endfacet
  facet normal 0 0 -1
    outer loop
      vertex 95.5 40 27.6
      vertex 117 40 27.6
      vertex 97 39.1 27.6
    endloop
  endfacet
  facet normal 0 0 -1
    outer loop
      vertex 117 40 27.6
      vertex 97.87268867432036 38.66963757190959 27.6
      vertex 97.7778174593052 38.777817459305204 27.6
    endloop
  endfacet
  facet normal 0 0 -1
    outer loop
      vertex 117 40 27.6
      vertex 97.7778174593052 38.777817459305204 27.6
      vertex 97.66963757190959 38.87268867432036 27.6
    endloop
  endfacet
  facet normal 0 0 -1
    outer loop
      vertex 117 40 27.6
      vertex 97.95262794416288 38.55 27.6
      vertex 97.87268867432036 38.66963757190959 27.6
    endloop
  endfacet
  facet normal 0 0 -1
    outer loop
      vertex 117 40 27.6
      vertex 97.66963757190959 38.87268867432036 27.6
      vertex 97.55 38.952627944162884 27.6
    endloop
  endfacet
  facet normal 0 0 -1
    outer loop
      vertex 117 40 27.6
      vertex 97.55 38.952627944162884 27.6
      vertex 97.4209517756016 39.01626748576241 27.6
    endloop
  endfacet
  facet normal 0 0 -1
    outer loop
      vertex 117 40 27.6
      vertex 97.4209517756016 39.01626748576241 27.6
      vertex 97.28470094961277 39.062518408917974 27.6
    endloop
  endfacet
  facet normal 0 0 -1
    outer loop
      vertex 117 40 27.6
      vertex 97.14357881144205 39.09058934751119 27.6
      vertex 97 39.1 27.6
    endloop
  endfacet
  facet normal 0 0 -1
    outer loop
      vertex 117 40 27.6
      vertex 97.28470094961277 39.062518408917974 27.6
      vertex 97.14357881144205 39.09058934751119 27.6
    endloop
  endfacet
  facet normal 0 1 0
    outer loop
      vertex 95.5 40 27.6
      vertex 95.5 40 29.6
      vertex 117 40 27.6
    endloop
  endfacet
  facet normal 0 0 1
    outer loop
      vertex 95.5 36 29.6
      vertex 95.9094106524888 38.143578811442055 29.6
      vertex 95.5 40 29.6
    endloop
  endfacet
  facet normal 0 0 1
    outer loop
      vertex 95.5 40 29.6
      vertex 95.9094106524888 38.143578811442055 29.6
      vertex 95.93748159108202 38.28470094961277 29.6
    endloop
  endfacet
  facet normal 0 0 1
    outer loop
      vertex 95.5 40 29.6
      vertex 95.93748159108202 38.28470094961277 29.6
      vertex 95.98373251423759 38.4209517756016 29.6
    endloop
  endfacet
  facet normal 0 0 1
    outer loop
      vertex 95.5 40 29.6
      vertex 95.98373251423759 38.4209517756016 29.6
      vertex 96.04737205583712 38.55 29.6
    endloop
  endfacet
  facet normal 0 0 1
    outer loop
      vertex 95.5 40 29.6
      vertex 96.04737205583712 38.55 29.6
      vertex 96.12731132567964 38.66963757190959 29.6
    endloop
  endfacet
  facet normal 0 0 1
    outer loop
      vertex 95.5 40 29.6
      vertex 96.12731132567964 38.66963757190959 29.6
      vertex 96.2221825406948 38.777817459305204 29.6
    endloop
  endfacet
  facet normal 0 0 1
    outer loop
      vertex 95.5 40 29.6
      vertex 96.2221825406948 38.777817459305204 29.6
      vertex 96.33036242809041 38.87268867432036 29.6
    endloop
  endfacet
  facet normal 0 0 1
    outer loop
      vertex 95.5 40 29.6
      vertex 96.33036242809041 38.87268867432036 29.6
      vertex 96.45 38.952627944162884 29.6
    endloop
  endfacet
  facet normal 0 0 1
    outer loop
      vertex 95.5 40 29.6
      vertex 96.45 38.952627944162884 29.6
      vertex 96.5790482243984 39.01626748576241 29.6
    endloop
  endfacet
  facet normal 0 0 1
    outer loop
      vertex 95.5 40 29.6
      vertex 96.5790482243984 39.01626748576241 29.6
      vertex 96.71529905038723 39.062518408917974 29.6
    endloop
  endfacet
  facet normal 0 0 1
    outer loop
      vertex 95.5 40 29.6
      vertex 97.4209517756016 39.01626748576241 29.6
      vertex 97.55 38.952627944162884 29.6
    endloop
  endfacet
  facet normal 0 0 1
    outer loop
      vertex 95.5 40 29.6
      vertex 97.28470094961277 39.062518408917974 29.6
      vertex 97.4209517756016 39.01626748576241 29.6
    endloop
  endfacet
  facet normal 0 0 1
    outer loop
      vertex 95.5 40 29.6
      vertex 96.71529905038723 39.062518408917974 29.6
      vertex 96.85642118855795 39.09058934751119 29.6
    endloop
  endfacet
  facet normal 0 0 1
    outer loop
      vertex 95.5 40 29.6
      vertex 96.85642118855795 39.09058934751119 29.6
      vertex 97 39.1 29.6
    endloop
  endfacet
  facet normal 0 0 1
    outer loop
      vertex 95.5 40 29.6
      vertex 97 39.1 29.6
      vertex 97.14357881144205 39.09058934751119 29.6
    endloop
  endfacet
  facet normal 0 0 1
    outer loop
      vertex 95.5 40 29.6
      vertex 97.14357881144205 39.09058934751119 29.6
      vertex 97.28470094961277 39.062518408917974 29.6
    endloop
  endfacet
  facet normal 0 0 1
    outer loop
      vertex 95.5 40 29.6
      vertex 97.55 38.952627944162884 29.6
      vertex 117 36 29.6
    endloop
  endfacet
  facet normal 0 0 -1
    outer loop
      vertex 95.5 36 27.6
      vertex 114.45 37.047372055837116 27.6
      vertex 114.5790482243984 36.98373251423759 27.6
    endloop
  endfacet
  facet normal 0 0 -1
    outer loop
      vertex 95.5 36 27.6
      vertex 114.33036242809041 37.12731132567964 27.6
      vertex 114.45 37.047372055837116 27.6
    endloop
  endfacet
  facet normal 0 0 -1
    outer loop
      vertex 95.5 36 27.6
      vertex 114.2221825406948 37.222182540694796 27.6
      vertex 114.33036242809041 37.12731132567964 27.6
    endloop
  endfacet
  facet normal 0 0 -1
    outer loop
      vertex 95.5 36 27.6
      vertex 114.12731132567964 37.33036242809041 27.6
      vertex 114.2221825406948 37.222182540694796 27.6
    endloop
  endfacet
  facet normal 0 0 -1
    outer loop
      vertex 95.5 36 27.6
      vertex 114.04737205583712 37.45 27.6
      vertex 114.12731132567964 37.33036242809041 27.6
    endloop
  endfacet
  facet normal 0 0 -1
    outer loop
      vertex 95.5 36 27.6
      vertex 114.5790482243984 36.98373251423759 27.6
      vertex 117 36 27.6
    endloop
  endfacet
  facet normal 0 -1 0
    outer loop
      vertex 95.5 36 27.6
      vertex 117 36 27.6
      vertex 117 36 29.6
    endloop
  endfacet
  facet normal 0 0 -1
    outer loop
      vertex 95.5 36 27.6
      vertex 113.98373251423759 37.5790482243984 27.6
      vertex 114.04737205583712 37.45 27.6
    endloop
  endfacet
  facet normal 0 0 -1
    outer loop
      vertex 95.5 36 27.6
      vertex 113.93748159108202 37.71529905038723 27.6
      vertex 113.98373251423759 37.5790482243984 27.6
    endloop
  endfacet
  facet normal 0 0 -1
    outer loop
      vertex 95.5 36 27.6
      vertex 113.9094106524888 37.856421188557945 27.6
      vertex 113.93748159108202 37.71529905038723 27.6
    endloop
  endfacet
  facet normal 0 0 -1
    outer loop
      vertex 95.5 36 27.6
      vertex 113.9 38 27.6
      vertex 113.9094106524888 37.856421188557945 27.6
    endloop
  endfacet
  facet normal 0 0 -1
    outer loop
      vertex 95.5 36 27.6
      vertex 113.9094106524888 38.143578811442055 27.6
      vertex 113.9 38 27.6
    endloop
  endfacet
  facet normal 0 0 -1
    outer loop
      vertex 95.5 36 27.6
      vertex 113.93748159108202 38.28470094961277 27.6
      vertex 113.9094106524888 38.143578811442055 27.6
    endloop
  endfacet
  facet normal 0 0 -1
    outer loop
      vertex 95.5 36 27.6
      vertex 113.98373251423759 38.4209517756016 27.6
      vertex 113.93748159108202 38.28470094961277 27.6
    endloop
  endfacet
  facet normal 0 0 -1
    outer loop
      vertex 95.5 36 27.6
      vertex 114.04737205583712 38.55 27.6
      vertex 113.98373251423759 38.4209517756016 27.6
    endloop
  endfacet
  facet normal 0 0 -1
    outer loop
      vertex 95.5 36 27.6
      vertex 114.12731132567964 38.66963757190959 27.6
      vertex 114.04737205583712 38.55 27.6
    endloop
  endfacet
  facet normal 0 0 -1
    outer loop
      vertex 95.5 36 27.6
      vertex 114.2221825406948 38.777817459305204 27.6
      vertex 114.12731132567964 38.66963757190959 27.6
    endloop
  endfacet
  facet normal 0 0 -1
    outer loop
      vertex 95.5 36 27.6
      vertex 114.33036242809041 38.87268867432036 27.6
      vertex 114.2221825406948 38.777817459305204 27.6
    endloop
  endfacet
  facet normal 0 0 -1
    outer loop
      vertex 95.5 36 27.6
      vertex 114.45 38.952627944162884 27.6
      vertex 114.33036242809041 38.87268867432036 27.6
    endloop
  endfacet
  facet normal 0 0 -1
    outer loop
      vertex 95.5 36 27.6
      vertex 114.5790482243984 39.01626748576241 27.6
      vertex 114.45 38.952627944162884 27.6
    endloop
  endfacet
  facet normal 0 0 -1
    outer loop
      vertex 117 36 27.6
      vertex 114.71529905038723 36.937481591082026 27.6
      vertex 114.85642118855795 36.90941065248881 27.6
    endloop
  endfacet
  facet normal 0 0 -1
    outer loop
      vertex 117 36 27.6
      vertex 114.85642118855795 36.90941065248881 27.6
      vertex 115 36.9 27.6
    endloop
  endfacet
  facet normal 0 0 -1
    outer loop
      vertex 117 36 27.6
      vertex 114.5790482243984 36.98373251423759 27.6
      vertex 114.71529905038723 36.937481591082026 27.6
    endloop
  endfacet
  facet normal 0 0 -1
    outer loop
      vertex 117 36 27.6
      vertex 115 36.9 27.6
      vertex 115.14357881144205 36.90941065248881 27.6
    endloop
  endfacet
  facet normal 0 0 -1
    outer loop
      vertex 117 36 27.6
      vertex 115.14357881144205 36.90941065248881 27.6
      vertex 115.28470094961277 36.937481591082026 27.6
    endloop
  endfacet
  facet normal 0 0 -1
    outer loop
      vertex 117 36 27.6
      vertex 115.28470094961277 36.937481591082026 27.6
      vertex 115.4209517756016 36.98373251423759 27.6
    endloop
  endfacet
  facet normal 0 0 -1
    outer loop
      vertex 117 36 27.6
      vertex 115.4209517756016 36.98373251423759 27.6
      vertex 115.55 37.047372055837116 27.6
    endloop
  endfacet
  facet normal 0 0 -1
    outer loop
      vertex 117 36 27.6
      vertex 115.55 37.047372055837116 27.6
      vertex 115.66963757190959 37.12731132567964 27.6
    endloop
  endfacet
  facet normal 0 0 -1
    outer loop
      vertex 117 36 27.6
      vertex 115.66963757190959 37.12731132567964 27.6
      vertex 115.7778174593052 37.222182540694796 27.6
    endloop
  endfacet
  facet normal 0 0 -1
    outer loop
      vertex 117 36 27.6
      vertex 115.7778174593052 37.222182540694796 27.6
      vertex 115.87268867432036 37.33036242809041 27.6
    endloop
  endfacet
  facet normal 0 0 -1
    outer loop
      vertex 117 36 27.6
      vertex 115.87268867432036 37.33036242809041 27.6
      vertex 115.95262794416288 37.45 27.6
    endloop
  endfacet
  facet normal 0 0 -1
    outer loop
      vertex 117 36 27.6
      vertex 115.95262794416288 37.45 27.6
      vertex 116.01626748576241 37.5790482243984 27.6
    endloop
  endfacet
  facet normal 0 0 -1
    outer loop
      vertex 117 36 27.6
      vertex 116.01626748576241 37.5790482243984 27.6
      vertex 116.06251840891798 37.71529905038723 27.6
    endloop
  endfacet
  facet normal 0 0 -1
    outer loop
      vertex 117 36 27.6
      vertex 116.06251840891798 37.71529905038723 27.6
      vertex 117 40 27.6
    endloop
  endfacet
  facet normal 1 0 0
    outer loop
      vertex 117 36 27.6
      vertex 117 40 27.6
      vertex 117 36 29.6
    endloop
  endfacet
  facet normal 0 0 1
    outer loop
      vertex 95.5 40 29.6
      vertex 114.71529905038723 36.937481591082026 29.6
      vertex 114.5790482243984 36.98373251423759 29.6
    endloop
  endfacet
  facet normal 0 0 1
    outer loop
      vertex 95.5 40 29.6
      vertex 114.85642118855795 36.90941065248881 29.6
      vertex 114.71529905038723 36.937481591082026 29.6
    endloop
  endfacet
  facet normal 0 0 1
    outer loop
      vertex 95.5 40 29.6
      vertex 117 36 29.6
      vertex 114.85642118855795 36.90941065248881 29.6
    endloop
  endfacet
  facet normal 0 0 1
    outer loop
      vertex 117 36 29.6
      vertex 115 36.9 29.6
      vertex 114.85642118855795 36.90941065248881 29.6
    endloop
  endfacet
  facet normal 0 0 1
    outer loop
      vertex 117 36 29.6
      vertex 115.14357881144205 36.90941065248881 29.6
      vertex 115 36.9 29.6
    endloop
  endfacet
  facet normal 0 0 1
    outer loop
      vertex 117 36 29.6
      vertex 115.28470094961277 36.937481591082026 29.6
      vertex 115.14357881144205 36.90941065248881 29.6
    endloop
  endfacet
  facet normal 0 0 1
    outer loop
      vertex 117 36 29.6
      vertex 115.4209517756016 36.98373251423759 29.6
      vertex 115.28470094961277 36.937481591082026 29.6
    endloop
  endfacet
  facet normal 0 0 1
    outer loop
      vertex 117 36 29.6
      vertex 115.55 37.047372055837116 29.6
      vertex 115.4209517756016 36.98373251423759 29.6
    endloop
  endfacet
  facet normal 0 0 1
    outer loop
      vertex 117 36 29.6
      vertex 115.66963757190959 37.12731132567964 29.6
      vertex 115.55 37.047372055837116 29.6
    endloop
  endfacet
  facet normal 0 0 1
    outer loop
      vertex 117 36 29.6
      vertex 115.7778174593052 37.222182540694796 29.6
      vertex 115.66963757190959 37.12731132567964 29.6
    endloop
  endfacet
  facet normal 0 0 1
    outer loop
      vertex 117 36 29.6
      vertex 115.87268867432036 37.33036242809041 29.6
      vertex 115.7778174593052 37.222182540694796 29.6
    endloop
  endfacet
  facet normal 0 0 1
    outer loop
      vertex 117 36 29.6
      vertex 115.95262794416288 37.45 29.6
      vertex 115.87268867432036 37.33036242809041 29.6
    endloop
  endfacet
  facet normal 0 0 1
    outer loop
      vertex 117 36 29.6
      vertex 116.01626748576241 37.5790482243984 29.6
      vertex 115.95262794416288 37.45 29.6
    endloop
  endfacet
  facet normal 0 0 1
    outer loop
      vertex 117 36 29.6
      vertex 116.06251840891798 37.71529905038723 29.6
      vertex 116.01626748576241 37.5790482243984 29.6
    endloop
  endfacet
  facet normal 0 0 1
    outer loop
      vertex 117 36 29.6
      vertex 116.0905893475112 37.856421188557945 29.6
      vertex 116.06251840891798 37.71529905038723 29.6
    endloop
  endfacet
  facet normal 0 0 1
    outer loop
      vertex 117 36 29.6
      vertex 116.1 38 29.6
      vertex 116.0905893475112 37.856421188557945 29.6
    endloop
  endfacet
  facet normal 0 0 -1
    outer loop
      vertex 95.5 36 27.6
      vertex 114.71529905038723 39.062518408917974 27.6
      vertex 114.5790482243984 39.01626748576241 27.6
    endloop
  endfacet
  facet normal 0 0 -1
    outer loop
      vertex 95.5 36 27.6
      vertex 114.85642118855795 39.09058934751119 27.6
      vertex 114.71529905038723 39.062518408917974 27.6
    endloop
  endfacet
  facet normal 0 0 -1
    outer loop
      vertex 95.5 36 27.6
      vertex 117 40 27.6
      vertex 114.85642118855795 39.09058934751119 27.6
    endloop
  endfacet
  facet normal 0 0 -1
    outer loop
      vertex 117 40 27.6
      vertex 116.06251840891798 37.71529905038723 27.6
      vertex 116.0905893475112 37.856421188557945 27.6
    endloop
  endfacet
  facet normal 0 0 -1
    outer loop
      vertex 117 40 27.6
      vertex 116.0905893475112 37.856421188557945 27.6
      vertex 116.1 38 27.6
    endloop
  endfacet
  facet normal 0 0 -1
    outer loop
      vertex 117 40 27.6
      vertex 116.1 38 27.6
      vertex 116.0905893475112 38.143578811442055 27.6
    endloop
  endfacet
  facet normal 0 0 -1
    outer loop
      vertex 117 40 27.6
      vertex 116.01626748576241 38.4209517756016 27.6
      vertex 115.95262794416288 38.55 27.6
    endloop
  endfacet
  facet normal 0 0 -1
    outer loop
      vertex 117 40 27.6
      vertex 116.0905893475112 38.143578811442055 27.6
      vertex 116.06251840891798 38.28470094961277 27.6
    endloop
  endfacet
  facet normal 0 0 -1
    outer loop
      vertex 117 40 27.6
      vertex 116.06251840891798 38.28470094961277 27.6
      vertex 116.01626748576241 38.4209517756016 27.6
    endloop
  endfacet
  facet normal 0 0 -1
    outer loop
      vertex 117 40 27.6
      vertex 115 39.1 27.6
      vertex 114.85642118855795 39.09058934751119 27.6
    endloop
  endfacet
  facet normal 0 0 -1
    outer loop
      vertex 117 40 27.6
      vertex 115.95262794416288 38.55 27.6
      vertex 115.87268867432036 38.66963757190959 27.6
    endloop
  endfacet
  facet normal 0 0 -1
    outer loop
      vertex 117 40 27.6
      vertex 115.87268867432036 38.66963757190959 27.6
      vertex 115.7778174593052 38.777817459305204 27.6
    endloop
  endfacet
  facet normal 0 0 -1
    outer loop
      vertex 117 40 27.6
      vertex 115.7778174593052 38.777817459305204 27.6
      vertex 115.66963757190959 38.87268867432036 27.6
    endloop
  endfacet
  facet normal 0 0 -1
    outer loop
      vertex 117 40 27.6
      vertex 115.55 38.952627944162884 27.6
      vertex 115.4209517756016 39.01626748576241 27.6
    endloop
  endfacet
  facet normal 0 0 -1
    outer loop
      vertex 117 40 27.6
      vertex 115.4209517756016 39.01626748576241 27.6
      vertex 115.28470094961277 39.062518408917974 27.6
    endloop
  endfacet
  facet normal 0 0 -1
    outer loop
      vertex 117 40 27.6
      vertex 115.66963757190959 38.87268867432036 27.6
      vertex 115.55 38.952627944162884 27.6
    endloop
  endfacet
  facet normal 0 0 -1
    outer loop
      vertex 117 40 27.6
      vertex 115.14357881144205 39.09058934751119 27.6
      vertex 115 39.1 27.6
    endloop
  endfacet
  facet normal 0 0 -1
    outer loop
      vertex 117 40 27.6
      vertex 115.28470094961277 39.062518408917974 27.6
      vertex 115.14357881144205 39.09058934751119 27.6
    endloop
  endfacet
  facet normal 0 0 1
    outer loop
      vertex 95.5 40 29.6
      vertex 114.45 37.047372055837116 29.6
      vertex 114.33036242809041 37.12731132567964 29.6
    endloop
  endfacet
  facet normal 0 0 1
    outer loop
      vertex 95.5 40 29.6
      vertex 114.5790482243984 36.98373251423759 29.6
      vertex 114.45 37.047372055837116 29.6
    endloop
  endfacet
  facet normal 0 0 1
    outer loop
      vertex 95.5 40 29.6
      vertex 114.33036242809041 37.12731132567964 29.6
      vertex 114.2221825406948 37.222182540694796 29.6
    endloop
  endfacet
  facet normal 0 0 1
    outer loop
      vertex 95.5 40 29.6
      vertex 114.2221825406948 37.222182540694796 29.6
      vertex 114.12731132567964 37.33036242809041 29.6
    endloop
  endfacet
  facet normal 0 0 1
    outer loop
      vertex 95.5 40 29.6
      vertex 114.12731132567964 37.33036242809041 29.6
      vertex 114.04737205583712 37.45 29.6
    endloop
  endfacet
  facet normal 0 0 1
    outer loop
      vertex 95.5 40 29.6
      vertex 114.04737205583712 37.45 29.6
      vertex 113.98373251423759 37.5790482243984 29.6
    endloop
  endfacet
  facet normal 0 0 1
    outer loop
      vertex 95.5 40 29.6
      vertex 113.98373251423759 37.5790482243984 29.6
      vertex 113.93748159108202 37.71529905038723 29.6
    endloop
  endfacet
  facet normal 0 0 1
    outer loop
      vertex 95.5 40 29.6
      vertex 113.93748159108202 37.71529905038723 29.6
      vertex 113.9094106524888 37.856421188557945 29.6
    endloop
  endfacet
  facet normal 0 0 1
    outer loop
      vertex 95.5 40 29.6
      vertex 113.9094106524888 37.856421188557945 29.6
      vertex 113.9 38 29.6
    endloop
  endfacet
  facet normal 0 0 1
    outer loop
      vertex 95.5 40 29.6
      vertex 113.9 38 29.6
      vertex 113.9094106524888 38.143578811442055 29.6
    endloop
  endfacet
  facet normal 0 0 1
    outer loop
      vertex 95.5 40 29.6
      vertex 113.9094106524888 38.143578811442055 29.6
      vertex 113.93748159108202 38.28470094961277 29.6
    endloop
  endfacet
  facet normal 0 0 1
    outer loop
      vertex 95.5 40 29.6
      vertex 113.93748159108202 38.28470094961277 29.6
      vertex 113.98373251423759 38.4209517756016 29.6
    endloop
  endfacet
  facet normal 0 0 1
    outer loop
      vertex 95.5 40 29.6
      vertex 113.98373251423759 38.4209517756016 29.6
      vertex 114.04737205583712 38.55 29.6
    endloop
  endfacet
  facet normal 0 1 0
    outer loop
      vertex 95.5 40 29.6
      vertex 117 40 29.6
      vertex 117 40 27.6
    endloop
  endfacet
  facet normal 0 0 1
    outer loop
      vertex 95.5 40 29.6
      vertex 114.04737205583712 38.55 29.6
      vertex 114.12731132567964 38.66963757190959 29.6
    endloop
  endfacet
  facet normal 0 0 1
    outer loop
      vertex 95.5 40 29.6
      vertex 114.12731132567964 38.66963757190959 29.6
      vertex 114.2221825406948 38.777817459305204 29.6
    endloop
  endfacet
  facet normal 0 0 1
    outer loop
      vertex 95.5 40 29.6
      vertex 114.2221825406948 38.777817459305204 29.6
      vertex 114.33036242809041 38.87268867432036 29.6
    endloop
  endfacet
  facet normal 0 0 1
    outer loop
      vertex 95.5 40 29.6
      vertex 114.33036242809041 38.87268867432036 29.6
      vertex 114.45 38.952627944162884 29.6
    endloop
  endfacet
  facet normal 0 0 1
    outer loop
      vertex 95.5 40 29.6
      vertex 114.45 38.952627944162884 29.6
      vertex 114.5790482243984 39.01626748576241 29.6
    endloop
  endfacet
  facet normal 0 0 1
    outer loop
      vertex 95.5 40 29.6
      vertex 114.5790482243984 39.01626748576241 29.6
      vertex 114.71529905038723 39.062518408917974 29.6
    endloop
  endfacet
  facet normal 0 0 1
    outer loop
      vertex 95.5 40 29.6
      vertex 114.71529905038723 39.062518408917974 29.6
      vertex 114.85642118855795 39.09058934751119 29.6
    endloop
  endfacet
  facet normal 0 0 1
    outer loop
      vertex 95.5 40 29.6
      vertex 114.85642118855795 39.09058934751119 29.6
      vertex 115 39.1 29.6
    endloop
  endfacet
  facet normal 0 0 1
    outer loop
      vertex 95.5 40 29.6
      vertex 115 39.1 29.6
      vertex 117 40 29.6
    endloop
  endfacet
  facet normal 1 0 0
    outer loop
      vertex 117 36 29.6
      vertex 117 40 27.6
      vertex 117 40 29.6
    endloop
  endfacet
  facet normal 0 0 1
    outer loop
      vertex 117 36 29.6
      vertex 117 40 29.6
      vertex 116.1 38 29.6
    endloop
  endfacet
  facet normal 0 0 1
    outer loop
      vertex 117 40 29.6
      vertex 116.0905893475112 38.143578811442055 29.6
      vertex 116.1 38 29.6
    endloop
  endfacet
  facet normal 0 0 1
    outer loop
      vertex 117 40 29.6
      vertex 115.95262794416288 38.55 29.6
      vertex 116.01626748576241 38.4209517756016 29.6
    endloop
  endfacet
  facet normal 0 0 1
    outer loop
      vertex 117 40 29.6
      vertex 116.06251840891798 38.28470094961277 29.6
      vertex 116.0905893475112 38.143578811442055 29.6
    endloop
  endfacet
  facet normal 0 0 1
    outer loop
      vertex 117 40 29.6
      vertex 116.01626748576241 38.4209517756016 29.6
      vertex 116.06251840891798 38.28470094961277 29.6
    endloop
  endfacet
  facet normal 0 0 1
    outer loop
      vertex 117 40 29.6
      vertex 115.87268867432036 38.66963757190959 29.6
      vertex 115.95262794416288 38.55 29.6
    endloop
  endfacet
  facet normal 0 0 1
    outer loop
      vertex 117 40 29.6
      vertex 115.7778174593052 38.777817459305204 29.6
      vertex 115.87268867432036 38.66963757190959 29.6
    endloop
  endfacet
  facet normal 0 0 1
    outer loop
      vertex 117 40 29.6
      vertex 115.66963757190959 38.87268867432036 29.6
      vertex 115.7778174593052 38.777817459305204 29.6
    endloop
  endfacet
  facet normal 0 0 1
    outer loop
      vertex 117 40 29.6
      vertex 115.4209517756016 39.01626748576241 29.6
      vertex 115.55 38.952627944162884 29.6
    endloop
  endfacet
  facet normal 0 0 1
    outer loop
      vertex 117 40 29.6
      vertex 115.28470094961277 39.062518408917974 29.6
      vertex 115.4209517756016 39.01626748576241 29.6
    endloop
  endfacet
  facet normal 0 0 1
    outer loop
      vertex 117 40 29.6
      vertex 115.55 38.952627944162884 29.6
      vertex 115.66963757190959 38.87268867432036 29.6
    endloop
  endfacet
  facet normal 0 0 1
    outer loop
      vertex 117 40 29.6
      vertex 115 39.1 29.6
      vertex 115.14357881144205 39.09058934751119 29.6
    endloop
  endfacet
  facet normal 0 0 1
    outer loop
      vertex 117 40 29.6
      vertex 115.14357881144205 39.09058934751119 29.6
      vertex 115.28470094961277 39.062518408917974 29.6
    endloop
  endfacet
endsolid OpenSCAD_Model
