solid OpenSCAD_Model
  facet normal 0.7518398074789697 0.6593458151000777 0
    outer loop
      vertex 75.04797599165052 -27.730513714810463 47.8
      vertex 75.15147186257614 -27.848528137423855 45.8
      vertex 75.04797599165052 -27.730513714810463 45.8
    endloop
  endfacet
  facet normal 0.8968727415326709 0.44228869021903655 0
    outer loop
      vertex 74.89134456098645 -27.459220118838108 47.8
      vertex 74.96076951545868 -27.6 45.8
      vertex 74.89134456098645 -27.459220118838108 45.8
    endloop
  endfacet
  facet normal 0.8314696123025578 0.5555702330195834 0
    outer loop
      vertex 74.96076951545868 -27.6 47.8
      vertex 75.04797599165052 -27.730513714810463 45.8
      vertex 74.96076951545868 -27.6 45.8
    endloop
  endfacet
  facet normal 0.9469301294951082 0.3214394653031542 0
    outer loop
      vertex 74.84088900845312 -27.310582854123027 47.8
      vertex 74.89134456098645 -27.459220118838108 45.8
      vertex 74.84088900845312 -27.310582854123027 45.8
    endloop
  endfacet
  facet normal 0.9807852804032281 0.19509032201614018 0
    outer loop
      vertex 74.81026616635143 -27.156631430664063 47.8
      vertex 74.84088900845312 -27.310582854123027 45.8
      vertex 74.81026616635143 -27.156631430664063 45.8
    endloop
  endfacet
  facet normal 0.9978589232386033 0.06540312923014742 0
    outer loop
      vertex 74.8 -27 47.8
      vertex 74.81026616635143 -27.156631430664063 45.8
      vertex 74.8 -27 45.8
    endloop
  endfacet
  facet normal 0.442288690218991 0.8968727415326935 0
    outer loop
      vertex 75.4 -28.039230484541328 47.8
      vertex 75.5407798811619 -28.108655439013543 45.8
      vertex 75.4 -28.039230484541328 45.8
    endloop
  endfacet
  facet normal 0.3214394653031814 0.9469301294950989 0
    outer loop
      vertex 75.5407798811619 -28.108655439013543 47.8
      vertex 75.68941714587697 -28.159110991546882 45.8
      vertex 75.5407798811619 -28.108655439013543 45.8
    endloop
  endfacet
  facet normal 0.1950903220161184 0.9807852804032324 0
    outer loop
      vertex 75.68941714587697 -28.159110991546882 47.8
      vertex 75.84336856933594 -28.18973383364857 45.8
      vertex 75.68941714587697 -28.159110991546882 45.8
    endloop
  endfacet
  facet normal 0.06540312923014742 0.9978589232386033 0
    outer loop
      vertex 75.84336856933594 -28.18973383364857 47.8
      vertex 76 -28.2 45.8
      vertex 75.84336856933594 -28.18973383364857 45.8
    endloop
  endfacet
  facet normal -0.06540312923014742 0.9978589232386033 0
    outer loop
      vertex 76 -28.2 47.8
      vertex 76.15663143066406 -28.18973383364857 45.8
      vertex 76 -28.2 45.8
    endloop
  endfacet
  facet normal -0.1950903220161184 0.9807852804032324 0
    outer loop
      vertex 76.15663143066406 -28.18973383364857 47.8
      vertex 76.31058285412303 -28.159110991546882 45.8
      vertex 76.15663143066406 -28.18973383364857 45.8
    endloop
  endfacet
  facet normal -0.3214394653031814 0.9469301294950989 0
    outer loop
      vertex 76.31058285412303 -28.159110991546882 47.8
      vertex 76.4592201188381 -28.108655439013543 45.8
      vertex 76.31058285412303 -28.159110991546882 45.8
    endloop
  endfacet
  facet normal 0.6593458151001 0.75183980747895 0
    outer loop
      vertex 75.15147186257614 -27.848528137423855 47.8
      vertex 75.26948628518953 -27.952024008349483 45.8
      vertex 75.15147186257614 -27.848528137423855 45.8
    endloop
  endfacet
  facet normal 0.5555702330195729 0.8314696123025648 0
    outer loop
      vertex 75.26948628518953 -27.952024008349483 47.8
      vertex 75.4 -28.039230484541328 45.8
      vertex 75.26948628518953 -27.952024008349483 45.8
    endloop
  endfacet
  facet normal -0.442288690218991 0.8968727415326935 0
    outer loop
      vertex 76.4592201188381 -28.108655439013543 47.8
      vertex 76.6 -28.039230484541328 45.8
      vertex 76.4592201188381 -28.108655439013543 45.8
    endloop
  endfacet
  facet normal -0.5555702330195729 0.8314696123025648 0
    outer loop
      vertex 76.6 -28.039230484541328 47.8
      vertex 76.73051371481047 -27.952024008349483 45.8
      vertex 76.6 -28.039230484541328 45.8
    endloop
  endfacet
  facet normal -0.6593458151001 0.75183980747895 0
    outer loop
      vertex 76.73051371481047 -27.952024008349483 47.8
      vertex 76.84852813742386 -27.848528137423855 45.8
      vertex 76.73051371481047 -27.952024008349483 45.8
    endloop
  endfacet
  facet normal -0.7518398074789697 0.6593458151000777 0
    outer loop
      vertex 76.84852813742386 -27.848528137423855 45.8
      vertex 76.84852813742386 -27.848528137423855 47.8
      vertex 76.95202400834948 -27.730513714810463 45.8
    endloop
  endfacet
  facet normal -0.8314696123025578 0.5555702330195834 0
    outer loop
      vertex 76.95202400834948 -27.730513714810463 47.8
      vertex 77.03923048454132 -27.6 45.8
      vertex 76.95202400834948 -27.730513714810463 45.8
    endloop
  endfacet
  facet normal -0.8968727415326709 0.44228869021903655 0
    outer loop
      vertex 77.03923048454132 -27.6 47.8
      vertex 77.10865543901355 -27.459220118838108 45.8
      vertex 77.03923048454132 -27.6 45.8
    endloop
  endfacet
  facet normal -0.9469301294951082 0.3214394653031542 0
    outer loop
      vertex 77.10865543901355 -27.459220118838108 47.8
      vertex 77.15911099154688 -27.310582854123027 45.8
      vertex 77.10865543901355 -27.459220118838108 45.8
    endloop
  endfacet
  facet normal -0.9807852804032281 0.19509032201614018 0
    outer loop
      vertex 77.15911099154688 -27.310582854123027 47.8
      vertex 77.18973383364857 -27.156631430664063 45.8
      vertex 77.15911099154688 -27.310582854123027 45.8
    endloop
  endfacet
  facet normal -0.9978589232386033 0.06540312923014742 0
    outer loop
      vertex 77.18973383364857 -27.156631430664063 47.8
      vertex 77.2 -27 45.8
      vertex 77.18973383364857 -27.156631430664063 45.8
    endloop
  endfacet
  facet normal 0.7518398074789697 0.6593458151000777 0
    outer loop
      vertex 75.04797599165052 -27.730513714810463 47.8
      vertex 75.15147186257614 -27.848528137423855 47.8
      vertex 75.15147186257614 -27.848528137423855 45.8
    endloop
  endfacet
  facet normal 0.8968727415326709 0.44228869021903655 0
    outer loop
      vertex 74.89134456098645 -27.459220118838108 47.8
      vertex 74.96076951545868 -27.6 47.8
      vertex 74.96076951545868 -27.6 45.8
    endloop
  endfacet
  facet normal 0.8314696123025578 0.5555702330195834 0
    outer loop
      vertex 74.96076951545868 -27.6 47.8
      vertex 75.04797599165052 -27.730513714810463 47.8
      vertex 75.04797599165052 -27.730513714810463 45.8
    endloop
  endfacet
  facet normal 0.9469301294951082 0.3214394653031542 0
    outer loop
      vertex 74.84088900845312 -27.310582854123027 47.8
      vertex 74.89134456098645 -27.459220118838108 47.8
      vertex 74.89134456098645 -27.459220118838108 45.8
    endloop
  endfacet
  facet normal 0.9807852804032281 0.19509032201614018 0
    outer loop
      vertex 74.81026616635143 -27.156631430664063 47.8
      vertex 74.84088900845312 -27.310582854123027 47.8
      vertex 74.84088900845312 -27.310582854123027 45.8
    endloop
  endfacet
  facet normal 0.9978589232386033 0.06540312923014742 0
    outer loop
      vertex 74.8 -27 47.8
      vertex 74.81026616635143 -27.156631430664063 47.8
      vertex 74.81026616635143 -27.156631430664063 45.8
    endloop
  endfacet
  facet normal 0.5555702330195729 0.8314696123025648 0
    outer loop
      vertex 75.4 -28.039230484541328 47.8
      vertex 75.4 -28.039230484541328 45.8
      vertex 75.26948628518953 -27.952024008349483 47.8
    endloop
  endfacet
  facet normal 0.442288690218991 0.8968727415326935 0
    outer loop
      vertex 75.5407798811619 -28.108655439013543 47.8
      vertex 75.5407798811619 -28.108655439013543 45.8
      vertex 75.4 -28.039230484541328 47.8
    endloop
  endfacet
  facet normal 0.3214394653031814 0.9469301294950989 0
    outer loop
      vertex 75.68941714587697 -28.159110991546882 47.8
      vertex 75.68941714587697 -28.159110991546882 45.8
      vertex 75.5407798811619 -28.108655439013543 47.8
    endloop
  endfacet
  facet normal 0.1950903220161184 0.9807852804032324 0
    outer loop
      vertex 75.84336856933594 -28.18973383364857 47.8
      vertex 75.84336856933594 -28.18973383364857 45.8
      vertex 75.68941714587697 -28.159110991546882 47.8
    endloop
  endfacet
  facet normal 0.06540312923014742 0.9978589232386033 0
    outer loop
      vertex 76 -28.2 47.8
      vertex 76 -28.2 45.8
      vertex 75.84336856933594 -28.18973383364857 47.8
    endloop
  endfacet
  facet normal -0.06540312923014742 0.9978589232386033 0
    outer loop
      vertex 76.15663143066406 -28.18973383364857 47.8
      vertex 76.15663143066406 -28.18973383364857 45.8
      vertex 76 -28.2 47.8
    endloop
  endfacet
  facet normal -0.1950903220161184 0.9807852804032324 0
    outer loop
      vertex 76.31058285412303 -28.159110991546882 47.8
      vertex 76.31058285412303 -28.159110991546882 45.8
      vertex 76.15663143066406 -28.18973383364857 47.8
    endloop
  endfacet
  facet normal -0.3214394653031814 0.9469301294950989 0
    outer loop
      vertex 76.4592201188381 -28.108655439013543 47.8
      vertex 76.4592201188381 -28.108655439013543 45.8
      vertex 76.31058285412303 -28.159110991546882 47.8
    endloop
  endfacet
  facet normal 0.6593458151001 0.75183980747895 0
    outer loop
      vertex 75.26948628518953 -27.952024008349483 47.8
      vertex 75.26948628518953 -27.952024008349483 45.8
      vertex 75.15147186257614 -27.848528137423855 47.8
    endloop
  endfacet
  facet normal -0.442288690218991 0.8968727415326935 0
    outer loop
      vertex 76.6 -28.039230484541328 47.8
      vertex 76.6 -28.039230484541328 45.8
      vertex 76.4592201188381 -28.108655439013543 47.8
    endloop
  endfacet
  facet normal -0.5555702330195729 0.8314696123025648 0
    outer loop
      vertex 76.73051371481047 -27.952024008349483 47.8
      vertex 76.73051371481047 -27.952024008349483 45.8
      vertex 76.6 -28.039230484541328 47.8
    endloop
  endfacet
  facet normal -0.6593458151001 0.75183980747895 0
    outer loop
      vertex 76.84852813742386 -27.848528137423855 47.8
      vertex 76.84852813742386 -27.848528137423855 45.8
      vertex 76.73051371481047 -27.952024008349483 47.8
    endloop
  endfacet
  facet normal -0.7518398074789697 0.6593458151000777 0
    outer loop
      vertex 76.84852813742386 -27.848528137423855 47.8
      vertex 76.95202400834948 -27.730513714810463 47.8
      vertex 76.95202400834948 -27.730513714810463 45.8
    endloop
  endfacet
  facet normal -0.8314696123025578 0.5555702330195834 0
    outer loop
      vertex 76.95202400834948 -27.730513714810463 47.8
      vertex 77.03923048454132 -27.6 47.8
      vertex 77.03923048454132 -27.6 45.8
    endloop
  endfacet
  facet normal -0.8968727415326709 0.44228869021903655 0
    outer loop
      vertex 77.03923048454132 -27.6 47.8
      vertex 77.10865543901355 -27.459220118838108 47.8
      vertex 77.10865543901355 -27.459220118838108 45.8
    endloop
  endfacet
  facet normal -0.9469301294951082 0.3214394653031542 0
    outer loop
      vertex 77.10865543901355 -27.459220118838108 47.8
      vertex 77.15911099154688 -27.310582854123027 47.8
      vertex 77.15911099154688 -27.310582854123027 45.8
    endloop
  endfacet
  facet normal -0.9807852804032281 0.19509032201614018 0
    outer loop
      vertex 77.15911099154688 -27.310582854123027 47.8
      vertex 77.18973383364857 -27.156631430664063 47.8
      vertex 77.18973383364857 -27.156631430664063 45.8
    endloop
  endfacet
  facet normal -0.9978589232386033 0.06540312923014742 0
    outer loop
      vertex 77.18973383364857 -27.156631430664063 47.8
      vertex 77.2 -27 47.8
      vertex 77.2 -27 45.8
    endloop
  endfacet
  facet normal 0.9978589232386033 -0.06540312923014742 0
    outer loop
      vertex 74.81026616635143 -26.843368569335937 47.8
      vertex 74.8 -27 45.8
      vertex 74.81026616635143 -26.843368569335937 45.8
    endloop
  endfacet
  facet normal 0.9807852804032281 -0.19509032201614018 0
    outer loop
      vertex 74.84088900845312 -26.689417145876973 47.8
      vertex 74.81026616635143 -26.843368569335937 45.8
      vertex 74.84088900845312 -26.689417145876973 45.8
    endloop
  endfacet
  facet normal 0.9469301294951082 -0.3214394653031542 0
    outer loop
      vertex 74.89134456098645 -26.540779881161892 47.8
      vertex 74.84088900845312 -26.689417145876973 45.8
      vertex 74.89134456098645 -26.540779881161892 45.8
    endloop
  endfacet
  facet normal 0.8968727415326709 -0.44228869021903655 0
    outer loop
      vertex 74.96076951545868 -26.4 47.8
      vertex 74.89134456098645 -26.540779881161892 45.8
      vertex 74.96076951545868 -26.4 45.8
    endloop
  endfacet
  facet normal 0.8314696123025578 -0.5555702330195834 0
    outer loop
      vertex 75.04797599165052 -26.269486285189537 47.8
      vertex 74.96076951545868 -26.4 45.8
      vertex 75.04797599165052 -26.269486285189537 45.8
    endloop
  endfacet
  facet normal 0.7518398074789697 -0.6593458151000777 0
    outer loop
      vertex 75.15147186257614 -26.151471862576145 47.8
      vertex 75.04797599165052 -26.269486285189537 45.8
      vertex 75.15147186257614 -26.151471862576145 45.8
    endloop
  endfacet
  facet normal 0.6593458151001 -0.75183980747895 0
    outer loop
      vertex 75.26948628518953 -26.047975991650517 47.8
      vertex 75.15147186257614 -26.151471862576145 45.8
      vertex 75.26948628518953 -26.047975991650517 45.8
    endloop
  endfacet
  facet normal 0.5555702330195729 -0.8314696123025648 0
    outer loop
      vertex 75.4 -25.960769515458672 47.8
      vertex 75.26948628518953 -26.047975991650517 45.8
      vertex 75.4 -25.960769515458672 45.8
    endloop
  endfacet
  facet normal 0.442288690218991 -0.8968727415326935 0
    outer loop
      vertex 75.5407798811619 -25.891344560986457 47.8
      vertex 75.4 -25.960769515458672 45.8
      vertex 75.5407798811619 -25.891344560986457 45.8
    endloop
  endfacet
  facet normal 0.3214394653031814 -0.9469301294950989 0
    outer loop
      vertex 75.68941714587697 -25.840889008453118 47.8
      vertex 75.5407798811619 -25.891344560986457 45.8
      vertex 75.68941714587697 -25.840889008453118 45.8
    endloop
  endfacet
  facet normal 0.1950903220161184 -0.9807852804032324 0
    outer loop
      vertex 75.84336856933594 -25.81026616635143 47.8
      vertex 75.68941714587697 -25.840889008453118 45.8
      vertex 75.84336856933594 -25.81026616635143 45.8
    endloop
  endfacet
  facet normal 0.06540312923014742 -0.9978589232386033 0
    outer loop
      vertex 76 -25.8 47.8
      vertex 75.84336856933594 -25.81026616635143 45.8
      vertex 76 -25.8 45.8
    endloop
  endfacet
  facet normal -0.06540312923014742 -0.9978589232386033 0
    outer loop
      vertex 76.15663143066406 -25.81026616635143 47.8
      vertex 76 -25.8 45.8
      vertex 76.15663143066406 -25.81026616635143 45.8
    endloop
  endfacet
  facet normal -0.1950903220161184 -0.9807852804032324 0
    outer loop
      vertex 76.31058285412303 -25.840889008453118 47.8
      vertex 76.15663143066406 -25.81026616635143 45.8
      vertex 76.31058285412303 -25.840889008453118 45.8
    endloop
  endfacet
  facet normal -0.3214394653031814 -0.9469301294950989 0
    outer loop
      vertex 76.4592201188381 -25.891344560986457 47.8
      vertex 76.31058285412303 -25.840889008453118 45.8
      vertex 76.4592201188381 -25.891344560986457 45.8
    endloop
  endfacet
  facet normal -0.9469301294951082 -0.3214394653031542 0
    outer loop
      vertex 77.15911099154688 -26.689417145876973 47.8
      vertex 77.10865543901355 -26.540779881161892 45.8
      vertex 77.15911099154688 -26.689417145876973 45.8
    endloop
  endfacet
  facet normal -0.5555702330195729 -0.8314696123025648 0
    outer loop
      vertex 76.73051371481047 -26.047975991650517 47.8
      vertex 76.6 -25.960769515458672 45.8
      vertex 76.73051371481047 -26.047975991650517 45.8
    endloop
  endfacet
  facet normal -0.6593458151001 -0.75183980747895 0
    outer loop
      vertex 76.84852813742386 -26.151471862576145 47.8
      vertex 76.73051371481047 -26.047975991650517 45.8
      vertex 76.84852813742386 -26.151471862576145 45.8
    endloop
  endfacet
  facet normal -0.8968727415326709 -0.44228869021903655 0
    outer loop
      vertex 77.10865543901355 -26.540779881161892 47.8
      vertex 77.03923048454132 -26.4 45.8
      vertex 77.10865543901355 -26.540779881161892 45.8
    endloop
  endfacet
  facet normal -0.8314696123025578 -0.5555702330195834 0
    outer loop
      vertex 77.03923048454132 -26.4 47.8
      vertex 76.95202400834948 -26.269486285189537 45.8
      vertex 77.03923048454132 -26.4 45.8
    endloop
  endfacet
  facet normal -0.7518398074789697 -0.6593458151000777 0
    outer loop
      vertex 76.95202400834948 -26.269486285189537 47.8
      vertex 76.84852813742386 -26.151471862576145 45.8
      vertex 76.95202400834948 -26.269486285189537 45.8
    endloop
  endfacet
  facet normal -0.9978589232386033 -0.06540312923014742 0
    outer loop
      vertex 77.2 -27 47.8
      vertex 77.18973383364857 -26.843368569335937 45.8
      vertex 77.2 -27 45.8
    endloop
  endfacet
  facet normal -0.9807852804032281 -0.19509032201614018 0
    outer loop
      vertex 77.18973383364857 -26.843368569335937 47.8
      vertex 77.15911099154688 -26.689417145876973 45.8
      vertex 77.18973383364857 -26.843368569335937 45.8
    endloop
  endfacet
  facet normal -0.442288690218991 -0.8968727415326935 0
    outer loop
      vertex 76.6 -25.960769515458672 47.8
      vertex 76.4592201188381 -25.891344560986457 45.8
      vertex 76.6 -25.960769515458672 45.8
    endloop
  endfacet
  facet normal 0.9978589232386033 -0.06540312923014742 0
    outer loop
      vertex 74.81026616635143 -26.843368569335937 47.8
      vertex 74.8 -27 47.8
      vertex 74.8 -27 45.8
    endloop
  endfacet
  facet normal 0.9807852804032281 -0.19509032201614018 0
    outer loop
      vertex 74.84088900845312 -26.689417145876973 47.8
      vertex 74.81026616635143 -26.843368569335937 47.8
      vertex 74.81026616635143 -26.843368569335937 45.8
    endloop
  endfacet
  facet normal 0.9469301294951082 -0.3214394653031542 0
    outer loop
      vertex 74.89134456098645 -26.540779881161892 47.8
      vertex 74.84088900845312 -26.689417145876973 47.8
      vertex 74.84088900845312 -26.689417145876973 45.8
    endloop
  endfacet
  facet normal 0.8968727415326709 -0.44228869021903655 0
    outer loop
      vertex 74.96076951545868 -26.4 47.8
      vertex 74.89134456098645 -26.540779881161892 47.8
      vertex 74.89134456098645 -26.540779881161892 45.8
    endloop
  endfacet
  facet normal 0.8314696123025578 -0.5555702330195834 0
    outer loop
      vertex 75.04797599165052 -26.269486285189537 47.8
      vertex 74.96076951545868 -26.4 47.8
      vertex 74.96076951545868 -26.4 45.8
    endloop
  endfacet
  facet normal 0.7518398074789697 -0.6593458151000777 0
    outer loop
      vertex 75.15147186257614 -26.151471862576145 47.8
      vertex 75.04797599165052 -26.269486285189537 47.8
      vertex 75.04797599165052 -26.269486285189537 45.8
    endloop
  endfacet
  facet normal 0.6593458151001 -0.75183980747895 0
    outer loop
      vertex 75.15147186257614 -26.151471862576145 47.8
      vertex 75.15147186257614 -26.151471862576145 45.8
      vertex 75.26948628518953 -26.047975991650517 47.8
    endloop
  endfacet
  facet normal 0.5555702330195729 -0.8314696123025648 0
    outer loop
      vertex 75.26948628518953 -26.047975991650517 47.8
      vertex 75.26948628518953 -26.047975991650517 45.8
      vertex 75.4 -25.960769515458672 47.8
    endloop
  endfacet
  facet normal 0.442288690218991 -0.8968727415326935 0
    outer loop
      vertex 75.4 -25.960769515458672 47.8
      vertex 75.4 -25.960769515458672 45.8
      vertex 75.5407798811619 -25.891344560986457 47.8
    endloop
  endfacet
  facet normal 0.3214394653031814 -0.9469301294950989 0
    outer loop
      vertex 75.5407798811619 -25.891344560986457 47.8
      vertex 75.5407798811619 -25.891344560986457 45.8
      vertex 75.68941714587697 -25.840889008453118 47.8
    endloop
  endfacet
  facet normal 0.1950903220161184 -0.9807852804032324 0
    outer loop
      vertex 75.68941714587697 -25.840889008453118 47.8
      vertex 75.68941714587697 -25.840889008453118 45.8
      vertex 75.84336856933594 -25.81026616635143 47.8
    endloop
  endfacet
  facet normal 0.06540312923014742 -0.9978589232386033 0
    outer loop
      vertex 75.84336856933594 -25.81026616635143 47.8
      vertex 75.84336856933594 -25.81026616635143 45.8
      vertex 76 -25.8 47.8
    endloop
  endfacet
  facet normal -0.06540312923014742 -0.9978589232386033 0
    outer loop
      vertex 76 -25.8 47.8
      vertex 76 -25.8 45.8
      vertex 76.15663143066406 -25.81026616635143 47.8
    endloop
  endfacet
  facet normal -0.1950903220161184 -0.9807852804032324 0
    outer loop
      vertex 76.15663143066406 -25.81026616635143 47.8
      vertex 76.15663143066406 -25.81026616635143 45.8
      vertex 76.31058285412303 -25.840889008453118 47.8
    endloop
  endfacet
  facet normal -0.3214394653031814 -0.9469301294950989 0
    outer loop
      vertex 76.31058285412303 -25.840889008453118 47.8
      vertex 76.31058285412303 -25.840889008453118 45.8
      vertex 76.4592201188381 -25.891344560986457 47.8
    endloop
  endfacet
  facet normal -0.9469301294951082 -0.3214394653031542 0
    outer loop
      vertex 77.15911099154688 -26.689417145876973 47.8
      vertex 77.10865543901355 -26.540779881161892 47.8
      vertex 77.10865543901355 -26.540779881161892 45.8
    endloop
  endfacet
  facet normal -0.6593458151001 -0.75183980747895 0
    outer loop
      vertex 76.73051371481047 -26.047975991650517 47.8
      vertex 76.73051371481047 -26.047975991650517 45.8
      vertex 76.84852813742386 -26.151471862576145 47.8
    endloop
  endfacet
  facet normal -0.8968727415326709 -0.44228869021903655 0
    outer loop
      vertex 77.10865543901355 -26.540779881161892 47.8
      vertex 77.03923048454132 -26.4 47.8
      vertex 77.03923048454132 -26.4 45.8
    endloop
  endfacet
  facet normal -0.8314696123025578 -0.5555702330195834 0
    outer loop
      vertex 77.03923048454132 -26.4 47.8
      vertex 76.95202400834948 -26.269486285189537 47.8
      vertex 76.95202400834948 -26.269486285189537 45.8
    endloop
  endfacet
  facet normal -0.7518398074789697 -0.6593458151000777 0
    outer loop
      vertex 76.95202400834948 -26.269486285189537 47.8
      vertex 76.84852813742386 -26.151471862576145 47.8
      vertex 76.84852813742386 -26.151471862576145 45.8
    endloop
  endfacet
  facet normal -0.9978589232386033 -0.06540312923014742 0
    outer loop
      vertex 77.2 -27 47.8
      vertex 77.18973383364857 -26.843368569335937 47.8
      vertex 77.18973383364857 -26.843368569335937 45.8
    endloop
  endfacet
  facet normal -0.9807852804032281 -0.19509032201614018 0
    outer loop
      vertex 77.18973383364857 -26.843368569335937 47.8
      vertex 77.15911099154688 -26.689417145876973 47.8
      vertex 77.15911099154688 -26.689417145876973 45.8
    endloop
  endfacet
  facet normal -0.442288690218991 -0.8968727415326935 0
    outer loop
      vertex 76.4592201188381 -25.891344560986457 47.8
      vertex 76.4592201188381 -25.891344560986457 45.8
      vertex 76.6 -25.960769515458672 47.8
    endloop
  endfacet
  facet normal -0.5555702330195729 -0.8314696123025648 0
    outer loop
      vertex 76.6 -25.960769515458672 47.8
      vertex 76.6 -25.960769515458672 45.8
      vertex 76.73051371481047 -26.047975991650517 47.8
    endloop
  endfacet
  facet normal 0.442288690218991 0.8968727415326935 0
    outer loop
      vertex 92.4 -28.039230484541328 45.8
      vertex 92.4 -28.039230484541328 47.8
      vertex 92.5407798811619 -28.108655439013543 45.8
    endloop
  endfacet
  facet normal 0.9807852804032281 0.19509032201614018 0
    outer loop
      vertex 91.84088900845312 -27.310582854123027 45.8
      vertex 91.81026616635143 -27.156631430664063 45.8
      vertex 91.81026616635143 -27.156631430664063 47.8
    endloop
  endfacet
  facet normal 0.9978589232386033 0.06540312923014742 0
    outer loop
      vertex 91.81026616635143 -27.156631430664063 45.8
      vertex 91.8 -27 45.8
      vertex 91.8 -27 47.8
    endloop
  endfacet
  facet normal 0.7518398074789697 0.6593458151000777 0
    outer loop
      vertex 92.15147186257614 -27.848528137423855 45.8
      vertex 92.04797599165052 -27.730513714810463 45.8
      vertex 92.04797599165052 -27.730513714810463 47.8
    endloop
  endfacet
  facet normal 0.8314696123025578 0.5555702330195834 0
    outer loop
      vertex 92.04797599165052 -27.730513714810463 45.8
      vertex 91.96076951545868 -27.6 45.8
      vertex 91.96076951545868 -27.6 47.8
    endloop
  endfacet
  facet normal 0.8968727415326709 0.44228869021903655 0
    outer loop
      vertex 91.96076951545868 -27.6 45.8
      vertex 91.89134456098645 -27.459220118838108 45.8
      vertex 91.89134456098645 -27.459220118838108 47.8
    endloop
  endfacet
  facet normal 0.6593458151001 0.75183980747895 0
    outer loop
      vertex 92.15147186257614 -27.848528137423855 45.8
      vertex 92.15147186257614 -27.848528137423855 47.8
      vertex 92.26948628518953 -27.952024008349483 45.8
    endloop
  endfacet
  facet normal 0.5555702330195729 0.8314696123025648 0
    outer loop
      vertex 92.26948628518953 -27.952024008349483 45.8
      vertex 92.26948628518953 -27.952024008349483 47.8
      vertex 92.4 -28.039230484541328 45.8
    endloop
  endfacet
  facet normal 0.9469301294951082 0.3214394653031542 0
    outer loop
      vertex 91.89134456098645 -27.459220118838108 45.8
      vertex 91.84088900845312 -27.310582854123027 45.8
      vertex 91.84088900845312 -27.310582854123027 47.8
    endloop
  endfacet
  facet normal 0.3214394653031814 0.9469301294950989 0
    outer loop
      vertex 92.5407798811619 -28.108655439013543 45.8
      vertex 92.5407798811619 -28.108655439013543 47.8
      vertex 92.68941714587697 -28.159110991546882 45.8
    endloop
  endfacet
  facet normal 0.1950903220161184 0.9807852804032324 0
    outer loop
      vertex 92.68941714587697 -28.159110991546882 45.8
      vertex 92.68941714587697 -28.159110991546882 47.8
      vertex 92.84336856933594 -28.18973383364857 45.8
    endloop
  endfacet
  facet normal 0.06540312923014742 0.9978589232386033 0
    outer loop
      vertex 92.84336856933594 -28.18973383364857 45.8
      vertex 92.84336856933594 -28.18973383364857 47.8
      vertex 93 -28.2 45.8
    endloop
  endfacet
  facet normal -0.06540312923014742 0.9978589232386033 0
    outer loop
      vertex 93 -28.2 45.8
      vertex 93 -28.2 47.8
      vertex 93.15663143066406 -28.18973383364857 45.8
    endloop
  endfacet
  facet normal -0.1950903220161184 0.9807852804032324 0
    outer loop
      vertex 93.15663143066406 -28.18973383364857 45.8
      vertex 93.15663143066406 -28.18973383364857 47.8
      vertex 93.31058285412303 -28.159110991546882 45.8
    endloop
  endfacet
  facet normal -0.3214394653031814 0.9469301294950989 0
    outer loop
      vertex 93.31058285412303 -28.159110991546882 45.8
      vertex 93.31058285412303 -28.159110991546882 47.8
      vertex 93.4592201188381 -28.108655439013543 45.8
    endloop
  endfacet
  facet normal -0.442288690218991 0.8968727415326935 0
    outer loop
      vertex 93.4592201188381 -28.108655439013543 45.8
      vertex 93.4592201188381 -28.108655439013543 47.8
      vertex 93.6 -28.039230484541328 45.8
    endloop
  endfacet
  facet normal -0.5555702330195729 0.8314696123025648 0
    outer loop
      vertex 93.6 -28.039230484541328 45.8
      vertex 93.6 -28.039230484541328 47.8
      vertex 93.73051371481047 -27.952024008349483 45.8
    endloop
  endfacet
  facet normal -0.6593458151001 0.75183980747895 0
    outer loop
      vertex 93.73051371481047 -27.952024008349483 45.8
      vertex 93.73051371481047 -27.952024008349483 47.8
      vertex 93.84852813742386 -27.848528137423855 45.8
    endloop
  endfacet
  facet normal -0.7518398074789697 0.6593458151000777 0
    outer loop
      vertex 93.84852813742386 -27.848528137423855 45.8
      vertex 93.84852813742386 -27.848528137423855 47.8
      vertex 93.95202400834948 -27.730513714810463 45.8
    endloop
  endfacet
  facet normal -0.8314696123025578 0.5555702330195834 0
    outer loop
      vertex 94.03923048454132 -27.6 45.8
      vertex 93.95202400834948 -27.730513714810463 45.8
      vertex 93.95202400834948 -27.730513714810463 47.8
    endloop
  endfacet
  facet normal -0.8968727415326709 0.44228869021903655 0
    outer loop
      vertex 94.10865543901355 -27.459220118838108 45.8
      vertex 94.03923048454132 -27.6 45.8
      vertex 94.03923048454132 -27.6 47.8
    endloop
  endfacet
  facet normal -0.9469301294951082 0.3214394653031542 0
    outer loop
      vertex 94.15911099154688 -27.310582854123027 45.8
      vertex 94.10865543901355 -27.459220118838108 45.8
      vertex 94.10865543901355 -27.459220118838108 47.8
    endloop
  endfacet
  facet normal -0.9807852804032281 0.19509032201614018 0
    outer loop
      vertex 94.18973383364857 -27.156631430664063 45.8
      vertex 94.15911099154688 -27.310582854123027 45.8
      vertex 94.15911099154688 -27.310582854123027 47.8
    endloop
  endfacet
  facet normal -0.9978589232386033 0.06540312923014742 0
    outer loop
      vertex 94.2 -27 45.8
      vertex 94.18973383364857 -27.156631430664063 45.8
      vertex 94.18973383364857 -27.156631430664063 47.8
    endloop
  endfacet
  facet normal 0.5555702330195729 0.8314696123025648 0
    outer loop
      vertex 92.4 -28.039230484541328 45.8
      vertex 92.26948628518953 -27.952024008349483 47.8
      vertex 92.4 -28.039230484541328 47.8
    endloop
  endfacet
  facet normal 0.442288690218991 0.8968727415326935 0
    outer loop
      vertex 92.5407798811619 -28.108655439013543 45.8
      vertex 92.4 -28.039230484541328 47.8
      vertex 92.5407798811619 -28.108655439013543 47.8
    endloop
  endfacet
  facet normal 0.9807852804032281 0.19509032201614018 0
    outer loop
      vertex 91.84088900845312 -27.310582854123027 45.8
      vertex 91.81026616635143 -27.156631430664063 47.8
      vertex 91.84088900845312 -27.310582854123027 47.8
    endloop
  endfacet
  facet normal 0.9978589232386033 0.06540312923014742 0
    outer loop
      vertex 91.81026616635143 -27.156631430664063 45.8
      vertex 91.8 -27 47.8
      vertex 91.81026616635143 -27.156631430664063 47.8
    endloop
  endfacet
  facet normal 0.7518398074789697 0.6593458151000777 0
    outer loop
      vertex 92.15147186257614 -27.848528137423855 45.8
      vertex 92.04797599165052 -27.730513714810463 47.8
      vertex 92.15147186257614 -27.848528137423855 47.8
    endloop
  endfacet
  facet normal 0.8314696123025578 0.5555702330195834 0
    outer loop
      vertex 92.04797599165052 -27.730513714810463 45.8
      vertex 91.96076951545868 -27.6 47.8
      vertex 92.04797599165052 -27.730513714810463 47.8
    endloop
  endfacet
  facet normal 0.8968727415326709 0.44228869021903655 0
    outer loop
      vertex 91.96076951545868 -27.6 45.8
      vertex 91.89134456098645 -27.459220118838108 47.8
      vertex 91.96076951545868 -27.6 47.8
    endloop
  endfacet
  facet normal 0.6593458151001 0.75183980747895 0
    outer loop
      vertex 92.26948628518953 -27.952024008349483 45.8
      vertex 92.15147186257614 -27.848528137423855 47.8
      vertex 92.26948628518953 -27.952024008349483 47.8
    endloop
  endfacet
  facet normal 0.9469301294951082 0.3214394653031542 0
    outer loop
      vertex 91.89134456098645 -27.459220118838108 45.8
      vertex 91.84088900845312 -27.310582854123027 47.8
      vertex 91.89134456098645 -27.459220118838108 47.8
    endloop
  endfacet
  facet normal 0.3214394653031814 0.9469301294950989 0
    outer loop
      vertex 92.68941714587697 -28.159110991546882 45.8
      vertex 92.5407798811619 -28.108655439013543 47.8
      vertex 92.68941714587697 -28.159110991546882 47.8
    endloop
  endfacet
  facet normal 0.1950903220161184 0.9807852804032324 0
    outer loop
      vertex 92.84336856933594 -28.18973383364857 45.8
      vertex 92.68941714587697 -28.159110991546882 47.8
      vertex 92.84336856933594 -28.18973383364857 47.8
    endloop
  endfacet
  facet normal 0.06540312923014742 0.9978589232386033 0
    outer loop
      vertex 93 -28.2 45.8
      vertex 92.84336856933594 -28.18973383364857 47.8
      vertex 93 -28.2 47.8
    endloop
  endfacet
  facet normal -0.06540312923014742 0.9978589232386033 0
    outer loop
      vertex 93.15663143066406 -28.18973383364857 45.8
      vertex 93 -28.2 47.8
      vertex 93.15663143066406 -28.18973383364857 47.8
    endloop
  endfacet
  facet normal -0.1950903220161184 0.9807852804032324 0
    outer loop
      vertex 93.31058285412303 -28.159110991546882 45.8
      vertex 93.15663143066406 -28.18973383364857 47.8
      vertex 93.31058285412303 -28.159110991546882 47.8
    endloop
  endfacet
  facet normal -0.3214394653031814 0.9469301294950989 0
    outer loop
      vertex 93.4592201188381 -28.108655439013543 45.8
      vertex 93.31058285412303 -28.159110991546882 47.8
      vertex 93.4592201188381 -28.108655439013543 47.8
    endloop
  endfacet
  facet normal -0.442288690218991 0.8968727415326935 0
    outer loop
      vertex 93.6 -28.039230484541328 45.8
      vertex 93.4592201188381 -28.108655439013543 47.8
      vertex 93.6 -28.039230484541328 47.8
    endloop
  endfacet
  facet normal -0.5555702330195729 0.8314696123025648 0
    outer loop
      vertex 93.73051371481047 -27.952024008349483 45.8
      vertex 93.6 -28.039230484541328 47.8
      vertex 93.73051371481047 -27.952024008349483 47.8
    endloop
  endfacet
  facet normal -0.6593458151001 0.75183980747895 0
    outer loop
      vertex 93.84852813742386 -27.848528137423855 45.8
      vertex 93.73051371481047 -27.952024008349483 47.8
      vertex 93.84852813742386 -27.848528137423855 47.8
    endloop
  endfacet
  facet normal -0.7518398074789697 0.6593458151000777 0
    outer loop
      vertex 93.95202400834948 -27.730513714810463 45.8
      vertex 93.84852813742386 -27.848528137423855 47.8
      vertex 93.95202400834948 -27.730513714810463 47.8
    endloop
  endfacet
  facet normal -0.8314696123025578 0.5555702330195834 0
    outer loop
      vertex 94.03923048454132 -27.6 45.8
      vertex 93.95202400834948 -27.730513714810463 47.8
      vertex 94.03923048454132 -27.6 47.8
    endloop
  endfacet
  facet normal -0.8968727415326709 0.44228869021903655 0
    outer loop
      vertex 94.10865543901355 -27.459220118838108 45.8
      vertex 94.03923048454132 -27.6 47.8
      vertex 94.10865543901355 -27.459220118838108 47.8
    endloop
  endfacet
  facet normal -0.9469301294951082 0.3214394653031542 0
    outer loop
      vertex 94.15911099154688 -27.310582854123027 45.8
      vertex 94.10865543901355 -27.459220118838108 47.8
      vertex 94.15911099154688 -27.310582854123027 47.8
    endloop
  endfacet
  facet normal -0.9807852804032281 0.19509032201614018 0
    outer loop
      vertex 94.18973383364857 -27.156631430664063 45.8
      vertex 94.15911099154688 -27.310582854123027 47.8
      vertex 94.18973383364857 -27.156631430664063 47.8
    endloop
  endfacet
  facet normal -0.9978589232386033 0.06540312923014742 0
    outer loop
      vertex 94.2 -27 45.8
      vertex 94.18973383364857 -27.156631430664063 47.8
      vertex 94.2 -27 47.8
    endloop
  endfacet
  facet normal 0.9978589232386033 -0.06540312923014742 0
    outer loop
      vertex 91.8 -27 45.8
      vertex 91.81026616635143 -26.843368569335937 45.8
      vertex 91.81026616635143 -26.843368569335937 47.8
    endloop
  endfacet
  facet normal 0.9807852804032281 -0.19509032201614018 0
    outer loop
      vertex 91.81026616635143 -26.843368569335937 45.8
      vertex 91.84088900845312 -26.689417145876973 45.8
      vertex 91.84088900845312 -26.689417145876973 47.8
    endloop
  endfacet
  facet normal 0.9469301294951082 -0.3214394653031542 0
    outer loop
      vertex 91.84088900845312 -26.689417145876973 45.8
      vertex 91.89134456098645 -26.540779881161892 45.8
      vertex 91.89134456098645 -26.540779881161892 47.8
    endloop
  endfacet
  facet normal 0.8968727415326709 -0.44228869021903655 0
    outer loop
      vertex 91.89134456098645 -26.540779881161892 45.8
      vertex 91.96076951545868 -26.4 45.8
      vertex 91.96076951545868 -26.4 47.8
    endloop
  endfacet
  facet normal 0.8314696123025578 -0.5555702330195834 0
    outer loop
      vertex 91.96076951545868 -26.4 45.8
      vertex 92.04797599165052 -26.269486285189537 45.8
      vertex 92.04797599165052 -26.269486285189537 47.8
    endloop
  endfacet
  facet normal 0.7518398074789697 -0.6593458151000777 0
    outer loop
      vertex 92.04797599165052 -26.269486285189537 45.8
      vertex 92.15147186257614 -26.151471862576145 45.8
      vertex 92.15147186257614 -26.151471862576145 47.8
    endloop
  endfacet
  facet normal 0.6593458151001 -0.75183980747895 0
    outer loop
      vertex 92.26948628518953 -26.047975991650517 45.8
      vertex 92.26948628518953 -26.047975991650517 47.8
      vertex 92.15147186257614 -26.151471862576145 45.8
    endloop
  endfacet
  facet normal 0.5555702330195729 -0.8314696123025648 0
    outer loop
      vertex 92.4 -25.960769515458672 45.8
      vertex 92.4 -25.960769515458672 47.8
      vertex 92.26948628518953 -26.047975991650517 45.8
    endloop
  endfacet
  facet normal 0.442288690218991 -0.8968727415326935 0
    outer loop
      vertex 92.5407798811619 -25.891344560986457 45.8
      vertex 92.5407798811619 -25.891344560986457 47.8
      vertex 92.4 -25.960769515458672 45.8
    endloop
  endfacet
  facet normal -0.5555702330195729 -0.8314696123025648 0
    outer loop
      vertex 93.73051371481047 -26.047975991650517 45.8
      vertex 93.73051371481047 -26.047975991650517 47.8
      vertex 93.6 -25.960769515458672 45.8
    endloop
  endfacet
  facet normal -0.6593458151001 -0.75183980747895 0
    outer loop
      vertex 93.84852813742386 -26.151471862576145 45.8
      vertex 93.84852813742386 -26.151471862576145 47.8
      vertex 93.73051371481047 -26.047975991650517 45.8
    endloop
  endfacet
  facet normal 0.3214394653031814 -0.9469301294950989 0
    outer loop
      vertex 92.68941714587697 -25.840889008453118 45.8
      vertex 92.68941714587697 -25.840889008453118 47.8
      vertex 92.5407798811619 -25.891344560986457 45.8
    endloop
  endfacet
  facet normal 0.1950903220161184 -0.9807852804032324 0
    outer loop
      vertex 92.84336856933594 -25.81026616635143 45.8
      vertex 92.84336856933594 -25.81026616635143 47.8
      vertex 92.68941714587697 -25.840889008453118 45.8
    endloop
  endfacet
  facet normal 0.06540312923014742 -0.9978589232386033 0
    outer loop
      vertex 93 -25.8 45.8
      vertex 93 -25.8 47.8
      vertex 92.84336856933594 -25.81026616635143 45.8
    endloop
  endfacet
  facet normal -0.06540312923014742 -0.9978589232386033 0
    outer loop
      vertex 93.15663143066406 -25.81026616635143 45.8
      vertex 93.15663143066406 -25.81026616635143 47.8
      vertex 93 -25.8 45.8
    endloop
  endfacet
  facet normal -0.1950903220161184 -0.9807852804032324 0
    outer loop
      vertex 93.31058285412303 -25.840889008453118 45.8
      vertex 93.31058285412303 -25.840889008453118 47.8
      vertex 93.15663143066406 -25.81026616635143 45.8
    endloop
  endfacet
  facet normal -0.3214394653031814 -0.9469301294950989 0
    outer loop
      vertex 93.4592201188381 -25.891344560986457 45.8
      vertex 93.4592201188381 -25.891344560986457 47.8
      vertex 93.31058285412303 -25.840889008453118 45.8
    endloop
  endfacet
  facet normal -0.442288690218991 -0.8968727415326935 0
    outer loop
      vertex 93.6 -25.960769515458672 45.8
      vertex 93.6 -25.960769515458672 47.8
      vertex 93.4592201188381 -25.891344560986457 45.8
    endloop
  endfacet
  facet normal -0.9978589232386033 -0.06540312923014742 0
    outer loop
      vertex 94.18973383364857 -26.843368569335937 45.8
      vertex 94.2 -27 45.8
      vertex 94.2 -27 47.8
    endloop
  endfacet
  facet normal -0.9807852804032281 -0.19509032201614018 0
    outer loop
      vertex 94.15911099154688 -26.689417145876973 45.8
      vertex 94.18973383364857 -26.843368569335937 45.8
      vertex 94.18973383364857 -26.843368569335937 47.8
    endloop
  endfacet
  facet normal -0.9469301294951082 -0.3214394653031542 0
    outer loop
      vertex 94.10865543901355 -26.540779881161892 45.8
      vertex 94.15911099154688 -26.689417145876973 45.8
      vertex 94.15911099154688 -26.689417145876973 47.8
    endloop
  endfacet
  facet normal -0.8314696123025578 -0.5555702330195834 0
    outer loop
      vertex 93.95202400834948 -26.269486285189537 45.8
      vertex 94.03923048454132 -26.4 45.8
      vertex 94.03923048454132 -26.4 47.8
    endloop
  endfacet
  facet normal -0.8968727415326709 -0.44228869021903655 0
    outer loop
      vertex 94.03923048454132 -26.4 45.8
      vertex 94.10865543901355 -26.540779881161892 45.8
      vertex 94.10865543901355 -26.540779881161892 47.8
    endloop
  endfacet
  facet normal -0.7518398074789697 -0.6593458151000777 0
    outer loop
      vertex 93.84852813742386 -26.151471862576145 45.8
      vertex 93.95202400834948 -26.269486285189537 45.8
      vertex 93.95202400834948 -26.269486285189537 47.8
    endloop
  endfacet
  facet normal 0.9978589232386033 -0.06540312923014742 0
    outer loop
      vertex 91.8 -27 45.8
      vertex 91.81026616635143 -26.843368569335937 47.8
      vertex 91.8 -27 47.8
    endloop
  endfacet
  facet normal 0.9807852804032281 -0.19509032201614018 0
    outer loop
      vertex 91.81026616635143 -26.843368569335937 45.8
      vertex 91.84088900845312 -26.689417145876973 47.8
      vertex 91.81026616635143 -26.843368569335937 47.8
    endloop
  endfacet
  facet normal 0.9469301294951082 -0.3214394653031542 0
    outer loop
      vertex 91.84088900845312 -26.689417145876973 45.8
      vertex 91.89134456098645 -26.540779881161892 47.8
      vertex 91.84088900845312 -26.689417145876973 47.8
    endloop
  endfacet
  facet normal 0.8968727415326709 -0.44228869021903655 0
    outer loop
      vertex 91.89134456098645 -26.540779881161892 45.8
      vertex 91.96076951545868 -26.4 47.8
      vertex 91.89134456098645 -26.540779881161892 47.8
    endloop
  endfacet
  facet normal 0.8314696123025578 -0.5555702330195834 0
    outer loop
      vertex 91.96076951545868 -26.4 45.8
      vertex 92.04797599165052 -26.269486285189537 47.8
      vertex 91.96076951545868 -26.4 47.8
    endloop
  endfacet
  facet normal 0.7518398074789697 -0.6593458151000777 0
    outer loop
      vertex 92.04797599165052 -26.269486285189537 45.8
      vertex 92.15147186257614 -26.151471862576145 47.8
      vertex 92.04797599165052 -26.269486285189537 47.8
    endloop
  endfacet
  facet normal 0.6593458151001 -0.75183980747895 0
    outer loop
      vertex 92.15147186257614 -26.151471862576145 45.8
      vertex 92.26948628518953 -26.047975991650517 47.8
      vertex 92.15147186257614 -26.151471862576145 47.8
    endloop
  endfacet
  facet normal 0.5555702330195729 -0.8314696123025648 0
    outer loop
      vertex 92.26948628518953 -26.047975991650517 45.8
      vertex 92.4 -25.960769515458672 47.8
      vertex 92.26948628518953 -26.047975991650517 47.8
    endloop
  endfacet
  facet normal 0.442288690218991 -0.8968727415326935 0
    outer loop
      vertex 92.4 -25.960769515458672 45.8
      vertex 92.5407798811619 -25.891344560986457 47.8
      vertex 92.4 -25.960769515458672 47.8
    endloop
  endfacet
  facet normal -0.6593458151001 -0.75183980747895 0
    outer loop
      vertex 93.73051371481047 -26.047975991650517 45.8
      vertex 93.84852813742386 -26.151471862576145 47.8
      vertex 93.73051371481047 -26.047975991650517 47.8
    endloop
  endfacet
  facet normal 0.3214394653031814 -0.9469301294950989 0
    outer loop
      vertex 92.5407798811619 -25.891344560986457 45.8
      vertex 92.68941714587697 -25.840889008453118 47.8
      vertex 92.5407798811619 -25.891344560986457 47.8
    endloop
  endfacet
  facet normal 0.1950903220161184 -0.9807852804032324 0
    outer loop
      vertex 92.68941714587697 -25.840889008453118 45.8
      vertex 92.84336856933594 -25.81026616635143 47.8
      vertex 92.68941714587697 -25.840889008453118 47.8
    endloop
  endfacet
  facet normal 0.06540312923014742 -0.9978589232386033 0
    outer loop
      vertex 92.84336856933594 -25.81026616635143 45.8
      vertex 93 -25.8 47.8
      vertex 92.84336856933594 -25.81026616635143 47.8
    endloop
  endfacet
  facet normal -0.06540312923014742 -0.9978589232386033 0
    outer loop
      vertex 93 -25.8 45.8
      vertex 93.15663143066406 -25.81026616635143 47.8
      vertex 93 -25.8 47.8
    endloop
  endfacet
  facet normal -0.1950903220161184 -0.9807852804032324 0
    outer loop
      vertex 93.15663143066406 -25.81026616635143 45.8
      vertex 93.31058285412303 -25.840889008453118 47.8
      vertex 93.15663143066406 -25.81026616635143 47.8
    endloop
  endfacet
  facet normal -0.3214394653031814 -0.9469301294950989 0
    outer loop
      vertex 93.31058285412303 -25.840889008453118 45.8
      vertex 93.4592201188381 -25.891344560986457 47.8
      vertex 93.31058285412303 -25.840889008453118 47.8
    endloop
  endfacet
  facet normal -0.442288690218991 -0.8968727415326935 0
    outer loop
      vertex 93.4592201188381 -25.891344560986457 45.8
      vertex 93.6 -25.960769515458672 47.8
      vertex 93.4592201188381 -25.891344560986457 47.8
    endloop
  endfacet
  facet normal -0.5555702330195729 -0.8314696123025648 0
    outer loop
      vertex 93.6 -25.960769515458672 45.8
      vertex 93.73051371481047 -26.047975991650517 47.8
      vertex 93.6 -25.960769515458672 47.8
    endloop
  endfacet
  facet normal -0.9978589232386033 -0.06540312923014742 0
    outer loop
      vertex 94.18973383364857 -26.843368569335937 45.8
      vertex 94.2 -27 47.8
      vertex 94.18973383364857 -26.843368569335937 47.8
    endloop
  endfacet
  facet normal -0.9807852804032281 -0.19509032201614018 0
    outer loop
      vertex 94.15911099154688 -26.689417145876973 45.8
      vertex 94.18973383364857 -26.843368569335937 47.8
      vertex 94.15911099154688 -26.689417145876973 47.8
    endloop
  endfacet
  facet normal -0.9469301294951082 -0.3214394653031542 0
    outer loop
      vertex 94.10865543901355 -26.540779881161892 45.8
      vertex 94.15911099154688 -26.689417145876973 47.8
      vertex 94.10865543901355 -26.540779881161892 47.8
    endloop
  endfacet
  facet normal -0.8314696123025578 -0.5555702330195834 0
    outer loop
      vertex 93.95202400834948 -26.269486285189537 45.8
      vertex 94.03923048454132 -26.4 47.8
      vertex 93.95202400834948 -26.269486285189537 47.8
    endloop
  endfacet
  facet normal -0.8968727415326709 -0.44228869021903655 0
    outer loop
      vertex 94.03923048454132 -26.4 45.8
      vertex 94.10865543901355 -26.540779881161892 47.8
      vertex 94.03923048454132 -26.4 47.8
    endloop
  endfacet
  facet normal -0.7518398074789697 -0.6593458151000777 0
    outer loop
      vertex 93.84852813742386 -26.151471862576145 45.8
      vertex 93.95202400834948 -26.269486285189537 47.8
      vertex 93.84852813742386 -26.151471862576145 47.8
    endloop
  endfacet
  facet normal 1 0 0
    outer loop
      vertex 90.8 -19 45.8
      vertex 90.8 -19 47.8
      vertex 90.8 -20.7 45.8
    endloop
  endfacet
  facet normal 0 1 0
    outer loop
      vertex 90.8 -20.7 45.8
      vertex 90.8 -20.7 47.8
      vertex 92.92625 -20.7 45.8
    endloop
  endfacet
  facet normal 0 1 0
    outer loop
      vertex 92.92625 -20.7 45.8
      vertex 95.19999999999999 -20.7 47.8
      vertex 95.19999999999999 -20.7 45.8
    endloop
  endfacet
  facet normal 1 0 0
    outer loop
      vertex 90.8 -20.7 45.8
      vertex 90.8 -19 47.8
      vertex 90.8 -20.7 47.8
    endloop
  endfacet
  facet normal 0 1 0
    outer loop
      vertex 92.92625 -20.7 45.8
      vertex 90.8 -20.7 47.8
      vertex 95.19999999999999 -20.7 47.8
    endloop
  endfacet
  facet normal 0 0 -1
    outer loop
      vertex 73.8 -35 45.8
      vertex 75.15147186257614 -27.848528137423855 45.8
      vertex 75.26948628518953 -27.952024008349483 45.8
    endloop
  endfacet
  facet normal 0 0 -1
    outer loop
      vertex 73.8 -35 45.8
      vertex 74.89134456098645 -27.459220118838108 45.8
      vertex 74.96076951545868 -27.6 45.8
    endloop
  endfacet
  facet normal 0 0 -1
    outer loop
      vertex 73.8 -35 45.8
      vertex 74.96076951545868 -27.6 45.8
      vertex 75.04797599165052 -27.730513714810463 45.8
    endloop
  endfacet
  facet normal 0 0 -1
    outer loop
      vertex 73.8 -35 45.8
      vertex 75.04797599165052 -27.730513714810463 45.8
      vertex 75.15147186257614 -27.848528137423855 45.8
    endloop
  endfacet
  facet normal 0 0 -1
    outer loop
      vertex 73.8 -35 45.8
      vertex 75.4 -28.039230484541328 45.8
      vertex 75.5407798811619 -28.108655439013543 45.8
    endloop
  endfacet
  facet normal 0 0 -1
    outer loop
      vertex 73.8 -35 45.8
      vertex 75.26948628518953 -27.952024008349483 45.8
      vertex 75.4 -28.039230484541328 45.8
    endloop
  endfacet
  facet normal 0 0 -1
    outer loop
      vertex 73.8 -35 45.8
      vertex 75.5407798811619 -28.108655439013543 45.8
      vertex 75.68941714587697 -28.159110991546882 45.8
    endloop
  endfacet
  facet normal 0 0 -1
    outer loop
      vertex 73.8 -35 45.8
      vertex 75.68941714587697 -28.159110991546882 45.8
      vertex 75.84336856933594 -28.18973383364857 45.8
    endloop
  endfacet
  facet normal 0 0 -1
    outer loop
      vertex 73.8 -35 45.8
      vertex 74.84088900845312 -27.310582854123027 45.8
      vertex 74.89134456098645 -27.459220118838108 45.8
    endloop
  endfacet
  facet normal 0 0 -1
    outer loop
      vertex 73.8 -35 45.8
      vertex 74.81026616635143 -27.156631430664063 45.8
      vertex 74.84088900845312 -27.310582854123027 45.8
    endloop
  endfacet
  facet normal 0 0 -1
    outer loop
      vertex 73.8 -35 45.8
      vertex 74.8 -27 45.8
      vertex 74.81026616635143 -27.156631430664063 45.8
    endloop
  endfacet
  facet normal 0 0 -1
    outer loop
      vertex 73.8 -35 45.8
      vertex 75.84336856933594 -28.18973383364857 45.8
      vertex 76 -28.2 45.8
    endloop
  endfacet
  facet normal 0 0 -1
    outer loop
      vertex 73.8 -35 45.8
      vertex 76 -28.2 45.8
      vertex 76.15663143066406 -28.18973383364857 45.8
    endloop
  endfacet
  facet normal 0 0 -1
    outer loop
      vertex 73.8 -35 45.8
      vertex 76.15663143066406 -28.18973383364857 45.8
      vertex 76.31058285412303 -28.159110991546882 45.8
    endloop
  endfacet
  facet normal 0 0 -1
    outer loop
      vertex 73.8 -35 45.8
      vertex 76.31058285412303 -28.159110991546882 45.8
      vertex 76.4592201188381 -28.108655439013543 45.8
    endloop
  endfacet
  facet normal 0 0 -1
    outer loop
      vertex 73.8 -35 45.8
      vertex 76.4592201188381 -28.108655439013543 45.8
      vertex 92.92625 -20.7 45.8
    endloop
  endfacet
  facet normal -1 0 0
    outer loop
      vertex 73.8 -35 45.8
      vertex 73.8 -35 47.8
      vertex 73.8 -19 47.8
    endloop
  endfacet
  facet normal 0 0 1
    outer loop
      vertex 73.8 -35 47.8
      vertex 75.26948628518953 -27.952024008349483 47.8
      vertex 75.15147186257614 -27.848528137423855 47.8
    endloop
  endfacet
  facet normal 0 0 1
    outer loop
      vertex 73.8 -35 47.8
      vertex 74.96076951545868 -27.6 47.8
      vertex 74.89134456098645 -27.459220118838108 47.8
    endloop
  endfacet
  facet normal 0 0 1
    outer loop
      vertex 73.8 -35 47.8
      vertex 75.04797599165052 -27.730513714810463 47.8
      vertex 74.96076951545868 -27.6 47.8
    endloop
  endfacet
  facet normal 0 0 1
    outer loop
      vertex 73.8 -35 47.8
      vertex 75.15147186257614 -27.848528137423855 47.8
      vertex 75.04797599165052 -27.730513714810463 47.8
    endloop
  endfacet
  facet normal 0 0 1
    outer loop
      vertex 73.8 -35 47.8
      vertex 75.5407798811619 -28.108655439013543 47.8
      vertex 75.4 -28.039230484541328 47.8
    endloop
  endfacet
  facet normal 0 0 1
    outer loop
      vertex 73.8 -35 47.8
      vertex 75.4 -28.039230484541328 47.8
      vertex 75.26948628518953 -27.952024008349483 47.8
    endloop
  endfacet
  facet normal 0 0 1
    outer loop
      vertex 73.8 -35 47.8
      vertex 75.68941714587697 -28.159110991546882 47.8
      vertex 75.5407798811619 -28.108655439013543 47.8
    endloop
  endfacet
  facet normal 0 0 1
    outer loop
      vertex 73.8 -35 47.8
      vertex 75.84336856933594 -28.18973383364857 47.8
      vertex 75.68941714587697 -28.159110991546882 47.8
    endloop
  endfacet
  facet normal 0 0 1
    outer loop
      vertex 73.8 -35 47.8
      vertex 74.89134456098645 -27.459220118838108 47.8
      vertex 74.84088900845312 -27.310582854123027 47.8
    endloop
  endfacet
  facet normal 0 0 1
    outer loop
      vertex 73.8 -35 47.8
      vertex 74.84088900845312 -27.310582854123027 47.8
      vertex 74.81026616635143 -27.156631430664063 47.8
    endloop
  endfacet
  facet normal 0 0 1
    outer loop
      vertex 73.8 -35 47.8
      vertex 74.81026616635143 -27.156631430664063 47.8
      vertex 74.8 -27 47.8
    endloop
  endfacet
  facet normal 0 0 1
    outer loop
      vertex 73.8 -35 47.8
      vertex 74.8 -27 47.8
      vertex 74.81026616635143 -26.843368569335937 47.8
    endloop
  endfacet
  facet normal 0 0 1
    outer loop
      vertex 73.8 -35 47.8
      vertex 76 -28.2 47.8
      vertex 75.84336856933594 -28.18973383364857 47.8
    endloop
  endfacet
  facet normal 0 0 1
    outer loop
      vertex 73.8 -35 47.8
      vertex 76.15663143066406 -28.18973383364857 47.8
      vertex 76 -28.2 47.8
    endloop
  endfacet
  facet normal 0 0 1
    outer loop
      vertex 73.8 -35 47.8
      vertex 76.31058285412303 -28.159110991546882 47.8
      vertex 76.15663143066406 -28.18973383364857 47.8
    endloop
  endfacet
  facet normal 0 0 1
    outer loop
      vertex 73.8 -35 47.8
      vertex 76.4592201188381 -28.108655439013543 47.8
      vertex 76.31058285412303 -28.159110991546882 47.8
    endloop
  endfacet
  facet normal 0 0 1
    outer loop
      vertex 73.8 -35 47.8
      vertex 76.6 -28.039230484541328 47.8
      vertex 76.4592201188381 -28.108655439013543 47.8
    endloop
  endfacet
  facet normal 0 0 1
    outer loop
      vertex 73.8 -35 47.8
      vertex 76.73051371481047 -27.952024008349483 47.8
      vertex 76.6 -28.039230484541328 47.8
    endloop
  endfacet
  facet normal 0 0 1
    outer loop
      vertex 73.8 -35 47.8
      vertex 76.84852813742386 -27.848528137423855 47.8
      vertex 76.73051371481047 -27.952024008349483 47.8
    endloop
  endfacet
  facet normal 0 -1 0
    outer loop
      vertex 73.8 -35 45.8
      vertex 95.19999999999999 -35 47.8
      vertex 73.8 -35 47.8
    endloop
  endfacet
  facet normal 0 0 1
    outer loop
      vertex 73.8 -35 47.8
      vertex 95.19999999999999 -35 47.8
      vertex 76.84852813742386 -27.848528137423855 47.8
    endloop
  endfacet
  facet normal 0 0 1
    outer loop
      vertex 95.19999999999999 -35 47.8
      vertex 76.95202400834948 -27.730513714810463 47.8
      vertex 76.84852813742386 -27.848528137423855 47.8
    endloop
  endfacet
  facet normal 0 0 1
    outer loop
      vertex 95.19999999999999 -35 47.8
      vertex 77.03923048454132 -27.6 47.8
      vertex 76.95202400834948 -27.730513714810463 47.8
    endloop
  endfacet
  facet normal 0 0 1
    outer loop
      vertex 95.19999999999999 -35 47.8
      vertex 77.10865543901355 -27.459220118838108 47.8
      vertex 77.03923048454132 -27.6 47.8
    endloop
  endfacet
  facet normal 0 0 1
    outer loop
      vertex 95.19999999999999 -35 47.8
      vertex 77.15911099154688 -27.310582854123027 47.8
      vertex 77.10865543901355 -27.459220118838108 47.8
    endloop
  endfacet
  facet normal 0 0 1
    outer loop
      vertex 95.19999999999999 -35 47.8
      vertex 77.10865543901355 -26.540779881161892 47.8
      vertex 77.15911099154688 -26.689417145876973 47.8
    endloop
  endfacet
  facet normal 0 0 1
    outer loop
      vertex 95.19999999999999 -35 47.8
      vertex 77.18973383364857 -27.156631430664063 47.8
      vertex 77.15911099154688 -27.310582854123027 47.8
    endloop
  endfacet
  facet normal 0 0 1
    outer loop
      vertex 95.19999999999999 -35 47.8
      vertex 77.2 -27 47.8
      vertex 77.18973383364857 -27.156631430664063 47.8
    endloop
  endfacet
  facet normal 0 0 1
    outer loop
      vertex 95.19999999999999 -35 47.8
      vertex 77.18973383364857 -26.843368569335937 47.8
      vertex 77.2 -27 47.8
    endloop
  endfacet
  facet normal 0 0 1
    outer loop
      vertex 95.19999999999999 -35 47.8
      vertex 77.15911099154688 -26.689417145876973 47.8
      vertex 77.18973383364857 -26.843368569335937 47.8
    endloop
  endfacet
  facet normal 0 0 -1
    outer loop
      vertex 73.8 -35 45.8
      vertex 73.8 -19 45.8
      vertex 74.8 -27 45.8
    endloop
  endfacet
  facet normal 0 0 -1
    outer loop
      vertex 73.8 -19 45.8
      vertex 74.81026616635143 -26.843368569335937 45.8
      vertex 74.8 -27 45.8
    endloop
  endfacet
  facet normal 0 0 -1
    outer loop
      vertex 73.8 -19 45.8
      vertex 74.84088900845312 -26.689417145876973 45.8
      vertex 74.81026616635143 -26.843368569335937 45.8
    endloop
  endfacet
  facet normal 0 0 -1
    outer loop
      vertex 73.8 -19 45.8
      vertex 74.89134456098645 -26.540779881161892 45.8
      vertex 74.84088900845312 -26.689417145876973 45.8
    endloop
  endfacet
  facet normal 0 0 -1
    outer loop
      vertex 73.8 -19 45.8
      vertex 74.96076951545868 -26.4 45.8
      vertex 74.89134456098645 -26.540779881161892 45.8
    endloop
  endfacet
  facet normal 0 0 -1
    outer loop
      vertex 73.8 -19 45.8
      vertex 75.04797599165052 -26.269486285189537 45.8
      vertex 74.96076951545868 -26.4 45.8
    endloop
  endfacet
  facet normal 0 0 -1
    outer loop
      vertex 73.8 -19 45.8
      vertex 75.15147186257614 -26.151471862576145 45.8
      vertex 75.04797599165052 -26.269486285189537 45.8
    endloop
  endfacet
  facet normal 0 0 -1
    outer loop
      vertex 73.8 -19 45.8
      vertex 75.26948628518953 -26.047975991650517 45.8
      vertex 75.15147186257614 -26.151471862576145 45.8
    endloop
  endfacet
  facet normal 0 0 -1
    outer loop
      vertex 73.8 -19 45.8
      vertex 75.4 -25.960769515458672 45.8
      vertex 75.26948628518953 -26.047975991650517 45.8
    endloop
  endfacet
  facet normal 0 0 -1
    outer loop
      vertex 73.8 -19 45.8
      vertex 75.5407798811619 -25.891344560986457 45.8
      vertex 75.4 -25.960769515458672 45.8
    endloop
  endfacet
  facet normal 0 0 -1
    outer loop
      vertex 73.8 -19 45.8
      vertex 75.68941714587697 -25.840889008453118 45.8
      vertex 75.5407798811619 -25.891344560986457 45.8
    endloop
  endfacet
  facet normal 0 0 -1
    outer loop
      vertex 73.8 -19 45.8
      vertex 75.84336856933594 -25.81026616635143 45.8
      vertex 75.68941714587697 -25.840889008453118 45.8
    endloop
  endfacet
  facet normal -1 0 0
    outer loop
      vertex 73.8 -35 45.8
      vertex 73.8 -19 47.8
      vertex 73.8 -19 45.8
    endloop
  endfacet
  facet normal 0 0 -1
    outer loop
      vertex 77.10865543901355 -27.459220118838108 45.8
      vertex 90.8 -20.7 45.8
      vertex 77.03923048454132 -27.6 45.8
    endloop
  endfacet
  facet normal 0 0 -1
    outer loop
      vertex 77.15911099154688 -27.310582854123027 45.8
      vertex 90.8 -20.7 45.8
      vertex 77.10865543901355 -27.459220118838108 45.8
    endloop
  endfacet
  facet normal 0 0 -1
    outer loop
      vertex 77.18973383364857 -27.156631430664063 45.8
      vertex 90.8 -20.7 45.8
      vertex 77.15911099154688 -27.310582854123027 45.8
    endloop
  endfacet
  facet normal 0 0 -1
    outer loop
      vertex 76 -25.8 45.8
      vertex 75.84336856933594 -25.81026616635143 45.8
      vertex 90.8 -20.7 45.8
    endloop
  endfacet
  facet normal 0 0 -1
    outer loop
      vertex 76.15663143066406 -25.81026616635143 45.8
      vertex 76 -25.8 45.8
      vertex 90.8 -20.7 45.8
    endloop
  endfacet
  facet normal 0 0 -1
    outer loop
      vertex 76.31058285412303 -25.840889008453118 45.8
      vertex 76.15663143066406 -25.81026616635143 45.8
      vertex 90.8 -20.7 45.8
    endloop
  endfacet
  facet normal 0 0 -1
    outer loop
      vertex 77.2 -27 45.8
      vertex 90.8 -20.7 45.8
      vertex 77.18973383364857 -27.156631430664063 45.8
    endloop
  endfacet
  facet normal 0 0 -1
    outer loop
      vertex 77.18973383364857 -26.843368569335937 45.8
      vertex 90.8 -20.7 45.8
      vertex 77.2 -27 45.8
    endloop
  endfacet
  facet normal 0 0 -1
    outer loop
      vertex 77.03923048454132 -26.4 45.8
      vertex 90.8 -20.7 45.8
      vertex 77.10865543901355 -26.540779881161892 45.8
    endloop
  endfacet
  facet normal 0 0 -1
    outer loop
      vertex 77.15911099154688 -26.689417145876973 45.8
      vertex 90.8 -20.7 45.8
      vertex 77.18973383364857 -26.843368569335937 45.8
    endloop
  endfacet
  facet normal 0 0 -1
    outer loop
      vertex 77.10865543901355 -26.540779881161892 45.8
      vertex 90.8 -20.7 45.8
      vertex 77.15911099154688 -26.689417145876973 45.8
    endloop
  endfacet
  facet normal 0 0 -1
    outer loop
      vertex 76.84852813742386 -26.151471862576145 45.8
      vertex 76.73051371481047 -26.047975991650517 45.8
      vertex 90.8 -20.7 45.8
    endloop
  endfacet
  facet normal 0 0 -1
    outer loop
      vertex 76.4592201188381 -25.891344560986457 45.8
      vertex 76.31058285412303 -25.840889008453118 45.8
      vertex 90.8 -20.7 45.8
    endloop
  endfacet
  facet normal 0 0 -1
    outer loop
      vertex 76.6 -25.960769515458672 45.8
      vertex 76.4592201188381 -25.891344560986457 45.8
      vertex 90.8 -20.7 45.8
    endloop
  endfacet
  facet normal 0 0 -1
    outer loop
      vertex 76.73051371481047 -26.047975991650517 45.8
      vertex 76.6 -25.960769515458672 45.8
      vertex 90.8 -20.7 45.8
    endloop
  endfacet
  facet normal 0 0 -1
    outer loop
      vertex 76.95202400834948 -26.269486285189537 45.8
      vertex 90.8 -20.7 45.8
      vertex 77.03923048454132 -26.4 45.8
    endloop
  endfacet
  facet normal 0 0 -1
    outer loop
      vertex 76.84852813742386 -26.151471862576145 45.8
      vertex 90.8 -20.7 45.8
      vertex 76.95202400834948 -26.269486285189537 45.8
    endloop
  endfacet
  facet normal 0 0 -1
    outer loop
      vertex 92.92625 -20.7 45.8
      vertex 76.4592201188381 -28.108655439013543 45.8
      vertex 76.6 -28.039230484541328 45.8
    endloop
  endfacet
  facet normal 0 0 -1
    outer loop
      vertex 76.6 -28.039230484541328 45.8
      vertex 76.73051371481047 -27.952024008349483 45.8
      vertex 92.92625 -20.7 45.8
    endloop
  endfacet
  facet normal 0 0 -1
    outer loop
      vertex 76.73051371481047 -27.952024008349483 45.8
      vertex 76.84852813742386 -27.848528137423855 45.8
      vertex 92.92625 -20.7 45.8
    endloop
  endfacet
  facet normal 0 0 -1
    outer loop
      vertex 76.84852813742386 -27.848528137423855 45.8
      vertex 76.95202400834948 -27.730513714810463 45.8
      vertex 92.92625 -20.7 45.8
    endloop
  endfacet
  facet normal 0 0 -1
    outer loop
      vertex 77.03923048454132 -27.6 45.8
      vertex 92.92625 -20.7 45.8
      vertex 76.95202400834948 -27.730513714810463 45.8
    endloop
  endfacet
  facet normal 0 0 -1
    outer loop
      vertex 73.8 -19 45.8
      vertex 90.8 -20.7 45.8
      vertex 75.84336856933594 -25.81026616635143 45.8
    endloop
  endfacet
  facet normal 0 1 0
    outer loop
      vertex 73.8 -19 45.8
      vertex 73.8 -19 47.8
      vertex 90.8 -19 45.8
    endloop
  endfacet
  facet normal 0 0 1
    outer loop
      vertex 73.8 -35 47.8
      vertex 74.81026616635143 -26.843368569335937 47.8
      vertex 73.8 -19 47.8
    endloop
  endfacet
  facet normal 0 0 1
    outer loop
      vertex 73.8 -19 47.8
      vertex 74.81026616635143 -26.843368569335937 47.8
      vertex 74.84088900845312 -26.689417145876973 47.8
    endloop
  endfacet
  facet normal 0 0 1
    outer loop
      vertex 73.8 -19 47.8
      vertex 74.84088900845312 -26.689417145876973 47.8
      vertex 74.89134456098645 -26.540779881161892 47.8
    endloop
  endfacet
  facet normal 0 0 1
    outer loop
      vertex 73.8 -19 47.8
      vertex 74.89134456098645 -26.540779881161892 47.8
      vertex 74.96076951545868 -26.4 47.8
    endloop
  endfacet
  facet normal 0 0 1
    outer loop
      vertex 73.8 -19 47.8
      vertex 74.96076951545868 -26.4 47.8
      vertex 75.04797599165052 -26.269486285189537 47.8
    endloop
  endfacet
  facet normal 0 0 1
    outer loop
      vertex 73.8 -19 47.8
      vertex 75.04797599165052 -26.269486285189537 47.8
      vertex 75.15147186257614 -26.151471862576145 47.8
    endloop
  endfacet
  facet normal 0 0 1
    outer loop
      vertex 73.8 -19 47.8
      vertex 75.15147186257614 -26.151471862576145 47.8
      vertex 75.26948628518953 -26.047975991650517 47.8
    endloop
  endfacet
  facet normal 0 0 1
    outer loop
      vertex 73.8 -19 47.8
      vertex 75.26948628518953 -26.047975991650517 47.8
      vertex 75.4 -25.960769515458672 47.8
    endloop
  endfacet
  facet normal 0 0 1
    outer loop
      vertex 73.8 -19 47.8
      vertex 75.4 -25.960769515458672 47.8
      vertex 75.5407798811619 -25.891344560986457 47.8
    endloop
  endfacet
  facet normal 0 0 1
    outer loop
      vertex 73.8 -19 47.8
      vertex 75.5407798811619 -25.891344560986457 47.8
      vertex 75.68941714587697 -25.840889008453118 47.8
    endloop
  endfacet
  facet normal 0 0 1
    outer loop
      vertex 73.8 -19 47.8
      vertex 75.68941714587697 -25.840889008453118 47.8
      vertex 75.84336856933594 -25.81026616635143 47.8
    endloop
  endfacet
  facet normal 0 0 1
    outer loop
      vertex 73.8 -19 47.8
      vertex 75.84336856933594 -25.81026616635143 47.8
      vertex 76 -25.8 47.8
    endloop
  endfacet
  facet normal 0 0 1
    outer loop
      vertex 73.8 -19 47.8
      vertex 76 -25.8 47.8
      vertex 76.15663143066406 -25.81026616635143 47.8
    endloop
  endfacet
  facet normal 0 0 1
    outer loop
      vertex 73.8 -19 47.8
      vertex 76.15663143066406 -25.81026616635143 47.8
      vertex 76.31058285412303 -25.840889008453118 47.8
    endloop
  endfacet
  facet normal 0 0 1
    outer loop
      vertex 73.8 -19 47.8
      vertex 76.31058285412303 -25.840889008453118 47.8
      vertex 76.4592201188381 -25.891344560986457 47.8
    endloop
  endfacet
  facet normal 0 0 1
    outer loop
      vertex 73.8 -19 47.8
      vertex 76.4592201188381 -25.891344560986457 47.8
      vertex 76.6 -25.960769515458672 47.8
    endloop
  endfacet
  facet normal 0 0 1
    outer loop
      vertex 73.8 -19 47.8
      vertex 76.6 -25.960769515458672 47.8
      vertex 76.73051371481047 -26.047975991650517 47.8
    endloop
  endfacet
  facet normal 0 0 1
    outer loop
      vertex 73.8 -19 47.8
      vertex 76.73051371481047 -26.047975991650517 47.8
      vertex 76.84852813742386 -26.151471862576145 47.8
    endloop
  endfacet
  facet normal 0 0 1
    outer loop
      vertex 73.8 -19 47.8
      vertex 76.95202400834948 -26.269486285189537 47.8
      vertex 77.03923048454132 -26.4 47.8
    endloop
  endfacet
  facet normal 0 0 1
    outer loop
      vertex 73.8 -19 47.8
      vertex 76.84852813742386 -26.151471862576145 47.8
      vertex 76.95202400834948 -26.269486285189537 47.8
    endloop
  endfacet
  facet normal 0 0 1
    outer loop
      vertex 73.8 -19 47.8
      vertex 77.03923048454132 -26.4 47.8
      vertex 77.10865543901355 -26.540779881161892 47.8
    endloop
  endfacet
  facet normal 0 0 1
    outer loop
      vertex 73.8 -19 47.8
      vertex 77.10865543901355 -26.540779881161892 47.8
      vertex 95.19999999999999 -35 47.8
    endloop
  endfacet
  facet normal 0 0 -1
    outer loop
      vertex 73.8 -35 45.8
      vertex 92.15147186257614 -27.848528137423855 45.8
      vertex 95.19999999999999 -35 45.8
    endloop
  endfacet
  facet normal 0 -1 0
    outer loop
      vertex 73.8 -35 45.8
      vertex 95.19999999999999 -35 45.8
      vertex 95.19999999999999 -35 47.8
    endloop
  endfacet
  facet normal 0 0 -1
    outer loop
      vertex 73.8 -35 45.8
      vertex 91.81026616635143 -27.156631430664063 45.8
      vertex 91.84088900845312 -27.310582854123027 45.8
    endloop
  endfacet
  facet normal 0 0 -1
    outer loop
      vertex 73.8 -35 45.8
      vertex 91.8 -27 45.8
      vertex 91.81026616635143 -27.156631430664063 45.8
    endloop
  endfacet
  facet normal 0 0 -1
    outer loop
      vertex 73.8 -35 45.8
      vertex 91.81026616635143 -26.843368569335937 45.8
      vertex 91.8 -27 45.8
    endloop
  endfacet
  facet normal 0 0 -1
    outer loop
      vertex 73.8 -35 45.8
      vertex 92.04797599165052 -27.730513714810463 45.8
      vertex 92.15147186257614 -27.848528137423855 45.8
    endloop
  endfacet
  facet normal 0 0 -1
    outer loop
      vertex 73.8 -35 45.8
      vertex 91.89134456098645 -27.459220118838108 45.8
      vertex 91.96076951545868 -27.6 45.8
    endloop
  endfacet
  facet normal 0 0 -1
    outer loop
      vertex 73.8 -35 45.8
      vertex 91.96076951545868 -27.6 45.8
      vertex 92.04797599165052 -27.730513714810463 45.8
    endloop
  endfacet
  facet normal 0 0 -1
    outer loop
      vertex 73.8 -35 45.8
      vertex 91.84088900845312 -27.310582854123027 45.8
      vertex 91.89134456098645 -27.459220118838108 45.8
    endloop
  endfacet
  facet normal 0 0 -1
    outer loop
      vertex 73.8 -35 45.8
      vertex 92.92625 -20.7 45.8
      vertex 91.81026616635143 -26.843368569335937 45.8
    endloop
  endfacet
  facet normal 0 0 -1
    outer loop
      vertex 95.19999999999999 -35 45.8
      vertex 92.15147186257614 -27.848528137423855 45.8
      vertex 92.26948628518953 -27.952024008349483 45.8
    endloop
  endfacet
  facet normal 0 0 -1
    outer loop
      vertex 95.19999999999999 -35 45.8
      vertex 92.26948628518953 -27.952024008349483 45.8
      vertex 92.4 -28.039230484541328 45.8
    endloop
  endfacet
  facet normal 0 0 -1
    outer loop
      vertex 95.19999999999999 -35 45.8
      vertex 92.4 -28.039230484541328 45.8
      vertex 92.5407798811619 -28.108655439013543 45.8
    endloop
  endfacet
  facet normal 0 0 -1
    outer loop
      vertex 95.19999999999999 -35 45.8
      vertex 92.5407798811619 -28.108655439013543 45.8
      vertex 92.68941714587697 -28.159110991546882 45.8
    endloop
  endfacet
  facet normal 0 0 -1
    outer loop
      vertex 95.19999999999999 -35 45.8
      vertex 92.68941714587697 -28.159110991546882 45.8
      vertex 92.84336856933594 -28.18973383364857 45.8
    endloop
  endfacet
  facet normal 0 0 -1
    outer loop
      vertex 95.19999999999999 -35 45.8
      vertex 92.84336856933594 -28.18973383364857 45.8
      vertex 93 -28.2 45.8
    endloop
  endfacet
  facet normal 0 0 -1
    outer loop
      vertex 95.19999999999999 -35 45.8
      vertex 93 -28.2 45.8
      vertex 93.15663143066406 -28.18973383364857 45.8
    endloop
  endfacet
  facet normal 0 0 -1
    outer loop
      vertex 95.19999999999999 -35 45.8
      vertex 93.15663143066406 -28.18973383364857 45.8
      vertex 93.31058285412303 -28.159110991546882 45.8
    endloop
  endfacet
  facet normal 0 0 -1
    outer loop
      vertex 95.19999999999999 -35 45.8
      vertex 93.31058285412303 -28.159110991546882 45.8
      vertex 93.4592201188381 -28.108655439013543 45.8
    endloop
  endfacet
  facet normal 0 0 -1
    outer loop
      vertex 95.19999999999999 -35 45.8
      vertex 93.4592201188381 -28.108655439013543 45.8
      vertex 93.6 -28.039230484541328 45.8
    endloop
  endfacet
  facet normal 0 0 -1
    outer loop
      vertex 95.19999999999999 -35 45.8
      vertex 93.6 -28.039230484541328 45.8
      vertex 93.73051371481047 -27.952024008349483 45.8
    endloop
  endfacet
  facet normal 0 0 -1
    outer loop
      vertex 95.19999999999999 -35 45.8
      vertex 93.73051371481047 -27.952024008349483 45.8
      vertex 93.84852813742386 -27.848528137423855 45.8
    endloop
  endfacet
  facet normal 0 0 -1
    outer loop
      vertex 95.19999999999999 -35 45.8
      vertex 93.84852813742386 -27.848528137423855 45.8
      vertex 93.95202400834948 -27.730513714810463 45.8
    endloop
  endfacet
  facet normal 0 0 -1
    outer loop
      vertex 95.19999999999999 -35 45.8
      vertex 93.95202400834948 -27.730513714810463 45.8
      vertex 94.03923048454132 -27.6 45.8
    endloop
  endfacet
  facet normal 0 0 -1
    outer loop
      vertex 95.19999999999999 -35 45.8
      vertex 94.03923048454132 -27.6 45.8
      vertex 94.10865543901355 -27.459220118838108 45.8
    endloop
  endfacet
  facet normal 0 0 -1
    outer loop
      vertex 95.19999999999999 -35 45.8
      vertex 94.10865543901355 -27.459220118838108 45.8
      vertex 94.15911099154688 -27.310582854123027 45.8
    endloop
  endfacet
  facet normal 0 0 -1
    outer loop
      vertex 95.19999999999999 -35 45.8
      vertex 94.15911099154688 -27.310582854123027 45.8
      vertex 94.18973383364857 -27.156631430664063 45.8
    endloop
  endfacet
  facet normal 0 0 -1
    outer loop
      vertex 95.19999999999999 -35 45.8
      vertex 94.18973383364857 -27.156631430664063 45.8
      vertex 94.2 -27 45.8
    endloop
  endfacet
  facet normal 0 0 -1
    outer loop
      vertex 95.19999999999999 -35 45.8
      vertex 94.2 -27 45.8
      vertex 94.18973383364857 -26.843368569335937 45.8
    endloop
  endfacet
  facet normal 0 0 -1
    outer loop
      vertex 95.19999999999999 -35 45.8
      vertex 94.18973383364857 -26.843368569335937 45.8
      vertex 95.19999999999999 -20.7 45.8
    endloop
  endfacet
  facet normal 0 0 1
    outer loop
      vertex 73.8 -19 47.8
      vertex 95.19999999999999 -35 47.8
      vertex 92.5407798811619 -28.108655439013543 47.8
    endloop
  endfacet
  facet normal 1 0 0
    outer loop
      vertex 95.19999999999999 -35 45.8
      vertex 95.19999999999999 -20.7 47.8
      vertex 95.19999999999999 -35 47.8
    endloop
  endfacet
  facet normal 0 0 1
    outer loop
      vertex 95.19999999999999 -35 47.8
      vertex 92.68941714587697 -28.159110991546882 47.8
      vertex 92.5407798811619 -28.108655439013543 47.8
    endloop
  endfacet
  facet normal 0 0 1
    outer loop
      vertex 95.19999999999999 -35 47.8
      vertex 92.84336856933594 -28.18973383364857 47.8
      vertex 92.68941714587697 -28.159110991546882 47.8
    endloop
  endfacet
  facet normal 0 0 1
    outer loop
      vertex 95.19999999999999 -35 47.8
      vertex 93 -28.2 47.8
      vertex 92.84336856933594 -28.18973383364857 47.8
    endloop
  endfacet
  facet normal 0 0 1
    outer loop
      vertex 95.19999999999999 -35 47.8
      vertex 93.15663143066406 -28.18973383364857 47.8
      vertex 93 -28.2 47.8
    endloop
  endfacet
  facet normal 0 0 1
    outer loop
      vertex 95.19999999999999 -35 47.8
      vertex 93.31058285412303 -28.159110991546882 47.8
      vertex 93.15663143066406 -28.18973383364857 47.8
    endloop
  endfacet
  facet normal 0 0 1
    outer loop
      vertex 95.19999999999999 -35 47.8
      vertex 93.4592201188381 -28.108655439013543 47.8
      vertex 93.31058285412303 -28.159110991546882 47.8
    endloop
  endfacet
  facet normal 0 0 1
    outer loop
      vertex 95.19999999999999 -35 47.8
      vertex 93.6 -28.039230484541328 47.8
      vertex 93.4592201188381 -28.108655439013543 47.8
    endloop
  endfacet
  facet normal 0 0 1
    outer loop
      vertex 95.19999999999999 -35 47.8
      vertex 93.73051371481047 -27.952024008349483 47.8
      vertex 93.6 -28.039230484541328 47.8
    endloop
  endfacet
  facet normal 0 0 1
    outer loop
      vertex 95.19999999999999 -35 47.8
      vertex 93.84852813742386 -27.848528137423855 47.8
      vertex 93.73051371481047 -27.952024008349483 47.8
    endloop
  endfacet
  facet normal 0 0 1
    outer loop
      vertex 95.19999999999999 -35 47.8
      vertex 93.95202400834948 -27.730513714810463 47.8
      vertex 93.84852813742386 -27.848528137423855 47.8
    endloop
  endfacet
  facet normal 0 0 1
    outer loop
      vertex 95.19999999999999 -35 47.8
      vertex 94.03923048454132 -27.6 47.8
      vertex 93.95202400834948 -27.730513714810463 47.8
    endloop
  endfacet
  facet normal 0 0 1
    outer loop
      vertex 95.19999999999999 -35 47.8
      vertex 94.10865543901355 -27.459220118838108 47.8
      vertex 94.03923048454132 -27.6 47.8
    endloop
  endfacet
  facet normal 0 0 1
    outer loop
      vertex 95.19999999999999 -35 47.8
      vertex 94.15911099154688 -27.310582854123027 47.8
      vertex 94.10865543901355 -27.459220118838108 47.8
    endloop
  endfacet
  facet normal 0 0 1
    outer loop
      vertex 95.19999999999999 -35 47.8
      vertex 94.18973383364857 -27.156631430664063 47.8
      vertex 94.15911099154688 -27.310582854123027 47.8
    endloop
  endfacet
  facet normal 0 0 1
    outer loop
      vertex 95.19999999999999 -35 47.8
      vertex 94.2 -27 47.8
      vertex 94.18973383364857 -27.156631430664063 47.8
    endloop
  endfacet
  facet normal 0 0 1
    outer loop
      vertex 95.19999999999999 -35 47.8
      vertex 95.19999999999999 -20.7 47.8
      vertex 94.2 -27 47.8
    endloop
  endfacet
  facet normal 0 0 -1
    outer loop
      vertex 77.03923048454132 -27.6 45.8
      vertex 90.8 -20.7 45.8
      vertex 92.92625 -20.7 45.8
    endloop
  endfacet
  facet normal 0 0 -1
    outer loop
      vertex 73.8 -19 45.8
      vertex 90.8 -19 45.8
      vertex 90.8 -20.7 45.8
    endloop
  endfacet
  facet normal 0 0 -1
    outer loop
      vertex 92.92625 -20.7 45.8
      vertex 91.84088900845312 -26.689417145876973 45.8
      vertex 91.81026616635143 -26.843368569335937 45.8
    endloop
  endfacet
  facet normal 0 0 -1
    outer loop
      vertex 92.92625 -20.7 45.8
      vertex 91.89134456098645 -26.540779881161892 45.8
      vertex 91.84088900845312 -26.689417145876973 45.8
    endloop
  endfacet
  facet normal 0 0 -1
    outer loop
      vertex 92.92625 -20.7 45.8
      vertex 91.96076951545868 -26.4 45.8
      vertex 91.89134456098645 -26.540779881161892 45.8
    endloop
  endfacet
  facet normal 0 0 -1
    outer loop
      vertex 92.92625 -20.7 45.8
      vertex 92.04797599165052 -26.269486285189537 45.8
      vertex 91.96076951545868 -26.4 45.8
    endloop
  endfacet
  facet normal 0 0 -1
    outer loop
      vertex 92.92625 -20.7 45.8
      vertex 92.15147186257614 -26.151471862576145 45.8
      vertex 92.04797599165052 -26.269486285189537 45.8
    endloop
  endfacet
  facet normal 0 0 -1
    outer loop
      vertex 92.92625 -20.7 45.8
      vertex 92.26948628518953 -26.047975991650517 45.8
      vertex 92.15147186257614 -26.151471862576145 45.8
    endloop
  endfacet
  facet normal 0 0 -1
    outer loop
      vertex 92.92625 -20.7 45.8
      vertex 92.4 -25.960769515458672 45.8
      vertex 92.26948628518953 -26.047975991650517 45.8
    endloop
  endfacet
  facet normal 0 0 -1
    outer loop
      vertex 92.92625 -20.7 45.8
      vertex 92.5407798811619 -25.891344560986457 45.8
      vertex 92.4 -25.960769515458672 45.8
    endloop
  endfacet
  facet normal 0 0 -1
    outer loop
      vertex 92.92625 -20.7 45.8
      vertex 92.68941714587697 -25.840889008453118 45.8
      vertex 92.5407798811619 -25.891344560986457 45.8
    endloop
  endfacet
  facet normal 0 0 -1
    outer loop
      vertex 92.92625 -20.7 45.8
      vertex 92.84336856933594 -25.81026616635143 45.8
      vertex 92.68941714587697 -25.840889008453118 45.8
    endloop
  endfacet
  facet normal 0 0 -1
    outer loop
      vertex 92.92625 -20.7 45.8
      vertex 93 -25.8 45.8
      vertex 92.84336856933594 -25.81026616635143 45.8
    endloop
  endfacet
  facet normal 0 0 -1
    outer loop
      vertex 95.19999999999999 -20.7 45.8
      vertex 93.15663143066406 -25.81026616635143 45.8
      vertex 93 -25.8 45.8
    endloop
  endfacet
  facet normal 0 0 -1
    outer loop
      vertex 95.19999999999999 -20.7 45.8
      vertex 94.18973383364857 -26.843368569335937 45.8
      vertex 94.15911099154688 -26.689417145876973 45.8
    endloop
  endfacet
  facet normal 0 0 -1
    outer loop
      vertex 95.19999999999999 -20.7 45.8
      vertex 94.15911099154688 -26.689417145876973 45.8
      vertex 94.10865543901355 -26.540779881161892 45.8
    endloop
  endfacet
  facet normal 0 0 -1
    outer loop
      vertex 95.19999999999999 -20.7 45.8
      vertex 94.10865543901355 -26.540779881161892 45.8
      vertex 94.03923048454132 -26.4 45.8
    endloop
  endfacet
  facet normal 0 0 -1
    outer loop
      vertex 95.19999999999999 -20.7 45.8
      vertex 93.4592201188381 -25.891344560986457 45.8
      vertex 93.31058285412303 -25.840889008453118 45.8
    endloop
  endfacet
  facet normal 0 0 -1
    outer loop
      vertex 95.19999999999999 -20.7 45.8
      vertex 93.31058285412303 -25.840889008453118 45.8
      vertex 93.15663143066406 -25.81026616635143 45.8
    endloop
  endfacet
  facet normal 0 0 -1
    outer loop
      vertex 95.19999999999999 -20.7 45.8
      vertex 93.6 -25.960769515458672 45.8
      vertex 93.4592201188381 -25.891344560986457 45.8
    endloop
  endfacet
  facet normal 0 0 -1
    outer loop
      vertex 95.19999999999999 -20.7 45.8
      vertex 93.73051371481047 -26.047975991650517 45.8
      vertex 93.6 -25.960769515458672 45.8
    endloop
  endfacet
  facet normal 0 0 -1
    outer loop
      vertex 95.19999999999999 -20.7 45.8
      vertex 93.84852813742386 -26.151471862576145 45.8
      vertex 93.73051371481047 -26.047975991650517 45.8
    endloop
  endfacet
  facet normal 0 0 -1
    outer loop
      vertex 95.19999999999999 -20.7 45.8
      vertex 93.95202400834948 -26.269486285189537 45.8
      vertex 93.84852813742386 -26.151471862576145 45.8
    endloop
  endfacet
  facet normal 0 0 -1
    outer loop
      vertex 95.19999999999999 -20.7 45.8
      vertex 94.03923048454132 -26.4 45.8
      vertex 93.95202400834948 -26.269486285189537 45.8
    endloop
  endfacet
  facet normal 1 0 0
    outer loop
      vertex 95.19999999999999 -35 45.8
      vertex 95.19999999999999 -20.7 45.8
      vertex 95.19999999999999 -20.7 47.8
    endloop
  endfacet
  facet normal 0 0 -1
    outer loop
      vertex 92.92625 -20.7 45.8
      vertex 95.19999999999999 -20.7 45.8
      vertex 93 -25.8 45.8
    endloop
  endfacet
  facet normal 0 0 1
    outer loop
      vertex 73.8 -19 47.8
      vertex 92.5407798811619 -28.108655439013543 47.8
      vertex 92.4 -28.039230484541328 47.8
    endloop
  endfacet
  facet normal 0 0 1
    outer loop
      vertex 73.8 -19 47.8
      vertex 91.84088900845312 -27.310582854123027 47.8
      vertex 91.81026616635143 -27.156631430664063 47.8
    endloop
  endfacet
  facet normal 0 0 1
    outer loop
      vertex 73.8 -19 47.8
      vertex 91.81026616635143 -27.156631430664063 47.8
      vertex 91.8 -27 47.8
    endloop
  endfacet
  facet normal 0 0 1
    outer loop
      vertex 73.8 -19 47.8
      vertex 91.8 -27 47.8
      vertex 91.81026616635143 -26.843368569335937 47.8
    endloop
  endfacet
  facet normal 0 0 1
    outer loop
      vertex 73.8 -19 47.8
      vertex 91.81026616635143 -26.843368569335937 47.8
      vertex 91.84088900845312 -26.689417145876973 47.8
    endloop
  endfacet
  facet normal 0 0 1
    outer loop
      vertex 73.8 -19 47.8
      vertex 92.15147186257614 -27.848528137423855 47.8
      vertex 92.04797599165052 -27.730513714810463 47.8
    endloop
  endfacet
  facet normal 0 0 1
    outer loop
      vertex 73.8 -19 47.8
      vertex 92.04797599165052 -27.730513714810463 47.8
      vertex 91.96076951545868 -27.6 47.8
    endloop
  endfacet
  facet normal 0 0 1
    outer loop
      vertex 73.8 -19 47.8
      vertex 92.26948628518953 -27.952024008349483 47.8
      vertex 92.15147186257614 -27.848528137423855 47.8
    endloop
  endfacet
  facet normal 0 0 1
    outer loop
      vertex 73.8 -19 47.8
      vertex 92.4 -28.039230484541328 47.8
      vertex 92.26948628518953 -27.952024008349483 47.8
    endloop
  endfacet
  facet normal 0 0 1
    outer loop
      vertex 73.8 -19 47.8
      vertex 91.96076951545868 -27.6 47.8
      vertex 91.89134456098645 -27.459220118838108 47.8
    endloop
  endfacet
  facet normal 0 0 1
    outer loop
      vertex 73.8 -19 47.8
      vertex 91.89134456098645 -27.459220118838108 47.8
      vertex 91.84088900845312 -27.310582854123027 47.8
    endloop
  endfacet
  facet normal 0 0 1
    outer loop
      vertex 73.8 -19 47.8
      vertex 91.84088900845312 -26.689417145876973 47.8
      vertex 91.89134456098645 -26.540779881161892 47.8
    endloop
  endfacet
  facet normal 0 0 1
    outer loop
      vertex 73.8 -19 47.8
      vertex 91.89134456098645 -26.540779881161892 47.8
      vertex 91.96076951545868 -26.4 47.8
    endloop
  endfacet
  facet normal 0 0 1
    outer loop
      vertex 73.8 -19 47.8
      vertex 91.96076951545868 -26.4 47.8
      vertex 92.04797599165052 -26.269486285189537 47.8
    endloop
  endfacet
  facet normal 0 0 1
    outer loop
      vertex 73.8 -19 47.8
      vertex 92.04797599165052 -26.269486285189537 47.8
      vertex 92.15147186257614 -26.151471862576145 47.8
    endloop
  endfacet
  facet normal 0 0 1
    outer loop
      vertex 73.8 -19 47.8
      vertex 92.15147186257614 -26.151471862576145 47.8
      vertex 92.26948628518953 -26.047975991650517 47.8
    endloop
  endfacet
  facet normal 0 1 0
    outer loop
      vertex 73.8 -19 47.8
      vertex 90.8 -19 47.8
      vertex 90.8 -19 45.8
    endloop
  endfacet
  facet normal 0 0 1
    outer loop
      vertex 73.8 -19 47.8
      vertex 92.26948628518953 -26.047975991650517 47.8
      vertex 90.8 -20.7 47.8
    endloop
  endfacet
  facet normal 0 0 1
    outer loop
      vertex 73.8 -19 47.8
      vertex 90.8 -20.7 47.8
      vertex 90.8 -19 47.8
    endloop
  endfacet
  facet normal 0 0 1
    outer loop
      vertex 92.26948628518953 -26.047975991650517 47.8
      vertex 92.4 -25.960769515458672 47.8
      vertex 90.8 -20.7 47.8
    endloop
  endfacet
  facet normal 0 0 1
    outer loop
      vertex 92.4 -25.960769515458672 47.8
      vertex 92.5407798811619 -25.891344560986457 47.8
      vertex 90.8 -20.7 47.8
    endloop
  endfacet
  facet normal 0 0 1
    outer loop
      vertex 92.5407798811619 -25.891344560986457 47.8
      vertex 92.68941714587697 -25.840889008453118 47.8
      vertex 90.8 -20.7 47.8
    endloop
  endfacet
  facet normal 0 0 1
    outer loop
      vertex 92.68941714587697 -25.840889008453118 47.8
      vertex 92.84336856933594 -25.81026616635143 47.8
      vertex 90.8 -20.7 47.8
    endloop
  endfacet
  facet normal 0 0 1
    outer loop
      vertex 92.84336856933594 -25.81026616635143 47.8
      vertex 93 -25.8 47.8
      vertex 90.8 -20.7 47.8
    endloop
  endfacet
  facet normal 0 0 1
    outer loop
      vertex 93 -25.8 47.8
      vertex 93.15663143066406 -25.81026616635143 47.8
      vertex 90.8 -20.7 47.8
    endloop
  endfacet
  facet normal 0 0 1
    outer loop
      vertex 93.31058285412303 -25.840889008453118 47.8
      vertex 93.4592201188381 -25.891344560986457 47.8
      vertex 90.8 -20.7 47.8
    endloop
  endfacet
  facet normal 0 0 1
    outer loop
      vertex 93.15663143066406 -25.81026616635143 47.8
      vertex 93.31058285412303 -25.840889008453118 47.8
      vertex 90.8 -20.7 47.8
    endloop
  endfacet
  facet normal 0 0 1
    outer loop
      vertex 93.4592201188381 -25.891344560986457 47.8
      vertex 93.6 -25.960769515458672 47.8
      vertex 90.8 -20.7 47.8
    endloop
  endfacet
  facet normal 0 0 1
    outer loop
      vertex 93.6 -25.960769515458672 47.8
      vertex 93.73051371481047 -26.047975991650517 47.8
      vertex 90.8 -20.7 47.8
    endloop
  endfacet
  facet normal 0 0 1
    outer loop
      vertex 95.19999999999999 -20.7 47.8
      vertex 94.18973383364857 -26.843368569335937 47.8
      vertex 94.2 -27 47.8
    endloop
  endfacet
  facet normal 0 0 1
    outer loop
      vertex 95.19999999999999 -20.7 47.8
      vertex 94.15911099154688 -26.689417145876973 47.8
      vertex 94.18973383364857 -26.843368569335937 47.8
    endloop
  endfacet
  facet normal 0 0 1
    outer loop
      vertex 95.19999999999999 -20.7 47.8
      vertex 94.10865543901355 -26.540779881161892 47.8
      vertex 94.15911099154688 -26.689417145876973 47.8
    endloop
  endfacet
  facet normal 0 0 1
    outer loop
      vertex 95.19999999999999 -20.7 47.8
      vertex 94.03923048454132 -26.4 47.8
      vertex 94.10865543901355 -26.540779881161892 47.8
    endloop
  endfacet
  facet normal 0 0 1
    outer loop
      vertex 95.19999999999999 -20.7 47.8
      vertex 93.73051371481047 -26.047975991650517 47.8
      vertex 93.84852813742386 -26.151471862576145 47.8
    endloop
  endfacet
  facet normal 0 0 1
    outer loop
      vertex 95.19999999999999 -20.7 47.8
      vertex 93.84852813742386 -26.151471862576145 47.8
      vertex 93.95202400834948 -26.269486285189537 47.8
    endloop
  endfacet
  facet normal 0 0 1
    outer loop
      vertex 95.19999999999999 -20.7 47.8
      vertex 93.95202400834948 -26.269486285189537 47.8
      vertex 94.03923048454132 -26.4 47.8
    endloop
  endfacet
  facet normal 0 0 1
    outer loop
      vertex 95.19999999999999 -20.7 47.8
      vertex 90.8 -20.7 47.8
      vertex 93.73051371481047 -26.047975991650517 47.8
    endloop
  endfacet
endsolid OpenSCAD_Model
