solid OpenSCAD_Model
  facet normal 0 0 -1
    outer loop
      vertex -103 41.5 49.8
      vertex -103 48.5 49.8
      vertex -95.15911099154688 44.68941714587697 49.8
    endloop
  endfacet
  facet normal 0 0 -1
    outer loop
      vertex -103 41.5 49.8
      vertex -94.84852813742386 44.151471862576145 49.8
      vertex -94.73051371481047 44.04797599165052 49.8
    endloop
  endfacet
  facet normal 0 0 -1
    outer loop
      vertex -103 41.5 49.8
      vertex -94.73051371481047 44.04797599165052 49.8
      vertex -94.6 43.96076951545868 49.8
    endloop
  endfacet
  facet normal 0 0 -1
    outer loop
      vertex -103 41.5 49.8
      vertex -94.4592201188381 43.891344560986454 49.8
      vertex -94.31058285412303 43.84088900845312 49.8
    endloop
  endfacet
  facet normal 0 0 -1
    outer loop
      vertex -103 41.5 49.8
      vertex -94.6 43.96076951545868 49.8
      vertex -94.4592201188381 43.891344560986454 49.8
    endloop
  endfacet
  facet normal 0 0 -1
    outer loop
      vertex -103 41.5 49.8
      vertex -94.31058285412303 43.84088900845312 49.8
      vertex -85 41.5 49.8
    endloop
  endfacet
  facet normal 0 0 -1
    outer loop
      vertex -103 41.5 49.8
      vertex -95.03923048454132 44.400000000000006 49.8
      vertex -94.95202400834948 44.269486285189544 49.8
    endloop
  endfacet
  facet normal 0 0 -1
    outer loop
      vertex -103 41.5 49.8
      vertex -94.95202400834948 44.269486285189544 49.8
      vertex -94.84852813742386 44.151471862576145 49.8
    endloop
  endfacet
  facet normal 0 0 -1
    outer loop
      vertex -103 41.5 49.8
      vertex -95.10865543901355 44.54077988116188 49.8
      vertex -95.03923048454132 44.400000000000006 49.8
    endloop
  endfacet
  facet normal 0 0 -1
    outer loop
      vertex -103 41.5 49.8
      vertex -95.15911099154688 44.68941714587697 49.8
      vertex -95.10865543901355 44.54077988116188 49.8
    endloop
  endfacet
  facet normal -1 0 0
    outer loop
      vertex -103 41.5 49.8
      vertex -103 41.5 51.3
      vertex -103 48.5 51.3
    endloop
  endfacet
  facet normal 0 -1 0
    outer loop
      vertex -103 41.5 49.8
      vertex -85 41.5 51.3
      vertex -103 41.5 51.3
    endloop
  endfacet
  facet normal 0 0 1
    outer loop
      vertex -103 41.5 51.3
      vertex -94.73051371481047 44.04797599165052 51.3
      vertex -94.84852813742386 44.151471862576145 51.3
    endloop
  endfacet
  facet normal 0 0 1
    outer loop
      vertex -103 41.5 51.3
      vertex -94.6 43.96076951545868 51.3
      vertex -94.73051371481047 44.04797599165052 51.3
    endloop
  endfacet
  facet normal 0 0 1
    outer loop
      vertex -103 41.5 51.3
      vertex -94.31058285412303 43.84088900845312 51.3
      vertex -94.4592201188381 43.891344560986454 51.3
    endloop
  endfacet
  facet normal 0 0 1
    outer loop
      vertex -103 41.5 51.3
      vertex -94.4592201188381 43.891344560986454 51.3
      vertex -94.6 43.96076951545868 51.3
    endloop
  endfacet
  facet normal 0 0 1
    outer loop
      vertex -103 41.5 51.3
      vertex -94.15663143066406 43.810266166351425 51.3
      vertex -94.31058285412303 43.84088900845312 51.3
    endloop
  endfacet
  facet normal 0 0 1
    outer loop
      vertex -103 41.5 51.3
      vertex -94 43.8 51.3
      vertex -94.15663143066406 43.810266166351425 51.3
    endloop
  endfacet
  facet normal 0 0 1
    outer loop
      vertex -103 41.5 51.3
      vertex -93.84336856933594 43.810266166351425 51.3
      vertex -94 43.8 51.3
    endloop
  endfacet
  facet normal 0 0 1
    outer loop
      vertex -103 41.5 51.3
      vertex -93.68941714587697 43.84088900845312 51.3
      vertex -93.84336856933594 43.810266166351425 51.3
    endloop
  endfacet
  facet normal 0 0 1
    outer loop
      vertex -103 41.5 51.3
      vertex -94.95202400834948 44.269486285189544 51.3
      vertex -95.03923048454132 44.400000000000006 51.3
    endloop
  endfacet
  facet normal 0 0 1
    outer loop
      vertex -103 41.5 51.3
      vertex -94.84852813742386 44.151471862576145 51.3
      vertex -94.95202400834948 44.269486285189544 51.3
    endloop
  endfacet
  facet normal 0 0 1
    outer loop
      vertex -103 41.5 51.3
      vertex -95.03923048454132 44.400000000000006 51.3
      vertex -95.10865543901355 44.54077988116188 51.3
    endloop
  endfacet
  facet normal 0 0 1
    outer loop
      vertex -103 41.5 51.3
      vertex -95.10865543901355 44.54077988116188 51.3
      vertex -95.15911099154688 44.68941714587697 51.3
    endloop
  endfacet
  facet normal 0 0 1
    outer loop
      vertex -103 41.5 51.3
      vertex -95.15911099154688 44.68941714587697 51.3
      vertex -95.18973383364857 44.84336856933594 51.3
    endloop
  endfacet
  facet normal 0 0 1
    outer loop
      vertex -103 41.5 51.3
      vertex -95.18973383364857 44.84336856933594 51.3
      vertex -95.2 45 51.3
    endloop
  endfacet
  facet normal 0 0 1
    outer loop
      vertex -103 41.5 51.3
      vertex -95.2 45 51.3
      vertex -95.18973383364857 45.15663143066406 51.3
    endloop
  endfacet
  facet normal 0 0 1
    outer loop
      vertex -103 41.5 51.3
      vertex -95.18973383364857 45.15663143066406 51.3
      vertex -95.15911099154688 45.31058285412303 51.3
    endloop
  endfacet
  facet normal -1 0 0
    outer loop
      vertex -103 41.5 49.8
      vertex -103 48.5 51.3
      vertex -103 48.5 49.8
    endloop
  endfacet
  facet normal 0 0 -1
    outer loop
      vertex -103 48.5 49.8
      vertex -95.18973383364857 44.84336856933594 49.8
      vertex -95.15911099154688 44.68941714587697 49.8
    endloop
  endfacet
  facet normal 0 0 -1
    outer loop
      vertex -103 48.5 49.8
      vertex -95.2 45 49.8
      vertex -95.18973383364857 44.84336856933594 49.8
    endloop
  endfacet
  facet normal 0 0 -1
    outer loop
      vertex -103 48.5 49.8
      vertex -95.18973383364857 45.15663143066406 49.8
      vertex -95.2 45 49.8
    endloop
  endfacet
  facet normal 0 0 -1
    outer loop
      vertex -103 48.5 49.8
      vertex -95.15911099154688 45.31058285412303 49.8
      vertex -95.18973383364857 45.15663143066406 49.8
    endloop
  endfacet
  facet normal 0 0 -1
    outer loop
      vertex -103 48.5 49.8
      vertex -95.10865543901355 45.45922011883812 49.8
      vertex -95.15911099154688 45.31058285412303 49.8
    endloop
  endfacet
  facet normal 0 0 -1
    outer loop
      vertex -103 48.5 49.8
      vertex -95.03923048454132 45.599999999999994 49.8
      vertex -95.10865543901355 45.45922011883812 49.8
    endloop
  endfacet
  facet normal 0 0 -1
    outer loop
      vertex -103 48.5 49.8
      vertex -94.95202400834948 45.730513714810456 49.8
      vertex -95.03923048454132 45.599999999999994 49.8
    endloop
  endfacet
  facet normal 0 0 -1
    outer loop
      vertex -103 48.5 49.8
      vertex -94.84852813742386 45.848528137423855 49.8
      vertex -94.95202400834948 45.730513714810456 49.8
    endloop
  endfacet
  facet normal 0 0 -1
    outer loop
      vertex -103 48.5 49.8
      vertex -94.73051371481047 45.95202400834948 49.8
      vertex -94.84852813742386 45.848528137423855 49.8
    endloop
  endfacet
  facet normal 0 0 -1
    outer loop
      vertex -103 48.5 49.8
      vertex -94.6 46.03923048454132 49.8
      vertex -94.73051371481047 45.95202400834948 49.8
    endloop
  endfacet
  facet normal 0 0 -1
    outer loop
      vertex -103 48.5 49.8
      vertex -94.4592201188381 46.108655439013546 49.8
      vertex -94.6 46.03923048454132 49.8
    endloop
  endfacet
  facet normal 0 0 -1
    outer loop
      vertex -103 48.5 49.8
      vertex -94.31058285412303 46.15911099154688 49.8
      vertex -94.4592201188381 46.108655439013546 49.8
    endloop
  endfacet
  facet normal 0 0 -1
    outer loop
      vertex -103 48.5 49.8
      vertex -94.15663143066406 46.189733833648575 49.8
      vertex -94.31058285412303 46.15911099154688 49.8
    endloop
  endfacet
  facet normal 0 0 -1
    outer loop
      vertex -103 48.5 49.8
      vertex -94 46.2 49.8
      vertex -94.15663143066406 46.189733833648575 49.8
    endloop
  endfacet
  facet normal 0 0 -1
    outer loop
      vertex -103 48.5 49.8
      vertex -93.84336856933594 46.189733833648575 49.8
      vertex -94 46.2 49.8
    endloop
  endfacet
  facet normal 0 0 -1
    outer loop
      vertex -103 48.5 49.8
      vertex -93.68941714587697 46.15911099154688 49.8
      vertex -93.84336856933594 46.189733833648575 49.8
    endloop
  endfacet
  facet normal 0 1 0
    outer loop
      vertex -103 48.5 49.8
      vertex -103 48.5 51.3
      vertex -85 48.5 49.8
    endloop
  endfacet
  facet normal 0 0 1
    outer loop
      vertex -103 41.5 51.3
      vertex -95.15911099154688 45.31058285412303 51.3
      vertex -103 48.5 51.3
    endloop
  endfacet
  facet normal 0 0 1
    outer loop
      vertex -103 48.5 51.3
      vertex -95.15911099154688 45.31058285412303 51.3
      vertex -95.10865543901355 45.45922011883812 51.3
    endloop
  endfacet
  facet normal 0 0 1
    outer loop
      vertex -103 48.5 51.3
      vertex -95.10865543901355 45.45922011883812 51.3
      vertex -95.03923048454132 45.599999999999994 51.3
    endloop
  endfacet
  facet normal 0 0 1
    outer loop
      vertex -103 48.5 51.3
      vertex -95.03923048454132 45.599999999999994 51.3
      vertex -94.95202400834948 45.730513714810456 51.3
    endloop
  endfacet
  facet normal 0 0 1
    outer loop
      vertex -103 48.5 51.3
      vertex -94.95202400834948 45.730513714810456 51.3
      vertex -94.84852813742386 45.848528137423855 51.3
    endloop
  endfacet
  facet normal 0 0 1
    outer loop
      vertex -103 48.5 51.3
      vertex -94.84852813742386 45.848528137423855 51.3
      vertex -94.73051371481047 45.95202400834948 51.3
    endloop
  endfacet
  facet normal 0 0 1
    outer loop
      vertex -103 48.5 51.3
      vertex -94.73051371481047 45.95202400834948 51.3
      vertex -94.6 46.03923048454132 51.3
    endloop
  endfacet
  facet normal 0 0 1
    outer loop
      vertex -103 48.5 51.3
      vertex -94.6 46.03923048454132 51.3
      vertex -94.4592201188381 46.108655439013546 51.3
    endloop
  endfacet
  facet normal 0 0 1
    outer loop
      vertex -103 48.5 51.3
      vertex -94.4592201188381 46.108655439013546 51.3
      vertex -94.31058285412303 46.15911099154688 51.3
    endloop
  endfacet
  facet normal 0 0 1
    outer loop
      vertex -103 48.5 51.3
      vertex -94.31058285412303 46.15911099154688 51.3
      vertex -85 48.5 51.3
    endloop
  endfacet
  facet normal 0 0 -1
    outer loop
      vertex -85 41.5 49.8
      vertex -94.31058285412303 43.84088900845312 49.8
      vertex -94.15663143066406 43.810266166351425 49.8
    endloop
  endfacet
  facet normal 0 0 -1
    outer loop
      vertex -85 41.5 49.8
      vertex -94.15663143066406 43.810266166351425 49.8
      vertex -94 43.8 49.8
    endloop
  endfacet
  facet normal 0 0 -1
    outer loop
      vertex -85 41.5 49.8
      vertex -94 43.8 49.8
      vertex -93.84336856933594 43.810266166351425 49.8
    endloop
  endfacet
  facet normal 0 0 -1
    outer loop
      vertex -85 41.5 49.8
      vertex -93.84336856933594 43.810266166351425 49.8
      vertex -93.68941714587697 43.84088900845312 49.8
    endloop
  endfacet
  facet normal 0 0 -1
    outer loop
      vertex -85 41.5 49.8
      vertex -93.68941714587697 43.84088900845312 49.8
      vertex -93.5407798811619 43.891344560986454 49.8
    endloop
  endfacet
  facet normal 0 0 -1
    outer loop
      vertex -85 41.5 49.8
      vertex -93.5407798811619 43.891344560986454 49.8
      vertex -93.4 43.96076951545868 49.8
    endloop
  endfacet
  facet normal 0 0 -1
    outer loop
      vertex -85 41.5 49.8
      vertex -93.4 43.96076951545868 49.8
      vertex -93.26948628518953 44.04797599165052 49.8
    endloop
  endfacet
  facet normal 0 0 -1
    outer loop
      vertex -85 41.5 49.8
      vertex -93.26948628518953 44.04797599165052 49.8
      vertex -93.15147186257614 44.151471862576145 49.8
    endloop
  endfacet
  facet normal 0 -1 0
    outer loop
      vertex -103 41.5 49.8
      vertex -85 41.5 49.8
      vertex -85 41.5 51.3
    endloop
  endfacet
  facet normal 0 0 -1
    outer loop
      vertex -85 41.5 49.8
      vertex -93.15147186257614 44.151471862576145 49.8
      vertex -93.04797599165052 44.269486285189544 49.8
    endloop
  endfacet
  facet normal 0 0 -1
    outer loop
      vertex -85 41.5 49.8
      vertex -93.04797599165052 44.269486285189544 49.8
      vertex -92.96076951545868 44.400000000000006 49.8
    endloop
  endfacet
  facet normal 0 0 -1
    outer loop
      vertex -85 41.5 49.8
      vertex -92.96076951545868 44.400000000000006 49.8
      vertex -92.89134456098645 44.54077988116188 49.8
    endloop
  endfacet
  facet normal 0 0 -1
    outer loop
      vertex -85 41.5 49.8
      vertex -92.89134456098645 44.54077988116188 49.8
      vertex -92.84088900845312 44.68941714587697 49.8
    endloop
  endfacet
  facet normal 0 0 -1
    outer loop
      vertex -85 41.5 49.8
      vertex -92.84088900845312 44.68941714587697 49.8
      vertex -92.81026616635143 44.84336856933594 49.8
    endloop
  endfacet
  facet normal 0 0 -1
    outer loop
      vertex -85 41.5 49.8
      vertex -92.81026616635143 44.84336856933594 49.8
      vertex -92.8 45 49.8
    endloop
  endfacet
  facet normal 0 0 -1
    outer loop
      vertex -85 41.5 49.8
      vertex -92.8 45 49.8
      vertex -92.81026616635143 45.15663143066406 49.8
    endloop
  endfacet
  facet normal 0 0 -1
    outer loop
      vertex -85 41.5 49.8
      vertex -92.81026616635143 45.15663143066406 49.8
      vertex -92.84088900845312 45.31058285412303 49.8
    endloop
  endfacet
  facet normal 1 0 0
    outer loop
      vertex -85 41.5 49.8
      vertex -85 48.5 49.8
      vertex -85 41.5 51.3
    endloop
  endfacet
  facet normal 0 0 1
    outer loop
      vertex -103 41.5 51.3
      vertex -85 41.5 51.3
      vertex -93.68941714587697 43.84088900845312 51.3
    endloop
  endfacet
  facet normal 0 0 1
    outer loop
      vertex -85 41.5 51.3
      vertex -93.5407798811619 43.891344560986454 51.3
      vertex -93.68941714587697 43.84088900845312 51.3
    endloop
  endfacet
  facet normal 0 0 1
    outer loop
      vertex -85 41.5 51.3
      vertex -93.4 43.96076951545868 51.3
      vertex -93.5407798811619 43.891344560986454 51.3
    endloop
  endfacet
  facet normal 0 0 1
    outer loop
      vertex -85 41.5 51.3
      vertex -93.26948628518953 44.04797599165052 51.3
      vertex -93.4 43.96076951545868 51.3
    endloop
  endfacet
  facet normal 0 0 1
    outer loop
      vertex -85 41.5 51.3
      vertex -93.15147186257614 44.151471862576145 51.3
      vertex -93.26948628518953 44.04797599165052 51.3
    endloop
  endfacet
  facet normal 0 0 1
    outer loop
      vertex -85 41.5 51.3
      vertex -93.04797599165052 44.269486285189544 51.3
      vertex -93.15147186257614 44.151471862576145 51.3
    endloop
  endfacet
  facet normal 0 0 1
    outer loop
      vertex -85 41.5 51.3
      vertex -92.96076951545868 44.400000000000006 51.3
      vertex -93.04797599165052 44.269486285189544 51.3
    endloop
  endfacet
  facet normal 0 0 1
    outer loop
      vertex -85 41.5 51.3
      vertex -92.89134456098645 44.54077988116188 51.3
      vertex -92.96076951545868 44.400000000000006 51.3
    endloop
  endfacet
  facet normal 0 0 1
    outer loop
      vertex -85 41.5 51.3
      vertex -92.84088900845312 44.68941714587697 51.3
      vertex -92.89134456098645 44.54077988116188 51.3
    endloop
  endfacet
  facet normal 0 0 1
    outer loop
      vertex -85 41.5 51.3
      vertex -85 48.5 51.3
      vertex -92.84088900845312 44.68941714587697 51.3
    endloop
  endfacet
  facet normal 0 0 -1
    outer loop
      vertex -85 48.5 49.8
      vertex -92.84088900845312 45.31058285412303 49.8
      vertex -92.89134456098645 45.45922011883812 49.8
    endloop
  endfacet
  facet normal 0 0 -1
    outer loop
      vertex -85 48.5 49.8
      vertex -92.89134456098645 45.45922011883812 49.8
      vertex -92.96076951545868 45.599999999999994 49.8
    endloop
  endfacet
  facet normal 0 0 -1
    outer loop
      vertex -85 48.5 49.8
      vertex -93.04797599165052 45.730513714810456 49.8
      vertex -93.15147186257614 45.848528137423855 49.8
    endloop
  endfacet
  facet normal 0 0 -1
    outer loop
      vertex -85 48.5 49.8
      vertex -92.96076951545868 45.599999999999994 49.8
      vertex -93.04797599165052 45.730513714810456 49.8
    endloop
  endfacet
  facet normal 0 0 -1
    outer loop
      vertex -103 48.5 49.8
      vertex -85 48.5 49.8
      vertex -93.68941714587697 46.15911099154688 49.8
    endloop
  endfacet
  facet normal 0 0 -1
    outer loop
      vertex -85 48.5 49.8
      vertex -93.4 46.03923048454132 49.8
      vertex -93.5407798811619 46.108655439013546 49.8
    endloop
  endfacet
  facet normal 0 0 -1
    outer loop
      vertex -85 48.5 49.8
      vertex -93.5407798811619 46.108655439013546 49.8
      vertex -93.68941714587697 46.15911099154688 49.8
    endloop
  endfacet
  facet normal 0 0 -1
    outer loop
      vertex -85 48.5 49.8
      vertex -93.26948628518953 45.95202400834948 49.8
      vertex -93.4 46.03923048454132 49.8
    endloop
  endfacet
  facet normal 0 0 -1
    outer loop
      vertex -85 48.5 49.8
      vertex -93.15147186257614 45.848528137423855 49.8
      vertex -93.26948628518953 45.95202400834948 49.8
    endloop
  endfacet
  facet normal 0 0 -1
    outer loop
      vertex -85 41.5 49.8
      vertex -92.84088900845312 45.31058285412303 49.8
      vertex -85 48.5 49.8
    endloop
  endfacet
  facet normal 0 0 1
    outer loop
      vertex -85 48.5 51.3
      vertex -92.81026616635143 44.84336856933594 51.3
      vertex -92.84088900845312 44.68941714587697 51.3
    endloop
  endfacet
  facet normal 0 0 1
    outer loop
      vertex -85 48.5 51.3
      vertex -92.8 45 51.3
      vertex -92.81026616635143 44.84336856933594 51.3
    endloop
  endfacet
  facet normal 0 0 1
    outer loop
      vertex -85 48.5 51.3
      vertex -92.81026616635143 45.15663143066406 51.3
      vertex -92.8 45 51.3
    endloop
  endfacet
  facet normal 0 0 1
    outer loop
      vertex -85 48.5 51.3
      vertex -92.84088900845312 45.31058285412303 51.3
      vertex -92.81026616635143 45.15663143066406 51.3
    endloop
  endfacet
  facet normal 0 0 1
    outer loop
      vertex -85 48.5 51.3
      vertex -92.89134456098645 45.45922011883812 51.3
      vertex -92.84088900845312 45.31058285412303 51.3
    endloop
  endfacet
  facet normal 0 0 1
    outer loop
      vertex -85 48.5 51.3
      vertex -92.96076951545868 45.599999999999994 51.3
      vertex -92.89134456098645 45.45922011883812 51.3
    endloop
  endfacet
  facet normal 0 0 1
    outer loop
      vertex -85 48.5 51.3
      vertex -93.15147186257614 45.848528137423855 51.3
      vertex -93.04797599165052 45.730513714810456 51.3
    endloop
  endfacet
  facet normal 0 0 1
    outer loop
      vertex -85 48.5 51.3
      vertex -93.04797599165052 45.730513714810456 51.3
      vertex -92.96076951545868 45.599999999999994 51.3
    endloop
  endfacet
  facet normal 0 1 0
    outer loop
      vertex -103 48.5 51.3
      vertex -85 48.5 51.3
      vertex -85 48.5 49.8
    endloop
  endfacet
  facet normal 0 0 1
    outer loop
      vertex -85 48.5 51.3
      vertex -94.31058285412303 46.15911099154688 51.3
      vertex -94.15663143066406 46.189733833648575 51.3
    endloop
  endfacet
  facet normal 0 0 1
    outer loop
      vertex -85 48.5 51.3
      vertex -94.15663143066406 46.189733833648575 51.3
      vertex -94 46.2 51.3
    endloop
  endfacet
  facet normal 0 0 1
    outer loop
      vertex -85 48.5 51.3
      vertex -94 46.2 51.3
      vertex -93.84336856933594 46.189733833648575 51.3
    endloop
  endfacet
  facet normal 0 0 1
    outer loop
      vertex -85 48.5 51.3
      vertex -93.84336856933594 46.189733833648575 51.3
      vertex -93.68941714587697 46.15911099154688 51.3
    endloop
  endfacet
  facet normal 0 0 1
    outer loop
      vertex -85 48.5 51.3
      vertex -93.5407798811619 46.108655439013546 51.3
      vertex -93.4 46.03923048454132 51.3
    endloop
  endfacet
  facet normal 0 0 1
    outer loop
      vertex -85 48.5 51.3
      vertex -93.68941714587697 46.15911099154688 51.3
      vertex -93.5407798811619 46.108655439013546 51.3
    endloop
  endfacet
  facet normal 0 0 1
    outer loop
      vertex -85 48.5 51.3
      vertex -93.4 46.03923048454132 51.3
      vertex -93.26948628518953 45.95202400834948 51.3
    endloop
  endfacet
  facet normal 0 0 1
    outer loop
      vertex -85 48.5 51.3
      vertex -93.26948628518953 45.95202400834948 51.3
      vertex -93.15147186257614 45.848528137423855 51.3
    endloop
  endfacet
  facet normal 1 0 0
    outer loop
      vertex -85 41.5 51.3
      vertex -85 48.5 49.8
      vertex -85 48.5 51.3
    endloop
  endfacet
  facet normal 0.6593458151001002 0.7518398074789501 0
    outer loop
      vertex -94.84852813742386 44.151471862576145 51.3
      vertex -94.73051371481047 44.04797599165052 49.8
      vertex -94.84852813742386 44.151471862576145 49.8
    endloop
  endfacet
  facet normal 0.5555702330195417 0.8314696123025859 0
    outer loop
      vertex -94.73051371481047 44.04797599165052 51.3
      vertex -94.6 43.96076951545868 49.8
      vertex -94.73051371481047 44.04797599165052 49.8
    endloop
  endfacet
  facet normal 0.3214394653031611 0.9469301294951058 0
    outer loop
      vertex -94.4592201188381 43.891344560986454 51.3
      vertex -94.31058285412303 43.84088900845312 49.8
      vertex -94.4592201188381 43.891344560986454 49.8
    endloop
  endfacet
  facet normal 0.19509032201614018 0.9807852804032281 0
    outer loop
      vertex -94.31058285412303 43.84088900845312 51.3
      vertex -94.15663143066406 43.810266166351425 49.8
      vertex -94.31058285412303 43.84088900845312 49.8
    endloop
  endfacet
  facet normal 0.06540312923014742 0.9978589232386033 0
    outer loop
      vertex -94.15663143066406 43.810266166351425 51.3
      vertex -94 43.8 49.8
      vertex -94.15663143066406 43.810266166351425 49.8
    endloop
  endfacet
  facet normal 0.44228869021904554 0.8968727415326665 0
    outer loop
      vertex -94.6 43.96076951545868 51.3
      vertex -94.4592201188381 43.891344560986454 49.8
      vertex -94.6 43.96076951545868 49.8
    endloop
  endfacet
  facet normal 0.9469301294951151 0.32143946530313355 0
    outer loop
      vertex -95.10865543901355 44.54077988116188 49.8
      vertex -95.15911099154688 44.68941714587697 49.8
      vertex -95.15911099154688 44.68941714587697 51.3
    endloop
  endfacet
  facet normal 0.9807852804032281 0.19509032201614018 0
    outer loop
      vertex -95.18973383364857 44.84336856933594 51.3
      vertex -95.15911099154688 44.68941714587697 49.8
      vertex -95.18973383364857 44.84336856933594 49.8
    endloop
  endfacet
  facet normal 0.9978589232386033 0.06540312923014742 0
    outer loop
      vertex -95.2 45 51.3
      vertex -95.18973383364857 44.84336856933594 49.8
      vertex -95.2 45 49.8
    endloop
  endfacet
  facet normal 0.7518398074789895 0.6593458151000553 0
    outer loop
      vertex -94.95202400834948 44.269486285189544 51.3
      vertex -94.84852813742386 44.151471862576145 49.8
      vertex -94.95202400834948 44.269486285189544 49.8
    endloop
  endfacet
  facet normal 0.8314696123025579 0.5555702330195834 0
    outer loop
      vertex -95.03923048454132 44.400000000000006 51.3
      vertex -94.95202400834948 44.269486285189544 49.8
      vertex -95.03923048454132 44.400000000000006 49.8
    endloop
  endfacet
  facet normal 0.8968727415326487 0.44228869021908146 0
    outer loop
      vertex -95.10865543901355 44.54077988116188 51.3
      vertex -95.03923048454132 44.400000000000006 49.8
      vertex -95.10865543901355 44.54077988116188 49.8
    endloop
  endfacet
  facet normal 0.5555702330195417 0.8314696123025859 0
    outer loop
      vertex -94.6 43.96076951545868 51.3
      vertex -94.6 43.96076951545868 49.8
      vertex -94.73051371481047 44.04797599165052 51.3
    endloop
  endfacet
  facet normal 0.6593458151001002 0.7518398074789501 0
    outer loop
      vertex -94.73051371481047 44.04797599165052 51.3
      vertex -94.73051371481047 44.04797599165052 49.8
      vertex -94.84852813742386 44.151471862576145 51.3
    endloop
  endfacet
  facet normal 0.3214394653031611 0.9469301294951058 0
    outer loop
      vertex -94.31058285412303 43.84088900845312 51.3
      vertex -94.31058285412303 43.84088900845312 49.8
      vertex -94.4592201188381 43.891344560986454 51.3
    endloop
  endfacet
  facet normal 0.19509032201614018 0.9807852804032281 0
    outer loop
      vertex -94.15663143066406 43.810266166351425 51.3
      vertex -94.15663143066406 43.810266166351425 49.8
      vertex -94.31058285412303 43.84088900845312 51.3
    endloop
  endfacet
  facet normal 0.06540312923014742 0.9978589232386033 0
    outer loop
      vertex -94 43.8 51.3
      vertex -94 43.8 49.8
      vertex -94.15663143066406 43.810266166351425 51.3
    endloop
  endfacet
  facet normal 0.44228869021904554 0.8968727415326665 0
    outer loop
      vertex -94.4592201188381 43.891344560986454 51.3
      vertex -94.4592201188381 43.891344560986454 49.8
      vertex -94.6 43.96076951545868 51.3
    endloop
  endfacet
  facet normal 0.9469301294951151 0.32143946530313355 0
    outer loop
      vertex -95.15911099154688 44.68941714587697 51.3
      vertex -95.10865543901355 44.54077988116188 51.3
      vertex -95.10865543901355 44.54077988116188 49.8
    endloop
  endfacet
  facet normal 0.9807852804032281 0.19509032201614018 0
    outer loop
      vertex -95.18973383364857 44.84336856933594 51.3
      vertex -95.15911099154688 44.68941714587697 51.3
      vertex -95.15911099154688 44.68941714587697 49.8
    endloop
  endfacet
  facet normal 0.9978589232386033 0.06540312923014742 0
    outer loop
      vertex -95.2 45 51.3
      vertex -95.18973383364857 44.84336856933594 51.3
      vertex -95.18973383364857 44.84336856933594 49.8
    endloop
  endfacet
  facet normal 0.7518398074789895 0.6593458151000553 0
    outer loop
      vertex -94.95202400834948 44.269486285189544 51.3
      vertex -94.84852813742386 44.151471862576145 51.3
      vertex -94.84852813742386 44.151471862576145 49.8
    endloop
  endfacet
  facet normal 0.8314696123025579 0.5555702330195834 0
    outer loop
      vertex -95.03923048454132 44.400000000000006 51.3
      vertex -94.95202400834948 44.269486285189544 51.3
      vertex -94.95202400834948 44.269486285189544 49.8
    endloop
  endfacet
  facet normal 0.8968727415326487 0.44228869021908146 0
    outer loop
      vertex -95.10865543901355 44.54077988116188 51.3
      vertex -95.03923048454132 44.400000000000006 51.3
      vertex -95.03923048454132 44.400000000000006 49.8
    endloop
  endfacet
  facet normal 0.9978589232386033 -0.06540312923014742 0
    outer loop
      vertex -95.18973383364857 45.15663143066406 51.3
      vertex -95.2 45 49.8
      vertex -95.18973383364857 45.15663143066406 49.8
    endloop
  endfacet
  facet normal 0.9807852804032281 -0.19509032201614018 0
    outer loop
      vertex -95.15911099154688 45.31058285412303 51.3
      vertex -95.18973383364857 45.15663143066406 49.8
      vertex -95.15911099154688 45.31058285412303 49.8
    endloop
  endfacet
  facet normal 0.9469301294951151 -0.32143946530313355 0
    outer loop
      vertex -95.15911099154688 45.31058285412303 49.8
      vertex -95.10865543901355 45.45922011883812 49.8
      vertex -95.10865543901355 45.45922011883812 51.3
    endloop
  endfacet
  facet normal 0.8968727415326487 -0.44228869021908146 0
    outer loop
      vertex -95.10865543901355 45.45922011883812 49.8
      vertex -95.03923048454132 45.599999999999994 49.8
      vertex -95.03923048454132 45.599999999999994 51.3
    endloop
  endfacet
  facet normal 0.8314696123025579 -0.5555702330195834 0
    outer loop
      vertex -95.03923048454132 45.599999999999994 49.8
      vertex -94.95202400834948 45.730513714810456 49.8
      vertex -94.95202400834948 45.730513714810456 51.3
    endloop
  endfacet
  facet normal 0.7518398074789895 -0.6593458151000553 0
    outer loop
      vertex -94.95202400834948 45.730513714810456 49.8
      vertex -94.84852813742386 45.848528137423855 49.8
      vertex -94.84852813742386 45.848528137423855 51.3
    endloop
  endfacet
  facet normal 0.6593458151001002 -0.7518398074789501 0
    outer loop
      vertex -94.73051371481047 45.95202400834948 49.8
      vertex -94.73051371481047 45.95202400834948 51.3
      vertex -94.84852813742386 45.848528137423855 49.8
    endloop
  endfacet
  facet normal 0.5555702330195417 -0.8314696123025859 0
    outer loop
      vertex -94.6 46.03923048454132 49.8
      vertex -94.6 46.03923048454132 51.3
      vertex -94.73051371481047 45.95202400834948 49.8
    endloop
  endfacet
  facet normal 0.44228869021904554 -0.8968727415326665 0
    outer loop
      vertex -94.4592201188381 46.108655439013546 49.8
      vertex -94.4592201188381 46.108655439013546 51.3
      vertex -94.6 46.03923048454132 49.8
    endloop
  endfacet
  facet normal 0.3214394653031611 -0.9469301294951058 0
    outer loop
      vertex -94.31058285412303 46.15911099154688 49.8
      vertex -94.31058285412303 46.15911099154688 51.3
      vertex -94.4592201188381 46.108655439013546 49.8
    endloop
  endfacet
  facet normal 0.19509032201614018 -0.9807852804032281 0
    outer loop
      vertex -94.15663143066406 46.189733833648575 49.8
      vertex -94.15663143066406 46.189733833648575 51.3
      vertex -94.31058285412303 46.15911099154688 49.8
    endloop
  endfacet
  facet normal 0.06540312923014742 -0.9978589232386033 0
    outer loop
      vertex -94.15663143066406 46.189733833648575 49.8
      vertex -94 46.2 49.8
      vertex -94 46.2 51.3
    endloop
  endfacet
  facet normal 0.9978589232386033 -0.06540312923014742 0
    outer loop
      vertex -95.18973383364857 45.15663143066406 51.3
      vertex -95.2 45 51.3
      vertex -95.2 45 49.8
    endloop
  endfacet
  facet normal 0.9807852804032281 -0.19509032201614018 0
    outer loop
      vertex -95.15911099154688 45.31058285412303 51.3
      vertex -95.18973383364857 45.15663143066406 51.3
      vertex -95.18973383364857 45.15663143066406 49.8
    endloop
  endfacet
  facet normal 0.9469301294951151 -0.32143946530313355 0
    outer loop
      vertex -95.10865543901355 45.45922011883812 51.3
      vertex -95.15911099154688 45.31058285412303 51.3
      vertex -95.15911099154688 45.31058285412303 49.8
    endloop
  endfacet
  facet normal 0.8968727415326487 -0.44228869021908146 0
    outer loop
      vertex -95.10865543901355 45.45922011883812 49.8
      vertex -95.03923048454132 45.599999999999994 51.3
      vertex -95.10865543901355 45.45922011883812 51.3
    endloop
  endfacet
  facet normal 0.8314696123025579 -0.5555702330195834 0
    outer loop
      vertex -95.03923048454132 45.599999999999994 49.8
      vertex -94.95202400834948 45.730513714810456 51.3
      vertex -95.03923048454132 45.599999999999994 51.3
    endloop
  endfacet
  facet normal 0.7518398074789895 -0.6593458151000553 0
    outer loop
      vertex -94.95202400834948 45.730513714810456 49.8
      vertex -94.84852813742386 45.848528137423855 51.3
      vertex -94.95202400834948 45.730513714810456 51.3
    endloop
  endfacet
  facet normal 0.6593458151001002 -0.7518398074789501 0
    outer loop
      vertex -94.84852813742386 45.848528137423855 49.8
      vertex -94.73051371481047 45.95202400834948 51.3
      vertex -94.84852813742386 45.848528137423855 51.3
    endloop
  endfacet
  facet normal 0.5555702330195417 -0.8314696123025859 0
    outer loop
      vertex -94.73051371481047 45.95202400834948 49.8
      vertex -94.6 46.03923048454132 51.3
      vertex -94.73051371481047 45.95202400834948 51.3
    endloop
  endfacet
  facet normal 0.44228869021904554 -0.8968727415326665 0
    outer loop
      vertex -94.6 46.03923048454132 49.8
      vertex -94.4592201188381 46.108655439013546 51.3
      vertex -94.6 46.03923048454132 51.3
    endloop
  endfacet
  facet normal 0.3214394653031611 -0.9469301294951058 0
    outer loop
      vertex -94.4592201188381 46.108655439013546 49.8
      vertex -94.31058285412303 46.15911099154688 51.3
      vertex -94.4592201188381 46.108655439013546 51.3
    endloop
  endfacet
  facet normal 0.19509032201614018 -0.9807852804032281 0
    outer loop
      vertex -94.31058285412303 46.15911099154688 49.8
      vertex -94.15663143066406 46.189733833648575 51.3
      vertex -94.31058285412303 46.15911099154688 51.3
    endloop
  endfacet
  facet normal 0.06540312923014742 -0.9978589232386033 0
    outer loop
      vertex -94 46.2 51.3
      vertex -94.15663143066406 46.189733833648575 51.3
      vertex -94.15663143066406 46.189733833648575 49.8
    endloop
  endfacet
  facet normal -0.06540312923014742 0.9978589232386033 0
    outer loop
      vertex -94 43.8 51.3
      vertex -93.84336856933594 43.810266166351425 49.8
      vertex -94 43.8 49.8
    endloop
  endfacet
  facet normal -0.19509032201614018 0.9807852804032281 0
    outer loop
      vertex -93.84336856933594 43.810266166351425 51.3
      vertex -93.68941714587697 43.84088900845312 49.8
      vertex -93.84336856933594 43.810266166351425 49.8
    endloop
  endfacet
  facet normal -0.3214394653031611 0.9469301294951058 0
    outer loop
      vertex -93.68941714587697 43.84088900845312 51.3
      vertex -93.5407798811619 43.891344560986454 49.8
      vertex -93.68941714587697 43.84088900845312 49.8
    endloop
  endfacet
  facet normal -0.44228869021904554 0.8968727415326665 0
    outer loop
      vertex -93.5407798811619 43.891344560986454 51.3
      vertex -93.4 43.96076951545868 49.8
      vertex -93.5407798811619 43.891344560986454 49.8
    endloop
  endfacet
  facet normal -0.5555702330195417 0.8314696123025859 0
    outer loop
      vertex -93.4 43.96076951545868 51.3
      vertex -93.26948628518953 44.04797599165052 49.8
      vertex -93.4 43.96076951545868 49.8
    endloop
  endfacet
  facet normal -0.6593458151001002 0.7518398074789501 0
    outer loop
      vertex -93.26948628518953 44.04797599165052 51.3
      vertex -93.15147186257614 44.151471862576145 49.8
      vertex -93.26948628518953 44.04797599165052 49.8
    endloop
  endfacet
  facet normal -0.7518398074789895 0.6593458151000553 0
    outer loop
      vertex -93.15147186257614 44.151471862576145 49.8
      vertex -93.15147186257614 44.151471862576145 51.3
      vertex -93.04797599165052 44.269486285189544 49.8
    endloop
  endfacet
  facet normal -0.8314696123025579 0.5555702330195834 0
    outer loop
      vertex -93.04797599165052 44.269486285189544 51.3
      vertex -92.96076951545868 44.400000000000006 49.8
      vertex -93.04797599165052 44.269486285189544 49.8
    endloop
  endfacet
  facet normal -0.8968727415326487 0.44228869021908146 0
    outer loop
      vertex -92.96076951545868 44.400000000000006 51.3
      vertex -92.89134456098645 44.54077988116188 49.8
      vertex -92.96076951545868 44.400000000000006 49.8
    endloop
  endfacet
  facet normal -0.9469301294951151 0.32143946530313355 0
    outer loop
      vertex -92.89134456098645 44.54077988116188 51.3
      vertex -92.84088900845312 44.68941714587697 49.8
      vertex -92.89134456098645 44.54077988116188 49.8
    endloop
  endfacet
  facet normal -0.9807852804032281 0.19509032201614018 0
    outer loop
      vertex -92.81026616635143 44.84336856933594 49.8
      vertex -92.84088900845312 44.68941714587697 49.8
      vertex -92.84088900845312 44.68941714587697 51.3
    endloop
  endfacet
  facet normal -0.9978589232386033 0.06540312923014742 0
    outer loop
      vertex -92.81026616635143 44.84336856933594 49.8
      vertex -92.81026616635143 44.84336856933594 51.3
      vertex -92.8 45 49.8
    endloop
  endfacet
  facet normal -0.06540312923014742 0.9978589232386033 0
    outer loop
      vertex -93.84336856933594 43.810266166351425 51.3
      vertex -93.84336856933594 43.810266166351425 49.8
      vertex -94 43.8 51.3
    endloop
  endfacet
  facet normal -0.19509032201614018 0.9807852804032281 0
    outer loop
      vertex -93.68941714587697 43.84088900845312 51.3
      vertex -93.68941714587697 43.84088900845312 49.8
      vertex -93.84336856933594 43.810266166351425 51.3
    endloop
  endfacet
  facet normal -0.3214394653031611 0.9469301294951058 0
    outer loop
      vertex -93.5407798811619 43.891344560986454 51.3
      vertex -93.5407798811619 43.891344560986454 49.8
      vertex -93.68941714587697 43.84088900845312 51.3
    endloop
  endfacet
  facet normal -0.44228869021904554 0.8968727415326665 0
    outer loop
      vertex -93.4 43.96076951545868 51.3
      vertex -93.4 43.96076951545868 49.8
      vertex -93.5407798811619 43.891344560986454 51.3
    endloop
  endfacet
  facet normal -0.5555702330195417 0.8314696123025859 0
    outer loop
      vertex -93.26948628518953 44.04797599165052 51.3
      vertex -93.26948628518953 44.04797599165052 49.8
      vertex -93.4 43.96076951545868 51.3
    endloop
  endfacet
  facet normal -0.6593458151001002 0.7518398074789501 0
    outer loop
      vertex -93.15147186257614 44.151471862576145 51.3
      vertex -93.15147186257614 44.151471862576145 49.8
      vertex -93.26948628518953 44.04797599165052 51.3
    endloop
  endfacet
  facet normal -0.7518398074789895 0.6593458151000553 0
    outer loop
      vertex -93.15147186257614 44.151471862576145 51.3
      vertex -93.04797599165052 44.269486285189544 51.3
      vertex -93.04797599165052 44.269486285189544 49.8
    endloop
  endfacet
  facet normal -0.8314696123025579 0.5555702330195834 0
    outer loop
      vertex -93.04797599165052 44.269486285189544 51.3
      vertex -92.96076951545868 44.400000000000006 51.3
      vertex -92.96076951545868 44.400000000000006 49.8
    endloop
  endfacet
  facet normal -0.8968727415326487 0.44228869021908146 0
    outer loop
      vertex -92.96076951545868 44.400000000000006 51.3
      vertex -92.89134456098645 44.54077988116188 51.3
      vertex -92.89134456098645 44.54077988116188 49.8
    endloop
  endfacet
  facet normal -0.9469301294951151 0.32143946530313355 0
    outer loop
      vertex -92.89134456098645 44.54077988116188 51.3
      vertex -92.84088900845312 44.68941714587697 51.3
      vertex -92.84088900845312 44.68941714587697 49.8
    endloop
  endfacet
  facet normal -0.9807852804032281 0.19509032201614018 0
    outer loop
      vertex -92.81026616635143 44.84336856933594 49.8
      vertex -92.84088900845312 44.68941714587697 51.3
      vertex -92.81026616635143 44.84336856933594 51.3
    endloop
  endfacet
  facet normal -0.9978589232386033 0.06540312923014742 0
    outer loop
      vertex -92.8 45 49.8
      vertex -92.81026616635143 44.84336856933594 51.3
      vertex -92.8 45 51.3
    endloop
  endfacet
  facet normal -0.8968727415326487 -0.44228869021908146 0
    outer loop
      vertex -92.96076951545868 45.599999999999994 49.8
      vertex -92.89134456098645 45.45922011883812 49.8
      vertex -92.89134456098645 45.45922011883812 51.3
    endloop
  endfacet
  facet normal -0.8314696123025579 -0.5555702330195834 0
    outer loop
      vertex -93.04797599165052 45.730513714810456 49.8
      vertex -92.96076951545868 45.599999999999994 49.8
      vertex -92.96076951545868 45.599999999999994 51.3
    endloop
  endfacet
  facet normal -0.7518398074789895 -0.6593458151000553 0
    outer loop
      vertex -93.15147186257614 45.848528137423855 49.8
      vertex -93.04797599165052 45.730513714810456 49.8
      vertex -93.04797599165052 45.730513714810456 51.3
    endloop
  endfacet
  facet normal -0.9978589232386033 -0.06540312923014742 0
    outer loop
      vertex -92.8 45 49.8
      vertex -92.8 45 51.3
      vertex -92.81026616635143 45.15663143066406 49.8
    endloop
  endfacet
  facet normal -0.9807852804032281 -0.19509032201614018 0
    outer loop
      vertex -92.84088900845312 45.31058285412303 49.8
      vertex -92.81026616635143 45.15663143066406 49.8
      vertex -92.81026616635143 45.15663143066406 51.3
    endloop
  endfacet
  facet normal -0.9469301294951151 -0.32143946530313355 0
    outer loop
      vertex -92.89134456098645 45.45922011883812 49.8
      vertex -92.84088900845312 45.31058285412303 49.8
      vertex -92.84088900845312 45.31058285412303 51.3
    endloop
  endfacet
  facet normal -0.44228869021904554 -0.8968727415326665 0
    outer loop
      vertex -93.4 46.03923048454132 49.8
      vertex -93.4 46.03923048454132 51.3
      vertex -93.5407798811619 46.108655439013546 49.8
    endloop
  endfacet
  facet normal -0.06540312923014742 -0.9978589232386033 0
    outer loop
      vertex -93.84336856933594 46.189733833648575 49.8
      vertex -93.84336856933594 46.189733833648575 51.3
      vertex -94 46.2 49.8
    endloop
  endfacet
  facet normal -0.19509032201614018 -0.9807852804032281 0
    outer loop
      vertex -93.68941714587697 46.15911099154688 49.8
      vertex -93.68941714587697 46.15911099154688 51.3
      vertex -93.84336856933594 46.189733833648575 49.8
    endloop
  endfacet
  facet normal -0.3214394653031611 -0.9469301294951058 0
    outer loop
      vertex -93.5407798811619 46.108655439013546 49.8
      vertex -93.5407798811619 46.108655439013546 51.3
      vertex -93.68941714587697 46.15911099154688 49.8
    endloop
  endfacet
  facet normal -0.5555702330195417 -0.8314696123025859 0
    outer loop
      vertex -93.26948628518953 45.95202400834948 49.8
      vertex -93.26948628518953 45.95202400834948 51.3
      vertex -93.4 46.03923048454132 49.8
    endloop
  endfacet
  facet normal -0.6593458151001002 -0.7518398074789501 0
    outer loop
      vertex -93.26948628518953 45.95202400834948 49.8
      vertex -93.15147186257614 45.848528137423855 49.8
      vertex -93.15147186257614 45.848528137423855 51.3
    endloop
  endfacet
  facet normal -0.8968727415326487 -0.44228869021908146 0
    outer loop
      vertex -92.96076951545868 45.599999999999994 49.8
      vertex -92.89134456098645 45.45922011883812 51.3
      vertex -92.96076951545868 45.599999999999994 51.3
    endloop
  endfacet
  facet normal -0.8314696123025579 -0.5555702330195834 0
    outer loop
      vertex -93.04797599165052 45.730513714810456 49.8
      vertex -92.96076951545868 45.599999999999994 51.3
      vertex -93.04797599165052 45.730513714810456 51.3
    endloop
  endfacet
  facet normal -0.7518398074789895 -0.6593458151000553 0
    outer loop
      vertex -93.15147186257614 45.848528137423855 49.8
      vertex -93.04797599165052 45.730513714810456 51.3
      vertex -93.15147186257614 45.848528137423855 51.3
    endloop
  endfacet
  facet normal -0.9978589232386033 -0.06540312923014742 0
    outer loop
      vertex -92.81026616635143 45.15663143066406 49.8
      vertex -92.8 45 51.3
      vertex -92.81026616635143 45.15663143066406 51.3
    endloop
  endfacet
  facet normal -0.9807852804032281 -0.19509032201614018 0
    outer loop
      vertex -92.84088900845312 45.31058285412303 49.8
      vertex -92.81026616635143 45.15663143066406 51.3
      vertex -92.84088900845312 45.31058285412303 51.3
    endloop
  endfacet
  facet normal -0.9469301294951151 -0.32143946530313355 0
    outer loop
      vertex -92.89134456098645 45.45922011883812 49.8
      vertex -92.84088900845312 45.31058285412303 51.3
      vertex -92.89134456098645 45.45922011883812 51.3
    endloop
  endfacet
  facet normal -0.44228869021904554 -0.8968727415326665 0
    outer loop
      vertex -93.5407798811619 46.108655439013546 49.8
      vertex -93.4 46.03923048454132 51.3
      vertex -93.5407798811619 46.108655439013546 51.3
    endloop
  endfacet
  facet normal -0.06540312923014742 -0.9978589232386033 0
    outer loop
      vertex -94 46.2 49.8
      vertex -93.84336856933594 46.189733833648575 51.3
      vertex -94 46.2 51.3
    endloop
  endfacet
  facet normal -0.19509032201614018 -0.9807852804032281 0
    outer loop
      vertex -93.84336856933594 46.189733833648575 49.8
      vertex -93.68941714587697 46.15911099154688 51.3
      vertex -93.84336856933594 46.189733833648575 51.3
    endloop
  endfacet
  facet normal -0.3214394653031611 -0.9469301294951058 0
    outer loop
      vertex -93.68941714587697 46.15911099154688 49.8
      vertex -93.5407798811619 46.108655439013546 51.3
      vertex -93.68941714587697 46.15911099154688 51.3
    endloop
  endfacet
  facet normal -0.6593458151001002 -0.7518398074789501 0
    outer loop
      vertex -93.26948628518953 45.95202400834948 49.8
      vertex -93.15147186257614 45.848528137423855 51.3
      vertex -93.26948628518953 45.95202400834948 51.3
    endloop
  endfacet
  facet normal -0.5555702330195417 -0.8314696123025859 0
    outer loop
      vertex -93.4 46.03923048454132 49.8
      vertex -93.26948628518953 45.95202400834948 51.3
      vertex -93.4 46.03923048454132 51.3
    endloop
  endfacet
endsolid OpenSCAD_Model
