solid OpenSCAD_Model
  facet normal 0 0 -1
    outer loop
      vertex 30 -46.5 49.8
      vertex 30 -39.5 49.8
      vertex 37.84088900845312 -43.31058285412303 49.8
    endloop
  endfacet
  facet normal 0 0 -1
    outer loop
      vertex 30 -46.5 49.8
      vertex 38.151471862576145 -43.848528137423855 49.8
      vertex 38.26948628518954 -43.95202400834948 49.8
    endloop
  endfacet
  facet normal 0 0 -1
    outer loop
      vertex 30 -46.5 49.8
      vertex 38.26948628518954 -43.95202400834948 49.8
      vertex 38.4 -44.03923048454133 49.8
    endloop
  endfacet
  facet normal 0 0 -1
    outer loop
      vertex 30 -46.5 49.8
      vertex 38.54077988116189 -44.108655439013546 49.8
      vertex 38.68941714587697 -44.15911099154688 49.8
    endloop
  endfacet
  facet normal 0 0 -1
    outer loop
      vertex 30 -46.5 49.8
      vertex 38.4 -44.03923048454133 49.8
      vertex 38.54077988116189 -44.108655439013546 49.8
    endloop
  endfacet
  facet normal 0 0 -1
    outer loop
      vertex 30 -46.5 49.8
      vertex 38.68941714587697 -44.15911099154688 49.8
      vertex 48 -46.5 49.8
    endloop
  endfacet
  facet normal 0 0 -1
    outer loop
      vertex 30 -46.5 49.8
      vertex 37.96076951545867 -43.6 49.8
      vertex 38.04797599165052 -43.73051371481046 49.8
    endloop
  endfacet
  facet normal 0 0 -1
    outer loop
      vertex 30 -46.5 49.8
      vertex 38.04797599165052 -43.73051371481046 49.8
      vertex 38.151471862576145 -43.848528137423855 49.8
    endloop
  endfacet
  facet normal 0 0 -1
    outer loop
      vertex 30 -46.5 49.8
      vertex 37.891344560986454 -43.45922011883811 49.8
      vertex 37.96076951545867 -43.6 49.8
    endloop
  endfacet
  facet normal 0 0 -1
    outer loop
      vertex 30 -46.5 49.8
      vertex 37.84088900845312 -43.31058285412303 49.8
      vertex 37.891344560986454 -43.45922011883811 49.8
    endloop
  endfacet
  facet normal -1 0 0
    outer loop
      vertex 30 -46.5 49.8
      vertex 30 -46.5 51.3
      vertex 30 -39.5 51.3
    endloop
  endfacet
  facet normal 0 -1 0
    outer loop
      vertex 30 -46.5 49.8
      vertex 48 -46.5 51.3
      vertex 30 -46.5 51.3
    endloop
  endfacet
  facet normal 0 0 1
    outer loop
      vertex 30 -46.5 51.3
      vertex 38.26948628518954 -43.95202400834948 51.3
      vertex 38.151471862576145 -43.848528137423855 51.3
    endloop
  endfacet
  facet normal 0 0 1
    outer loop
      vertex 30 -46.5 51.3
      vertex 38.4 -44.03923048454133 51.3
      vertex 38.26948628518954 -43.95202400834948 51.3
    endloop
  endfacet
  facet normal 0 0 1
    outer loop
      vertex 30 -46.5 51.3
      vertex 38.68941714587697 -44.15911099154688 51.3
      vertex 38.54077988116189 -44.108655439013546 51.3
    endloop
  endfacet
  facet normal 0 0 1
    outer loop
      vertex 30 -46.5 51.3
      vertex 38.54077988116189 -44.108655439013546 51.3
      vertex 38.4 -44.03923048454133 51.3
    endloop
  endfacet
  facet normal 0 0 1
    outer loop
      vertex 30 -46.5 51.3
      vertex 38.84336856933594 -44.189733833648575 51.3
      vertex 38.68941714587697 -44.15911099154688 51.3
    endloop
  endfacet
  facet normal 0 0 1
    outer loop
      vertex 30 -46.5 51.3
      vertex 39 -44.2 51.3
      vertex 38.84336856933594 -44.189733833648575 51.3
    endloop
  endfacet
  facet normal 0 0 1
    outer loop
      vertex 30 -46.5 51.3
      vertex 39.15663143066406 -44.189733833648575 51.3
      vertex 39 -44.2 51.3
    endloop
  endfacet
  facet normal 0 0 1
    outer loop
      vertex 30 -46.5 51.3
      vertex 39.31058285412303 -44.15911099154688 51.3
      vertex 39.15663143066406 -44.189733833648575 51.3
    endloop
  endfacet
  facet normal 0 0 1
    outer loop
      vertex 30 -46.5 51.3
      vertex 38.04797599165052 -43.73051371481046 51.3
      vertex 37.96076951545867 -43.6 51.3
    endloop
  endfacet
  facet normal 0 0 1
    outer loop
      vertex 30 -46.5 51.3
      vertex 38.151471862576145 -43.848528137423855 51.3
      vertex 38.04797599165052 -43.73051371481046 51.3
    endloop
  endfacet
  facet normal 0 0 1
    outer loop
      vertex 30 -46.5 51.3
      vertex 37.96076951545867 -43.6 51.3
      vertex 37.891344560986454 -43.45922011883811 51.3
    endloop
  endfacet
  facet normal 0 0 1
    outer loop
      vertex 30 -46.5 51.3
      vertex 37.891344560986454 -43.45922011883811 51.3
      vertex 37.84088900845312 -43.31058285412303 51.3
    endloop
  endfacet
  facet normal 0 0 1
    outer loop
      vertex 30 -46.5 51.3
      vertex 37.84088900845312 -43.31058285412303 51.3
      vertex 37.810266166351425 -43.15663143066406 51.3
    endloop
  endfacet
  facet normal 0 0 1
    outer loop
      vertex 30 -46.5 51.3
      vertex 37.810266166351425 -43.15663143066406 51.3
      vertex 37.8 -43 51.3
    endloop
  endfacet
  facet normal 0 0 1
    outer loop
      vertex 30 -46.5 51.3
      vertex 37.8 -43 51.3
      vertex 37.810266166351425 -42.84336856933594 51.3
    endloop
  endfacet
  facet normal 0 0 1
    outer loop
      vertex 30 -46.5 51.3
      vertex 37.810266166351425 -42.84336856933594 51.3
      vertex 37.84088900845312 -42.68941714587697 51.3
    endloop
  endfacet
  facet normal -1 0 0
    outer loop
      vertex 30 -46.5 49.8
      vertex 30 -39.5 51.3
      vertex 30 -39.5 49.8
    endloop
  endfacet
  facet normal 0 0 -1
    outer loop
      vertex 30 -39.5 49.8
      vertex 37.810266166351425 -43.15663143066406 49.8
      vertex 37.84088900845312 -43.31058285412303 49.8
    endloop
  endfacet
  facet normal 0 0 -1
    outer loop
      vertex 30 -39.5 49.8
      vertex 37.8 -43 49.8
      vertex 37.810266166351425 -43.15663143066406 49.8
    endloop
  endfacet
  facet normal 0 0 -1
    outer loop
      vertex 30 -39.5 49.8
      vertex 37.810266166351425 -42.84336856933594 49.8
      vertex 37.8 -43 49.8
    endloop
  endfacet
  facet normal 0 0 -1
    outer loop
      vertex 30 -39.5 49.8
      vertex 37.84088900845312 -42.68941714587697 49.8
      vertex 37.810266166351425 -42.84336856933594 49.8
    endloop
  endfacet
  facet normal 0 0 -1
    outer loop
      vertex 30 -39.5 49.8
      vertex 37.891344560986454 -42.54077988116189 49.8
      vertex 37.84088900845312 -42.68941714587697 49.8
    endloop
  endfacet
  facet normal 0 0 -1
    outer loop
      vertex 30 -39.5 49.8
      vertex 37.96076951545867 -42.4 49.8
      vertex 37.891344560986454 -42.54077988116189 49.8
    endloop
  endfacet
  facet normal 0 0 -1
    outer loop
      vertex 30 -39.5 49.8
      vertex 38.04797599165052 -42.26948628518954 49.8
      vertex 37.96076951545867 -42.4 49.8
    endloop
  endfacet
  facet normal 0 0 -1
    outer loop
      vertex 30 -39.5 49.8
      vertex 38.151471862576145 -42.151471862576145 49.8
      vertex 38.04797599165052 -42.26948628518954 49.8
    endloop
  endfacet
  facet normal 0 0 -1
    outer loop
      vertex 30 -39.5 49.8
      vertex 38.26948628518954 -42.04797599165052 49.8
      vertex 38.151471862576145 -42.151471862576145 49.8
    endloop
  endfacet
  facet normal 0 0 -1
    outer loop
      vertex 30 -39.5 49.8
      vertex 38.4 -41.96076951545867 49.8
      vertex 38.26948628518954 -42.04797599165052 49.8
    endloop
  endfacet
  facet normal 0 0 -1
    outer loop
      vertex 30 -39.5 49.8
      vertex 38.54077988116189 -41.891344560986454 49.8
      vertex 38.4 -41.96076951545867 49.8
    endloop
  endfacet
  facet normal 0 0 -1
    outer loop
      vertex 30 -39.5 49.8
      vertex 38.68941714587697 -41.84088900845312 49.8
      vertex 38.54077988116189 -41.891344560986454 49.8
    endloop
  endfacet
  facet normal 0 0 -1
    outer loop
      vertex 30 -39.5 49.8
      vertex 38.84336856933594 -41.810266166351425 49.8
      vertex 38.68941714587697 -41.84088900845312 49.8
    endloop
  endfacet
  facet normal 0 0 -1
    outer loop
      vertex 30 -39.5 49.8
      vertex 39 -41.8 49.8
      vertex 38.84336856933594 -41.810266166351425 49.8
    endloop
  endfacet
  facet normal 0 0 -1
    outer loop
      vertex 30 -39.5 49.8
      vertex 39.15663143066406 -41.810266166351425 49.8
      vertex 39 -41.8 49.8
    endloop
  endfacet
  facet normal 0 0 -1
    outer loop
      vertex 30 -39.5 49.8
      vertex 39.31058285412303 -41.84088900845312 49.8
      vertex 39.15663143066406 -41.810266166351425 49.8
    endloop
  endfacet
  facet normal 0 1 0
    outer loop
      vertex 30 -39.5 49.8
      vertex 30 -39.5 51.3
      vertex 48 -39.5 49.8
    endloop
  endfacet
  facet normal 0 0 1
    outer loop
      vertex 30 -46.5 51.3
      vertex 37.84088900845312 -42.68941714587697 51.3
      vertex 30 -39.5 51.3
    endloop
  endfacet
  facet normal 0 0 1
    outer loop
      vertex 30 -39.5 51.3
      vertex 37.84088900845312 -42.68941714587697 51.3
      vertex 37.891344560986454 -42.54077988116189 51.3
    endloop
  endfacet
  facet normal 0 0 1
    outer loop
      vertex 30 -39.5 51.3
      vertex 37.891344560986454 -42.54077988116189 51.3
      vertex 37.96076951545867 -42.4 51.3
    endloop
  endfacet
  facet normal 0 0 1
    outer loop
      vertex 30 -39.5 51.3
      vertex 37.96076951545867 -42.4 51.3
      vertex 38.04797599165052 -42.26948628518954 51.3
    endloop
  endfacet
  facet normal 0 0 1
    outer loop
      vertex 30 -39.5 51.3
      vertex 38.04797599165052 -42.26948628518954 51.3
      vertex 38.151471862576145 -42.151471862576145 51.3
    endloop
  endfacet
  facet normal 0 0 1
    outer loop
      vertex 30 -39.5 51.3
      vertex 38.151471862576145 -42.151471862576145 51.3
      vertex 38.26948628518954 -42.04797599165052 51.3
    endloop
  endfacet
  facet normal 0 0 1
    outer loop
      vertex 30 -39.5 51.3
      vertex 38.26948628518954 -42.04797599165052 51.3
      vertex 38.4 -41.96076951545867 51.3
    endloop
  endfacet
  facet normal 0 0 1
    outer loop
      vertex 30 -39.5 51.3
      vertex 38.4 -41.96076951545867 51.3
      vertex 38.54077988116189 -41.891344560986454 51.3
    endloop
  endfacet
  facet normal 0 0 1
    outer loop
      vertex 30 -39.5 51.3
      vertex 38.54077988116189 -41.891344560986454 51.3
      vertex 38.68941714587697 -41.84088900845312 51.3
    endloop
  endfacet
  facet normal 0 0 1
    outer loop
      vertex 30 -39.5 51.3
      vertex 38.68941714587697 -41.84088900845312 51.3
      vertex 48 -39.5 51.3
    endloop
  endfacet
  facet normal 0 0 -1
    outer loop
      vertex 48 -46.5 49.8
      vertex 38.68941714587697 -44.15911099154688 49.8
      vertex 38.84336856933594 -44.189733833648575 49.8
    endloop
  endfacet
  facet normal 0 0 -1
    outer loop
      vertex 48 -46.5 49.8
      vertex 38.84336856933594 -44.189733833648575 49.8
      vertex 39 -44.2 49.8
    endloop
  endfacet
  facet normal 0 0 -1
    outer loop
      vertex 48 -46.5 49.8
      vertex 39 -44.2 49.8
      vertex 39.15663143066406 -44.189733833648575 49.8
    endloop
  endfacet
  facet normal 0 0 -1
    outer loop
      vertex 48 -46.5 49.8
      vertex 39.15663143066406 -44.189733833648575 49.8
      vertex 39.31058285412303 -44.15911099154688 49.8
    endloop
  endfacet
  facet normal 0 0 -1
    outer loop
      vertex 48 -46.5 49.8
      vertex 39.31058285412303 -44.15911099154688 49.8
      vertex 39.45922011883811 -44.108655439013546 49.8
    endloop
  endfacet
  facet normal 0 0 -1
    outer loop
      vertex 48 -46.5 49.8
      vertex 39.45922011883811 -44.108655439013546 49.8
      vertex 39.6 -44.03923048454133 49.8
    endloop
  endfacet
  facet normal 0 0 -1
    outer loop
      vertex 48 -46.5 49.8
      vertex 39.6 -44.03923048454133 49.8
      vertex 39.73051371481046 -43.95202400834948 49.8
    endloop
  endfacet
  facet normal 0 0 -1
    outer loop
      vertex 48 -46.5 49.8
      vertex 39.73051371481046 -43.95202400834948 49.8
      vertex 39.848528137423855 -43.848528137423855 49.8
    endloop
  endfacet
  facet normal 0 -1 0
    outer loop
      vertex 30 -46.5 49.8
      vertex 48 -46.5 49.8
      vertex 48 -46.5 51.3
    endloop
  endfacet
  facet normal 0 0 -1
    outer loop
      vertex 48 -46.5 49.8
      vertex 39.848528137423855 -43.848528137423855 49.8
      vertex 39.95202400834948 -43.73051371481046 49.8
    endloop
  endfacet
  facet normal 0 0 -1
    outer loop
      vertex 48 -46.5 49.8
      vertex 39.95202400834948 -43.73051371481046 49.8
      vertex 40.03923048454133 -43.6 49.8
    endloop
  endfacet
  facet normal 0 0 -1
    outer loop
      vertex 48 -46.5 49.8
      vertex 40.03923048454133 -43.6 49.8
      vertex 40.108655439013546 -43.45922011883811 49.8
    endloop
  endfacet
  facet normal 0 0 -1
    outer loop
      vertex 48 -46.5 49.8
      vertex 40.108655439013546 -43.45922011883811 49.8
      vertex 40.15911099154688 -43.31058285412303 49.8
    endloop
  endfacet
  facet normal 0 0 -1
    outer loop
      vertex 48 -46.5 49.8
      vertex 40.15911099154688 -43.31058285412303 49.8
      vertex 40.189733833648575 -43.15663143066406 49.8
    endloop
  endfacet
  facet normal 0 0 -1
    outer loop
      vertex 48 -46.5 49.8
      vertex 40.189733833648575 -43.15663143066406 49.8
      vertex 40.2 -43 49.8
    endloop
  endfacet
  facet normal 0 0 -1
    outer loop
      vertex 48 -46.5 49.8
      vertex 40.2 -43 49.8
      vertex 40.189733833648575 -42.84336856933594 49.8
    endloop
  endfacet
  facet normal 0 0 -1
    outer loop
      vertex 48 -46.5 49.8
      vertex 40.189733833648575 -42.84336856933594 49.8
      vertex 40.15911099154688 -42.68941714587697 49.8
    endloop
  endfacet
  facet normal 1 0 0
    outer loop
      vertex 48 -46.5 49.8
      vertex 48 -39.5 49.8
      vertex 48 -46.5 51.3
    endloop
  endfacet
  facet normal 0 0 1
    outer loop
      vertex 30 -46.5 51.3
      vertex 48 -46.5 51.3
      vertex 39.31058285412303 -44.15911099154688 51.3
    endloop
  endfacet
  facet normal 0 0 1
    outer loop
      vertex 48 -46.5 51.3
      vertex 39.45922011883811 -44.108655439013546 51.3
      vertex 39.31058285412303 -44.15911099154688 51.3
    endloop
  endfacet
  facet normal 0 0 1
    outer loop
      vertex 48 -46.5 51.3
      vertex 39.6 -44.03923048454133 51.3
      vertex 39.45922011883811 -44.108655439013546 51.3
    endloop
  endfacet
  facet normal 0 0 1
    outer loop
      vertex 48 -46.5 51.3
      vertex 39.73051371481046 -43.95202400834948 51.3
      vertex 39.6 -44.03923048454133 51.3
    endloop
  endfacet
  facet normal 0 0 1
    outer loop
      vertex 48 -46.5 51.3
      vertex 39.848528137423855 -43.848528137423855 51.3
      vertex 39.73051371481046 -43.95202400834948 51.3
    endloop
  endfacet
  facet normal 0 0 1
    outer loop
      vertex 48 -46.5 51.3
      vertex 39.95202400834948 -43.73051371481046 51.3
      vertex 39.848528137423855 -43.848528137423855 51.3
    endloop
  endfacet
  facet normal 0 0 1
    outer loop
      vertex 48 -46.5 51.3
      vertex 40.03923048454133 -43.6 51.3
      vertex 39.95202400834948 -43.73051371481046 51.3
    endloop
  endfacet
  facet normal 0 0 1
    outer loop
      vertex 48 -46.5 51.3
      vertex 40.108655439013546 -43.45922011883811 51.3
      vertex 40.03923048454133 -43.6 51.3
    endloop
  endfacet
  facet normal 0 0 1
    outer loop
      vertex 48 -46.5 51.3
      vertex 40.15911099154688 -43.31058285412303 51.3
      vertex 40.108655439013546 -43.45922011883811 51.3
    endloop
  endfacet
  facet normal 0 0 1
    outer loop
      vertex 48 -46.5 51.3
      vertex 48 -39.5 51.3
      vertex 40.15911099154688 -43.31058285412303 51.3
    endloop
  endfacet
  facet normal 0 0 -1
    outer loop
      vertex 48 -39.5 49.8
      vertex 40.15911099154688 -42.68941714587697 49.8
      vertex 40.108655439013546 -42.54077988116189 49.8
    endloop
  endfacet
  facet normal 0 0 -1
    outer loop
      vertex 48 -39.5 49.8
      vertex 40.108655439013546 -42.54077988116189 49.8
      vertex 40.03923048454133 -42.4 49.8
    endloop
  endfacet
  facet normal 0 0 -1
    outer loop
      vertex 48 -39.5 49.8
      vertex 39.95202400834948 -42.26948628518954 49.8
      vertex 39.848528137423855 -42.151471862576145 49.8
    endloop
  endfacet
  facet normal 0 0 -1
    outer loop
      vertex 48 -39.5 49.8
      vertex 40.03923048454133 -42.4 49.8
      vertex 39.95202400834948 -42.26948628518954 49.8
    endloop
  endfacet
  facet normal 0 0 -1
    outer loop
      vertex 30 -39.5 49.8
      vertex 48 -39.5 49.8
      vertex 39.31058285412303 -41.84088900845312 49.8
    endloop
  endfacet
  facet normal 0 0 -1
    outer loop
      vertex 48 -39.5 49.8
      vertex 39.6 -41.96076951545867 49.8
      vertex 39.45922011883811 -41.891344560986454 49.8
    endloop
  endfacet
  facet normal 0 0 -1
    outer loop
      vertex 48 -39.5 49.8
      vertex 39.45922011883811 -41.891344560986454 49.8
      vertex 39.31058285412303 -41.84088900845312 49.8
    endloop
  endfacet
  facet normal 0 0 -1
    outer loop
      vertex 48 -39.5 49.8
      vertex 39.73051371481046 -42.04797599165052 49.8
      vertex 39.6 -41.96076951545867 49.8
    endloop
  endfacet
  facet normal 0 0 -1
    outer loop
      vertex 48 -39.5 49.8
      vertex 39.848528137423855 -42.151471862576145 49.8
      vertex 39.73051371481046 -42.04797599165052 49.8
    endloop
  endfacet
  facet normal 0 0 -1
    outer loop
      vertex 48 -46.5 49.8
      vertex 40.15911099154688 -42.68941714587697 49.8
      vertex 48 -39.5 49.8
    endloop
  endfacet
  facet normal 0 0 1
    outer loop
      vertex 48 -39.5 51.3
      vertex 40.189733833648575 -43.15663143066406 51.3
      vertex 40.15911099154688 -43.31058285412303 51.3
    endloop
  endfacet
  facet normal 0 0 1
    outer loop
      vertex 48 -39.5 51.3
      vertex 40.2 -43 51.3
      vertex 40.189733833648575 -43.15663143066406 51.3
    endloop
  endfacet
  facet normal 0 0 1
    outer loop
      vertex 48 -39.5 51.3
      vertex 40.189733833648575 -42.84336856933594 51.3
      vertex 40.2 -43 51.3
    endloop
  endfacet
  facet normal 0 0 1
    outer loop
      vertex 48 -39.5 51.3
      vertex 40.15911099154688 -42.68941714587697 51.3
      vertex 40.189733833648575 -42.84336856933594 51.3
    endloop
  endfacet
  facet normal 0 0 1
    outer loop
      vertex 48 -39.5 51.3
      vertex 40.108655439013546 -42.54077988116189 51.3
      vertex 40.15911099154688 -42.68941714587697 51.3
    endloop
  endfacet
  facet normal 0 0 1
    outer loop
      vertex 48 -39.5 51.3
      vertex 40.03923048454133 -42.4 51.3
      vertex 40.108655439013546 -42.54077988116189 51.3
    endloop
  endfacet
  facet normal 0 0 1
    outer loop
      vertex 48 -39.5 51.3
      vertex 39.848528137423855 -42.151471862576145 51.3
      vertex 39.95202400834948 -42.26948628518954 51.3
    endloop
  endfacet
  facet normal 0 0 1
    outer loop
      vertex 48 -39.5 51.3
      vertex 39.95202400834948 -42.26948628518954 51.3
      vertex 40.03923048454133 -42.4 51.3
    endloop
  endfacet
  facet normal 0 1 0
    outer loop
      vertex 30 -39.5 51.3
      vertex 48 -39.5 51.3
      vertex 48 -39.5 49.8
    endloop
  endfacet
  facet normal 0 0 1
    outer loop
      vertex 48 -39.5 51.3
      vertex 38.68941714587697 -41.84088900845312 51.3
      vertex 38.84336856933594 -41.810266166351425 51.3
    endloop
  endfacet
  facet normal 0 0 1
    outer loop
      vertex 48 -39.5 51.3
      vertex 38.84336856933594 -41.810266166351425 51.3
      vertex 39 -41.8 51.3
    endloop
  endfacet
  facet normal 0 0 1
    outer loop
      vertex 48 -39.5 51.3
      vertex 39 -41.8 51.3
      vertex 39.15663143066406 -41.810266166351425 51.3
    endloop
  endfacet
  facet normal 0 0 1
    outer loop
      vertex 48 -39.5 51.3
      vertex 39.15663143066406 -41.810266166351425 51.3
      vertex 39.31058285412303 -41.84088900845312 51.3
    endloop
  endfacet
  facet normal 0 0 1
    outer loop
      vertex 48 -39.5 51.3
      vertex 39.45922011883811 -41.891344560986454 51.3
      vertex 39.6 -41.96076951545867 51.3
    endloop
  endfacet
  facet normal 0 0 1
    outer loop
      vertex 48 -39.5 51.3
      vertex 39.31058285412303 -41.84088900845312 51.3
      vertex 39.45922011883811 -41.891344560986454 51.3
    endloop
  endfacet
  facet normal 0 0 1
    outer loop
      vertex 48 -39.5 51.3
      vertex 39.6 -41.96076951545867 51.3
      vertex 39.73051371481046 -42.04797599165052 51.3
    endloop
  endfacet
  facet normal 0 0 1
    outer loop
      vertex 48 -39.5 51.3
      vertex 39.73051371481046 -42.04797599165052 51.3
      vertex 39.848528137423855 -42.151471862576145 51.3
    endloop
  endfacet
  facet normal 1 0 0
    outer loop
      vertex 48 -46.5 51.3
      vertex 48 -39.5 49.8
      vertex 48 -39.5 51.3
    endloop
  endfacet
  facet normal 0.6593458151000776 0.7518398074789697 0
    outer loop
      vertex 38.151471862576145 -43.848528137423855 51.3
      vertex 38.26948628518954 -43.95202400834948 49.8
      vertex 38.151471862576145 -43.848528137423855 49.8
    endloop
  endfacet
  facet normal 0.5555702330196147 0.8314696123025369 0
    outer loop
      vertex 38.26948628518954 -43.95202400834948 51.3
      vertex 38.4 -44.03923048454133 49.8
      vertex 38.26948628518954 -43.95202400834948 49.8
    endloop
  endfacet
  facet normal 0.3214394653031473 0.9469301294951105 0
    outer loop
      vertex 38.54077988116189 -44.108655439013546 51.3
      vertex 38.68941714587697 -44.15911099154688 49.8
      vertex 38.54077988116189 -44.108655439013546 49.8
    endloop
  endfacet
  facet normal 0.19509032201614018 0.9807852804032281 0
    outer loop
      vertex 38.68941714587697 -44.15911099154688 51.3
      vertex 38.84336856933594 -44.189733833648575 49.8
      vertex 38.68941714587697 -44.15911099154688 49.8
    endloop
  endfacet
  facet normal 0.06540312923014742 0.9978589232386033 0
    outer loop
      vertex 38.84336856933594 -44.189733833648575 51.3
      vertex 39 -44.2 49.8
      vertex 38.84336856933594 -44.189733833648575 49.8
    endloop
  endfacet
  facet normal 0.4422886902190092 0.8968727415326845 0
    outer loop
      vertex 38.4 -44.03923048454133 51.3
      vertex 38.54077988116189 -44.108655439013546 49.8
      vertex 38.4 -44.03923048454133 49.8
    endloop
  endfacet
  facet normal 0.9469301294951105 0.3214394653031473 0
    outer loop
      vertex 37.891344560986454 -43.45922011883811 49.8
      vertex 37.84088900845312 -43.31058285412303 49.8
      vertex 37.84088900845312 -43.31058285412303 51.3
    endloop
  endfacet
  facet normal 0.9807852804032281 0.19509032201614018 0
    outer loop
      vertex 37.810266166351425 -43.15663143066406 51.3
      vertex 37.84088900845312 -43.31058285412303 49.8
      vertex 37.810266166351425 -43.15663143066406 49.8
    endloop
  endfacet
  facet normal 0.9978589232386033 0.06540312923014742 0
    outer loop
      vertex 37.8 -43 51.3
      vertex 37.810266166351425 -43.15663143066406 49.8
      vertex 37.8 -43 49.8
    endloop
  endfacet
  facet normal 0.7518398074789697 0.6593458151000776 0
    outer loop
      vertex 38.04797599165052 -43.73051371481046 51.3
      vertex 38.151471862576145 -43.848528137423855 49.8
      vertex 38.04797599165052 -43.73051371481046 49.8
    endloop
  endfacet
  facet normal 0.8314696123025369 0.5555702330196147 0
    outer loop
      vertex 37.96076951545867 -43.6 51.3
      vertex 38.04797599165052 -43.73051371481046 49.8
      vertex 37.96076951545867 -43.6 49.8
    endloop
  endfacet
  facet normal 0.8968727415326845 0.4422886902190092 0
    outer loop
      vertex 37.891344560986454 -43.45922011883811 51.3
      vertex 37.96076951545867 -43.6 49.8
      vertex 37.891344560986454 -43.45922011883811 49.8
    endloop
  endfacet
  facet normal 0.5555702330196147 0.8314696123025369 0
    outer loop
      vertex 38.4 -44.03923048454133 51.3
      vertex 38.4 -44.03923048454133 49.8
      vertex 38.26948628518954 -43.95202400834948 51.3
    endloop
  endfacet
  facet normal 0.6593458151000776 0.7518398074789697 0
    outer loop
      vertex 38.26948628518954 -43.95202400834948 51.3
      vertex 38.26948628518954 -43.95202400834948 49.8
      vertex 38.151471862576145 -43.848528137423855 51.3
    endloop
  endfacet
  facet normal 0.3214394653031473 0.9469301294951105 0
    outer loop
      vertex 38.68941714587697 -44.15911099154688 51.3
      vertex 38.68941714587697 -44.15911099154688 49.8
      vertex 38.54077988116189 -44.108655439013546 51.3
    endloop
  endfacet
  facet normal 0.19509032201614018 0.9807852804032281 0
    outer loop
      vertex 38.84336856933594 -44.189733833648575 51.3
      vertex 38.84336856933594 -44.189733833648575 49.8
      vertex 38.68941714587697 -44.15911099154688 51.3
    endloop
  endfacet
  facet normal 0.06540312923014742 0.9978589232386033 0
    outer loop
      vertex 39 -44.2 51.3
      vertex 39 -44.2 49.8
      vertex 38.84336856933594 -44.189733833648575 51.3
    endloop
  endfacet
  facet normal 0.4422886902190092 0.8968727415326845 0
    outer loop
      vertex 38.54077988116189 -44.108655439013546 51.3
      vertex 38.54077988116189 -44.108655439013546 49.8
      vertex 38.4 -44.03923048454133 51.3
    endloop
  endfacet
  facet normal 0.9469301294951105 0.3214394653031473 0
    outer loop
      vertex 37.84088900845312 -43.31058285412303 51.3
      vertex 37.891344560986454 -43.45922011883811 51.3
      vertex 37.891344560986454 -43.45922011883811 49.8
    endloop
  endfacet
  facet normal 0.9807852804032281 0.19509032201614018 0
    outer loop
      vertex 37.810266166351425 -43.15663143066406 51.3
      vertex 37.84088900845312 -43.31058285412303 51.3
      vertex 37.84088900845312 -43.31058285412303 49.8
    endloop
  endfacet
  facet normal 0.9978589232386033 0.06540312923014742 0
    outer loop
      vertex 37.8 -43 51.3
      vertex 37.810266166351425 -43.15663143066406 51.3
      vertex 37.810266166351425 -43.15663143066406 49.8
    endloop
  endfacet
  facet normal 0.7518398074789697 0.6593458151000776 0
    outer loop
      vertex 38.04797599165052 -43.73051371481046 51.3
      vertex 38.151471862576145 -43.848528137423855 51.3
      vertex 38.151471862576145 -43.848528137423855 49.8
    endloop
  endfacet
  facet normal 0.8314696123025369 0.5555702330196147 0
    outer loop
      vertex 37.96076951545867 -43.6 51.3
      vertex 38.04797599165052 -43.73051371481046 51.3
      vertex 38.04797599165052 -43.73051371481046 49.8
    endloop
  endfacet
  facet normal 0.8968727415326845 0.4422886902190092 0
    outer loop
      vertex 37.891344560986454 -43.45922011883811 51.3
      vertex 37.96076951545867 -43.6 51.3
      vertex 37.96076951545867 -43.6 49.8
    endloop
  endfacet
  facet normal 0.9978589232386033 -0.06540312923014742 0
    outer loop
      vertex 37.810266166351425 -42.84336856933594 51.3
      vertex 37.8 -43 49.8
      vertex 37.810266166351425 -42.84336856933594 49.8
    endloop
  endfacet
  facet normal 0.9807852804032281 -0.19509032201614018 0
    outer loop
      vertex 37.84088900845312 -42.68941714587697 51.3
      vertex 37.810266166351425 -42.84336856933594 49.8
      vertex 37.84088900845312 -42.68941714587697 49.8
    endloop
  endfacet
  facet normal 0.9469301294951105 -0.3214394653031473 0
    outer loop
      vertex 37.84088900845312 -42.68941714587697 49.8
      vertex 37.891344560986454 -42.54077988116189 49.8
      vertex 37.891344560986454 -42.54077988116189 51.3
    endloop
  endfacet
  facet normal 0.8968727415326845 -0.4422886902190092 0
    outer loop
      vertex 37.891344560986454 -42.54077988116189 49.8
      vertex 37.96076951545867 -42.4 49.8
      vertex 37.96076951545867 -42.4 51.3
    endloop
  endfacet
  facet normal 0.8314696123025369 -0.5555702330196147 0
    outer loop
      vertex 37.96076951545867 -42.4 49.8
      vertex 38.04797599165052 -42.26948628518954 49.8
      vertex 38.04797599165052 -42.26948628518954 51.3
    endloop
  endfacet
  facet normal 0.7518398074789697 -0.6593458151000776 0
    outer loop
      vertex 38.04797599165052 -42.26948628518954 49.8
      vertex 38.151471862576145 -42.151471862576145 49.8
      vertex 38.151471862576145 -42.151471862576145 51.3
    endloop
  endfacet
  facet normal 0.6593458151000776 -0.7518398074789697 0
    outer loop
      vertex 38.26948628518954 -42.04797599165052 49.8
      vertex 38.26948628518954 -42.04797599165052 51.3
      vertex 38.151471862576145 -42.151471862576145 49.8
    endloop
  endfacet
  facet normal 0.5555702330196147 -0.8314696123025369 0
    outer loop
      vertex 38.4 -41.96076951545867 49.8
      vertex 38.4 -41.96076951545867 51.3
      vertex 38.26948628518954 -42.04797599165052 49.8
    endloop
  endfacet
  facet normal 0.4422886902190092 -0.8968727415326845 0
    outer loop
      vertex 38.54077988116189 -41.891344560986454 49.8
      vertex 38.54077988116189 -41.891344560986454 51.3
      vertex 38.4 -41.96076951545867 49.8
    endloop
  endfacet
  facet normal 0.3214394653031473 -0.9469301294951105 0
    outer loop
      vertex 38.68941714587697 -41.84088900845312 49.8
      vertex 38.68941714587697 -41.84088900845312 51.3
      vertex 38.54077988116189 -41.891344560986454 49.8
    endloop
  endfacet
  facet normal 0.19509032201614018 -0.9807852804032281 0
    outer loop
      vertex 38.84336856933594 -41.810266166351425 49.8
      vertex 38.84336856933594 -41.810266166351425 51.3
      vertex 38.68941714587697 -41.84088900845312 49.8
    endloop
  endfacet
  facet normal 0.06540312923014742 -0.9978589232386033 0
    outer loop
      vertex 38.84336856933594 -41.810266166351425 49.8
      vertex 39 -41.8 49.8
      vertex 39 -41.8 51.3
    endloop
  endfacet
  facet normal 0.9978589232386033 -0.06540312923014742 0
    outer loop
      vertex 37.810266166351425 -42.84336856933594 51.3
      vertex 37.8 -43 51.3
      vertex 37.8 -43 49.8
    endloop
  endfacet
  facet normal 0.9807852804032281 -0.19509032201614018 0
    outer loop
      vertex 37.84088900845312 -42.68941714587697 51.3
      vertex 37.810266166351425 -42.84336856933594 51.3
      vertex 37.810266166351425 -42.84336856933594 49.8
    endloop
  endfacet
  facet normal 0.9469301294951105 -0.3214394653031473 0
    outer loop
      vertex 37.891344560986454 -42.54077988116189 51.3
      vertex 37.84088900845312 -42.68941714587697 51.3
      vertex 37.84088900845312 -42.68941714587697 49.8
    endloop
  endfacet
  facet normal 0.8968727415326845 -0.4422886902190092 0
    outer loop
      vertex 37.891344560986454 -42.54077988116189 49.8
      vertex 37.96076951545867 -42.4 51.3
      vertex 37.891344560986454 -42.54077988116189 51.3
    endloop
  endfacet
  facet normal 0.8314696123025369 -0.5555702330196147 0
    outer loop
      vertex 37.96076951545867 -42.4 49.8
      vertex 38.04797599165052 -42.26948628518954 51.3
      vertex 37.96076951545867 -42.4 51.3
    endloop
  endfacet
  facet normal 0.7518398074789697 -0.6593458151000776 0
    outer loop
      vertex 38.04797599165052 -42.26948628518954 49.8
      vertex 38.151471862576145 -42.151471862576145 51.3
      vertex 38.04797599165052 -42.26948628518954 51.3
    endloop
  endfacet
  facet normal 0.6593458151000776 -0.7518398074789697 0
    outer loop
      vertex 38.151471862576145 -42.151471862576145 49.8
      vertex 38.26948628518954 -42.04797599165052 51.3
      vertex 38.151471862576145 -42.151471862576145 51.3
    endloop
  endfacet
  facet normal 0.5555702330196147 -0.8314696123025369 0
    outer loop
      vertex 38.26948628518954 -42.04797599165052 49.8
      vertex 38.4 -41.96076951545867 51.3
      vertex 38.26948628518954 -42.04797599165052 51.3
    endloop
  endfacet
  facet normal 0.4422886902190092 -0.8968727415326845 0
    outer loop
      vertex 38.4 -41.96076951545867 49.8
      vertex 38.54077988116189 -41.891344560986454 51.3
      vertex 38.4 -41.96076951545867 51.3
    endloop
  endfacet
  facet normal 0.3214394653031473 -0.9469301294951105 0
    outer loop
      vertex 38.54077988116189 -41.891344560986454 49.8
      vertex 38.68941714587697 -41.84088900845312 51.3
      vertex 38.54077988116189 -41.891344560986454 51.3
    endloop
  endfacet
  facet normal 0.19509032201614018 -0.9807852804032281 0
    outer loop
      vertex 38.68941714587697 -41.84088900845312 49.8
      vertex 38.84336856933594 -41.810266166351425 51.3
      vertex 38.68941714587697 -41.84088900845312 51.3
    endloop
  endfacet
  facet normal 0.06540312923014742 -0.9978589232386033 0
    outer loop
      vertex 39 -41.8 51.3
      vertex 38.84336856933594 -41.810266166351425 51.3
      vertex 38.84336856933594 -41.810266166351425 49.8
    endloop
  endfacet
  facet normal -0.06540312923014742 0.9978589232386033 0
    outer loop
      vertex 39 -44.2 51.3
      vertex 39.15663143066406 -44.189733833648575 49.8
      vertex 39 -44.2 49.8
    endloop
  endfacet
  facet normal -0.19509032201614018 0.9807852804032281 0
    outer loop
      vertex 39.15663143066406 -44.189733833648575 51.3
      vertex 39.31058285412303 -44.15911099154688 49.8
      vertex 39.15663143066406 -44.189733833648575 49.8
    endloop
  endfacet
  facet normal -0.3214394653031473 0.9469301294951105 0
    outer loop
      vertex 39.31058285412303 -44.15911099154688 51.3
      vertex 39.45922011883811 -44.108655439013546 49.8
      vertex 39.31058285412303 -44.15911099154688 49.8
    endloop
  endfacet
  facet normal -0.4422886902190092 0.8968727415326845 0
    outer loop
      vertex 39.45922011883811 -44.108655439013546 51.3
      vertex 39.6 -44.03923048454133 49.8
      vertex 39.45922011883811 -44.108655439013546 49.8
    endloop
  endfacet
  facet normal -0.5555702330196147 0.8314696123025369 0
    outer loop
      vertex 39.6 -44.03923048454133 51.3
      vertex 39.73051371481046 -43.95202400834948 49.8
      vertex 39.6 -44.03923048454133 49.8
    endloop
  endfacet
  facet normal -0.6593458151000776 0.7518398074789697 0
    outer loop
      vertex 39.73051371481046 -43.95202400834948 51.3
      vertex 39.848528137423855 -43.848528137423855 49.8
      vertex 39.73051371481046 -43.95202400834948 49.8
    endloop
  endfacet
  facet normal -0.7518398074789697 0.6593458151000776 0
    outer loop
      vertex 39.848528137423855 -43.848528137423855 49.8
      vertex 39.848528137423855 -43.848528137423855 51.3
      vertex 39.95202400834948 -43.73051371481046 49.8
    endloop
  endfacet
  facet normal -0.8314696123025369 0.5555702330196147 0
    outer loop
      vertex 39.95202400834948 -43.73051371481046 51.3
      vertex 40.03923048454133 -43.6 49.8
      vertex 39.95202400834948 -43.73051371481046 49.8
    endloop
  endfacet
  facet normal -0.8968727415326845 0.4422886902190092 0
    outer loop
      vertex 40.03923048454133 -43.6 51.3
      vertex 40.108655439013546 -43.45922011883811 49.8
      vertex 40.03923048454133 -43.6 49.8
    endloop
  endfacet
  facet normal -0.9469301294951105 0.3214394653031473 0
    outer loop
      vertex 40.108655439013546 -43.45922011883811 51.3
      vertex 40.15911099154688 -43.31058285412303 49.8
      vertex 40.108655439013546 -43.45922011883811 49.8
    endloop
  endfacet
  facet normal -0.9807852804032281 0.19509032201614018 0
    outer loop
      vertex 40.189733833648575 -43.15663143066406 49.8
      vertex 40.15911099154688 -43.31058285412303 49.8
      vertex 40.15911099154688 -43.31058285412303 51.3
    endloop
  endfacet
  facet normal -0.9978589232386033 0.06540312923014742 0
    outer loop
      vertex 40.189733833648575 -43.15663143066406 49.8
      vertex 40.189733833648575 -43.15663143066406 51.3
      vertex 40.2 -43 49.8
    endloop
  endfacet
  facet normal -0.06540312923014742 0.9978589232386033 0
    outer loop
      vertex 39.15663143066406 -44.189733833648575 51.3
      vertex 39.15663143066406 -44.189733833648575 49.8
      vertex 39 -44.2 51.3
    endloop
  endfacet
  facet normal -0.19509032201614018 0.9807852804032281 0
    outer loop
      vertex 39.31058285412303 -44.15911099154688 51.3
      vertex 39.31058285412303 -44.15911099154688 49.8
      vertex 39.15663143066406 -44.189733833648575 51.3
    endloop
  endfacet
  facet normal -0.3214394653031473 0.9469301294951105 0
    outer loop
      vertex 39.45922011883811 -44.108655439013546 51.3
      vertex 39.45922011883811 -44.108655439013546 49.8
      vertex 39.31058285412303 -44.15911099154688 51.3
    endloop
  endfacet
  facet normal -0.4422886902190092 0.8968727415326845 0
    outer loop
      vertex 39.6 -44.03923048454133 51.3
      vertex 39.6 -44.03923048454133 49.8
      vertex 39.45922011883811 -44.108655439013546 51.3
    endloop
  endfacet
  facet normal -0.5555702330196147 0.8314696123025369 0
    outer loop
      vertex 39.73051371481046 -43.95202400834948 51.3
      vertex 39.73051371481046 -43.95202400834948 49.8
      vertex 39.6 -44.03923048454133 51.3
    endloop
  endfacet
  facet normal -0.6593458151000776 0.7518398074789697 0
    outer loop
      vertex 39.848528137423855 -43.848528137423855 51.3
      vertex 39.848528137423855 -43.848528137423855 49.8
      vertex 39.73051371481046 -43.95202400834948 51.3
    endloop
  endfacet
  facet normal -0.7518398074789697 0.6593458151000776 0
    outer loop
      vertex 39.848528137423855 -43.848528137423855 51.3
      vertex 39.95202400834948 -43.73051371481046 51.3
      vertex 39.95202400834948 -43.73051371481046 49.8
    endloop
  endfacet
  facet normal -0.8314696123025369 0.5555702330196147 0
    outer loop
      vertex 39.95202400834948 -43.73051371481046 51.3
      vertex 40.03923048454133 -43.6 51.3
      vertex 40.03923048454133 -43.6 49.8
    endloop
  endfacet
  facet normal -0.8968727415326845 0.4422886902190092 0
    outer loop
      vertex 40.03923048454133 -43.6 51.3
      vertex 40.108655439013546 -43.45922011883811 51.3
      vertex 40.108655439013546 -43.45922011883811 49.8
    endloop
  endfacet
  facet normal -0.9469301294951105 0.3214394653031473 0
    outer loop
      vertex 40.108655439013546 -43.45922011883811 51.3
      vertex 40.15911099154688 -43.31058285412303 51.3
      vertex 40.15911099154688 -43.31058285412303 49.8
    endloop
  endfacet
  facet normal -0.9807852804032281 0.19509032201614018 0
    outer loop
      vertex 40.189733833648575 -43.15663143066406 49.8
      vertex 40.15911099154688 -43.31058285412303 51.3
      vertex 40.189733833648575 -43.15663143066406 51.3
    endloop
  endfacet
  facet normal -0.9978589232386033 0.06540312923014742 0
    outer loop
      vertex 40.2 -43 49.8
      vertex 40.189733833648575 -43.15663143066406 51.3
      vertex 40.2 -43 51.3
    endloop
  endfacet
  facet normal -0.8968727415326845 -0.4422886902190092 0
    outer loop
      vertex 40.03923048454133 -42.4 49.8
      vertex 40.108655439013546 -42.54077988116189 49.8
      vertex 40.108655439013546 -42.54077988116189 51.3
    endloop
  endfacet
  facet normal -0.8314696123025369 -0.5555702330196147 0
    outer loop
      vertex 39.95202400834948 -42.26948628518954 49.8
      vertex 40.03923048454133 -42.4 49.8
      vertex 40.03923048454133 -42.4 51.3
    endloop
  endfacet
  facet normal -0.7518398074789697 -0.6593458151000776 0
    outer loop
      vertex 39.848528137423855 -42.151471862576145 49.8
      vertex 39.95202400834948 -42.26948628518954 49.8
      vertex 39.95202400834948 -42.26948628518954 51.3
    endloop
  endfacet
  facet normal -0.9978589232386033 -0.06540312923014742 0
    outer loop
      vertex 40.2 -43 49.8
      vertex 40.2 -43 51.3
      vertex 40.189733833648575 -42.84336856933594 49.8
    endloop
  endfacet
  facet normal -0.9807852804032281 -0.19509032201614018 0
    outer loop
      vertex 40.15911099154688 -42.68941714587697 49.8
      vertex 40.189733833648575 -42.84336856933594 49.8
      vertex 40.189733833648575 -42.84336856933594 51.3
    endloop
  endfacet
  facet normal -0.9469301294951105 -0.3214394653031473 0
    outer loop
      vertex 40.108655439013546 -42.54077988116189 49.8
      vertex 40.15911099154688 -42.68941714587697 49.8
      vertex 40.15911099154688 -42.68941714587697 51.3
    endloop
  endfacet
  facet normal -0.4422886902190092 -0.8968727415326845 0
    outer loop
      vertex 39.6 -41.96076951545867 49.8
      vertex 39.6 -41.96076951545867 51.3
      vertex 39.45922011883811 -41.891344560986454 49.8
    endloop
  endfacet
  facet normal -0.06540312923014742 -0.9978589232386033 0
    outer loop
      vertex 39.15663143066406 -41.810266166351425 49.8
      vertex 39.15663143066406 -41.810266166351425 51.3
      vertex 39 -41.8 49.8
    endloop
  endfacet
  facet normal -0.19509032201614018 -0.9807852804032281 0
    outer loop
      vertex 39.31058285412303 -41.84088900845312 49.8
      vertex 39.31058285412303 -41.84088900845312 51.3
      vertex 39.15663143066406 -41.810266166351425 49.8
    endloop
  endfacet
  facet normal -0.3214394653031473 -0.9469301294951105 0
    outer loop
      vertex 39.45922011883811 -41.891344560986454 49.8
      vertex 39.45922011883811 -41.891344560986454 51.3
      vertex 39.31058285412303 -41.84088900845312 49.8
    endloop
  endfacet
  facet normal -0.5555702330196147 -0.8314696123025369 0
    outer loop
      vertex 39.73051371481046 -42.04797599165052 49.8
      vertex 39.73051371481046 -42.04797599165052 51.3
      vertex 39.6 -41.96076951545867 49.8
    endloop
  endfacet
  facet normal -0.6593458151000776 -0.7518398074789697 0
    outer loop
      vertex 39.73051371481046 -42.04797599165052 49.8
      vertex 39.848528137423855 -42.151471862576145 49.8
      vertex 39.848528137423855 -42.151471862576145 51.3
    endloop
  endfacet
  facet normal -0.8968727415326845 -0.4422886902190092 0
    outer loop
      vertex 40.03923048454133 -42.4 49.8
      vertex 40.108655439013546 -42.54077988116189 51.3
      vertex 40.03923048454133 -42.4 51.3
    endloop
  endfacet
  facet normal -0.8314696123025369 -0.5555702330196147 0
    outer loop
      vertex 39.95202400834948 -42.26948628518954 49.8
      vertex 40.03923048454133 -42.4 51.3
      vertex 39.95202400834948 -42.26948628518954 51.3
    endloop
  endfacet
  facet normal -0.7518398074789697 -0.6593458151000776 0
    outer loop
      vertex 39.848528137423855 -42.151471862576145 49.8
      vertex 39.95202400834948 -42.26948628518954 51.3
      vertex 39.848528137423855 -42.151471862576145 51.3
    endloop
  endfacet
  facet normal -0.9978589232386033 -0.06540312923014742 0
    outer loop
      vertex 40.189733833648575 -42.84336856933594 49.8
      vertex 40.2 -43 51.3
      vertex 40.189733833648575 -42.84336856933594 51.3
    endloop
  endfacet
  facet normal -0.9807852804032281 -0.19509032201614018 0
    outer loop
      vertex 40.15911099154688 -42.68941714587697 49.8
      vertex 40.189733833648575 -42.84336856933594 51.3
      vertex 40.15911099154688 -42.68941714587697 51.3
    endloop
  endfacet
  facet normal -0.9469301294951105 -0.3214394653031473 0
    outer loop
      vertex 40.108655439013546 -42.54077988116189 49.8
      vertex 40.15911099154688 -42.68941714587697 51.3
      vertex 40.108655439013546 -42.54077988116189 51.3
    endloop
  endfacet
  facet normal -0.4422886902190092 -0.8968727415326845 0
    outer loop
      vertex 39.45922011883811 -41.891344560986454 49.8
      vertex 39.6 -41.96076951545867 51.3
      vertex 39.45922011883811 -41.891344560986454 51.3
    endloop
  endfacet
  facet normal -0.06540312923014742 -0.9978589232386033 0
    outer loop
      vertex 39 -41.8 49.8
      vertex 39.15663143066406 -41.810266166351425 51.3
      vertex 39 -41.8 51.3
    endloop
  endfacet
  facet normal -0.19509032201614018 -0.9807852804032281 0
    outer loop
      vertex 39.15663143066406 -41.810266166351425 49.8
      vertex 39.31058285412303 -41.84088900845312 51.3
      vertex 39.15663143066406 -41.810266166351425 51.3
    endloop
  endfacet
  facet normal -0.3214394653031473 -0.9469301294951105 0
    outer loop
      vertex 39.31058285412303 -41.84088900845312 49.8
      vertex 39.45922011883811 -41.891344560986454 51.3
      vertex 39.31058285412303 -41.84088900845312 51.3
    endloop
  endfacet
  facet normal -0.6593458151000776 -0.7518398074789697 0
    outer loop
      vertex 39.73051371481046 -42.04797599165052 49.8
      vertex 39.848528137423855 -42.151471862576145 51.3
      vertex 39.73051371481046 -42.04797599165052 51.3
    endloop
  endfacet
  facet normal -0.5555702330196147 -0.8314696123025369 0
    outer loop
      vertex 39.6 -41.96076951545867 49.8
      vertex 39.73051371481046 -42.04797599165052 51.3
      vertex 39.6 -41.96076951545867 51.3
    endloop
  endfacet
endsolid OpenSCAD_Model
