solid OpenSCAD_Model
  facet normal 0 1 0
    outer loop
      vertex 8.4 3 0
      vertex 2 3 0
      vertex 2 3 8
    endloop
  endfacet
  facet normal -1 0 0
    outer loop
      vertex 8.4 9.4 0
      vertex 8.4 3 0
      vertex 8.4 3 8
    endloop
  endfacet
  facet normal 0 1 0
    outer loop
      vertex 8.4 3 8
      vertex 8.4 3 0
      vertex 2 3 8
    endloop
  endfacet
  facet normal 1 0 0
    outer loop
      vertex 2 3 8
      vertex 2 3 0
      vertex 2 9.4 8
    endloop
  endfacet
  facet normal 1 0 0
    outer loop
      vertex 2 9.4 8
      vertex 2 3 0
      vertex 2 9.4 0
    endloop
  endfacet
  facet normal 0 -1 0
    outer loop
      vertex 2 9.4 0
      vertex 8.4 9.4 0
      vertex 8.4 9.4 8
    endloop
  endfacet
  facet normal 0 -1 0
    outer loop
      vertex 2 9.4 8
      vertex 2 9.4 0
      vertex 8.4 9.4 8
    endloop
  endfacet
  facet normal -1 0 0
    outer loop
      vertex 8.4 3 8
      vertex 8.4 9.4 8
      vertex 8.4 9.4 0
    endloop
  endfacet
  facet normal 0 1 0
    outer loop
      vertex 17.6 3 0
      vertex 11 3 0
      vertex 11 3 8
    endloop
  endfacet
  facet normal 1 0 0
    outer loop
      vertex 11 9.600000000000001 8
      vertex 11 3 8
      vertex 11 3 0
    endloop
  endfacet
  facet normal 1 0 0
    outer loop
      vertex 11 3 0
      vertex 11 9.600000000000001 0
      vertex 11 9.600000000000001 8
    endloop
  endfacet
  facet normal 0 -1 0
    outer loop
      vertex 17.6 9.600000000000001 8
      vertex 11 9.600000000000001 8
      vertex 11 9.600000000000001 0
    endloop
  endfacet
  facet normal -1 0 0
    outer loop
      vertex 17.6 9.600000000000001 0
      vertex 17.6 3 0
      vertex 17.6 3 8
    endloop
  endfacet
  facet normal 0 1 0
    outer loop
      vertex 11 3 8
      vertex 17.6 3 8
      vertex 17.6 3 0
    endloop
  endfacet
  facet normal 0 -1 0
    outer loop
      vertex 11 9.600000000000001 0
      vertex 17.6 9.600000000000001 0
      vertex 17.6 9.600000000000001 8
    endloop
  endfacet
  facet normal -1 0 0
    outer loop
      vertex 17.6 3 8
      vertex 17.6 9.600000000000001 8
      vertex 17.6 9.600000000000001 0
    endloop
  endfacet
  facet normal 0 1 0
    outer loop
      vertex 20 3 8
      vertex 26.8 3 0
      vertex 20 3 0
    endloop
  endfacet
  facet normal -1 0 0
    outer loop
      vertex 26.8 3 0
      vertex 26.8 3 8
      vertex 26.8 9.8 0
    endloop
  endfacet
  facet normal 1 0 0
    outer loop
      vertex 20 9.8 8
      vertex 20 3 8
      vertex 20 3 0
    endloop
  endfacet
  facet normal 0 1 0
    outer loop
      vertex 26.8 3 0
      vertex 20 3 8
      vertex 26.8 3 8
    endloop
  endfacet
  facet normal 1 0 0
    outer loop
      vertex 20 3 0
      vertex 20 9.8 0
      vertex 20 9.8 8
    endloop
  endfacet
  facet normal 0 -1 0
    outer loop
      vertex 26.8 9.8 0
      vertex 26.8 9.8 8
      vertex 20 9.8 0
    endloop
  endfacet
  facet normal 0 -1 0
    outer loop
      vertex 20 9.8 0
      vertex 26.8 9.8 8
      vertex 20 9.8 8
    endloop
  endfacet
  facet normal -1 0 0
    outer loop
      vertex 26.8 9.8 0
      vertex 26.8 3 8
      vertex 26.8 9.8 8
    endloop
  endfacet
  facet normal 0 0 -1
    outer loop
      vertex 0 0 0
      vertex 2 3 0
      vertex 8.4 3 0
    endloop
  endfacet
  facet normal 0 0 -1
    outer loop
      vertex 0 0 0
      vertex 8.4 3 0
      vertex 11 3 0
    endloop
  endfacet
  facet normal 0 0 -1
    outer loop
      vertex 0 0 0
      vertex 2 9.4 0
      vertex 2 3 0
    endloop
  endfacet
  facet normal 0 0 -1
    outer loop
      vertex 0 0 0
      vertex 11 3 0
      vertex 17.6 3 0
    endloop
  endfacet
  facet normal 0 0 -1
    outer loop
      vertex 8.4 9.4 0
      vertex 11 3 0
      vertex 8.4 3 0
    endloop
  endfacet
  facet normal 0 0 1
    outer loop
      vertex 0 0 8
      vertex 8.4 3 8
      vertex 2 3 8
    endloop
  endfacet
  facet normal 0 0 1
    outer loop
      vertex 0 0 8
      vertex 11 3 8
      vertex 8.4 3 8
    endloop
  endfacet
  facet normal -1 0 0
    outer loop
      vertex 0 0 0
      vertex 0 0 8
      vertex 0 14 8
    endloop
  endfacet
  facet normal 0 0 1
    outer loop
      vertex 0 0 8
      vertex 2 3 8
      vertex 2 9.4 8
    endloop
  endfacet
  facet normal 0 -1 0
    outer loop
      vertex 0 0 0
      vertex 30 0 8
      vertex 0 0 8
    endloop
  endfacet
  facet normal 0 0 1
    outer loop
      vertex 0 0 8
      vertex 17.6 3 8
      vertex 11 3 8
    endloop
  endfacet
  facet normal 0 0 1
    outer loop
      vertex 11 9.600000000000001 8
      vertex 8.4 3 8
      vertex 11 3 8
    endloop
  endfacet
  facet normal 0 0 -1
    outer loop
      vertex 0 0 0
      vertex 0 14 0
      vertex 2 9.4 0
    endloop
  endfacet
  facet normal -1 0 0
    outer loop
      vertex 0 0 0
      vertex 0 14 8
      vertex 0 14 0
    endloop
  endfacet
  facet normal 0 0 -1
    outer loop
      vertex 0 14 0
      vertex 8.4 9.4 0
      vertex 2 9.4 0
    endloop
  endfacet
  facet normal 0 0 -1
    outer loop
      vertex 0 14 0
      vertex 11 9.600000000000001 0
      vertex 8.4 9.4 0
    endloop
  endfacet
  facet normal 0 0 -1
    outer loop
      vertex 11 3 0
      vertex 8.4 9.4 0
      vertex 11 9.600000000000001 0
    endloop
  endfacet
  facet normal 0 0 -1
    outer loop
      vertex 0 14 0
      vertex 30 14 0
      vertex 11 9.600000000000001 0
    endloop
  endfacet
  facet normal 0 1 0
    outer loop
      vertex 0 14 0
      vertex 0 14 8
      vertex 30 14 0
    endloop
  endfacet
  facet normal 0 0 1
    outer loop
      vertex 0 0 8
      vertex 2 9.4 8
      vertex 0 14 8
    endloop
  endfacet
  facet normal 0 0 1
    outer loop
      vertex 0 14 8
      vertex 2 9.4 8
      vertex 8.4 9.4 8
    endloop
  endfacet
  facet normal 0 0 1
    outer loop
      vertex 0 14 8
      vertex 8.4 9.4 8
      vertex 11 9.600000000000001 8
    endloop
  endfacet
  facet normal 0 0 1
    outer loop
      vertex 11 9.600000000000001 8
      vertex 8.4 9.4 8
      vertex 8.4 3 8
    endloop
  endfacet
  facet normal 0 0 1
    outer loop
      vertex 0 14 8
      vertex 11 9.600000000000001 8
      vertex 17.6 9.600000000000001 8
    endloop
  endfacet
  facet normal 0 0 -1
    outer loop
      vertex 0 0 0
      vertex 17.6 3 0
      vertex 30 0 0
    endloop
  endfacet
  facet normal 0 -1 0
    outer loop
      vertex 0 0 0
      vertex 30 0 0
      vertex 30 0 8
    endloop
  endfacet
  facet normal 0 0 -1
    outer loop
      vertex 17.6 9.600000000000001 0
      vertex 20 3 0
      vertex 17.6 3 0
    endloop
  endfacet
  facet normal 0 0 -1
    outer loop
      vertex 30 0 0
      vertex 17.6 3 0
      vertex 20 3 0
    endloop
  endfacet
  facet normal 0 0 -1
    outer loop
      vertex 30 0 0
      vertex 20 3 0
      vertex 26.8 3 0
    endloop
  endfacet
  facet normal 0 0 -1
    outer loop
      vertex 30 0 0
      vertex 26.8 3 0
      vertex 26.8 9.8 0
    endloop
  endfacet
  facet normal 1 0 0
    outer loop
      vertex 30 0 0
      vertex 30 14 0
      vertex 30 0 8
    endloop
  endfacet
  facet normal 0 0 1
    outer loop
      vertex 0 0 8
      vertex 30 0 8
      vertex 17.6 3 8
    endloop
  endfacet
  facet normal 0 0 1
    outer loop
      vertex 20 9.8 8
      vertex 17.6 3 8
      vertex 20 3 8
    endloop
  endfacet
  facet normal 0 0 1
    outer loop
      vertex 30 0 8
      vertex 20 3 8
      vertex 17.6 3 8
    endloop
  endfacet
  facet normal 0 0 1
    outer loop
      vertex 30 0 8
      vertex 26.8 3 8
      vertex 20 3 8
    endloop
  endfacet
  facet normal 0 0 1
    outer loop
      vertex 30 0 8
      vertex 26.8 9.8 8
      vertex 26.8 3 8
    endloop
  endfacet
  facet normal 0 0 -1
    outer loop
      vertex 11 9.600000000000001 0
      vertex 20 9.8 0
      vertex 17.6 9.600000000000001 0
    endloop
  endfacet
  facet normal 0 0 -1
    outer loop
      vertex 20 3 0
      vertex 17.6 9.600000000000001 0
      vertex 20 9.8 0
    endloop
  endfacet
  facet normal 0 0 -1
    outer loop
      vertex 30 14 0
      vertex 20 9.8 0
      vertex 11 9.600000000000001 0
    endloop
  endfacet
  facet normal 0 0 -1
    outer loop
      vertex 30 0 0
      vertex 26.8 9.8 0
      vertex 30 14 0
    endloop
  endfacet
  facet normal 0 0 -1
    outer loop
      vertex 30 14 0
      vertex 26.8 9.8 0
      vertex 20 9.8 0
    endloop
  endfacet
  facet normal 0 0 1
    outer loop
      vertex 17.6 3 8
      vertex 20 9.8 8
      vertex 17.6 9.600000000000001 8
    endloop
  endfacet
  facet normal 0 1 0
    outer loop
      vertex 0 14 8
      vertex 30 14 8
      vertex 30 14 0
    endloop
  endfacet
  facet normal 0 0 1
    outer loop
      vertex 0 14 8
      vertex 17.6 9.600000000000001 8
      vertex 30 14 8
    endloop
  endfacet
  facet normal 1 0 0
    outer loop
      vertex 30 0 8
      vertex 30 14 0
      vertex 30 14 8
    endloop
  endfacet
  facet normal 0 0 1
    outer loop
      vertex 30 0 8
      vertex 30 14 8
      vertex 26.8 9.8 8
    endloop
  endfacet
  facet normal 0 0 1
    outer loop
      vertex 30 14 8
      vertex 17.6 9.600000000000001 8
      vertex 20 9.8 8
    endloop
  endfacet
  facet normal 0 0 1
    outer loop
      vertex 30 14 8
      vertex 20 9.8 8
      vertex 26.8 9.8 8
    endloop
  endfacet
endsolid OpenSCAD_Model
