solid OpenSCAD_Model
  facet normal 0 0 -1
    outer loop
      vertex -5.5 7.399999999999999 0
      vertex -3.4000000000000057 5.399999999999999 0
      vertex -3.4000000000000057 -1.3999999999999986 0
    endloop
  endfacet
  facet normal 0 0 -1
    outer loop
      vertex -5.5 7.399999999999999 0
      vertex -3 -3.1000000000000014 0
      vertex -5.5 -3.1000000000000014 0
    endloop
  endfacet
  facet normal -1 0 0
    outer loop
      vertex -5.5 7.399999999999999 0
      vertex -5.5 -3.1000000000000014 0
      vertex -5.5 -3.1000000000000014 5
    endloop
  endfacet
  facet normal 0 0 -1
    outer loop
      vertex -5.5 7.399999999999999 0
      vertex 5.5 7.399999999999999 0
      vertex -3.4000000000000057 5.399999999999999 0
    endloop
  endfacet
  facet normal 0 0 -1
    outer loop
      vertex -5.5 7.399999999999999 0
      vertex -3.4000000000000057 -1.3999999999999986 0
      vertex -3 -3.1000000000000014 0
    endloop
  endfacet
  facet normal 0 0 -1
    outer loop
      vertex -3 -3.1000000000000014 0
      vertex -3.4000000000000057 -1.3999999999999986 0
      vertex 3.3999999999999915 -1.3999999999999986 0
    endloop
  endfacet
  facet normal 0 -1 0
    outer loop
      vertex -5.5 -3.1000000000000014 0
      vertex -3 -3.1000000000000014 0
      vertex -3 -3.1000000000000014 5
    endloop
  endfacet
  facet normal -1 0 0
    outer loop
      vertex -5.5 7.399999999999999 0
      vertex -5.5 -3.1000000000000014 5
      vertex -5.5 7.399999999999999 5
    endloop
  endfacet
  facet normal 0 0 1
    outer loop
      vertex -5.5 7.399999999999999 5
      vertex -5.5 -3.1000000000000014 5
      vertex -3.4000000000000057 5.399999999999999 5
    endloop
  endfacet
  facet normal 0 0 1
    outer loop
      vertex -5.5 -3.1000000000000014 5
      vertex -3.4000000000000057 -1.3999999999999986 5
      vertex -3.4000000000000057 5.399999999999999 5
    endloop
  endfacet
  facet normal 0 1 0
    outer loop
      vertex -5.5 7.399999999999999 0
      vertex -5.5 7.399999999999999 5
      vertex 5.5 7.399999999999999 5
    endloop
  endfacet
  facet normal 0 0 1
    outer loop
      vertex -5.5 7.399999999999999 5
      vertex -3.4000000000000057 5.399999999999999 5
      vertex 3.3999999999999915 5.399999999999999 5
    endloop
  endfacet
  facet normal 0 -1 0
    outer loop
      vertex -5.5 -3.1000000000000014 0
      vertex -3 -3.1000000000000014 5
      vertex -5.5 -3.1000000000000014 5
    endloop
  endfacet
  facet normal 0 0 1
    outer loop
      vertex -5.5 -3.1000000000000014 5
      vertex -3 -3.1000000000000014 5
      vertex -3.4000000000000057 -1.3999999999999986 5
    endloop
  endfacet
  facet normal 0 0 1
    outer loop
      vertex -3 -3.1000000000000014 5
      vertex 3 -3.1000000000000014 5
      vertex -3.4000000000000057 -1.3999999999999986 5
    endloop
  endfacet
  facet normal 0 0 -1
    outer loop
      vertex 5.5 7.399999999999999 0
      vertex 3.3999999999999915 5.399999999999999 0
      vertex -3.4000000000000057 5.399999999999999 0
    endloop
  endfacet
  facet normal 0 1 0
    outer loop
      vertex -5.5 7.399999999999999 0
      vertex 5.5 7.399999999999999 5
      vertex 5.5 7.399999999999999 0
    endloop
  endfacet
  facet normal 0 0 -1
    outer loop
      vertex 5.5 7.399999999999999 0
      vertex 5.5 -3.1000000000000014 0
      vertex 3.3999999999999915 5.399999999999999 0
    endloop
  endfacet
  facet normal 0 0 -1
    outer loop
      vertex 5.5 -3.1000000000000014 0
      vertex 3.3999999999999915 -1.3999999999999986 0
      vertex 3.3999999999999915 5.399999999999999 0
    endloop
  endfacet
  facet normal 1 0 0
    outer loop
      vertex 5.5 7.399999999999999 0
      vertex 5.5 7.399999999999999 5
      vertex 5.5 -3.1000000000000014 0
    endloop
  endfacet
  facet normal 0 0 -1
    outer loop
      vertex -3 -3.1000000000000014 0
      vertex 3.3999999999999915 -1.3999999999999986 0
      vertex 3 -3.1000000000000014 0
    endloop
  endfacet
  facet normal 0 0 -1
    outer loop
      vertex 3 -3.1000000000000014 0
      vertex 3.3999999999999915 -1.3999999999999986 0
      vertex 5.5 -3.1000000000000014 0
    endloop
  endfacet
  facet normal 0 -1 0
    outer loop
      vertex 3 -3.1000000000000014 0
      vertex 5.5 -3.1000000000000014 0
      vertex 5.5 -3.1000000000000014 5
    endloop
  endfacet
  facet normal 0 0 1
    outer loop
      vertex -5.5 7.399999999999999 5
      vertex 3.3999999999999915 5.399999999999999 5
      vertex 5.5 7.399999999999999 5
    endloop
  endfacet
  facet normal 0 0 1
    outer loop
      vertex 5.5 7.399999999999999 5
      vertex 3.3999999999999915 -1.3999999999999986 5
      vertex 3 -3.1000000000000014 5
    endloop
  endfacet
  facet normal 1 0 0
    outer loop
      vertex 5.5 -3.1000000000000014 0
      vertex 5.5 7.399999999999999 5
      vertex 5.5 -3.1000000000000014 5
    endloop
  endfacet
  facet normal 0 0 1
    outer loop
      vertex 5.5 7.399999999999999 5
      vertex 3.3999999999999915 5.399999999999999 5
      vertex 3.3999999999999915 -1.3999999999999986 5
    endloop
  endfacet
  facet normal 0 0 1
    outer loop
      vertex 5.5 7.399999999999999 5
      vertex 3 -3.1000000000000014 5
      vertex 5.5 -3.1000000000000014 5
    endloop
  endfacet
  facet normal 0 -1 0
    outer loop
      vertex 3 -3.1000000000000014 0
      vertex 5.5 -3.1000000000000014 5
      vertex 3 -3.1000000000000014 5
    endloop
  endfacet
  facet normal 0 0 1
    outer loop
      vertex 3 -3.1000000000000014 5
      vertex 3.3999999999999915 -1.3999999999999986 5
      vertex -3.4000000000000057 -1.3999999999999986 5
    endloop
  endfacet
  facet normal 0 0 -1
    outer loop
      vertex -3 -3.1000000000000014 0
      vertex 3 -3.1000000000000014 0
      vertex -3 -5 0
    endloop
  endfacet
  facet normal -1 0 0
    outer loop
      vertex -3 -3.1000000000000014 0
      vertex -3 -5 0
      vertex -3 -5 5
    endloop
  endfacet
  facet normal -1 0 0
    outer loop
      vertex -3 -3.1000000000000014 0
      vertex -3 -5 5
      vertex -3 -3.1000000000000014 5
    endloop
  endfacet
  facet normal 0 0 1
    outer loop
      vertex -3 -3.1000000000000014 5
      vertex -3 -5 5
      vertex 3 -5 5
    endloop
  endfacet
  facet normal 0 0 -1
    outer loop
      vertex -3 -5 0
      vertex 3 -3.1000000000000014 0
      vertex 3 -5 0
    endloop
  endfacet
  facet normal 1 0 0
    outer loop
      vertex 3 -3.1000000000000014 0
      vertex 3 -3.1000000000000014 5
      vertex 3 -5 0
    endloop
  endfacet
  facet normal 1 0 0
    outer loop
      vertex 3 -5 0
      vertex 3 -3.1000000000000014 5
      vertex 3 -5 5
    endloop
  endfacet
  facet normal 0 0 1
    outer loop
      vertex -3 -3.1000000000000014 5
      vertex 3 -5 5
      vertex 3 -3.1000000000000014 5
    endloop
  endfacet
  facet normal -1 0 0
    outer loop
      vertex -5.5 -5 0
      vertex -5.5 -7 0
      vertex -5.5 -5 5
    endloop
  endfacet
  facet normal 0 0 -1
    outer loop
      vertex -5.5 -5 0
      vertex 5.5 -7 0
      vertex -5.5 -7 0
    endloop
  endfacet
  facet normal 0 0 -1
    outer loop
      vertex -5.5 -5 0
      vertex -3 -5 0
      vertex 5.5 -7 0
    endloop
  endfacet
  facet normal 0 1 0
    outer loop
      vertex -5.5 -5 0
      vertex -3 -5 5
      vertex -3 -5 0
    endloop
  endfacet
  facet normal 0 1 0
    outer loop
      vertex -5.5 -5 0
      vertex -5.5 -5 5
      vertex -3 -5 5
    endloop
  endfacet
  facet normal -1 0 0
    outer loop
      vertex -5.5 -7 0
      vertex -5.5 -7 5
      vertex -5.5 -5 5
    endloop
  endfacet
  facet normal 0 0 1
    outer loop
      vertex -5.5 -5 5
      vertex -5.5 -7 5
      vertex -3 -5 5
    endloop
  endfacet
  facet normal 0 0 1
    outer loop
      vertex -5.5 -7 5
      vertex 3 -5 5
      vertex -3 -5 5
    endloop
  endfacet
  facet normal 0 0 -1
    outer loop
      vertex -3 -5 0
      vertex 3 -5 0
      vertex 5.5 -7 0
    endloop
  endfacet
  facet normal 0 0 -1
    outer loop
      vertex 3 -5 0
      vertex 5.5 -5 0
      vertex 5.5 -7 0
    endloop
  endfacet
  facet normal 0 1 0
    outer loop
      vertex 3 -5 0
      vertex 5.5 -5 5
      vertex 5.5 -5 0
    endloop
  endfacet
  facet normal 1 0 0
    outer loop
      vertex 5.5 -5 0
      vertex 5.5 -7 5
      vertex 5.5 -7 0
    endloop
  endfacet
  facet normal 0 1 0
    outer loop
      vertex 3 -5 0
      vertex 3 -5 5
      vertex 5.5 -5 5
    endloop
  endfacet
  facet normal 0 0 1
    outer loop
      vertex -5.5 -7 5
      vertex 5.5 -5 5
      vertex 3 -5 5
    endloop
  endfacet
  facet normal 0 0 1
    outer loop
      vertex -5.5 -7 5
      vertex 5.5 -7 5
      vertex 5.5 -5 5
    endloop
  endfacet
  facet normal 1 0 0
    outer loop
      vertex 5.5 -5 0
      vertex 5.5 -5 5
      vertex 5.5 -7 5
    endloop
  endfacet
  facet normal 0 1 0
    outer loop
      vertex -8 -7 0
      vertex -8 -7 5
      vertex -5.5 -7 0
    endloop
  endfacet
  facet normal -1 0 0
    outer loop
      vertex -8 -7 0
      vertex -8 -10 0
      vertex -8 -10 5
    endloop
  endfacet
  facet normal 0 0 -1
    outer loop
      vertex -8 -7 0
      vertex 8 -10 0
      vertex -8 -10 0
    endloop
  endfacet
  facet normal 0 0 -1
    outer loop
      vertex -8 -7 0
      vertex -5.5 -7 0
      vertex 8 -10 0
    endloop
  endfacet
  facet normal 0 -1 0
    outer loop
      vertex -8 -10 0
      vertex 8 -10 0
      vertex -8 -10 5
    endloop
  endfacet
  facet normal 0 1 0
    outer loop
      vertex -5.5 -7 0
      vertex -8 -7 5
      vertex -5.5 -7 5
    endloop
  endfacet
  facet normal -1 0 0
    outer loop
      vertex -8 -7 0
      vertex -8 -10 5
      vertex -8 -7 5
    endloop
  endfacet
  facet normal 0 0 1
    outer loop
      vertex -8 -7 5
      vertex -8 -10 5
      vertex -5.5 -7 5
    endloop
  endfacet
  facet normal 0 0 1
    outer loop
      vertex -8 -10 5
      vertex 5.5 -7 5
      vertex -5.5 -7 5
    endloop
  endfacet
  facet normal 0 0 -1
    outer loop
      vertex -5.5 -7 0
      vertex 5.5 -7 0
      vertex 8 -10 0
    endloop
  endfacet
  facet normal 0 0 -1
    outer loop
      vertex 5.5 -7 0
      vertex 8 -7 0
      vertex 8 -10 0
    endloop
  endfacet
  facet normal 0 1 0
    outer loop
      vertex 5.5 -7 0
      vertex 5.5 -7 5
      vertex 8 -7 0
    endloop
  endfacet
  facet normal 1 0 0
    outer loop
      vertex 8 -7 0
      vertex 8 -7 5
      vertex 8 -10 0
    endloop
  endfacet
  facet normal 0 -1 0
    outer loop
      vertex -8 -10 5
      vertex 8 -10 0
      vertex 8 -10 5
    endloop
  endfacet
  facet normal 0 0 1
    outer loop
      vertex -8 -10 5
      vertex 8 -7 5
      vertex 5.5 -7 5
    endloop
  endfacet
  facet normal 0 0 1
    outer loop
      vertex -8 -10 5
      vertex 8 -10 5
      vertex 8 -7 5
    endloop
  endfacet
  facet normal 0 1 0
    outer loop
      vertex 8 -7 0
      vertex 5.5 -7 5
      vertex 8 -7 5
    endloop
  endfacet
  facet normal 1 0 0
    outer loop
      vertex 8 -10 0
      vertex 8 -7 5
      vertex 8 -10 5
    endloop
  endfacet
  facet normal 1 0 0
    outer loop
      vertex -3.4000000000000057 -1.3999999999999986 0
      vertex -3.4000000000000057 5.399999999999999 0
      vertex -3.4000000000000057 5.399999999999999 5
    endloop
  endfacet
  facet normal 0 1 0
    outer loop
      vertex 3.3999999999999915 -1.3999999999999986 0
      vertex -3.4000000000000057 -1.3999999999999986 0
      vertex -3.4000000000000057 -1.3999999999999986 5
    endloop
  endfacet
  facet normal 0 -1 0
    outer loop
      vertex -3.4000000000000057 5.399999999999999 5
      vertex -3.4000000000000057 5.399999999999999 0
      vertex 3.3999999999999915 5.399999999999999 5
    endloop
  endfacet
  facet normal 1 0 0
    outer loop
      vertex -3.4000000000000057 -1.3999999999999986 0
      vertex -3.4000000000000057 5.399999999999999 5
      vertex -3.4000000000000057 -1.3999999999999986 5
    endloop
  endfacet
  facet normal 0 -1 0
    outer loop
      vertex 3.3999999999999915 5.399999999999999 5
      vertex -3.4000000000000057 5.399999999999999 0
      vertex 3.3999999999999915 5.399999999999999 0
    endloop
  endfacet
  facet normal -1 0 0
    outer loop
      vertex 3.3999999999999915 -1.3999999999999986 0
      vertex 3.3999999999999915 -1.3999999999999986 5
      vertex 3.3999999999999915 5.399999999999999 0
    endloop
  endfacet
  facet normal -1 0 0
    outer loop
      vertex 3.3999999999999915 -1.3999999999999986 5
      vertex 3.3999999999999915 5.399999999999999 5
      vertex 3.3999999999999915 5.399999999999999 0
    endloop
  endfacet
  facet normal 0 1 0
    outer loop
      vertex -3.4000000000000057 -1.3999999999999986 5
      vertex 3.3999999999999915 -1.3999999999999986 5
      vertex 3.3999999999999915 -1.3999999999999986 0
    endloop
  endfacet
endsolid OpenSCAD_Model
