solid OpenSCAD_Model
  facet normal 0.5555702330196043 0.8314696123025439 0
    outer loop
      vertex 92.46510557068518 7.151299321504901 1.5
      vertex 92.65 7.027756813566455 0
      vertex 92.46510557068518 7.151299321504901 0
    endloop
  endfacet
  facet normal 0.32143946530316087 0.946930129495106 0
    outer loop
      vertex 92.84943816497935 6.929404794730814 1.5
      vertex 93.06000762332572 6.857926095308585 0
      vertex 92.84943816497935 6.929404794730814 0
    endloop
  endfacet
  facet normal 0.442288690219009 0.8968727415326844 0
    outer loop
      vertex 92.65 7.027756813566455 1.5
      vertex 92.84943816497935 6.929404794730814 0
      vertex 92.65 7.027756813566455 0
    endloop
  endfacet
  facet normal 0.19509032201614218 0.9807852804032277 0
    outer loop
      vertex 93.06000762332572 6.857926095308585 1.5
      vertex 93.2781054732259 6.814543735664522 0
      vertex 93.06000762332572 6.857926095308585 0
    endloop
  endfacet
  facet normal 0.06540312923015168 0.9978589232386029 0
    outer loop
      vertex 93.2781054732259 6.814543735664522 1.5
      vertex 93.5 6.799999999999997 0
      vertex 93.2781054732259 6.814543735664522 0
    endloop
  endfacet
  facet normal -0.06540312923015168 0.9978589232386029 0
    outer loop
      vertex 93.5 6.799999999999997 1.5
      vertex 93.7218945267741 6.814543735664522 0
      vertex 93.5 6.799999999999997 0
    endloop
  endfacet
  facet normal -0.19509032201614218 0.9807852804032277 0
    outer loop
      vertex 93.7218945267741 6.814543735664522 1.5
      vertex 93.93999237667428 6.857926095308585 0
      vertex 93.7218945267741 6.814543735664522 0
    endloop
  endfacet
  facet normal -0.32143946530316087 0.946930129495106 0
    outer loop
      vertex 93.93999237667428 6.857926095308585 1.5
      vertex 94.15056183502065 6.929404794730814 0
      vertex 93.93999237667428 6.857926095308585 0
    endloop
  endfacet
  facet normal -0.442288690219009 0.8968727415326844 0
    outer loop
      vertex 94.15056183502065 6.929404794730814 1.5
      vertex 94.35 7.027756813566455 0
      vertex 94.15056183502065 6.929404794730814 0
    endloop
  endfacet
  facet normal -0.5555702330196043 0.8314696123025439 0
    outer loop
      vertex 94.35 7.027756813566455 1.5
      vertex 94.53489442931482 7.151299321504901 0
      vertex 94.35 7.027756813566455 0
    endloop
  endfacet
  facet normal 0.751839807478968 0.6593458151000797 0
    outer loop
      vertex 92.1512993215049 7.465105570685175 1.5
      vertex 92.29791847198287 7.297918471982868 0
      vertex 92.1512993215049 7.465105570685175 0
    endloop
  endfacet
  facet normal 0.6593458151000458 0.7518398074789976 0
    outer loop
      vertex 92.46510557068518 7.151299321504901 0
      vertex 92.29791847198287 7.297918471982868 0
      vertex 92.29791847198287 7.297918471982868 1.5
    endloop
  endfacet
  facet normal 0.8314696123025587 0.5555702330195822 0
    outer loop
      vertex 92.02775681356646 7.649999999999999 1.5
      vertex 92.1512993215049 7.465105570685175 0
      vertex 92.02775681356646 7.649999999999999 0
    endloop
  endfacet
  facet normal 0.8968727415326988 0.4422886902189798 0
    outer loop
      vertex 92 7.706285249951186 0
      vertex 92.02775681356646 7.649999999999999 1.5
      vertex 92.02775681356646 7.649999999999999 0
    endloop
  endfacet
  facet normal -0.6593458151000458 0.7518398074789976 0
    outer loop
      vertex 94.53489442931482 7.151299321504901 1.5
      vertex 94.70208152801713 7.297918471982868 0
      vertex 94.53489442931482 7.151299321504901 0
    endloop
  endfacet
  facet normal -0.751839807478968 0.6593458151000797 0
    outer loop
      vertex 94.70208152801713 7.297918471982868 0
      vertex 94.70208152801713 7.297918471982868 1.5
      vertex 94.8487006784951 7.465105570685175 0
    endloop
  endfacet
  facet normal -0.8314696123025587 0.5555702330195822 0
    outer loop
      vertex 94.8487006784951 7.465105570685175 1.5
      vertex 94.97224318643354 7.649999999999999 0
      vertex 94.8487006784951 7.465105570685175 0
    endloop
  endfacet
  facet normal -0.8968727415326907 0.44228869021899636 0
    outer loop
      vertex 94.97224318643354 7.649999999999999 1.5
      vertex 95.07059520526919 7.849438164979347 0
      vertex 94.97224318643354 7.649999999999999 0
    endloop
  endfacet
  facet normal -0.946930129495106 0.32143946530316087 0
    outer loop
      vertex 95.07059520526919 7.849438164979347 1.5
      vertex 95.14207390469142 8.060007623325717 0
      vertex 95.07059520526919 7.849438164979347 0
    endloop
  endfacet
  facet normal -0.980785280403235 0.19509032201610535 0
    outer loop
      vertex 95.14207390469142 8.060007623325717 1.5
      vertex 95.18545626433547 8.278105473225914 0
      vertex 95.14207390469142 8.060007623325717 0
    endloop
  endfacet
  facet normal -0.9978589232386007 0.06540312923018558 0
    outer loop
      vertex 95.18545626433547 8.278105473225914 1.5
      vertex 95.2 8.5 0
      vertex 95.18545626433547 8.278105473225914 0
    endloop
  endfacet
  facet normal 0.5555702330196043 0.8314696123025439 0
    outer loop
      vertex 92.65 7.027756813566455 1.5
      vertex 92.65 7.027756813566455 0
      vertex 92.46510557068518 7.151299321504901 1.5
    endloop
  endfacet
  facet normal 0.32143946530316087 0.946930129495106 0
    outer loop
      vertex 93.06000762332572 6.857926095308585 1.5
      vertex 93.06000762332572 6.857926095308585 0
      vertex 92.84943816497935 6.929404794730814 1.5
    endloop
  endfacet
  facet normal 0.442288690219009 0.8968727415326844 0
    outer loop
      vertex 92.84943816497935 6.929404794730814 1.5
      vertex 92.84943816497935 6.929404794730814 0
      vertex 92.65 7.027756813566455 1.5
    endloop
  endfacet
  facet normal 0.19509032201614218 0.9807852804032277 0
    outer loop
      vertex 93.2781054732259 6.814543735664522 1.5
      vertex 93.2781054732259 6.814543735664522 0
      vertex 93.06000762332572 6.857926095308585 1.5
    endloop
  endfacet
  facet normal 0.06540312923015168 0.9978589232386029 0
    outer loop
      vertex 93.5 6.799999999999997 1.5
      vertex 93.5 6.799999999999997 0
      vertex 93.2781054732259 6.814543735664522 1.5
    endloop
  endfacet
  facet normal -0.06540312923015168 0.9978589232386029 0
    outer loop
      vertex 93.7218945267741 6.814543735664522 1.5
      vertex 93.7218945267741 6.814543735664522 0
      vertex 93.5 6.799999999999997 1.5
    endloop
  endfacet
  facet normal -0.19509032201614218 0.9807852804032277 0
    outer loop
      vertex 93.93999237667428 6.857926095308585 1.5
      vertex 93.93999237667428 6.857926095308585 0
      vertex 93.7218945267741 6.814543735664522 1.5
    endloop
  endfacet
  facet normal -0.32143946530316087 0.946930129495106 0
    outer loop
      vertex 94.15056183502065 6.929404794730814 1.5
      vertex 94.15056183502065 6.929404794730814 0
      vertex 93.93999237667428 6.857926095308585 1.5
    endloop
  endfacet
  facet normal -0.442288690219009 0.8968727415326844 0
    outer loop
      vertex 94.35 7.027756813566455 1.5
      vertex 94.35 7.027756813566455 0
      vertex 94.15056183502065 6.929404794730814 1.5
    endloop
  endfacet
  facet normal -0.5555702330196043 0.8314696123025439 0
    outer loop
      vertex 94.53489442931482 7.151299321504901 1.5
      vertex 94.53489442931482 7.151299321504901 0
      vertex 94.35 7.027756813566455 1.5
    endloop
  endfacet
  facet normal 0.751839807478968 0.6593458151000797 0
    outer loop
      vertex 92.1512993215049 7.465105570685175 1.5
      vertex 92.29791847198287 7.297918471982868 1.5
      vertex 92.29791847198287 7.297918471982868 0
    endloop
  endfacet
  facet normal 0.6593458151000458 0.7518398074789976 0
    outer loop
      vertex 92.46510557068518 7.151299321504901 1.5
      vertex 92.46510557068518 7.151299321504901 0
      vertex 92.29791847198287 7.297918471982868 1.5
    endloop
  endfacet
  facet normal 0.8314696123025587 0.5555702330195822 0
    outer loop
      vertex 92.02775681356646 7.649999999999999 1.5
      vertex 92.1512993215049 7.465105570685175 1.5
      vertex 92.1512993215049 7.465105570685175 0
    endloop
  endfacet
  facet normal 0.8968727415326988 0.4422886902189798 0
    outer loop
      vertex 92 7.706285249951186 1.5
      vertex 92.02775681356646 7.649999999999999 1.5
      vertex 92 7.706285249951186 0
    endloop
  endfacet
  facet normal -0.6593458151000458 0.7518398074789976 0
    outer loop
      vertex 94.70208152801713 7.297918471982868 1.5
      vertex 94.70208152801713 7.297918471982868 0
      vertex 94.53489442931482 7.151299321504901 1.5
    endloop
  endfacet
  facet normal -0.751839807478968 0.6593458151000797 0
    outer loop
      vertex 94.70208152801713 7.297918471982868 1.5
      vertex 94.8487006784951 7.465105570685175 1.5
      vertex 94.8487006784951 7.465105570685175 0
    endloop
  endfacet
  facet normal -0.8314696123025587 0.5555702330195822 0
    outer loop
      vertex 94.8487006784951 7.465105570685175 1.5
      vertex 94.97224318643354 7.649999999999999 1.5
      vertex 94.97224318643354 7.649999999999999 0
    endloop
  endfacet
  facet normal -0.8968727415326907 0.44228869021899636 0
    outer loop
      vertex 94.97224318643354 7.649999999999999 1.5
      vertex 95.07059520526919 7.849438164979347 1.5
      vertex 95.07059520526919 7.849438164979347 0
    endloop
  endfacet
  facet normal -0.946930129495106 0.32143946530316087 0
    outer loop
      vertex 95.07059520526919 7.849438164979347 1.5
      vertex 95.14207390469142 8.060007623325717 1.5
      vertex 95.14207390469142 8.060007623325717 0
    endloop
  endfacet
  facet normal -0.980785280403235 0.19509032201610535 0
    outer loop
      vertex 95.14207390469142 8.060007623325717 1.5
      vertex 95.18545626433547 8.278105473225914 1.5
      vertex 95.18545626433547 8.278105473225914 0
    endloop
  endfacet
  facet normal -0.9978589232386007 0.06540312923018558 0
    outer loop
      vertex 95.18545626433547 8.278105473225914 1.5
      vertex 95.2 8.5 1.5
      vertex 95.2 8.5 0
    endloop
  endfacet
  facet normal 0.8968727415326546 -0.4422886902190697 0
    outer loop
      vertex 92 9.29371475004882 1.5
      vertex 92 9.29371475004882 0
      vertex 92.02775681356646 9.349999999999994 0
    endloop
  endfacet
  facet normal 0.8314696123025587 -0.5555702330195822 0
    outer loop
      vertex 92.1512993215049 9.534894429314818 1.5
      vertex 92.02775681356646 9.349999999999994 0
      vertex 92.1512993215049 9.534894429314818 0
    endloop
  endfacet
  facet normal 0.7518398074789818 -0.659345815100064 0
    outer loop
      vertex 92.29791847198287 9.702081528017132 1.5
      vertex 92.1512993215049 9.534894429314818 0
      vertex 92.29791847198287 9.702081528017132 0
    endloop
  endfacet
  facet normal 0.659345815100064 -0.7518398074789818 0
    outer loop
      vertex 92.46510557068518 9.848700678495106 1.5
      vertex 92.29791847198287 9.702081528017132 0
      vertex 92.46510557068518 9.848700678495106 0
    endloop
  endfacet
  facet normal -0.659345815100064 -0.7518398074789818 0
    outer loop
      vertex 94.70208152801713 9.702081528017132 1.5
      vertex 94.53489442931482 9.848700678495106 0
      vertex 94.70208152801713 9.702081528017132 0
    endloop
  endfacet
  facet normal 0.5555702330195822 -0.8314696123025587 0
    outer loop
      vertex 92.65 9.972243186433545 1.5
      vertex 92.46510557068518 9.848700678495106 0
      vertex 92.65 9.972243186433545 0
    endloop
  endfacet
  facet normal 0.442288690219009 -0.8968727415326844 0
    outer loop
      vertex 92.84943816497935 10.070595205269186 1.5
      vertex 92.65 9.972243186433545 0
      vertex 92.84943816497935 10.070595205269186 0
    endloop
  endfacet
  facet normal 0.32143946530316087 -0.946930129495106 0
    outer loop
      vertex 93.06000762332572 10.142073904691415 1.5
      vertex 92.84943816497935 10.070595205269186 0
      vertex 93.06000762332572 10.142073904691415 0
    endloop
  endfacet
  facet normal 0.19509032201611143 -0.9807852804032338 0
    outer loop
      vertex 93.2781054732259 10.185456264335471 1.5
      vertex 93.06000762332572 10.142073904691415 0
      vertex 93.2781054732259 10.185456264335471 0
    endloop
  endfacet
  facet normal 0.06540312923018349 -0.9978589232386008 0
    outer loop
      vertex 93.5 10.200000000000003 1.5
      vertex 93.2781054732259 10.185456264335471 0
      vertex 93.5 10.200000000000003 0
    endloop
  endfacet
  facet normal -0.06540312923018349 -0.9978589232386008 0
    outer loop
      vertex 93.7218945267741 10.185456264335471 1.5
      vertex 93.5 10.200000000000003 0
      vertex 93.7218945267741 10.185456264335471 0
    endloop
  endfacet
  facet normal -0.19509032201611143 -0.9807852804032338 0
    outer loop
      vertex 93.93999237667428 10.142073904691415 1.5
      vertex 93.7218945267741 10.185456264335471 0
      vertex 93.93999237667428 10.142073904691415 0
    endloop
  endfacet
  facet normal -0.442288690219009 -0.8968727415326844 0
    outer loop
      vertex 94.35 9.972243186433545 1.5
      vertex 94.15056183502065 10.070595205269186 0
      vertex 94.35 9.972243186433545 0
    endloop
  endfacet
  facet normal -0.32143946530316087 -0.946930129495106 0
    outer loop
      vertex 94.15056183502065 10.070595205269186 1.5
      vertex 93.93999237667428 10.142073904691415 0
      vertex 94.15056183502065 10.070595205269186 0
    endloop
  endfacet
  facet normal -0.5555702330195822 -0.8314696123025587 0
    outer loop
      vertex 94.53489442931482 9.848700678495106 1.5
      vertex 94.35 9.972243186433545 0
      vertex 94.53489442931482 9.848700678495106 0
    endloop
  endfacet
  facet normal -0.9978589232386007 -0.06540312923018558 0
    outer loop
      vertex 95.2 8.5 0
      vertex 95.2 8.5 1.5
      vertex 95.18545626433547 8.721894526774086 0
    endloop
  endfacet
  facet normal -0.980785280403235 -0.19509032201610535 0
    outer loop
      vertex 95.18545626433547 8.721894526774086 1.5
      vertex 95.14207390469142 8.939992376674283 0
      vertex 95.18545626433547 8.721894526774086 0
    endloop
  endfacet
  facet normal -0.946930129495106 -0.32143946530316087 0
    outer loop
      vertex 95.14207390469142 8.939992376674283 1.5
      vertex 95.07059520526919 9.150561835020653 0
      vertex 95.14207390469142 8.939992376674283 0
    endloop
  endfacet
  facet normal -0.8968727415326844 -0.442288690219009 0
    outer loop
      vertex 95.07059520526919 9.150561835020653 1.5
      vertex 94.97224318643354 9.349999999999994 0
      vertex 95.07059520526919 9.150561835020653 0
    endloop
  endfacet
  facet normal -0.8314696123025587 -0.5555702330195822 0
    outer loop
      vertex 94.97224318643354 9.349999999999994 1.5
      vertex 94.8487006784951 9.534894429314818 0
      vertex 94.97224318643354 9.349999999999994 0
    endloop
  endfacet
  facet normal -0.7518398074789818 -0.659345815100064 0
    outer loop
      vertex 94.8487006784951 9.534894429314818 1.5
      vertex 94.70208152801713 9.702081528017132 0
      vertex 94.8487006784951 9.534894429314818 0
    endloop
  endfacet
  facet normal 0.8968727415326546 -0.4422886902190697 0
    outer loop
      vertex 92 9.29371475004882 1.5
      vertex 92.02775681356646 9.349999999999994 0
      vertex 92.02775681356646 9.349999999999994 1.5
    endloop
  endfacet
  facet normal 0.8314696123025587 -0.5555702330195822 0
    outer loop
      vertex 92.1512993215049 9.534894429314818 1.5
      vertex 92.02775681356646 9.349999999999994 1.5
      vertex 92.02775681356646 9.349999999999994 0
    endloop
  endfacet
  facet normal 0.7518398074789818 -0.659345815100064 0
    outer loop
      vertex 92.29791847198287 9.702081528017132 1.5
      vertex 92.1512993215049 9.534894429314818 1.5
      vertex 92.1512993215049 9.534894429314818 0
    endloop
  endfacet
  facet normal 0.659345815100064 -0.7518398074789818 0
    outer loop
      vertex 92.29791847198287 9.702081528017132 1.5
      vertex 92.29791847198287 9.702081528017132 0
      vertex 92.46510557068518 9.848700678495106 1.5
    endloop
  endfacet
  facet normal -0.659345815100064 -0.7518398074789818 0
    outer loop
      vertex 94.53489442931482 9.848700678495106 1.5
      vertex 94.53489442931482 9.848700678495106 0
      vertex 94.70208152801713 9.702081528017132 1.5
    endloop
  endfacet
  facet normal 0.5555702330195822 -0.8314696123025587 0
    outer loop
      vertex 92.46510557068518 9.848700678495106 1.5
      vertex 92.46510557068518 9.848700678495106 0
      vertex 92.65 9.972243186433545 1.5
    endloop
  endfacet
  facet normal 0.442288690219009 -0.8968727415326844 0
    outer loop
      vertex 92.65 9.972243186433545 1.5
      vertex 92.65 9.972243186433545 0
      vertex 92.84943816497935 10.070595205269186 1.5
    endloop
  endfacet
  facet normal 0.32143946530316087 -0.946930129495106 0
    outer loop
      vertex 92.84943816497935 10.070595205269186 1.5
      vertex 92.84943816497935 10.070595205269186 0
      vertex 93.06000762332572 10.142073904691415 1.5
    endloop
  endfacet
  facet normal 0.19509032201611143 -0.9807852804032338 0
    outer loop
      vertex 93.06000762332572 10.142073904691415 1.5
      vertex 93.06000762332572 10.142073904691415 0
      vertex 93.2781054732259 10.185456264335471 1.5
    endloop
  endfacet
  facet normal 0.06540312923018349 -0.9978589232386008 0
    outer loop
      vertex 93.2781054732259 10.185456264335471 1.5
      vertex 93.2781054732259 10.185456264335471 0
      vertex 93.5 10.200000000000003 1.5
    endloop
  endfacet
  facet normal -0.06540312923018349 -0.9978589232386008 0
    outer loop
      vertex 93.5 10.200000000000003 1.5
      vertex 93.5 10.200000000000003 0
      vertex 93.7218945267741 10.185456264335471 1.5
    endloop
  endfacet
  facet normal -0.19509032201611143 -0.9807852804032338 0
    outer loop
      vertex 93.7218945267741 10.185456264335471 1.5
      vertex 93.7218945267741 10.185456264335471 0
      vertex 93.93999237667428 10.142073904691415 1.5
    endloop
  endfacet
  facet normal -0.32143946530316087 -0.946930129495106 0
    outer loop
      vertex 93.93999237667428 10.142073904691415 1.5
      vertex 93.93999237667428 10.142073904691415 0
      vertex 94.15056183502065 10.070595205269186 1.5
    endloop
  endfacet
  facet normal -0.442288690219009 -0.8968727415326844 0
    outer loop
      vertex 94.15056183502065 10.070595205269186 1.5
      vertex 94.15056183502065 10.070595205269186 0
      vertex 94.35 9.972243186433545 1.5
    endloop
  endfacet
  facet normal -0.5555702330195822 -0.8314696123025587 0
    outer loop
      vertex 94.35 9.972243186433545 1.5
      vertex 94.35 9.972243186433545 0
      vertex 94.53489442931482 9.848700678495106 1.5
    endloop
  endfacet
  facet normal -0.9978589232386007 -0.06540312923018558 0
    outer loop
      vertex 95.18545626433547 8.721894526774086 1.5
      vertex 95.18545626433547 8.721894526774086 0
      vertex 95.2 8.5 1.5
    endloop
  endfacet
  facet normal -0.980785280403235 -0.19509032201610535 0
    outer loop
      vertex 95.18545626433547 8.721894526774086 1.5
      vertex 95.14207390469142 8.939992376674283 1.5
      vertex 95.14207390469142 8.939992376674283 0
    endloop
  endfacet
  facet normal -0.946930129495106 -0.32143946530316087 0
    outer loop
      vertex 95.14207390469142 8.939992376674283 1.5
      vertex 95.07059520526919 9.150561835020653 1.5
      vertex 95.07059520526919 9.150561835020653 0
    endloop
  endfacet
  facet normal -0.8968727415326844 -0.442288690219009 0
    outer loop
      vertex 95.07059520526919 9.150561835020653 1.5
      vertex 94.97224318643354 9.349999999999994 1.5
      vertex 94.97224318643354 9.349999999999994 0
    endloop
  endfacet
  facet normal -0.8314696123025587 -0.5555702330195822 0
    outer loop
      vertex 94.97224318643354 9.349999999999994 1.5
      vertex 94.8487006784951 9.534894429314818 1.5
      vertex 94.8487006784951 9.534894429314818 0
    endloop
  endfacet
  facet normal -0.7518398074789818 -0.659345815100064 0
    outer loop
      vertex 94.8487006784951 9.534894429314818 1.5
      vertex 94.70208152801713 9.702081528017132 1.5
      vertex 94.70208152801713 9.702081528017132 0
    endloop
  endfacet
  facet normal 0.751839807478968 0.6593458151000797 0
    outer loop
      vertex 111.29791847198287 7.297918471982868 0
      vertex 111.1512993215049 7.465105570685175 0
      vertex 111.1512993215049 7.465105570685175 1.5
    endloop
  endfacet
  facet normal 0.8314696123025587 0.5555702330195822 0
    outer loop
      vertex 111.1512993215049 7.465105570685175 0
      vertex 111.02775681356646 7.649999999999999 0
      vertex 111.02775681356646 7.649999999999999 1.5
    endloop
  endfacet
  facet normal 0.8968727415326907 0.44228869021899636 0
    outer loop
      vertex 111.02775681356646 7.649999999999999 0
      vertex 110.92940479473081 7.849438164979347 0
      vertex 110.92940479473081 7.849438164979347 1.5
    endloop
  endfacet
  facet normal 0.946930129495106 0.32143946530316087 0
    outer loop
      vertex 110.92940479473081 7.849438164979347 0
      vertex 110.85792609530858 8.060007623325717 0
      vertex 110.85792609530858 8.060007623325717 1.5
    endloop
  endfacet
  facet normal 0.980785280403235 0.19509032201610535 0
    outer loop
      vertex 110.85792609530858 8.060007623325717 0
      vertex 110.81454373566453 8.278105473225914 0
      vertex 110.81454373566453 8.278105473225914 1.5
    endloop
  endfacet
  facet normal 0.9978589232386007 0.06540312923018558 0
    outer loop
      vertex 110.81454373566453 8.278105473225914 0
      vertex 110.8 8.5 0
      vertex 110.8 8.5 1.5
    endloop
  endfacet
  facet normal 0.5555702330196043 0.8314696123025439 0
    outer loop
      vertex 111.46510557068518 7.151299321504901 0
      vertex 111.46510557068518 7.151299321504901 1.5
      vertex 111.65 7.027756813566455 0
    endloop
  endfacet
  facet normal 0.32143946530316087 0.946930129495106 0
    outer loop
      vertex 111.84943816497935 6.929404794730814 0
      vertex 111.84943816497935 6.929404794730814 1.5
      vertex 112.06000762332572 6.857926095308585 0
    endloop
  endfacet
  facet normal 0.442288690219009 0.8968727415326844 0
    outer loop
      vertex 111.65 7.027756813566455 0
      vertex 111.65 7.027756813566455 1.5
      vertex 111.84943816497935 6.929404794730814 0
    endloop
  endfacet
  facet normal 0.19509032201614218 0.9807852804032277 0
    outer loop
      vertex 112.06000762332572 6.857926095308585 0
      vertex 112.06000762332572 6.857926095308585 1.5
      vertex 112.2781054732259 6.814543735664522 0
    endloop
  endfacet
  facet normal 0.06540312923015168 0.9978589232386029 0
    outer loop
      vertex 112.2781054732259 6.814543735664522 0
      vertex 112.2781054732259 6.814543735664522 1.5
      vertex 112.5 6.799999999999997 0
    endloop
  endfacet
  facet normal -0.06540312923015168 0.9978589232386029 0
    outer loop
      vertex 112.5 6.799999999999997 0
      vertex 112.5 6.799999999999997 1.5
      vertex 112.7218945267741 6.814543735664522 0
    endloop
  endfacet
  facet normal -0.19509032201614218 0.9807852804032277 0
    outer loop
      vertex 112.7218945267741 6.814543735664522 0
      vertex 112.7218945267741 6.814543735664522 1.5
      vertex 112.93999237667428 6.857926095308585 0
    endloop
  endfacet
  facet normal -0.32143946530316087 0.946930129495106 0
    outer loop
      vertex 112.93999237667428 6.857926095308585 0
      vertex 112.93999237667428 6.857926095308585 1.5
      vertex 113.15056183502065 6.929404794730814 0
    endloop
  endfacet
  facet normal -0.442288690219009 0.8968727415326844 0
    outer loop
      vertex 113.15056183502065 6.929404794730814 0
      vertex 113.15056183502065 6.929404794730814 1.5
      vertex 113.35 7.027756813566455 0
    endloop
  endfacet
  facet normal -0.5555702330196043 0.8314696123025439 0
    outer loop
      vertex 113.35 7.027756813566455 0
      vertex 113.35 7.027756813566455 1.5
      vertex 113.53489442931482 7.151299321504901 0
    endloop
  endfacet
  facet normal 0.6593458151000458 0.7518398074789976 0
    outer loop
      vertex 111.46510557068518 7.151299321504901 0
      vertex 111.29791847198287 7.297918471982868 0
      vertex 111.29791847198287 7.297918471982868 1.5
    endloop
  endfacet
  facet normal -0.6593458151000458 0.7518398074789976 0
    outer loop
      vertex 113.53489442931482 7.151299321504901 0
      vertex 113.53489442931482 7.151299321504901 1.5
      vertex 113.70208152801713 7.297918471982868 0
    endloop
  endfacet
  facet normal -0.751839807478968 0.6593458151000797 0
    outer loop
      vertex 113.70208152801713 7.297918471982868 0
      vertex 113.70208152801713 7.297918471982868 1.5
      vertex 113.8487006784951 7.465105570685175 0
    endloop
  endfacet
  facet normal -0.8314696123025587 0.5555702330195822 0
    outer loop
      vertex 113.97224318643354 7.649999999999999 0
      vertex 113.8487006784951 7.465105570685175 0
      vertex 113.8487006784951 7.465105570685175 1.5
    endloop
  endfacet
  facet normal -0.8968727415326988 0.4422886902189798 0
    outer loop
      vertex 114 7.706285249951186 0
      vertex 113.97224318643354 7.649999999999999 0
      vertex 114 7.706285249951186 1.5
    endloop
  endfacet
  facet normal 0.751839807478968 0.6593458151000797 0
    outer loop
      vertex 111.29791847198287 7.297918471982868 0
      vertex 111.1512993215049 7.465105570685175 1.5
      vertex 111.29791847198287 7.297918471982868 1.5
    endloop
  endfacet
  facet normal 0.8314696123025587 0.5555702330195822 0
    outer loop
      vertex 111.1512993215049 7.465105570685175 0
      vertex 111.02775681356646 7.649999999999999 1.5
      vertex 111.1512993215049 7.465105570685175 1.5
    endloop
  endfacet
  facet normal 0.8968727415326907 0.44228869021899636 0
    outer loop
      vertex 111.02775681356646 7.649999999999999 0
      vertex 110.92940479473081 7.849438164979347 1.5
      vertex 111.02775681356646 7.649999999999999 1.5
    endloop
  endfacet
  facet normal 0.946930129495106 0.32143946530316087 0
    outer loop
      vertex 110.92940479473081 7.849438164979347 0
      vertex 110.85792609530858 8.060007623325717 1.5
      vertex 110.92940479473081 7.849438164979347 1.5
    endloop
  endfacet
  facet normal 0.980785280403235 0.19509032201610535 0
    outer loop
      vertex 110.85792609530858 8.060007623325717 0
      vertex 110.81454373566453 8.278105473225914 1.5
      vertex 110.85792609530858 8.060007623325717 1.5
    endloop
  endfacet
  facet normal 0.9978589232386007 0.06540312923018558 0
    outer loop
      vertex 110.81454373566453 8.278105473225914 0
      vertex 110.8 8.5 1.5
      vertex 110.81454373566453 8.278105473225914 1.5
    endloop
  endfacet
  facet normal 0.5555702330196043 0.8314696123025439 0
    outer loop
      vertex 111.65 7.027756813566455 0
      vertex 111.46510557068518 7.151299321504901 1.5
      vertex 111.65 7.027756813566455 1.5
    endloop
  endfacet
  facet normal 0.442288690219009 0.8968727415326844 0
    outer loop
      vertex 111.84943816497935 6.929404794730814 0
      vertex 111.65 7.027756813566455 1.5
      vertex 111.84943816497935 6.929404794730814 1.5
    endloop
  endfacet
  facet normal 0.32143946530316087 0.946930129495106 0
    outer loop
      vertex 112.06000762332572 6.857926095308585 0
      vertex 111.84943816497935 6.929404794730814 1.5
      vertex 112.06000762332572 6.857926095308585 1.5
    endloop
  endfacet
  facet normal 0.19509032201614218 0.9807852804032277 0
    outer loop
      vertex 112.2781054732259 6.814543735664522 0
      vertex 112.06000762332572 6.857926095308585 1.5
      vertex 112.2781054732259 6.814543735664522 1.5
    endloop
  endfacet
  facet normal 0.06540312923015168 0.9978589232386029 0
    outer loop
      vertex 112.5 6.799999999999997 0
      vertex 112.2781054732259 6.814543735664522 1.5
      vertex 112.5 6.799999999999997 1.5
    endloop
  endfacet
  facet normal -0.06540312923015168 0.9978589232386029 0
    outer loop
      vertex 112.7218945267741 6.814543735664522 0
      vertex 112.5 6.799999999999997 1.5
      vertex 112.7218945267741 6.814543735664522 1.5
    endloop
  endfacet
  facet normal -0.19509032201614218 0.9807852804032277 0
    outer loop
      vertex 112.93999237667428 6.857926095308585 0
      vertex 112.7218945267741 6.814543735664522 1.5
      vertex 112.93999237667428 6.857926095308585 1.5
    endloop
  endfacet
  facet normal -0.32143946530316087 0.946930129495106 0
    outer loop
      vertex 113.15056183502065 6.929404794730814 0
      vertex 112.93999237667428 6.857926095308585 1.5
      vertex 113.15056183502065 6.929404794730814 1.5
    endloop
  endfacet
  facet normal -0.442288690219009 0.8968727415326844 0
    outer loop
      vertex 113.35 7.027756813566455 0
      vertex 113.15056183502065 6.929404794730814 1.5
      vertex 113.35 7.027756813566455 1.5
    endloop
  endfacet
  facet normal -0.5555702330196043 0.8314696123025439 0
    outer loop
      vertex 113.53489442931482 7.151299321504901 0
      vertex 113.35 7.027756813566455 1.5
      vertex 113.53489442931482 7.151299321504901 1.5
    endloop
  endfacet
  facet normal 0.6593458151000458 0.7518398074789976 0
    outer loop
      vertex 111.46510557068518 7.151299321504901 0
      vertex 111.29791847198287 7.297918471982868 1.5
      vertex 111.46510557068518 7.151299321504901 1.5
    endloop
  endfacet
  facet normal -0.6593458151000458 0.7518398074789976 0
    outer loop
      vertex 113.70208152801713 7.297918471982868 0
      vertex 113.53489442931482 7.151299321504901 1.5
      vertex 113.70208152801713 7.297918471982868 1.5
    endloop
  endfacet
  facet normal -0.751839807478968 0.6593458151000797 0
    outer loop
      vertex 113.8487006784951 7.465105570685175 0
      vertex 113.70208152801713 7.297918471982868 1.5
      vertex 113.8487006784951 7.465105570685175 1.5
    endloop
  endfacet
  facet normal -0.8314696123025587 0.5555702330195822 0
    outer loop
      vertex 113.97224318643354 7.649999999999999 0
      vertex 113.8487006784951 7.465105570685175 1.5
      vertex 113.97224318643354 7.649999999999999 1.5
    endloop
  endfacet
  facet normal -0.8968727415326988 0.4422886902189798 0
    outer loop
      vertex 114 7.706285249951186 1.5
      vertex 113.97224318643354 7.649999999999999 0
      vertex 113.97224318643354 7.649999999999999 1.5
    endloop
  endfacet
  facet normal 0.9978589232386007 -0.06540312923018558 0
    outer loop
      vertex 110.8 8.5 0
      vertex 110.81454373566453 8.721894526774086 0
      vertex 110.81454373566453 8.721894526774086 1.5
    endloop
  endfacet
  facet normal 0.980785280403235 -0.19509032201610535 0
    outer loop
      vertex 110.81454373566453 8.721894526774086 0
      vertex 110.85792609530858 8.939992376674283 0
      vertex 110.85792609530858 8.939992376674283 1.5
    endloop
  endfacet
  facet normal 0.946930129495106 -0.32143946530316087 0
    outer loop
      vertex 110.85792609530858 8.939992376674283 0
      vertex 110.92940479473081 9.150561835020653 0
      vertex 110.92940479473081 9.150561835020653 1.5
    endloop
  endfacet
  facet normal 0.8968727415326844 -0.442288690219009 0
    outer loop
      vertex 110.92940479473081 9.150561835020653 0
      vertex 111.02775681356646 9.349999999999994 0
      vertex 111.02775681356646 9.349999999999994 1.5
    endloop
  endfacet
  facet normal 0.8314696123025587 -0.5555702330195822 0
    outer loop
      vertex 111.02775681356646 9.349999999999994 0
      vertex 111.1512993215049 9.534894429314818 0
      vertex 111.1512993215049 9.534894429314818 1.5
    endloop
  endfacet
  facet normal 0.7518398074789818 -0.659345815100064 0
    outer loop
      vertex 111.1512993215049 9.534894429314818 0
      vertex 111.29791847198287 9.702081528017132 0
      vertex 111.29791847198287 9.702081528017132 1.5
    endloop
  endfacet
  facet normal 0.659345815100064 -0.7518398074789818 0
    outer loop
      vertex 111.46510557068518 9.848700678495106 0
      vertex 111.46510557068518 9.848700678495106 1.5
      vertex 111.29791847198287 9.702081528017132 0
    endloop
  endfacet
  facet normal -0.8968727415326546 -0.4422886902190697 0
    outer loop
      vertex 114 9.29371475004882 0
      vertex 113.97224318643354 9.349999999999994 1.5
      vertex 113.97224318643354 9.349999999999994 0
    endloop
  endfacet
  facet normal -0.8314696123025587 -0.5555702330195822 0
    outer loop
      vertex 113.8487006784951 9.534894429314818 0
      vertex 113.97224318643354 9.349999999999994 0
      vertex 113.97224318643354 9.349999999999994 1.5
    endloop
  endfacet
  facet normal -0.659345815100064 -0.7518398074789818 0
    outer loop
      vertex 113.70208152801713 9.702081528017132 0
      vertex 113.70208152801713 9.702081528017132 1.5
      vertex 113.53489442931482 9.848700678495106 0
    endloop
  endfacet
  facet normal -0.7518398074789818 -0.659345815100064 0
    outer loop
      vertex 113.70208152801713 9.702081528017132 0
      vertex 113.8487006784951 9.534894429314818 0
      vertex 113.8487006784951 9.534894429314818 1.5
    endloop
  endfacet
  facet normal 0.5555702330195822 -0.8314696123025587 0
    outer loop
      vertex 111.65 9.972243186433545 0
      vertex 111.65 9.972243186433545 1.5
      vertex 111.46510557068518 9.848700678495106 0
    endloop
  endfacet
  facet normal 0.442288690219009 -0.8968727415326844 0
    outer loop
      vertex 111.84943816497935 10.070595205269186 0
      vertex 111.84943816497935 10.070595205269186 1.5
      vertex 111.65 9.972243186433545 0
    endloop
  endfacet
  facet normal 0.32143946530316087 -0.946930129495106 0
    outer loop
      vertex 112.06000762332572 10.142073904691415 0
      vertex 112.06000762332572 10.142073904691415 1.5
      vertex 111.84943816497935 10.070595205269186 0
    endloop
  endfacet
  facet normal 0.19509032201611143 -0.9807852804032338 0
    outer loop
      vertex 112.2781054732259 10.185456264335471 0
      vertex 112.2781054732259 10.185456264335471 1.5
      vertex 112.06000762332572 10.142073904691415 0
    endloop
  endfacet
  facet normal 0.06540312923018349 -0.9978589232386008 0
    outer loop
      vertex 112.5 10.200000000000003 0
      vertex 112.5 10.200000000000003 1.5
      vertex 112.2781054732259 10.185456264335471 0
    endloop
  endfacet
  facet normal -0.06540312923018349 -0.9978589232386008 0
    outer loop
      vertex 112.7218945267741 10.185456264335471 0
      vertex 112.7218945267741 10.185456264335471 1.5
      vertex 112.5 10.200000000000003 0
    endloop
  endfacet
  facet normal -0.19509032201611143 -0.9807852804032338 0
    outer loop
      vertex 112.93999237667428 10.142073904691415 0
      vertex 112.93999237667428 10.142073904691415 1.5
      vertex 112.7218945267741 10.185456264335471 0
    endloop
  endfacet
  facet normal -0.442288690219009 -0.8968727415326844 0
    outer loop
      vertex 113.35 9.972243186433545 0
      vertex 113.35 9.972243186433545 1.5
      vertex 113.15056183502065 10.070595205269186 0
    endloop
  endfacet
  facet normal -0.32143946530316087 -0.946930129495106 0
    outer loop
      vertex 113.15056183502065 10.070595205269186 0
      vertex 113.15056183502065 10.070595205269186 1.5
      vertex 112.93999237667428 10.142073904691415 0
    endloop
  endfacet
  facet normal -0.5555702330195822 -0.8314696123025587 0
    outer loop
      vertex 113.53489442931482 9.848700678495106 0
      vertex 113.53489442931482 9.848700678495106 1.5
      vertex 113.35 9.972243186433545 0
    endloop
  endfacet
  facet normal 0.9978589232386007 -0.06540312923018558 0
    outer loop
      vertex 110.8 8.5 0
      vertex 110.81454373566453 8.721894526774086 1.5
      vertex 110.8 8.5 1.5
    endloop
  endfacet
  facet normal 0.980785280403235 -0.19509032201610535 0
    outer loop
      vertex 110.81454373566453 8.721894526774086 0
      vertex 110.85792609530858 8.939992376674283 1.5
      vertex 110.81454373566453 8.721894526774086 1.5
    endloop
  endfacet
  facet normal 0.946930129495106 -0.32143946530316087 0
    outer loop
      vertex 110.85792609530858 8.939992376674283 0
      vertex 110.92940479473081 9.150561835020653 1.5
      vertex 110.85792609530858 8.939992376674283 1.5
    endloop
  endfacet
  facet normal 0.8968727415326844 -0.442288690219009 0
    outer loop
      vertex 110.92940479473081 9.150561835020653 0
      vertex 111.02775681356646 9.349999999999994 1.5
      vertex 110.92940479473081 9.150561835020653 1.5
    endloop
  endfacet
  facet normal 0.8314696123025587 -0.5555702330195822 0
    outer loop
      vertex 111.02775681356646 9.349999999999994 0
      vertex 111.1512993215049 9.534894429314818 1.5
      vertex 111.02775681356646 9.349999999999994 1.5
    endloop
  endfacet
  facet normal 0.7518398074789818 -0.659345815100064 0
    outer loop
      vertex 111.1512993215049 9.534894429314818 0
      vertex 111.29791847198287 9.702081528017132 1.5
      vertex 111.1512993215049 9.534894429314818 1.5
    endloop
  endfacet
  facet normal 0.659345815100064 -0.7518398074789818 0
    outer loop
      vertex 111.29791847198287 9.702081528017132 0
      vertex 111.46510557068518 9.848700678495106 1.5
      vertex 111.29791847198287 9.702081528017132 1.5
    endloop
  endfacet
  facet normal -0.8968727415326546 -0.4422886902190697 0
    outer loop
      vertex 114 9.29371475004882 1.5
      vertex 113.97224318643354 9.349999999999994 1.5
      vertex 114 9.29371475004882 0
    endloop
  endfacet
  facet normal -0.8314696123025587 -0.5555702330195822 0
    outer loop
      vertex 113.8487006784951 9.534894429314818 0
      vertex 113.97224318643354 9.349999999999994 1.5
      vertex 113.8487006784951 9.534894429314818 1.5
    endloop
  endfacet
  facet normal -0.659345815100064 -0.7518398074789818 0
    outer loop
      vertex 113.53489442931482 9.848700678495106 0
      vertex 113.70208152801713 9.702081528017132 1.5
      vertex 113.53489442931482 9.848700678495106 1.5
    endloop
  endfacet
  facet normal -0.7518398074789818 -0.659345815100064 0
    outer loop
      vertex 113.70208152801713 9.702081528017132 0
      vertex 113.8487006784951 9.534894429314818 1.5
      vertex 113.70208152801713 9.702081528017132 1.5
    endloop
  endfacet
  facet normal 0.5555702330195822 -0.8314696123025587 0
    outer loop
      vertex 111.46510557068518 9.848700678495106 0
      vertex 111.65 9.972243186433545 1.5
      vertex 111.46510557068518 9.848700678495106 1.5
    endloop
  endfacet
  facet normal 0.442288690219009 -0.8968727415326844 0
    outer loop
      vertex 111.65 9.972243186433545 0
      vertex 111.84943816497935 10.070595205269186 1.5
      vertex 111.65 9.972243186433545 1.5
    endloop
  endfacet
  facet normal 0.32143946530316087 -0.946930129495106 0
    outer loop
      vertex 111.84943816497935 10.070595205269186 0
      vertex 112.06000762332572 10.142073904691415 1.5
      vertex 111.84943816497935 10.070595205269186 1.5
    endloop
  endfacet
  facet normal 0.19509032201611143 -0.9807852804032338 0
    outer loop
      vertex 112.06000762332572 10.142073904691415 0
      vertex 112.2781054732259 10.185456264335471 1.5
      vertex 112.06000762332572 10.142073904691415 1.5
    endloop
  endfacet
  facet normal 0.06540312923018349 -0.9978589232386008 0
    outer loop
      vertex 112.2781054732259 10.185456264335471 0
      vertex 112.5 10.200000000000003 1.5
      vertex 112.2781054732259 10.185456264335471 1.5
    endloop
  endfacet
  facet normal -0.06540312923018349 -0.9978589232386008 0
    outer loop
      vertex 112.5 10.200000000000003 0
      vertex 112.7218945267741 10.185456264335471 1.5
      vertex 112.5 10.200000000000003 1.5
    endloop
  endfacet
  facet normal -0.19509032201611143 -0.9807852804032338 0
    outer loop
      vertex 112.7218945267741 10.185456264335471 0
      vertex 112.93999237667428 10.142073904691415 1.5
      vertex 112.7218945267741 10.185456264335471 1.5
    endloop
  endfacet
  facet normal -0.442288690219009 -0.8968727415326844 0
    outer loop
      vertex 113.15056183502065 10.070595205269186 0
      vertex 113.35 9.972243186433545 1.5
      vertex 113.15056183502065 10.070595205269186 1.5
    endloop
  endfacet
  facet normal -0.32143946530316087 -0.946930129495106 0
    outer loop
      vertex 112.93999237667428 10.142073904691415 0
      vertex 113.15056183502065 10.070595205269186 1.5
      vertex 112.93999237667428 10.142073904691415 1.5
    endloop
  endfacet
  facet normal -0.5555702330195822 -0.8314696123025587 0
    outer loop
      vertex 113.35 9.972243186433545 0
      vertex 113.53489442931482 9.848700678495106 1.5
      vertex 113.35 9.972243186433545 1.5
    endloop
  endfacet
  facet normal 0 1 0
    outer loop
      vertex 108.8 5.700000000000003 0
      vertex 97.2 5.700000000000003 0
      vertex 97.2 5.700000000000003 1.5
    endloop
  endfacet
  facet normal 1 0 0
    outer loop
      vertex 97.2 5.700000000000003 1.5
      vertex 97.2 5.700000000000003 0
      vertex 97.2 11.299999999999997 1.5
    endloop
  endfacet
  facet normal 1 0 0
    outer loop
      vertex 97.2 11.299999999999997 1.5
      vertex 97.2 5.700000000000003 0
      vertex 97.2 11.299999999999997 0
    endloop
  endfacet
  facet normal 0 -1 0
    outer loop
      vertex 108.8 11.299999999999997 1.5
      vertex 97.2 11.299999999999997 1.5
      vertex 97.2 11.299999999999997 0
    endloop
  endfacet
  facet normal -1 0 0
    outer loop
      vertex 108.8 5.700000000000003 0
      vertex 108.8 5.700000000000003 1.5
      vertex 108.8 11.299999999999997 0
    endloop
  endfacet
  facet normal 0 1 0
    outer loop
      vertex 97.2 5.700000000000003 1.5
      vertex 108.8 5.700000000000003 1.5
      vertex 108.8 5.700000000000003 0
    endloop
  endfacet
  facet normal 0 -1 0
    outer loop
      vertex 97.2 11.299999999999997 0
      vertex 108.8 11.299999999999997 0
      vertex 108.8 11.299999999999997 1.5
    endloop
  endfacet
  facet normal -1 0 0
    outer loop
      vertex 108.8 11.299999999999997 0
      vertex 108.8 5.700000000000003 1.5
      vertex 108.8 11.299999999999997 1.5
    endloop
  endfacet
  facet normal 0 0 -1
    outer loop
      vertex 92 3 0
      vertex 92.65 7.027756813566455 0
      vertex 92.84943816497935 6.929404794730814 0
    endloop
  endfacet
  facet normal 0 0 -1
    outer loop
      vertex 92 3 0
      vertex 92.46510557068518 7.151299321504901 0
      vertex 92.65 7.027756813566455 0
    endloop
  endfacet
  facet normal 0 0 -1
    outer loop
      vertex 92 3 0
      vertex 92.84943816497935 6.929404794730814 0
      vertex 93.06000762332572 6.857926095308585 0
    endloop
  endfacet
  facet normal 0 0 -1
    outer loop
      vertex 92 3 0
      vertex 93.06000762332572 6.857926095308585 0
      vertex 93.2781054732259 6.814543735664522 0
    endloop
  endfacet
  facet normal 0 0 -1
    outer loop
      vertex 92 3 0
      vertex 93.2781054732259 6.814543735664522 0
      vertex 93.5 6.799999999999997 0
    endloop
  endfacet
  facet normal 0 0 -1
    outer loop
      vertex 92 3 0
      vertex 93.5 6.799999999999997 0
      vertex 93.7218945267741 6.814543735664522 0
    endloop
  endfacet
  facet normal 0 0 -1
    outer loop
      vertex 92 3 0
      vertex 93.7218945267741 6.814543735664522 0
      vertex 93.93999237667428 6.857926095308585 0
    endloop
  endfacet
  facet normal 0 0 -1
    outer loop
      vertex 92 3 0
      vertex 93.93999237667428 6.857926095308585 0
      vertex 97.2 5.700000000000003 0
    endloop
  endfacet
  facet normal -1 0 0
    outer loop
      vertex 92 3 0
      vertex 92 3 1.5
      vertex 92 7.706285249951186 0
    endloop
  endfacet
  facet normal 0 0 -1
    outer loop
      vertex 92 3 0
      vertex 92.1512993215049 7.465105570685175 0
      vertex 92.29791847198287 7.297918471982868 0
    endloop
  endfacet
  facet normal 0 0 -1
    outer loop
      vertex 92 3 0
      vertex 92.29791847198287 7.297918471982868 0
      vertex 92.46510557068518 7.151299321504901 0
    endloop
  endfacet
  facet normal 0 0 -1
    outer loop
      vertex 92 3 0
      vertex 92.02775681356646 7.649999999999999 0
      vertex 92.1512993215049 7.465105570685175 0
    endloop
  endfacet
  facet normal 0 0 -1
    outer loop
      vertex 92 3 0
      vertex 92 7.706285249951186 0
      vertex 92.02775681356646 7.649999999999999 0
    endloop
  endfacet
  facet normal 0 0 -1
    outer loop
      vertex 93.93999237667428 6.857926095308585 0
      vertex 94.15056183502065 6.929404794730814 0
      vertex 97.2 5.700000000000003 0
    endloop
  endfacet
  facet normal 0 0 -1
    outer loop
      vertex 94.15056183502065 6.929404794730814 0
      vertex 94.35 7.027756813566455 0
      vertex 97.2 5.700000000000003 0
    endloop
  endfacet
  facet normal 0 0 -1
    outer loop
      vertex 94.35 7.027756813566455 0
      vertex 94.53489442931482 7.151299321504901 0
      vertex 97.2 5.700000000000003 0
    endloop
  endfacet
  facet normal 0 0 -1
    outer loop
      vertex 94.53489442931482 7.151299321504901 0
      vertex 94.70208152801713 7.297918471982868 0
      vertex 97.2 5.700000000000003 0
    endloop
  endfacet
  facet normal 0 0 -1
    outer loop
      vertex 94.70208152801713 7.297918471982868 0
      vertex 94.8487006784951 7.465105570685175 0
      vertex 97.2 5.700000000000003 0
    endloop
  endfacet
  facet normal 0 0 -1
    outer loop
      vertex 94.97224318643354 7.649999999999999 0
      vertex 97.2 5.700000000000003 0
      vertex 94.8487006784951 7.465105570685175 0
    endloop
  endfacet
  facet normal 0 0 -1
    outer loop
      vertex 95.07059520526919 7.849438164979347 0
      vertex 97.2 5.700000000000003 0
      vertex 94.97224318643354 7.649999999999999 0
    endloop
  endfacet
  facet normal 0 0 -1
    outer loop
      vertex 95.14207390469142 8.060007623325717 0
      vertex 97.2 5.700000000000003 0
      vertex 95.07059520526919 7.849438164979347 0
    endloop
  endfacet
  facet normal 0 0 -1
    outer loop
      vertex 95.18545626433547 8.278105473225914 0
      vertex 97.2 5.700000000000003 0
      vertex 95.14207390469142 8.060007623325717 0
    endloop
  endfacet
  facet normal 0 0 -1
    outer loop
      vertex 95.18545626433547 8.278105473225914 0
      vertex 97.2 11.299999999999997 0
      vertex 97.2 5.700000000000003 0
    endloop
  endfacet
  facet normal 0 0 -1
    outer loop
      vertex 92 3 0
      vertex 97.2 5.700000000000003 0
      vertex 108.8 5.700000000000003 0
    endloop
  endfacet
  facet normal 0 0 1
    outer loop
      vertex 92 3 1.5
      vertex 92.84943816497935 6.929404794730814 1.5
      vertex 92.65 7.027756813566455 1.5
    endloop
  endfacet
  facet normal 0 0 1
    outer loop
      vertex 92 3 1.5
      vertex 92.65 7.027756813566455 1.5
      vertex 92.46510557068518 7.151299321504901 1.5
    endloop
  endfacet
  facet normal 0 0 1
    outer loop
      vertex 92 3 1.5
      vertex 93.06000762332572 6.857926095308585 1.5
      vertex 92.84943816497935 6.929404794730814 1.5
    endloop
  endfacet
  facet normal 0 0 1
    outer loop
      vertex 92 3 1.5
      vertex 93.2781054732259 6.814543735664522 1.5
      vertex 93.06000762332572 6.857926095308585 1.5
    endloop
  endfacet
  facet normal 0 0 1
    outer loop
      vertex 92 3 1.5
      vertex 93.5 6.799999999999997 1.5
      vertex 93.2781054732259 6.814543735664522 1.5
    endloop
  endfacet
  facet normal 0 0 1
    outer loop
      vertex 92 3 1.5
      vertex 93.7218945267741 6.814543735664522 1.5
      vertex 93.5 6.799999999999997 1.5
    endloop
  endfacet
  facet normal 0 0 1
    outer loop
      vertex 92 3 1.5
      vertex 93.93999237667428 6.857926095308585 1.5
      vertex 93.7218945267741 6.814543735664522 1.5
    endloop
  endfacet
  facet normal 0 0 1
    outer loop
      vertex 92 3 1.5
      vertex 94.15056183502065 6.929404794730814 1.5
      vertex 93.93999237667428 6.857926095308585 1.5
    endloop
  endfacet
  facet normal 0 0 1
    outer loop
      vertex 92 3 1.5
      vertex 97.2 5.700000000000003 1.5
      vertex 94.15056183502065 6.929404794730814 1.5
    endloop
  endfacet
  facet normal -1 0 0
    outer loop
      vertex 92 3 1.5
      vertex 92 7.706285249951186 1.5
      vertex 92 7.706285249951186 0
    endloop
  endfacet
  facet normal 0 0 1
    outer loop
      vertex 92 3 1.5
      vertex 92.29791847198287 7.297918471982868 1.5
      vertex 92.1512993215049 7.465105570685175 1.5
    endloop
  endfacet
  facet normal 0 0 1
    outer loop
      vertex 92 3 1.5
      vertex 92.46510557068518 7.151299321504901 1.5
      vertex 92.29791847198287 7.297918471982868 1.5
    endloop
  endfacet
  facet normal 0 0 1
    outer loop
      vertex 92 3 1.5
      vertex 92.1512993215049 7.465105570685175 1.5
      vertex 92.02775681356646 7.649999999999999 1.5
    endloop
  endfacet
  facet normal 0 0 1
    outer loop
      vertex 92 3 1.5
      vertex 92.02775681356646 7.649999999999999 1.5
      vertex 92 7.706285249951186 1.5
    endloop
  endfacet
  facet normal 0 0 1
    outer loop
      vertex 94.35 7.027756813566455 1.5
      vertex 94.15056183502065 6.929404794730814 1.5
      vertex 97.2 5.700000000000003 1.5
    endloop
  endfacet
  facet normal 0 0 1
    outer loop
      vertex 94.53489442931482 7.151299321504901 1.5
      vertex 94.35 7.027756813566455 1.5
      vertex 97.2 5.700000000000003 1.5
    endloop
  endfacet
  facet normal 0 0 1
    outer loop
      vertex 94.70208152801713 7.297918471982868 1.5
      vertex 94.53489442931482 7.151299321504901 1.5
      vertex 97.2 5.700000000000003 1.5
    endloop
  endfacet
  facet normal 0 0 1
    outer loop
      vertex 94.70208152801713 7.297918471982868 1.5
      vertex 97.2 5.700000000000003 1.5
      vertex 94.8487006784951 7.465105570685175 1.5
    endloop
  endfacet
  facet normal 0 0 1
    outer loop
      vertex 94.8487006784951 7.465105570685175 1.5
      vertex 97.2 5.700000000000003 1.5
      vertex 94.97224318643354 7.649999999999999 1.5
    endloop
  endfacet
  facet normal 0 0 1
    outer loop
      vertex 94.97224318643354 7.649999999999999 1.5
      vertex 97.2 5.700000000000003 1.5
      vertex 95.07059520526919 7.849438164979347 1.5
    endloop
  endfacet
  facet normal 0 0 1
    outer loop
      vertex 95.07059520526919 7.849438164979347 1.5
      vertex 97.2 5.700000000000003 1.5
      vertex 95.14207390469142 8.060007623325717 1.5
    endloop
  endfacet
  facet normal 0 0 1
    outer loop
      vertex 95.14207390469142 8.060007623325717 1.5
      vertex 97.2 5.700000000000003 1.5
      vertex 95.18545626433547 8.278105473225914 1.5
    endloop
  endfacet
  facet normal 0 0 1
    outer loop
      vertex 95.18545626433547 8.278105473225914 1.5
      vertex 97.2 5.700000000000003 1.5
      vertex 95.2 8.5 1.5
    endloop
  endfacet
  facet normal 0 0 1
    outer loop
      vertex 97.2 5.700000000000003 1.5
      vertex 95.18545626433547 8.721894526774086 1.5
      vertex 95.2 8.5 1.5
    endloop
  endfacet
  facet normal 0 -1 0
    outer loop
      vertex 92 3 0
      vertex 114 3 1.5
      vertex 92 3 1.5
    endloop
  endfacet
  facet normal 0 0 1
    outer loop
      vertex 92 3 1.5
      vertex 114 3 1.5
      vertex 97.2 5.700000000000003 1.5
    endloop
  endfacet
  facet normal 0 0 -1
    outer loop
      vertex 92 14 0
      vertex 92.02775681356646 9.349999999999994 0
      vertex 92 9.29371475004882 0
    endloop
  endfacet
  facet normal 0 0 -1
    outer loop
      vertex 92 14 0
      vertex 92.1512993215049 9.534894429314818 0
      vertex 92.02775681356646 9.349999999999994 0
    endloop
  endfacet
  facet normal 0 0 -1
    outer loop
      vertex 92 14 0
      vertex 92.29791847198287 9.702081528017132 0
      vertex 92.1512993215049 9.534894429314818 0
    endloop
  endfacet
  facet normal 0 0 -1
    outer loop
      vertex 92 14 0
      vertex 92.46510557068518 9.848700678495106 0
      vertex 92.29791847198287 9.702081528017132 0
    endloop
  endfacet
  facet normal 0 0 -1
    outer loop
      vertex 95.2 8.5 0
      vertex 97.2 11.299999999999997 0
      vertex 95.18545626433547 8.278105473225914 0
    endloop
  endfacet
  facet normal 0 0 -1
    outer loop
      vertex 95.2 8.5 0
      vertex 95.18545626433547 8.721894526774086 0
      vertex 97.2 11.299999999999997 0
    endloop
  endfacet
  facet normal 0 0 -1
    outer loop
      vertex 95.14207390469142 8.939992376674283 0
      vertex 97.2 11.299999999999997 0
      vertex 95.18545626433547 8.721894526774086 0
    endloop
  endfacet
  facet normal 0 0 -1
    outer loop
      vertex 95.07059520526919 9.150561835020653 0
      vertex 97.2 11.299999999999997 0
      vertex 95.14207390469142 8.939992376674283 0
    endloop
  endfacet
  facet normal 0 0 -1
    outer loop
      vertex 94.53489442931482 9.848700678495106 0
      vertex 94.35 9.972243186433545 0
      vertex 97.2 11.299999999999997 0
    endloop
  endfacet
  facet normal 0 0 -1
    outer loop
      vertex 94.35 9.972243186433545 0
      vertex 94.15056183502065 10.070595205269186 0
      vertex 97.2 11.299999999999997 0
    endloop
  endfacet
  facet normal 0 0 -1
    outer loop
      vertex 94.97224318643354 9.349999999999994 0
      vertex 97.2 11.299999999999997 0
      vertex 95.07059520526919 9.150561835020653 0
    endloop
  endfacet
  facet normal 0 0 -1
    outer loop
      vertex 94.70208152801713 9.702081528017132 0
      vertex 97.2 11.299999999999997 0
      vertex 94.8487006784951 9.534894429314818 0
    endloop
  endfacet
  facet normal 0 0 -1
    outer loop
      vertex 94.8487006784951 9.534894429314818 0
      vertex 97.2 11.299999999999997 0
      vertex 94.97224318643354 9.349999999999994 0
    endloop
  endfacet
  facet normal 0 0 -1
    outer loop
      vertex 97.2 11.299999999999997 0
      vertex 94.70208152801713 9.702081528017132 0
      vertex 94.53489442931482 9.848700678495106 0
    endloop
  endfacet
  facet normal -1 0 0
    outer loop
      vertex 92 14 0
      vertex 92 9.29371475004882 0
      vertex 92 9.29371475004882 1.5
    endloop
  endfacet
  facet normal 0 0 -1
    outer loop
      vertex 92 14 0
      vertex 92.65 9.972243186433545 0
      vertex 92.46510557068518 9.848700678495106 0
    endloop
  endfacet
  facet normal 0 0 -1
    outer loop
      vertex 92 14 0
      vertex 92.84943816497935 10.070595205269186 0
      vertex 92.65 9.972243186433545 0
    endloop
  endfacet
  facet normal 0 0 -1
    outer loop
      vertex 92 14 0
      vertex 93.06000762332572 10.142073904691415 0
      vertex 92.84943816497935 10.070595205269186 0
    endloop
  endfacet
  facet normal 0 0 -1
    outer loop
      vertex 92 14 0
      vertex 93.2781054732259 10.185456264335471 0
      vertex 93.06000762332572 10.142073904691415 0
    endloop
  endfacet
  facet normal 0 0 -1
    outer loop
      vertex 92 14 0
      vertex 93.5 10.200000000000003 0
      vertex 93.2781054732259 10.185456264335471 0
    endloop
  endfacet
  facet normal 0 0 -1
    outer loop
      vertex 92 14 0
      vertex 94.15056183502065 10.070595205269186 0
      vertex 93.93999237667428 10.142073904691415 0
    endloop
  endfacet
  facet normal 0 0 -1
    outer loop
      vertex 92 14 0
      vertex 93.7218945267741 10.185456264335471 0
      vertex 93.5 10.200000000000003 0
    endloop
  endfacet
  facet normal 0 0 -1
    outer loop
      vertex 92 14 0
      vertex 93.93999237667428 10.142073904691415 0
      vertex 93.7218945267741 10.185456264335471 0
    endloop
  endfacet
  facet normal 0 0 -1
    outer loop
      vertex 92 14 0
      vertex 97.2 11.299999999999997 0
      vertex 94.15056183502065 10.070595205269186 0
    endloop
  endfacet
  facet normal 0 0 -1
    outer loop
      vertex 92 14 0
      vertex 114 14 0
      vertex 97.2 11.299999999999997 0
    endloop
  endfacet
  facet normal 0 1 0
    outer loop
      vertex 92 14 0
      vertex 92 14 1.5
      vertex 114 14 0
    endloop
  endfacet
  facet normal 0 0 1
    outer loop
      vertex 92 14 1.5
      vertex 92 9.29371475004882 1.5
      vertex 92.02775681356646 9.349999999999994 1.5
    endloop
  endfacet
  facet normal 0 0 1
    outer loop
      vertex 92 14 1.5
      vertex 92.02775681356646 9.349999999999994 1.5
      vertex 92.1512993215049 9.534894429314818 1.5
    endloop
  endfacet
  facet normal 0 0 1
    outer loop
      vertex 92 14 1.5
      vertex 92.1512993215049 9.534894429314818 1.5
      vertex 92.29791847198287 9.702081528017132 1.5
    endloop
  endfacet
  facet normal 0 0 1
    outer loop
      vertex 92 14 1.5
      vertex 92.29791847198287 9.702081528017132 1.5
      vertex 92.46510557068518 9.848700678495106 1.5
    endloop
  endfacet
  facet normal 0 0 1
    outer loop
      vertex 95.18545626433547 8.721894526774086 1.5
      vertex 97.2 11.299999999999997 1.5
      vertex 95.14207390469142 8.939992376674283 1.5
    endloop
  endfacet
  facet normal 0 0 1
    outer loop
      vertex 95.14207390469142 8.939992376674283 1.5
      vertex 97.2 11.299999999999997 1.5
      vertex 95.07059520526919 9.150561835020653 1.5
    endloop
  endfacet
  facet normal 0 0 1
    outer loop
      vertex 97.2 5.700000000000003 1.5
      vertex 97.2 11.299999999999997 1.5
      vertex 95.18545626433547 8.721894526774086 1.5
    endloop
  endfacet
  facet normal 0 0 1
    outer loop
      vertex 93.7218945267741 10.185456264335471 1.5
      vertex 93.93999237667428 10.142073904691415 1.5
      vertex 97.2 11.299999999999997 1.5
    endloop
  endfacet
  facet normal 0 0 1
    outer loop
      vertex 94.35 9.972243186433545 1.5
      vertex 94.53489442931482 9.848700678495106 1.5
      vertex 97.2 11.299999999999997 1.5
    endloop
  endfacet
  facet normal 0 0 1
    outer loop
      vertex 94.15056183502065 10.070595205269186 1.5
      vertex 94.35 9.972243186433545 1.5
      vertex 97.2 11.299999999999997 1.5
    endloop
  endfacet
  facet normal 0 0 1
    outer loop
      vertex 93.93999237667428 10.142073904691415 1.5
      vertex 94.15056183502065 10.070595205269186 1.5
      vertex 97.2 11.299999999999997 1.5
    endloop
  endfacet
  facet normal 0 0 1
    outer loop
      vertex 95.07059520526919 9.150561835020653 1.5
      vertex 97.2 11.299999999999997 1.5
      vertex 94.97224318643354 9.349999999999994 1.5
    endloop
  endfacet
  facet normal 0 0 1
    outer loop
      vertex 94.8487006784951 9.534894429314818 1.5
      vertex 97.2 11.299999999999997 1.5
      vertex 94.70208152801713 9.702081528017132 1.5
    endloop
  endfacet
  facet normal 0 0 1
    outer loop
      vertex 94.97224318643354 9.349999999999994 1.5
      vertex 97.2 11.299999999999997 1.5
      vertex 94.8487006784951 9.534894429314818 1.5
    endloop
  endfacet
  facet normal 0 0 1
    outer loop
      vertex 94.53489442931482 9.848700678495106 1.5
      vertex 94.70208152801713 9.702081528017132 1.5
      vertex 97.2 11.299999999999997 1.5
    endloop
  endfacet
  facet normal -1 0 0
    outer loop
      vertex 92 14 0
      vertex 92 9.29371475004882 1.5
      vertex 92 14 1.5
    endloop
  endfacet
  facet normal 0 0 1
    outer loop
      vertex 92 14 1.5
      vertex 92.46510557068518 9.848700678495106 1.5
      vertex 92.65 9.972243186433545 1.5
    endloop
  endfacet
  facet normal 0 0 1
    outer loop
      vertex 92 14 1.5
      vertex 92.65 9.972243186433545 1.5
      vertex 92.84943816497935 10.070595205269186 1.5
    endloop
  endfacet
  facet normal 0 0 1
    outer loop
      vertex 92 14 1.5
      vertex 92.84943816497935 10.070595205269186 1.5
      vertex 93.06000762332572 10.142073904691415 1.5
    endloop
  endfacet
  facet normal 0 0 1
    outer loop
      vertex 92 14 1.5
      vertex 93.06000762332572 10.142073904691415 1.5
      vertex 93.2781054732259 10.185456264335471 1.5
    endloop
  endfacet
  facet normal 0 0 1
    outer loop
      vertex 92 14 1.5
      vertex 93.2781054732259 10.185456264335471 1.5
      vertex 93.5 10.200000000000003 1.5
    endloop
  endfacet
  facet normal 0 0 1
    outer loop
      vertex 92 14 1.5
      vertex 93.5 10.200000000000003 1.5
      vertex 93.7218945267741 10.185456264335471 1.5
    endloop
  endfacet
  facet normal 0 0 1
    outer loop
      vertex 92 14 1.5
      vertex 93.7218945267741 10.185456264335471 1.5
      vertex 97.2 11.299999999999997 1.5
    endloop
  endfacet
  facet normal 0 0 1
    outer loop
      vertex 92 14 1.5
      vertex 97.2 11.299999999999997 1.5
      vertex 108.8 11.299999999999997 1.5
    endloop
  endfacet
  facet normal 0 0 -1
    outer loop
      vertex 92 3 0
      vertex 108.8 5.700000000000003 0
      vertex 114 3 0
    endloop
  endfacet
  facet normal 0 -1 0
    outer loop
      vertex 92 3 0
      vertex 114 3 0
      vertex 114 3 1.5
    endloop
  endfacet
  facet normal 0 0 -1
    outer loop
      vertex 114 3 0
      vertex 108.8 5.700000000000003 0
      vertex 111.84943816497935 6.929404794730814 0
    endloop
  endfacet
  facet normal 0 0 -1
    outer loop
      vertex 114 3 0
      vertex 112.06000762332572 6.857926095308585 0
      vertex 112.2781054732259 6.814543735664522 0
    endloop
  endfacet
  facet normal 0 0 -1
    outer loop
      vertex 114 3 0
      vertex 112.2781054732259 6.814543735664522 0
      vertex 112.5 6.799999999999997 0
    endloop
  endfacet
  facet normal 0 0 -1
    outer loop
      vertex 114 3 0
      vertex 111.84943816497935 6.929404794730814 0
      vertex 112.06000762332572 6.857926095308585 0
    endloop
  endfacet
  facet normal 0 0 -1
    outer loop
      vertex 114 3 0
      vertex 112.5 6.799999999999997 0
      vertex 112.7218945267741 6.814543735664522 0
    endloop
  endfacet
  facet normal 0 0 -1
    outer loop
      vertex 114 3 0
      vertex 112.7218945267741 6.814543735664522 0
      vertex 112.93999237667428 6.857926095308585 0
    endloop
  endfacet
  facet normal 0 0 -1
    outer loop
      vertex 114 3 0
      vertex 112.93999237667428 6.857926095308585 0
      vertex 113.15056183502065 6.929404794730814 0
    endloop
  endfacet
  facet normal 0 0 -1
    outer loop
      vertex 114 3 0
      vertex 113.15056183502065 6.929404794730814 0
      vertex 113.35 7.027756813566455 0
    endloop
  endfacet
  facet normal 0 0 -1
    outer loop
      vertex 114 3 0
      vertex 113.35 7.027756813566455 0
      vertex 113.53489442931482 7.151299321504901 0
    endloop
  endfacet
  facet normal 0 0 -1
    outer loop
      vertex 108.8 5.700000000000003 0
      vertex 111.29791847198287 7.297918471982868 0
      vertex 111.46510557068518 7.151299321504901 0
    endloop
  endfacet
  facet normal 0 0 -1
    outer loop
      vertex 108.8 5.700000000000003 0
      vertex 111.02775681356646 7.649999999999999 0
      vertex 111.1512993215049 7.465105570685175 0
    endloop
  endfacet
  facet normal 0 0 -1
    outer loop
      vertex 108.8 5.700000000000003 0
      vertex 111.1512993215049 7.465105570685175 0
      vertex 111.29791847198287 7.297918471982868 0
    endloop
  endfacet
  facet normal 0 0 -1
    outer loop
      vertex 108.8 5.700000000000003 0
      vertex 110.92940479473081 7.849438164979347 0
      vertex 111.02775681356646 7.649999999999999 0
    endloop
  endfacet
  facet normal 0 0 -1
    outer loop
      vertex 108.8 5.700000000000003 0
      vertex 111.65 7.027756813566455 0
      vertex 111.84943816497935 6.929404794730814 0
    endloop
  endfacet
  facet normal 0 0 -1
    outer loop
      vertex 108.8 5.700000000000003 0
      vertex 111.46510557068518 7.151299321504901 0
      vertex 111.65 7.027756813566455 0
    endloop
  endfacet
  facet normal 0 0 -1
    outer loop
      vertex 108.8 5.700000000000003 0
      vertex 110.85792609530858 8.060007623325717 0
      vertex 110.92940479473081 7.849438164979347 0
    endloop
  endfacet
  facet normal 0 0 -1
    outer loop
      vertex 108.8 5.700000000000003 0
      vertex 110.81454373566453 8.278105473225914 0
      vertex 110.85792609530858 8.060007623325717 0
    endloop
  endfacet
  facet normal 0 0 -1
    outer loop
      vertex 108.8 5.700000000000003 0
      vertex 110.8 8.5 0
      vertex 110.81454373566453 8.278105473225914 0
    endloop
  endfacet
  facet normal 0 0 -1
    outer loop
      vertex 108.8 5.700000000000003 0
      vertex 110.81454373566453 8.721894526774086 0
      vertex 110.8 8.5 0
    endloop
  endfacet
  facet normal 0 0 -1
    outer loop
      vertex 114 3 0
      vertex 113.53489442931482 7.151299321504901 0
      vertex 113.70208152801713 7.297918471982868 0
    endloop
  endfacet
  facet normal 0 0 -1
    outer loop
      vertex 114 3 0
      vertex 113.70208152801713 7.297918471982868 0
      vertex 113.8487006784951 7.465105570685175 0
    endloop
  endfacet
  facet normal 0 0 -1
    outer loop
      vertex 114 3 0
      vertex 113.8487006784951 7.465105570685175 0
      vertex 113.97224318643354 7.649999999999999 0
    endloop
  endfacet
  facet normal 0 0 -1
    outer loop
      vertex 114 3 0
      vertex 113.97224318643354 7.649999999999999 0
      vertex 114 7.706285249951186 0
    endloop
  endfacet
  facet normal 1 0 0
    outer loop
      vertex 114 3 0
      vertex 114 7.706285249951186 0
      vertex 114 7.706285249951186 1.5
    endloop
  endfacet
  facet normal 0 0 1
    outer loop
      vertex 114 3 1.5
      vertex 108.8 5.700000000000003 1.5
      vertex 97.2 5.700000000000003 1.5
    endloop
  endfacet
  facet normal 1 0 0
    outer loop
      vertex 114 3 0
      vertex 114 7.706285249951186 1.5
      vertex 114 3 1.5
    endloop
  endfacet
  facet normal 0 0 1
    outer loop
      vertex 114 3 1.5
      vertex 112.2781054732259 6.814543735664522 1.5
      vertex 108.8 5.700000000000003 1.5
    endloop
  endfacet
  facet normal 0 0 1
    outer loop
      vertex 114 3 1.5
      vertex 112.5 6.799999999999997 1.5
      vertex 112.2781054732259 6.814543735664522 1.5
    endloop
  endfacet
  facet normal 0 0 1
    outer loop
      vertex 114 3 1.5
      vertex 112.7218945267741 6.814543735664522 1.5
      vertex 112.5 6.799999999999997 1.5
    endloop
  endfacet
  facet normal 0 0 1
    outer loop
      vertex 114 3 1.5
      vertex 112.93999237667428 6.857926095308585 1.5
      vertex 112.7218945267741 6.814543735664522 1.5
    endloop
  endfacet
  facet normal 0 0 1
    outer loop
      vertex 114 3 1.5
      vertex 113.15056183502065 6.929404794730814 1.5
      vertex 112.93999237667428 6.857926095308585 1.5
    endloop
  endfacet
  facet normal 0 0 1
    outer loop
      vertex 114 3 1.5
      vertex 113.35 7.027756813566455 1.5
      vertex 113.15056183502065 6.929404794730814 1.5
    endloop
  endfacet
  facet normal 0 0 1
    outer loop
      vertex 114 3 1.5
      vertex 113.53489442931482 7.151299321504901 1.5
      vertex 113.35 7.027756813566455 1.5
    endloop
  endfacet
  facet normal 0 0 1
    outer loop
      vertex 108.8 5.700000000000003 1.5
      vertex 111.46510557068518 7.151299321504901 1.5
      vertex 111.29791847198287 7.297918471982868 1.5
    endloop
  endfacet
  facet normal 0 0 1
    outer loop
      vertex 111.02775681356646 7.649999999999999 1.5
      vertex 108.8 5.700000000000003 1.5
      vertex 111.1512993215049 7.465105570685175 1.5
    endloop
  endfacet
  facet normal 0 0 1
    outer loop
      vertex 111.1512993215049 7.465105570685175 1.5
      vertex 108.8 5.700000000000003 1.5
      vertex 111.29791847198287 7.297918471982868 1.5
    endloop
  endfacet
  facet normal 0 0 1
    outer loop
      vertex 110.92940479473081 7.849438164979347 1.5
      vertex 108.8 5.700000000000003 1.5
      vertex 111.02775681356646 7.649999999999999 1.5
    endloop
  endfacet
  facet normal 0 0 1
    outer loop
      vertex 108.8 5.700000000000003 1.5
      vertex 112.06000762332572 6.857926095308585 1.5
      vertex 111.84943816497935 6.929404794730814 1.5
    endloop
  endfacet
  facet normal 0 0 1
    outer loop
      vertex 108.8 5.700000000000003 1.5
      vertex 111.84943816497935 6.929404794730814 1.5
      vertex 111.65 7.027756813566455 1.5
    endloop
  endfacet
  facet normal 0 0 1
    outer loop
      vertex 108.8 5.700000000000003 1.5
      vertex 111.65 7.027756813566455 1.5
      vertex 111.46510557068518 7.151299321504901 1.5
    endloop
  endfacet
  facet normal 0 0 1
    outer loop
      vertex 108.8 5.700000000000003 1.5
      vertex 112.2781054732259 6.814543735664522 1.5
      vertex 112.06000762332572 6.857926095308585 1.5
    endloop
  endfacet
  facet normal 0 0 1
    outer loop
      vertex 110.81454373566453 8.278105473225914 1.5
      vertex 108.8 11.299999999999997 1.5
      vertex 108.8 5.700000000000003 1.5
    endloop
  endfacet
  facet normal 0 0 1
    outer loop
      vertex 110.85792609530858 8.060007623325717 1.5
      vertex 108.8 5.700000000000003 1.5
      vertex 110.92940479473081 7.849438164979347 1.5
    endloop
  endfacet
  facet normal 0 0 1
    outer loop
      vertex 110.81454373566453 8.278105473225914 1.5
      vertex 108.8 5.700000000000003 1.5
      vertex 110.85792609530858 8.060007623325717 1.5
    endloop
  endfacet
  facet normal 0 0 1
    outer loop
      vertex 114 3 1.5
      vertex 113.70208152801713 7.297918471982868 1.5
      vertex 113.53489442931482 7.151299321504901 1.5
    endloop
  endfacet
  facet normal 0 0 1
    outer loop
      vertex 114 3 1.5
      vertex 113.8487006784951 7.465105570685175 1.5
      vertex 113.70208152801713 7.297918471982868 1.5
    endloop
  endfacet
  facet normal 0 0 1
    outer loop
      vertex 114 3 1.5
      vertex 113.97224318643354 7.649999999999999 1.5
      vertex 113.8487006784951 7.465105570685175 1.5
    endloop
  endfacet
  facet normal 0 0 1
    outer loop
      vertex 114 3 1.5
      vertex 114 7.706285249951186 1.5
      vertex 113.97224318643354 7.649999999999999 1.5
    endloop
  endfacet
  facet normal 0 0 -1
    outer loop
      vertex 114 14 0
      vertex 108.8 11.299999999999997 0
      vertex 97.2 11.299999999999997 0
    endloop
  endfacet
  facet normal 0 0 -1
    outer loop
      vertex 108.8 5.700000000000003 0
      vertex 108.8 11.299999999999997 0
      vertex 110.81454373566453 8.721894526774086 0
    endloop
  endfacet
  facet normal 0 0 -1
    outer loop
      vertex 110.81454373566453 8.721894526774086 0
      vertex 108.8 11.299999999999997 0
      vertex 110.85792609530858 8.939992376674283 0
    endloop
  endfacet
  facet normal 0 0 -1
    outer loop
      vertex 110.85792609530858 8.939992376674283 0
      vertex 108.8 11.299999999999997 0
      vertex 110.92940479473081 9.150561835020653 0
    endloop
  endfacet
  facet normal 0 0 -1
    outer loop
      vertex 110.92940479473081 9.150561835020653 0
      vertex 108.8 11.299999999999997 0
      vertex 111.02775681356646 9.349999999999994 0
    endloop
  endfacet
  facet normal 0 0 -1
    outer loop
      vertex 111.02775681356646 9.349999999999994 0
      vertex 108.8 11.299999999999997 0
      vertex 111.1512993215049 9.534894429314818 0
    endloop
  endfacet
  facet normal 0 0 -1
    outer loop
      vertex 111.1512993215049 9.534894429314818 0
      vertex 108.8 11.299999999999997 0
      vertex 111.29791847198287 9.702081528017132 0
    endloop
  endfacet
  facet normal 0 0 -1
    outer loop
      vertex 111.46510557068518 9.848700678495106 0
      vertex 111.29791847198287 9.702081528017132 0
      vertex 108.8 11.299999999999997 0
    endloop
  endfacet
  facet normal 0 0 -1
    outer loop
      vertex 111.65 9.972243186433545 0
      vertex 111.46510557068518 9.848700678495106 0
      vertex 108.8 11.299999999999997 0
    endloop
  endfacet
  facet normal 0 0 -1
    outer loop
      vertex 111.84943816497935 10.070595205269186 0
      vertex 111.65 9.972243186433545 0
      vertex 108.8 11.299999999999997 0
    endloop
  endfacet
  facet normal 0 0 -1
    outer loop
      vertex 112.06000762332572 10.142073904691415 0
      vertex 111.84943816497935 10.070595205269186 0
      vertex 108.8 11.299999999999997 0
    endloop
  endfacet
  facet normal 0 0 -1
    outer loop
      vertex 114 14 0
      vertex 114 9.29371475004882 0
      vertex 113.97224318643354 9.349999999999994 0
    endloop
  endfacet
  facet normal 0 0 -1
    outer loop
      vertex 114 14 0
      vertex 113.97224318643354 9.349999999999994 0
      vertex 113.8487006784951 9.534894429314818 0
    endloop
  endfacet
  facet normal 0 0 -1
    outer loop
      vertex 114 14 0
      vertex 113.70208152801713 9.702081528017132 0
      vertex 113.53489442931482 9.848700678495106 0
    endloop
  endfacet
  facet normal 0 0 -1
    outer loop
      vertex 114 14 0
      vertex 113.8487006784951 9.534894429314818 0
      vertex 113.70208152801713 9.702081528017132 0
    endloop
  endfacet
  facet normal 0 0 -1
    outer loop
      vertex 114 14 0
      vertex 112.06000762332572 10.142073904691415 0
      vertex 108.8 11.299999999999997 0
    endloop
  endfacet
  facet normal 0 0 -1
    outer loop
      vertex 114 14 0
      vertex 112.2781054732259 10.185456264335471 0
      vertex 112.06000762332572 10.142073904691415 0
    endloop
  endfacet
  facet normal 0 0 -1
    outer loop
      vertex 114 14 0
      vertex 112.5 10.200000000000003 0
      vertex 112.2781054732259 10.185456264335471 0
    endloop
  endfacet
  facet normal 0 0 -1
    outer loop
      vertex 114 14 0
      vertex 112.7218945267741 10.185456264335471 0
      vertex 112.5 10.200000000000003 0
    endloop
  endfacet
  facet normal 0 0 -1
    outer loop
      vertex 114 14 0
      vertex 112.93999237667428 10.142073904691415 0
      vertex 112.7218945267741 10.185456264335471 0
    endloop
  endfacet
  facet normal 0 0 -1
    outer loop
      vertex 114 14 0
      vertex 113.15056183502065 10.070595205269186 0
      vertex 112.93999237667428 10.142073904691415 0
    endloop
  endfacet
  facet normal 0 0 -1
    outer loop
      vertex 114 14 0
      vertex 113.53489442931482 9.848700678495106 0
      vertex 113.35 9.972243186433545 0
    endloop
  endfacet
  facet normal 0 0 -1
    outer loop
      vertex 114 14 0
      vertex 113.35 9.972243186433545 0
      vertex 113.15056183502065 10.070595205269186 0
    endloop
  endfacet
  facet normal 1 0 0
    outer loop
      vertex 114 14 0
      vertex 114 14 1.5
      vertex 114 9.29371475004882 0
    endloop
  endfacet
  facet normal 0 1 0
    outer loop
      vertex 92 14 1.5
      vertex 114 14 1.5
      vertex 114 14 0
    endloop
  endfacet
  facet normal 0 0 1
    outer loop
      vertex 92 14 1.5
      vertex 108.8 11.299999999999997 1.5
      vertex 114 14 1.5
    endloop
  endfacet
  facet normal 1 0 0
    outer loop
      vertex 114 14 1.5
      vertex 114 9.29371475004882 1.5
      vertex 114 9.29371475004882 0
    endloop
  endfacet
  facet normal 0 0 1
    outer loop
      vertex 110.8 8.5 1.5
      vertex 108.8 11.299999999999997 1.5
      vertex 110.81454373566453 8.278105473225914 1.5
    endloop
  endfacet
  facet normal 0 0 1
    outer loop
      vertex 110.81454373566453 8.721894526774086 1.5
      vertex 108.8 11.299999999999997 1.5
      vertex 110.8 8.5 1.5
    endloop
  endfacet
  facet normal 0 0 1
    outer loop
      vertex 110.85792609530858 8.939992376674283 1.5
      vertex 108.8 11.299999999999997 1.5
      vertex 110.81454373566453 8.721894526774086 1.5
    endloop
  endfacet
  facet normal 0 0 1
    outer loop
      vertex 110.92940479473081 9.150561835020653 1.5
      vertex 108.8 11.299999999999997 1.5
      vertex 110.85792609530858 8.939992376674283 1.5
    endloop
  endfacet
  facet normal 0 0 1
    outer loop
      vertex 111.02775681356646 9.349999999999994 1.5
      vertex 108.8 11.299999999999997 1.5
      vertex 110.92940479473081 9.150561835020653 1.5
    endloop
  endfacet
  facet normal 0 0 1
    outer loop
      vertex 111.1512993215049 9.534894429314818 1.5
      vertex 108.8 11.299999999999997 1.5
      vertex 111.02775681356646 9.349999999999994 1.5
    endloop
  endfacet
  facet normal 0 0 1
    outer loop
      vertex 111.29791847198287 9.702081528017132 1.5
      vertex 108.8 11.299999999999997 1.5
      vertex 111.1512993215049 9.534894429314818 1.5
    endloop
  endfacet
  facet normal 0 0 1
    outer loop
      vertex 111.29791847198287 9.702081528017132 1.5
      vertex 111.46510557068518 9.848700678495106 1.5
      vertex 108.8 11.299999999999997 1.5
    endloop
  endfacet
  facet normal 0 0 1
    outer loop
      vertex 111.46510557068518 9.848700678495106 1.5
      vertex 111.65 9.972243186433545 1.5
      vertex 108.8 11.299999999999997 1.5
    endloop
  endfacet
  facet normal 0 0 1
    outer loop
      vertex 111.65 9.972243186433545 1.5
      vertex 111.84943816497935 10.070595205269186 1.5
      vertex 108.8 11.299999999999997 1.5
    endloop
  endfacet
  facet normal 0 0 1
    outer loop
      vertex 114 14 1.5
      vertex 113.97224318643354 9.349999999999994 1.5
      vertex 114 9.29371475004882 1.5
    endloop
  endfacet
  facet normal 0 0 1
    outer loop
      vertex 114 14 1.5
      vertex 113.8487006784951 9.534894429314818 1.5
      vertex 113.97224318643354 9.349999999999994 1.5
    endloop
  endfacet
  facet normal 0 0 1
    outer loop
      vertex 114 14 1.5
      vertex 113.53489442931482 9.848700678495106 1.5
      vertex 113.70208152801713 9.702081528017132 1.5
    endloop
  endfacet
  facet normal 0 0 1
    outer loop
      vertex 114 14 1.5
      vertex 113.70208152801713 9.702081528017132 1.5
      vertex 113.8487006784951 9.534894429314818 1.5
    endloop
  endfacet
  facet normal 0 0 1
    outer loop
      vertex 114 14 1.5
      vertex 108.8 11.299999999999997 1.5
      vertex 111.84943816497935 10.070595205269186 1.5
    endloop
  endfacet
  facet normal 0 0 1
    outer loop
      vertex 114 14 1.5
      vertex 111.84943816497935 10.070595205269186 1.5
      vertex 112.06000762332572 10.142073904691415 1.5
    endloop
  endfacet
  facet normal 0 0 1
    outer loop
      vertex 114 14 1.5
      vertex 112.06000762332572 10.142073904691415 1.5
      vertex 112.2781054732259 10.185456264335471 1.5
    endloop
  endfacet
  facet normal 0 0 1
    outer loop
      vertex 114 14 1.5
      vertex 112.2781054732259 10.185456264335471 1.5
      vertex 112.5 10.200000000000003 1.5
    endloop
  endfacet
  facet normal 0 0 1
    outer loop
      vertex 114 14 1.5
      vertex 112.5 10.200000000000003 1.5
      vertex 112.7218945267741 10.185456264335471 1.5
    endloop
  endfacet
  facet normal 0 0 1
    outer loop
      vertex 114 14 1.5
      vertex 112.7218945267741 10.185456264335471 1.5
      vertex 112.93999237667428 10.142073904691415 1.5
    endloop
  endfacet
  facet normal 0 0 1
    outer loop
      vertex 114 14 1.5
      vertex 112.93999237667428 10.142073904691415 1.5
      vertex 113.15056183502065 10.070595205269186 1.5
    endloop
  endfacet
  facet normal 0 0 1
    outer loop
      vertex 114 14 1.5
      vertex 113.35 9.972243186433545 1.5
      vertex 113.53489442931482 9.848700678495106 1.5
    endloop
  endfacet
  facet normal 0 0 1
    outer loop
      vertex 114 14 1.5
      vertex 113.15056183502065 10.070595205269186 1.5
      vertex 113.35 9.972243186433545 1.5
    endloop
  endfacet
endsolid OpenSCAD_Model
