solid OpenSCAD_Model
  facet normal 0.7518398074789697 0.6593458151000777 0
    outer loop
      vertex 75.04797599165052 -27.730513714810463 2
      vertex 75.15147186257614 -27.848528137423855 0
      vertex 75.04797599165052 -27.730513714810463 0
    endloop
  endfacet
  facet normal 0.8968727415326709 0.44228869021903655 0
    outer loop
      vertex 74.89134456098645 -27.459220118838108 2
      vertex 74.96076951545868 -27.6 0
      vertex 74.89134456098645 -27.459220118838108 0
    endloop
  endfacet
  facet normal 0.8314696123025578 0.5555702330195834 0
    outer loop
      vertex 74.96076951545868 -27.6 2
      vertex 75.04797599165052 -27.730513714810463 0
      vertex 74.96076951545868 -27.6 0
    endloop
  endfacet
  facet normal 0.9469301294951082 0.3214394653031542 0
    outer loop
      vertex 74.84088900845312 -27.310582854123027 2
      vertex 74.89134456098645 -27.459220118838108 0
      vertex 74.84088900845312 -27.310582854123027 0
    endloop
  endfacet
  facet normal 0.9807852804032281 0.19509032201614018 0
    outer loop
      vertex 74.81026616635143 -27.156631430664063 2
      vertex 74.84088900845312 -27.310582854123027 0
      vertex 74.81026616635143 -27.156631430664063 0
    endloop
  endfacet
  facet normal 0.9978589232386033 0.06540312923014742 0
    outer loop
      vertex 74.8 -27 2
      vertex 74.81026616635143 -27.156631430664063 0
      vertex 74.8 -27 0
    endloop
  endfacet
  facet normal 0.442288690218991 0.8968727415326935 0
    outer loop
      vertex 75.4 -28.039230484541328 2
      vertex 75.5407798811619 -28.108655439013543 0
      vertex 75.4 -28.039230484541328 0
    endloop
  endfacet
  facet normal 0.3214394653031814 0.9469301294950989 0
    outer loop
      vertex 75.5407798811619 -28.108655439013543 2
      vertex 75.68941714587697 -28.159110991546882 0
      vertex 75.5407798811619 -28.108655439013543 0
    endloop
  endfacet
  facet normal 0.1950903220161184 0.9807852804032324 0
    outer loop
      vertex 75.68941714587697 -28.159110991546882 2
      vertex 75.84336856933594 -28.18973383364857 0
      vertex 75.68941714587697 -28.159110991546882 0
    endloop
  endfacet
  facet normal 0.06540312923014742 0.9978589232386033 0
    outer loop
      vertex 75.84336856933594 -28.18973383364857 2
      vertex 76 -28.2 0
      vertex 75.84336856933594 -28.18973383364857 0
    endloop
  endfacet
  facet normal -0.06540312923014742 0.9978589232386033 0
    outer loop
      vertex 76 -28.2 2
      vertex 76.15663143066406 -28.18973383364857 0
      vertex 76 -28.2 0
    endloop
  endfacet
  facet normal -0.1950903220161184 0.9807852804032324 0
    outer loop
      vertex 76.15663143066406 -28.18973383364857 2
      vertex 76.31058285412303 -28.159110991546882 0
      vertex 76.15663143066406 -28.18973383364857 0
    endloop
  endfacet
  facet normal -0.3214394653031814 0.9469301294950989 0
    outer loop
      vertex 76.31058285412303 -28.159110991546882 2
      vertex 76.4592201188381 -28.108655439013543 0
      vertex 76.31058285412303 -28.159110991546882 0
    endloop
  endfacet
  facet normal 0.6593458151001 0.75183980747895 0
    outer loop
      vertex 75.15147186257614 -27.848528137423855 2
      vertex 75.26948628518953 -27.952024008349483 0
      vertex 75.15147186257614 -27.848528137423855 0
    endloop
  endfacet
  facet normal 0.5555702330195729 0.8314696123025648 0
    outer loop
      vertex 75.26948628518953 -27.952024008349483 2
      vertex 75.4 -28.039230484541328 0
      vertex 75.26948628518953 -27.952024008349483 0
    endloop
  endfacet
  facet normal -0.442288690218991 0.8968727415326935 0
    outer loop
      vertex 76.4592201188381 -28.108655439013543 2
      vertex 76.6 -28.039230484541328 0
      vertex 76.4592201188381 -28.108655439013543 0
    endloop
  endfacet
  facet normal -0.5555702330195729 0.8314696123025648 0
    outer loop
      vertex 76.6 -28.039230484541328 2
      vertex 76.73051371481047 -27.952024008349483 0
      vertex 76.6 -28.039230484541328 0
    endloop
  endfacet
  facet normal -0.6593458151001 0.75183980747895 0
    outer loop
      vertex 76.73051371481047 -27.952024008349483 2
      vertex 76.84852813742386 -27.848528137423855 0
      vertex 76.73051371481047 -27.952024008349483 0
    endloop
  endfacet
  facet normal -0.7518398074789697 0.6593458151000777 0
    outer loop
      vertex 76.84852813742386 -27.848528137423855 0
      vertex 76.84852813742386 -27.848528137423855 2
      vertex 76.95202400834948 -27.730513714810463 0
    endloop
  endfacet
  facet normal -0.8314696123025578 0.5555702330195834 0
    outer loop
      vertex 76.95202400834948 -27.730513714810463 2
      vertex 77.03923048454132 -27.6 0
      vertex 76.95202400834948 -27.730513714810463 0
    endloop
  endfacet
  facet normal -0.8968727415326709 0.44228869021903655 0
    outer loop
      vertex 77.03923048454132 -27.6 2
      vertex 77.10865543901355 -27.459220118838108 0
      vertex 77.03923048454132 -27.6 0
    endloop
  endfacet
  facet normal -0.9469301294951082 0.3214394653031542 0
    outer loop
      vertex 77.10865543901355 -27.459220118838108 2
      vertex 77.15911099154688 -27.310582854123027 0
      vertex 77.10865543901355 -27.459220118838108 0
    endloop
  endfacet
  facet normal -0.9807852804032281 0.19509032201614018 0
    outer loop
      vertex 77.15911099154688 -27.310582854123027 2
      vertex 77.18973383364857 -27.156631430664063 0
      vertex 77.15911099154688 -27.310582854123027 0
    endloop
  endfacet
  facet normal -0.9978589232386033 0.06540312923014742 0
    outer loop
      vertex 77.18973383364857 -27.156631430664063 2
      vertex 77.2 -27 0
      vertex 77.18973383364857 -27.156631430664063 0
    endloop
  endfacet
  facet normal 0.7518398074789697 0.6593458151000777 0
    outer loop
      vertex 75.04797599165052 -27.730513714810463 2
      vertex 75.15147186257614 -27.848528137423855 2
      vertex 75.15147186257614 -27.848528137423855 0
    endloop
  endfacet
  facet normal 0.8968727415326709 0.44228869021903655 0
    outer loop
      vertex 74.89134456098645 -27.459220118838108 2
      vertex 74.96076951545868 -27.6 2
      vertex 74.96076951545868 -27.6 0
    endloop
  endfacet
  facet normal 0.8314696123025578 0.5555702330195834 0
    outer loop
      vertex 74.96076951545868 -27.6 2
      vertex 75.04797599165052 -27.730513714810463 2
      vertex 75.04797599165052 -27.730513714810463 0
    endloop
  endfacet
  facet normal 0.9469301294951082 0.3214394653031542 0
    outer loop
      vertex 74.84088900845312 -27.310582854123027 2
      vertex 74.89134456098645 -27.459220118838108 2
      vertex 74.89134456098645 -27.459220118838108 0
    endloop
  endfacet
  facet normal 0.9807852804032281 0.19509032201614018 0
    outer loop
      vertex 74.81026616635143 -27.156631430664063 2
      vertex 74.84088900845312 -27.310582854123027 2
      vertex 74.84088900845312 -27.310582854123027 0
    endloop
  endfacet
  facet normal 0.9978589232386033 0.06540312923014742 0
    outer loop
      vertex 74.8 -27 2
      vertex 74.81026616635143 -27.156631430664063 2
      vertex 74.81026616635143 -27.156631430664063 0
    endloop
  endfacet
  facet normal 0.5555702330195729 0.8314696123025648 0
    outer loop
      vertex 75.4 -28.039230484541328 2
      vertex 75.4 -28.039230484541328 0
      vertex 75.26948628518953 -27.952024008349483 2
    endloop
  endfacet
  facet normal 0.442288690218991 0.8968727415326935 0
    outer loop
      vertex 75.5407798811619 -28.108655439013543 2
      vertex 75.5407798811619 -28.108655439013543 0
      vertex 75.4 -28.039230484541328 2
    endloop
  endfacet
  facet normal 0.3214394653031814 0.9469301294950989 0
    outer loop
      vertex 75.68941714587697 -28.159110991546882 2
      vertex 75.68941714587697 -28.159110991546882 0
      vertex 75.5407798811619 -28.108655439013543 2
    endloop
  endfacet
  facet normal 0.1950903220161184 0.9807852804032324 0
    outer loop
      vertex 75.84336856933594 -28.18973383364857 2
      vertex 75.84336856933594 -28.18973383364857 0
      vertex 75.68941714587697 -28.159110991546882 2
    endloop
  endfacet
  facet normal 0.06540312923014742 0.9978589232386033 0
    outer loop
      vertex 76 -28.2 2
      vertex 76 -28.2 0
      vertex 75.84336856933594 -28.18973383364857 2
    endloop
  endfacet
  facet normal -0.06540312923014742 0.9978589232386033 0
    outer loop
      vertex 76.15663143066406 -28.18973383364857 2
      vertex 76.15663143066406 -28.18973383364857 0
      vertex 76 -28.2 2
    endloop
  endfacet
  facet normal -0.1950903220161184 0.9807852804032324 0
    outer loop
      vertex 76.31058285412303 -28.159110991546882 2
      vertex 76.31058285412303 -28.159110991546882 0
      vertex 76.15663143066406 -28.18973383364857 2
    endloop
  endfacet
  facet normal -0.3214394653031814 0.9469301294950989 0
    outer loop
      vertex 76.4592201188381 -28.108655439013543 2
      vertex 76.4592201188381 -28.108655439013543 0
      vertex 76.31058285412303 -28.159110991546882 2
    endloop
  endfacet
  facet normal 0.6593458151001 0.75183980747895 0
    outer loop
      vertex 75.26948628518953 -27.952024008349483 2
      vertex 75.26948628518953 -27.952024008349483 0
      vertex 75.15147186257614 -27.848528137423855 2
    endloop
  endfacet
  facet normal -0.442288690218991 0.8968727415326935 0
    outer loop
      vertex 76.6 -28.039230484541328 2
      vertex 76.6 -28.039230484541328 0
      vertex 76.4592201188381 -28.108655439013543 2
    endloop
  endfacet
  facet normal -0.5555702330195729 0.8314696123025648 0
    outer loop
      vertex 76.73051371481047 -27.952024008349483 2
      vertex 76.73051371481047 -27.952024008349483 0
      vertex 76.6 -28.039230484541328 2
    endloop
  endfacet
  facet normal -0.6593458151001 0.75183980747895 0
    outer loop
      vertex 76.84852813742386 -27.848528137423855 2
      vertex 76.84852813742386 -27.848528137423855 0
      vertex 76.73051371481047 -27.952024008349483 2
    endloop
  endfacet
  facet normal -0.7518398074789697 0.6593458151000777 0
    outer loop
      vertex 76.84852813742386 -27.848528137423855 2
      vertex 76.95202400834948 -27.730513714810463 2
      vertex 76.95202400834948 -27.730513714810463 0
    endloop
  endfacet
  facet normal -0.8314696123025578 0.5555702330195834 0
    outer loop
      vertex 76.95202400834948 -27.730513714810463 2
      vertex 77.03923048454132 -27.6 2
      vertex 77.03923048454132 -27.6 0
    endloop
  endfacet
  facet normal -0.8968727415326709 0.44228869021903655 0
    outer loop
      vertex 77.03923048454132 -27.6 2
      vertex 77.10865543901355 -27.459220118838108 2
      vertex 77.10865543901355 -27.459220118838108 0
    endloop
  endfacet
  facet normal -0.9469301294951082 0.3214394653031542 0
    outer loop
      vertex 77.10865543901355 -27.459220118838108 2
      vertex 77.15911099154688 -27.310582854123027 2
      vertex 77.15911099154688 -27.310582854123027 0
    endloop
  endfacet
  facet normal -0.9807852804032281 0.19509032201614018 0
    outer loop
      vertex 77.15911099154688 -27.310582854123027 2
      vertex 77.18973383364857 -27.156631430664063 2
      vertex 77.18973383364857 -27.156631430664063 0
    endloop
  endfacet
  facet normal -0.9978589232386033 0.06540312923014742 0
    outer loop
      vertex 77.18973383364857 -27.156631430664063 2
      vertex 77.2 -27 2
      vertex 77.2 -27 0
    endloop
  endfacet
  facet normal 0.9978589232386033 -0.06540312923014742 0
    outer loop
      vertex 74.81026616635143 -26.843368569335937 2
      vertex 74.8 -27 0
      vertex 74.81026616635143 -26.843368569335937 0
    endloop
  endfacet
  facet normal 0.9807852804032281 -0.19509032201614018 0
    outer loop
      vertex 74.84088900845312 -26.689417145876973 2
      vertex 74.81026616635143 -26.843368569335937 0
      vertex 74.84088900845312 -26.689417145876973 0
    endloop
  endfacet
  facet normal 0.9469301294951082 -0.3214394653031542 0
    outer loop
      vertex 74.89134456098645 -26.540779881161892 2
      vertex 74.84088900845312 -26.689417145876973 0
      vertex 74.89134456098645 -26.540779881161892 0
    endloop
  endfacet
  facet normal 0.8968727415326709 -0.44228869021903655 0
    outer loop
      vertex 74.96076951545868 -26.4 2
      vertex 74.89134456098645 -26.540779881161892 0
      vertex 74.96076951545868 -26.4 0
    endloop
  endfacet
  facet normal 0.8314696123025578 -0.5555702330195834 0
    outer loop
      vertex 75.04797599165052 -26.269486285189537 2
      vertex 74.96076951545868 -26.4 0
      vertex 75.04797599165052 -26.269486285189537 0
    endloop
  endfacet
  facet normal 0.7518398074789697 -0.6593458151000777 0
    outer loop
      vertex 75.15147186257614 -26.151471862576145 2
      vertex 75.04797599165052 -26.269486285189537 0
      vertex 75.15147186257614 -26.151471862576145 0
    endloop
  endfacet
  facet normal 0.6593458151001 -0.75183980747895 0
    outer loop
      vertex 75.26948628518953 -26.047975991650517 2
      vertex 75.15147186257614 -26.151471862576145 0
      vertex 75.26948628518953 -26.047975991650517 0
    endloop
  endfacet
  facet normal 0.5555702330195729 -0.8314696123025648 0
    outer loop
      vertex 75.4 -25.960769515458672 2
      vertex 75.26948628518953 -26.047975991650517 0
      vertex 75.4 -25.960769515458672 0
    endloop
  endfacet
  facet normal 0.442288690218991 -0.8968727415326935 0
    outer loop
      vertex 75.5407798811619 -25.891344560986457 2
      vertex 75.4 -25.960769515458672 0
      vertex 75.5407798811619 -25.891344560986457 0
    endloop
  endfacet
  facet normal 0.3214394653031814 -0.9469301294950989 0
    outer loop
      vertex 75.68941714587697 -25.840889008453118 2
      vertex 75.5407798811619 -25.891344560986457 0
      vertex 75.68941714587697 -25.840889008453118 0
    endloop
  endfacet
  facet normal 0.1950903220161184 -0.9807852804032324 0
    outer loop
      vertex 75.84336856933594 -25.81026616635143 2
      vertex 75.68941714587697 -25.840889008453118 0
      vertex 75.84336856933594 -25.81026616635143 0
    endloop
  endfacet
  facet normal 0.06540312923014742 -0.9978589232386033 0
    outer loop
      vertex 76 -25.8 2
      vertex 75.84336856933594 -25.81026616635143 0
      vertex 76 -25.8 0
    endloop
  endfacet
  facet normal -0.06540312923014742 -0.9978589232386033 0
    outer loop
      vertex 76.15663143066406 -25.81026616635143 2
      vertex 76 -25.8 0
      vertex 76.15663143066406 -25.81026616635143 0
    endloop
  endfacet
  facet normal -0.1950903220161184 -0.9807852804032324 0
    outer loop
      vertex 76.31058285412303 -25.840889008453118 2
      vertex 76.15663143066406 -25.81026616635143 0
      vertex 76.31058285412303 -25.840889008453118 0
    endloop
  endfacet
  facet normal -0.3214394653031814 -0.9469301294950989 0
    outer loop
      vertex 76.4592201188381 -25.891344560986457 2
      vertex 76.31058285412303 -25.840889008453118 0
      vertex 76.4592201188381 -25.891344560986457 0
    endloop
  endfacet
  facet normal -0.9469301294951082 -0.3214394653031542 0
    outer loop
      vertex 77.15911099154688 -26.689417145876973 2
      vertex 77.10865543901355 -26.540779881161892 0
      vertex 77.15911099154688 -26.689417145876973 0
    endloop
  endfacet
  facet normal -0.5555702330195729 -0.8314696123025648 0
    outer loop
      vertex 76.73051371481047 -26.047975991650517 2
      vertex 76.6 -25.960769515458672 0
      vertex 76.73051371481047 -26.047975991650517 0
    endloop
  endfacet
  facet normal -0.6593458151001 -0.75183980747895 0
    outer loop
      vertex 76.84852813742386 -26.151471862576145 2
      vertex 76.73051371481047 -26.047975991650517 0
      vertex 76.84852813742386 -26.151471862576145 0
    endloop
  endfacet
  facet normal -0.8968727415326709 -0.44228869021903655 0
    outer loop
      vertex 77.10865543901355 -26.540779881161892 2
      vertex 77.03923048454132 -26.4 0
      vertex 77.10865543901355 -26.540779881161892 0
    endloop
  endfacet
  facet normal -0.8314696123025578 -0.5555702330195834 0
    outer loop
      vertex 77.03923048454132 -26.4 2
      vertex 76.95202400834948 -26.269486285189537 0
      vertex 77.03923048454132 -26.4 0
    endloop
  endfacet
  facet normal -0.7518398074789697 -0.6593458151000777 0
    outer loop
      vertex 76.95202400834948 -26.269486285189537 2
      vertex 76.84852813742386 -26.151471862576145 0
      vertex 76.95202400834948 -26.269486285189537 0
    endloop
  endfacet
  facet normal -0.9978589232386033 -0.06540312923014742 0
    outer loop
      vertex 77.2 -27 2
      vertex 77.18973383364857 -26.843368569335937 0
      vertex 77.2 -27 0
    endloop
  endfacet
  facet normal -0.9807852804032281 -0.19509032201614018 0
    outer loop
      vertex 77.18973383364857 -26.843368569335937 2
      vertex 77.15911099154688 -26.689417145876973 0
      vertex 77.18973383364857 -26.843368569335937 0
    endloop
  endfacet
  facet normal -0.442288690218991 -0.8968727415326935 0
    outer loop
      vertex 76.6 -25.960769515458672 2
      vertex 76.4592201188381 -25.891344560986457 0
      vertex 76.6 -25.960769515458672 0
    endloop
  endfacet
  facet normal 0.9978589232386033 -0.06540312923014742 0
    outer loop
      vertex 74.81026616635143 -26.843368569335937 2
      vertex 74.8 -27 2
      vertex 74.8 -27 0
    endloop
  endfacet
  facet normal 0.9807852804032281 -0.19509032201614018 0
    outer loop
      vertex 74.84088900845312 -26.689417145876973 2
      vertex 74.81026616635143 -26.843368569335937 2
      vertex 74.81026616635143 -26.843368569335937 0
    endloop
  endfacet
  facet normal 0.9469301294951082 -0.3214394653031542 0
    outer loop
      vertex 74.89134456098645 -26.540779881161892 2
      vertex 74.84088900845312 -26.689417145876973 2
      vertex 74.84088900845312 -26.689417145876973 0
    endloop
  endfacet
  facet normal 0.8968727415326709 -0.44228869021903655 0
    outer loop
      vertex 74.96076951545868 -26.4 2
      vertex 74.89134456098645 -26.540779881161892 2
      vertex 74.89134456098645 -26.540779881161892 0
    endloop
  endfacet
  facet normal 0.8314696123025578 -0.5555702330195834 0
    outer loop
      vertex 75.04797599165052 -26.269486285189537 2
      vertex 74.96076951545868 -26.4 2
      vertex 74.96076951545868 -26.4 0
    endloop
  endfacet
  facet normal 0.7518398074789697 -0.6593458151000777 0
    outer loop
      vertex 75.15147186257614 -26.151471862576145 2
      vertex 75.04797599165052 -26.269486285189537 2
      vertex 75.04797599165052 -26.269486285189537 0
    endloop
  endfacet
  facet normal 0.6593458151001 -0.75183980747895 0
    outer loop
      vertex 75.15147186257614 -26.151471862576145 2
      vertex 75.15147186257614 -26.151471862576145 0
      vertex 75.26948628518953 -26.047975991650517 2
    endloop
  endfacet
  facet normal 0.5555702330195729 -0.8314696123025648 0
    outer loop
      vertex 75.26948628518953 -26.047975991650517 2
      vertex 75.26948628518953 -26.047975991650517 0
      vertex 75.4 -25.960769515458672 2
    endloop
  endfacet
  facet normal 0.442288690218991 -0.8968727415326935 0
    outer loop
      vertex 75.4 -25.960769515458672 2
      vertex 75.4 -25.960769515458672 0
      vertex 75.5407798811619 -25.891344560986457 2
    endloop
  endfacet
  facet normal 0.3214394653031814 -0.9469301294950989 0
    outer loop
      vertex 75.5407798811619 -25.891344560986457 2
      vertex 75.5407798811619 -25.891344560986457 0
      vertex 75.68941714587697 -25.840889008453118 2
    endloop
  endfacet
  facet normal 0.1950903220161184 -0.9807852804032324 0
    outer loop
      vertex 75.68941714587697 -25.840889008453118 2
      vertex 75.68941714587697 -25.840889008453118 0
      vertex 75.84336856933594 -25.81026616635143 2
    endloop
  endfacet
  facet normal 0.06540312923014742 -0.9978589232386033 0
    outer loop
      vertex 75.84336856933594 -25.81026616635143 2
      vertex 75.84336856933594 -25.81026616635143 0
      vertex 76 -25.8 2
    endloop
  endfacet
  facet normal -0.06540312923014742 -0.9978589232386033 0
    outer loop
      vertex 76 -25.8 2
      vertex 76 -25.8 0
      vertex 76.15663143066406 -25.81026616635143 2
    endloop
  endfacet
  facet normal -0.1950903220161184 -0.9807852804032324 0
    outer loop
      vertex 76.15663143066406 -25.81026616635143 2
      vertex 76.15663143066406 -25.81026616635143 0
      vertex 76.31058285412303 -25.840889008453118 2
    endloop
  endfacet
  facet normal -0.3214394653031814 -0.9469301294950989 0
    outer loop
      vertex 76.31058285412303 -25.840889008453118 2
      vertex 76.31058285412303 -25.840889008453118 0
      vertex 76.4592201188381 -25.891344560986457 2
    endloop
  endfacet
  facet normal -0.9469301294951082 -0.3214394653031542 0
    outer loop
      vertex 77.15911099154688 -26.689417145876973 2
      vertex 77.10865543901355 -26.540779881161892 2
      vertex 77.10865543901355 -26.540779881161892 0
    endloop
  endfacet
  facet normal -0.6593458151001 -0.75183980747895 0
    outer loop
      vertex 76.73051371481047 -26.047975991650517 2
      vertex 76.73051371481047 -26.047975991650517 0
      vertex 76.84852813742386 -26.151471862576145 2
    endloop
  endfacet
  facet normal -0.8968727415326709 -0.44228869021903655 0
    outer loop
      vertex 77.10865543901355 -26.540779881161892 2
      vertex 77.03923048454132 -26.4 2
      vertex 77.03923048454132 -26.4 0
    endloop
  endfacet
  facet normal -0.8314696123025578 -0.5555702330195834 0
    outer loop
      vertex 77.03923048454132 -26.4 2
      vertex 76.95202400834948 -26.269486285189537 2
      vertex 76.95202400834948 -26.269486285189537 0
    endloop
  endfacet
  facet normal -0.7518398074789697 -0.6593458151000777 0
    outer loop
      vertex 76.95202400834948 -26.269486285189537 2
      vertex 76.84852813742386 -26.151471862576145 2
      vertex 76.84852813742386 -26.151471862576145 0
    endloop
  endfacet
  facet normal -0.9978589232386033 -0.06540312923014742 0
    outer loop
      vertex 77.2 -27 2
      vertex 77.18973383364857 -26.843368569335937 2
      vertex 77.18973383364857 -26.843368569335937 0
    endloop
  endfacet
  facet normal -0.9807852804032281 -0.19509032201614018 0
    outer loop
      vertex 77.18973383364857 -26.843368569335937 2
      vertex 77.15911099154688 -26.689417145876973 2
      vertex 77.15911099154688 -26.689417145876973 0
    endloop
  endfacet
  facet normal -0.442288690218991 -0.8968727415326935 0
    outer loop
      vertex 76.4592201188381 -25.891344560986457 2
      vertex 76.4592201188381 -25.891344560986457 0
      vertex 76.6 -25.960769515458672 2
    endloop
  endfacet
  facet normal -0.5555702330195729 -0.8314696123025648 0
    outer loop
      vertex 76.6 -25.960769515458672 2
      vertex 76.6 -25.960769515458672 0
      vertex 76.73051371481047 -26.047975991650517 2
    endloop
  endfacet
  facet normal 0.442288690218991 0.8968727415326935 0
    outer loop
      vertex 92.4 -28.039230484541328 0
      vertex 92.4 -28.039230484541328 2
      vertex 92.5407798811619 -28.108655439013543 0
    endloop
  endfacet
  facet normal 0.9807852804032281 0.19509032201614018 0
    outer loop
      vertex 91.84088900845312 -27.310582854123027 0
      vertex 91.81026616635143 -27.156631430664063 0
      vertex 91.81026616635143 -27.156631430664063 2
    endloop
  endfacet
  facet normal 0.9978589232386033 0.06540312923014742 0
    outer loop
      vertex 91.81026616635143 -27.156631430664063 0
      vertex 91.8 -27 0
      vertex 91.8 -27 2
    endloop
  endfacet
  facet normal 0.7518398074789697 0.6593458151000777 0
    outer loop
      vertex 92.15147186257614 -27.848528137423855 0
      vertex 92.04797599165052 -27.730513714810463 0
      vertex 92.04797599165052 -27.730513714810463 2
    endloop
  endfacet
  facet normal 0.8314696123025578 0.5555702330195834 0
    outer loop
      vertex 92.04797599165052 -27.730513714810463 0
      vertex 91.96076951545868 -27.6 0
      vertex 91.96076951545868 -27.6 2
    endloop
  endfacet
  facet normal 0.8968727415326709 0.44228869021903655 0
    outer loop
      vertex 91.96076951545868 -27.6 0
      vertex 91.89134456098645 -27.459220118838108 0
      vertex 91.89134456098645 -27.459220118838108 2
    endloop
  endfacet
  facet normal 0.6593458151001 0.75183980747895 0
    outer loop
      vertex 92.15147186257614 -27.848528137423855 0
      vertex 92.15147186257614 -27.848528137423855 2
      vertex 92.26948628518953 -27.952024008349483 0
    endloop
  endfacet
  facet normal 0.5555702330195729 0.8314696123025648 0
    outer loop
      vertex 92.26948628518953 -27.952024008349483 0
      vertex 92.26948628518953 -27.952024008349483 2
      vertex 92.4 -28.039230484541328 0
    endloop
  endfacet
  facet normal 0.9469301294951082 0.3214394653031542 0
    outer loop
      vertex 91.89134456098645 -27.459220118838108 0
      vertex 91.84088900845312 -27.310582854123027 0
      vertex 91.84088900845312 -27.310582854123027 2
    endloop
  endfacet
  facet normal 0.3214394653031814 0.9469301294950989 0
    outer loop
      vertex 92.5407798811619 -28.108655439013543 0
      vertex 92.5407798811619 -28.108655439013543 2
      vertex 92.68941714587697 -28.159110991546882 0
    endloop
  endfacet
  facet normal 0.1950903220161184 0.9807852804032324 0
    outer loop
      vertex 92.68941714587697 -28.159110991546882 0
      vertex 92.68941714587697 -28.159110991546882 2
      vertex 92.84336856933594 -28.18973383364857 0
    endloop
  endfacet
  facet normal 0.06540312923014742 0.9978589232386033 0
    outer loop
      vertex 92.84336856933594 -28.18973383364857 0
      vertex 92.84336856933594 -28.18973383364857 2
      vertex 93 -28.2 0
    endloop
  endfacet
  facet normal -0.06540312923014742 0.9978589232386033 0
    outer loop
      vertex 93 -28.2 0
      vertex 93 -28.2 2
      vertex 93.15663143066406 -28.18973383364857 0
    endloop
  endfacet
  facet normal -0.1950903220161184 0.9807852804032324 0
    outer loop
      vertex 93.15663143066406 -28.18973383364857 0
      vertex 93.15663143066406 -28.18973383364857 2
      vertex 93.31058285412303 -28.159110991546882 0
    endloop
  endfacet
  facet normal -0.3214394653031814 0.9469301294950989 0
    outer loop
      vertex 93.31058285412303 -28.159110991546882 0
      vertex 93.31058285412303 -28.159110991546882 2
      vertex 93.4592201188381 -28.108655439013543 0
    endloop
  endfacet
  facet normal -0.442288690218991 0.8968727415326935 0
    outer loop
      vertex 93.4592201188381 -28.108655439013543 0
      vertex 93.4592201188381 -28.108655439013543 2
      vertex 93.6 -28.039230484541328 0
    endloop
  endfacet
  facet normal -0.5555702330195729 0.8314696123025648 0
    outer loop
      vertex 93.6 -28.039230484541328 0
      vertex 93.6 -28.039230484541328 2
      vertex 93.73051371481047 -27.952024008349483 0
    endloop
  endfacet
  facet normal -0.6593458151001 0.75183980747895 0
    outer loop
      vertex 93.73051371481047 -27.952024008349483 0
      vertex 93.73051371481047 -27.952024008349483 2
      vertex 93.84852813742386 -27.848528137423855 0
    endloop
  endfacet
  facet normal -0.7518398074789697 0.6593458151000777 0
    outer loop
      vertex 93.84852813742386 -27.848528137423855 0
      vertex 93.84852813742386 -27.848528137423855 2
      vertex 93.95202400834948 -27.730513714810463 0
    endloop
  endfacet
  facet normal -0.8314696123025578 0.5555702330195834 0
    outer loop
      vertex 94.03923048454132 -27.6 0
      vertex 93.95202400834948 -27.730513714810463 0
      vertex 93.95202400834948 -27.730513714810463 2
    endloop
  endfacet
  facet normal -0.8968727415326709 0.44228869021903655 0
    outer loop
      vertex 94.10865543901355 -27.459220118838108 0
      vertex 94.03923048454132 -27.6 0
      vertex 94.03923048454132 -27.6 2
    endloop
  endfacet
  facet normal -0.9469301294951082 0.3214394653031542 0
    outer loop
      vertex 94.15911099154688 -27.310582854123027 0
      vertex 94.10865543901355 -27.459220118838108 0
      vertex 94.10865543901355 -27.459220118838108 2
    endloop
  endfacet
  facet normal -0.9807852804032281 0.19509032201614018 0
    outer loop
      vertex 94.18973383364857 -27.156631430664063 0
      vertex 94.15911099154688 -27.310582854123027 0
      vertex 94.15911099154688 -27.310582854123027 2
    endloop
  endfacet
  facet normal -0.9978589232386033 0.06540312923014742 0
    outer loop
      vertex 94.2 -27 0
      vertex 94.18973383364857 -27.156631430664063 0
      vertex 94.18973383364857 -27.156631430664063 2
    endloop
  endfacet
  facet normal 0.5555702330195729 0.8314696123025648 0
    outer loop
      vertex 92.4 -28.039230484541328 0
      vertex 92.26948628518953 -27.952024008349483 2
      vertex 92.4 -28.039230484541328 2
    endloop
  endfacet
  facet normal 0.442288690218991 0.8968727415326935 0
    outer loop
      vertex 92.5407798811619 -28.108655439013543 0
      vertex 92.4 -28.039230484541328 2
      vertex 92.5407798811619 -28.108655439013543 2
    endloop
  endfacet
  facet normal 0.9807852804032281 0.19509032201614018 0
    outer loop
      vertex 91.84088900845312 -27.310582854123027 0
      vertex 91.81026616635143 -27.156631430664063 2
      vertex 91.84088900845312 -27.310582854123027 2
    endloop
  endfacet
  facet normal 0.9978589232386033 0.06540312923014742 0
    outer loop
      vertex 91.81026616635143 -27.156631430664063 0
      vertex 91.8 -27 2
      vertex 91.81026616635143 -27.156631430664063 2
    endloop
  endfacet
  facet normal 0.7518398074789697 0.6593458151000777 0
    outer loop
      vertex 92.15147186257614 -27.848528137423855 0
      vertex 92.04797599165052 -27.730513714810463 2
      vertex 92.15147186257614 -27.848528137423855 2
    endloop
  endfacet
  facet normal 0.8314696123025578 0.5555702330195834 0
    outer loop
      vertex 92.04797599165052 -27.730513714810463 0
      vertex 91.96076951545868 -27.6 2
      vertex 92.04797599165052 -27.730513714810463 2
    endloop
  endfacet
  facet normal 0.8968727415326709 0.44228869021903655 0
    outer loop
      vertex 91.96076951545868 -27.6 0
      vertex 91.89134456098645 -27.459220118838108 2
      vertex 91.96076951545868 -27.6 2
    endloop
  endfacet
  facet normal 0.6593458151001 0.75183980747895 0
    outer loop
      vertex 92.26948628518953 -27.952024008349483 0
      vertex 92.15147186257614 -27.848528137423855 2
      vertex 92.26948628518953 -27.952024008349483 2
    endloop
  endfacet
  facet normal 0.9469301294951082 0.3214394653031542 0
    outer loop
      vertex 91.89134456098645 -27.459220118838108 0
      vertex 91.84088900845312 -27.310582854123027 2
      vertex 91.89134456098645 -27.459220118838108 2
    endloop
  endfacet
  facet normal 0.3214394653031814 0.9469301294950989 0
    outer loop
      vertex 92.68941714587697 -28.159110991546882 0
      vertex 92.5407798811619 -28.108655439013543 2
      vertex 92.68941714587697 -28.159110991546882 2
    endloop
  endfacet
  facet normal 0.1950903220161184 0.9807852804032324 0
    outer loop
      vertex 92.84336856933594 -28.18973383364857 0
      vertex 92.68941714587697 -28.159110991546882 2
      vertex 92.84336856933594 -28.18973383364857 2
    endloop
  endfacet
  facet normal 0.06540312923014742 0.9978589232386033 0
    outer loop
      vertex 93 -28.2 0
      vertex 92.84336856933594 -28.18973383364857 2
      vertex 93 -28.2 2
    endloop
  endfacet
  facet normal -0.06540312923014742 0.9978589232386033 0
    outer loop
      vertex 93.15663143066406 -28.18973383364857 0
      vertex 93 -28.2 2
      vertex 93.15663143066406 -28.18973383364857 2
    endloop
  endfacet
  facet normal -0.1950903220161184 0.9807852804032324 0
    outer loop
      vertex 93.31058285412303 -28.159110991546882 0
      vertex 93.15663143066406 -28.18973383364857 2
      vertex 93.31058285412303 -28.159110991546882 2
    endloop
  endfacet
  facet normal -0.3214394653031814 0.9469301294950989 0
    outer loop
      vertex 93.4592201188381 -28.108655439013543 0
      vertex 93.31058285412303 -28.159110991546882 2
      vertex 93.4592201188381 -28.108655439013543 2
    endloop
  endfacet
  facet normal -0.442288690218991 0.8968727415326935 0
    outer loop
      vertex 93.6 -28.039230484541328 0
      vertex 93.4592201188381 -28.108655439013543 2
      vertex 93.6 -28.039230484541328 2
    endloop
  endfacet
  facet normal -0.5555702330195729 0.8314696123025648 0
    outer loop
      vertex 93.73051371481047 -27.952024008349483 0
      vertex 93.6 -28.039230484541328 2
      vertex 93.73051371481047 -27.952024008349483 2
    endloop
  endfacet
  facet normal -0.6593458151001 0.75183980747895 0
    outer loop
      vertex 93.84852813742386 -27.848528137423855 0
      vertex 93.73051371481047 -27.952024008349483 2
      vertex 93.84852813742386 -27.848528137423855 2
    endloop
  endfacet
  facet normal -0.7518398074789697 0.6593458151000777 0
    outer loop
      vertex 93.95202400834948 -27.730513714810463 0
      vertex 93.84852813742386 -27.848528137423855 2
      vertex 93.95202400834948 -27.730513714810463 2
    endloop
  endfacet
  facet normal -0.8314696123025578 0.5555702330195834 0
    outer loop
      vertex 94.03923048454132 -27.6 0
      vertex 93.95202400834948 -27.730513714810463 2
      vertex 94.03923048454132 -27.6 2
    endloop
  endfacet
  facet normal -0.8968727415326709 0.44228869021903655 0
    outer loop
      vertex 94.10865543901355 -27.459220118838108 0
      vertex 94.03923048454132 -27.6 2
      vertex 94.10865543901355 -27.459220118838108 2
    endloop
  endfacet
  facet normal -0.9469301294951082 0.3214394653031542 0
    outer loop
      vertex 94.15911099154688 -27.310582854123027 0
      vertex 94.10865543901355 -27.459220118838108 2
      vertex 94.15911099154688 -27.310582854123027 2
    endloop
  endfacet
  facet normal -0.9807852804032281 0.19509032201614018 0
    outer loop
      vertex 94.18973383364857 -27.156631430664063 0
      vertex 94.15911099154688 -27.310582854123027 2
      vertex 94.18973383364857 -27.156631430664063 2
    endloop
  endfacet
  facet normal -0.9978589232386033 0.06540312923014742 0
    outer loop
      vertex 94.2 -27 0
      vertex 94.18973383364857 -27.156631430664063 2
      vertex 94.2 -27 2
    endloop
  endfacet
  facet normal 0.9978589232386033 -0.06540312923014742 0
    outer loop
      vertex 91.8 -27 0
      vertex 91.81026616635143 -26.843368569335937 0
      vertex 91.81026616635143 -26.843368569335937 2
    endloop
  endfacet
  facet normal 0.9807852804032281 -0.19509032201614018 0
    outer loop
      vertex 91.81026616635143 -26.843368569335937 0
      vertex 91.84088900845312 -26.689417145876973 0
      vertex 91.84088900845312 -26.689417145876973 2
    endloop
  endfacet
  facet normal 0.9469301294951082 -0.3214394653031542 0
    outer loop
      vertex 91.84088900845312 -26.689417145876973 0
      vertex 91.89134456098645 -26.540779881161892 0
      vertex 91.89134456098645 -26.540779881161892 2
    endloop
  endfacet
  facet normal 0.8968727415326709 -0.44228869021903655 0
    outer loop
      vertex 91.89134456098645 -26.540779881161892 0
      vertex 91.96076951545868 -26.4 0
      vertex 91.96076951545868 -26.4 2
    endloop
  endfacet
  facet normal 0.8314696123025578 -0.5555702330195834 0
    outer loop
      vertex 91.96076951545868 -26.4 0
      vertex 92.04797599165052 -26.269486285189537 0
      vertex 92.04797599165052 -26.269486285189537 2
    endloop
  endfacet
  facet normal 0.7518398074789697 -0.6593458151000777 0
    outer loop
      vertex 92.04797599165052 -26.269486285189537 0
      vertex 92.15147186257614 -26.151471862576145 0
      vertex 92.15147186257614 -26.151471862576145 2
    endloop
  endfacet
  facet normal 0.6593458151001 -0.75183980747895 0
    outer loop
      vertex 92.26948628518953 -26.047975991650517 0
      vertex 92.26948628518953 -26.047975991650517 2
      vertex 92.15147186257614 -26.151471862576145 0
    endloop
  endfacet
  facet normal 0.5555702330195729 -0.8314696123025648 0
    outer loop
      vertex 92.4 -25.960769515458672 0
      vertex 92.4 -25.960769515458672 2
      vertex 92.26948628518953 -26.047975991650517 0
    endloop
  endfacet
  facet normal 0.442288690218991 -0.8968727415326935 0
    outer loop
      vertex 92.5407798811619 -25.891344560986457 0
      vertex 92.5407798811619 -25.891344560986457 2
      vertex 92.4 -25.960769515458672 0
    endloop
  endfacet
  facet normal -0.5555702330195729 -0.8314696123025648 0
    outer loop
      vertex 93.73051371481047 -26.047975991650517 0
      vertex 93.73051371481047 -26.047975991650517 2
      vertex 93.6 -25.960769515458672 0
    endloop
  endfacet
  facet normal -0.6593458151001 -0.75183980747895 0
    outer loop
      vertex 93.84852813742386 -26.151471862576145 0
      vertex 93.84852813742386 -26.151471862576145 2
      vertex 93.73051371481047 -26.047975991650517 0
    endloop
  endfacet
  facet normal 0.3214394653031814 -0.9469301294950989 0
    outer loop
      vertex 92.68941714587697 -25.840889008453118 0
      vertex 92.68941714587697 -25.840889008453118 2
      vertex 92.5407798811619 -25.891344560986457 0
    endloop
  endfacet
  facet normal 0.1950903220161184 -0.9807852804032324 0
    outer loop
      vertex 92.84336856933594 -25.81026616635143 0
      vertex 92.84336856933594 -25.81026616635143 2
      vertex 92.68941714587697 -25.840889008453118 0
    endloop
  endfacet
  facet normal 0.06540312923014742 -0.9978589232386033 0
    outer loop
      vertex 93 -25.8 0
      vertex 93 -25.8 2
      vertex 92.84336856933594 -25.81026616635143 0
    endloop
  endfacet
  facet normal -0.06540312923014742 -0.9978589232386033 0
    outer loop
      vertex 93.15663143066406 -25.81026616635143 0
      vertex 93.15663143066406 -25.81026616635143 2
      vertex 93 -25.8 0
    endloop
  endfacet
  facet normal -0.1950903220161184 -0.9807852804032324 0
    outer loop
      vertex 93.31058285412303 -25.840889008453118 0
      vertex 93.31058285412303 -25.840889008453118 2
      vertex 93.15663143066406 -25.81026616635143 0
    endloop
  endfacet
  facet normal -0.3214394653031814 -0.9469301294950989 0
    outer loop
      vertex 93.4592201188381 -25.891344560986457 0
      vertex 93.4592201188381 -25.891344560986457 2
      vertex 93.31058285412303 -25.840889008453118 0
    endloop
  endfacet
  facet normal -0.442288690218991 -0.8968727415326935 0
    outer loop
      vertex 93.6 -25.960769515458672 0
      vertex 93.6 -25.960769515458672 2
      vertex 93.4592201188381 -25.891344560986457 0
    endloop
  endfacet
  facet normal -0.9978589232386033 -0.06540312923014742 0
    outer loop
      vertex 94.18973383364857 -26.843368569335937 0
      vertex 94.2 -27 0
      vertex 94.2 -27 2
    endloop
  endfacet
  facet normal -0.9807852804032281 -0.19509032201614018 0
    outer loop
      vertex 94.15911099154688 -26.689417145876973 0
      vertex 94.18973383364857 -26.843368569335937 0
      vertex 94.18973383364857 -26.843368569335937 2
    endloop
  endfacet
  facet normal -0.9469301294951082 -0.3214394653031542 0
    outer loop
      vertex 94.10865543901355 -26.540779881161892 0
      vertex 94.15911099154688 -26.689417145876973 0
      vertex 94.15911099154688 -26.689417145876973 2
    endloop
  endfacet
  facet normal -0.8314696123025578 -0.5555702330195834 0
    outer loop
      vertex 93.95202400834948 -26.269486285189537 0
      vertex 94.03923048454132 -26.4 0
      vertex 94.03923048454132 -26.4 2
    endloop
  endfacet
  facet normal -0.8968727415326709 -0.44228869021903655 0
    outer loop
      vertex 94.03923048454132 -26.4 0
      vertex 94.10865543901355 -26.540779881161892 0
      vertex 94.10865543901355 -26.540779881161892 2
    endloop
  endfacet
  facet normal -0.7518398074789697 -0.6593458151000777 0
    outer loop
      vertex 93.84852813742386 -26.151471862576145 0
      vertex 93.95202400834948 -26.269486285189537 0
      vertex 93.95202400834948 -26.269486285189537 2
    endloop
  endfacet
  facet normal 0.9978589232386033 -0.06540312923014742 0
    outer loop
      vertex 91.8 -27 0
      vertex 91.81026616635143 -26.843368569335937 2
      vertex 91.8 -27 2
    endloop
  endfacet
  facet normal 0.9807852804032281 -0.19509032201614018 0
    outer loop
      vertex 91.81026616635143 -26.843368569335937 0
      vertex 91.84088900845312 -26.689417145876973 2
      vertex 91.81026616635143 -26.843368569335937 2
    endloop
  endfacet
  facet normal 0.9469301294951082 -0.3214394653031542 0
    outer loop
      vertex 91.84088900845312 -26.689417145876973 0
      vertex 91.89134456098645 -26.540779881161892 2
      vertex 91.84088900845312 -26.689417145876973 2
    endloop
  endfacet
  facet normal 0.8968727415326709 -0.44228869021903655 0
    outer loop
      vertex 91.89134456098645 -26.540779881161892 0
      vertex 91.96076951545868 -26.4 2
      vertex 91.89134456098645 -26.540779881161892 2
    endloop
  endfacet
  facet normal 0.8314696123025578 -0.5555702330195834 0
    outer loop
      vertex 91.96076951545868 -26.4 0
      vertex 92.04797599165052 -26.269486285189537 2
      vertex 91.96076951545868 -26.4 2
    endloop
  endfacet
  facet normal 0.7518398074789697 -0.6593458151000777 0
    outer loop
      vertex 92.04797599165052 -26.269486285189537 0
      vertex 92.15147186257614 -26.151471862576145 2
      vertex 92.04797599165052 -26.269486285189537 2
    endloop
  endfacet
  facet normal 0.6593458151001 -0.75183980747895 0
    outer loop
      vertex 92.15147186257614 -26.151471862576145 0
      vertex 92.26948628518953 -26.047975991650517 2
      vertex 92.15147186257614 -26.151471862576145 2
    endloop
  endfacet
  facet normal 0.5555702330195729 -0.8314696123025648 0
    outer loop
      vertex 92.26948628518953 -26.047975991650517 0
      vertex 92.4 -25.960769515458672 2
      vertex 92.26948628518953 -26.047975991650517 2
    endloop
  endfacet
  facet normal 0.442288690218991 -0.8968727415326935 0
    outer loop
      vertex 92.4 -25.960769515458672 0
      vertex 92.5407798811619 -25.891344560986457 2
      vertex 92.4 -25.960769515458672 2
    endloop
  endfacet
  facet normal -0.6593458151001 -0.75183980747895 0
    outer loop
      vertex 93.73051371481047 -26.047975991650517 0
      vertex 93.84852813742386 -26.151471862576145 2
      vertex 93.73051371481047 -26.047975991650517 2
    endloop
  endfacet
  facet normal 0.3214394653031814 -0.9469301294950989 0
    outer loop
      vertex 92.5407798811619 -25.891344560986457 0
      vertex 92.68941714587697 -25.840889008453118 2
      vertex 92.5407798811619 -25.891344560986457 2
    endloop
  endfacet
  facet normal 0.1950903220161184 -0.9807852804032324 0
    outer loop
      vertex 92.68941714587697 -25.840889008453118 0
      vertex 92.84336856933594 -25.81026616635143 2
      vertex 92.68941714587697 -25.840889008453118 2
    endloop
  endfacet
  facet normal 0.06540312923014742 -0.9978589232386033 0
    outer loop
      vertex 92.84336856933594 -25.81026616635143 0
      vertex 93 -25.8 2
      vertex 92.84336856933594 -25.81026616635143 2
    endloop
  endfacet
  facet normal -0.06540312923014742 -0.9978589232386033 0
    outer loop
      vertex 93 -25.8 0
      vertex 93.15663143066406 -25.81026616635143 2
      vertex 93 -25.8 2
    endloop
  endfacet
  facet normal -0.1950903220161184 -0.9807852804032324 0
    outer loop
      vertex 93.15663143066406 -25.81026616635143 0
      vertex 93.31058285412303 -25.840889008453118 2
      vertex 93.15663143066406 -25.81026616635143 2
    endloop
  endfacet
  facet normal -0.3214394653031814 -0.9469301294950989 0
    outer loop
      vertex 93.31058285412303 -25.840889008453118 0
      vertex 93.4592201188381 -25.891344560986457 2
      vertex 93.31058285412303 -25.840889008453118 2
    endloop
  endfacet
  facet normal -0.442288690218991 -0.8968727415326935 0
    outer loop
      vertex 93.4592201188381 -25.891344560986457 0
      vertex 93.6 -25.960769515458672 2
      vertex 93.4592201188381 -25.891344560986457 2
    endloop
  endfacet
  facet normal -0.5555702330195729 -0.8314696123025648 0
    outer loop
      vertex 93.6 -25.960769515458672 0
      vertex 93.73051371481047 -26.047975991650517 2
      vertex 93.6 -25.960769515458672 2
    endloop
  endfacet
  facet normal -0.9978589232386033 -0.06540312923014742 0
    outer loop
      vertex 94.18973383364857 -26.843368569335937 0
      vertex 94.2 -27 2
      vertex 94.18973383364857 -26.843368569335937 2
    endloop
  endfacet
  facet normal -0.9807852804032281 -0.19509032201614018 0
    outer loop
      vertex 94.15911099154688 -26.689417145876973 0
      vertex 94.18973383364857 -26.843368569335937 2
      vertex 94.15911099154688 -26.689417145876973 2
    endloop
  endfacet
  facet normal -0.9469301294951082 -0.3214394653031542 0
    outer loop
      vertex 94.10865543901355 -26.540779881161892 0
      vertex 94.15911099154688 -26.689417145876973 2
      vertex 94.10865543901355 -26.540779881161892 2
    endloop
  endfacet
  facet normal -0.8314696123025578 -0.5555702330195834 0
    outer loop
      vertex 93.95202400834948 -26.269486285189537 0
      vertex 94.03923048454132 -26.4 2
      vertex 93.95202400834948 -26.269486285189537 2
    endloop
  endfacet
  facet normal -0.8968727415326709 -0.44228869021903655 0
    outer loop
      vertex 94.03923048454132 -26.4 0
      vertex 94.10865543901355 -26.540779881161892 2
      vertex 94.03923048454132 -26.4 2
    endloop
  endfacet
  facet normal -0.7518398074789697 -0.6593458151000777 0
    outer loop
      vertex 93.84852813742386 -26.151471862576145 0
      vertex 93.95202400834948 -26.269486285189537 2
      vertex 93.84852813742386 -26.151471862576145 2
    endloop
  endfacet
  facet normal 1 0 0
    outer loop
      vertex 90.8 -19 0
      vertex 90.8 -19 2
      vertex 90.8 -20.7 0
    endloop
  endfacet
  facet normal 0 1 0
    outer loop
      vertex 90.8 -20.7 0
      vertex 90.8 -20.7 2
      vertex 92.92625 -20.7 0
    endloop
  endfacet
  facet normal 0 1 0
    outer loop
      vertex 92.92625 -20.7 0
      vertex 95.19999999999999 -20.7 2
      vertex 95.19999999999999 -20.7 0
    endloop
  endfacet
  facet normal 1 0 0
    outer loop
      vertex 90.8 -20.7 0
      vertex 90.8 -19 2
      vertex 90.8 -20.7 2
    endloop
  endfacet
  facet normal 0 1 0
    outer loop
      vertex 92.92625 -20.7 0
      vertex 90.8 -20.7 2
      vertex 95.19999999999999 -20.7 2
    endloop
  endfacet
  facet normal 0 0 -1
    outer loop
      vertex 73.8 -35 0
      vertex 75.15147186257614 -27.848528137423855 0
      vertex 75.26948628518953 -27.952024008349483 0
    endloop
  endfacet
  facet normal 0 0 -1
    outer loop
      vertex 73.8 -35 0
      vertex 74.89134456098645 -27.459220118838108 0
      vertex 74.96076951545868 -27.6 0
    endloop
  endfacet
  facet normal 0 0 -1
    outer loop
      vertex 73.8 -35 0
      vertex 74.96076951545868 -27.6 0
      vertex 75.04797599165052 -27.730513714810463 0
    endloop
  endfacet
  facet normal 0 0 -1
    outer loop
      vertex 73.8 -35 0
      vertex 75.04797599165052 -27.730513714810463 0
      vertex 75.15147186257614 -27.848528137423855 0
    endloop
  endfacet
  facet normal 0 0 -1
    outer loop
      vertex 73.8 -35 0
      vertex 75.4 -28.039230484541328 0
      vertex 75.5407798811619 -28.108655439013543 0
    endloop
  endfacet
  facet normal 0 0 -1
    outer loop
      vertex 73.8 -35 0
      vertex 75.26948628518953 -27.952024008349483 0
      vertex 75.4 -28.039230484541328 0
    endloop
  endfacet
  facet normal 0 0 -1
    outer loop
      vertex 73.8 -35 0
      vertex 75.5407798811619 -28.108655439013543 0
      vertex 75.68941714587697 -28.159110991546882 0
    endloop
  endfacet
  facet normal 0 0 -1
    outer loop
      vertex 73.8 -35 0
      vertex 75.68941714587697 -28.159110991546882 0
      vertex 75.84336856933594 -28.18973383364857 0
    endloop
  endfacet
  facet normal 0 0 -1
    outer loop
      vertex 73.8 -35 0
      vertex 74.84088900845312 -27.310582854123027 0
      vertex 74.89134456098645 -27.459220118838108 0
    endloop
  endfacet
  facet normal 0 0 -1
    outer loop
      vertex 73.8 -35 0
      vertex 74.81026616635143 -27.156631430664063 0
      vertex 74.84088900845312 -27.310582854123027 0
    endloop
  endfacet
  facet normal 0 0 -1
    outer loop
      vertex 73.8 -35 0
      vertex 74.8 -27 0
      vertex 74.81026616635143 -27.156631430664063 0
    endloop
  endfacet
  facet normal 0 0 -1
    outer loop
      vertex 73.8 -35 0
      vertex 75.84336856933594 -28.18973383364857 0
      vertex 76 -28.2 0
    endloop
  endfacet
  facet normal 0 0 -1
    outer loop
      vertex 73.8 -35 0
      vertex 76 -28.2 0
      vertex 76.15663143066406 -28.18973383364857 0
    endloop
  endfacet
  facet normal 0 0 -1
    outer loop
      vertex 73.8 -35 0
      vertex 76.15663143066406 -28.18973383364857 0
      vertex 76.31058285412303 -28.159110991546882 0
    endloop
  endfacet
  facet normal 0 0 -1
    outer loop
      vertex 73.8 -35 0
      vertex 76.31058285412303 -28.159110991546882 0
      vertex 76.4592201188381 -28.108655439013543 0
    endloop
  endfacet
  facet normal 0 0 -1
    outer loop
      vertex 73.8 -35 0
      vertex 76.4592201188381 -28.108655439013543 0
      vertex 92.92625 -20.7 0
    endloop
  endfacet
  facet normal -1 0 0
    outer loop
      vertex 73.8 -35 0
      vertex 73.8 -35 2
      vertex 73.8 -19 2
    endloop
  endfacet
  facet normal 0 0 1
    outer loop
      vertex 73.8 -35 2
      vertex 75.26948628518953 -27.952024008349483 2
      vertex 75.15147186257614 -27.848528137423855 2
    endloop
  endfacet
  facet normal 0 0 1
    outer loop
      vertex 73.8 -35 2
      vertex 74.96076951545868 -27.6 2
      vertex 74.89134456098645 -27.459220118838108 2
    endloop
  endfacet
  facet normal 0 0 1
    outer loop
      vertex 73.8 -35 2
      vertex 75.04797599165052 -27.730513714810463 2
      vertex 74.96076951545868 -27.6 2
    endloop
  endfacet
  facet normal 0 0 1
    outer loop
      vertex 73.8 -35 2
      vertex 75.15147186257614 -27.848528137423855 2
      vertex 75.04797599165052 -27.730513714810463 2
    endloop
  endfacet
  facet normal 0 0 1
    outer loop
      vertex 73.8 -35 2
      vertex 75.5407798811619 -28.108655439013543 2
      vertex 75.4 -28.039230484541328 2
    endloop
  endfacet
  facet normal 0 0 1
    outer loop
      vertex 73.8 -35 2
      vertex 75.4 -28.039230484541328 2
      vertex 75.26948628518953 -27.952024008349483 2
    endloop
  endfacet
  facet normal 0 0 1
    outer loop
      vertex 73.8 -35 2
      vertex 75.68941714587697 -28.159110991546882 2
      vertex 75.5407798811619 -28.108655439013543 2
    endloop
  endfacet
  facet normal 0 0 1
    outer loop
      vertex 73.8 -35 2
      vertex 75.84336856933594 -28.18973383364857 2
      vertex 75.68941714587697 -28.159110991546882 2
    endloop
  endfacet
  facet normal 0 0 1
    outer loop
      vertex 73.8 -35 2
      vertex 74.89134456098645 -27.459220118838108 2
      vertex 74.84088900845312 -27.310582854123027 2
    endloop
  endfacet
  facet normal 0 0 1
    outer loop
      vertex 73.8 -35 2
      vertex 74.84088900845312 -27.310582854123027 2
      vertex 74.81026616635143 -27.156631430664063 2
    endloop
  endfacet
  facet normal 0 0 1
    outer loop
      vertex 73.8 -35 2
      vertex 74.81026616635143 -27.156631430664063 2
      vertex 74.8 -27 2
    endloop
  endfacet
  facet normal 0 0 1
    outer loop
      vertex 73.8 -35 2
      vertex 74.8 -27 2
      vertex 74.81026616635143 -26.843368569335937 2
    endloop
  endfacet
  facet normal 0 0 1
    outer loop
      vertex 73.8 -35 2
      vertex 76 -28.2 2
      vertex 75.84336856933594 -28.18973383364857 2
    endloop
  endfacet
  facet normal 0 0 1
    outer loop
      vertex 73.8 -35 2
      vertex 76.15663143066406 -28.18973383364857 2
      vertex 76 -28.2 2
    endloop
  endfacet
  facet normal 0 0 1
    outer loop
      vertex 73.8 -35 2
      vertex 76.31058285412303 -28.159110991546882 2
      vertex 76.15663143066406 -28.18973383364857 2
    endloop
  endfacet
  facet normal 0 0 1
    outer loop
      vertex 73.8 -35 2
      vertex 76.4592201188381 -28.108655439013543 2
      vertex 76.31058285412303 -28.159110991546882 2
    endloop
  endfacet
  facet normal 0 0 1
    outer loop
      vertex 73.8 -35 2
      vertex 76.6 -28.039230484541328 2
      vertex 76.4592201188381 -28.108655439013543 2
    endloop
  endfacet
  facet normal 0 0 1
    outer loop
      vertex 73.8 -35 2
      vertex 76.73051371481047 -27.952024008349483 2
      vertex 76.6 -28.039230484541328 2
    endloop
  endfacet
  facet normal 0 0 1
    outer loop
      vertex 73.8 -35 2
      vertex 76.84852813742386 -27.848528137423855 2
      vertex 76.73051371481047 -27.952024008349483 2
    endloop
  endfacet
  facet normal 0 -1 0
    outer loop
      vertex 73.8 -35 0
      vertex 95.19999999999999 -35 2
      vertex 73.8 -35 2
    endloop
  endfacet
  facet normal 0 0 1
    outer loop
      vertex 73.8 -35 2
      vertex 95.19999999999999 -35 2
      vertex 76.84852813742386 -27.848528137423855 2
    endloop
  endfacet
  facet normal 0 0 1
    outer loop
      vertex 95.19999999999999 -35 2
      vertex 76.95202400834948 -27.730513714810463 2
      vertex 76.84852813742386 -27.848528137423855 2
    endloop
  endfacet
  facet normal 0 0 1
    outer loop
      vertex 95.19999999999999 -35 2
      vertex 77.03923048454132 -27.6 2
      vertex 76.95202400834948 -27.730513714810463 2
    endloop
  endfacet
  facet normal 0 0 1
    outer loop
      vertex 95.19999999999999 -35 2
      vertex 77.10865543901355 -27.459220118838108 2
      vertex 77.03923048454132 -27.6 2
    endloop
  endfacet
  facet normal 0 0 1
    outer loop
      vertex 95.19999999999999 -35 2
      vertex 77.15911099154688 -27.310582854123027 2
      vertex 77.10865543901355 -27.459220118838108 2
    endloop
  endfacet
  facet normal 0 0 1
    outer loop
      vertex 95.19999999999999 -35 2
      vertex 77.10865543901355 -26.540779881161892 2
      vertex 77.15911099154688 -26.689417145876973 2
    endloop
  endfacet
  facet normal 0 0 1
    outer loop
      vertex 95.19999999999999 -35 2
      vertex 77.18973383364857 -27.156631430664063 2
      vertex 77.15911099154688 -27.310582854123027 2
    endloop
  endfacet
  facet normal 0 0 1
    outer loop
      vertex 95.19999999999999 -35 2
      vertex 77.2 -27 2
      vertex 77.18973383364857 -27.156631430664063 2
    endloop
  endfacet
  facet normal 0 0 1
    outer loop
      vertex 95.19999999999999 -35 2
      vertex 77.18973383364857 -26.843368569335937 2
      vertex 77.2 -27 2
    endloop
  endfacet
  facet normal 0 0 1
    outer loop
      vertex 95.19999999999999 -35 2
      vertex 77.15911099154688 -26.689417145876973 2
      vertex 77.18973383364857 -26.843368569335937 2
    endloop
  endfacet
  facet normal 0 0 -1
    outer loop
      vertex 73.8 -35 0
      vertex 73.8 -19 0
      vertex 74.8 -27 0
    endloop
  endfacet
  facet normal 0 0 -1
    outer loop
      vertex 73.8 -19 0
      vertex 74.81026616635143 -26.843368569335937 0
      vertex 74.8 -27 0
    endloop
  endfacet
  facet normal 0 0 -1
    outer loop
      vertex 73.8 -19 0
      vertex 74.84088900845312 -26.689417145876973 0
      vertex 74.81026616635143 -26.843368569335937 0
    endloop
  endfacet
  facet normal 0 0 -1
    outer loop
      vertex 73.8 -19 0
      vertex 74.89134456098645 -26.540779881161892 0
      vertex 74.84088900845312 -26.689417145876973 0
    endloop
  endfacet
  facet normal 0 0 -1
    outer loop
      vertex 73.8 -19 0
      vertex 74.96076951545868 -26.4 0
      vertex 74.89134456098645 -26.540779881161892 0
    endloop
  endfacet
  facet normal 0 0 -1
    outer loop
      vertex 73.8 -19 0
      vertex 75.04797599165052 -26.269486285189537 0
      vertex 74.96076951545868 -26.4 0
    endloop
  endfacet
  facet normal 0 0 -1
    outer loop
      vertex 73.8 -19 0
      vertex 75.15147186257614 -26.151471862576145 0
      vertex 75.04797599165052 -26.269486285189537 0
    endloop
  endfacet
  facet normal 0 0 -1
    outer loop
      vertex 73.8 -19 0
      vertex 75.26948628518953 -26.047975991650517 0
      vertex 75.15147186257614 -26.151471862576145 0
    endloop
  endfacet
  facet normal 0 0 -1
    outer loop
      vertex 73.8 -19 0
      vertex 75.4 -25.960769515458672 0
      vertex 75.26948628518953 -26.047975991650517 0
    endloop
  endfacet
  facet normal 0 0 -1
    outer loop
      vertex 73.8 -19 0
      vertex 75.5407798811619 -25.891344560986457 0
      vertex 75.4 -25.960769515458672 0
    endloop
  endfacet
  facet normal 0 0 -1
    outer loop
      vertex 73.8 -19 0
      vertex 75.68941714587697 -25.840889008453118 0
      vertex 75.5407798811619 -25.891344560986457 0
    endloop
  endfacet
  facet normal 0 0 -1
    outer loop
      vertex 73.8 -19 0
      vertex 75.84336856933594 -25.81026616635143 0
      vertex 75.68941714587697 -25.840889008453118 0
    endloop
  endfacet
  facet normal -1 0 0
    outer loop
      vertex 73.8 -35 0
      vertex 73.8 -19 2
      vertex 73.8 -19 0
    endloop
  endfacet
  facet normal 0 0 -1
    outer loop
      vertex 77.10865543901355 -27.459220118838108 0
      vertex 90.8 -20.7 0
      vertex 77.03923048454132 -27.6 0
    endloop
  endfacet
  facet normal 0 0 -1
    outer loop
      vertex 77.15911099154688 -27.310582854123027 0
      vertex 90.8 -20.7 0
      vertex 77.10865543901355 -27.459220118838108 0
    endloop
  endfacet
  facet normal 0 0 -1
    outer loop
      vertex 77.18973383364857 -27.156631430664063 0
      vertex 90.8 -20.7 0
      vertex 77.15911099154688 -27.310582854123027 0
    endloop
  endfacet
  facet normal 0 0 -1
    outer loop
      vertex 76 -25.8 0
      vertex 75.84336856933594 -25.81026616635143 0
      vertex 90.8 -20.7 0
    endloop
  endfacet
  facet normal 0 0 -1
    outer loop
      vertex 76.15663143066406 -25.81026616635143 0
      vertex 76 -25.8 0
      vertex 90.8 -20.7 0
    endloop
  endfacet
  facet normal 0 0 -1
    outer loop
      vertex 76.31058285412303 -25.840889008453118 0
      vertex 76.15663143066406 -25.81026616635143 0
      vertex 90.8 -20.7 0
    endloop
  endfacet
  facet normal 0 0 -1
    outer loop
      vertex 77.2 -27 0
      vertex 90.8 -20.7 0
      vertex 77.18973383364857 -27.156631430664063 0
    endloop
  endfacet
  facet normal 0 0 -1
    outer loop
      vertex 77.18973383364857 -26.843368569335937 0
      vertex 90.8 -20.7 0
      vertex 77.2 -27 0
    endloop
  endfacet
  facet normal 0 0 -1
    outer loop
      vertex 77.03923048454132 -26.4 0
      vertex 90.8 -20.7 0
      vertex 77.10865543901355 -26.540779881161892 0
    endloop
  endfacet
  facet normal 0 0 -1
    outer loop
      vertex 77.15911099154688 -26.689417145876973 0
      vertex 90.8 -20.7 0
      vertex 77.18973383364857 -26.843368569335937 0
    endloop
  endfacet
  facet normal 0 0 -1
    outer loop
      vertex 77.10865543901355 -26.540779881161892 0
      vertex 90.8 -20.7 0
      vertex 77.15911099154688 -26.689417145876973 0
    endloop
  endfacet
  facet normal 0 0 -1
    outer loop
      vertex 76.84852813742386 -26.151471862576145 0
      vertex 76.73051371481047 -26.047975991650517 0
      vertex 90.8 -20.7 0
    endloop
  endfacet
  facet normal 0 0 -1
    outer loop
      vertex 76.4592201188381 -25.891344560986457 0
      vertex 76.31058285412303 -25.840889008453118 0
      vertex 90.8 -20.7 0
    endloop
  endfacet
  facet normal 0 0 -1
    outer loop
      vertex 76.6 -25.960769515458672 0
      vertex 76.4592201188381 -25.891344560986457 0
      vertex 90.8 -20.7 0
    endloop
  endfacet
  facet normal 0 0 -1
    outer loop
      vertex 76.73051371481047 -26.047975991650517 0
      vertex 76.6 -25.960769515458672 0
      vertex 90.8 -20.7 0
    endloop
  endfacet
  facet normal 0 0 -1
    outer loop
      vertex 76.95202400834948 -26.269486285189537 0
      vertex 90.8 -20.7 0
      vertex 77.03923048454132 -26.4 0
    endloop
  endfacet
  facet normal 0 0 -1
    outer loop
      vertex 76.84852813742386 -26.151471862576145 0
      vertex 90.8 -20.7 0
      vertex 76.95202400834948 -26.269486285189537 0
    endloop
  endfacet
  facet normal 0 0 -1
    outer loop
      vertex 92.92625 -20.7 0
      vertex 76.4592201188381 -28.108655439013543 0
      vertex 76.6 -28.039230484541328 0
    endloop
  endfacet
  facet normal 0 0 -1
    outer loop
      vertex 76.6 -28.039230484541328 0
      vertex 76.73051371481047 -27.952024008349483 0
      vertex 92.92625 -20.7 0
    endloop
  endfacet
  facet normal 0 0 -1
    outer loop
      vertex 76.73051371481047 -27.952024008349483 0
      vertex 76.84852813742386 -27.848528137423855 0
      vertex 92.92625 -20.7 0
    endloop
  endfacet
  facet normal 0 0 -1
    outer loop
      vertex 76.84852813742386 -27.848528137423855 0
      vertex 76.95202400834948 -27.730513714810463 0
      vertex 92.92625 -20.7 0
    endloop
  endfacet
  facet normal 0 0 -1
    outer loop
      vertex 77.03923048454132 -27.6 0
      vertex 92.92625 -20.7 0
      vertex 76.95202400834948 -27.730513714810463 0
    endloop
  endfacet
  facet normal 0 0 -1
    outer loop
      vertex 73.8 -19 0
      vertex 90.8 -20.7 0
      vertex 75.84336856933594 -25.81026616635143 0
    endloop
  endfacet
  facet normal 0 1 0
    outer loop
      vertex 73.8 -19 0
      vertex 73.8 -19 2
      vertex 90.8 -19 0
    endloop
  endfacet
  facet normal 0 0 1
    outer loop
      vertex 73.8 -35 2
      vertex 74.81026616635143 -26.843368569335937 2
      vertex 73.8 -19 2
    endloop
  endfacet
  facet normal 0 0 1
    outer loop
      vertex 73.8 -19 2
      vertex 74.81026616635143 -26.843368569335937 2
      vertex 74.84088900845312 -26.689417145876973 2
    endloop
  endfacet
  facet normal 0 0 1
    outer loop
      vertex 73.8 -19 2
      vertex 74.84088900845312 -26.689417145876973 2
      vertex 74.89134456098645 -26.540779881161892 2
    endloop
  endfacet
  facet normal 0 0 1
    outer loop
      vertex 73.8 -19 2
      vertex 74.89134456098645 -26.540779881161892 2
      vertex 74.96076951545868 -26.4 2
    endloop
  endfacet
  facet normal 0 0 1
    outer loop
      vertex 73.8 -19 2
      vertex 74.96076951545868 -26.4 2
      vertex 75.04797599165052 -26.269486285189537 2
    endloop
  endfacet
  facet normal 0 0 1
    outer loop
      vertex 73.8 -19 2
      vertex 75.04797599165052 -26.269486285189537 2
      vertex 75.15147186257614 -26.151471862576145 2
    endloop
  endfacet
  facet normal 0 0 1
    outer loop
      vertex 73.8 -19 2
      vertex 75.15147186257614 -26.151471862576145 2
      vertex 75.26948628518953 -26.047975991650517 2
    endloop
  endfacet
  facet normal 0 0 1
    outer loop
      vertex 73.8 -19 2
      vertex 75.26948628518953 -26.047975991650517 2
      vertex 75.4 -25.960769515458672 2
    endloop
  endfacet
  facet normal 0 0 1
    outer loop
      vertex 73.8 -19 2
      vertex 75.4 -25.960769515458672 2
      vertex 75.5407798811619 -25.891344560986457 2
    endloop
  endfacet
  facet normal 0 0 1
    outer loop
      vertex 73.8 -19 2
      vertex 75.5407798811619 -25.891344560986457 2
      vertex 75.68941714587697 -25.840889008453118 2
    endloop
  endfacet
  facet normal 0 0 1
    outer loop
      vertex 73.8 -19 2
      vertex 75.68941714587697 -25.840889008453118 2
      vertex 75.84336856933594 -25.81026616635143 2
    endloop
  endfacet
  facet normal 0 0 1
    outer loop
      vertex 73.8 -19 2
      vertex 75.84336856933594 -25.81026616635143 2
      vertex 76 -25.8 2
    endloop
  endfacet
  facet normal 0 0 1
    outer loop
      vertex 73.8 -19 2
      vertex 76 -25.8 2
      vertex 76.15663143066406 -25.81026616635143 2
    endloop
  endfacet
  facet normal 0 0 1
    outer loop
      vertex 73.8 -19 2
      vertex 76.15663143066406 -25.81026616635143 2
      vertex 76.31058285412303 -25.840889008453118 2
    endloop
  endfacet
  facet normal 0 0 1
    outer loop
      vertex 73.8 -19 2
      vertex 76.31058285412303 -25.840889008453118 2
      vertex 76.4592201188381 -25.891344560986457 2
    endloop
  endfacet
  facet normal 0 0 1
    outer loop
      vertex 73.8 -19 2
      vertex 76.4592201188381 -25.891344560986457 2
      vertex 76.6 -25.960769515458672 2
    endloop
  endfacet
  facet normal 0 0 1
    outer loop
      vertex 73.8 -19 2
      vertex 76.6 -25.960769515458672 2
      vertex 76.73051371481047 -26.047975991650517 2
    endloop
  endfacet
  facet normal 0 0 1
    outer loop
      vertex 73.8 -19 2
      vertex 76.73051371481047 -26.047975991650517 2
      vertex 76.84852813742386 -26.151471862576145 2
    endloop
  endfacet
  facet normal 0 0 1
    outer loop
      vertex 73.8 -19 2
      vertex 76.95202400834948 -26.269486285189537 2
      vertex 77.03923048454132 -26.4 2
    endloop
  endfacet
  facet normal 0 0 1
    outer loop
      vertex 73.8 -19 2
      vertex 76.84852813742386 -26.151471862576145 2
      vertex 76.95202400834948 -26.269486285189537 2
    endloop
  endfacet
  facet normal 0 0 1
    outer loop
      vertex 73.8 -19 2
      vertex 77.03923048454132 -26.4 2
      vertex 77.10865543901355 -26.540779881161892 2
    endloop
  endfacet
  facet normal 0 0 1
    outer loop
      vertex 73.8 -19 2
      vertex 77.10865543901355 -26.540779881161892 2
      vertex 95.19999999999999 -35 2
    endloop
  endfacet
  facet normal 0 0 -1
    outer loop
      vertex 73.8 -35 0
      vertex 92.15147186257614 -27.848528137423855 0
      vertex 95.19999999999999 -35 0
    endloop
  endfacet
  facet normal 0 -1 0
    outer loop
      vertex 73.8 -35 0
      vertex 95.19999999999999 -35 0
      vertex 95.19999999999999 -35 2
    endloop
  endfacet
  facet normal 0 0 -1
    outer loop
      vertex 73.8 -35 0
      vertex 91.81026616635143 -27.156631430664063 0
      vertex 91.84088900845312 -27.310582854123027 0
    endloop
  endfacet
  facet normal 0 0 -1
    outer loop
      vertex 73.8 -35 0
      vertex 91.8 -27 0
      vertex 91.81026616635143 -27.156631430664063 0
    endloop
  endfacet
  facet normal 0 0 -1
    outer loop
      vertex 73.8 -35 0
      vertex 91.81026616635143 -26.843368569335937 0
      vertex 91.8 -27 0
    endloop
  endfacet
  facet normal 0 0 -1
    outer loop
      vertex 73.8 -35 0
      vertex 92.04797599165052 -27.730513714810463 0
      vertex 92.15147186257614 -27.848528137423855 0
    endloop
  endfacet
  facet normal 0 0 -1
    outer loop
      vertex 73.8 -35 0
      vertex 91.89134456098645 -27.459220118838108 0
      vertex 91.96076951545868 -27.6 0
    endloop
  endfacet
  facet normal 0 0 -1
    outer loop
      vertex 73.8 -35 0
      vertex 91.96076951545868 -27.6 0
      vertex 92.04797599165052 -27.730513714810463 0
    endloop
  endfacet
  facet normal 0 0 -1
    outer loop
      vertex 73.8 -35 0
      vertex 91.84088900845312 -27.310582854123027 0
      vertex 91.89134456098645 -27.459220118838108 0
    endloop
  endfacet
  facet normal 0 0 -1
    outer loop
      vertex 73.8 -35 0
      vertex 92.92625 -20.7 0
      vertex 91.81026616635143 -26.843368569335937 0
    endloop
  endfacet
  facet normal 0 0 -1
    outer loop
      vertex 95.19999999999999 -35 0
      vertex 92.15147186257614 -27.848528137423855 0
      vertex 92.26948628518953 -27.952024008349483 0
    endloop
  endfacet
  facet normal 0 0 -1
    outer loop
      vertex 95.19999999999999 -35 0
      vertex 92.26948628518953 -27.952024008349483 0
      vertex 92.4 -28.039230484541328 0
    endloop
  endfacet
  facet normal 0 0 -1
    outer loop
      vertex 95.19999999999999 -35 0
      vertex 92.4 -28.039230484541328 0
      vertex 92.5407798811619 -28.108655439013543 0
    endloop
  endfacet
  facet normal 0 0 -1
    outer loop
      vertex 95.19999999999999 -35 0
      vertex 92.5407798811619 -28.108655439013543 0
      vertex 92.68941714587697 -28.159110991546882 0
    endloop
  endfacet
  facet normal 0 0 -1
    outer loop
      vertex 95.19999999999999 -35 0
      vertex 92.68941714587697 -28.159110991546882 0
      vertex 92.84336856933594 -28.18973383364857 0
    endloop
  endfacet
  facet normal 0 0 -1
    outer loop
      vertex 95.19999999999999 -35 0
      vertex 92.84336856933594 -28.18973383364857 0
      vertex 93 -28.2 0
    endloop
  endfacet
  facet normal 0 0 -1
    outer loop
      vertex 95.19999999999999 -35 0
      vertex 93 -28.2 0
      vertex 93.15663143066406 -28.18973383364857 0
    endloop
  endfacet
  facet normal 0 0 -1
    outer loop
      vertex 95.19999999999999 -35 0
      vertex 93.15663143066406 -28.18973383364857 0
      vertex 93.31058285412303 -28.159110991546882 0
    endloop
  endfacet
  facet normal 0 0 -1
    outer loop
      vertex 95.19999999999999 -35 0
      vertex 93.31058285412303 -28.159110991546882 0
      vertex 93.4592201188381 -28.108655439013543 0
    endloop
  endfacet
  facet normal 0 0 -1
    outer loop
      vertex 95.19999999999999 -35 0
      vertex 93.4592201188381 -28.108655439013543 0
      vertex 93.6 -28.039230484541328 0
    endloop
  endfacet
  facet normal 0 0 -1
    outer loop
      vertex 95.19999999999999 -35 0
      vertex 93.6 -28.039230484541328 0
      vertex 93.73051371481047 -27.952024008349483 0
    endloop
  endfacet
  facet normal 0 0 -1
    outer loop
      vertex 95.19999999999999 -35 0
      vertex 93.73051371481047 -27.952024008349483 0
      vertex 93.84852813742386 -27.848528137423855 0
    endloop
  endfacet
  facet normal 0 0 -1
    outer loop
      vertex 95.19999999999999 -35 0
      vertex 93.84852813742386 -27.848528137423855 0
      vertex 93.95202400834948 -27.730513714810463 0
    endloop
  endfacet
  facet normal 0 0 -1
    outer loop
      vertex 95.19999999999999 -35 0
      vertex 93.95202400834948 -27.730513714810463 0
      vertex 94.03923048454132 -27.6 0
    endloop
  endfacet
  facet normal 0 0 -1
    outer loop
      vertex 95.19999999999999 -35 0
      vertex 94.03923048454132 -27.6 0
      vertex 94.10865543901355 -27.459220118838108 0
    endloop
  endfacet
  facet normal 0 0 -1
    outer loop
      vertex 95.19999999999999 -35 0
      vertex 94.10865543901355 -27.459220118838108 0
      vertex 94.15911099154688 -27.310582854123027 0
    endloop
  endfacet
  facet normal 0 0 -1
    outer loop
      vertex 95.19999999999999 -35 0
      vertex 94.15911099154688 -27.310582854123027 0
      vertex 94.18973383364857 -27.156631430664063 0
    endloop
  endfacet
  facet normal 0 0 -1
    outer loop
      vertex 95.19999999999999 -35 0
      vertex 94.18973383364857 -27.156631430664063 0
      vertex 94.2 -27 0
    endloop
  endfacet
  facet normal 0 0 -1
    outer loop
      vertex 95.19999999999999 -35 0
      vertex 94.2 -27 0
      vertex 94.18973383364857 -26.843368569335937 0
    endloop
  endfacet
  facet normal 0 0 -1
    outer loop
      vertex 95.19999999999999 -35 0
      vertex 94.18973383364857 -26.843368569335937 0
      vertex 95.19999999999999 -20.7 0
    endloop
  endfacet
  facet normal 0 0 1
    outer loop
      vertex 73.8 -19 2
      vertex 95.19999999999999 -35 2
      vertex 92.5407798811619 -28.108655439013543 2
    endloop
  endfacet
  facet normal 1 0 0
    outer loop
      vertex 95.19999999999999 -35 0
      vertex 95.19999999999999 -20.7 2
      vertex 95.19999999999999 -35 2
    endloop
  endfacet
  facet normal 0 0 1
    outer loop
      vertex 95.19999999999999 -35 2
      vertex 92.68941714587697 -28.159110991546882 2
      vertex 92.5407798811619 -28.108655439013543 2
    endloop
  endfacet
  facet normal 0 0 1
    outer loop
      vertex 95.19999999999999 -35 2
      vertex 92.84336856933594 -28.18973383364857 2
      vertex 92.68941714587697 -28.159110991546882 2
    endloop
  endfacet
  facet normal 0 0 1
    outer loop
      vertex 95.19999999999999 -35 2
      vertex 93 -28.2 2
      vertex 92.84336856933594 -28.18973383364857 2
    endloop
  endfacet
  facet normal 0 0 1
    outer loop
      vertex 95.19999999999999 -35 2
      vertex 93.15663143066406 -28.18973383364857 2
      vertex 93 -28.2 2
    endloop
  endfacet
  facet normal 0 0 1
    outer loop
      vertex 95.19999999999999 -35 2
      vertex 93.31058285412303 -28.159110991546882 2
      vertex 93.15663143066406 -28.18973383364857 2
    endloop
  endfacet
  facet normal 0 0 1
    outer loop
      vertex 95.19999999999999 -35 2
      vertex 93.4592201188381 -28.108655439013543 2
      vertex 93.31058285412303 -28.159110991546882 2
    endloop
  endfacet
  facet normal 0 0 1
    outer loop
      vertex 95.19999999999999 -35 2
      vertex 93.6 -28.039230484541328 2
      vertex 93.4592201188381 -28.108655439013543 2
    endloop
  endfacet
  facet normal 0 0 1
    outer loop
      vertex 95.19999999999999 -35 2
      vertex 93.73051371481047 -27.952024008349483 2
      vertex 93.6 -28.039230484541328 2
    endloop
  endfacet
  facet normal 0 0 1
    outer loop
      vertex 95.19999999999999 -35 2
      vertex 93.84852813742386 -27.848528137423855 2
      vertex 93.73051371481047 -27.952024008349483 2
    endloop
  endfacet
  facet normal 0 0 1
    outer loop
      vertex 95.19999999999999 -35 2
      vertex 93.95202400834948 -27.730513714810463 2
      vertex 93.84852813742386 -27.848528137423855 2
    endloop
  endfacet
  facet normal 0 0 1
    outer loop
      vertex 95.19999999999999 -35 2
      vertex 94.03923048454132 -27.6 2
      vertex 93.95202400834948 -27.730513714810463 2
    endloop
  endfacet
  facet normal 0 0 1
    outer loop
      vertex 95.19999999999999 -35 2
      vertex 94.10865543901355 -27.459220118838108 2
      vertex 94.03923048454132 -27.6 2
    endloop
  endfacet
  facet normal 0 0 1
    outer loop
      vertex 95.19999999999999 -35 2
      vertex 94.15911099154688 -27.310582854123027 2
      vertex 94.10865543901355 -27.459220118838108 2
    endloop
  endfacet
  facet normal 0 0 1
    outer loop
      vertex 95.19999999999999 -35 2
      vertex 94.18973383364857 -27.156631430664063 2
      vertex 94.15911099154688 -27.310582854123027 2
    endloop
  endfacet
  facet normal 0 0 1
    outer loop
      vertex 95.19999999999999 -35 2
      vertex 94.2 -27 2
      vertex 94.18973383364857 -27.156631430664063 2
    endloop
  endfacet
  facet normal 0 0 1
    outer loop
      vertex 95.19999999999999 -35 2
      vertex 95.19999999999999 -20.7 2
      vertex 94.2 -27 2
    endloop
  endfacet
  facet normal 0 0 -1
    outer loop
      vertex 77.03923048454132 -27.6 0
      vertex 90.8 -20.7 0
      vertex 92.92625 -20.7 0
    endloop
  endfacet
  facet normal 0 0 -1
    outer loop
      vertex 73.8 -19 0
      vertex 90.8 -19 0
      vertex 90.8 -20.7 0
    endloop
  endfacet
  facet normal 0 0 -1
    outer loop
      vertex 92.92625 -20.7 0
      vertex 91.84088900845312 -26.689417145876973 0
      vertex 91.81026616635143 -26.843368569335937 0
    endloop
  endfacet
  facet normal 0 0 -1
    outer loop
      vertex 92.92625 -20.7 0
      vertex 91.89134456098645 -26.540779881161892 0
      vertex 91.84088900845312 -26.689417145876973 0
    endloop
  endfacet
  facet normal 0 0 -1
    outer loop
      vertex 92.92625 -20.7 0
      vertex 91.96076951545868 -26.4 0
      vertex 91.89134456098645 -26.540779881161892 0
    endloop
  endfacet
  facet normal 0 0 -1
    outer loop
      vertex 92.92625 -20.7 0
      vertex 92.04797599165052 -26.269486285189537 0
      vertex 91.96076951545868 -26.4 0
    endloop
  endfacet
  facet normal 0 0 -1
    outer loop
      vertex 92.92625 -20.7 0
      vertex 92.15147186257614 -26.151471862576145 0
      vertex 92.04797599165052 -26.269486285189537 0
    endloop
  endfacet
  facet normal 0 0 -1
    outer loop
      vertex 92.92625 -20.7 0
      vertex 92.26948628518953 -26.047975991650517 0
      vertex 92.15147186257614 -26.151471862576145 0
    endloop
  endfacet
  facet normal 0 0 -1
    outer loop
      vertex 92.92625 -20.7 0
      vertex 92.4 -25.960769515458672 0
      vertex 92.26948628518953 -26.047975991650517 0
    endloop
  endfacet
  facet normal 0 0 -1
    outer loop
      vertex 92.92625 -20.7 0
      vertex 92.5407798811619 -25.891344560986457 0
      vertex 92.4 -25.960769515458672 0
    endloop
  endfacet
  facet normal 0 0 -1
    outer loop
      vertex 92.92625 -20.7 0
      vertex 92.68941714587697 -25.840889008453118 0
      vertex 92.5407798811619 -25.891344560986457 0
    endloop
  endfacet
  facet normal 0 0 -1
    outer loop
      vertex 92.92625 -20.7 0
      vertex 92.84336856933594 -25.81026616635143 0
      vertex 92.68941714587697 -25.840889008453118 0
    endloop
  endfacet
  facet normal 0 0 -1
    outer loop
      vertex 92.92625 -20.7 0
      vertex 93 -25.8 0
      vertex 92.84336856933594 -25.81026616635143 0
    endloop
  endfacet
  facet normal 0 0 -1
    outer loop
      vertex 95.19999999999999 -20.7 0
      vertex 93.15663143066406 -25.81026616635143 0
      vertex 93 -25.8 0
    endloop
  endfacet
  facet normal 0 0 -1
    outer loop
      vertex 95.19999999999999 -20.7 0
      vertex 94.18973383364857 -26.843368569335937 0
      vertex 94.15911099154688 -26.689417145876973 0
    endloop
  endfacet
  facet normal 0 0 -1
    outer loop
      vertex 95.19999999999999 -20.7 0
      vertex 94.15911099154688 -26.689417145876973 0
      vertex 94.10865543901355 -26.540779881161892 0
    endloop
  endfacet
  facet normal 0 0 -1
    outer loop
      vertex 95.19999999999999 -20.7 0
      vertex 94.10865543901355 -26.540779881161892 0
      vertex 94.03923048454132 -26.4 0
    endloop
  endfacet
  facet normal 0 0 -1
    outer loop
      vertex 95.19999999999999 -20.7 0
      vertex 93.4592201188381 -25.891344560986457 0
      vertex 93.31058285412303 -25.840889008453118 0
    endloop
  endfacet
  facet normal 0 0 -1
    outer loop
      vertex 95.19999999999999 -20.7 0
      vertex 93.31058285412303 -25.840889008453118 0
      vertex 93.15663143066406 -25.81026616635143 0
    endloop
  endfacet
  facet normal 0 0 -1
    outer loop
      vertex 95.19999999999999 -20.7 0
      vertex 93.6 -25.960769515458672 0
      vertex 93.4592201188381 -25.891344560986457 0
    endloop
  endfacet
  facet normal 0 0 -1
    outer loop
      vertex 95.19999999999999 -20.7 0
      vertex 93.73051371481047 -26.047975991650517 0
      vertex 93.6 -25.960769515458672 0
    endloop
  endfacet
  facet normal 0 0 -1
    outer loop
      vertex 95.19999999999999 -20.7 0
      vertex 93.84852813742386 -26.151471862576145 0
      vertex 93.73051371481047 -26.047975991650517 0
    endloop
  endfacet
  facet normal 0 0 -1
    outer loop
      vertex 95.19999999999999 -20.7 0
      vertex 93.95202400834948 -26.269486285189537 0
      vertex 93.84852813742386 -26.151471862576145 0
    endloop
  endfacet
  facet normal 0 0 -1
    outer loop
      vertex 95.19999999999999 -20.7 0
      vertex 94.03923048454132 -26.4 0
      vertex 93.95202400834948 -26.269486285189537 0
    endloop
  endfacet
  facet normal 1 0 0
    outer loop
      vertex 95.19999999999999 -35 0
      vertex 95.19999999999999 -20.7 0
      vertex 95.19999999999999 -20.7 2
    endloop
  endfacet
  facet normal 0 0 -1
    outer loop
      vertex 92.92625 -20.7 0
      vertex 95.19999999999999 -20.7 0
      vertex 93 -25.8 0
    endloop
  endfacet
  facet normal 0 0 1
    outer loop
      vertex 73.8 -19 2
      vertex 92.5407798811619 -28.108655439013543 2
      vertex 92.4 -28.039230484541328 2
    endloop
  endfacet
  facet normal 0 0 1
    outer loop
      vertex 73.8 -19 2
      vertex 91.84088900845312 -27.310582854123027 2
      vertex 91.81026616635143 -27.156631430664063 2
    endloop
  endfacet
  facet normal 0 0 1
    outer loop
      vertex 73.8 -19 2
      vertex 91.81026616635143 -27.156631430664063 2
      vertex 91.8 -27 2
    endloop
  endfacet
  facet normal 0 0 1
    outer loop
      vertex 73.8 -19 2
      vertex 91.8 -27 2
      vertex 91.81026616635143 -26.843368569335937 2
    endloop
  endfacet
  facet normal 0 0 1
    outer loop
      vertex 73.8 -19 2
      vertex 91.81026616635143 -26.843368569335937 2
      vertex 91.84088900845312 -26.689417145876973 2
    endloop
  endfacet
  facet normal 0 0 1
    outer loop
      vertex 73.8 -19 2
      vertex 92.15147186257614 -27.848528137423855 2
      vertex 92.04797599165052 -27.730513714810463 2
    endloop
  endfacet
  facet normal 0 0 1
    outer loop
      vertex 73.8 -19 2
      vertex 92.04797599165052 -27.730513714810463 2
      vertex 91.96076951545868 -27.6 2
    endloop
  endfacet
  facet normal 0 0 1
    outer loop
      vertex 73.8 -19 2
      vertex 92.26948628518953 -27.952024008349483 2
      vertex 92.15147186257614 -27.848528137423855 2
    endloop
  endfacet
  facet normal 0 0 1
    outer loop
      vertex 73.8 -19 2
      vertex 92.4 -28.039230484541328 2
      vertex 92.26948628518953 -27.952024008349483 2
    endloop
  endfacet
  facet normal 0 0 1
    outer loop
      vertex 73.8 -19 2
      vertex 91.96076951545868 -27.6 2
      vertex 91.89134456098645 -27.459220118838108 2
    endloop
  endfacet
  facet normal 0 0 1
    outer loop
      vertex 73.8 -19 2
      vertex 91.89134456098645 -27.459220118838108 2
      vertex 91.84088900845312 -27.310582854123027 2
    endloop
  endfacet
  facet normal 0 0 1
    outer loop
      vertex 73.8 -19 2
      vertex 91.84088900845312 -26.689417145876973 2
      vertex 91.89134456098645 -26.540779881161892 2
    endloop
  endfacet
  facet normal 0 0 1
    outer loop
      vertex 73.8 -19 2
      vertex 91.89134456098645 -26.540779881161892 2
      vertex 91.96076951545868 -26.4 2
    endloop
  endfacet
  facet normal 0 0 1
    outer loop
      vertex 73.8 -19 2
      vertex 91.96076951545868 -26.4 2
      vertex 92.04797599165052 -26.269486285189537 2
    endloop
  endfacet
  facet normal 0 0 1
    outer loop
      vertex 73.8 -19 2
      vertex 92.04797599165052 -26.269486285189537 2
      vertex 92.15147186257614 -26.151471862576145 2
    endloop
  endfacet
  facet normal 0 0 1
    outer loop
      vertex 73.8 -19 2
      vertex 92.15147186257614 -26.151471862576145 2
      vertex 92.26948628518953 -26.047975991650517 2
    endloop
  endfacet
  facet normal 0 1 0
    outer loop
      vertex 73.8 -19 2
      vertex 90.8 -19 2
      vertex 90.8 -19 0
    endloop
  endfacet
  facet normal 0 0 1
    outer loop
      vertex 73.8 -19 2
      vertex 92.26948628518953 -26.047975991650517 2
      vertex 90.8 -20.7 2
    endloop
  endfacet
  facet normal 0 0 1
    outer loop
      vertex 73.8 -19 2
      vertex 90.8 -20.7 2
      vertex 90.8 -19 2
    endloop
  endfacet
  facet normal 0 0 1
    outer loop
      vertex 92.26948628518953 -26.047975991650517 2
      vertex 92.4 -25.960769515458672 2
      vertex 90.8 -20.7 2
    endloop
  endfacet
  facet normal 0 0 1
    outer loop
      vertex 92.4 -25.960769515458672 2
      vertex 92.5407798811619 -25.891344560986457 2
      vertex 90.8 -20.7 2
    endloop
  endfacet
  facet normal 0 0 1
    outer loop
      vertex 92.5407798811619 -25.891344560986457 2
      vertex 92.68941714587697 -25.840889008453118 2
      vertex 90.8 -20.7 2
    endloop
  endfacet
  facet normal 0 0 1
    outer loop
      vertex 92.68941714587697 -25.840889008453118 2
      vertex 92.84336856933594 -25.81026616635143 2
      vertex 90.8 -20.7 2
    endloop
  endfacet
  facet normal 0 0 1
    outer loop
      vertex 92.84336856933594 -25.81026616635143 2
      vertex 93 -25.8 2
      vertex 90.8 -20.7 2
    endloop
  endfacet
  facet normal 0 0 1
    outer loop
      vertex 93 -25.8 2
      vertex 93.15663143066406 -25.81026616635143 2
      vertex 90.8 -20.7 2
    endloop
  endfacet
  facet normal 0 0 1
    outer loop
      vertex 93.31058285412303 -25.840889008453118 2
      vertex 93.4592201188381 -25.891344560986457 2
      vertex 90.8 -20.7 2
    endloop
  endfacet
  facet normal 0 0 1
    outer loop
      vertex 93.15663143066406 -25.81026616635143 2
      vertex 93.31058285412303 -25.840889008453118 2
      vertex 90.8 -20.7 2
    endloop
  endfacet
  facet normal 0 0 1
    outer loop
      vertex 93.4592201188381 -25.891344560986457 2
      vertex 93.6 -25.960769515458672 2
      vertex 90.8 -20.7 2
    endloop
  endfacet
  facet normal 0 0 1
    outer loop
      vertex 93.6 -25.960769515458672 2
      vertex 93.73051371481047 -26.047975991650517 2
      vertex 90.8 -20.7 2
    endloop
  endfacet
  facet normal 0 0 1
    outer loop
      vertex 95.19999999999999 -20.7 2
      vertex 94.18973383364857 -26.843368569335937 2
      vertex 94.2 -27 2
    endloop
  endfacet
  facet normal 0 0 1
    outer loop
      vertex 95.19999999999999 -20.7 2
      vertex 94.15911099154688 -26.689417145876973 2
      vertex 94.18973383364857 -26.843368569335937 2
    endloop
  endfacet
  facet normal 0 0 1
    outer loop
      vertex 95.19999999999999 -20.7 2
      vertex 94.10865543901355 -26.540779881161892 2
      vertex 94.15911099154688 -26.689417145876973 2
    endloop
  endfacet
  facet normal 0 0 1
    outer loop
      vertex 95.19999999999999 -20.7 2
      vertex 94.03923048454132 -26.4 2
      vertex 94.10865543901355 -26.540779881161892 2
    endloop
  endfacet
  facet normal 0 0 1
    outer loop
      vertex 95.19999999999999 -20.7 2
      vertex 93.73051371481047 -26.047975991650517 2
      vertex 93.84852813742386 -26.151471862576145 2
    endloop
  endfacet
  facet normal 0 0 1
    outer loop
      vertex 95.19999999999999 -20.7 2
      vertex 93.84852813742386 -26.151471862576145 2
      vertex 93.95202400834948 -26.269486285189537 2
    endloop
  endfacet
  facet normal 0 0 1
    outer loop
      vertex 95.19999999999999 -20.7 2
      vertex 93.95202400834948 -26.269486285189537 2
      vertex 94.03923048454132 -26.4 2
    endloop
  endfacet
  facet normal 0 0 1
    outer loop
      vertex 95.19999999999999 -20.7 2
      vertex 90.8 -20.7 2
      vertex 93.73051371481047 -26.047975991650517 2
    endloop
  endfacet
endsolid OpenSCAD_Model
