solid OpenSCAD_Model
  facet normal 0.7518398074789697 0.6593458151000777 0
    outer loop
      vertex 79.04797599165052 -11.930513714810465 2
      vertex 79.15147186257614 -12.048528137423856 0
      vertex 79.04797599165052 -11.930513714810465 0
    endloop
  endfacet
  facet normal 0.8314696123025649 0.555570233019573 0
    outer loop
      vertex 78.96076951545868 -11.799999999999999 2
      vertex 79.04797599165052 -11.930513714810465 0
      vertex 78.96076951545868 -11.799999999999999 0
    endloop
  endfacet
  facet normal 0.6593458151000936 0.7518398074789556 0
    outer loop
      vertex 79.15147186257614 -12.048528137423856 2
      vertex 79.26948628518953 -12.152024008349482 0
      vertex 79.15147186257614 -12.048528137423856 0
    endloop
  endfacet
  facet normal 0.5555702330195651 0.8314696123025701 0
    outer loop
      vertex 79.26948628518953 -12.152024008349482 2
      vertex 79.4 -12.239230484541325 0
      vertex 79.26948628518953 -12.152024008349482 0
    endloop
  endfacet
  facet normal 0.44228869021900913 0.8968727415326845 0
    outer loop
      vertex 79.4 -12.239230484541325 2
      vertex 79.5407798811619 -12.308655439013544 0
      vertex 79.4 -12.239230484541325 0
    endloop
  endfacet
  facet normal 0.8968727415326686 0.44228869021904105 0
    outer loop
      vertex 78.89134456098645 -11.659220118838107 2
      vertex 78.96076951545868 -11.799999999999999 0
      vertex 78.89134456098645 -11.659220118838107 0
    endloop
  endfacet
  facet normal 0.9469301294951094 0.32143946530315076 0
    outer loop
      vertex 78.84088900845312 -11.510582854123024 2
      vertex 78.89134456098645 -11.659220118838107 0
      vertex 78.84088900845312 -11.510582854123024 0
    endloop
  endfacet
  facet normal 0.9807852804032281 0.19509032201614018 0
    outer loop
      vertex 78.81026616635143 -11.356631430664061 2
      vertex 78.84088900845312 -11.510582854123024 0
      vertex 78.81026616635143 -11.356631430664061 0
    endloop
  endfacet
  facet normal 0.9978589232386031 0.06540312923014815 0
    outer loop
      vertex 78.8 -11.2 2
      vertex 78.81026616635143 -11.356631430664061 0
      vertex 78.8 -11.2 0
    endloop
  endfacet
  facet normal 0.9978589232386031 -0.06540312923014815 0
    outer loop
      vertex 78.81026616635143 -11.043368569335938 2
      vertex 78.8 -11.2 0
      vertex 78.81026616635143 -11.043368569335938 0
    endloop
  endfacet
  facet normal 0.9807852804032281 -0.19509032201614018 0
    outer loop
      vertex 78.84088900845312 -10.889417145876974 2
      vertex 78.81026616635143 -11.043368569335938 0
      vertex 78.84088900845312 -10.889417145876974 0
    endloop
  endfacet
  facet normal 0.9469301294951094 -0.32143946530315076 0
    outer loop
      vertex 78.89134456098645 -10.740779881161892 2
      vertex 78.84088900845312 -10.889417145876974 0
      vertex 78.89134456098645 -10.740779881161892 0
    endloop
  endfacet
  facet normal 0.8968727415326686 -0.44228869021904105 0
    outer loop
      vertex 78.96076951545868 -10.6 2
      vertex 78.89134456098645 -10.740779881161892 0
      vertex 78.96076951545868 -10.6 0
    endloop
  endfacet
  facet normal 0.8314696123025649 -0.555570233019573 0
    outer loop
      vertex 79.04797599165052 -10.469486285189534 2
      vertex 78.96076951545868 -10.6 0
      vertex 79.04797599165052 -10.469486285189534 0
    endloop
  endfacet
  facet normal 0.06540312923013615 0.997858923238604 0
    outer loop
      vertex 79.84336856933594 -12.389733833648572 2
      vertex 80 -12.399999999999999 0
      vertex 79.84336856933594 -12.389733833648572 0
    endloop
  endfacet
  facet normal -0.06540312923013615 0.997858923238604 0
    outer loop
      vertex 80 -12.399999999999999 2
      vertex 80.15663143066406 -12.389733833648572 0
      vertex 80 -12.399999999999999 0
    endloop
  endfacet
  facet normal -0.1950903220161293 0.9807852804032303 0
    outer loop
      vertex 80.15663143066406 -12.389733833648572 2
      vertex 80.31058285412303 -12.359110991546881 0
      vertex 80.15663143066406 -12.389733833648572 0
    endloop
  endfacet
  facet normal 0.32143946530317125 0.9469301294951024 0
    outer loop
      vertex 79.5407798811619 -12.308655439013544 2
      vertex 79.68941714587697 -12.359110991546881 0
      vertex 79.5407798811619 -12.308655439013544 0
    endloop
  endfacet
  facet normal 0.1950903220161293 0.9807852804032303 0
    outer loop
      vertex 79.68941714587697 -12.359110991546881 2
      vertex 79.84336856933594 -12.389733833648572 0
      vertex 79.68941714587697 -12.359110991546881 0
    endloop
  endfacet
  facet normal -0.32143946530317125 0.9469301294951024 0
    outer loop
      vertex 80.31058285412303 -12.359110991546881 2
      vertex 80.4592201188381 -12.308655439013544 0
      vertex 80.31058285412303 -12.359110991546881 0
    endloop
  endfacet
  facet normal -0.44228869021900913 0.8968727415326845 0
    outer loop
      vertex 80.4592201188381 -12.308655439013544 2
      vertex 80.6 -12.239230484541325 0
      vertex 80.4592201188381 -12.308655439013544 0
    endloop
  endfacet
  facet normal -0.5555702330195651 0.8314696123025701 0
    outer loop
      vertex 80.6 -12.239230484541325 2
      vertex 80.73051371481047 -12.152024008349482 0
      vertex 80.6 -12.239230484541325 0
    endloop
  endfacet
  facet normal -0.6593458151000936 0.7518398074789556 0
    outer loop
      vertex 80.73051371481047 -12.152024008349482 2
      vertex 80.84852813742386 -12.048528137423856 0
      vertex 80.73051371481047 -12.152024008349482 0
    endloop
  endfacet
  facet normal -0.7518398074789697 0.6593458151000777 0
    outer loop
      vertex 80.84852813742386 -12.048528137423856 0
      vertex 80.84852813742386 -12.048528137423856 2
      vertex 80.95202400834948 -11.930513714810465 0
    endloop
  endfacet
  facet normal -0.8314696123025649 0.555570233019573 0
    outer loop
      vertex 80.95202400834948 -11.930513714810465 2
      vertex 81.03923048454132 -11.799999999999999 0
      vertex 80.95202400834948 -11.930513714810465 0
    endloop
  endfacet
  facet normal -0.8968727415326686 0.44228869021904105 0
    outer loop
      vertex 81.03923048454132 -11.799999999999999 2
      vertex 81.10865543901355 -11.659220118838107 0
      vertex 81.03923048454132 -11.799999999999999 0
    endloop
  endfacet
  facet normal -0.8968727415326686 -0.44228869021904105 0
    outer loop
      vertex 81.10865543901355 -10.740779881161892 2
      vertex 81.03923048454132 -10.6 0
      vertex 81.10865543901355 -10.740779881161892 0
    endloop
  endfacet
  facet normal -0.8314696123025649 -0.555570233019573 0
    outer loop
      vertex 80.95202400834948 -10.469486285189534 0
      vertex 81.03923048454132 -10.6 0
      vertex 81.03923048454132 -10.6 2
    endloop
  endfacet
  facet normal 0.7518398074789697 -0.6593458151000777 0
    outer loop
      vertex 79.15147186257614 -10.351471862576142 2
      vertex 79.04797599165052 -10.469486285189534 0
      vertex 79.15147186257614 -10.351471862576142 0
    endloop
  endfacet
  facet normal 0.6593458151000936 -0.7518398074789556 0
    outer loop
      vertex 79.26948628518953 -10.247975991650517 2
      vertex 79.15147186257614 -10.351471862576142 0
      vertex 79.26948628518953 -10.247975991650517 0
    endloop
  endfacet
  facet normal 0.5555702330195651 -0.8314696123025701 0
    outer loop
      vertex 79.4 -10.160769515458673 2
      vertex 79.26948628518953 -10.247975991650517 0
      vertex 79.4 -10.160769515458673 0
    endloop
  endfacet
  facet normal 0.44228869021900913 -0.8968727415326845 0
    outer loop
      vertex 79.5407798811619 -10.091344560986455 2
      vertex 79.4 -10.160769515458673 0
      vertex 79.5407798811619 -10.091344560986455 0
    endloop
  endfacet
  facet normal 0.32143946530317125 -0.9469301294951024 0
    outer loop
      vertex 79.68941714587697 -10.040889008453117 2
      vertex 79.5407798811619 -10.091344560986455 0
      vertex 79.68941714587697 -10.040889008453117 0
    endloop
  endfacet
  facet normal 0.1950903220161293 -0.9807852804032303 0
    outer loop
      vertex 79.84336856933594 -10.010266166351427 2
      vertex 79.68941714587697 -10.040889008453117 0
      vertex 79.84336856933594 -10.010266166351427 0
    endloop
  endfacet
  facet normal 0.06540312923013615 -0.997858923238604 0
    outer loop
      vertex 80 -10 2
      vertex 79.84336856933594 -10.010266166351427 0
      vertex 80 -10 0
    endloop
  endfacet
  facet normal -0.06540312923013615 -0.997858923238604 0
    outer loop
      vertex 80.15663143066406 -10.010266166351427 2
      vertex 80 -10 0
      vertex 80.15663143066406 -10.010266166351427 0
    endloop
  endfacet
  facet normal -0.1950903220161293 -0.9807852804032303 0
    outer loop
      vertex 80.31058285412303 -10.040889008453117 2
      vertex 80.15663143066406 -10.010266166351427 0
      vertex 80.31058285412303 -10.040889008453117 0
    endloop
  endfacet
  facet normal -0.5555702330195651 -0.8314696123025701 0
    outer loop
      vertex 80.73051371481047 -10.247975991650517 2
      vertex 80.6 -10.160769515458673 0
      vertex 80.73051371481047 -10.247975991650517 0
    endloop
  endfacet
  facet normal -0.32143946530317125 -0.9469301294951024 0
    outer loop
      vertex 80.4592201188381 -10.091344560986455 2
      vertex 80.31058285412303 -10.040889008453117 0
      vertex 80.4592201188381 -10.091344560986455 0
    endloop
  endfacet
  facet normal -0.44228869021900913 -0.8968727415326845 0
    outer loop
      vertex 80.6 -10.160769515458673 2
      vertex 80.4592201188381 -10.091344560986455 0
      vertex 80.6 -10.160769515458673 0
    endloop
  endfacet
  facet normal -0.7518398074789697 -0.6593458151000777 0
    outer loop
      vertex 80.95202400834948 -10.469486285189534 2
      vertex 80.84852813742386 -10.351471862576142 0
      vertex 80.95202400834948 -10.469486285189534 0
    endloop
  endfacet
  facet normal -0.6593458151000936 -0.7518398074789556 0
    outer loop
      vertex 80.84852813742386 -10.351471862576142 2
      vertex 80.73051371481047 -10.247975991650517 0
      vertex 80.84852813742386 -10.351471862576142 0
    endloop
  endfacet
  facet normal -0.9469301294951094 0.32143946530315076 0
    outer loop
      vertex 81.10865543901355 -11.659220118838107 2
      vertex 81.15911099154688 -11.510582854123024 0
      vertex 81.10865543901355 -11.659220118838107 0
    endloop
  endfacet
  facet normal -0.9807852804032281 0.19509032201614018 0
    outer loop
      vertex 81.15911099154688 -11.510582854123024 2
      vertex 81.18973383364857 -11.356631430664061 0
      vertex 81.15911099154688 -11.510582854123024 0
    endloop
  endfacet
  facet normal -0.9978589232386031 0.06540312923014815 0
    outer loop
      vertex 81.18973383364857 -11.356631430664061 0
      vertex 81.18973383364857 -11.356631430664061 2
      vertex 81.2 -11.2 0
    endloop
  endfacet
  facet normal -0.9978589232386031 -0.06540312923014815 0
    outer loop
      vertex 81.2 -11.2 0
      vertex 81.2 -11.2 2
      vertex 81.18973383364857 -11.043368569335938 0
    endloop
  endfacet
  facet normal -0.9807852804032281 -0.19509032201614018 0
    outer loop
      vertex 81.18973383364857 -11.043368569335938 2
      vertex 81.15911099154688 -10.889417145876974 0
      vertex 81.18973383364857 -11.043368569335938 0
    endloop
  endfacet
  facet normal -0.9469301294951094 -0.32143946530315076 0
    outer loop
      vertex 81.15911099154688 -10.889417145876974 2
      vertex 81.10865543901355 -10.740779881161892 0
      vertex 81.15911099154688 -10.889417145876974 0
    endloop
  endfacet
  facet normal 0.8968727415326686 0.44228869021904105 0
    outer loop
      vertex 78.89134456098645 -11.659220118838107 2
      vertex 78.96076951545868 -11.799999999999999 2
      vertex 78.96076951545868 -11.799999999999999 0
    endloop
  endfacet
  facet normal 0.7518398074789697 0.6593458151000777 0
    outer loop
      vertex 79.04797599165052 -11.930513714810465 2
      vertex 79.15147186257614 -12.048528137423856 2
      vertex 79.15147186257614 -12.048528137423856 0
    endloop
  endfacet
  facet normal 0.8314696123025649 0.555570233019573 0
    outer loop
      vertex 78.96076951545868 -11.799999999999999 2
      vertex 79.04797599165052 -11.930513714810465 2
      vertex 79.04797599165052 -11.930513714810465 0
    endloop
  endfacet
  facet normal 0.6593458151000936 0.7518398074789556 0
    outer loop
      vertex 79.26948628518953 -12.152024008349482 2
      vertex 79.26948628518953 -12.152024008349482 0
      vertex 79.15147186257614 -12.048528137423856 2
    endloop
  endfacet
  facet normal 0.5555702330195651 0.8314696123025701 0
    outer loop
      vertex 79.4 -12.239230484541325 2
      vertex 79.4 -12.239230484541325 0
      vertex 79.26948628518953 -12.152024008349482 2
    endloop
  endfacet
  facet normal 0.44228869021900913 0.8968727415326845 0
    outer loop
      vertex 79.5407798811619 -12.308655439013544 2
      vertex 79.5407798811619 -12.308655439013544 0
      vertex 79.4 -12.239230484541325 2
    endloop
  endfacet
  facet normal 0.9469301294951094 0.32143946530315076 0
    outer loop
      vertex 78.84088900845312 -11.510582854123024 2
      vertex 78.89134456098645 -11.659220118838107 2
      vertex 78.89134456098645 -11.659220118838107 0
    endloop
  endfacet
  facet normal 0.9807852804032281 0.19509032201614018 0
    outer loop
      vertex 78.81026616635143 -11.356631430664061 2
      vertex 78.84088900845312 -11.510582854123024 2
      vertex 78.84088900845312 -11.510582854123024 0
    endloop
  endfacet
  facet normal 0.9978589232386031 0.06540312923014815 0
    outer loop
      vertex 78.8 -11.2 2
      vertex 78.81026616635143 -11.356631430664061 2
      vertex 78.81026616635143 -11.356631430664061 0
    endloop
  endfacet
  facet normal 0.9978589232386031 -0.06540312923014815 0
    outer loop
      vertex 78.81026616635143 -11.043368569335938 2
      vertex 78.8 -11.2 2
      vertex 78.8 -11.2 0
    endloop
  endfacet
  facet normal 0.9807852804032281 -0.19509032201614018 0
    outer loop
      vertex 78.84088900845312 -10.889417145876974 2
      vertex 78.81026616635143 -11.043368569335938 2
      vertex 78.81026616635143 -11.043368569335938 0
    endloop
  endfacet
  facet normal 0.9469301294951094 -0.32143946530315076 0
    outer loop
      vertex 78.89134456098645 -10.740779881161892 2
      vertex 78.84088900845312 -10.889417145876974 2
      vertex 78.84088900845312 -10.889417145876974 0
    endloop
  endfacet
  facet normal 0.8968727415326686 -0.44228869021904105 0
    outer loop
      vertex 78.96076951545868 -10.6 2
      vertex 78.89134456098645 -10.740779881161892 2
      vertex 78.89134456098645 -10.740779881161892 0
    endloop
  endfacet
  facet normal 0.8314696123025649 -0.555570233019573 0
    outer loop
      vertex 79.04797599165052 -10.469486285189534 2
      vertex 78.96076951545868 -10.6 2
      vertex 78.96076951545868 -10.6 0
    endloop
  endfacet
  facet normal 0.1950903220161293 0.9807852804032303 0
    outer loop
      vertex 79.84336856933594 -12.389733833648572 2
      vertex 79.84336856933594 -12.389733833648572 0
      vertex 79.68941714587697 -12.359110991546881 2
    endloop
  endfacet
  facet normal 0.06540312923013615 0.997858923238604 0
    outer loop
      vertex 80 -12.399999999999999 2
      vertex 80 -12.399999999999999 0
      vertex 79.84336856933594 -12.389733833648572 2
    endloop
  endfacet
  facet normal -0.06540312923013615 0.997858923238604 0
    outer loop
      vertex 80.15663143066406 -12.389733833648572 2
      vertex 80.15663143066406 -12.389733833648572 0
      vertex 80 -12.399999999999999 2
    endloop
  endfacet
  facet normal 0.32143946530317125 0.9469301294951024 0
    outer loop
      vertex 79.68941714587697 -12.359110991546881 2
      vertex 79.68941714587697 -12.359110991546881 0
      vertex 79.5407798811619 -12.308655439013544 2
    endloop
  endfacet
  facet normal -0.1950903220161293 0.9807852804032303 0
    outer loop
      vertex 80.31058285412303 -12.359110991546881 2
      vertex 80.31058285412303 -12.359110991546881 0
      vertex 80.15663143066406 -12.389733833648572 2
    endloop
  endfacet
  facet normal -0.32143946530317125 0.9469301294951024 0
    outer loop
      vertex 80.4592201188381 -12.308655439013544 2
      vertex 80.4592201188381 -12.308655439013544 0
      vertex 80.31058285412303 -12.359110991546881 2
    endloop
  endfacet
  facet normal -0.44228869021900913 0.8968727415326845 0
    outer loop
      vertex 80.6 -12.239230484541325 2
      vertex 80.6 -12.239230484541325 0
      vertex 80.4592201188381 -12.308655439013544 2
    endloop
  endfacet
  facet normal -0.5555702330195651 0.8314696123025701 0
    outer loop
      vertex 80.73051371481047 -12.152024008349482 2
      vertex 80.73051371481047 -12.152024008349482 0
      vertex 80.6 -12.239230484541325 2
    endloop
  endfacet
  facet normal -0.6593458151000936 0.7518398074789556 0
    outer loop
      vertex 80.84852813742386 -12.048528137423856 2
      vertex 80.84852813742386 -12.048528137423856 0
      vertex 80.73051371481047 -12.152024008349482 2
    endloop
  endfacet
  facet normal -0.7518398074789697 0.6593458151000777 0
    outer loop
      vertex 80.84852813742386 -12.048528137423856 2
      vertex 80.95202400834948 -11.930513714810465 2
      vertex 80.95202400834948 -11.930513714810465 0
    endloop
  endfacet
  facet normal -0.8314696123025649 0.555570233019573 0
    outer loop
      vertex 80.95202400834948 -11.930513714810465 2
      vertex 81.03923048454132 -11.799999999999999 2
      vertex 81.03923048454132 -11.799999999999999 0
    endloop
  endfacet
  facet normal -0.8968727415326686 0.44228869021904105 0
    outer loop
      vertex 81.03923048454132 -11.799999999999999 2
      vertex 81.10865543901355 -11.659220118838107 2
      vertex 81.10865543901355 -11.659220118838107 0
    endloop
  endfacet
  facet normal -0.8314696123025649 -0.555570233019573 0
    outer loop
      vertex 81.03923048454132 -10.6 2
      vertex 80.95202400834948 -10.469486285189534 2
      vertex 80.95202400834948 -10.469486285189534 0
    endloop
  endfacet
  facet normal -0.8968727415326686 -0.44228869021904105 0
    outer loop
      vertex 81.10865543901355 -10.740779881161892 2
      vertex 81.03923048454132 -10.6 2
      vertex 81.03923048454132 -10.6 0
    endloop
  endfacet
  facet normal 0.7518398074789697 -0.6593458151000777 0
    outer loop
      vertex 79.15147186257614 -10.351471862576142 2
      vertex 79.04797599165052 -10.469486285189534 2
      vertex 79.04797599165052 -10.469486285189534 0
    endloop
  endfacet
  facet normal 0.6593458151000936 -0.7518398074789556 0
    outer loop
      vertex 79.15147186257614 -10.351471862576142 2
      vertex 79.15147186257614 -10.351471862576142 0
      vertex 79.26948628518953 -10.247975991650517 2
    endloop
  endfacet
  facet normal 0.5555702330195651 -0.8314696123025701 0
    outer loop
      vertex 79.26948628518953 -10.247975991650517 2
      vertex 79.26948628518953 -10.247975991650517 0
      vertex 79.4 -10.160769515458673 2
    endloop
  endfacet
  facet normal 0.44228869021900913 -0.8968727415326845 0
    outer loop
      vertex 79.4 -10.160769515458673 2
      vertex 79.4 -10.160769515458673 0
      vertex 79.5407798811619 -10.091344560986455 2
    endloop
  endfacet
  facet normal 0.32143946530317125 -0.9469301294951024 0
    outer loop
      vertex 79.5407798811619 -10.091344560986455 2
      vertex 79.5407798811619 -10.091344560986455 0
      vertex 79.68941714587697 -10.040889008453117 2
    endloop
  endfacet
  facet normal 0.1950903220161293 -0.9807852804032303 0
    outer loop
      vertex 79.68941714587697 -10.040889008453117 2
      vertex 79.68941714587697 -10.040889008453117 0
      vertex 79.84336856933594 -10.010266166351427 2
    endloop
  endfacet
  facet normal 0.06540312923013615 -0.997858923238604 0
    outer loop
      vertex 79.84336856933594 -10.010266166351427 2
      vertex 79.84336856933594 -10.010266166351427 0
      vertex 80 -10 2
    endloop
  endfacet
  facet normal -0.06540312923013615 -0.997858923238604 0
    outer loop
      vertex 80 -10 2
      vertex 80 -10 0
      vertex 80.15663143066406 -10.010266166351427 2
    endloop
  endfacet
  facet normal -0.1950903220161293 -0.9807852804032303 0
    outer loop
      vertex 80.15663143066406 -10.010266166351427 2
      vertex 80.15663143066406 -10.010266166351427 0
      vertex 80.31058285412303 -10.040889008453117 2
    endloop
  endfacet
  facet normal -0.5555702330195651 -0.8314696123025701 0
    outer loop
      vertex 80.6 -10.160769515458673 2
      vertex 80.6 -10.160769515458673 0
      vertex 80.73051371481047 -10.247975991650517 2
    endloop
  endfacet
  facet normal -0.32143946530317125 -0.9469301294951024 0
    outer loop
      vertex 80.31058285412303 -10.040889008453117 2
      vertex 80.31058285412303 -10.040889008453117 0
      vertex 80.4592201188381 -10.091344560986455 2
    endloop
  endfacet
  facet normal -0.44228869021900913 -0.8968727415326845 0
    outer loop
      vertex 80.4592201188381 -10.091344560986455 2
      vertex 80.4592201188381 -10.091344560986455 0
      vertex 80.6 -10.160769515458673 2
    endloop
  endfacet
  facet normal -0.7518398074789697 -0.6593458151000777 0
    outer loop
      vertex 80.95202400834948 -10.469486285189534 2
      vertex 80.84852813742386 -10.351471862576142 2
      vertex 80.84852813742386 -10.351471862576142 0
    endloop
  endfacet
  facet normal -0.6593458151000936 -0.7518398074789556 0
    outer loop
      vertex 80.73051371481047 -10.247975991650517 2
      vertex 80.73051371481047 -10.247975991650517 0
      vertex 80.84852813742386 -10.351471862576142 2
    endloop
  endfacet
  facet normal -0.9469301294951094 0.32143946530315076 0
    outer loop
      vertex 81.10865543901355 -11.659220118838107 2
      vertex 81.15911099154688 -11.510582854123024 2
      vertex 81.15911099154688 -11.510582854123024 0
    endloop
  endfacet
  facet normal -0.9807852804032281 0.19509032201614018 0
    outer loop
      vertex 81.15911099154688 -11.510582854123024 2
      vertex 81.18973383364857 -11.356631430664061 2
      vertex 81.18973383364857 -11.356631430664061 0
    endloop
  endfacet
  facet normal -0.9978589232386031 0.06540312923014815 0
    outer loop
      vertex 81.18973383364857 -11.356631430664061 2
      vertex 81.2 -11.2 2
      vertex 81.2 -11.2 0
    endloop
  endfacet
  facet normal -0.9978589232386031 -0.06540312923014815 0
    outer loop
      vertex 81.2 -11.2 2
      vertex 81.18973383364857 -11.043368569335938 2
      vertex 81.18973383364857 -11.043368569335938 0
    endloop
  endfacet
  facet normal -0.9807852804032281 -0.19509032201614018 0
    outer loop
      vertex 81.18973383364857 -11.043368569335938 2
      vertex 81.15911099154688 -10.889417145876974 2
      vertex 81.15911099154688 -10.889417145876974 0
    endloop
  endfacet
  facet normal -0.9469301294951094 -0.32143946530315076 0
    outer loop
      vertex 81.15911099154688 -10.889417145876974 2
      vertex 81.10865543901355 -10.740779881161892 2
      vertex 81.10865543901355 -10.740779881161892 0
    endloop
  endfacet
  facet normal 0.7518398074789697 0.6593458151000777 0
    outer loop
      vertex 88.04797599165052 -11.930513714810465 2
      vertex 88.15147186257614 -12.048528137423856 0
      vertex 88.04797599165052 -11.930513714810465 0
    endloop
  endfacet
  facet normal 0.8314696123025649 0.555570233019573 0
    outer loop
      vertex 87.96076951545868 -11.799999999999999 2
      vertex 88.04797599165052 -11.930513714810465 0
      vertex 87.96076951545868 -11.799999999999999 0
    endloop
  endfacet
  facet normal 0.06540312923013615 0.997858923238604 0
    outer loop
      vertex 88.84336856933594 -12.389733833648572 2
      vertex 89 -12.399999999999999 0
      vertex 88.84336856933594 -12.389733833648572 0
    endloop
  endfacet
  facet normal 0.6593458151000936 0.7518398074789556 0
    outer loop
      vertex 88.26948628518953 -12.152024008349482 0
      vertex 88.15147186257614 -12.048528137423856 0
      vertex 88.15147186257614 -12.048528137423856 2
    endloop
  endfacet
  facet normal 0.5555702330195651 0.8314696123025701 0
    outer loop
      vertex 88.26948628518953 -12.152024008349482 2
      vertex 88.4 -12.239230484541325 0
      vertex 88.26948628518953 -12.152024008349482 0
    endloop
  endfacet
  facet normal 0.44228869021900913 0.8968727415326845 0
    outer loop
      vertex 88.4 -12.239230484541325 2
      vertex 88.5407798811619 -12.308655439013544 0
      vertex 88.4 -12.239230484541325 0
    endloop
  endfacet
  facet normal 0.32143946530317125 0.9469301294951024 0
    outer loop
      vertex 88.5407798811619 -12.308655439013544 2
      vertex 88.68941714587697 -12.359110991546881 0
      vertex 88.5407798811619 -12.308655439013544 0
    endloop
  endfacet
  facet normal 0.1950903220161293 0.9807852804032303 0
    outer loop
      vertex 88.68941714587697 -12.359110991546881 2
      vertex 88.84336856933594 -12.389733833648572 0
      vertex 88.68941714587697 -12.359110991546881 0
    endloop
  endfacet
  facet normal 0.8968727415326686 0.44228869021904105 0
    outer loop
      vertex 87.89134456098645 -11.659220118838107 2
      vertex 87.96076951545868 -11.799999999999999 0
      vertex 87.89134456098645 -11.659220118838107 0
    endloop
  endfacet
  facet normal 0.9469301294951094 0.32143946530315076 0
    outer loop
      vertex 87.84088900845312 -11.510582854123024 2
      vertex 87.89134456098645 -11.659220118838107 0
      vertex 87.84088900845312 -11.510582854123024 0
    endloop
  endfacet
  facet normal 0.9807852804032281 0.19509032201614018 0
    outer loop
      vertex 87.81026616635143 -11.356631430664061 2
      vertex 87.84088900845312 -11.510582854123024 0
      vertex 87.81026616635143 -11.356631430664061 0
    endloop
  endfacet
  facet normal 0.9978589232386031 0.06540312923014815 0
    outer loop
      vertex 87.8 -11.2 2
      vertex 87.81026616635143 -11.356631430664061 0
      vertex 87.8 -11.2 0
    endloop
  endfacet
  facet normal 0.9978589232386031 -0.06540312923014815 0
    outer loop
      vertex 87.81026616635143 -11.043368569335938 2
      vertex 87.8 -11.2 0
      vertex 87.81026616635143 -11.043368569335938 0
    endloop
  endfacet
  facet normal 0.9807852804032281 -0.19509032201614018 0
    outer loop
      vertex 87.84088900845312 -10.889417145876974 2
      vertex 87.81026616635143 -11.043368569335938 0
      vertex 87.84088900845312 -10.889417145876974 0
    endloop
  endfacet
  facet normal 0.9469301294951094 -0.32143946530315076 0
    outer loop
      vertex 87.84088900845312 -10.889417145876974 0
      vertex 87.89134456098645 -10.740779881161892 0
      vertex 87.89134456098645 -10.740779881161892 2
    endloop
  endfacet
  facet normal 0.8968727415326686 -0.44228869021904105 0
    outer loop
      vertex 87.89134456098645 -10.740779881161892 0
      vertex 87.96076951545868 -10.6 0
      vertex 87.96076951545868 -10.6 2
    endloop
  endfacet
  facet normal 0.8314696123025649 -0.555570233019573 0
    outer loop
      vertex 87.96076951545868 -10.6 0
      vertex 88.04797599165052 -10.469486285189534 0
      vertex 88.04797599165052 -10.469486285189534 2
    endloop
  endfacet
  facet normal -0.06540312923013615 0.997858923238604 0
    outer loop
      vertex 89 -12.399999999999999 2
      vertex 89.15663143066406 -12.389733833648572 0
      vertex 89 -12.399999999999999 0
    endloop
  endfacet
  facet normal -0.1950903220161293 0.9807852804032303 0
    outer loop
      vertex 89.15663143066406 -12.389733833648572 2
      vertex 89.31058285412303 -12.359110991546881 0
      vertex 89.15663143066406 -12.389733833648572 0
    endloop
  endfacet
  facet normal -0.32143946530317125 0.9469301294951024 0
    outer loop
      vertex 89.31058285412303 -12.359110991546881 2
      vertex 89.4592201188381 -12.308655439013544 0
      vertex 89.31058285412303 -12.359110991546881 0
    endloop
  endfacet
  facet normal -0.44228869021900913 0.8968727415326845 0
    outer loop
      vertex 89.4592201188381 -12.308655439013544 2
      vertex 89.6 -12.239230484541325 0
      vertex 89.4592201188381 -12.308655439013544 0
    endloop
  endfacet
  facet normal -0.5555702330195651 0.8314696123025701 0
    outer loop
      vertex 89.6 -12.239230484541325 0
      vertex 89.6 -12.239230484541325 2
      vertex 89.73051371481047 -12.152024008349482 0
    endloop
  endfacet
  facet normal -0.6593458151000936 0.7518398074789556 0
    outer loop
      vertex 89.73051371481047 -12.152024008349482 0
      vertex 89.73051371481047 -12.152024008349482 2
      vertex 89.84852813742386 -12.048528137423856 0
    endloop
  endfacet
  facet normal -0.7518398074789697 0.6593458151000777 0
    outer loop
      vertex 89.84852813742386 -12.048528137423856 0
      vertex 89.84852813742386 -12.048528137423856 2
      vertex 89.95202400834948 -11.930513714810465 0
    endloop
  endfacet
  facet normal -0.8314696123025649 0.555570233019573 0
    outer loop
      vertex 90.03923048454132 -11.799999999999999 0
      vertex 89.95202400834948 -11.930513714810465 0
      vertex 89.95202400834948 -11.930513714810465 2
    endloop
  endfacet
  facet normal -0.8968727415326686 0.44228869021904105 0
    outer loop
      vertex 90.10865543901355 -11.659220118838107 0
      vertex 90.03923048454132 -11.799999999999999 0
      vertex 90.03923048454132 -11.799999999999999 2
    endloop
  endfacet
  facet normal -0.9469301294951094 0.32143946530315076 0
    outer loop
      vertex 90.15911099154688 -11.510582854123024 0
      vertex 90.10865543901355 -11.659220118838107 0
      vertex 90.10865543901355 -11.659220118838107 2
    endloop
  endfacet
  facet normal -0.9807852804032281 0.19509032201614018 0
    outer loop
      vertex 90.18973383364857 -11.356631430664061 0
      vertex 90.15911099154688 -11.510582854123024 0
      vertex 90.15911099154688 -11.510582854123024 2
    endloop
  endfacet
  facet normal -0.9978589232386031 0.06540312923014815 0
    outer loop
      vertex 90.18973383364857 -11.356631430664061 0
      vertex 90.18973383364857 -11.356631430664061 2
      vertex 90.2 -11.2 0
    endloop
  endfacet
  facet normal -0.9978589232386031 -0.06540312923014815 0
    outer loop
      vertex 90.2 -11.2 0
      vertex 90.2 -11.2 2
      vertex 90.18973383364857 -11.043368569335938 0
    endloop
  endfacet
  facet normal -0.8968727415326686 -0.44228869021904105 0
    outer loop
      vertex 90.03923048454132 -10.6 0
      vertex 90.10865543901355 -10.740779881161892 0
      vertex 90.10865543901355 -10.740779881161892 2
    endloop
  endfacet
  facet normal -0.8314696123025649 -0.555570233019573 0
    outer loop
      vertex 89.95202400834948 -10.469486285189534 0
      vertex 90.03923048454132 -10.6 0
      vertex 90.03923048454132 -10.6 2
    endloop
  endfacet
  facet normal -0.9807852804032281 -0.19509032201614018 0
    outer loop
      vertex 90.15911099154688 -10.889417145876974 0
      vertex 90.18973383364857 -11.043368569335938 0
      vertex 90.18973383364857 -11.043368569335938 2
    endloop
  endfacet
  facet normal -0.9469301294951094 -0.32143946530315076 0
    outer loop
      vertex 90.10865543901355 -10.740779881161892 0
      vertex 90.15911099154688 -10.889417145876974 0
      vertex 90.15911099154688 -10.889417145876974 2
    endloop
  endfacet
  facet normal 0.7518398074789697 -0.6593458151000777 0
    outer loop
      vertex 88.04797599165052 -10.469486285189534 0
      vertex 88.15147186257614 -10.351471862576142 0
      vertex 88.15147186257614 -10.351471862576142 2
    endloop
  endfacet
  facet normal 0.6593458151000936 -0.7518398074789556 0
    outer loop
      vertex 88.26948628518953 -10.247975991650517 0
      vertex 88.26948628518953 -10.247975991650517 2
      vertex 88.15147186257614 -10.351471862576142 0
    endloop
  endfacet
  facet normal 0.5555702330195651 -0.8314696123025701 0
    outer loop
      vertex 88.4 -10.160769515458673 0
      vertex 88.4 -10.160769515458673 2
      vertex 88.26948628518953 -10.247975991650517 0
    endloop
  endfacet
  facet normal 0.44228869021900913 -0.8968727415326845 0
    outer loop
      vertex 88.5407798811619 -10.091344560986455 0
      vertex 88.5407798811619 -10.091344560986455 2
      vertex 88.4 -10.160769515458673 0
    endloop
  endfacet
  facet normal 0.32143946530317125 -0.9469301294951024 0
    outer loop
      vertex 88.68941714587697 -10.040889008453117 0
      vertex 88.68941714587697 -10.040889008453117 2
      vertex 88.5407798811619 -10.091344560986455 0
    endloop
  endfacet
  facet normal 0.1950903220161293 -0.9807852804032303 0
    outer loop
      vertex 88.84336856933594 -10.010266166351427 0
      vertex 88.84336856933594 -10.010266166351427 2
      vertex 88.68941714587697 -10.040889008453117 0
    endloop
  endfacet
  facet normal 0.06540312923013615 -0.997858923238604 0
    outer loop
      vertex 89 -10 0
      vertex 89 -10 2
      vertex 88.84336856933594 -10.010266166351427 0
    endloop
  endfacet
  facet normal -0.06540312923013615 -0.997858923238604 0
    outer loop
      vertex 89.15663143066406 -10.010266166351427 0
      vertex 89.15663143066406 -10.010266166351427 2
      vertex 89 -10 0
    endloop
  endfacet
  facet normal -0.1950903220161293 -0.9807852804032303 0
    outer loop
      vertex 89.31058285412303 -10.040889008453117 0
      vertex 89.31058285412303 -10.040889008453117 2
      vertex 89.15663143066406 -10.010266166351427 0
    endloop
  endfacet
  facet normal -0.5555702330195651 -0.8314696123025701 0
    outer loop
      vertex 89.73051371481047 -10.247975991650517 0
      vertex 89.73051371481047 -10.247975991650517 2
      vertex 89.6 -10.160769515458673 0
    endloop
  endfacet
  facet normal -0.32143946530317125 -0.9469301294951024 0
    outer loop
      vertex 89.4592201188381 -10.091344560986455 0
      vertex 89.4592201188381 -10.091344560986455 2
      vertex 89.31058285412303 -10.040889008453117 0
    endloop
  endfacet
  facet normal -0.44228869021900913 -0.8968727415326845 0
    outer loop
      vertex 89.6 -10.160769515458673 0
      vertex 89.6 -10.160769515458673 2
      vertex 89.4592201188381 -10.091344560986455 0
    endloop
  endfacet
  facet normal -0.6593458151000936 -0.7518398074789556 0
    outer loop
      vertex 89.73051371481047 -10.247975991650517 0
      vertex 89.84852813742386 -10.351471862576142 0
      vertex 89.84852813742386 -10.351471862576142 2
    endloop
  endfacet
  facet normal -0.7518398074789697 -0.6593458151000777 0
    outer loop
      vertex 89.84852813742386 -10.351471862576142 0
      vertex 89.95202400834948 -10.469486285189534 0
      vertex 89.95202400834948 -10.469486285189534 2
    endloop
  endfacet
  facet normal 0.8968727415326686 0.44228869021904105 0
    outer loop
      vertex 87.89134456098645 -11.659220118838107 2
      vertex 87.96076951545868 -11.799999999999999 2
      vertex 87.96076951545868 -11.799999999999999 0
    endloop
  endfacet
  facet normal 0.7518398074789697 0.6593458151000777 0
    outer loop
      vertex 88.04797599165052 -11.930513714810465 2
      vertex 88.15147186257614 -12.048528137423856 2
      vertex 88.15147186257614 -12.048528137423856 0
    endloop
  endfacet
  facet normal 0.8314696123025649 0.555570233019573 0
    outer loop
      vertex 87.96076951545868 -11.799999999999999 2
      vertex 88.04797599165052 -11.930513714810465 2
      vertex 88.04797599165052 -11.930513714810465 0
    endloop
  endfacet
  facet normal 0.1950903220161293 0.9807852804032303 0
    outer loop
      vertex 88.84336856933594 -12.389733833648572 2
      vertex 88.84336856933594 -12.389733833648572 0
      vertex 88.68941714587697 -12.359110991546881 2
    endloop
  endfacet
  facet normal 0.6593458151000936 0.7518398074789556 0
    outer loop
      vertex 88.26948628518953 -12.152024008349482 2
      vertex 88.26948628518953 -12.152024008349482 0
      vertex 88.15147186257614 -12.048528137423856 2
    endloop
  endfacet
  facet normal 0.44228869021900913 0.8968727415326845 0
    outer loop
      vertex 88.5407798811619 -12.308655439013544 2
      vertex 88.5407798811619 -12.308655439013544 0
      vertex 88.4 -12.239230484541325 2
    endloop
  endfacet
  facet normal 0.5555702330195651 0.8314696123025701 0
    outer loop
      vertex 88.4 -12.239230484541325 2
      vertex 88.4 -12.239230484541325 0
      vertex 88.26948628518953 -12.152024008349482 2
    endloop
  endfacet
  facet normal 0.32143946530317125 0.9469301294951024 0
    outer loop
      vertex 88.68941714587697 -12.359110991546881 2
      vertex 88.68941714587697 -12.359110991546881 0
      vertex 88.5407798811619 -12.308655439013544 2
    endloop
  endfacet
  facet normal 0.9469301294951094 0.32143946530315076 0
    outer loop
      vertex 87.84088900845312 -11.510582854123024 2
      vertex 87.89134456098645 -11.659220118838107 2
      vertex 87.89134456098645 -11.659220118838107 0
    endloop
  endfacet
  facet normal 0.9807852804032281 0.19509032201614018 0
    outer loop
      vertex 87.81026616635143 -11.356631430664061 2
      vertex 87.84088900845312 -11.510582854123024 2
      vertex 87.84088900845312 -11.510582854123024 0
    endloop
  endfacet
  facet normal 0.9978589232386031 0.06540312923014815 0
    outer loop
      vertex 87.8 -11.2 2
      vertex 87.81026616635143 -11.356631430664061 2
      vertex 87.81026616635143 -11.356631430664061 0
    endloop
  endfacet
  facet normal 0.9978589232386031 -0.06540312923014815 0
    outer loop
      vertex 87.81026616635143 -11.043368569335938 2
      vertex 87.8 -11.2 2
      vertex 87.8 -11.2 0
    endloop
  endfacet
  facet normal 0.9807852804032281 -0.19509032201614018 0
    outer loop
      vertex 87.84088900845312 -10.889417145876974 2
      vertex 87.81026616635143 -11.043368569335938 2
      vertex 87.81026616635143 -11.043368569335938 0
    endloop
  endfacet
  facet normal 0.9469301294951094 -0.32143946530315076 0
    outer loop
      vertex 87.89134456098645 -10.740779881161892 2
      vertex 87.84088900845312 -10.889417145876974 2
      vertex 87.84088900845312 -10.889417145876974 0
    endloop
  endfacet
  facet normal 0.8968727415326686 -0.44228869021904105 0
    outer loop
      vertex 87.89134456098645 -10.740779881161892 0
      vertex 87.96076951545868 -10.6 2
      vertex 87.89134456098645 -10.740779881161892 2
    endloop
  endfacet
  facet normal 0.8314696123025649 -0.555570233019573 0
    outer loop
      vertex 87.96076951545868 -10.6 0
      vertex 88.04797599165052 -10.469486285189534 2
      vertex 87.96076951545868 -10.6 2
    endloop
  endfacet
  facet normal 0.06540312923013615 0.997858923238604 0
    outer loop
      vertex 89 -12.399999999999999 2
      vertex 89 -12.399999999999999 0
      vertex 88.84336856933594 -12.389733833648572 2
    endloop
  endfacet
  facet normal -0.06540312923013615 0.997858923238604 0
    outer loop
      vertex 89.15663143066406 -12.389733833648572 2
      vertex 89.15663143066406 -12.389733833648572 0
      vertex 89 -12.399999999999999 2
    endloop
  endfacet
  facet normal -0.1950903220161293 0.9807852804032303 0
    outer loop
      vertex 89.31058285412303 -12.359110991546881 2
      vertex 89.31058285412303 -12.359110991546881 0
      vertex 89.15663143066406 -12.389733833648572 2
    endloop
  endfacet
  facet normal -0.32143946530317125 0.9469301294951024 0
    outer loop
      vertex 89.4592201188381 -12.308655439013544 2
      vertex 89.4592201188381 -12.308655439013544 0
      vertex 89.31058285412303 -12.359110991546881 2
    endloop
  endfacet
  facet normal -0.44228869021900913 0.8968727415326845 0
    outer loop
      vertex 89.6 -12.239230484541325 0
      vertex 89.4592201188381 -12.308655439013544 2
      vertex 89.6 -12.239230484541325 2
    endloop
  endfacet
  facet normal -0.5555702330195651 0.8314696123025701 0
    outer loop
      vertex 89.73051371481047 -12.152024008349482 0
      vertex 89.6 -12.239230484541325 2
      vertex 89.73051371481047 -12.152024008349482 2
    endloop
  endfacet
  facet normal -0.6593458151000936 0.7518398074789556 0
    outer loop
      vertex 89.84852813742386 -12.048528137423856 0
      vertex 89.73051371481047 -12.152024008349482 2
      vertex 89.84852813742386 -12.048528137423856 2
    endloop
  endfacet
  facet normal -0.7518398074789697 0.6593458151000777 0
    outer loop
      vertex 89.95202400834948 -11.930513714810465 0
      vertex 89.84852813742386 -12.048528137423856 2
      vertex 89.95202400834948 -11.930513714810465 2
    endloop
  endfacet
  facet normal -0.8314696123025649 0.555570233019573 0
    outer loop
      vertex 90.03923048454132 -11.799999999999999 0
      vertex 89.95202400834948 -11.930513714810465 2
      vertex 90.03923048454132 -11.799999999999999 2
    endloop
  endfacet
  facet normal -0.8968727415326686 0.44228869021904105 0
    outer loop
      vertex 90.10865543901355 -11.659220118838107 0
      vertex 90.03923048454132 -11.799999999999999 2
      vertex 90.10865543901355 -11.659220118838107 2
    endloop
  endfacet
  facet normal -0.9469301294951094 0.32143946530315076 0
    outer loop
      vertex 90.15911099154688 -11.510582854123024 0
      vertex 90.10865543901355 -11.659220118838107 2
      vertex 90.15911099154688 -11.510582854123024 2
    endloop
  endfacet
  facet normal -0.9807852804032281 0.19509032201614018 0
    outer loop
      vertex 90.18973383364857 -11.356631430664061 0
      vertex 90.15911099154688 -11.510582854123024 2
      vertex 90.18973383364857 -11.356631430664061 2
    endloop
  endfacet
  facet normal -0.9978589232386031 0.06540312923014815 0
    outer loop
      vertex 90.2 -11.2 0
      vertex 90.18973383364857 -11.356631430664061 2
      vertex 90.2 -11.2 2
    endloop
  endfacet
  facet normal -0.8314696123025649 -0.555570233019573 0
    outer loop
      vertex 89.95202400834948 -10.469486285189534 0
      vertex 90.03923048454132 -10.6 2
      vertex 89.95202400834948 -10.469486285189534 2
    endloop
  endfacet
  facet normal -0.8968727415326686 -0.44228869021904105 0
    outer loop
      vertex 90.03923048454132 -10.6 0
      vertex 90.10865543901355 -10.740779881161892 2
      vertex 90.03923048454132 -10.6 2
    endloop
  endfacet
  facet normal -0.9978589232386031 -0.06540312923014815 0
    outer loop
      vertex 90.18973383364857 -11.043368569335938 0
      vertex 90.2 -11.2 2
      vertex 90.18973383364857 -11.043368569335938 2
    endloop
  endfacet
  facet normal -0.9807852804032281 -0.19509032201614018 0
    outer loop
      vertex 90.15911099154688 -10.889417145876974 0
      vertex 90.18973383364857 -11.043368569335938 2
      vertex 90.15911099154688 -10.889417145876974 2
    endloop
  endfacet
  facet normal -0.9469301294951094 -0.32143946530315076 0
    outer loop
      vertex 90.10865543901355 -10.740779881161892 0
      vertex 90.15911099154688 -10.889417145876974 2
      vertex 90.10865543901355 -10.740779881161892 2
    endloop
  endfacet
  facet normal 0.7518398074789697 -0.6593458151000777 0
    outer loop
      vertex 88.04797599165052 -10.469486285189534 0
      vertex 88.15147186257614 -10.351471862576142 2
      vertex 88.04797599165052 -10.469486285189534 2
    endloop
  endfacet
  facet normal 0.6593458151000936 -0.7518398074789556 0
    outer loop
      vertex 88.15147186257614 -10.351471862576142 0
      vertex 88.26948628518953 -10.247975991650517 2
      vertex 88.15147186257614 -10.351471862576142 2
    endloop
  endfacet
  facet normal 0.5555702330195651 -0.8314696123025701 0
    outer loop
      vertex 88.26948628518953 -10.247975991650517 0
      vertex 88.4 -10.160769515458673 2
      vertex 88.26948628518953 -10.247975991650517 2
    endloop
  endfacet
  facet normal 0.44228869021900913 -0.8968727415326845 0
    outer loop
      vertex 88.4 -10.160769515458673 0
      vertex 88.5407798811619 -10.091344560986455 2
      vertex 88.4 -10.160769515458673 2
    endloop
  endfacet
  facet normal 0.32143946530317125 -0.9469301294951024 0
    outer loop
      vertex 88.5407798811619 -10.091344560986455 0
      vertex 88.68941714587697 -10.040889008453117 2
      vertex 88.5407798811619 -10.091344560986455 2
    endloop
  endfacet
  facet normal 0.1950903220161293 -0.9807852804032303 0
    outer loop
      vertex 88.68941714587697 -10.040889008453117 0
      vertex 88.84336856933594 -10.010266166351427 2
      vertex 88.68941714587697 -10.040889008453117 2
    endloop
  endfacet
  facet normal 0.06540312923013615 -0.997858923238604 0
    outer loop
      vertex 88.84336856933594 -10.010266166351427 0
      vertex 89 -10 2
      vertex 88.84336856933594 -10.010266166351427 2
    endloop
  endfacet
  facet normal -0.06540312923013615 -0.997858923238604 0
    outer loop
      vertex 89 -10 0
      vertex 89.15663143066406 -10.010266166351427 2
      vertex 89 -10 2
    endloop
  endfacet
  facet normal -0.1950903220161293 -0.9807852804032303 0
    outer loop
      vertex 89.15663143066406 -10.010266166351427 0
      vertex 89.31058285412303 -10.040889008453117 2
      vertex 89.15663143066406 -10.010266166351427 2
    endloop
  endfacet
  facet normal -0.5555702330195651 -0.8314696123025701 0
    outer loop
      vertex 89.6 -10.160769515458673 0
      vertex 89.73051371481047 -10.247975991650517 2
      vertex 89.6 -10.160769515458673 2
    endloop
  endfacet
  facet normal -0.32143946530317125 -0.9469301294951024 0
    outer loop
      vertex 89.31058285412303 -10.040889008453117 0
      vertex 89.4592201188381 -10.091344560986455 2
      vertex 89.31058285412303 -10.040889008453117 2
    endloop
  endfacet
  facet normal -0.44228869021900913 -0.8968727415326845 0
    outer loop
      vertex 89.4592201188381 -10.091344560986455 0
      vertex 89.6 -10.160769515458673 2
      vertex 89.4592201188381 -10.091344560986455 2
    endloop
  endfacet
  facet normal -0.7518398074789697 -0.6593458151000777 0
    outer loop
      vertex 89.84852813742386 -10.351471862576142 0
      vertex 89.95202400834948 -10.469486285189534 2
      vertex 89.84852813742386 -10.351471862576142 2
    endloop
  endfacet
  facet normal -0.6593458151000936 -0.7518398074789556 0
    outer loop
      vertex 89.73051371481047 -10.247975991650517 0
      vertex 89.84852813742386 -10.351471862576142 2
      vertex 89.73051371481047 -10.247975991650517 2
    endloop
  endfacet
  facet normal 0 0 -1
    outer loop
      vertex 78 -13 0
      vertex 78.96076951545868 -11.799999999999999 0
      vertex 79.04797599165052 -11.930513714810465 0
    endloop
  endfacet
  facet normal 0 0 -1
    outer loop
      vertex 78 -13 0
      vertex 79.04797599165052 -11.930513714810465 0
      vertex 79.15147186257614 -12.048528137423856 0
    endloop
  endfacet
  facet normal 0 0 -1
    outer loop
      vertex 78 -13 0
      vertex 78.89134456098645 -11.659220118838107 0
      vertex 78.96076951545868 -11.799999999999999 0
    endloop
  endfacet
  facet normal 0 0 -1
    outer loop
      vertex 78 -13 0
      vertex 78.84088900845312 -11.510582854123024 0
      vertex 78.89134456098645 -11.659220118838107 0
    endloop
  endfacet
  facet normal 0 0 -1
    outer loop
      vertex 78 -13 0
      vertex 78.81026616635143 -11.356631430664061 0
      vertex 78.84088900845312 -11.510582854123024 0
    endloop
  endfacet
  facet normal 0 0 -1
    outer loop
      vertex 78 -13 0
      vertex 79.15147186257614 -12.048528137423856 0
      vertex 79.26948628518953 -12.152024008349482 0
    endloop
  endfacet
  facet normal 0 0 -1
    outer loop
      vertex 78 -13 0
      vertex 79.26948628518953 -12.152024008349482 0
      vertex 79.4 -12.239230484541325 0
    endloop
  endfacet
  facet normal 0 0 -1
    outer loop
      vertex 78 -13 0
      vertex 79.5407798811619 -12.308655439013544 0
      vertex 79.68941714587697 -12.359110991546881 0
    endloop
  endfacet
  facet normal 0 0 -1
    outer loop
      vertex 78 -13 0
      vertex 79.4 -12.239230484541325 0
      vertex 79.5407798811619 -12.308655439013544 0
    endloop
  endfacet
  facet normal 0 0 -1
    outer loop
      vertex 78 -13 0
      vertex 79.68941714587697 -12.359110991546881 0
      vertex 79.84336856933594 -12.389733833648572 0
    endloop
  endfacet
  facet normal 0 0 -1
    outer loop
      vertex 78 -13 0
      vertex 79.84336856933594 -12.389733833648572 0
      vertex 80 -12.399999999999999 0
    endloop
  endfacet
  facet normal 0 0 -1
    outer loop
      vertex 78 -13 0
      vertex 78 -3 0
      vertex 78.81026616635143 -11.356631430664061 0
    endloop
  endfacet
  facet normal 0 0 -1
    outer loop
      vertex 78 -3 0
      vertex 78.8 -11.2 0
      vertex 78.81026616635143 -11.356631430664061 0
    endloop
  endfacet
  facet normal 0 0 -1
    outer loop
      vertex 78 -3 0
      vertex 78.81026616635143 -11.043368569335938 0
      vertex 78.8 -11.2 0
    endloop
  endfacet
  facet normal 0 0 -1
    outer loop
      vertex 78 -3 0
      vertex 78.84088900845312 -10.889417145876974 0
      vertex 78.81026616635143 -11.043368569335938 0
    endloop
  endfacet
  facet normal 0 0 -1
    outer loop
      vertex 78 -3 0
      vertex 78.89134456098645 -10.740779881161892 0
      vertex 78.84088900845312 -10.889417145876974 0
    endloop
  endfacet
  facet normal 0 0 -1
    outer loop
      vertex 78 -3 0
      vertex 78.96076951545868 -10.6 0
      vertex 78.89134456098645 -10.740779881161892 0
    endloop
  endfacet
  facet normal 0 0 -1
    outer loop
      vertex 78 -3 0
      vertex 79.04797599165052 -10.469486285189534 0
      vertex 78.96076951545868 -10.6 0
    endloop
  endfacet
  facet normal 0 0 -1
    outer loop
      vertex 78 -13 0
      vertex 80 -12.399999999999999 0
      vertex 90.5 -13 0
    endloop
  endfacet
  facet normal 0 0 -1
    outer loop
      vertex 80.4592201188381 -12.308655439013544 0
      vertex 80.6 -12.239230484541325 0
      vertex 88.5407798811619 -12.308655439013544 0
    endloop
  endfacet
  facet normal 0 0 -1
    outer loop
      vertex 80.6 -12.239230484541325 0
      vertex 80.73051371481047 -12.152024008349482 0
      vertex 88.4 -12.239230484541325 0
    endloop
  endfacet
  facet normal 0 0 -1
    outer loop
      vertex 80.73051371481047 -12.152024008349482 0
      vertex 80.84852813742386 -12.048528137423856 0
      vertex 88.26948628518953 -12.152024008349482 0
    endloop
  endfacet
  facet normal 0 0 -1
    outer loop
      vertex 80.84852813742386 -12.048528137423856 0
      vertex 80.95202400834948 -11.930513714810465 0
      vertex 88.15147186257614 -12.048528137423856 0
    endloop
  endfacet
  facet normal 0 0 -1
    outer loop
      vertex 81.03923048454132 -11.799999999999999 0
      vertex 88.04797599165052 -11.930513714810465 0
      vertex 80.95202400834948 -11.930513714810465 0
    endloop
  endfacet
  facet normal 0 0 -1
    outer loop
      vertex 81.10865543901355 -11.659220118838107 0
      vertex 87.96076951545868 -11.799999999999999 0
      vertex 81.03923048454132 -11.799999999999999 0
    endloop
  endfacet
  facet normal 0 0 -1
    outer loop
      vertex 90.5 -13 0
      vertex 80 -12.399999999999999 0
      vertex 80.15663143066406 -12.389733833648572 0
    endloop
  endfacet
  facet normal 0 0 -1
    outer loop
      vertex 90.5 -13 0
      vertex 80.15663143066406 -12.389733833648572 0
      vertex 80.31058285412303 -12.359110991546881 0
    endloop
  endfacet
  facet normal 0 0 -1
    outer loop
      vertex 90.5 -13 0
      vertex 80.31058285412303 -12.359110991546881 0
      vertex 80.4592201188381 -12.308655439013544 0
    endloop
  endfacet
  facet normal 0 0 -1
    outer loop
      vertex 81.15911099154688 -11.510582854123024 0
      vertex 87.89134456098645 -11.659220118838107 0
      vertex 81.10865543901355 -11.659220118838107 0
    endloop
  endfacet
  facet normal 0 0 -1
    outer loop
      vertex 81.18973383364857 -11.356631430664061 0
      vertex 87.84088900845312 -11.510582854123024 0
      vertex 81.15911099154688 -11.510582854123024 0
    endloop
  endfacet
  facet normal 0 0 -1
    outer loop
      vertex 81.18973383364857 -11.356631430664061 0
      vertex 81.2 -11.2 0
      vertex 87.81026616635143 -11.356631430664061 0
    endloop
  endfacet
  facet normal 0 0 -1
    outer loop
      vertex 81.2 -11.2 0
      vertex 81.18973383364857 -11.043368569335938 0
      vertex 87.8 -11.2 0
    endloop
  endfacet
  facet normal 0 0 -1
    outer loop
      vertex 81.15911099154688 -10.889417145876974 0
      vertex 87.81026616635143 -11.043368569335938 0
      vertex 81.18973383364857 -11.043368569335938 0
    endloop
  endfacet
  facet normal 0 0 -1
    outer loop
      vertex 81.10865543901355 -10.740779881161892 0
      vertex 87.84088900845312 -10.889417145876974 0
      vertex 81.15911099154688 -10.889417145876974 0
    endloop
  endfacet
  facet normal 0 0 -1
    outer loop
      vertex 81.03923048454132 -10.6 0
      vertex 87.89134456098645 -10.740779881161892 0
      vertex 81.10865543901355 -10.740779881161892 0
    endloop
  endfacet
  facet normal 0 0 -1
    outer loop
      vertex 90.5 -3 0
      vertex 81.03923048454132 -10.6 0
      vertex 80.95202400834948 -10.469486285189534 0
    endloop
  endfacet
  facet normal 0 0 1
    outer loop
      vertex 78 -13 2
      vertex 79.04797599165052 -11.930513714810465 2
      vertex 78.96076951545868 -11.799999999999999 2
    endloop
  endfacet
  facet normal 0 0 1
    outer loop
      vertex 78 -13 2
      vertex 79.15147186257614 -12.048528137423856 2
      vertex 79.04797599165052 -11.930513714810465 2
    endloop
  endfacet
  facet normal 0 0 1
    outer loop
      vertex 78 -13 2
      vertex 78.96076951545868 -11.799999999999999 2
      vertex 78.89134456098645 -11.659220118838107 2
    endloop
  endfacet
  facet normal 0 0 1
    outer loop
      vertex 78 -13 2
      vertex 78.89134456098645 -11.659220118838107 2
      vertex 78.84088900845312 -11.510582854123024 2
    endloop
  endfacet
  facet normal 0 0 1
    outer loop
      vertex 78 -13 2
      vertex 78.84088900845312 -11.510582854123024 2
      vertex 78.81026616635143 -11.356631430664061 2
    endloop
  endfacet
  facet normal 0 0 1
    outer loop
      vertex 78 -13 2
      vertex 78.81026616635143 -11.356631430664061 2
      vertex 78.8 -11.2 2
    endloop
  endfacet
  facet normal 0 0 1
    outer loop
      vertex 78 -13 2
      vertex 79.26948628518953 -12.152024008349482 2
      vertex 79.15147186257614 -12.048528137423856 2
    endloop
  endfacet
  facet normal 0 0 1
    outer loop
      vertex 78 -13 2
      vertex 79.4 -12.239230484541325 2
      vertex 79.26948628518953 -12.152024008349482 2
    endloop
  endfacet
  facet normal 0 0 1
    outer loop
      vertex 78 -13 2
      vertex 79.68941714587697 -12.359110991546881 2
      vertex 79.5407798811619 -12.308655439013544 2
    endloop
  endfacet
  facet normal 0 0 1
    outer loop
      vertex 78 -13 2
      vertex 79.5407798811619 -12.308655439013544 2
      vertex 79.4 -12.239230484541325 2
    endloop
  endfacet
  facet normal 0 0 1
    outer loop
      vertex 78 -13 2
      vertex 79.84336856933594 -12.389733833648572 2
      vertex 79.68941714587697 -12.359110991546881 2
    endloop
  endfacet
  facet normal 0 0 1
    outer loop
      vertex 78 -13 2
      vertex 80 -12.399999999999999 2
      vertex 79.84336856933594 -12.389733833648572 2
    endloop
  endfacet
  facet normal 0 0 1
    outer loop
      vertex 78 -13 2
      vertex 78.8 -11.2 2
      vertex 78.81026616635143 -11.043368569335938 2
    endloop
  endfacet
  facet normal 0 0 1
    outer loop
      vertex 78 -13 2
      vertex 78.81026616635143 -11.043368569335938 2
      vertex 78.84088900845312 -10.889417145876974 2
    endloop
  endfacet
  facet normal 0 0 1
    outer loop
      vertex 78 -13 2
      vertex 78.84088900845312 -10.889417145876974 2
      vertex 78.89134456098645 -10.740779881161892 2
    endloop
  endfacet
  facet normal -1 0 0
    outer loop
      vertex 78 -13 0
      vertex 78 -13 2
      vertex 78 -3 2
    endloop
  endfacet
  facet normal 0 0 1
    outer loop
      vertex 78 -13 2
      vertex 78.89134456098645 -10.740779881161892 2
      vertex 78 -3 2
    endloop
  endfacet
  facet normal 0 0 1
    outer loop
      vertex 78 -3 2
      vertex 78.89134456098645 -10.740779881161892 2
      vertex 78.96076951545868 -10.6 2
    endloop
  endfacet
  facet normal 0 0 1
    outer loop
      vertex 78 -3 2
      vertex 78.96076951545868 -10.6 2
      vertex 79.04797599165052 -10.469486285189534 2
    endloop
  endfacet
  facet normal 0 0 1
    outer loop
      vertex 78 -3 2
      vertex 81.03923048454132 -10.6 2
      vertex 81.10865543901355 -10.740779881161892 2
    endloop
  endfacet
  facet normal 0 0 1
    outer loop
      vertex 78 -3 2
      vertex 80.95202400834948 -10.469486285189534 2
      vertex 81.03923048454132 -10.6 2
    endloop
  endfacet
  facet normal 0 -1 0
    outer loop
      vertex 78 -13 0
      vertex 90.5 -13 2
      vertex 78 -13 2
    endloop
  endfacet
  facet normal 0 0 1
    outer loop
      vertex 78 -13 2
      vertex 88.4 -12.239230484541325 2
      vertex 80 -12.399999999999999 2
    endloop
  endfacet
  facet normal 0 0 1
    outer loop
      vertex 80.15663143066406 -12.389733833648572 2
      vertex 80 -12.399999999999999 2
      vertex 88.4 -12.239230484541325 2
    endloop
  endfacet
  facet normal 0 0 1
    outer loop
      vertex 80.31058285412303 -12.359110991546881 2
      vertex 80.15663143066406 -12.389733833648572 2
      vertex 88.4 -12.239230484541325 2
    endloop
  endfacet
  facet normal 0 0 1
    outer loop
      vertex 80.4592201188381 -12.308655439013544 2
      vertex 80.31058285412303 -12.359110991546881 2
      vertex 88.4 -12.239230484541325 2
    endloop
  endfacet
  facet normal 0 0 1
    outer loop
      vertex 80.6 -12.239230484541325 2
      vertex 80.4592201188381 -12.308655439013544 2
      vertex 88.4 -12.239230484541325 2
    endloop
  endfacet
  facet normal 0 0 1
    outer loop
      vertex 80.73051371481047 -12.152024008349482 2
      vertex 80.6 -12.239230484541325 2
      vertex 88.26948628518953 -12.152024008349482 2
    endloop
  endfacet
  facet normal 0 0 1
    outer loop
      vertex 80.84852813742386 -12.048528137423856 2
      vertex 80.73051371481047 -12.152024008349482 2
      vertex 88.15147186257614 -12.048528137423856 2
    endloop
  endfacet
  facet normal 0 0 1
    outer loop
      vertex 80.84852813742386 -12.048528137423856 2
      vertex 88.04797599165052 -11.930513714810465 2
      vertex 80.95202400834948 -11.930513714810465 2
    endloop
  endfacet
  facet normal 0 0 1
    outer loop
      vertex 80.95202400834948 -11.930513714810465 2
      vertex 87.96076951545868 -11.799999999999999 2
      vertex 81.03923048454132 -11.799999999999999 2
    endloop
  endfacet
  facet normal 0 0 1
    outer loop
      vertex 81.03923048454132 -11.799999999999999 2
      vertex 87.89134456098645 -11.659220118838107 2
      vertex 81.10865543901355 -11.659220118838107 2
    endloop
  endfacet
  facet normal 0 0 1
    outer loop
      vertex 81.10865543901355 -11.659220118838107 2
      vertex 87.84088900845312 -11.510582854123024 2
      vertex 81.15911099154688 -11.510582854123024 2
    endloop
  endfacet
  facet normal 0 0 1
    outer loop
      vertex 81.15911099154688 -11.510582854123024 2
      vertex 87.81026616635143 -11.356631430664061 2
      vertex 81.18973383364857 -11.356631430664061 2
    endloop
  endfacet
  facet normal 0 0 1
    outer loop
      vertex 81.18973383364857 -11.356631430664061 2
      vertex 87.8 -11.2 2
      vertex 81.2 -11.2 2
    endloop
  endfacet
  facet normal 0 0 1
    outer loop
      vertex 81.2 -11.2 2
      vertex 87.81026616635143 -11.043368569335938 2
      vertex 81.18973383364857 -11.043368569335938 2
    endloop
  endfacet
  facet normal 0 0 1
    outer loop
      vertex 81.18973383364857 -11.043368569335938 2
      vertex 87.84088900845312 -10.889417145876974 2
      vertex 81.15911099154688 -10.889417145876974 2
    endloop
  endfacet
  facet normal 0 0 1
    outer loop
      vertex 87.89134456098645 -10.740779881161892 2
      vertex 81.10865543901355 -10.740779881161892 2
      vertex 81.15911099154688 -10.889417145876974 2
    endloop
  endfacet
  facet normal 0 0 1
    outer loop
      vertex 78 -3 2
      vertex 81.10865543901355 -10.740779881161892 2
      vertex 87.89134456098645 -10.740779881161892 2
    endloop
  endfacet
  facet normal 0 0 -1
    outer loop
      vertex 78 -3 0
      vertex 79.15147186257614 -10.351471862576142 0
      vertex 79.04797599165052 -10.469486285189534 0
    endloop
  endfacet
  facet normal 0 0 -1
    outer loop
      vertex 78 -3 0
      vertex 79.26948628518953 -10.247975991650517 0
      vertex 79.15147186257614 -10.351471862576142 0
    endloop
  endfacet
  facet normal 0 0 -1
    outer loop
      vertex 78 -3 0
      vertex 79.4 -10.160769515458673 0
      vertex 79.26948628518953 -10.247975991650517 0
    endloop
  endfacet
  facet normal 0 0 -1
    outer loop
      vertex 78 -3 0
      vertex 79.5407798811619 -10.091344560986455 0
      vertex 79.4 -10.160769515458673 0
    endloop
  endfacet
  facet normal 0 0 -1
    outer loop
      vertex 78 -3 0
      vertex 79.68941714587697 -10.040889008453117 0
      vertex 79.5407798811619 -10.091344560986455 0
    endloop
  endfacet
  facet normal 0 0 -1
    outer loop
      vertex 78 -3 0
      vertex 79.84336856933594 -10.010266166351427 0
      vertex 79.68941714587697 -10.040889008453117 0
    endloop
  endfacet
  facet normal 0 0 -1
    outer loop
      vertex 78 -3 0
      vertex 80 -10 0
      vertex 79.84336856933594 -10.010266166351427 0
    endloop
  endfacet
  facet normal 0 0 -1
    outer loop
      vertex 78 -3 0
      vertex 80.15663143066406 -10.010266166351427 0
      vertex 80 -10 0
    endloop
  endfacet
  facet normal 0 0 -1
    outer loop
      vertex 78 -3 0
      vertex 80.31058285412303 -10.040889008453117 0
      vertex 80.15663143066406 -10.010266166351427 0
    endloop
  endfacet
  facet normal 0 0 -1
    outer loop
      vertex 78 -3 0
      vertex 80.4592201188381 -10.091344560986455 0
      vertex 80.31058285412303 -10.040889008453117 0
    endloop
  endfacet
  facet normal 0 0 -1
    outer loop
      vertex 78 -3 0
      vertex 80.6 -10.160769515458673 0
      vertex 80.4592201188381 -10.091344560986455 0
    endloop
  endfacet
  facet normal 0 0 -1
    outer loop
      vertex 78 -3 0
      vertex 80.73051371481047 -10.247975991650517 0
      vertex 80.6 -10.160769515458673 0
    endloop
  endfacet
  facet normal -1 0 0
    outer loop
      vertex 78 -13 0
      vertex 78 -3 2
      vertex 78 -3 0
    endloop
  endfacet
  facet normal 0 0 -1
    outer loop
      vertex 90.5 -3 0
      vertex 80.84852813742386 -10.351471862576142 0
      vertex 80.73051371481047 -10.247975991650517 0
    endloop
  endfacet
  facet normal 0 0 -1
    outer loop
      vertex 90.5 -3 0
      vertex 80.95202400834948 -10.469486285189534 0
      vertex 80.84852813742386 -10.351471862576142 0
    endloop
  endfacet
  facet normal 0 0 -1
    outer loop
      vertex 78 -3 0
      vertex 90.5 -3 0
      vertex 80.73051371481047 -10.247975991650517 0
    endloop
  endfacet
  facet normal 0 1 0
    outer loop
      vertex 78 -3 0
      vertex 78 -3 2
      vertex 90.5 -3 0
    endloop
  endfacet
  facet normal 0 0 1
    outer loop
      vertex 78 -3 2
      vertex 79.04797599165052 -10.469486285189534 2
      vertex 79.15147186257614 -10.351471862576142 2
    endloop
  endfacet
  facet normal 0 0 1
    outer loop
      vertex 78 -3 2
      vertex 79.15147186257614 -10.351471862576142 2
      vertex 79.26948628518953 -10.247975991650517 2
    endloop
  endfacet
  facet normal 0 0 1
    outer loop
      vertex 78 -3 2
      vertex 79.26948628518953 -10.247975991650517 2
      vertex 79.4 -10.160769515458673 2
    endloop
  endfacet
  facet normal 0 0 1
    outer loop
      vertex 78 -3 2
      vertex 79.4 -10.160769515458673 2
      vertex 79.5407798811619 -10.091344560986455 2
    endloop
  endfacet
  facet normal 0 0 1
    outer loop
      vertex 78 -3 2
      vertex 79.5407798811619 -10.091344560986455 2
      vertex 79.68941714587697 -10.040889008453117 2
    endloop
  endfacet
  facet normal 0 0 1
    outer loop
      vertex 78 -3 2
      vertex 79.68941714587697 -10.040889008453117 2
      vertex 79.84336856933594 -10.010266166351427 2
    endloop
  endfacet
  facet normal 0 0 1
    outer loop
      vertex 78 -3 2
      vertex 79.84336856933594 -10.010266166351427 2
      vertex 80 -10 2
    endloop
  endfacet
  facet normal 0 0 1
    outer loop
      vertex 78 -3 2
      vertex 80 -10 2
      vertex 80.15663143066406 -10.010266166351427 2
    endloop
  endfacet
  facet normal 0 0 1
    outer loop
      vertex 78 -3 2
      vertex 80.15663143066406 -10.010266166351427 2
      vertex 80.31058285412303 -10.040889008453117 2
    endloop
  endfacet
  facet normal 0 0 1
    outer loop
      vertex 78 -3 2
      vertex 80.31058285412303 -10.040889008453117 2
      vertex 80.4592201188381 -10.091344560986455 2
    endloop
  endfacet
  facet normal 0 0 1
    outer loop
      vertex 78 -3 2
      vertex 80.4592201188381 -10.091344560986455 2
      vertex 80.6 -10.160769515458673 2
    endloop
  endfacet
  facet normal 0 0 1
    outer loop
      vertex 78 -3 2
      vertex 80.84852813742386 -10.351471862576142 2
      vertex 80.95202400834948 -10.469486285189534 2
    endloop
  endfacet
  facet normal 0 0 1
    outer loop
      vertex 78 -3 2
      vertex 80.73051371481047 -10.247975991650517 2
      vertex 80.84852813742386 -10.351471862576142 2
    endloop
  endfacet
  facet normal 0 0 1
    outer loop
      vertex 78 -3 2
      vertex 80.6 -10.160769515458673 2
      vertex 80.73051371481047 -10.247975991650517 2
    endloop
  endfacet
  facet normal 0 0 -1
    outer loop
      vertex 80.73051371481047 -12.152024008349482 0
      vertex 88.26948628518953 -12.152024008349482 0
      vertex 88.4 -12.239230484541325 0
    endloop
  endfacet
  facet normal 0 0 -1
    outer loop
      vertex 80.84852813742386 -12.048528137423856 0
      vertex 88.15147186257614 -12.048528137423856 0
      vertex 88.26948628518953 -12.152024008349482 0
    endloop
  endfacet
  facet normal 0 0 -1
    outer loop
      vertex 80.95202400834948 -11.930513714810465 0
      vertex 88.04797599165052 -11.930513714810465 0
      vertex 88.15147186257614 -12.048528137423856 0
    endloop
  endfacet
  facet normal 0 0 -1
    outer loop
      vertex 81.03923048454132 -11.799999999999999 0
      vertex 87.96076951545868 -11.799999999999999 0
      vertex 88.04797599165052 -11.930513714810465 0
    endloop
  endfacet
  facet normal 0 0 -1
    outer loop
      vertex 81.10865543901355 -11.659220118838107 0
      vertex 87.89134456098645 -11.659220118838107 0
      vertex 87.96076951545868 -11.799999999999999 0
    endloop
  endfacet
  facet normal 0 0 -1
    outer loop
      vertex 81.15911099154688 -11.510582854123024 0
      vertex 87.84088900845312 -11.510582854123024 0
      vertex 87.89134456098645 -11.659220118838107 0
    endloop
  endfacet
  facet normal 0 0 -1
    outer loop
      vertex 81.18973383364857 -11.356631430664061 0
      vertex 87.81026616635143 -11.356631430664061 0
      vertex 87.84088900845312 -11.510582854123024 0
    endloop
  endfacet
  facet normal 0 0 -1
    outer loop
      vertex 81.2 -11.2 0
      vertex 87.8 -11.2 0
      vertex 87.81026616635143 -11.356631430664061 0
    endloop
  endfacet
  facet normal 0 0 -1
    outer loop
      vertex 81.18973383364857 -11.043368569335938 0
      vertex 87.81026616635143 -11.043368569335938 0
      vertex 87.8 -11.2 0
    endloop
  endfacet
  facet normal 0 0 -1
    outer loop
      vertex 81.15911099154688 -10.889417145876974 0
      vertex 87.84088900845312 -10.889417145876974 0
      vertex 87.81026616635143 -11.043368569335938 0
    endloop
  endfacet
  facet normal 0 0 -1
    outer loop
      vertex 81.10865543901355 -10.740779881161892 0
      vertex 87.89134456098645 -10.740779881161892 0
      vertex 87.84088900845312 -10.889417145876974 0
    endloop
  endfacet
  facet normal 0 0 -1
    outer loop
      vertex 81.03923048454132 -10.6 0
      vertex 87.96076951545868 -10.6 0
      vertex 87.89134456098645 -10.740779881161892 0
    endloop
  endfacet
  facet normal 0 0 -1
    outer loop
      vertex 90.5 -13 0
      vertex 80.4592201188381 -12.308655439013544 0
      vertex 88.5407798811619 -12.308655439013544 0
    endloop
  endfacet
  facet normal 0 0 -1
    outer loop
      vertex 80.6 -12.239230484541325 0
      vertex 88.4 -12.239230484541325 0
      vertex 88.5407798811619 -12.308655439013544 0
    endloop
  endfacet
  facet normal 0 -1 0
    outer loop
      vertex 78 -13 0
      vertex 90.5 -13 0
      vertex 90.5 -13 2
    endloop
  endfacet
  facet normal 0 0 -1
    outer loop
      vertex 90.5 -3 0
      vertex 87.96076951545868 -10.6 0
      vertex 81.03923048454132 -10.6 0
    endloop
  endfacet
  facet normal 0 0 -1
    outer loop
      vertex 90.5 -13 0
      vertex 88.5407798811619 -12.308655439013544 0
      vertex 88.68941714587697 -12.359110991546881 0
    endloop
  endfacet
  facet normal 0 0 -1
    outer loop
      vertex 90.5 -13 0
      vertex 88.68941714587697 -12.359110991546881 0
      vertex 88.84336856933594 -12.389733833648572 0
    endloop
  endfacet
  facet normal 0 0 -1
    outer loop
      vertex 90.5 -13 0
      vertex 88.84336856933594 -12.389733833648572 0
      vertex 89 -12.399999999999999 0
    endloop
  endfacet
  facet normal 0 0 -1
    outer loop
      vertex 90.5 -13 0
      vertex 89 -12.399999999999999 0
      vertex 89.15663143066406 -12.389733833648572 0
    endloop
  endfacet
  facet normal 0 0 -1
    outer loop
      vertex 90.5 -13 0
      vertex 89.15663143066406 -12.389733833648572 0
      vertex 89.31058285412303 -12.359110991546881 0
    endloop
  endfacet
  facet normal 0 0 -1
    outer loop
      vertex 90.5 -13 0
      vertex 89.31058285412303 -12.359110991546881 0
      vertex 89.4592201188381 -12.308655439013544 0
    endloop
  endfacet
  facet normal 0 0 -1
    outer loop
      vertex 90.5 -13 0
      vertex 89.4592201188381 -12.308655439013544 0
      vertex 89.6 -12.239230484541325 0
    endloop
  endfacet
  facet normal 0 0 -1
    outer loop
      vertex 90.5 -13 0
      vertex 89.6 -12.239230484541325 0
      vertex 89.73051371481047 -12.152024008349482 0
    endloop
  endfacet
  facet normal 0 0 -1
    outer loop
      vertex 90.5 -13 0
      vertex 89.73051371481047 -12.152024008349482 0
      vertex 89.84852813742386 -12.048528137423856 0
    endloop
  endfacet
  facet normal 0 0 -1
    outer loop
      vertex 90.5 -13 0
      vertex 89.84852813742386 -12.048528137423856 0
      vertex 89.95202400834948 -11.930513714810465 0
    endloop
  endfacet
  facet normal 0 0 -1
    outer loop
      vertex 90.5 -13 0
      vertex 89.95202400834948 -11.930513714810465 0
      vertex 90.03923048454132 -11.799999999999999 0
    endloop
  endfacet
  facet normal 0 0 -1
    outer loop
      vertex 90.5 -13 0
      vertex 90.03923048454132 -11.799999999999999 0
      vertex 90.10865543901355 -11.659220118838107 0
    endloop
  endfacet
  facet normal 0 0 -1
    outer loop
      vertex 90.5 -13 0
      vertex 90.10865543901355 -11.659220118838107 0
      vertex 90.15911099154688 -11.510582854123024 0
    endloop
  endfacet
  facet normal 0 0 -1
    outer loop
      vertex 90.5 -13 0
      vertex 90.15911099154688 -11.510582854123024 0
      vertex 90.18973383364857 -11.356631430664061 0
    endloop
  endfacet
  facet normal 0 0 -1
    outer loop
      vertex 90.5 -13 0
      vertex 90.18973383364857 -11.356631430664061 0
      vertex 90.2 -11.2 0
    endloop
  endfacet
  facet normal 0 0 -1
    outer loop
      vertex 90.5 -13 0
      vertex 90.2 -11.2 0
      vertex 90.18973383364857 -11.043368569335938 0
    endloop
  endfacet
  facet normal 0 0 -1
    outer loop
      vertex 90.5 -3 0
      vertex 88.04797599165052 -10.469486285189534 0
      vertex 87.96076951545868 -10.6 0
    endloop
  endfacet
  facet normal 0 0 -1
    outer loop
      vertex 90.5 -13 0
      vertex 90.18973383364857 -11.043368569335938 0
      vertex 90.5 -3 0
    endloop
  endfacet
  facet normal 0 0 -1
    outer loop
      vertex 90.5 -3 0
      vertex 90.18973383364857 -11.043368569335938 0
      vertex 90.15911099154688 -10.889417145876974 0
    endloop
  endfacet
  facet normal 0 0 -1
    outer loop
      vertex 90.5 -3 0
      vertex 90.15911099154688 -10.889417145876974 0
      vertex 90.10865543901355 -10.740779881161892 0
    endloop
  endfacet
  facet normal 0 0 -1
    outer loop
      vertex 90.5 -3 0
      vertex 90.03923048454132 -10.6 0
      vertex 89.95202400834948 -10.469486285189534 0
    endloop
  endfacet
  facet normal 0 0 -1
    outer loop
      vertex 90.5 -3 0
      vertex 90.10865543901355 -10.740779881161892 0
      vertex 90.03923048454132 -10.6 0
    endloop
  endfacet
  facet normal 1 0 0
    outer loop
      vertex 90.5 -13 0
      vertex 90.5 -3 0
      vertex 90.5 -13 2
    endloop
  endfacet
  facet normal 0 0 1
    outer loop
      vertex 78 -13 2
      vertex 88.5407798811619 -12.308655439013544 2
      vertex 88.4 -12.239230484541325 2
    endloop
  endfacet
  facet normal 0 0 1
    outer loop
      vertex 78 -13 2
      vertex 88.68941714587697 -12.359110991546881 2
      vertex 88.5407798811619 -12.308655439013544 2
    endloop
  endfacet
  facet normal 0 0 1
    outer loop
      vertex 78 -13 2
      vertex 88.84336856933594 -12.389733833648572 2
      vertex 88.68941714587697 -12.359110991546881 2
    endloop
  endfacet
  facet normal 0 0 1
    outer loop
      vertex 78 -13 2
      vertex 89 -12.399999999999999 2
      vertex 88.84336856933594 -12.389733833648572 2
    endloop
  endfacet
  facet normal 0 0 1
    outer loop
      vertex 80.6 -12.239230484541325 2
      vertex 88.4 -12.239230484541325 2
      vertex 88.26948628518953 -12.152024008349482 2
    endloop
  endfacet
  facet normal 0 0 1
    outer loop
      vertex 80.73051371481047 -12.152024008349482 2
      vertex 88.26948628518953 -12.152024008349482 2
      vertex 88.15147186257614 -12.048528137423856 2
    endloop
  endfacet
  facet normal 0 0 1
    outer loop
      vertex 80.84852813742386 -12.048528137423856 2
      vertex 88.15147186257614 -12.048528137423856 2
      vertex 88.04797599165052 -11.930513714810465 2
    endloop
  endfacet
  facet normal 0 0 1
    outer loop
      vertex 80.95202400834948 -11.930513714810465 2
      vertex 88.04797599165052 -11.930513714810465 2
      vertex 87.96076951545868 -11.799999999999999 2
    endloop
  endfacet
  facet normal 0 0 1
    outer loop
      vertex 81.03923048454132 -11.799999999999999 2
      vertex 87.96076951545868 -11.799999999999999 2
      vertex 87.89134456098645 -11.659220118838107 2
    endloop
  endfacet
  facet normal 0 0 1
    outer loop
      vertex 81.10865543901355 -11.659220118838107 2
      vertex 87.89134456098645 -11.659220118838107 2
      vertex 87.84088900845312 -11.510582854123024 2
    endloop
  endfacet
  facet normal 0 0 1
    outer loop
      vertex 81.15911099154688 -11.510582854123024 2
      vertex 87.84088900845312 -11.510582854123024 2
      vertex 87.81026616635143 -11.356631430664061 2
    endloop
  endfacet
  facet normal 0 0 1
    outer loop
      vertex 81.18973383364857 -11.356631430664061 2
      vertex 87.81026616635143 -11.356631430664061 2
      vertex 87.8 -11.2 2
    endloop
  endfacet
  facet normal 0 0 1
    outer loop
      vertex 81.2 -11.2 2
      vertex 87.8 -11.2 2
      vertex 87.81026616635143 -11.043368569335938 2
    endloop
  endfacet
  facet normal 0 0 1
    outer loop
      vertex 81.18973383364857 -11.043368569335938 2
      vertex 87.81026616635143 -11.043368569335938 2
      vertex 87.84088900845312 -10.889417145876974 2
    endloop
  endfacet
  facet normal 0 0 1
    outer loop
      vertex 87.89134456098645 -10.740779881161892 2
      vertex 81.15911099154688 -10.889417145876974 2
      vertex 87.84088900845312 -10.889417145876974 2
    endloop
  endfacet
  facet normal 0 0 1
    outer loop
      vertex 78 -13 2
      vertex 90.5 -13 2
      vertex 89 -12.399999999999999 2
    endloop
  endfacet
  facet normal 0 0 1
    outer loop
      vertex 78 -3 2
      vertex 87.89134456098645 -10.740779881161892 2
      vertex 87.96076951545868 -10.6 2
    endloop
  endfacet
  facet normal 0 0 1
    outer loop
      vertex 78 -3 2
      vertex 87.96076951545868 -10.6 2
      vertex 88.04797599165052 -10.469486285189534 2
    endloop
  endfacet
  facet normal 0 0 1
    outer loop
      vertex 90.5 -13 2
      vertex 89.15663143066406 -12.389733833648572 2
      vertex 89 -12.399999999999999 2
    endloop
  endfacet
  facet normal 0 0 1
    outer loop
      vertex 90.5 -13 2
      vertex 89.31058285412303 -12.359110991546881 2
      vertex 89.15663143066406 -12.389733833648572 2
    endloop
  endfacet
  facet normal 0 0 1
    outer loop
      vertex 90.5 -13 2
      vertex 89.4592201188381 -12.308655439013544 2
      vertex 89.31058285412303 -12.359110991546881 2
    endloop
  endfacet
  facet normal 0 0 1
    outer loop
      vertex 90.5 -13 2
      vertex 89.6 -12.239230484541325 2
      vertex 89.4592201188381 -12.308655439013544 2
    endloop
  endfacet
  facet normal 0 0 1
    outer loop
      vertex 90.5 -13 2
      vertex 89.73051371481047 -12.152024008349482 2
      vertex 89.6 -12.239230484541325 2
    endloop
  endfacet
  facet normal 0 0 1
    outer loop
      vertex 90.5 -13 2
      vertex 89.84852813742386 -12.048528137423856 2
      vertex 89.73051371481047 -12.152024008349482 2
    endloop
  endfacet
  facet normal 0 0 1
    outer loop
      vertex 90.5 -13 2
      vertex 89.95202400834948 -11.930513714810465 2
      vertex 89.84852813742386 -12.048528137423856 2
    endloop
  endfacet
  facet normal 0 0 1
    outer loop
      vertex 90.5 -13 2
      vertex 90.03923048454132 -11.799999999999999 2
      vertex 89.95202400834948 -11.930513714810465 2
    endloop
  endfacet
  facet normal 0 0 1
    outer loop
      vertex 90.5 -13 2
      vertex 90.10865543901355 -11.659220118838107 2
      vertex 90.03923048454132 -11.799999999999999 2
    endloop
  endfacet
  facet normal 0 0 1
    outer loop
      vertex 90.5 -13 2
      vertex 90.15911099154688 -11.510582854123024 2
      vertex 90.10865543901355 -11.659220118838107 2
    endloop
  endfacet
  facet normal 0 0 1
    outer loop
      vertex 90.5 -13 2
      vertex 90.18973383364857 -11.356631430664061 2
      vertex 90.15911099154688 -11.510582854123024 2
    endloop
  endfacet
  facet normal 0 0 1
    outer loop
      vertex 90.5 -13 2
      vertex 90.2 -11.2 2
      vertex 90.18973383364857 -11.356631430664061 2
    endloop
  endfacet
  facet normal 0 0 1
    outer loop
      vertex 90.5 -13 2
      vertex 90.5 -3 2
      vertex 90.2 -11.2 2
    endloop
  endfacet
  facet normal 0 0 1
    outer loop
      vertex 90.5 -3 2
      vertex 90.18973383364857 -11.043368569335938 2
      vertex 90.2 -11.2 2
    endloop
  endfacet
  facet normal 0 0 1
    outer loop
      vertex 90.5 -3 2
      vertex 90.15911099154688 -10.889417145876974 2
      vertex 90.18973383364857 -11.043368569335938 2
    endloop
  endfacet
  facet normal 0 0 1
    outer loop
      vertex 90.5 -3 2
      vertex 90.10865543901355 -10.740779881161892 2
      vertex 90.15911099154688 -10.889417145876974 2
    endloop
  endfacet
  facet normal 0 0 1
    outer loop
      vertex 90.5 -3 2
      vertex 89.95202400834948 -10.469486285189534 2
      vertex 90.03923048454132 -10.6 2
    endloop
  endfacet
  facet normal 0 0 1
    outer loop
      vertex 90.5 -3 2
      vertex 90.03923048454132 -10.6 2
      vertex 90.10865543901355 -10.740779881161892 2
    endloop
  endfacet
  facet normal 0 0 -1
    outer loop
      vertex 90.5 -3 0
      vertex 88.15147186257614 -10.351471862576142 0
      vertex 88.04797599165052 -10.469486285189534 0
    endloop
  endfacet
  facet normal 0 0 -1
    outer loop
      vertex 90.5 -3 0
      vertex 88.26948628518953 -10.247975991650517 0
      vertex 88.15147186257614 -10.351471862576142 0
    endloop
  endfacet
  facet normal 0 0 -1
    outer loop
      vertex 90.5 -3 0
      vertex 88.4 -10.160769515458673 0
      vertex 88.26948628518953 -10.247975991650517 0
    endloop
  endfacet
  facet normal 0 0 -1
    outer loop
      vertex 90.5 -3 0
      vertex 88.5407798811619 -10.091344560986455 0
      vertex 88.4 -10.160769515458673 0
    endloop
  endfacet
  facet normal 0 0 -1
    outer loop
      vertex 90.5 -3 0
      vertex 88.68941714587697 -10.040889008453117 0
      vertex 88.5407798811619 -10.091344560986455 0
    endloop
  endfacet
  facet normal 0 0 -1
    outer loop
      vertex 90.5 -3 0
      vertex 88.84336856933594 -10.010266166351427 0
      vertex 88.68941714587697 -10.040889008453117 0
    endloop
  endfacet
  facet normal 0 0 -1
    outer loop
      vertex 90.5 -3 0
      vertex 89 -10 0
      vertex 88.84336856933594 -10.010266166351427 0
    endloop
  endfacet
  facet normal 0 0 -1
    outer loop
      vertex 90.5 -3 0
      vertex 89.15663143066406 -10.010266166351427 0
      vertex 89 -10 0
    endloop
  endfacet
  facet normal 0 0 -1
    outer loop
      vertex 90.5 -3 0
      vertex 89.31058285412303 -10.040889008453117 0
      vertex 89.15663143066406 -10.010266166351427 0
    endloop
  endfacet
  facet normal 0 0 -1
    outer loop
      vertex 90.5 -3 0
      vertex 89.4592201188381 -10.091344560986455 0
      vertex 89.31058285412303 -10.040889008453117 0
    endloop
  endfacet
  facet normal 0 0 -1
    outer loop
      vertex 90.5 -3 0
      vertex 89.6 -10.160769515458673 0
      vertex 89.4592201188381 -10.091344560986455 0
    endloop
  endfacet
  facet normal 0 0 -1
    outer loop
      vertex 90.5 -3 0
      vertex 89.95202400834948 -10.469486285189534 0
      vertex 89.84852813742386 -10.351471862576142 0
    endloop
  endfacet
  facet normal 0 0 -1
    outer loop
      vertex 90.5 -3 0
      vertex 89.84852813742386 -10.351471862576142 0
      vertex 89.73051371481047 -10.247975991650517 0
    endloop
  endfacet
  facet normal 0 0 -1
    outer loop
      vertex 90.5 -3 0
      vertex 89.73051371481047 -10.247975991650517 0
      vertex 89.6 -10.160769515458673 0
    endloop
  endfacet
  facet normal 0 0 1
    outer loop
      vertex 78 -3 2
      vertex 88.04797599165052 -10.469486285189534 2
      vertex 88.15147186257614 -10.351471862576142 2
    endloop
  endfacet
  facet normal 0 0 1
    outer loop
      vertex 78 -3 2
      vertex 88.15147186257614 -10.351471862576142 2
      vertex 88.26948628518953 -10.247975991650517 2
    endloop
  endfacet
  facet normal 0 1 0
    outer loop
      vertex 78 -3 2
      vertex 90.5 -3 2
      vertex 90.5 -3 0
    endloop
  endfacet
  facet normal 0 0 1
    outer loop
      vertex 78 -3 2
      vertex 88.26948628518953 -10.247975991650517 2
      vertex 90.5 -3 2
    endloop
  endfacet
  facet normal 1 0 0
    outer loop
      vertex 90.5 -13 2
      vertex 90.5 -3 0
      vertex 90.5 -3 2
    endloop
  endfacet
  facet normal 0 0 1
    outer loop
      vertex 90.5 -3 2
      vertex 88.26948628518953 -10.247975991650517 2
      vertex 88.4 -10.160769515458673 2
    endloop
  endfacet
  facet normal 0 0 1
    outer loop
      vertex 90.5 -3 2
      vertex 88.4 -10.160769515458673 2
      vertex 88.5407798811619 -10.091344560986455 2
    endloop
  endfacet
  facet normal 0 0 1
    outer loop
      vertex 90.5 -3 2
      vertex 88.5407798811619 -10.091344560986455 2
      vertex 88.68941714587697 -10.040889008453117 2
    endloop
  endfacet
  facet normal 0 0 1
    outer loop
      vertex 90.5 -3 2
      vertex 88.68941714587697 -10.040889008453117 2
      vertex 88.84336856933594 -10.010266166351427 2
    endloop
  endfacet
  facet normal 0 0 1
    outer loop
      vertex 90.5 -3 2
      vertex 88.84336856933594 -10.010266166351427 2
      vertex 89 -10 2
    endloop
  endfacet
  facet normal 0 0 1
    outer loop
      vertex 90.5 -3 2
      vertex 89 -10 2
      vertex 89.15663143066406 -10.010266166351427 2
    endloop
  endfacet
  facet normal 0 0 1
    outer loop
      vertex 90.5 -3 2
      vertex 89.15663143066406 -10.010266166351427 2
      vertex 89.31058285412303 -10.040889008453117 2
    endloop
  endfacet
  facet normal 0 0 1
    outer loop
      vertex 90.5 -3 2
      vertex 89.31058285412303 -10.040889008453117 2
      vertex 89.4592201188381 -10.091344560986455 2
    endloop
  endfacet
  facet normal 0 0 1
    outer loop
      vertex 90.5 -3 2
      vertex 89.4592201188381 -10.091344560986455 2
      vertex 89.6 -10.160769515458673 2
    endloop
  endfacet
  facet normal 0 0 1
    outer loop
      vertex 90.5 -3 2
      vertex 89.84852813742386 -10.351471862576142 2
      vertex 89.95202400834948 -10.469486285189534 2
    endloop
  endfacet
  facet normal 0 0 1
    outer loop
      vertex 90.5 -3 2
      vertex 89.73051371481047 -10.247975991650517 2
      vertex 89.84852813742386 -10.351471862576142 2
    endloop
  endfacet
  facet normal 0 0 1
    outer loop
      vertex 90.5 -3 2
      vertex 89.6 -10.160769515458673 2
      vertex 89.73051371481047 -10.247975991650517 2
    endloop
  endfacet
endsolid OpenSCAD_Model
