solid OpenSCAD_Model
  facet normal 0 0 -1
    outer loop
      vertex -109 -58 48.3
      vertex -108.73893884929981 -53.6 48.3
      vertex -108.54166361111112 -53.6 48.3
    endloop
  endfacet
  facet normal 0 0 -1
    outer loop
      vertex -109 -58 48.3
      vertex -108.54166361111112 -53.6 48.3
      vertex -107.49999 -53.6 48.3
    endloop
  endfacet
  facet normal 0 0 -1
    outer loop
      vertex -108.54166361111112 -53.6 48.3
      vertex -108.73893884929981 -53.6 48.3
      vertex -108.56039677065081 -53.364354574622986 48.3
    endloop
  endfacet
  facet normal 0 0 -1
    outer loop
      vertex -108.54166361111112 -53.6 48.3
      vertex -108.56039677065081 -53.364354574622986 48.3
      vertex -107.49999 -53.6 48.3
    endloop
  endfacet
  facet normal 0 0 -1
    outer loop
      vertex -112 -52.6 48.3
      vertex -112 -51.689733833648575 48.3
      vertex -110.921126681847 -51.13003694147036 48.3
    endloop
  endfacet
  facet normal 0 0 -1
    outer loop
      vertex -112 -51.53923048454133 48.3
      vertex -112 -51.348528137423855 48.3
      vertex -111.57834245822424 -51.05082251656228 48.3
    endloop
  endfacet
  facet normal 0 0 -1
    outer loop
      vertex -112 -51.689733833648575 48.3
      vertex -112 -51.53923048454133 48.3
      vertex -110.921126681847 -51.13003694147036 48.3
    endloop
  endfacet
  facet normal 0 0 -1
    outer loop
      vertex -112 -51.53923048454133 48.3
      vertex -111.57834245822424 -51.05082251656228 48.3
      vertex -110.921126681847 -51.13003694147036 48.3
    endloop
  endfacet
  facet normal 0 0 -1
    outer loop
      vertex -112 -52.6 48.3
      vertex -109.9402948554638 -52.6 48.3
      vertex -110.0416359924599 -52.84479519494852 48.3
    endloop
  endfacet
  facet normal 0 0 -1
    outer loop
      vertex -112 -52.6 48.3
      vertex -110.921126681847 -51.13003694147036 48.3
      vertex -109.9402948554638 -52.6 48.3
    endloop
  endfacet
  facet normal 0 0 -1
    outer loop
      vertex -109 -58 48.3
      vertex -107.49999 -53.6 48.3
      vertex -107.49999 -58 48.3
    endloop
  endfacet
  facet normal 0 0 -1
    outer loop
      vertex -103.99999 -53.6 48.3
      vertex -105.36552647013642 -53.6 48.3
      vertex -105.42881762035668 -53.42139677070946 48.3
    endloop
  endfacet
  facet normal 0 0 -1
    outer loop
      vertex -103.99999 -53.6 48.3
      vertex -105.42881762035668 -53.42139677070946 48.3
      vertex -103.99999 -52.6 48.3
    endloop
  endfacet
  facet normal 0 0 -1
    outer loop
      vertex -103.99999 -52.6 48.3
      vertex -104.59103515219637 -51 48.3
      vertex -104.08007753069639 -51 48.3
    endloop
  endfacet
  facet normal 0 0 -1
    outer loop
      vertex -103.99999 -52.6 48.3
      vertex -104.08007753069639 -51 48.3
      vertex -103.99999 -51.689733833648575 48.3
    endloop
  endfacet
  facet normal 0 0 -1
    outer loop
      vertex -104.14064943580809 -50.47057509190865 48.3
      vertex -104.08379723943911 -50.963338707745386 48.3
      vertex -104.1088230971043 -50.952389895016864 48.3
    endloop
  endfacet
  facet normal 0 0 -1
    outer loop
      vertex -104.14064943580809 -50.47057509190865 48.3
      vertex -104.00073782665517 -50.80877517683435 48.3
      vertex -104.08379723943911 -50.963338707745386 48.3
    endloop
  endfacet
  facet normal 0 0 -1
    outer loop
      vertex -104.14064943580809 -50.47057509190865 48.3
      vertex -104.00252471854236 -50.34566086298565 48.3
      vertex -104.00073782665517 -50.80877517683435 48.3
    endloop
  endfacet
  facet normal 0 0 -1
    outer loop
      vertex -104.14064943580809 -50.47057509190865 48.3
      vertex -104.1088230971043 -50.952389895016864 48.3
      vertex -105.0284035078076 -48.88285156783629 48.3
    endloop
  endfacet
  facet normal 0 0 -1
    outer loop
      vertex -104.14064943580809 -50.47057509190865 48.3
      vertex -105.0284035078076 -48.88285156783629 48.3
      vertex -104.32666365554326 -48.81815696037748 48.3
    endloop
  endfacet
  facet normal 0 0 -1
    outer loop
      vertex -104.14064943580809 -50.47057509190865 48.3
      vertex -104.09975777166413 -47.61752448909764 48.3
      vertex -104.00252471854236 -50.34566086298565 48.3
    endloop
  endfacet
  facet normal 0 0 -1
    outer loop
      vertex -104.14064943580809 -50.47057509190865 48.3
      vertex -104.32666365554326 -48.81815696037748 48.3
      vertex -104.09975777166413 -47.61752448909764 48.3
    endloop
  endfacet
  facet normal 0 0 -1
    outer loop
      vertex -104.32666365554326 -48.81815696037748 48.3
      vertex -105.0284035078076 -48.88285156783629 48.3
      vertex -104.09975777166413 -47.61752448909764 48.3
    endloop
  endfacet
  facet normal 0 0 1
    outer loop
      vertex -107.49999 -58 48.3
      vertex -108.73893884929981 -53.6 48.3
      vertex -109 -58 48.3
    endloop
  endfacet
  facet normal 0 0 1
    outer loop
      vertex -108.56039677065081 -53.364354574622986 48.3
      vertex -108.73893884929981 -53.6 48.3
      vertex -107.49999 -58 48.3
    endloop
  endfacet
  facet normal 0 0 1
    outer loop
      vertex -112 -51.689733833648575 48.3
      vertex -112 -52.6 48.3
      vertex -110.0416359924599 -52.84479519494852 48.3
    endloop
  endfacet
  facet normal 0 0 1
    outer loop
      vertex -112 -51.53923048454133 48.3
      vertex -112 -51.689733833648575 48.3
      vertex -109.9402948554638 -52.6 48.3
    endloop
  endfacet
  facet normal 0 0 1
    outer loop
      vertex -112 -51.53923048454133 48.3
      vertex -109.9402948554638 -52.6 48.3
      vertex -112 -51.348528137423855 48.3
    endloop
  endfacet
  facet normal 0 0 1
    outer loop
      vertex -112 -51.348528137423855 48.3
      vertex -109.9402948554638 -52.6 48.3
      vertex -111.57834245822424 -51.05082251656228 48.3
    endloop
  endfacet
  facet normal 0 0 1
    outer loop
      vertex -112 -51.689733833648575 48.3
      vertex -110.0416359924599 -52.84479519494852 48.3
      vertex -109.9402948554638 -52.6 48.3
    endloop
  endfacet
  facet normal 0 0 1
    outer loop
      vertex -110.921126681847 -51.13003694147036 48.3
      vertex -111.57834245822424 -51.05082251656228 48.3
      vertex -109.9402948554638 -52.6 48.3
    endloop
  endfacet
  facet normal 0 0 1
    outer loop
      vertex -108.56039677065081 -53.364354574622986 48.3
      vertex -107.49999 -58 48.3
      vertex -107.49999 -53.6 48.3
    endloop
  endfacet
  facet normal 0 0 1
    outer loop
      vertex -105.42881762035668 -53.42139677070946 48.3
      vertex -105.36552647013642 -53.6 48.3
      vertex -103.99999 -52.6 48.3
    endloop
  endfacet
  facet normal 0 0 1
    outer loop
      vertex -103.99999 -53.6 48.3
      vertex -103.99999 -52.6 48.3
      vertex -105.36552647013642 -53.6 48.3
    endloop
  endfacet
  facet normal 0 0 1
    outer loop
      vertex -103.99999 -52.6 48.3
      vertex -103.99999 -51.689733833648575 48.3
      vertex -104.59103515219637 -51 48.3
    endloop
  endfacet
  facet normal 0 0 1
    outer loop
      vertex -104.08007753069639 -51 48.3
      vertex -104.59103515219637 -51 48.3
      vertex -103.99999 -51.689733833648575 48.3
    endloop
  endfacet
  facet normal 0 0 1
    outer loop
      vertex -104.1088230971043 -50.952389895016864 48.3
      vertex -104.08379723943911 -50.963338707745386 48.3
      vertex -104.00073782665517 -50.80877517683435 48.3
    endloop
  endfacet
  facet normal 0 0 1
    outer loop
      vertex -104.1088230971043 -50.952389895016864 48.3
      vertex -104.00073782665517 -50.80877517683435 48.3
      vertex -105.0284035078076 -48.88285156783629 48.3
    endloop
  endfacet
  facet normal 0 0 1
    outer loop
      vertex -104.00073782665517 -50.80877517683435 48.3
      vertex -104.00252471854236 -50.34566086298565 48.3
      vertex -105.0284035078076 -48.88285156783629 48.3
    endloop
  endfacet
  facet normal 0 0 1
    outer loop
      vertex -104.00252471854236 -50.34566086298565 48.3
      vertex -104.09975777166413 -47.61752448909764 48.3
      vertex -105.0284035078076 -48.88285156783629 48.3
    endloop
  endfacet
endsolid OpenSCAD_Model
