solid OpenSCAD_Model
  facet normal -1 0 0
    outer loop
      vertex 73.5 -37.5 48.8
      vertex 73.5 -41.362693304105356 49.4
      vertex 73.5 -41.16543513369284 49.8
    endloop
  endfacet
  facet normal -1 0 0
    outer loop
      vertex 73.5 -37.5 48.8
      vertex 73.5 -41.16543513369284 49.8
      vertex 73.5 -37.947278748888294 49.8
    endloop
  endfacet
  facet normal 1 0 0
    outer loop
      vertex 73.5 -41.362693304105356 49.4
      vertex 73.5 -37.947278748888294 49.8
      vertex 73.5 -41.16543513369284 49.8
    endloop
  endfacet
  facet normal 1 0 0
    outer loop
      vertex 73.5 -41.362693304105356 49.4
      vertex 73.5 -37.5 48.8
      vertex 73.5 -37.947278748888294 49.8
    endloop
  endfacet
endsolid OpenSCAD_Model
