solid OpenSCAD_Model
  facet normal 0 0 -1
    outer loop
      vertex -112 -58 58
      vertex -109 -57.289754819181894 58
      vertex -109 -58 58
    endloop
  endfacet
  facet normal 0 0 -1
    outer loop
      vertex -107.5 -58 58
      vertex -104 -57.289754819181894 58
      vertex -104 -58 58
    endloop
  endfacet
  facet normal 0 -1 0
    outer loop
      vertex -112 -58 58
      vertex -109 -58 58
      vertex -112 -58 58.9354672629134
    endloop
  endfacet
  facet normal 0 -1 0
    outer loop
      vertex -109 -58 58
      vertex -107.5 -58 58
      vertex -112 -58 58.9354672629134
    endloop
  endfacet
  facet normal 0 -1 0
    outer loop
      vertex -107.5 -58 58
      vertex -104 -58 58
      vertex -112 -58 58.9354672629134
    endloop
  endfacet
  facet normal -1 0 0
    outer loop
      vertex -112 -58 58
      vertex -112 -58 58.9354672629134
      vertex -112 -57.9698484809835 58.9698484809835
    endloop
  endfacet
  facet normal 0 -1 0
    outer loop
      vertex -104 -58 58
      vertex -104 -58 58.9354672629134
      vertex -112 -58 58.9354672629134
    endloop
  endfacet
  facet normal 1 0 0
    outer loop
      vertex -104 -58 58
      vertex -104 -57.62958240601741 59.26825381988369
      vertex -104 -58 58.9354672629134
    endloop
  endfacet
  facet normal 1 0 0
    outer loop
      vertex -104 -58 58.9354672629134
      vertex -104 -57.62958240601741 59.26825381988369
      vertex -104 -57.9698484809835 58.9698484809835
    endloop
  endfacet
  facet normal -1 0 0
    outer loop
      vertex -112 -58 58
      vertex -112 -57.9698484809835 58.9698484809835
      vertex -112 -57.289754819181894 58
    endloop
  endfacet
  facet normal 1 0 0
    outer loop
      vertex -104 -58 58
      vertex -104 -57.289754819181894 58
      vertex -104 -57.62958240601741 59.26825381988369
    endloop
  endfacet
  facet normal 0 0 -1
    outer loop
      vertex -112 -58 58
      vertex -112 -57.289754819181894 58
      vertex -109 -57.289754819181894 58
    endloop
  endfacet
  facet normal 0 0 -1
    outer loop
      vertex -107.5 -58 58
      vertex -107.5 -57.28975481918189 58
      vertex -104 -57.289754819181894 58
    endloop
  endfacet
  facet normal -1 0 0
    outer loop
      vertex -112 -57.9698484809835 58.9698484809835
      vertex -112 -57.62958240601741 59.26825381988369
      vertex -112 -57.289754819181894 58
    endloop
  endfacet
  facet normal 0 -1 0
    outer loop
      vertex -109 -58 58
      vertex -109 -58 54.854895234552004
      vertex -107.5 -58 54.854895234552004
    endloop
  endfacet
  facet normal 0 -1 0
    outer loop
      vertex -109 -58 58
      vertex -107.5 -58 54.854895234552004
      vertex -107.5 -58 58
    endloop
  endfacet
  facet normal -1 0 0
    outer loop
      vertex -109 -58 58
      vertex -109 -57.289754819181894 58
      vertex -109 -58 54.854895234552004
    endloop
  endfacet
  facet normal 1 0 0
    outer loop
      vertex -107.5 -58 58
      vertex -107.5 -58 54.854895234552004
      vertex -107.5 -56.55105603347697 55.2431386002598
    endloop
  endfacet
  facet normal -1 0 0
    outer loop
      vertex -109 -58 54.854895234552004
      vertex -109 -57.289754819181894 58
      vertex -109 -56.55105603347697 55.2431386002598
    endloop
  endfacet
  facet normal 1 0 0
    outer loop
      vertex -107.5 -58 58
      vertex -107.5 -56.55105603347697 55.2431386002598
      vertex -107.5 -57.28975481918189 58
    endloop
  endfacet
  facet normal 0 -0.7518398074789961 0.6593458151000475
    outer loop
      vertex -112 -58 58.9354672629134
      vertex -104 -57.9698484809835 58.9698484809835
      vertex -112 -57.9698484809835 58.9698484809835
    endloop
  endfacet
  facet normal 0 -0.7518398074789961 0.6593458151000475
    outer loop
      vertex -112 -58 58.9354672629134
      vertex -104 -58 58.9354672629134
      vertex -104 -57.9698484809835 58.9698484809835
    endloop
  endfacet
  facet normal 0 -0.6593458151000693 0.751839807478977
    outer loop
      vertex -112 -57.9698484809835 58.9698484809835
      vertex -104 -57.9698484809835 58.9698484809835
      vertex -112 -57.62958240601741 59.26825381988369
    endloop
  endfacet
  facet normal 0 -0.6593458151000693 0.751839807478977
    outer loop
      vertex -104 -57.9698484809835 58.9698484809835
      vertex -104 -57.62958240601741 59.26825381988369
      vertex -112 -57.62958240601741 59.26825381988369
    endloop
  endfacet
  facet normal 0 0 -1
    outer loop
      vertex 75 -58 58
      vertex 81.5 -57.28975481918189 58
      vertex 81.5 -58 58
    endloop
  endfacet
  facet normal 0 -1 0
    outer loop
      vertex 75 -58 58
      vertex 81.5 -58 58
      vertex 75 -58 58.9354672629134
    endloop
  endfacet
  facet normal 0 -1 0
    outer loop
      vertex 81.5 -58 58
      vertex 81.5 -58 58.9354672629134
      vertex 75 -58 58.9354672629134
    endloop
  endfacet
  facet normal 1 0 0
    outer loop
      vertex 81.5 -58 58
      vertex 81.5 -57.62958240601741 59.26825381988369
      vertex 81.5 -58 58.9354672629134
    endloop
  endfacet
  facet normal 1 0 0
    outer loop
      vertex 81.5 -58 58.9354672629134
      vertex 81.5 -57.62958240601741 59.26825381988369
      vertex 81.5 -57.9698484809835 58.9698484809835
    endloop
  endfacet
  facet normal 1 0 0
    outer loop
      vertex 81.5 -58 58
      vertex 81.5 -57.28975481918189 58
      vertex 81.5 -57.62958240601741 59.26825381988369
    endloop
  endfacet
  facet normal 0 0 -1
    outer loop
      vertex 75 -58 58
      vertex 75 -57.28975481918189 58
      vertex 81.5 -57.28975481918189 58
    endloop
  endfacet
  facet normal 0 -1 0
    outer loop
      vertex 75 -58 58
      vertex 73.5 -58 54.854895234552004
      vertex 75 -58 54.854895234552004
    endloop
  endfacet
  facet normal 1 0 0
    outer loop
      vertex 75 -58 58
      vertex 75 -58 54.854895234552004
      vertex 75 -56.55105603347697 55.2431386002598
    endloop
  endfacet
  facet normal -1 0 0
    outer loop
      vertex 73.5 -57.9698484809835 58.9698484809835
      vertex 73.5 -56.55105603347697 55.2431386002598
      vertex 73.5 -58 54.854895234552004
    endloop
  endfacet
  facet normal 0 -1 0
    outer loop
      vertex 75 -58 58
      vertex 73.5 -58 58.9354672629134
      vertex 73.5 -58 54.854895234552004
    endloop
  endfacet
  facet normal -1 0 0
    outer loop
      vertex 73.5 -58 58.9354672629134
      vertex 73.5 -57.9698484809835 58.9698484809835
      vertex 73.5 -58 54.854895234552004
    endloop
  endfacet
  facet normal 0 -1 0
    outer loop
      vertex 75 -58 58
      vertex 75 -58 58.9354672629134
      vertex 73.5 -58 58.9354672629134
    endloop
  endfacet
  facet normal 1 0 0
    outer loop
      vertex 75 -58 58
      vertex 75 -56.55105603347697 55.2431386002598
      vertex 75 -57.28975481918189 58
    endloop
  endfacet
  facet normal -1 0 0
    outer loop
      vertex 73.5 -57.9698484809835 58.9698484809835
      vertex 73.5 -57.62958240601741 59.26825381988369
      vertex 73.5 -56.55105603347697 55.2431386002598
    endloop
  endfacet
  facet normal 0 -0.7518398074789961 0.6593458151000475
    outer loop
      vertex 73.5 -58 58.9354672629134
      vertex 75 -58 58.9354672629134
      vertex 73.5 -57.9698484809835 58.9698484809835
    endloop
  endfacet
  facet normal 0 -0.7518398074789961 0.6593458151000475
    outer loop
      vertex 75 -58 58.9354672629134
      vertex 81.5 -57.9698484809835 58.9698484809835
      vertex 73.5 -57.9698484809835 58.9698484809835
    endloop
  endfacet
  facet normal 0 -0.7518398074789961 0.6593458151000475
    outer loop
      vertex 75 -58 58.9354672629134
      vertex 81.5 -58 58.9354672629134
      vertex 81.5 -57.9698484809835 58.9698484809835
    endloop
  endfacet
  facet normal 0 -0.6593458151000693 0.751839807478977
    outer loop
      vertex 73.5 -57.9698484809835 58.9698484809835
      vertex 81.5 -57.9698484809835 58.9698484809835
      vertex 73.5 -57.62958240601741 59.26825381988369
    endloop
  endfacet
  facet normal 0 -0.6593458151000693 0.751839807478977
    outer loop
      vertex 81.5 -57.9698484809835 58.9698484809835
      vertex 81.5 -57.62958240601741 59.26825381988369
      vertex 73.5 -57.62958240601741 59.26825381988369
    endloop
  endfacet
  facet normal 0 0.25881904510252063 -0.9659258262890684
    outer loop
      vertex -107.5 -58 54.854895234552004
      vertex -109 -58 54.854895234552004
      vertex -109 -56.55105603347697 55.2431386002598
    endloop
  endfacet
  facet normal 0 0.9659258262890688 0.2588190451025189
    outer loop
      vertex -112 -57.62958240601741 59.26825381988369
      vertex -104 -57.62958240601741 59.26825381988369
      vertex -109 -57.289754819181894 58
    endloop
  endfacet
  facet normal 0 0.9659258262890688 0.2588190451025189
    outer loop
      vertex -112 -57.62958240601741 59.26825381988369
      vertex -109 -57.289754819181894 58
      vertex -112 -57.289754819181894 58
    endloop
  endfacet
  facet normal -4.5755438610184465e-15 0.9659258262890642 0.2588190451025357
    outer loop
      vertex -107.5 -57.28975481918189 58
      vertex -109 -57.289754819181894 58
      vertex -104 -57.62958240601741 59.26825381988369
    endloop
  endfacet
  facet normal 1.960947369007915e-15 0.9659258262890688 0.25881904510251885
    outer loop
      vertex -107.5 -57.28975481918189 58
      vertex -104 -57.62958240601741 59.26825381988369
      vertex -104 -57.289754819181894 58
    endloop
  endfacet
  facet normal 0 0.25881904510252063 -0.9659258262890684
    outer loop
      vertex -107.5 -58 54.854895234552004
      vertex -109 -56.55105603347697 55.2431386002598
      vertex -107.5 -56.55105603347697 55.2431386002598
    endloop
  endfacet
  facet normal 0 0.9659258262890679 0.25881904510252224
    outer loop
      vertex -109 -56.55105603347697 55.2431386002598
      vertex -109 -57.289754819181894 58
      vertex -107.5 -56.55105603347697 55.2431386002598
    endloop
  endfacet
  facet normal -4.575543861018467e-15 0.9659258262890685 0.2588190451025199
    outer loop
      vertex -107.5 -57.28975481918189 58
      vertex -107.5 -56.55105603347697 55.2431386002598
      vertex -109 -57.289754819181894 58
    endloop
  endfacet
  facet normal 0 0.25881904510252063 -0.9659258262890684
    outer loop
      vertex 75 -58 54.854895234552004
      vertex 73.5 -58 54.854895234552004
      vertex 75 -56.55105603347697 55.2431386002598
    endloop
  endfacet
  facet normal 0 0.9659258262890675 0.25881904510252396
    outer loop
      vertex 73.5 -57.62958240601741 59.26825381988369
      vertex 81.5 -57.62958240601741 59.26825381988369
      vertex 81.5 -57.28975481918189 58
    endloop
  endfacet
  facet normal 0 0.9659258262890673 0.2588190451025239
    outer loop
      vertex 75 -57.28975481918189 58
      vertex 73.5 -57.62958240601741 59.26825381988369
      vertex 81.5 -57.28975481918189 58
    endloop
  endfacet
  facet normal 0 0.25881904510252063 -0.9659258262890684
    outer loop
      vertex 73.5 -58 54.854895234552004
      vertex 73.5 -56.55105603347697 55.2431386002598
      vertex 75 -56.55105603347697 55.2431386002598
    endloop
  endfacet
  facet normal 0 0.9659258262890685 0.2588190451025199
    outer loop
      vertex 73.5 -56.55105603347697 55.2431386002598
      vertex 75 -57.28975481918189 58
      vertex 75 -56.55105603347697 55.2431386002598
    endloop
  endfacet
  facet normal -2.4866374376515703e-15 0.9659258262890681 0.2588190451025212
    outer loop
      vertex 73.5 -56.55105603347697 55.2431386002598
      vertex 73.5 -57.62958240601741 59.26825381988369
      vertex 75 -57.28975481918189 58
    endloop
  endfacet
endsolid OpenSCAD_Model
