solid OpenSCAD_Model
  facet normal -1 0 0
    outer loop
      vertex 73.5 -56 50
      vertex 73.5 -56 52
      vertex 73.5 -54 52
    endloop
  endfacet
  facet normal -1 0 0
    outer loop
      vertex 73.5 -56 50
      vertex 73.5 -54 52
      vertex 73.5 -54 50
    endloop
  endfacet
  facet normal 1 0 0
    outer loop
      vertex 75 -54 52
      vertex 75 -56 52
      vertex 75 -56 50
    endloop
  endfacet
  facet normal 1 0 0
    outer loop
      vertex 75 -54 50
      vertex 75 -54 52
      vertex 75 -56 50
    endloop
  endfacet
  facet normal 0 -1 0
    outer loop
      vertex 73.5 -56 52
      vertex 73.5 -56 50
      vertex 75 -56 50
    endloop
  endfacet
  facet normal 0 0 1
    outer loop
      vertex 73.5 -54 52
      vertex 73.5 -56 52
      vertex 75 -56 52
    endloop
  endfacet
  facet normal 0 0 -1
    outer loop
      vertex 73.5 -56 50
      vertex 73.5 -54 50
      vertex 75 -54 50
    endloop
  endfacet
  facet normal 0 1 0
    outer loop
      vertex 73.5 -54 50
      vertex 73.5 -54 52
      vertex 75 -54 52
    endloop
  endfacet
  facet normal 0 0 -1
    outer loop
      vertex 75 -54 50
      vertex 75 -56 50
      vertex 73.5 -56 50
    endloop
  endfacet
  facet normal 0 -1 0
    outer loop
      vertex 75 -56 50
      vertex 75 -56 52
      vertex 73.5 -56 52
    endloop
  endfacet
  facet normal 0 1 0
    outer loop
      vertex 73.5 -54 50
      vertex 75 -54 52
      vertex 75 -54 50
    endloop
  endfacet
  facet normal 0 0 1
    outer loop
      vertex 75 -56 52
      vertex 75 -54 52
      vertex 73.5 -54 52
    endloop
  endfacet
endsolid OpenSCAD_Model
