solid OpenSCAD_Model
  facet normal 0 0 1
    outer loop
      vertex 0 0 5.1
      vertex 0 -7 5.1
      vertex 7.5994075518808515 -3.124712384601345 5.1
    endloop
  endfacet
  facet normal 0 0 1
    outer loop
      vertex 0 0 5.1
      vertex 8.275 -2.244263164512564 5.1
      vertex 8.44510902307062 -2.160374677858634 5.1
    endloop
  endfacet
  facet normal 0 0 1
    outer loop
      vertex 0 0 5.1
      vertex 7.849637656577709 -2.617295927937355 5.1
      vertex 7.974695167279506 -2.4746951672795063 5.1
    endloop
  endfacet
  facet normal 0 0 1
    outer loop
      vertex 0 0 5.1
      vertex 8.117295927937356 -2.349637656577709 5.1
      vertex 8.275 -2.244263164512564 5.1
    endloop
  endfacet
  facet normal 0 0 1
    outer loop
      vertex 0 0 5.1
      vertex 7.974695167279506 -2.4746951672795063 5.1
      vertex 8.117295927937356 -2.349637656577709 5.1
    endloop
  endfacet
  facet normal 0 0 1
    outer loop
      vertex 0 0 5.1
      vertex 8.44510902307062 -2.160374677858634 5.1
      vertex 8.624712384601345 -2.099407551880851 5.1
    endloop
  endfacet
  facet normal 0 0 1
    outer loop
      vertex 0 0 5.1
      vertex 8.624712384601345 -2.099407551880851 5.1
      vertex 18 0 5.1
    endloop
  endfacet
  facet normal 0 0 1
    outer loop
      vertex 0 0 5.1
      vertex 7.744263164512564 -2.775 5.1
      vertex 7.849637656577709 -2.617295927937355 5.1
    endloop
  endfacet
  facet normal 0 0 1
    outer loop
      vertex 0 0 5.1
      vertex 7.660374677858634 -2.9451090230706196 5.1
      vertex 7.744263164512564 -2.775 5.1
    endloop
  endfacet
  facet normal 0 0 1
    outer loop
      vertex 0 0 5.1
      vertex 7.5994075518808515 -3.124712384601345 5.1
      vertex 7.660374677858634 -2.9451090230706196 5.1
    endloop
  endfacet
  facet normal -1 0 0
    outer loop
      vertex 0 0 5.1
      vertex 0 0 0
      vertex 0 -7 0
    endloop
  endfacet
  facet normal 0 1 0
    outer loop
      vertex 0 0 5.1
      vertex 18 0 0
      vertex 0 0 0
    endloop
  endfacet
  facet normal 0 0 -1
    outer loop
      vertex 0 0 0
      vertex 18 0 0
      vertex 0 -7 0
    endloop
  endfacet
  facet normal -1 0 0
    outer loop
      vertex 0 0 5.1
      vertex 0 -7 0
      vertex 0 -7 5.1
    endloop
  endfacet
  facet normal 0 0 1
    outer loop
      vertex 0 -7 5.1
      vertex 7.562404951007975 -3.310737021280925 5.1
      vertex 7.5994075518808515 -3.124712384601345 5.1
    endloop
  endfacet
  facet normal 0 0 1
    outer loop
      vertex 0 -7 5.1
      vertex 7.55 -3.5 5.1
      vertex 7.562404951007975 -3.310737021280925 5.1
    endloop
  endfacet
  facet normal 0 0 1
    outer loop
      vertex 0 -7 5.1
      vertex 7.562404951007975 -3.689262978719075 5.1
      vertex 7.55 -3.5 5.1
    endloop
  endfacet
  facet normal 0 0 1
    outer loop
      vertex 0 -7 5.1
      vertex 7.5994075518808515 -3.875287615398655 5.1
      vertex 7.562404951007975 -3.689262978719075 5.1
    endloop
  endfacet
  facet normal 0 0 1
    outer loop
      vertex 0 -7 5.1
      vertex 7.660374677858634 -4.05489097692938 5.1
      vertex 7.5994075518808515 -3.875287615398655 5.1
    endloop
  endfacet
  facet normal 0 0 1
    outer loop
      vertex 0 -7 5.1
      vertex 7.744263164512564 -4.225 5.1
      vertex 7.660374677858634 -4.05489097692938 5.1
    endloop
  endfacet
  facet normal 0 0 1
    outer loop
      vertex 0 -7 5.1
      vertex 7.849637656577709 -4.382704072062645 5.1
      vertex 7.744263164512564 -4.225 5.1
    endloop
  endfacet
  facet normal 0 0 1
    outer loop
      vertex 0 -7 5.1
      vertex 7.974695167279506 -4.525304832720494 5.1
      vertex 7.849637656577709 -4.382704072062645 5.1
    endloop
  endfacet
  facet normal 0 0 1
    outer loop
      vertex 0 -7 5.1
      vertex 8.117295927937356 -4.650362343422291 5.1
      vertex 7.974695167279506 -4.525304832720494 5.1
    endloop
  endfacet
  facet normal 0 0 1
    outer loop
      vertex 0 -7 5.1
      vertex 8.275 -4.755736835487436 5.1
      vertex 8.117295927937356 -4.650362343422291 5.1
    endloop
  endfacet
  facet normal 0 0 1
    outer loop
      vertex 0 -7 5.1
      vertex 8.44510902307062 -4.839625322141366 5.1
      vertex 8.275 -4.755736835487436 5.1
    endloop
  endfacet
  facet normal 0 0 1
    outer loop
      vertex 0 -7 5.1
      vertex 8.624712384601345 -4.9005924481191485 5.1
      vertex 8.44510902307062 -4.839625322141366 5.1
    endloop
  endfacet
  facet normal 0 0 1
    outer loop
      vertex 0 -7 5.1
      vertex 8.810737021280925 -4.937595048992025 5.1
      vertex 8.624712384601345 -4.9005924481191485 5.1
    endloop
  endfacet
  facet normal 0 0 1
    outer loop
      vertex 0 -7 5.1
      vertex 9 -4.95 5.1
      vertex 8.810737021280925 -4.937595048992025 5.1
    endloop
  endfacet
  facet normal 0 0 1
    outer loop
      vertex 0 -7 5.1
      vertex 9.189262978719075 -4.937595048992025 5.1
      vertex 9 -4.95 5.1
    endloop
  endfacet
  facet normal 0 0 1
    outer loop
      vertex 0 -7 5.1
      vertex 9.375287615398655 -4.9005924481191485 5.1
      vertex 9.189262978719075 -4.937595048992025 5.1
    endloop
  endfacet
  facet normal 0 -1 0
    outer loop
      vertex 0 -7 5.1
      vertex 0 -7 0
      vertex 18 -7 5.1
    endloop
  endfacet
  facet normal 0 0 1
    outer loop
      vertex 18 0 5.1
      vertex 8.624712384601345 -2.099407551880851 5.1
      vertex 8.810737021280925 -2.062404951007975 5.1
    endloop
  endfacet
  facet normal 0 0 1
    outer loop
      vertex 18 0 5.1
      vertex 8.810737021280925 -2.062404951007975 5.1
      vertex 9 -2.05 5.1
    endloop
  endfacet
  facet normal 0 0 1
    outer loop
      vertex 18 0 5.1
      vertex 9 -2.05 5.1
      vertex 9.189262978719075 -2.062404951007975 5.1
    endloop
  endfacet
  facet normal 0 0 1
    outer loop
      vertex 18 0 5.1
      vertex 9.189262978719075 -2.062404951007975 5.1
      vertex 9.375287615398655 -2.099407551880851 5.1
    endloop
  endfacet
  facet normal 0 0 1
    outer loop
      vertex 18 0 5.1
      vertex 9.375287615398655 -2.099407551880851 5.1
      vertex 9.55489097692938 -2.160374677858634 5.1
    endloop
  endfacet
  facet normal 0 0 1
    outer loop
      vertex 18 0 5.1
      vertex 9.55489097692938 -2.160374677858634 5.1
      vertex 9.725 -2.244263164512564 5.1
    endloop
  endfacet
  facet normal 0 0 1
    outer loop
      vertex 18 0 5.1
      vertex 9.725 -2.244263164512564 5.1
      vertex 9.882704072062644 -2.349637656577709 5.1
    endloop
  endfacet
  facet normal 0 0 1
    outer loop
      vertex 18 0 5.1
      vertex 9.882704072062644 -2.349637656577709 5.1
      vertex 10.025304832720494 -2.4746951672795063 5.1
    endloop
  endfacet
  facet normal 0 0 1
    outer loop
      vertex 18 0 5.1
      vertex 10.025304832720494 -2.4746951672795063 5.1
      vertex 10.150362343422291 -2.617295927937355 5.1
    endloop
  endfacet
  facet normal 0 1 0
    outer loop
      vertex 0 0 5.1
      vertex 18 0 5.1
      vertex 18 0 0
    endloop
  endfacet
  facet normal 0 0 1
    outer loop
      vertex 18 0 5.1
      vertex 10.150362343422291 -2.617295927937355 5.1
      vertex 10.255736835487436 -2.775 5.1
    endloop
  endfacet
  facet normal 0 0 1
    outer loop
      vertex 18 0 5.1
      vertex 10.255736835487436 -2.775 5.1
      vertex 10.339625322141366 -2.9451090230706196 5.1
    endloop
  endfacet
  facet normal 0 0 1
    outer loop
      vertex 18 0 5.1
      vertex 10.339625322141366 -2.9451090230706196 5.1
      vertex 10.400592448119149 -3.124712384601345 5.1
    endloop
  endfacet
  facet normal 0 0 1
    outer loop
      vertex 18 0 5.1
      vertex 10.400592448119149 -3.124712384601345 5.1
      vertex 10.437595048992025 -3.310737021280925 5.1
    endloop
  endfacet
  facet normal 0 0 1
    outer loop
      vertex 18 0 5.1
      vertex 10.437595048992025 -3.310737021280925 5.1
      vertex 10.45 -3.5 5.1
    endloop
  endfacet
  facet normal 0 0 1
    outer loop
      vertex 18 0 5.1
      vertex 10.45 -3.5 5.1
      vertex 10.437595048992025 -3.689262978719075 5.1
    endloop
  endfacet
  facet normal 0 0 1
    outer loop
      vertex 18 0 5.1
      vertex 10.437595048992025 -3.689262978719075 5.1
      vertex 10.400592448119149 -3.875287615398655 5.1
    endloop
  endfacet
  facet normal 1 0 0
    outer loop
      vertex 18 0 5.1
      vertex 18 -7 5.1
      vertex 18 0 0
    endloop
  endfacet
  facet normal 0 0 1
    outer loop
      vertex 18 -7 5.1
      vertex 10.400592448119149 -3.875287615398655 5.1
      vertex 10.339625322141366 -4.05489097692938 5.1
    endloop
  endfacet
  facet normal 0 0 1
    outer loop
      vertex 18 -7 5.1
      vertex 10.339625322141366 -4.05489097692938 5.1
      vertex 10.255736835487436 -4.225 5.1
    endloop
  endfacet
  facet normal 0 0 1
    outer loop
      vertex 18 -7 5.1
      vertex 10.255736835487436 -4.225 5.1
      vertex 10.150362343422291 -4.382704072062645 5.1
    endloop
  endfacet
  facet normal 0 0 1
    outer loop
      vertex 0 -7 5.1
      vertex 18 -7 5.1
      vertex 9.375287615398655 -4.9005924481191485 5.1
    endloop
  endfacet
  facet normal 0 0 1
    outer loop
      vertex 18 -7 5.1
      vertex 9.55489097692938 -4.839625322141366 5.1
      vertex 9.375287615398655 -4.9005924481191485 5.1
    endloop
  endfacet
  facet normal 0 0 1
    outer loop
      vertex 18 -7 5.1
      vertex 10.025304832720494 -4.525304832720494 5.1
      vertex 9.882704072062644 -4.650362343422291 5.1
    endloop
  endfacet
  facet normal 0 0 1
    outer loop
      vertex 18 -7 5.1
      vertex 9.882704072062644 -4.650362343422291 5.1
      vertex 9.725 -4.755736835487436 5.1
    endloop
  endfacet
  facet normal 0 0 1
    outer loop
      vertex 18 -7 5.1
      vertex 10.150362343422291 -4.382704072062645 5.1
      vertex 10.025304832720494 -4.525304832720494 5.1
    endloop
  endfacet
  facet normal 0 0 1
    outer loop
      vertex 18 -7 5.1
      vertex 9.725 -4.755736835487436 5.1
      vertex 9.55489097692938 -4.839625322141366 5.1
    endloop
  endfacet
  facet normal 0 0 1
    outer loop
      vertex 18 0 5.1
      vertex 10.400592448119149 -3.875287615398655 5.1
      vertex 18 -7 5.1
    endloop
  endfacet
  facet normal 0 0 -1
    outer loop
      vertex 0 -7 0
      vertex 18 0 0
      vertex 18 -7 0
    endloop
  endfacet
  facet normal 0 -1 0
    outer loop
      vertex 0 -7 0
      vertex 18 -7 0
      vertex 18 -7 5.1
    endloop
  endfacet
  facet normal 1 0 0
    outer loop
      vertex 18 0 0
      vertex 18 -7 5.1
      vertex 18 -7 0
    endloop
  endfacet
  facet normal 0.5555702330195983 -0.8314696123025478 0
    outer loop
      vertex 8.269486285189535 -2.547975991650518 1.1
      vertex 8.4 -2.460769515458674 0.7999999999999989
      vertex 8.4 -2.460769515458674 1.1
    endloop
  endfacet
  facet normal 0.6593458151000696 -0.7518398074789767 0
    outer loop
      vertex 8.269486285189535 -2.547975991650518 1.1
      vertex 8.151471862576143 -2.651471862576143 1.1
      vertex 8.269486285189535 -2.547975991650518 0.7999999999999989
    endloop
  endfacet
  facet normal 0.3214394653031609 -0.9469301294951058 0
    outer loop
      vertex 8.540779881161892 -2.3913445609864556 1.1
      vertex 8.689417145876975 -2.340889008453118 0.7999999999999989
      vertex 8.689417145876975 -2.340889008453118 1.1
    endloop
  endfacet
  facet normal 0.19509032201612658 -0.9807852804032308 0
    outer loop
      vertex 8.689417145876975 -2.340889008453118 1.1
      vertex 8.843368569335938 -2.3102661663514277 0.7999999999999989
      vertex 8.843368569335938 -2.3102661663514277 1.1
    endloop
  endfacet
  facet normal 0.06540312923014534 -0.9978589232386033 0
    outer loop
      vertex 8.843368569335938 -2.3102661663514277 1.1
      vertex 9 -2.3 0.7999999999999989
      vertex 9 -2.3 1.1
    endloop
  endfacet
  facet normal 0.44228869021900463 -0.8968727415326866 0
    outer loop
      vertex 8.540779881161892 -2.3913445609864556 1.1
      vertex 8.4 -2.460769515458674 1.1
      vertex 8.540779881161892 -2.3913445609864556 0.7999999999999989
    endloop
  endfacet
  facet normal 0.6593458151000696 -0.7518398074789767 0
    outer loop
      vertex 8.269486285189535 -2.547975991650518 0.7999999999999989
      vertex 8.151471862576143 -2.651471862576143 1.1
      vertex 8.151471862576143 -2.651471862576143 0.7999999999999989
    endloop
  endfacet
  facet normal 0.5555702330195983 -0.8314696123025478 0
    outer loop
      vertex 8.269486285189535 -2.547975991650518 1.1
      vertex 8.269486285189535 -2.547975991650518 0.7999999999999989
      vertex 8.4 -2.460769515458674 0.7999999999999989
    endloop
  endfacet
  facet normal 0.3214394653031609 -0.9469301294951058 0
    outer loop
      vertex 8.540779881161892 -2.3913445609864556 1.1
      vertex 8.540779881161892 -2.3913445609864556 0.7999999999999989
      vertex 8.689417145876975 -2.340889008453118 0.7999999999999989
    endloop
  endfacet
  facet normal 0.19509032201612658 -0.9807852804032308 0
    outer loop
      vertex 8.689417145876975 -2.340889008453118 1.1
      vertex 8.689417145876975 -2.340889008453118 0.7999999999999989
      vertex 8.843368569335938 -2.3102661663514277 0.7999999999999989
    endloop
  endfacet
  facet normal 0.06540312923014534 -0.9978589232386033 0
    outer loop
      vertex 8.843368569335938 -2.3102661663514277 1.1
      vertex 8.843368569335938 -2.3102661663514277 0.7999999999999989
      vertex 9 -2.3 0.7999999999999989
    endloop
  endfacet
  facet normal 0.44228869021900463 -0.8968727415326866 0
    outer loop
      vertex 8.540779881161892 -2.3913445609864556 0.7999999999999989
      vertex 8.4 -2.460769515458674 1.1
      vertex 8.4 -2.460769515458674 0.7999999999999989
    endloop
  endfacet
  facet normal 0.9469301294951058 -0.3214394653031609 0
    outer loop
      vertex 7.891344560986456 -3.0407798811618925 1.1
      vertex 7.840889008453118 -3.189417145876975 1.1
      vertex 7.891344560986456 -3.0407798811618925 0.7999999999999989
    endloop
  endfacet
  facet normal 0.9807852804032304 -0.1950903220161293 0
    outer loop
      vertex 7.840889008453118 -3.189417145876975 1.1
      vertex 7.810266166351427 -3.3433685693359383 1.1
      vertex 7.840889008453118 -3.189417145876975 0.7999999999999989
    endloop
  endfacet
  facet normal 0.9978589232386036 -0.06540312923014253 0
    outer loop
      vertex 7.810266166351427 -3.3433685693359383 1.1
      vertex 7.8 -3.5 1.1
      vertex 7.810266166351427 -3.3433685693359383 0.7999999999999989
    endloop
  endfacet
  facet normal 0.9469301294951058 -0.3214394653031609 0
    outer loop
      vertex 7.891344560986456 -3.0407798811618925 0.7999999999999989
      vertex 7.840889008453118 -3.189417145876975 1.1
      vertex 7.840889008453118 -3.189417145876975 0.7999999999999989
    endloop
  endfacet
  facet normal 0.9807852804032304 -0.1950903220161293 0
    outer loop
      vertex 7.840889008453118 -3.189417145876975 0.7999999999999989
      vertex 7.810266166351427 -3.3433685693359383 1.1
      vertex 7.810266166351427 -3.3433685693359383 0.7999999999999989
    endloop
  endfacet
  facet normal 0 0 1
    outer loop
      vertex 7.891344560986456 -3.0407798811618925 0.7999999999999989
      vertex 7.840889008453118 -3.189417145876975 0.7999999999999989
      vertex 7.840889008453118 -3.810582854123025 0.7999999999999989
    endloop
  endfacet
  facet normal 0.9978589232386036 -0.06540312923014253 0
    outer loop
      vertex 7.810266166351427 -3.3433685693359383 0.7999999999999989
      vertex 7.8 -3.5 1.1
      vertex 7.8 -3.5 0.7999999999999989
    endloop
  endfacet
  facet normal 0 0 1
    outer loop
      vertex 7.840889008453118 -3.189417145876975 0.7999999999999989
      vertex 7.810266166351427 -3.3433685693359383 0.7999999999999989
      vertex 7.810266166351427 -3.6566314306640617 0.7999999999999989
    endloop
  endfacet
  facet normal 0.7518398074789765 -0.6593458151000698 0
    outer loop
      vertex 8.047975991650517 -2.769486285189535 1.1
      vertex 8.151471862576143 -2.651471862576143 0.7999999999999989
      vertex 8.151471862576143 -2.651471862576143 1.1
    endloop
  endfacet
  facet normal 0.8314696123025475 -0.5555702330195991 0
    outer loop
      vertex 8.047975991650517 -2.769486285189535 1.1
      vertex 7.960769515458674 -2.9 1.1
      vertex 8.047975991650517 -2.769486285189535 0.7999999999999989
    endloop
  endfacet
  facet normal 0.8968727415326873 -0.44228869021900347 0
    outer loop
      vertex 7.891344560986456 -3.0407798811618925 1.1
      vertex 7.960769515458674 -2.9 0.7999999999999989
      vertex 7.960769515458674 -2.9 1.1
    endloop
  endfacet
  facet normal 0.7518398074789765 -0.6593458151000698 0
    outer loop
      vertex 8.047975991650517 -2.769486285189535 1.1
      vertex 8.047975991650517 -2.769486285189535 0.7999999999999989
      vertex 8.151471862576143 -2.651471862576143 0.7999999999999989
    endloop
  endfacet
  facet normal 0.8314696123025475 -0.5555702330195991 0
    outer loop
      vertex 8.047975991650517 -2.769486285189535 0.7999999999999989
      vertex 7.960769515458674 -2.9 1.1
      vertex 7.960769515458674 -2.9 0.7999999999999989
    endloop
  endfacet
  facet normal 0.8968727415326873 -0.44228869021900347 0
    outer loop
      vertex 7.891344560986456 -3.0407798811618925 1.1
      vertex 7.891344560986456 -3.0407798811618925 0.7999999999999989
      vertex 7.960769515458674 -2.9 0.7999999999999989
    endloop
  endfacet
  facet normal 0 0 1
    outer loop
      vertex 8.047975991650517 -2.769486285189535 0.7999999999999989
      vertex 7.960769515458674 -2.9 0.7999999999999989
      vertex 7.960769515458674 -4.1 0.7999999999999989
    endloop
  endfacet
  facet normal 0 0 1
    outer loop
      vertex 8.047975991650517 -2.769486285189535 0.7999999999999989
      vertex 8.047975991650517 -4.230513714810465 0.7999999999999989
      vertex 8.151471862576143 -2.651471862576143 0.7999999999999989
    endloop
  endfacet
  facet normal 0 0 1
    outer loop
      vertex 8.269486285189535 -2.547975991650518 0.7999999999999989
      vertex 8.269486285189535 -4.452024008349483 0.7999999999999989
      vertex 8.4 -2.460769515458674 0.7999999999999989
    endloop
  endfacet
  facet normal 0 0 1
    outer loop
      vertex 8.269486285189535 -2.547975991650518 0.7999999999999989
      vertex 8.151471862576143 -2.651471862576143 0.7999999999999989
      vertex 8.151471862576143 -4.348528137423857 0.7999999999999989
    endloop
  endfacet
  facet normal 0 0 1
    outer loop
      vertex 7.891344560986456 -3.0407798811618925 0.7999999999999989
      vertex 7.891344560986456 -3.9592201188381075 0.7999999999999989
      vertex 7.960769515458674 -2.9 0.7999999999999989
    endloop
  endfacet
  facet normal 0 0 1
    outer loop
      vertex 8.540779881161892 -2.3913445609864556 0.7999999999999989
      vertex 8.4 -2.460769515458674 0.7999999999999989
      vertex 8.4 -4.539230484541326 0.7999999999999989
    endloop
  endfacet
  facet normal 0 0 1
    outer loop
      vertex 8.540779881161892 -2.3913445609864556 0.7999999999999989
      vertex 8.540779881161892 -4.608655439013544 0.7999999999999989
      vertex 8.689417145876975 -2.340889008453118 0.7999999999999989
    endloop
  endfacet
  facet normal 0 0 1
    outer loop
      vertex 8.689417145876975 -2.340889008453118 0.7999999999999989
      vertex 8.689417145876975 -4.659110991546882 0.7999999999999989
      vertex 8.843368569335938 -2.3102661663514277 0.7999999999999989
    endloop
  endfacet
  facet normal 0 0 1
    outer loop
      vertex 8.843368569335938 -2.3102661663514277 0.7999999999999989
      vertex 8.843368569335938 -4.689733833648573 0.7999999999999989
      vertex 9 -2.3 0.7999999999999989
    endloop
  endfacet
  facet normal 0.9978589232386036 0.06540312923014253 0
    outer loop
      vertex 7.8 -3.5 1.1
      vertex 7.810266166351427 -3.6566314306640617 1.1
      vertex 7.8 -3.5 0.7999999999999989
    endloop
  endfacet
  facet normal 0.9807852804032304 0.1950903220161293 0
    outer loop
      vertex 7.810266166351427 -3.6566314306640617 1.1
      vertex 7.840889008453118 -3.810582854123025 1.1
      vertex 7.810266166351427 -3.6566314306640617 0.7999999999999989
    endloop
  endfacet
  facet normal 0.9469301294951058 0.3214394653031609 0
    outer loop
      vertex 7.840889008453118 -3.810582854123025 1.1
      vertex 7.891344560986456 -3.9592201188381075 1.1
      vertex 7.840889008453118 -3.810582854123025 0.7999999999999989
    endloop
  endfacet
  facet normal 0.9978589232386036 0.06540312923014253 0
    outer loop
      vertex 7.810266166351427 -3.6566314306640617 1.1
      vertex 7.810266166351427 -3.6566314306640617 0.7999999999999989
      vertex 7.8 -3.5 0.7999999999999989
    endloop
  endfacet
  facet normal 0 0 1
    outer loop
      vertex 7.810266166351427 -3.3433685693359383 0.7999999999999989
      vertex 7.8 -3.5 0.7999999999999989
      vertex 7.810266166351427 -3.6566314306640617 0.7999999999999989
    endloop
  endfacet
  facet normal 0 0 1
    outer loop
      vertex 7.840889008453118 -3.189417145876975 0.7999999999999989
      vertex 7.810266166351427 -3.6566314306640617 0.7999999999999989
      vertex 7.840889008453118 -3.810582854123025 0.7999999999999989
    endloop
  endfacet
  facet normal 0 0 1
    outer loop
      vertex 7.891344560986456 -3.0407798811618925 0.7999999999999989
      vertex 7.840889008453118 -3.810582854123025 0.7999999999999989
      vertex 7.891344560986456 -3.9592201188381075 0.7999999999999989
    endloop
  endfacet
  facet normal 0.9807852804032304 0.1950903220161293 0
    outer loop
      vertex 7.810266166351427 -3.6566314306640617 0.7999999999999989
      vertex 7.840889008453118 -3.810582854123025 1.1
      vertex 7.840889008453118 -3.810582854123025 0.7999999999999989
    endloop
  endfacet
  facet normal 0.9469301294951058 0.3214394653031609 0
    outer loop
      vertex 7.840889008453118 -3.810582854123025 0.7999999999999989
      vertex 7.891344560986456 -3.9592201188381075 1.1
      vertex 7.891344560986456 -3.9592201188381075 0.7999999999999989
    endloop
  endfacet
  facet normal 0 0 1
    outer loop
      vertex 7.960769515458674 -2.9 0.7999999999999989
      vertex 7.891344560986456 -3.9592201188381075 0.7999999999999989
      vertex 7.960769515458674 -4.1 0.7999999999999989
    endloop
  endfacet
  facet normal 0 0 1
    outer loop
      vertex 8.047975991650517 -2.769486285189535 0.7999999999999989
      vertex 7.960769515458674 -4.1 0.7999999999999989
      vertex 8.047975991650517 -4.230513714810465 0.7999999999999989
    endloop
  endfacet
  facet normal 0 0 1
    outer loop
      vertex 8.151471862576143 -2.651471862576143 0.7999999999999989
      vertex 8.047975991650517 -4.230513714810465 0.7999999999999989
      vertex 8.151471862576143 -4.348528137423857 0.7999999999999989
    endloop
  endfacet
  facet normal 0 0 1
    outer loop
      vertex 8.269486285189535 -2.547975991650518 0.7999999999999989
      vertex 8.151471862576143 -4.348528137423857 0.7999999999999989
      vertex 8.269486285189535 -4.452024008349483 0.7999999999999989
    endloop
  endfacet
  facet normal 0 0 1
    outer loop
      vertex 8.4 -2.460769515458674 0.7999999999999989
      vertex 8.269486285189535 -4.452024008349483 0.7999999999999989
      vertex 8.4 -4.539230484541326 0.7999999999999989
    endloop
  endfacet
  facet normal 0 0 1
    outer loop
      vertex 8.540779881161892 -2.3913445609864556 0.7999999999999989
      vertex 8.4 -4.539230484541326 0.7999999999999989
      vertex 8.540779881161892 -4.608655439013544 0.7999999999999989
    endloop
  endfacet
  facet normal 0 0 1
    outer loop
      vertex 8.689417145876975 -2.340889008453118 0.7999999999999989
      vertex 8.540779881161892 -4.608655439013544 0.7999999999999989
      vertex 8.689417145876975 -4.659110991546882 0.7999999999999989
    endloop
  endfacet
  facet normal 0 0 1
    outer loop
      vertex 8.843368569335938 -2.3102661663514277 0.7999999999999989
      vertex 8.689417145876975 -4.659110991546882 0.7999999999999989
      vertex 8.843368569335938 -4.689733833648573 0.7999999999999989
    endloop
  endfacet
  facet normal 0 0 1
    outer loop
      vertex 8.843368569335938 -4.689733833648573 0.7999999999999989
      vertex 9 -4.7 0.7999999999999989
      vertex 9 -2.3 0.7999999999999989
    endloop
  endfacet
  facet normal 0.8968727415326866 0.44228869021900463 0
    outer loop
      vertex 7.891344560986456 -3.9592201188381075 1.1
      vertex 7.960769515458674 -4.1 1.1
      vertex 7.891344560986456 -3.9592201188381075 0.7999999999999989
    endloop
  endfacet
  facet normal 0.8314696123025491 0.5555702330195964 0
    outer loop
      vertex 7.960769515458674 -4.1 1.1
      vertex 8.047975991650517 -4.230513714810465 1.1
      vertex 7.960769515458674 -4.1 0.7999999999999989
    endloop
  endfacet
  facet normal 0.7518398074789753 0.6593458151000713 0
    outer loop
      vertex 8.047975991650517 -4.230513714810465 1.1
      vertex 8.151471862576143 -4.348528137423857 1.1
      vertex 8.047975991650517 -4.230513714810465 0.7999999999999989
    endloop
  endfacet
  facet normal 0.8968727415326866 0.44228869021900463 0
    outer loop
      vertex 7.891344560986456 -3.9592201188381075 0.7999999999999989
      vertex 7.960769515458674 -4.1 1.1
      vertex 7.960769515458674 -4.1 0.7999999999999989
    endloop
  endfacet
  facet normal 0.8314696123025491 0.5555702330195964 0
    outer loop
      vertex 7.960769515458674 -4.1 0.7999999999999989
      vertex 8.047975991650517 -4.230513714810465 1.1
      vertex 8.047975991650517 -4.230513714810465 0.7999999999999989
    endloop
  endfacet
  facet normal 0.7518398074789753 0.6593458151000713 0
    outer loop
      vertex 8.047975991650517 -4.230513714810465 0.7999999999999989
      vertex 8.151471862576143 -4.348528137423857 1.1
      vertex 8.151471862576143 -4.348528137423857 0.7999999999999989
    endloop
  endfacet
  facet normal 0.6593458151000713 0.7518398074789753 0
    outer loop
      vertex 8.151471862576143 -4.348528137423857 1.1
      vertex 8.269486285189535 -4.452024008349483 1.1
      vertex 8.151471862576143 -4.348528137423857 0.7999999999999989
    endloop
  endfacet
  facet normal 0.5555702330195964 0.8314696123025491 0
    outer loop
      vertex 8.269486285189535 -4.452024008349483 1.1
      vertex 8.4 -4.539230484541326 1.1
      vertex 8.269486285189535 -4.452024008349483 0.7999999999999989
    endloop
  endfacet
  facet normal 0.44228869021900463 0.8968727415326866 0
    outer loop
      vertex 8.4 -4.539230484541326 1.1
      vertex 8.540779881161892 -4.608655439013544 1.1
      vertex 8.4 -4.539230484541326 0.7999999999999989
    endloop
  endfacet
  facet normal 0.3214394653031609 0.9469301294951058 0
    outer loop
      vertex 8.540779881161892 -4.608655439013544 1.1
      vertex 8.689417145876975 -4.659110991546882 1.1
      vertex 8.540779881161892 -4.608655439013544 0.7999999999999989
    endloop
  endfacet
  facet normal 0.1950903220161293 0.9807852804032304 0
    outer loop
      vertex 8.689417145876975 -4.659110991546882 1.1
      vertex 8.843368569335938 -4.689733833648573 1.1
      vertex 8.689417145876975 -4.659110991546882 0.7999999999999989
    endloop
  endfacet
  facet normal 0.06540312923014253 0.9978589232386036 0
    outer loop
      vertex 8.843368569335938 -4.689733833648573 1.1
      vertex 9 -4.7 1.1
      vertex 8.843368569335938 -4.689733833648573 0.7999999999999989
    endloop
  endfacet
  facet normal 0.6593458151000713 0.7518398074789753 0
    outer loop
      vertex 8.151471862576143 -4.348528137423857 0.7999999999999989
      vertex 8.269486285189535 -4.452024008349483 1.1
      vertex 8.269486285189535 -4.452024008349483 0.7999999999999989
    endloop
  endfacet
  facet normal 0.5555702330195964 0.8314696123025491 0
    outer loop
      vertex 8.269486285189535 -4.452024008349483 0.7999999999999989
      vertex 8.4 -4.539230484541326 1.1
      vertex 8.4 -4.539230484541326 0.7999999999999989
    endloop
  endfacet
  facet normal 0.44228869021900463 0.8968727415326866 0
    outer loop
      vertex 8.4 -4.539230484541326 0.7999999999999989
      vertex 8.540779881161892 -4.608655439013544 1.1
      vertex 8.540779881161892 -4.608655439013544 0.7999999999999989
    endloop
  endfacet
  facet normal 0.3214394653031609 0.9469301294951058 0
    outer loop
      vertex 8.540779881161892 -4.608655439013544 0.7999999999999989
      vertex 8.689417145876975 -4.659110991546882 1.1
      vertex 8.689417145876975 -4.659110991546882 0.7999999999999989
    endloop
  endfacet
  facet normal 0.1950903220161293 0.9807852804032304 0
    outer loop
      vertex 8.689417145876975 -4.659110991546882 0.7999999999999989
      vertex 8.843368569335938 -4.689733833648573 1.1
      vertex 8.843368569335938 -4.689733833648573 0.7999999999999989
    endloop
  endfacet
  facet normal 0.06540312923014253 0.9978589232386036 0
    outer loop
      vertex 8.843368569335938 -4.689733833648573 0.7999999999999989
      vertex 9 -4.7 1.1
      vertex 9 -4.7 0.7999999999999989
    endloop
  endfacet
  facet normal -0.06540312923014534 -0.9978589232386033 0
    outer loop
      vertex 9 -2.3 1.1
      vertex 9.156631430664062 -2.3102661663514277 0.7999999999999989
      vertex 9.156631430664062 -2.3102661663514277 1.1
    endloop
  endfacet
  facet normal -0.19509032201612658 -0.9807852804032308 0
    outer loop
      vertex 9.156631430664062 -2.3102661663514277 1.1
      vertex 9.310582854123025 -2.340889008453118 0.7999999999999989
      vertex 9.310582854123025 -2.340889008453118 1.1
    endloop
  endfacet
  facet normal -0.3214394653031609 -0.9469301294951058 0
    outer loop
      vertex 9.310582854123025 -2.340889008453118 1.1
      vertex 9.459220118838108 -2.3913445609864556 0.7999999999999989
      vertex 9.459220118838108 -2.3913445609864556 1.1
    endloop
  endfacet
  facet normal -0.44228869021900463 -0.8968727415326866 0
    outer loop
      vertex 9.459220118838108 -2.3913445609864556 1.1
      vertex 9.6 -2.460769515458674 0.7999999999999989
      vertex 9.6 -2.460769515458674 1.1
    endloop
  endfacet
  facet normal -0.5555702330195983 -0.8314696123025478 0
    outer loop
      vertex 9.6 -2.460769515458674 1.1
      vertex 9.730513714810465 -2.547975991650518 0.7999999999999989
      vertex 9.730513714810465 -2.547975991650518 1.1
    endloop
  endfacet
  facet normal -0.6593458151000696 -0.7518398074789767 0
    outer loop
      vertex 9.730513714810465 -2.547975991650518 1.1
      vertex 9.848528137423857 -2.651471862576143 0.7999999999999989
      vertex 9.848528137423857 -2.651471862576143 1.1
    endloop
  endfacet
  facet normal -0.06540312923014534 -0.9978589232386033 0
    outer loop
      vertex 9 -2.3 1.1
      vertex 9 -2.3 0.7999999999999989
      vertex 9.156631430664062 -2.3102661663514277 0.7999999999999989
    endloop
  endfacet
  facet normal -0.19509032201612658 -0.9807852804032308 0
    outer loop
      vertex 9.156631430664062 -2.3102661663514277 1.1
      vertex 9.156631430664062 -2.3102661663514277 0.7999999999999989
      vertex 9.310582854123025 -2.340889008453118 0.7999999999999989
    endloop
  endfacet
  facet normal -0.3214394653031609 -0.9469301294951058 0
    outer loop
      vertex 9.310582854123025 -2.340889008453118 1.1
      vertex 9.310582854123025 -2.340889008453118 0.7999999999999989
      vertex 9.459220118838108 -2.3913445609864556 0.7999999999999989
    endloop
  endfacet
  facet normal -0.44228869021900463 -0.8968727415326866 0
    outer loop
      vertex 9.459220118838108 -2.3913445609864556 1.1
      vertex 9.459220118838108 -2.3913445609864556 0.7999999999999989
      vertex 9.6 -2.460769515458674 0.7999999999999989
    endloop
  endfacet
  facet normal -0.5555702330195983 -0.8314696123025478 0
    outer loop
      vertex 9.6 -2.460769515458674 1.1
      vertex 9.6 -2.460769515458674 0.7999999999999989
      vertex 9.730513714810465 -2.547975991650518 0.7999999999999989
    endloop
  endfacet
  facet normal -0.6593458151000696 -0.7518398074789767 0
    outer loop
      vertex 9.730513714810465 -2.547975991650518 1.1
      vertex 9.730513714810465 -2.547975991650518 0.7999999999999989
      vertex 9.848528137423857 -2.651471862576143 0.7999999999999989
    endloop
  endfacet
  facet normal -0.7518398074789765 -0.6593458151000698 0
    outer loop
      vertex 9.848528137423857 -2.651471862576143 1.1
      vertex 9.952024008349483 -2.769486285189535 0.7999999999999989
      vertex 9.952024008349483 -2.769486285189535 1.1
    endloop
  endfacet
  facet normal -0.8314696123025475 -0.5555702330195991 0
    outer loop
      vertex 9.952024008349483 -2.769486285189535 1.1
      vertex 10.039230484541326 -2.9 0.7999999999999989
      vertex 10.039230484541326 -2.9 1.1
    endloop
  endfacet
  facet normal -0.8968727415326873 -0.44228869021900347 0
    outer loop
      vertex 10.039230484541326 -2.9 1.1
      vertex 10.108655439013544 -3.0407798811618925 0.7999999999999989
      vertex 10.108655439013544 -3.0407798811618925 1.1
    endloop
  endfacet
  facet normal -0.7518398074789765 -0.6593458151000698 0
    outer loop
      vertex 9.848528137423857 -2.651471862576143 1.1
      vertex 9.848528137423857 -2.651471862576143 0.7999999999999989
      vertex 9.952024008349483 -2.769486285189535 0.7999999999999989
    endloop
  endfacet
  facet normal -0.8314696123025475 -0.5555702330195991 0
    outer loop
      vertex 9.952024008349483 -2.769486285189535 1.1
      vertex 9.952024008349483 -2.769486285189535 0.7999999999999989
      vertex 10.039230484541326 -2.9 0.7999999999999989
    endloop
  endfacet
  facet normal -0.8968727415326873 -0.44228869021900347 0
    outer loop
      vertex 10.039230484541326 -2.9 1.1
      vertex 10.039230484541326 -2.9 0.7999999999999989
      vertex 10.108655439013544 -3.0407798811618925 0.7999999999999989
    endloop
  endfacet
  facet normal 0 0 1
    outer loop
      vertex 9 -2.3 0.7999999999999989
      vertex 9 -4.7 0.7999999999999989
      vertex 9.156631430664062 -2.3102661663514277 0.7999999999999989
    endloop
  endfacet
  facet normal 0 0 1
    outer loop
      vertex 9.156631430664062 -2.3102661663514277 0.7999999999999989
      vertex 9.156631430664062 -4.689733833648573 0.7999999999999989
      vertex 9.310582854123025 -2.340889008453118 0.7999999999999989
    endloop
  endfacet
  facet normal 0 0 1
    outer loop
      vertex 9.310582854123025 -2.340889008453118 0.7999999999999989
      vertex 9.310582854123025 -4.659110991546882 0.7999999999999989
      vertex 9.459220118838108 -2.3913445609864556 0.7999999999999989
    endloop
  endfacet
  facet normal 0 0 1
    outer loop
      vertex 9.459220118838108 -2.3913445609864556 0.7999999999999989
      vertex 9.459220118838108 -4.608655439013544 0.7999999999999989
      vertex 9.6 -2.460769515458674 0.7999999999999989
    endloop
  endfacet
  facet normal 0 0 1
    outer loop
      vertex 9.6 -2.460769515458674 0.7999999999999989
      vertex 9.6 -4.539230484541326 0.7999999999999989
      vertex 9.730513714810465 -2.547975991650518 0.7999999999999989
    endloop
  endfacet
  facet normal 0 0 1
    outer loop
      vertex 9.730513714810465 -2.547975991650518 0.7999999999999989
      vertex 9.730513714810465 -4.452024008349483 0.7999999999999989
      vertex 9.848528137423857 -2.651471862576143 0.7999999999999989
    endloop
  endfacet
  facet normal 0 0 1
    outer loop
      vertex 9.848528137423857 -2.651471862576143 0.7999999999999989
      vertex 9.848528137423857 -4.348528137423857 0.7999999999999989
      vertex 9.952024008349483 -2.769486285189535 0.7999999999999989
    endloop
  endfacet
  facet normal 0 0 1
    outer loop
      vertex 9.952024008349483 -2.769486285189535 0.7999999999999989
      vertex 9.952024008349483 -4.230513714810465 0.7999999999999989
      vertex 10.039230484541326 -2.9 0.7999999999999989
    endloop
  endfacet
  facet normal 0 0 1
    outer loop
      vertex 10.039230484541326 -2.9 0.7999999999999989
      vertex 10.039230484541326 -4.1 0.7999999999999989
      vertex 10.108655439013544 -3.0407798811618925 0.7999999999999989
    endloop
  endfacet
  facet normal -0.9469301294951058 -0.3214394653031609 0
    outer loop
      vertex 10.108655439013544 -3.0407798811618925 1.1
      vertex 10.159110991546882 -3.189417145876975 0.7999999999999989
      vertex 10.159110991546882 -3.189417145876975 1.1
    endloop
  endfacet
  facet normal -0.9807852804032304 -0.1950903220161293 0
    outer loop
      vertex 10.159110991546882 -3.189417145876975 1.1
      vertex 10.189733833648573 -3.3433685693359383 0.7999999999999989
      vertex 10.189733833648573 -3.3433685693359383 1.1
    endloop
  endfacet
  facet normal -0.9978589232386039 -0.06540312923013689 0
    outer loop
      vertex 10.189733833648573 -3.3433685693359383 1.1
      vertex 10.2 -3.5 0.7999999999999989
      vertex 10.2 -3.5 1.1
    endloop
  endfacet
  facet normal -0.9469301294951058 -0.3214394653031609 0
    outer loop
      vertex 10.108655439013544 -3.0407798811618925 1.1
      vertex 10.108655439013544 -3.0407798811618925 0.7999999999999989
      vertex 10.159110991546882 -3.189417145876975 0.7999999999999989
    endloop
  endfacet
  facet normal -0.9807852804032304 -0.1950903220161293 0
    outer loop
      vertex 10.159110991546882 -3.189417145876975 1.1
      vertex 10.159110991546882 -3.189417145876975 0.7999999999999989
      vertex 10.189733833648573 -3.3433685693359383 0.7999999999999989
    endloop
  endfacet
  facet normal -0.9978589232386039 -0.06540312923013689 0
    outer loop
      vertex 10.189733833648573 -3.3433685693359383 1.1
      vertex 10.189733833648573 -3.3433685693359383 0.7999999999999989
      vertex 10.2 -3.5 0.7999999999999989
    endloop
  endfacet
  facet normal 0 0 1
    outer loop
      vertex 10.108655439013544 -3.0407798811618925 0.7999999999999989
      vertex 10.108655439013544 -3.9592201188381075 0.7999999999999989
      vertex 10.159110991546882 -3.189417145876975 0.7999999999999989
    endloop
  endfacet
  facet normal 0 0 1
    outer loop
      vertex 10.159110991546882 -3.189417145876975 0.7999999999999989
      vertex 10.159110991546882 -3.810582854123025 0.7999999999999989
      vertex 10.189733833648573 -3.3433685693359383 0.7999999999999989
    endloop
  endfacet
  facet normal 0 0 1
    outer loop
      vertex 9.156631430664062 -2.3102661663514277 0.7999999999999989
      vertex 9 -4.7 0.7999999999999989
      vertex 9.156631430664062 -4.689733833648573 0.7999999999999989
    endloop
  endfacet
  facet normal 0 0 1
    outer loop
      vertex 9.310582854123025 -2.340889008453118 0.7999999999999989
      vertex 9.156631430664062 -4.689733833648573 0.7999999999999989
      vertex 9.310582854123025 -4.659110991546882 0.7999999999999989
    endloop
  endfacet
  facet normal 0 0 1
    outer loop
      vertex 9.459220118838108 -2.3913445609864556 0.7999999999999989
      vertex 9.310582854123025 -4.659110991546882 0.7999999999999989
      vertex 9.459220118838108 -4.608655439013544 0.7999999999999989
    endloop
  endfacet
  facet normal 0 0 1
    outer loop
      vertex 9.6 -2.460769515458674 0.7999999999999989
      vertex 9.459220118838108 -4.608655439013544 0.7999999999999989
      vertex 9.6 -4.539230484541326 0.7999999999999989
    endloop
  endfacet
  facet normal 0 0 1
    outer loop
      vertex 10.108655439013544 -3.0407798811618925 0.7999999999999989
      vertex 10.039230484541326 -4.1 0.7999999999999989
      vertex 10.108655439013544 -3.9592201188381075 0.7999999999999989
    endloop
  endfacet
  facet normal 0 0 1
    outer loop
      vertex 9.848528137423857 -2.651471862576143 0.7999999999999989
      vertex 9.730513714810465 -4.452024008349483 0.7999999999999989
      vertex 9.848528137423857 -4.348528137423857 0.7999999999999989
    endloop
  endfacet
  facet normal 0 0 1
    outer loop
      vertex 9.730513714810465 -2.547975991650518 0.7999999999999989
      vertex 9.6 -4.539230484541326 0.7999999999999989
      vertex 9.730513714810465 -4.452024008349483 0.7999999999999989
    endloop
  endfacet
  facet normal 0 0 1
    outer loop
      vertex 9.952024008349483 -2.769486285189535 0.7999999999999989
      vertex 9.848528137423857 -4.348528137423857 0.7999999999999989
      vertex 9.952024008349483 -4.230513714810465 0.7999999999999989
    endloop
  endfacet
  facet normal 0 0 1
    outer loop
      vertex 10.039230484541326 -2.9 0.7999999999999989
      vertex 9.952024008349483 -4.230513714810465 0.7999999999999989
      vertex 10.039230484541326 -4.1 0.7999999999999989
    endloop
  endfacet
  facet normal -0.8968727415326866 0.44228869021900463 0
    outer loop
      vertex 10.039230484541326 -4.1 1.1
      vertex 10.108655439013544 -3.9592201188381075 1.1
      vertex 10.039230484541326 -4.1 0.7999999999999989
    endloop
  endfacet
  facet normal -0.8314696123025491 0.5555702330195964 0
    outer loop
      vertex 10.039230484541326 -4.1 1.1
      vertex 9.952024008349483 -4.230513714810465 0.7999999999999989
      vertex 9.952024008349483 -4.230513714810465 1.1
    endloop
  endfacet
  facet normal -0.7518398074789753 0.6593458151000713 0
    outer loop
      vertex 9.848528137423857 -4.348528137423857 1.1
      vertex 9.952024008349483 -4.230513714810465 1.1
      vertex 9.848528137423857 -4.348528137423857 0.7999999999999989
    endloop
  endfacet
  facet normal -0.8968727415326866 0.44228869021900463 0
    outer loop
      vertex 10.039230484541326 -4.1 0.7999999999999989
      vertex 10.108655439013544 -3.9592201188381075 1.1
      vertex 10.108655439013544 -3.9592201188381075 0.7999999999999989
    endloop
  endfacet
  facet normal -0.8314696123025491 0.5555702330195964 0
    outer loop
      vertex 10.039230484541326 -4.1 1.1
      vertex 10.039230484541326 -4.1 0.7999999999999989
      vertex 9.952024008349483 -4.230513714810465 0.7999999999999989
    endloop
  endfacet
  facet normal -0.7518398074789753 0.6593458151000713 0
    outer loop
      vertex 9.848528137423857 -4.348528137423857 0.7999999999999989
      vertex 9.952024008349483 -4.230513714810465 1.1
      vertex 9.952024008349483 -4.230513714810465 0.7999999999999989
    endloop
  endfacet
  facet normal -0.9978589232386039 0.06540312923013689 0
    outer loop
      vertex 10.2 -3.5 1.1
      vertex 10.189733833648573 -3.6566314306640617 0.7999999999999989
      vertex 10.189733833648573 -3.6566314306640617 1.1
    endloop
  endfacet
  facet normal -0.9807852804032304 0.1950903220161293 0
    outer loop
      vertex 10.189733833648573 -3.6566314306640617 1.1
      vertex 10.159110991546882 -3.810582854123025 0.7999999999999989
      vertex 10.159110991546882 -3.810582854123025 1.1
    endloop
  endfacet
  facet normal -0.9469301294951058 0.3214394653031609 0
    outer loop
      vertex 10.159110991546882 -3.810582854123025 1.1
      vertex 10.108655439013544 -3.9592201188381075 0.7999999999999989
      vertex 10.108655439013544 -3.9592201188381075 1.1
    endloop
  endfacet
  facet normal -0.9978589232386039 0.06540312923013689 0
    outer loop
      vertex 10.2 -3.5 1.1
      vertex 10.2 -3.5 0.7999999999999989
      vertex 10.189733833648573 -3.6566314306640617 0.7999999999999989
    endloop
  endfacet
  facet normal 0 0 1
    outer loop
      vertex 10.189733833648573 -3.3433685693359383 0.7999999999999989
      vertex 10.189733833648573 -3.6566314306640617 0.7999999999999989
      vertex 10.2 -3.5 0.7999999999999989
    endloop
  endfacet
  facet normal 0 0 1
    outer loop
      vertex 10.189733833648573 -3.3433685693359383 0.7999999999999989
      vertex 10.159110991546882 -3.810582854123025 0.7999999999999989
      vertex 10.189733833648573 -3.6566314306640617 0.7999999999999989
    endloop
  endfacet
  facet normal -0.9807852804032304 0.1950903220161293 0
    outer loop
      vertex 10.189733833648573 -3.6566314306640617 1.1
      vertex 10.189733833648573 -3.6566314306640617 0.7999999999999989
      vertex 10.159110991546882 -3.810582854123025 0.7999999999999989
    endloop
  endfacet
  facet normal 0 0 1
    outer loop
      vertex 10.159110991546882 -3.189417145876975 0.7999999999999989
      vertex 10.108655439013544 -3.9592201188381075 0.7999999999999989
      vertex 10.159110991546882 -3.810582854123025 0.7999999999999989
    endloop
  endfacet
  facet normal -0.9469301294951058 0.3214394653031609 0
    outer loop
      vertex 10.159110991546882 -3.810582854123025 1.1
      vertex 10.159110991546882 -3.810582854123025 0.7999999999999989
      vertex 10.108655439013544 -3.9592201188381075 0.7999999999999989
    endloop
  endfacet
  facet normal -0.44228869021900463 0.8968727415326866 0
    outer loop
      vertex 9.6 -4.539230484541326 1.1
      vertex 9.459220118838108 -4.608655439013544 0.7999999999999989
      vertex 9.459220118838108 -4.608655439013544 1.1
    endloop
  endfacet
  facet normal -0.06540312923014253 0.9978589232386036 0
    outer loop
      vertex 9 -4.7 1.1
      vertex 9.156631430664062 -4.689733833648573 1.1
      vertex 9 -4.7 0.7999999999999989
    endloop
  endfacet
  facet normal -0.1950903220161293 0.9807852804032304 0
    outer loop
      vertex 9.156631430664062 -4.689733833648573 1.1
      vertex 9.310582854123025 -4.659110991546882 1.1
      vertex 9.156631430664062 -4.689733833648573 0.7999999999999989
    endloop
  endfacet
  facet normal -0.3214394653031609 0.9469301294951058 0
    outer loop
      vertex 9.310582854123025 -4.659110991546882 1.1
      vertex 9.459220118838108 -4.608655439013544 1.1
      vertex 9.310582854123025 -4.659110991546882 0.7999999999999989
    endloop
  endfacet
  facet normal -0.6593458151000713 0.7518398074789753 0
    outer loop
      vertex 9.848528137423857 -4.348528137423857 1.1
      vertex 9.730513714810465 -4.452024008349483 0.7999999999999989
      vertex 9.730513714810465 -4.452024008349483 1.1
    endloop
  endfacet
  facet normal -0.5555702330195964 0.8314696123025491 0
    outer loop
      vertex 9.6 -4.539230484541326 1.1
      vertex 9.730513714810465 -4.452024008349483 1.1
      vertex 9.6 -4.539230484541326 0.7999999999999989
    endloop
  endfacet
  facet normal -0.44228869021900463 0.8968727415326866 0
    outer loop
      vertex 9.6 -4.539230484541326 1.1
      vertex 9.6 -4.539230484541326 0.7999999999999989
      vertex 9.459220118838108 -4.608655439013544 0.7999999999999989
    endloop
  endfacet
  facet normal -0.06540312923014253 0.9978589232386036 0
    outer loop
      vertex 9.156631430664062 -4.689733833648573 1.1
      vertex 9.156631430664062 -4.689733833648573 0.7999999999999989
      vertex 9 -4.7 0.7999999999999989
    endloop
  endfacet
  facet normal -0.1950903220161293 0.9807852804032304 0
    outer loop
      vertex 9.156631430664062 -4.689733833648573 0.7999999999999989
      vertex 9.310582854123025 -4.659110991546882 1.1
      vertex 9.310582854123025 -4.659110991546882 0.7999999999999989
    endloop
  endfacet
  facet normal -0.3214394653031609 0.9469301294951058 0
    outer loop
      vertex 9.310582854123025 -4.659110991546882 0.7999999999999989
      vertex 9.459220118838108 -4.608655439013544 1.1
      vertex 9.459220118838108 -4.608655439013544 0.7999999999999989
    endloop
  endfacet
  facet normal -0.5555702330195964 0.8314696123025491 0
    outer loop
      vertex 9.6 -4.539230484541326 0.7999999999999989
      vertex 9.730513714810465 -4.452024008349483 1.1
      vertex 9.730513714810465 -4.452024008349483 0.7999999999999989
    endloop
  endfacet
  facet normal -0.6593458151000713 0.7518398074789753 0
    outer loop
      vertex 9.848528137423857 -4.348528137423857 1.1
      vertex 9.848528137423857 -4.348528137423857 0.7999999999999989
      vertex 9.730513714810465 -4.452024008349483 0.7999999999999989
    endloop
  endfacet
  facet normal 0.3214394653031602 -0.9469301294951061 0
    outer loop
      vertex 8.44510902307062 -2.160374677858634 1.1
      vertex 8.624712384601345 -2.099407551880851 5.1
      vertex 8.44510902307062 -2.160374677858634 5.1
    endloop
  endfacet
  facet normal 0.19509032201612875 -0.9807852804032304 0
    outer loop
      vertex 8.624712384601345 -2.099407551880851 1.1
      vertex 8.810737021280925 -2.062404951007975 5.1
      vertex 8.624712384601345 -2.099407551880851 5.1
    endloop
  endfacet
  facet normal 0.06540312923014414 -0.9978589232386034 0
    outer loop
      vertex 8.810737021280925 -2.062404951007975 1.1
      vertex 9 -2.05 5.1
      vertex 8.810737021280925 -2.062404951007975 5.1
    endloop
  endfacet
  facet normal 0.4422886902190035 -0.8968727415326871 0
    outer loop
      vertex 8.275 -2.244263164512564 1.1
      vertex 8.44510902307062 -2.160374677858634 5.1
      vertex 8.275 -2.244263164512564 5.1
    endloop
  endfacet
  facet normal 0.5555702330196026 -0.8314696123025449 0
    outer loop
      vertex 8.117295927937356 -2.349637656577709 1.1
      vertex 8.275 -2.244263164512564 5.1
      vertex 8.117295927937356 -2.349637656577709 5.1
    endloop
  endfacet
  facet normal 0.6593458151000683 -0.7518398074789779 0
    outer loop
      vertex 7.974695167279506 -2.4746951672795063 1.1
      vertex 8.117295927937356 -2.349637656577709 5.1
      vertex 7.974695167279506 -2.4746951672795063 5.1
    endloop
  endfacet
  facet normal 0.7518398074789759 -0.6593458151000706 0
    outer loop
      vertex 7.849637656577709 -2.617295927937355 1.1
      vertex 7.974695167279506 -2.4746951672795063 5.1
      vertex 7.849637656577709 -2.617295927937355 5.1
    endloop
  endfacet
  facet normal 0.8314696123025446 -0.5555702330196032 0
    outer loop
      vertex 7.744263164512564 -2.775 1.1
      vertex 7.849637656577709 -2.617295927937355 5.1
      vertex 7.744263164512564 -2.775 5.1
    endloop
  endfacet
  facet normal 0.8968727415326886 -0.44228869021900075 0
    outer loop
      vertex 7.660374677858634 -2.9451090230706196 1.1
      vertex 7.744263164512564 -2.775 5.1
      vertex 7.660374677858634 -2.9451090230706196 5.1
    endloop
  endfacet
  facet normal 0.9807852804032304 -0.19509032201612875 0
    outer loop
      vertex 7.562404951007975 -3.310737021280925 1.1
      vertex 7.5994075518808515 -3.124712384601345 5.1
      vertex 7.562404951007975 -3.310737021280925 5.1
    endloop
  endfacet
  facet normal 0.9469301294951069 -0.3214394653031581 0
    outer loop
      vertex 7.5994075518808515 -3.124712384601345 1.1
      vertex 7.660374677858634 -2.9451090230706196 5.1
      vertex 7.5994075518808515 -3.124712384601345 5.1
    endloop
  endfacet
  facet normal 0.9978589232386033 -0.06540312923014648 0
    outer loop
      vertex 7.55 -3.5 1.1
      vertex 7.562404951007975 -3.310737021280925 5.1
      vertex 7.55 -3.5 5.1
    endloop
  endfacet
  facet normal 0.3214394653031602 -0.9469301294951061 0
    outer loop
      vertex 8.44510902307062 -2.160374677858634 1.1
      vertex 8.624712384601345 -2.099407551880851 1.1
      vertex 8.624712384601345 -2.099407551880851 5.1
    endloop
  endfacet
  facet normal 0.19509032201612875 -0.9807852804032304 0
    outer loop
      vertex 8.624712384601345 -2.099407551880851 1.1
      vertex 8.810737021280925 -2.062404951007975 1.1
      vertex 8.810737021280925 -2.062404951007975 5.1
    endloop
  endfacet
  facet normal 0.06540312923014414 -0.9978589232386034 0
    outer loop
      vertex 8.810737021280925 -2.062404951007975 1.1
      vertex 9 -2.05 1.1
      vertex 9 -2.05 5.1
    endloop
  endfacet
  facet normal 0.6593458151000683 -0.7518398074789779 0
    outer loop
      vertex 8.117295927937356 -2.349637656577709 1.1
      vertex 8.117295927937356 -2.349637656577709 5.1
      vertex 7.974695167279506 -2.4746951672795063 1.1
    endloop
  endfacet
  facet normal 0.5555702330196026 -0.8314696123025449 0
    outer loop
      vertex 8.117295927937356 -2.349637656577709 1.1
      vertex 8.275 -2.244263164512564 1.1
      vertex 8.275 -2.244263164512564 5.1
    endloop
  endfacet
  facet normal 0.4422886902190035 -0.8968727415326871 0
    outer loop
      vertex 8.44510902307062 -2.160374677858634 1.1
      vertex 8.44510902307062 -2.160374677858634 5.1
      vertex 8.275 -2.244263164512564 1.1
    endloop
  endfacet
  facet normal 0.7518398074789759 -0.6593458151000706 0
    outer loop
      vertex 7.849637656577709 -2.617295927937355 1.1
      vertex 7.974695167279506 -2.4746951672795063 1.1
      vertex 7.974695167279506 -2.4746951672795063 5.1
    endloop
  endfacet
  facet normal 0.8314696123025446 -0.5555702330196032 0
    outer loop
      vertex 7.849637656577709 -2.617295927937355 1.1
      vertex 7.849637656577709 -2.617295927937355 5.1
      vertex 7.744263164512564 -2.775 1.1
    endloop
  endfacet
  facet normal 0.8968727415326886 -0.44228869021900075 0
    outer loop
      vertex 7.660374677858634 -2.9451090230706196 1.1
      vertex 7.744263164512564 -2.775 1.1
      vertex 7.744263164512564 -2.775 5.1
    endloop
  endfacet
  facet normal 0.9469301294951069 -0.3214394653031581 0
    outer loop
      vertex 7.660374677858634 -2.9451090230706196 1.1
      vertex 7.660374677858634 -2.9451090230706196 5.1
      vertex 7.5994075518808515 -3.124712384601345 1.1
    endloop
  endfacet
  facet normal 0.9807852804032304 -0.19509032201612875 0
    outer loop
      vertex 7.5994075518808515 -3.124712384601345 1.1
      vertex 7.5994075518808515 -3.124712384601345 5.1
      vertex 7.562404951007975 -3.310737021280925 1.1
    endloop
  endfacet
  facet normal 0.9978589232386033 -0.06540312923014648 0
    outer loop
      vertex 7.562404951007975 -3.310737021280925 1.1
      vertex 7.562404951007975 -3.310737021280925 5.1
      vertex 7.55 -3.5 1.1
    endloop
  endfacet
  facet normal 0 0 1
    outer loop
      vertex 8.624712384601345 -2.099407551880851 1.1
      vertex 8.689417145876975 -2.340889008453118 1.1
      vertex 8.810737021280925 -2.062404951007975 1.1
    endloop
  endfacet
  facet normal 0 0 1
    outer loop
      vertex 8.810737021280925 -2.062404951007975 1.1
      vertex 8.843368569335938 -2.3102661663514277 1.1
      vertex 9 -2.05 1.1
    endloop
  endfacet
  facet normal 0 0 1
    outer loop
      vertex 8.44510902307062 -2.160374677858634 1.1
      vertex 8.275 -2.244263164512564 1.1
      vertex 8.4 -2.460769515458674 1.1
    endloop
  endfacet
  facet normal 0 0 1
    outer loop
      vertex 8.117295927937356 -2.349637656577709 1.1
      vertex 7.974695167279506 -2.4746951672795063 1.1
      vertex 8.047975991650517 -2.769486285189535 1.1
    endloop
  endfacet
  facet normal 0 0 1
    outer loop
      vertex 8.117295927937356 -2.349637656577709 1.1
      vertex 8.047975991650517 -2.769486285189535 1.1
      vertex 8.151471862576143 -2.651471862576143 1.1
    endloop
  endfacet
  facet normal 0 0 1
    outer loop
      vertex 8.117295927937356 -2.349637656577709 1.1
      vertex 8.151471862576143 -2.651471862576143 1.1
      vertex 8.275 -2.244263164512564 1.1
    endloop
  endfacet
  facet normal 0 0 1
    outer loop
      vertex 8.269486285189535 -2.547975991650518 1.1
      vertex 8.275 -2.244263164512564 1.1
      vertex 8.151471862576143 -2.651471862576143 1.1
    endloop
  endfacet
  facet normal 0 0 1
    outer loop
      vertex 8.269486285189535 -2.547975991650518 1.1
      vertex 8.4 -2.460769515458674 1.1
      vertex 8.275 -2.244263164512564 1.1
    endloop
  endfacet
  facet normal 0 0 1
    outer loop
      vertex 8.44510902307062 -2.160374677858634 1.1
      vertex 8.540779881161892 -2.3913445609864556 1.1
      vertex 8.624712384601345 -2.099407551880851 1.1
    endloop
  endfacet
  facet normal 0 0 1
    outer loop
      vertex 8.624712384601345 -2.099407551880851 1.1
      vertex 8.540779881161892 -2.3913445609864556 1.1
      vertex 8.689417145876975 -2.340889008453118 1.1
    endloop
  endfacet
  facet normal 0 0 1
    outer loop
      vertex 8.44510902307062 -2.160374677858634 1.1
      vertex 8.4 -2.460769515458674 1.1
      vertex 8.540779881161892 -2.3913445609864556 1.1
    endloop
  endfacet
  facet normal 0 0 1
    outer loop
      vertex 8.810737021280925 -2.062404951007975 1.1
      vertex 8.689417145876975 -2.340889008453118 1.1
      vertex 8.843368569335938 -2.3102661663514277 1.1
    endloop
  endfacet
  facet normal 0 0 1
    outer loop
      vertex 8.843368569335938 -2.3102661663514277 1.1
      vertex 9 -2.3 1.1
      vertex 9 -2.05 1.1
    endloop
  endfacet
  facet normal 0 0 1
    outer loop
      vertex 7.849637656577709 -2.617295927937355 1.1
      vertex 7.840889008453118 -3.189417145876975 1.1
      vertex 7.891344560986456 -3.0407798811618925 1.1
    endloop
  endfacet
  facet normal 0 0 1
    outer loop
      vertex 7.849637656577709 -2.617295927937355 1.1
      vertex 7.810266166351427 -3.3433685693359383 1.1
      vertex 7.840889008453118 -3.189417145876975 1.1
    endloop
  endfacet
  facet normal 0 0 1
    outer loop
      vertex 7.849637656577709 -2.617295927937355 1.1
      vertex 7.8 -3.5 1.1
      vertex 7.810266166351427 -3.3433685693359383 1.1
    endloop
  endfacet
  facet normal 0 0 1
    outer loop
      vertex 7.660374677858634 -2.9451090230706196 1.1
      vertex 7.660374677858634 -4.05489097692938 1.1
      vertex 7.744263164512564 -2.775 1.1
    endloop
  endfacet
  facet normal 0 0 1
    outer loop
      vertex 7.849637656577709 -2.617295927937355 1.1
      vertex 7.744263164512564 -2.775 1.1
      vertex 7.744263164512564 -4.225 1.1
    endloop
  endfacet
  facet normal 0 0 1
    outer loop
      vertex 7.5994075518808515 -3.124712384601345 1.1
      vertex 7.562404951007975 -3.310737021280925 1.1
      vertex 7.562404951007975 -3.689262978719075 1.1
    endloop
  endfacet
  facet normal 0 0 1
    outer loop
      vertex 7.660374677858634 -2.9451090230706196 1.1
      vertex 7.5994075518808515 -3.124712384601345 1.1
      vertex 7.5994075518808515 -3.875287615398655 1.1
    endloop
  endfacet
  facet normal 0 0 1
    outer loop
      vertex 7.849637656577709 -2.617295927937355 1.1
      vertex 7.744263164512564 -4.225 1.1
      vertex 7.8 -3.5 1.1
    endloop
  endfacet
  facet normal 0 0 1
    outer loop
      vertex 7.849637656577709 -2.617295927937355 1.1
      vertex 7.891344560986456 -3.0407798811618925 1.1
      vertex 7.974695167279506 -2.4746951672795063 1.1
    endloop
  endfacet
  facet normal 0 0 1
    outer loop
      vertex 7.974695167279506 -2.4746951672795063 1.1
      vertex 7.960769515458674 -2.9 1.1
      vertex 8.047975991650517 -2.769486285189535 1.1
    endloop
  endfacet
  facet normal 0 0 1
    outer loop
      vertex 7.974695167279506 -2.4746951672795063 1.1
      vertex 7.891344560986456 -3.0407798811618925 1.1
      vertex 7.960769515458674 -2.9 1.1
    endloop
  endfacet
  facet normal 0.9978589232386033 0.06540312923014648 0
    outer loop
      vertex 7.562404951007975 -3.689262978719075 1.1
      vertex 7.55 -3.5 5.1
      vertex 7.562404951007975 -3.689262978719075 5.1
    endloop
  endfacet
  facet normal 0.9807852804032304 0.19509032201612875 0
    outer loop
      vertex 7.5994075518808515 -3.875287615398655 1.1
      vertex 7.562404951007975 -3.689262978719075 5.1
      vertex 7.5994075518808515 -3.875287615398655 5.1
    endloop
  endfacet
  facet normal 0.9469301294951069 0.3214394653031581 0
    outer loop
      vertex 7.660374677858634 -4.05489097692938 1.1
      vertex 7.5994075518808515 -3.875287615398655 5.1
      vertex 7.660374677858634 -4.05489097692938 5.1
    endloop
  endfacet
  facet normal 0.8968727415326881 0.44228869021900163 0
    outer loop
      vertex 7.744263164512564 -4.225 1.1
      vertex 7.660374677858634 -4.05489097692938 5.1
      vertex 7.744263164512564 -4.225 5.1
    endloop
  endfacet
  facet normal 0.8314696123025453 0.5555702330196022 0
    outer loop
      vertex 7.849637656577709 -4.382704072062645 1.1
      vertex 7.744263164512564 -4.225 5.1
      vertex 7.849637656577709 -4.382704072062645 5.1
    endloop
  endfacet
  facet normal 0.7518398074789759 0.6593458151000706 0
    outer loop
      vertex 7.974695167279506 -4.525304832720494 1.1
      vertex 7.849637656577709 -4.382704072062645 5.1
      vertex 7.974695167279506 -4.525304832720494 5.1
    endloop
  endfacet
  facet normal 0.6593458151000683 0.7518398074789779 0
    outer loop
      vertex 8.117295927937356 -4.650362343422291 1.1
      vertex 7.974695167279506 -4.525304832720494 5.1
      vertex 8.117295927937356 -4.650362343422291 5.1
    endloop
  endfacet
  facet normal 0.5555702330196043 0.8314696123025439 0
    outer loop
      vertex 8.275 -4.755736835487436 1.1
      vertex 8.117295927937356 -4.650362343422291 5.1
      vertex 8.275 -4.755736835487436 5.1
    endloop
  endfacet
  facet normal 0.44228869021900163 0.8968727415326881 0
    outer loop
      vertex 8.44510902307062 -4.839625322141366 1.1
      vertex 8.275 -4.755736835487436 5.1
      vertex 8.44510902307062 -4.839625322141366 5.1
    endloop
  endfacet
  facet normal 0.3214394653031581 0.9469301294951069 0
    outer loop
      vertex 8.624712384601345 -4.9005924481191485 1.1
      vertex 8.44510902307062 -4.839625322141366 5.1
      vertex 8.624712384601345 -4.9005924481191485 5.1
    endloop
  endfacet
  facet normal 0.19509032201612875 0.9807852804032304 0
    outer loop
      vertex 8.810737021280925 -4.937595048992025 1.1
      vertex 8.624712384601345 -4.9005924481191485 5.1
      vertex 8.810737021280925 -4.937595048992025 5.1
    endloop
  endfacet
  facet normal 0.06540312923014648 0.9978589232386033 0
    outer loop
      vertex 9 -4.95 1.1
      vertex 8.810737021280925 -4.937595048992025 5.1
      vertex 9 -4.95 5.1
    endloop
  endfacet
  facet normal 0.9978589232386033 0.06540312923014648 0
    outer loop
      vertex 7.55 -3.5 1.1
      vertex 7.55 -3.5 5.1
      vertex 7.562404951007975 -3.689262978719075 1.1
    endloop
  endfacet
  facet normal 0.9807852804032304 0.19509032201612875 0
    outer loop
      vertex 7.562404951007975 -3.689262978719075 1.1
      vertex 7.562404951007975 -3.689262978719075 5.1
      vertex 7.5994075518808515 -3.875287615398655 1.1
    endloop
  endfacet
  facet normal 0.9469301294951069 0.3214394653031581 0
    outer loop
      vertex 7.5994075518808515 -3.875287615398655 1.1
      vertex 7.5994075518808515 -3.875287615398655 5.1
      vertex 7.660374677858634 -4.05489097692938 1.1
    endloop
  endfacet
  facet normal 0.8968727415326881 0.44228869021900163 0
    outer loop
      vertex 7.660374677858634 -4.05489097692938 1.1
      vertex 7.660374677858634 -4.05489097692938 5.1
      vertex 7.744263164512564 -4.225 1.1
    endloop
  endfacet
  facet normal 0.8314696123025453 0.5555702330196022 0
    outer loop
      vertex 7.744263164512564 -4.225 1.1
      vertex 7.744263164512564 -4.225 5.1
      vertex 7.849637656577709 -4.382704072062645 1.1
    endloop
  endfacet
  facet normal 0.7518398074789759 0.6593458151000706 0
    outer loop
      vertex 7.849637656577709 -4.382704072062645 1.1
      vertex 7.849637656577709 -4.382704072062645 5.1
      vertex 7.974695167279506 -4.525304832720494 1.1
    endloop
  endfacet
  facet normal 0.6593458151000683 0.7518398074789779 0
    outer loop
      vertex 7.974695167279506 -4.525304832720494 1.1
      vertex 7.974695167279506 -4.525304832720494 5.1
      vertex 8.117295927937356 -4.650362343422291 1.1
    endloop
  endfacet
  facet normal 0.5555702330196043 0.8314696123025439 0
    outer loop
      vertex 8.117295927937356 -4.650362343422291 1.1
      vertex 8.117295927937356 -4.650362343422291 5.1
      vertex 8.275 -4.755736835487436 1.1
    endloop
  endfacet
  facet normal 0.44228869021900163 0.8968727415326881 0
    outer loop
      vertex 8.275 -4.755736835487436 1.1
      vertex 8.275 -4.755736835487436 5.1
      vertex 8.44510902307062 -4.839625322141366 1.1
    endloop
  endfacet
  facet normal 0.3214394653031581 0.9469301294951069 0
    outer loop
      vertex 8.44510902307062 -4.839625322141366 1.1
      vertex 8.44510902307062 -4.839625322141366 5.1
      vertex 8.624712384601345 -4.9005924481191485 1.1
    endloop
  endfacet
  facet normal 0.19509032201612875 0.9807852804032304 0
    outer loop
      vertex 8.624712384601345 -4.9005924481191485 1.1
      vertex 8.624712384601345 -4.9005924481191485 5.1
      vertex 8.810737021280925 -4.937595048992025 1.1
    endloop
  endfacet
  facet normal 0.06540312923014648 0.9978589232386033 0
    outer loop
      vertex 8.810737021280925 -4.937595048992025 1.1
      vertex 8.810737021280925 -4.937595048992025 5.1
      vertex 9 -4.95 1.1
    endloop
  endfacet
  facet normal 0 0 1
    outer loop
      vertex 7.562404951007975 -3.310737021280925 1.1
      vertex 7.55 -3.5 1.1
      vertex 7.562404951007975 -3.689262978719075 1.1
    endloop
  endfacet
  facet normal 0 0 1
    outer loop
      vertex 7.5994075518808515 -3.124712384601345 1.1
      vertex 7.562404951007975 -3.689262978719075 1.1
      vertex 7.5994075518808515 -3.875287615398655 1.1
    endloop
  endfacet
  facet normal 0 0 1
    outer loop
      vertex 7.660374677858634 -2.9451090230706196 1.1
      vertex 7.5994075518808515 -3.875287615398655 1.1
      vertex 7.660374677858634 -4.05489097692938 1.1
    endloop
  endfacet
  facet normal 0 0 1
    outer loop
      vertex 7.744263164512564 -2.775 1.1
      vertex 7.660374677858634 -4.05489097692938 1.1
      vertex 7.744263164512564 -4.225 1.1
    endloop
  endfacet
  facet normal 0 0 1
    outer loop
      vertex 7.8 -3.5 1.1
      vertex 7.744263164512564 -4.225 1.1
      vertex 7.810266166351427 -3.6566314306640617 1.1
    endloop
  endfacet
  facet normal 0 0 1
    outer loop
      vertex 7.810266166351427 -3.6566314306640617 1.1
      vertex 7.744263164512564 -4.225 1.1
      vertex 7.840889008453118 -3.810582854123025 1.1
    endloop
  endfacet
  facet normal 0 0 1
    outer loop
      vertex 7.840889008453118 -3.810582854123025 1.1
      vertex 7.744263164512564 -4.225 1.1
      vertex 7.891344560986456 -3.9592201188381075 1.1
    endloop
  endfacet
  facet normal 0 0 1
    outer loop
      vertex 7.891344560986456 -3.9592201188381075 1.1
      vertex 7.744263164512564 -4.225 1.1
      vertex 7.849637656577709 -4.382704072062645 1.1
    endloop
  endfacet
  facet normal 0 0 1
    outer loop
      vertex 7.891344560986456 -3.9592201188381075 1.1
      vertex 7.849637656577709 -4.382704072062645 1.1
      vertex 7.960769515458674 -4.1 1.1
    endloop
  endfacet
  facet normal 0 0 1
    outer loop
      vertex 7.960769515458674 -4.1 1.1
      vertex 7.849637656577709 -4.382704072062645 1.1
      vertex 8.047975991650517 -4.230513714810465 1.1
    endloop
  endfacet
  facet normal 0 0 1
    outer loop
      vertex 8.047975991650517 -4.230513714810465 1.1
      vertex 7.974695167279506 -4.525304832720494 1.1
      vertex 8.151471862576143 -4.348528137423857 1.1
    endloop
  endfacet
  facet normal 0 0 1
    outer loop
      vertex 7.849637656577709 -4.382704072062645 1.1
      vertex 7.974695167279506 -4.525304832720494 1.1
      vertex 8.047975991650517 -4.230513714810465 1.1
    endloop
  endfacet
  facet normal 0 0 1
    outer loop
      vertex 7.974695167279506 -4.525304832720494 1.1
      vertex 8.117295927937356 -4.650362343422291 1.1
      vertex 8.151471862576143 -4.348528137423857 1.1
    endloop
  endfacet
  facet normal 0 0 1
    outer loop
      vertex 8.151471862576143 -4.348528137423857 1.1
      vertex 8.117295927937356 -4.650362343422291 1.1
      vertex 8.269486285189535 -4.452024008349483 1.1
    endloop
  endfacet
  facet normal 0 0 1
    outer loop
      vertex 8.269486285189535 -4.452024008349483 1.1
      vertex 8.117295927937356 -4.650362343422291 1.1
      vertex 8.4 -4.539230484541326 1.1
    endloop
  endfacet
  facet normal 0 0 1
    outer loop
      vertex 8.117295927937356 -4.650362343422291 1.1
      vertex 8.275 -4.755736835487436 1.1
      vertex 8.4 -4.539230484541326 1.1
    endloop
  endfacet
  facet normal 0 0 1
    outer loop
      vertex 8.4 -4.539230484541326 1.1
      vertex 8.275 -4.755736835487436 1.1
      vertex 8.540779881161892 -4.608655439013544 1.1
    endloop
  endfacet
  facet normal 0 0 1
    outer loop
      vertex 8.275 -4.755736835487436 1.1
      vertex 8.44510902307062 -4.839625322141366 1.1
      vertex 8.540779881161892 -4.608655439013544 1.1
    endloop
  endfacet
  facet normal 0 0 1
    outer loop
      vertex 8.44510902307062 -4.839625322141366 1.1
      vertex 8.689417145876975 -4.659110991546882 1.1
      vertex 8.540779881161892 -4.608655439013544 1.1
    endloop
  endfacet
  facet normal 0 0 1
    outer loop
      vertex 8.44510902307062 -4.839625322141366 1.1
      vertex 8.624712384601345 -4.9005924481191485 1.1
      vertex 8.689417145876975 -4.659110991546882 1.1
    endloop
  endfacet
  facet normal 0 0 1
    outer loop
      vertex 8.624712384601345 -4.9005924481191485 1.1
      vertex 8.843368569335938 -4.689733833648573 1.1
      vertex 8.689417145876975 -4.659110991546882 1.1
    endloop
  endfacet
  facet normal 0 0 1
    outer loop
      vertex 8.810737021280925 -4.937595048992025 1.1
      vertex 9 -4.7 1.1
      vertex 8.843368569335938 -4.689733833648573 1.1
    endloop
  endfacet
  facet normal 0 0 1
    outer loop
      vertex 8.624712384601345 -4.9005924481191485 1.1
      vertex 8.810737021280925 -4.937595048992025 1.1
      vertex 8.843368569335938 -4.689733833648573 1.1
    endloop
  endfacet
  facet normal 0 0 1
    outer loop
      vertex 8.810737021280925 -4.937595048992025 1.1
      vertex 9 -4.95 1.1
      vertex 9 -4.7 1.1
    endloop
  endfacet
  facet normal -0.06540312923014414 -0.9978589232386034 0
    outer loop
      vertex 9 -2.05 1.1
      vertex 9.189262978719075 -2.062404951007975 5.1
      vertex 9 -2.05 5.1
    endloop
  endfacet
  facet normal -0.19509032201612875 -0.9807852804032304 0
    outer loop
      vertex 9.189262978719075 -2.062404951007975 1.1
      vertex 9.375287615398655 -2.099407551880851 5.1
      vertex 9.189262978719075 -2.062404951007975 5.1
    endloop
  endfacet
  facet normal -0.3214394653031602 -0.9469301294951061 0
    outer loop
      vertex 9.375287615398655 -2.099407551880851 1.1
      vertex 9.55489097692938 -2.160374677858634 5.1
      vertex 9.375287615398655 -2.099407551880851 5.1
    endloop
  endfacet
  facet normal -0.4422886902190035 -0.8968727415326871 0
    outer loop
      vertex 9.55489097692938 -2.160374677858634 1.1
      vertex 9.725 -2.244263164512564 5.1
      vertex 9.55489097692938 -2.160374677858634 5.1
    endloop
  endfacet
  facet normal -0.5555702330196026 -0.8314696123025449 0
    outer loop
      vertex 9.725 -2.244263164512564 1.1
      vertex 9.882704072062644 -2.349637656577709 5.1
      vertex 9.725 -2.244263164512564 5.1
    endloop
  endfacet
  facet normal -0.6593458151000683 -0.7518398074789779 0
    outer loop
      vertex 9.882704072062644 -2.349637656577709 1.1
      vertex 10.025304832720494 -2.4746951672795063 5.1
      vertex 9.882704072062644 -2.349637656577709 5.1
    endloop
  endfacet
  facet normal -0.7518398074789759 -0.6593458151000706 0
    outer loop
      vertex 10.025304832720494 -2.4746951672795063 1.1
      vertex 10.150362343422291 -2.617295927937355 5.1
      vertex 10.025304832720494 -2.4746951672795063 5.1
    endloop
  endfacet
  facet normal -0.8314696123025446 -0.5555702330196032 0
    outer loop
      vertex 10.150362343422291 -2.617295927937355 1.1
      vertex 10.255736835487436 -2.775 5.1
      vertex 10.150362343422291 -2.617295927937355 5.1
    endloop
  endfacet
  facet normal -0.8968727415326886 -0.44228869021900075 0
    outer loop
      vertex 10.255736835487436 -2.775 1.1
      vertex 10.339625322141366 -2.9451090230706196 5.1
      vertex 10.255736835487436 -2.775 5.1
    endloop
  endfacet
  facet normal -0.9469301294951069 -0.3214394653031581 0
    outer loop
      vertex 10.339625322141366 -2.9451090230706196 1.1
      vertex 10.400592448119149 -3.124712384601345 5.1
      vertex 10.339625322141366 -2.9451090230706196 5.1
    endloop
  endfacet
  facet normal -0.9807852804032304 -0.19509032201612875 0
    outer loop
      vertex 10.400592448119149 -3.124712384601345 1.1
      vertex 10.437595048992025 -3.310737021280925 5.1
      vertex 10.400592448119149 -3.124712384601345 5.1
    endloop
  endfacet
  facet normal -0.9978589232386036 -0.06540312923014181 0
    outer loop
      vertex 10.437595048992025 -3.310737021280925 1.1
      vertex 10.45 -3.5 5.1
      vertex 10.437595048992025 -3.310737021280925 5.1
    endloop
  endfacet
  facet normal -0.06540312923014414 -0.9978589232386034 0
    outer loop
      vertex 9 -2.05 1.1
      vertex 9.189262978719075 -2.062404951007975 1.1
      vertex 9.189262978719075 -2.062404951007975 5.1
    endloop
  endfacet
  facet normal -0.19509032201612875 -0.9807852804032304 0
    outer loop
      vertex 9.189262978719075 -2.062404951007975 1.1
      vertex 9.375287615398655 -2.099407551880851 1.1
      vertex 9.375287615398655 -2.099407551880851 5.1
    endloop
  endfacet
  facet normal -0.3214394653031602 -0.9469301294951061 0
    outer loop
      vertex 9.375287615398655 -2.099407551880851 1.1
      vertex 9.55489097692938 -2.160374677858634 1.1
      vertex 9.55489097692938 -2.160374677858634 5.1
    endloop
  endfacet
  facet normal -0.4422886902190035 -0.8968727415326871 0
    outer loop
      vertex 9.55489097692938 -2.160374677858634 1.1
      vertex 9.725 -2.244263164512564 1.1
      vertex 9.725 -2.244263164512564 5.1
    endloop
  endfacet
  facet normal -0.5555702330196026 -0.8314696123025449 0
    outer loop
      vertex 9.725 -2.244263164512564 1.1
      vertex 9.882704072062644 -2.349637656577709 1.1
      vertex 9.882704072062644 -2.349637656577709 5.1
    endloop
  endfacet
  facet normal -0.6593458151000683 -0.7518398074789779 0
    outer loop
      vertex 9.882704072062644 -2.349637656577709 1.1
      vertex 10.025304832720494 -2.4746951672795063 1.1
      vertex 10.025304832720494 -2.4746951672795063 5.1
    endloop
  endfacet
  facet normal -0.7518398074789759 -0.6593458151000706 0
    outer loop
      vertex 10.025304832720494 -2.4746951672795063 1.1
      vertex 10.150362343422291 -2.617295927937355 1.1
      vertex 10.150362343422291 -2.617295927937355 5.1
    endloop
  endfacet
  facet normal -0.8314696123025446 -0.5555702330196032 0
    outer loop
      vertex 10.150362343422291 -2.617295927937355 1.1
      vertex 10.255736835487436 -2.775 1.1
      vertex 10.255736835487436 -2.775 5.1
    endloop
  endfacet
  facet normal -0.8968727415326886 -0.44228869021900075 0
    outer loop
      vertex 10.255736835487436 -2.775 1.1
      vertex 10.339625322141366 -2.9451090230706196 1.1
      vertex 10.339625322141366 -2.9451090230706196 5.1
    endloop
  endfacet
  facet normal -0.9469301294951069 -0.3214394653031581 0
    outer loop
      vertex 10.339625322141366 -2.9451090230706196 1.1
      vertex 10.400592448119149 -3.124712384601345 1.1
      vertex 10.400592448119149 -3.124712384601345 5.1
    endloop
  endfacet
  facet normal -0.9807852804032304 -0.19509032201612875 0
    outer loop
      vertex 10.400592448119149 -3.124712384601345 1.1
      vertex 10.437595048992025 -3.310737021280925 1.1
      vertex 10.437595048992025 -3.310737021280925 5.1
    endloop
  endfacet
  facet normal -0.9978589232386036 -0.06540312923014181 0
    outer loop
      vertex 10.437595048992025 -3.310737021280925 1.1
      vertex 10.45 -3.5 1.1
      vertex 10.45 -3.5 5.1
    endloop
  endfacet
  facet normal 0 0 1
    outer loop
      vertex 9 -2.05 1.1
      vertex 9 -2.3 1.1
      vertex 9.189262978719075 -2.062404951007975 1.1
    endloop
  endfacet
  facet normal 0 0 1
    outer loop
      vertex 9.156631430664062 -2.3102661663514277 1.1
      vertex 9.375287615398655 -2.099407551880851 1.1
      vertex 9.189262978719075 -2.062404951007975 1.1
    endloop
  endfacet
  facet normal 0 0 1
    outer loop
      vertex 9 -2.3 1.1
      vertex 9.156631430664062 -2.3102661663514277 1.1
      vertex 9.189262978719075 -2.062404951007975 1.1
    endloop
  endfacet
  facet normal 0 0 1
    outer loop
      vertex 9.156631430664062 -2.3102661663514277 1.1
      vertex 9.310582854123025 -2.340889008453118 1.1
      vertex 9.375287615398655 -2.099407551880851 1.1
    endloop
  endfacet
  facet normal 0 0 1
    outer loop
      vertex 9.310582854123025 -2.340889008453118 1.1
      vertex 9.55489097692938 -2.160374677858634 1.1
      vertex 9.375287615398655 -2.099407551880851 1.1
    endloop
  endfacet
  facet normal 0 0 1
    outer loop
      vertex 9.310582854123025 -2.340889008453118 1.1
      vertex 9.459220118838108 -2.3913445609864556 1.1
      vertex 9.55489097692938 -2.160374677858634 1.1
    endloop
  endfacet
  facet normal 0 0 1
    outer loop
      vertex 9.459220118838108 -2.3913445609864556 1.1
      vertex 9.725 -2.244263164512564 1.1
      vertex 9.55489097692938 -2.160374677858634 1.1
    endloop
  endfacet
  facet normal 0 0 1
    outer loop
      vertex 9.459220118838108 -2.3913445609864556 1.1
      vertex 9.6 -2.460769515458674 1.1
      vertex 9.725 -2.244263164512564 1.1
    endloop
  endfacet
  facet normal 0 0 1
    outer loop
      vertex 9.6 -2.460769515458674 1.1
      vertex 9.882704072062644 -2.349637656577709 1.1
      vertex 9.725 -2.244263164512564 1.1
    endloop
  endfacet
  facet normal 0 0 1
    outer loop
      vertex 9.6 -2.460769515458674 1.1
      vertex 9.730513714810465 -2.547975991650518 1.1
      vertex 9.882704072062644 -2.349637656577709 1.1
    endloop
  endfacet
  facet normal 0 0 1
    outer loop
      vertex 9.882704072062644 -2.349637656577709 1.1
      vertex 9.730513714810465 -2.547975991650518 1.1
      vertex 9.848528137423857 -2.651471862576143 1.1
    endloop
  endfacet
  facet normal 0 0 1
    outer loop
      vertex 9.882704072062644 -2.349637656577709 1.1
      vertex 9.848528137423857 -2.651471862576143 1.1
      vertex 10.025304832720494 -2.4746951672795063 1.1
    endloop
  endfacet
  facet normal 0 0 1
    outer loop
      vertex 10.025304832720494 -2.4746951672795063 1.1
      vertex 9.952024008349483 -2.769486285189535 1.1
      vertex 10.150362343422291 -2.617295927937355 1.1
    endloop
  endfacet
  facet normal 0 0 1
    outer loop
      vertex 9.848528137423857 -2.651471862576143 1.1
      vertex 9.952024008349483 -2.769486285189535 1.1
      vertex 10.025304832720494 -2.4746951672795063 1.1
    endloop
  endfacet
  facet normal 0 0 1
    outer loop
      vertex 9.952024008349483 -2.769486285189535 1.1
      vertex 10.039230484541326 -2.9 1.1
      vertex 10.150362343422291 -2.617295927937355 1.1
    endloop
  endfacet
  facet normal 0 0 1
    outer loop
      vertex 10.150362343422291 -2.617295927937355 1.1
      vertex 10.039230484541326 -2.9 1.1
      vertex 10.108655439013544 -3.0407798811618925 1.1
    endloop
  endfacet
  facet normal 0 0 1
    outer loop
      vertex 10.150362343422291 -2.617295927937355 1.1
      vertex 10.108655439013544 -3.0407798811618925 1.1
      vertex 10.255736835487436 -2.775 1.1
    endloop
  endfacet
  facet normal 0 0 1
    outer loop
      vertex 10.255736835487436 -2.775 1.1
      vertex 10.108655439013544 -3.0407798811618925 1.1
      vertex 10.159110991546882 -3.189417145876975 1.1
    endloop
  endfacet
  facet normal 0 0 1
    outer loop
      vertex 10.255736835487436 -2.775 1.1
      vertex 10.159110991546882 -3.189417145876975 1.1
      vertex 10.189733833648573 -3.3433685693359383 1.1
    endloop
  endfacet
  facet normal 0 0 1
    outer loop
      vertex 10.255736835487436 -2.775 1.1
      vertex 10.189733833648573 -3.3433685693359383 1.1
      vertex 10.2 -3.5 1.1
    endloop
  endfacet
  facet normal 0 0 1
    outer loop
      vertex 10.255736835487436 -2.775 1.1
      vertex 10.255736835487436 -4.225 1.1
      vertex 10.339625322141366 -2.9451090230706196 1.1
    endloop
  endfacet
  facet normal 0 0 1
    outer loop
      vertex 10.339625322141366 -2.9451090230706196 1.1
      vertex 10.339625322141366 -4.05489097692938 1.1
      vertex 10.400592448119149 -3.124712384601345 1.1
    endloop
  endfacet
  facet normal 0 0 1
    outer loop
      vertex 10.400592448119149 -3.124712384601345 1.1
      vertex 10.400592448119149 -3.875287615398655 1.1
      vertex 10.437595048992025 -3.310737021280925 1.1
    endloop
  endfacet
  facet normal -0.9978589232386036 0.06540312923014181 0
    outer loop
      vertex 10.45 -3.5 1.1
      vertex 10.437595048992025 -3.689262978719075 5.1
      vertex 10.45 -3.5 5.1
    endloop
  endfacet
  facet normal -0.9469301294951069 0.3214394653031581 0
    outer loop
      vertex 10.400592448119149 -3.875287615398655 1.1
      vertex 10.339625322141366 -4.05489097692938 5.1
      vertex 10.400592448119149 -3.875287615398655 5.1
    endloop
  endfacet
  facet normal -0.9807852804032304 0.19509032201612875 0
    outer loop
      vertex 10.437595048992025 -3.689262978719075 1.1
      vertex 10.400592448119149 -3.875287615398655 5.1
      vertex 10.437595048992025 -3.689262978719075 5.1
    endloop
  endfacet
  facet normal -0.8968727415326881 0.44228869021900163 0
    outer loop
      vertex 10.339625322141366 -4.05489097692938 1.1
      vertex 10.255736835487436 -4.225 5.1
      vertex 10.339625322141366 -4.05489097692938 5.1
    endloop
  endfacet
  facet normal -0.8314696123025453 0.5555702330196022 0
    outer loop
      vertex 10.255736835487436 -4.225 1.1
      vertex 10.150362343422291 -4.382704072062645 5.1
      vertex 10.255736835487436 -4.225 5.1
    endloop
  endfacet
  facet normal -0.7518398074789759 0.6593458151000706 0
    outer loop
      vertex 10.150362343422291 -4.382704072062645 1.1
      vertex 10.025304832720494 -4.525304832720494 5.1
      vertex 10.150362343422291 -4.382704072062645 5.1
    endloop
  endfacet
  facet normal -0.6593458151000683 0.7518398074789779 0
    outer loop
      vertex 10.025304832720494 -4.525304832720494 1.1
      vertex 9.882704072062644 -4.650362343422291 5.1
      vertex 10.025304832720494 -4.525304832720494 5.1
    endloop
  endfacet
  facet normal -0.5555702330196043 0.8314696123025439 0
    outer loop
      vertex 9.882704072062644 -4.650362343422291 1.1
      vertex 9.725 -4.755736835487436 5.1
      vertex 9.882704072062644 -4.650362343422291 5.1
    endloop
  endfacet
  facet normal -0.44228869021900163 0.8968727415326881 0
    outer loop
      vertex 9.725 -4.755736835487436 1.1
      vertex 9.55489097692938 -4.839625322141366 5.1
      vertex 9.725 -4.755736835487436 5.1
    endloop
  endfacet
  facet normal -0.06540312923014648 0.9978589232386033 0
    outer loop
      vertex 9.189262978719075 -4.937595048992025 1.1
      vertex 9 -4.95 5.1
      vertex 9.189262978719075 -4.937595048992025 5.1
    endloop
  endfacet
  facet normal -0.19509032201612875 0.9807852804032304 0
    outer loop
      vertex 9.375287615398655 -4.9005924481191485 1.1
      vertex 9.189262978719075 -4.937595048992025 5.1
      vertex 9.375287615398655 -4.9005924481191485 5.1
    endloop
  endfacet
  facet normal -0.3214394653031581 0.9469301294951069 0
    outer loop
      vertex 9.55489097692938 -4.839625322141366 1.1
      vertex 9.375287615398655 -4.9005924481191485 5.1
      vertex 9.55489097692938 -4.839625322141366 5.1
    endloop
  endfacet
  facet normal -0.9978589232386036 0.06540312923014181 0
    outer loop
      vertex 10.45 -3.5 1.1
      vertex 10.437595048992025 -3.689262978719075 1.1
      vertex 10.437595048992025 -3.689262978719075 5.1
    endloop
  endfacet
  facet normal -0.9807852804032304 0.19509032201612875 0
    outer loop
      vertex 10.437595048992025 -3.689262978719075 1.1
      vertex 10.400592448119149 -3.875287615398655 1.1
      vertex 10.400592448119149 -3.875287615398655 5.1
    endloop
  endfacet
  facet normal -0.9469301294951069 0.3214394653031581 0
    outer loop
      vertex 10.400592448119149 -3.875287615398655 1.1
      vertex 10.339625322141366 -4.05489097692938 1.1
      vertex 10.339625322141366 -4.05489097692938 5.1
    endloop
  endfacet
  facet normal -0.8968727415326881 0.44228869021900163 0
    outer loop
      vertex 10.255736835487436 -4.225 1.1
      vertex 10.255736835487436 -4.225 5.1
      vertex 10.339625322141366 -4.05489097692938 1.1
    endloop
  endfacet
  facet normal -0.8314696123025453 0.5555702330196022 0
    outer loop
      vertex 10.255736835487436 -4.225 1.1
      vertex 10.150362343422291 -4.382704072062645 1.1
      vertex 10.150362343422291 -4.382704072062645 5.1
    endloop
  endfacet
  facet normal -0.7518398074789759 0.6593458151000706 0
    outer loop
      vertex 10.025304832720494 -4.525304832720494 1.1
      vertex 10.025304832720494 -4.525304832720494 5.1
      vertex 10.150362343422291 -4.382704072062645 1.1
    endloop
  endfacet
  facet normal -0.44228869021900163 0.8968727415326881 0
    outer loop
      vertex 9.55489097692938 -4.839625322141366 1.1
      vertex 9.55489097692938 -4.839625322141366 5.1
      vertex 9.725 -4.755736835487436 1.1
    endloop
  endfacet
  facet normal -0.5555702330196043 0.8314696123025439 0
    outer loop
      vertex 9.725 -4.755736835487436 1.1
      vertex 9.725 -4.755736835487436 5.1
      vertex 9.882704072062644 -4.650362343422291 1.1
    endloop
  endfacet
  facet normal -0.6593458151000683 0.7518398074789779 0
    outer loop
      vertex 10.025304832720494 -4.525304832720494 1.1
      vertex 9.882704072062644 -4.650362343422291 1.1
      vertex 9.882704072062644 -4.650362343422291 5.1
    endloop
  endfacet
  facet normal -0.06540312923014648 0.9978589232386033 0
    outer loop
      vertex 9 -4.95 1.1
      vertex 9 -4.95 5.1
      vertex 9.189262978719075 -4.937595048992025 1.1
    endloop
  endfacet
  facet normal -0.19509032201612875 0.9807852804032304 0
    outer loop
      vertex 9.189262978719075 -4.937595048992025 1.1
      vertex 9.189262978719075 -4.937595048992025 5.1
      vertex 9.375287615398655 -4.9005924481191485 1.1
    endloop
  endfacet
  facet normal -0.3214394653031581 0.9469301294951069 0
    outer loop
      vertex 9.375287615398655 -4.9005924481191485 1.1
      vertex 9.375287615398655 -4.9005924481191485 5.1
      vertex 9.55489097692938 -4.839625322141366 1.1
    endloop
  endfacet
  facet normal 0 0 1
    outer loop
      vertex 10.039230484541326 -4.1 1.1
      vertex 10.025304832720494 -4.525304832720494 1.1
      vertex 10.108655439013544 -3.9592201188381075 1.1
    endloop
  endfacet
  facet normal 0 0 1
    outer loop
      vertex 10.039230484541326 -4.1 1.1
      vertex 9.952024008349483 -4.230513714810465 1.1
      vertex 10.025304832720494 -4.525304832720494 1.1
    endloop
  endfacet
  facet normal 0 0 1
    outer loop
      vertex 10.108655439013544 -3.9592201188381075 1.1
      vertex 10.025304832720494 -4.525304832720494 1.1
      vertex 10.150362343422291 -4.382704072062645 1.1
    endloop
  endfacet
  facet normal 0 0 1
    outer loop
      vertex 10.255736835487436 -2.775 1.1
      vertex 10.2 -3.5 1.1
      vertex 10.150362343422291 -4.382704072062645 1.1
    endloop
  endfacet
  facet normal 0 0 1
    outer loop
      vertex 10.400592448119149 -3.124712384601345 1.1
      vertex 10.339625322141366 -4.05489097692938 1.1
      vertex 10.400592448119149 -3.875287615398655 1.1
    endloop
  endfacet
  facet normal 0 0 1
    outer loop
      vertex 10.437595048992025 -3.310737021280925 1.1
      vertex 10.437595048992025 -3.689262978719075 1.1
      vertex 10.45 -3.5 1.1
    endloop
  endfacet
  facet normal 0 0 1
    outer loop
      vertex 10.437595048992025 -3.310737021280925 1.1
      vertex 10.400592448119149 -3.875287615398655 1.1
      vertex 10.437595048992025 -3.689262978719075 1.1
    endloop
  endfacet
  facet normal 0 0 1
    outer loop
      vertex 10.255736835487436 -2.775 1.1
      vertex 10.150362343422291 -4.382704072062645 1.1
      vertex 10.255736835487436 -4.225 1.1
    endloop
  endfacet
  facet normal 0 0 1
    outer loop
      vertex 10.339625322141366 -2.9451090230706196 1.1
      vertex 10.255736835487436 -4.225 1.1
      vertex 10.339625322141366 -4.05489097692938 1.1
    endloop
  endfacet
  facet normal 0 0 1
    outer loop
      vertex 10.2 -3.5 1.1
      vertex 10.189733833648573 -3.6566314306640617 1.1
      vertex 10.150362343422291 -4.382704072062645 1.1
    endloop
  endfacet
  facet normal 0 0 1
    outer loop
      vertex 10.189733833648573 -3.6566314306640617 1.1
      vertex 10.159110991546882 -3.810582854123025 1.1
      vertex 10.150362343422291 -4.382704072062645 1.1
    endloop
  endfacet
  facet normal 0 0 1
    outer loop
      vertex 10.159110991546882 -3.810582854123025 1.1
      vertex 10.108655439013544 -3.9592201188381075 1.1
      vertex 10.150362343422291 -4.382704072062645 1.1
    endloop
  endfacet
  facet normal 0 0 1
    outer loop
      vertex 9 -4.7 1.1
      vertex 9 -4.95 1.1
      vertex 9.156631430664062 -4.689733833648573 1.1
    endloop
  endfacet
  facet normal 0 0 1
    outer loop
      vertex 9.156631430664062 -4.689733833648573 1.1
      vertex 9.189262978719075 -4.937595048992025 1.1
      vertex 9.310582854123025 -4.659110991546882 1.1
    endloop
  endfacet
  facet normal 0 0 1
    outer loop
      vertex 9.6 -4.539230484541326 1.1
      vertex 9.459220118838108 -4.608655439013544 1.1
      vertex 9.55489097692938 -4.839625322141366 1.1
    endloop
  endfacet
  facet normal 0 0 1
    outer loop
      vertex 9.310582854123025 -4.659110991546882 1.1
      vertex 9.375287615398655 -4.9005924481191485 1.1
      vertex 9.459220118838108 -4.608655439013544 1.1
    endloop
  endfacet
  facet normal 0 0 1
    outer loop
      vertex 9.459220118838108 -4.608655439013544 1.1
      vertex 9.375287615398655 -4.9005924481191485 1.1
      vertex 9.55489097692938 -4.839625322141366 1.1
    endloop
  endfacet
  facet normal 0 0 1
    outer loop
      vertex 9.6 -4.539230484541326 1.1
      vertex 9.725 -4.755736835487436 1.1
      vertex 9.730513714810465 -4.452024008349483 1.1
    endloop
  endfacet
  facet normal 0 0 1
    outer loop
      vertex 9.848528137423857 -4.348528137423857 1.1
      vertex 9.730513714810465 -4.452024008349483 1.1
      vertex 9.725 -4.755736835487436 1.1
    endloop
  endfacet
  facet normal 0 0 1
    outer loop
      vertex 9.848528137423857 -4.348528137423857 1.1
      vertex 9.725 -4.755736835487436 1.1
      vertex 9.882704072062644 -4.650362343422291 1.1
    endloop
  endfacet
  facet normal 0 0 1
    outer loop
      vertex 9.848528137423857 -4.348528137423857 1.1
      vertex 9.882704072062644 -4.650362343422291 1.1
      vertex 9.952024008349483 -4.230513714810465 1.1
    endloop
  endfacet
  facet normal 0 0 1
    outer loop
      vertex 9.952024008349483 -4.230513714810465 1.1
      vertex 9.882704072062644 -4.650362343422291 1.1
      vertex 10.025304832720494 -4.525304832720494 1.1
    endloop
  endfacet
  facet normal 0 0 1
    outer loop
      vertex 9.6 -4.539230484541326 1.1
      vertex 9.55489097692938 -4.839625322141366 1.1
      vertex 9.725 -4.755736835487436 1.1
    endloop
  endfacet
  facet normal 0 0 1
    outer loop
      vertex 9.156631430664062 -4.689733833648573 1.1
      vertex 9 -4.95 1.1
      vertex 9.189262978719075 -4.937595048992025 1.1
    endloop
  endfacet
  facet normal 0 0 1
    outer loop
      vertex 9.310582854123025 -4.659110991546882 1.1
      vertex 9.189262978719075 -4.937595048992025 1.1
      vertex 9.375287615398655 -4.9005924481191485 1.1
    endloop
  endfacet
endsolid OpenSCAD_Model
